<svg width="530" height="260" viewBox="0 0 530 260" fill="none" xmlns="http://www.w3.org/2000/svg">
<path d="M58 25.0001H486V167C486 183.569 472.569 197 456 197H88C71.4315 197 58 183.569 58 167V25.0001Z" fill="#CDEBEF"/>
<path d="M59.7348 156.652L52.1313 162.384C46.04 166.976 38.8958 170.558 31.7265 167.951C31.0649 167.711 30.3771 167.44 29.6636 167.136C20.5555 163.253 16.8286 162.864 32.7221 144.301C48.6155 125.737 48.2492 142.033 53.8227 124.187C59.3963 106.341 43.6921 120.138 59.3322 89.1028C74.9723 58.0681 73.7696 86.0029 90.2399 76.4741C106.71 66.9453 105.529 51.9242 115.998 42.7263C126.468 33.5283 135.521 43.5077 135.249 57.4198C134.978 71.3319 124.24 77.8693 106.948 89.227C93.1152 98.3132 85.3939 113.701 83.2623 120.259C79.9669 134.789 71.6315 147.682 59.7348 156.652Z" fill="white" fill-opacity="0.5"/>
<path d="M400.245 92.1149L394.965 100.039C390.735 106.388 387.576 113.728 390.595 120.734C390.874 121.38 391.185 122.051 391.53 122.746C395.936 131.612 396.541 135.31 414.148 118.363C431.754 101.415 415.508 102.73 432.999 96.1264C450.49 89.5231 437.631 106.004 467.702 88.5833C497.774 71.1625 469.956 73.9898 478.51 56.9926C487.063 39.9953 502.128 40.2998 510.701 29.3125C519.273 18.3252 508.784 9.86855 494.911 10.9499C481.038 12.0312 475.137 23.1318 464.806 41.0552C456.54 55.3939 441.628 63.9983 435.205 66.5081C420.892 70.644 408.506 79.7161 400.245 92.1149Z" fill="white" fill-opacity="0.5"/>
<path d="M25.2448 209.115L19.9649 217.039C15.7351 223.388 12.5757 230.728 15.5954 237.734C15.8741 238.38 16.1845 239.051 16.5297 239.746C20.9359 248.612 21.5413 252.31 39.1479 235.363C56.7545 218.415 40.508 219.73 57.9991 213.126C75.4902 206.523 62.6312 223.004 92.7025 205.583C122.774 188.162 94.9564 190.99 103.51 173.993C112.063 156.995 127.128 157.3 135.701 146.313C144.273 135.325 133.784 126.869 119.911 127.95C106.038 129.031 100.137 140.132 89.8057 158.055C81.5405 172.394 66.6282 180.998 60.2052 183.508C45.8918 187.644 33.506 196.716 25.2448 209.115Z" fill="white" fill-opacity="0.5"/>
<path d="M397.245 175.115L385.594 192.601C390 201.468 400.393 199.447 418 182.5C435.606 165.553 427.009 199.205 444.5 192.601C461.991 185.998 439.929 182.921 470 165.5C500.071 148.079 466.956 156.99 475.51 139.992C484.063 122.995 499.128 123.3 507.7 112.312C516.273 101.325 505.783 92.8685 491.911 93.9499C478.038 95.0312 472.137 106.132 461.806 124.055C453.54 138.394 438.628 146.998 432.205 149.508C417.892 153.644 405.506 162.716 397.245 175.115Z" fill="white" fill-opacity="0.5"/>
<path d="M475.614 150.059C474.179 145.687 470.345 139.52 470.345 139.52L383.575 89.4638C383.575 89.4638 306.044 122.584 329.379 136.509C352.713 150.435 385.287 209.148 409.374 191.835C433.461 174.522 477.049 154.43 475.614 150.059Z" fill="#039CB0" fill-opacity="0.2"/>
<g filter="url(#filter0_i_91_4862)">
<path d="M408.998 166.242L472.603 127.477L400.718 82.6892L337.112 121.831L408.998 166.242Z" fill="#00A2B7" stroke="#038699"/>
<path d="M393.19 135.004V135.474" stroke="#ABABB3" stroke-width="0.5"/>
<path d="M472.98 133.875V127.477L408.998 166.242L336.735 121.831V128.229L409.75 173.017L453.032 146.671L472.98 133.875Z" fill="#038699" stroke="#038699"/>
<path d="M472.754 141.026V134.628L408.621 173.017L336.735 128.606V134.628L409.175 180.168L452.696 153.822L472.754 141.026Z" fill="#B1823B" stroke="#906834" stroke-opacity="0.3"/>
<path d="M418.407 143.284L398.459 131.24L393.19 135.004V136.886L398.459 133.499L418.407 145.542L451.903 125.595V123.337L418.407 143.284Z" fill="#A7A7B1"/>
<path d="M398.459 131.24L418.407 143.284M398.459 131.24V133.499M398.459 131.24L393.19 135.004V136.886L398.459 133.499M418.407 143.284L451.903 123.337V125.595L418.407 145.542M418.407 143.284V145.542M418.407 145.542L398.459 133.499" stroke="#ABABB3" stroke-width="0.5"/>
<path d="M378.512 127.1V125.219L392.814 134.628V136.886L378.512 127.1Z" fill="#A7A7B1" stroke="#ABABB3" stroke-width="0.5"/>
<path d="M371.738 116.562V115.057L380.394 120.702V122.208L371.738 116.562Z" fill="#A7A7B1" stroke="#ABABB3" stroke-width="0.5"/>
<g filter="url(#filter1_f_91_4862)">
<path d="M452.28 129.359L450.021 127.1L371.738 116.562C371.044 117.256 369.646 118.526 369.196 118.484C369.104 118.426 369.069 118.41 369.103 118.444C369.126 118.467 369.158 118.48 369.196 118.484C369.928 118.943 374.289 122.041 376.63 123.713L374.372 128.229L391.685 140.273L397.33 138.768L416.901 150.435L452.28 129.359Z" fill="#218C9A"/>
</g>
<path d="M418.407 139.897V113.551L376.254 87.582V113.551L418.407 139.897Z" fill="white" stroke="#F7F7F7" stroke-width="0.5"/>
<path d="M394.319 118.068L400.718 128.229L386.039 119.197L377.007 107.529L394.319 118.068Z" fill="#D9D9D9" fill-opacity="0.5"/>
<path d="M439.86 126.348V108.282L430.45 114.146V131.993L439.86 126.348Z" fill="#6F631D" stroke="#878264"/>
<path d="M448.516 121.455V92.7146L434.59 92.0984L418.407 114.304L418.783 139.52L429.698 133.122V131.993V113.928L440.236 107.529V126.348L441.741 125.971L448.516 121.455Z" fill="white" stroke="#F7F7F7"/>
<path d="M390.556 65.0001L434.214 91.3456L450.774 92.0984L407.116 65.7528L390.556 65.0001Z" fill="#088FA2"/>
<path d="M433.838 91.3456L450.774 92.0984L407.116 65.7528L390.556 65.0001" stroke="#038699"/>
<path d="M390.556 65.0001L434.214 91.3456L418.407 113.175L375.125 86.0765L390.556 65.0001Z" fill="#00A2B7" stroke="#039CB0"/>
<path d="M411.632 119.949V113.928L407.492 111.293V117.315L411.632 119.949Z" fill="#088FA2" stroke="#038699"/>
<path d="M385.287 104.142V98.1201L381.147 95.8619V101.507L385.287 104.142Z" fill="#088FA2" stroke="#038699"/>
<path d="M385.287 111.669V105.647L381.147 103.389V109.035L385.287 111.669Z" fill="#088FA2" stroke="#038699"/>
<path d="M405.61 116.562V110.54L401.47 108.282V113.927L405.61 116.562Z" fill="#088FA2" stroke="#038699"/>
<path d="M407.116 118.82L411.632 121.831V127.477L407.116 124.842V118.82Z" fill="#039CB0" stroke="#038699"/>
<path d="M401.094 115.433L405.61 118.067V124.089L401.094 121.455V115.433Z" fill="#039CB0" stroke="#038699"/>
<path d="M400.718 128.606V113.175L386.039 107.906V119.573L400.718 128.606Z" fill="#D9D9D9" fill-opacity="0.59"/>
<path d="M380.394 121.078L382.652 122.584L380.394 124.089V121.078Z" fill="white" stroke="#D9D9D9" stroke-width="0.5"/>
<path d="M451.903 123.337L448.892 121.078L418.407 139.52L376.254 113.551V110.917L371.737 115.057L383.028 122.584L378.512 125.219L393.19 135.004L398.459 131.24L418.407 143.284L451.903 123.337Z" fill="#AAAAB3" stroke="#B1B1BB" stroke-width="0.5"/>
<path d="M398.083 131.24V116.186L395.072 118.82L393.567 118.068V133.122L394.696 133.499L398.083 131.24Z" fill="white"/>
<path d="M394.696 133.499L398.083 131.24V116.186L395.072 118.82M394.696 133.499L395.072 118.82M394.696 133.499L393.567 133.122V118.068L395.072 118.82" stroke="#F7F7F7" stroke-width="0.5"/>
<path d="M384.534 122.96V110.54L381.523 110.917L380.77 110.164V123.713L381.523 124.466L384.534 122.96Z" fill="white"/>
<path d="M381.523 124.466L384.534 122.96V110.54L381.523 110.917M381.523 124.466V110.917M381.523 124.466L380.77 123.713V110.164L381.523 110.917" stroke="#F7F7F7" stroke-width="0.5"/>
<path d="M394.319 117.691L404.105 110.036L387.921 99.6257L377.759 107.529L394.319 117.691Z" fill="#039CB0" stroke="#038699"/>
</g>
<defs>
<filter id="filter0_i_91_4862" x="336.159" y="64.3356" width="137.397" height="120.42" filterUnits="userSpaceOnUse" color-interpolation-filters="sRGB">
<feFlood flood-opacity="0" result="BackgroundImageFix"/>
<feBlend mode="normal" in="SourceGraphic" in2="BackgroundImageFix" result="shape"/>
<feColorMatrix in="SourceAlpha" type="matrix" values="0 0 0 0 0 0 0 0 0 0 0 0 0 0 0 0 0 0 127 0" result="hardAlpha"/>
<feOffset dy="4"/>
<feGaussianBlur stdDeviation="11.05"/>
<feComposite in2="hardAlpha" operator="arithmetic" k2="-1" k3="1"/>
<feColorMatrix type="matrix" values="0 0 0 0 0.0509804 0 0 0 0 0.392157 0 0 0 0 0.6 0 0 0 0.3 0"/>
<feBlend mode="normal" in2="shape" result="effect1_innerShadow_91_4862"/>
</filter>
<filter id="filter1_f_91_4862" x="365.09" y="112.562" width="91.1893" height="41.8729" filterUnits="userSpaceOnUse" color-interpolation-filters="sRGB">
<feFlood flood-opacity="0" result="BackgroundImageFix"/>
<feBlend mode="normal" in="SourceGraphic" in2="BackgroundImageFix" result="shape"/>
<feGaussianBlur stdDeviation="2" result="effect1_foregroundBlur_91_4862"/>
</filter>
</defs>
</svg>
