<svg width="501" height="262" viewBox="0 0 501 262" fill="none" xmlns="http://www.w3.org/2000/svg">
<path d="M56.7046 27H484.705V169C484.705 185.569 471.273 199 454.705 199H86.7046C70.136 199 56.7046 185.569 56.7046 169V27Z" fill="#CDEBEF"/>
<path d="M56.2935 150.076L57.7319 148.8C68.956 138.843 76.7771 125.618 80.0958 110.986C82.2273 104.428 89.9487 89.0396 103.782 79.9534C121.073 68.5957 131.811 62.0584 132.083 48.1463C132.355 34.2342 123.301 24.2548 112.832 33.4527C102.362 42.6507 103.544 57.6717 87.0734 67.2005C70.6031 76.7294 56.2933 31.3235 56.2933 66.0764L56.2933 106.076C56.2933 124.772 56.2935 111.577 56.2933 130.076C56.2932 139.892 56.2933 143.033 56.2934 143.763C56.2934 144.079 56.2933 144.507 56.2933 145.076C56.2924 152.997 56.2935 149.576 56.2935 150.076Z" fill="white" fill-opacity="0.5"/>
<path d="M80.0961 174.986L75.3153 196.013C75.2506 196.298 74.9973 196.5 74.705 196.5C73.7047 196 69.5653 193.86 68.705 193C67.705 192 62.205 188.5 59.2048 181C57.1286 175.81 56.7048 168 56.7048 157.5C56.7048 140 56.2936 136.576 56.2936 130.076C56.2936 95.3235 70.6034 140.729 87.0737 131.201C103.544 121.672 102.363 106.651 112.832 97.4527C123.302 88.2548 132.355 98.2342 132.083 112.146C131.811 126.058 121.073 132.596 103.782 143.953C89.949 153.04 82.2276 168.428 80.0961 174.986Z" fill="white" fill-opacity="0.5"/>
<path d="M342.92 96.5454L336.725 130.777C336.352 132.835 335.792 134.899 335.964 136.983C336.156 139.307 336.96 142.704 339.101 147.013C343.507 155.879 344.112 159.577 361.719 142.63C379.326 125.682 363.079 126.997 380.57 120.393C398.061 113.79 385.202 130.271 415.274 112.85C445.345 95.4295 417.527 98.2568 426.081 81.2595C434.635 64.2623 449.699 64.5668 458.272 53.5795C466.844 42.5922 456.355 34.1355 442.482 35.2169C428.609 36.2982 422.708 47.3988 412.377 65.3222C407.107 74.464 399.136 81.2748 392.385 85.6615C386.696 89.358 379.47 88.3147 374.027 84.2646C362.313 75.5482 345.521 82.1779 342.92 96.5454Z" fill="white" fill-opacity="0.5"/>
<path d="M351.839 197.747L350.705 199C362.671 199.336 369.705 199 380.705 199L414.705 199L433.205 199C471.025 199 430.4 182.322 439.185 163.936C447.971 145.549 464.368 146.343 473.358 134.551C482.349 122.759 470.679 113.161 455.621 113.924C440.563 114.686 434.483 126.684 423.791 146.033C415.238 161.511 399.278 170.496 392.367 173.053C376.757 177.198 362.68 185.775 351.839 197.747Z" fill="white" fill-opacity="0.5"/>
<path d="M474.319 152.059C472.884 147.687 469.05 141.52 469.05 141.52L382.28 91.4639C382.28 91.4639 304.749 124.584 328.083 138.51C351.418 152.435 383.991 211.148 408.079 193.835C432.166 176.522 475.754 156.43 474.319 152.059Z" fill="#039CB0" fill-opacity="0.2"/>
<g filter="url(#filter0_i_91_4862)">
<path d="M407.702 168.242L471.308 129.476L399.422 84.689L335.817 123.831L407.702 168.242Z" fill="#00A2B7" stroke="#038699"/>
<path d="M391.895 137.004V137.474" stroke="#ABABB3" stroke-width="0.5"/>
<path d="M471.685 135.875V129.477L407.702 168.242L335.44 123.831V130.229L408.455 175.017L451.737 148.671L471.685 135.875Z" fill="#038699" stroke="#038699"/>
<path d="M471.458 143.026V136.627L407.326 175.017L335.44 130.605V136.627L407.88 182.168L451.401 155.822L471.458 143.026Z" fill="#B1823B" stroke="#906834" stroke-opacity="0.3"/>
<path d="M417.111 145.284L397.164 133.241L391.895 137.004V138.886L397.164 135.499L417.111 147.542L450.608 127.595V125.337L417.111 145.284Z" fill="#A7A7B1"/>
<path d="M397.164 133.241L417.111 145.284M397.164 133.241V135.499M397.164 133.241L391.895 137.004V138.886L397.164 135.499M417.111 145.284L450.608 125.337V127.595L417.111 147.542M417.111 145.284V147.542M417.111 147.542L397.164 135.499" stroke="#ABABB3" stroke-width="0.5"/>
<path d="M377.217 129.101V127.219L391.519 136.628V138.886L377.217 129.101Z" fill="#A7A7B1" stroke="#ABABB3" stroke-width="0.5"/>
<path d="M370.442 118.562V117.057L379.099 122.702V124.208L370.442 118.562Z" fill="#A7A7B1" stroke="#ABABB3" stroke-width="0.5"/>
<g filter="url(#filter1_f_91_4862)">
<path d="M450.984 131.358L448.726 129.1L370.442 118.562C369.748 119.256 368.351 120.526 367.901 120.484C367.809 120.426 367.774 120.41 367.808 120.444C367.831 120.467 367.863 120.48 367.901 120.484C368.633 120.943 372.994 124.041 375.335 125.713L373.077 130.229L390.39 142.273L396.035 140.768L415.606 152.435L450.984 131.358Z" fill="#218C9A"/>
</g>
<path d="M417.112 141.897V115.551L374.959 89.582V115.551L417.112 141.897Z" fill="white" stroke="#F7F7F7" stroke-width="0.5"/>
<path d="M393.024 120.068L399.422 130.229L384.744 121.197L375.711 109.529L393.024 120.068Z" fill="#D9D9D9" fill-opacity="0.5"/>
<path d="M438.564 128.347V110.282L429.155 116.146V133.993L438.564 128.347Z" fill="#6F631D" stroke="#878264"/>
<path d="M447.221 123.455V94.7144L433.295 94.0981L417.111 116.304L417.488 141.52L428.402 135.122V133.993V115.927L438.941 109.529V128.347L440.446 127.971L447.221 123.455Z" fill="white" stroke="#F7F7F7"/>
<path d="M389.261 67L432.919 93.3456L449.479 94.0983L405.821 67.7527L389.261 67Z" fill="#088FA2"/>
<path d="M432.543 93.3456L449.479 94.0983L405.821 67.7527L389.261 67" stroke="#038699"/>
<path d="M389.261 67L432.919 93.3456L417.112 115.175L373.83 88.0765L389.261 67Z" fill="#00A2B7" stroke="#039CB0"/>
<path d="M410.337 121.949V115.928L406.197 113.293V119.315L410.337 121.949Z" fill="#088FA2" stroke="#038699"/>
<path d="M383.991 106.142V100.12L379.851 97.8618V103.507L383.991 106.142Z" fill="#088FA2" stroke="#038699"/>
<path d="M383.991 113.669V107.647L379.851 105.389V111.035L383.991 113.669Z" fill="#088FA2" stroke="#038699"/>
<path d="M404.315 118.562V112.54L400.175 110.282V115.927L404.315 118.562Z" fill="#088FA2" stroke="#038699"/>
<path d="M405.821 120.82L410.337 123.831V129.477L405.821 126.842V120.82Z" fill="#039CB0" stroke="#038699"/>
<path d="M399.799 117.433L404.315 120.067V126.089L399.799 123.454V117.433Z" fill="#039CB0" stroke="#038699"/>
<path d="M399.422 130.606V115.175L384.744 109.906V121.573L399.422 130.606Z" fill="#D9D9D9" fill-opacity="0.59"/>
<path d="M379.099 123.079L381.357 124.584L379.099 126.09V123.079Z" fill="white" stroke="#D9D9D9" stroke-width="0.5"/>
<path d="M450.608 125.337L447.597 123.078L417.111 141.52L374.958 115.551V112.917L370.442 117.057L381.733 124.584L377.217 127.218L391.895 137.004L397.164 133.24L417.111 145.284L450.608 125.337Z" fill="#AAAAB3" stroke="#B1B1BB" stroke-width="0.5"/>
<path d="M396.788 133.24V118.186L393.777 120.82L392.272 120.067V135.122L393.401 135.498L396.788 133.24Z" fill="white"/>
<path d="M393.401 135.498L396.788 133.24V118.186L393.777 120.82M393.401 135.498L393.777 120.82M393.401 135.498L392.272 135.122V120.067L393.777 120.82" stroke="#F7F7F7" stroke-width="0.5"/>
<path d="M383.239 124.96V112.54L380.228 112.917L379.475 112.164V125.713L380.228 126.466L383.239 124.96Z" fill="white"/>
<path d="M380.228 126.466L383.239 124.96V112.54L380.228 112.917M380.228 126.466V112.917M380.228 126.466L379.475 125.713V112.164L380.228 112.917" stroke="#F7F7F7" stroke-width="0.5"/>
<path d="M393.024 119.691L402.81 112.036L386.626 101.625L376.464 109.529L393.024 119.691Z" fill="#039CB0" stroke="#038699"/>
</g>
<defs>
<filter id="filter0_i_91_4862" x="334.864" y="66.3354" width="137.397" height="120.419" filterUnits="userSpaceOnUse" color-interpolation-filters="sRGB">
<feFlood flood-opacity="0" result="BackgroundImageFix"/>
<feBlend mode="normal" in="SourceGraphic" in2="BackgroundImageFix" result="shape"/>
<feColorMatrix in="SourceAlpha" type="matrix" values="0 0 0 0 0 0 0 0 0 0 0 0 0 0 0 0 0 0 127 0" result="hardAlpha"/>
<feOffset dy="4"/>
<feGaussianBlur stdDeviation="11.05"/>
<feComposite in2="hardAlpha" operator="arithmetic" k2="-1" k3="1"/>
<feColorMatrix type="matrix" values="0 0 0 0 0.0509804 0 0 0 0 0.392157 0 0 0 0 0.6 0 0 0 0.3 0"/>
<feBlend mode="normal" in2="shape" result="effect1_innerShadow_91_4862"/>
</filter>
<filter id="filter1_f_91_4862" x="363.795" y="114.562" width="91.1895" height="41.873" filterUnits="userSpaceOnUse" color-interpolation-filters="sRGB">
<feFlood flood-opacity="0" result="BackgroundImageFix"/>
<feBlend mode="normal" in="SourceGraphic" in2="BackgroundImageFix" result="shape"/>
<feGaussianBlur stdDeviation="2" result="effect1_foregroundBlur_91_4862"/>
</filter>
</defs>
</svg>
