<svg width="463" height="174" viewBox="0 0 463 174" fill="none" xmlns="http://www.w3.org/2000/svg">
<g filter="url(#filter0_d_193_1408)">
<rect x="4" width="455" height="166" rx="5" fill="#039CB0" fill-opacity="0.2" shape-rendering="crispEdges"/>
</g>
<path fill-rule="evenodd" clip-rule="evenodd" d="M34.7137 148.829C14.3683 131.734 86.0512 103.157 86.0512 103.157C90.2447 103.157 98.6319 103.157 107.019 94.2266C115.406 86.5722 123.094 69.9878 131.482 69.9878C139.869 69.9878 148.256 86.5722 156.643 86.5722C165.03 86.5722 173.418 69.9878 181.805 58.5063C190.192 48.3005 197.88 43.1976 206.267 50.8519C214.654 58.5063 223.042 81.4693 231.429 91.6751C239.816 103.157 248.203 103.157 256.59 89.1237C264.977 75.0907 272.666 48.3005 281.053 29.1646C289.44 10.0287 297.827 -0.177111 306.214 10.0287C314.602 21.5102 322.989 53.4034 331.376 62.3334C339.763 69.9878 347.451 53.4034 355.838 50.8519C364.226 48.3005 372.613 58.5063 376.806 64.8849L381 69.9878V151.634H376.806C372.613 151.634 364.226 151.634 355.838 151.634C347.451 151.634 339.763 151.634 331.376 151.634C322.989 151.634 314.602 151.634 306.214 151.634C297.827 151.634 289.44 151.634 281.053 151.634C272.666 151.634 264.977 151.634 256.59 151.634C248.203 151.634 239.816 151.634 231.429 151.634C223.042 151.634 214.654 151.634 206.267 151.634C197.88 151.634 190.192 151.634 181.805 151.634C173.418 151.634 165.03 151.634 156.643 151.634C148.256 151.634 139.869 151.634 131.482 151.634C123.094 151.634 115.406 151.634 107.019 151.634C98.6319 151.634 90.2447 151.634 86.0512 151.634C86.0512 151.634 78.5238 152.564 75.4508 151.634C59.2153 146.724 47.7959 159.821 34.7137 148.829Z" fill="white" fill-opacity="0.5"/>
<g filter="url(#filter1_d_193_1408)">
<path d="M132.752 144.984V141.688H150.08V144.984H132.752Z" fill="#C5EFFA" stroke="#C5EFFA" stroke-width="0.1"/>
<path d="M94.0527 144.984V141.688H132.752V144.984H94.0527Z" fill="#8FD3E4" stroke="#8FD3E4" stroke-width="0.1"/>
<path d="M83.0784 151.576V144.983H130.441L128.131 151.576H83.0784Z" fill="#8FD3E4" stroke="#8FD3E4" stroke-width="0.1"/>
<path d="M160.477 151.576V144.983H202.064V151.576H160.477Z" fill="#8FD3E4" stroke="#8FD3E4" stroke-width="0.1"/>
<path d="M126.976 151.576V144.983H160.477L165.675 151.576H126.976Z" fill="#BAF7FF" stroke="#8FD3E4" stroke-width="0.1"/>
<path d="M150.08 144.984V141.688H191.667V144.984H150.08Z" fill="#8FD3E4" stroke="#8FD3E4" stroke-width="0.1"/>
<path d="M154.701 141.688H94.6304V112.572H147.769L154.123 118.615L154.701 118.659V141.688Z" fill="white"/>
<path d="M94.6304 110.375V112.572M94.6304 112.572V141.687H154.701V118.659L154.123 118.615L147.769 112.572H94.6304Z" stroke="#8FD3E4" stroke-opacity="0.13" stroke-width="0.1"/>
<path d="M107.337 141.138V120.263H118.889V141.138H107.337Z" fill="#6F631D" stroke="#878264"/>
<path d="M147.769 112.572L154.123 118.615H154.701V107.628L94.6304 106.53V110.375V112.572H147.769Z" fill="#8FD3E4" fill-opacity="0.8" stroke="#8FD3E4" stroke-opacity="0.13" stroke-width="0.1"/>
<path d="M154.7 141.821V107.628L168.563 87.3027L187.624 110.375H187.878V141.821H154.7Z" fill="#8FD3E4" stroke="#8FD3E4" stroke-width="0.1"/>
<path d="M195.71 110.375L171.451 83.4573L168.563 87.3027L187.623 110.375H195.71Z" fill="#038699" stroke="#00A2B7" stroke-width="0.1"/>
<path d="M88.2766 109.826L110.225 84.0066H170.296L151.812 110.924L88.2766 109.826Z" fill="#03A2B0" stroke="#00A2B7"/>
<path d="M133.885 120.194H129.344V125.784H133.885V120.194Z" fill="#039CB0" stroke="#038699"/>
<path d="M133.885 127.335H129.344V132.925H133.885V127.335Z" fill="#039CB0" stroke="#038699"/>
<path d="M140.816 120.194H136.275V125.784H140.816V120.194Z" fill="#039CB0" stroke="#038699"/>
<path d="M140.816 127.335H136.275V132.925H140.816V127.335Z" fill="#039CB0" stroke="#038699"/>
</g>
<path d="M66.7371 135.304C68.7657 136.033 71.2956 136.286 74 135L79.2349 133.149C80.6274 132.657 82.1779 132.979 83.2596 133.984L85.9404 136.477C86.8831 137.353 86.568 138.916 85.3593 139.358C85.1227 139.445 84.9079 139.583 84.7301 139.761L84.5226 139.97C83.6102 140.887 82.1459 140.073 81.0329 140.732C80.7731 140.886 80.9661 141.555 82.2767 143.335C86.3217 147.61 76.6037 149.008 70.0455 149.924C69.6822 149.975 69.3156 149.985 68.9499 149.955L59.4896 149.188C56.5913 148.953 55.4931 145.141 57.7357 143.29C58.5197 142.643 59.3187 141.966 60.1004 141.279C60.9581 140.524 60.4802 138.802 60.5006 137.66C60.5271 136.174 65.3384 134.801 66.7371 135.304Z" fill="#017A8B" fill-opacity="0.18"/>
<path d="M71.88 142.786C71.0667 142.786 70.1472 142.237 70.1472 142.237V115.319H73.6128V142.237C73.6128 142.237 72.6933 142.786 71.88 142.786Z" fill="#346C5F" stroke="#346C5F"/>
<g filter="url(#filter2_i_193_1408)">
<path d="M60.6217 99.9655L60.7189 100.521C60.8401 101.212 61.1801 101.847 61.6889 102.331C62.2984 102.91 63.1074 103.234 63.9486 103.234H64.3711L62.0607 104.332L60.3279 105.431C59.5578 105.98 57.902 107.189 57.44 107.628C57.1863 107.87 57.0371 108.343 56.9541 108.811C56.8382 109.465 57.0668 110.117 57.4478 110.661L57.8119 111.18C57.9459 111.371 58.1342 111.518 58.3525 111.601L58.6011 111.696C59.4677 112.025 59.5162 113.233 58.6789 113.631C58.6232 113.658 58.5699 113.689 58.5196 113.725L56.8276 114.932C56.4744 115.184 56.2077 115.539 56.0642 115.948C55.8401 116.588 55.9378 117.296 56.3268 117.851L56.655 118.319C56.7909 118.513 56.9747 118.669 57.1886 118.77L58.7662 119.521C59.3249 119.786 59.2692 120.599 58.6795 120.786C58.6235 120.804 58.57 120.828 58.5205 120.86L57.2308 121.678C56.9862 121.833 56.7226 121.956 56.4465 122.043L56.1678 122.131C55.5026 122.342 54.9475 122.807 54.6228 123.425C54.2168 124.197 54.2168 125.119 54.6228 125.891L54.7405 126.115C54.9954 126.6 55.373 127.01 55.8356 127.303L56.8624 127.954L58.5952 129.053L59.8866 129.667C60.5575 129.986 61.291 130.151 62.0339 130.151H65.5263L69.5695 130.701H73.0351L77.0783 130.151C78.9413 129.898 80.1273 129.633 80.8349 129.418C81.432 129.238 81.9956 128.932 82.5734 128.696L84.8679 127.761C85.4457 127.526 85.9743 127.184 86.4264 126.754L87.2565 125.964C87.7649 125.481 88.0527 124.81 88.0527 124.109C88.0527 123.407 87.7649 122.736 87.2565 122.253L86.8975 121.911L85.7622 120.831C85.3786 120.467 84.8695 120.263 84.3401 120.263H83.0455C82.6209 120.263 82.2767 119.919 82.2767 119.494C82.2767 119.284 82.3631 119.082 82.5157 118.937L83.5288 117.974C83.8471 117.671 84.1138 117.318 84.3182 116.929L84.9935 115.645C85.1074 115.428 85.2052 115.204 85.2862 114.972L85.7423 113.671C86.2043 112.353 84.7796 111.657 84.0095 111.474L82.4997 110.995C81.7254 110.75 81.5906 109.711 82.2767 109.276C83.1488 108.723 83.6094 108.141 83.8311 107.695C84.0218 107.31 83.9543 106.869 83.8452 106.454L83.7536 106.105C83.5433 105.305 83.1144 104.58 82.5149 104.01L81.9862 103.507C81.7977 103.327 81.5677 103.198 81.3167 103.13L80.5927 102.933C79.5104 102.639 79.325 101.182 80.2991 100.627C80.4603 100.535 80.5991 100.408 80.7057 100.256L81.3919 99.2771C81.5961 98.9857 81.7686 98.6735 81.9066 98.3455L82.039 98.0305C82.5604 96.7909 82.5604 95.3934 82.039 94.1537L81.8591 93.7258C81.7526 93.4726 81.6254 93.2287 81.4789 92.9964L80.7394 91.8241C80.2344 91.0236 79.5125 90.3829 78.6578 89.9765L78.3588 89.8343C77.893 89.6128 77.3957 89.4647 76.8847 89.3952L74.3419 89.0498C73.8584 88.9841 73.3678 88.9895 72.8859 89.0659L70.5177 89.4413C70.271 89.4804 70.0276 89.5379 69.7895 89.6134L67.1876 90.4383C66.8512 90.5449 66.527 90.6869 66.2205 90.8618L64.878 91.6279C64.166 92.0342 63.5647 92.6094 63.1273 93.3028L62.0607 94.9934L61.1197 96.7834C60.6064 97.7598 60.4312 98.8789 60.6217 99.9655Z" fill="#67AD15"/>
</g>
<path d="M65.5263 103.234H64.3711M64.3711 103.234H63.9486C63.1074 103.234 62.2984 102.91 61.6889 102.331C61.1801 101.847 60.8401 101.212 60.7189 100.521L60.6217 99.9655C60.4312 98.8789 60.6064 97.7598 61.1197 96.7834L62.0607 94.9934L63.1273 93.3028C63.5647 92.6094 64.166 92.0342 64.878 91.6279L66.2205 90.8618C66.527 90.6869 66.8512 90.5449 67.1876 90.4383L69.7895 89.6134C70.0276 89.5379 70.271 89.4804 70.5177 89.4413L72.8859 89.0659C73.3678 88.9895 73.8584 88.9841 74.3419 89.0498L76.8847 89.3952C77.3957 89.4647 77.893 89.6128 78.3588 89.8343L78.6578 89.9765C79.5125 90.3829 80.2344 91.0236 80.7394 91.8241L81.4789 92.9964C81.6254 93.2287 81.7526 93.4726 81.8591 93.7258L82.039 94.1537C82.5604 95.3934 82.5604 96.7909 82.039 98.0305L81.9066 98.3455C81.7686 98.6735 81.5961 98.9857 81.3919 99.2771L80.7057 100.256C80.5991 100.408 80.4603 100.535 80.2991 100.627C79.325 101.182 79.5104 102.639 80.5927 102.933L81.3167 103.13C81.5677 103.198 81.7977 103.327 81.9862 103.507L82.5149 104.01C83.1144 104.58 83.5433 105.305 83.7536 106.105L83.8452 106.454C83.9543 106.869 84.0218 107.31 83.8311 107.695C83.6094 108.141 83.1488 108.723 82.2767 109.276C81.5906 109.711 81.7254 110.75 82.4997 110.995L84.0095 111.474C84.7796 111.657 86.2043 112.353 85.7423 113.671C85.5165 114.315 85.3735 114.723 85.2862 114.972C85.2052 115.204 85.1074 115.428 84.9935 115.645L84.3182 116.929C84.1138 117.318 83.8471 117.671 83.5288 117.974L82.5157 118.937C82.3631 119.082 82.2767 119.284 82.2767 119.494C82.2767 119.919 82.6209 120.263 83.0455 120.263H84.3401C84.8695 120.263 85.3786 120.467 85.7622 120.831L86.8975 121.911L87.2565 122.253C87.7649 122.736 88.0527 123.407 88.0527 124.109C88.0527 124.81 87.7649 125.481 87.2565 125.964L86.4264 126.754C85.9743 127.184 85.4457 127.526 84.8679 127.761L82.5734 128.696C81.9956 128.932 81.432 129.238 80.8349 129.418C80.1273 129.633 78.9413 129.898 77.0783 130.151C73.8437 130.591 73.0351 130.701 73.0351 130.701H69.5695L65.5263 130.151H62.0339C61.291 130.151 60.5575 129.986 59.8866 129.667L58.5952 129.053L56.8624 127.954L55.8356 127.303C55.373 127.01 54.9954 126.6 54.7405 126.115L54.6228 125.891C54.2168 125.119 54.2168 124.197 54.6228 123.425C54.9475 122.807 55.5026 122.342 56.1678 122.131L56.4465 122.043C56.7226 121.956 56.9862 121.833 57.2308 121.678L58.5205 120.86C58.57 120.828 58.6235 120.804 58.6795 120.786C59.2692 120.599 59.3249 119.786 58.7662 119.521L57.1886 118.77C56.9747 118.669 56.7909 118.513 56.655 118.319L56.3268 117.851C55.9378 117.296 55.8401 116.588 56.0642 115.948C56.2077 115.539 56.4744 115.184 56.8276 114.932L58.5196 113.725C58.5699 113.689 58.6232 113.658 58.6789 113.631C59.5162 113.233 59.4677 112.025 58.6011 111.696L58.3525 111.601C58.1342 111.518 57.9459 111.371 57.8119 111.18L57.4478 110.661C57.0668 110.117 56.8382 109.465 56.9541 108.811C57.0371 108.343 57.1863 107.87 57.44 107.628C57.902 107.189 59.5578 105.98 60.3279 105.431L62.0607 104.332L64.3711 103.234Z" stroke="#53A934"/>
<path d="M387.722 134.043C387.294 133.882 386.768 133.681 386.124 133.433C385.4 133.155 384.597 133.134 383.861 133.38L378.265 135.245C377.761 135.413 377.227 135.469 376.699 135.409L370.478 134.699C369.168 134.55 368.392 136.126 369.311 137.073C369.475 137.242 369.679 137.367 369.904 137.437L372.872 138.355C373.947 138.688 374.465 139.451 374.183 140.541C373.894 141.657 373.518 143.188 373.346 144.671C373.111 146.688 373.407 148.833 375.38 148.354C378.204 147.669 382.836 146.474 385.547 147.53C386.969 148.084 388.715 148.923 390.095 148.269L394.416 146.219C396.338 145.307 395.597 141.416 393.495 141.087C391.953 140.845 390.746 137.659 390.02 136.278C389.514 135.316 388.738 134.427 387.722 134.043Z" fill="#017A8B" fill-opacity="0.18"/>
<path d="M383.905 141.836C383.092 141.836 382.173 141.286 382.173 141.286V114.368H385.638V141.286C385.638 141.286 384.719 141.836 383.905 141.836Z" fill="#346C5F" stroke="#346C5F"/>
<g filter="url(#filter3_i_193_1408)">
<path d="M372.647 99.0149L372.745 99.57C372.866 100.262 373.206 100.896 373.715 101.38C374.324 101.96 375.133 102.283 375.974 102.283H376.397L374.086 103.382L372.354 104.48C371.583 105.03 369.928 106.238 369.466 106.678C369.212 106.919 369.063 107.392 368.98 107.86C368.864 108.514 369.092 109.167 369.473 109.71L369.838 110.23C369.972 110.421 370.16 110.567 370.378 110.65L370.627 110.745C371.493 111.075 371.542 112.282 370.705 112.681C370.649 112.707 370.596 112.738 370.545 112.774L368.853 113.981C368.5 114.233 368.233 114.588 368.09 114.998C367.866 115.637 367.963 116.346 368.352 116.9L368.681 117.369C368.817 117.563 369 117.718 369.214 117.82L370.792 118.57C371.351 118.836 371.295 119.648 370.705 119.835C370.649 119.853 370.596 119.878 370.546 119.909L369.256 120.727C369.012 120.882 368.748 121.005 368.472 121.092L368.193 121.181C367.528 121.392 366.973 121.856 366.648 122.474C366.242 123.246 366.242 124.168 366.648 124.941L366.766 125.165C367.021 125.649 367.399 126.059 367.861 126.352L368.888 127.003L370.621 128.102L371.912 128.716C372.583 129.035 373.317 129.201 374.059 129.201H377.552L381.595 129.75H385.061L389.104 129.201C390.967 128.948 392.153 128.682 392.861 128.468C393.458 128.287 394.021 127.981 394.599 127.746L396.894 126.81C397.471 126.575 398 126.233 398.452 125.803L399.282 125.014C399.791 124.53 400.078 123.859 400.078 123.158C400.078 122.456 399.791 121.786 399.282 121.302L398.923 120.961L397.788 119.881C397.404 119.516 396.895 119.312 396.366 119.312H395.071C394.647 119.312 394.302 118.968 394.302 118.544C394.302 118.333 394.389 118.132 394.541 117.987L395.554 117.023C395.873 116.72 396.139 116.367 396.344 115.979L397.019 114.694C397.133 114.477 397.231 114.253 397.312 114.022L397.768 112.72C398.23 111.402 396.805 110.706 396.035 110.523L394.525 110.044C393.751 109.799 393.616 108.761 394.302 108.326C395.174 107.773 395.635 107.191 395.857 106.744C396.047 106.36 395.98 105.918 395.871 105.503L395.779 105.155C395.569 104.355 395.14 103.629 394.541 103.059L394.012 102.556C393.823 102.377 393.593 102.247 393.342 102.179L392.618 101.982C391.536 101.688 391.351 100.232 392.325 99.6759C392.486 99.5839 392.625 99.4574 392.731 99.3054L393.418 98.3264C393.622 98.0351 393.794 97.7228 393.932 97.3949L394.065 97.0799C394.586 95.8402 394.586 94.4427 394.065 93.203L393.885 92.7751C393.778 92.522 393.651 92.278 393.505 92.0457L392.765 90.8734C392.26 90.073 391.538 89.4323 390.683 89.0258L390.384 88.8836C389.919 88.6621 389.421 88.514 388.91 88.4446L386.368 88.0991C385.884 88.0334 385.393 88.0388 384.912 88.1152L382.543 88.4906C382.297 88.5297 382.053 88.5872 381.815 88.6627L379.213 89.4876C378.877 89.5942 378.553 89.7362 378.246 89.9111L376.904 90.6772C376.192 91.0835 375.59 91.6587 375.153 92.3521L374.086 94.0428L373.145 95.8327C372.632 96.8091 372.457 97.9282 372.647 99.0149Z" fill="#67AD15"/>
</g>
<path d="M377.552 102.283H376.397M376.397 102.283H375.974C375.133 102.283 374.324 101.96 373.715 101.38C373.206 100.896 372.866 100.262 372.745 99.57L372.647 99.0149C372.457 97.9282 372.632 96.8091 373.145 95.8327L374.086 94.0428L375.153 92.3521C375.59 91.6587 376.192 91.0835 376.904 90.6772L378.246 89.9111C378.553 89.7362 378.877 89.5942 379.213 89.4876L381.815 88.6627C382.053 88.5872 382.297 88.5297 382.543 88.4906L384.912 88.1152C385.393 88.0388 385.884 88.0334 386.368 88.0991L388.91 88.4446C389.421 88.514 389.919 88.6621 390.384 88.8836L390.683 89.0258C391.538 89.4323 392.26 90.073 392.765 90.8734L393.505 92.0457C393.651 92.278 393.778 92.522 393.885 92.7751L394.065 93.203C394.586 94.4427 394.586 95.8402 394.065 97.0799L393.932 97.3949C393.794 97.7228 393.622 98.0351 393.418 98.3264L392.731 99.3054C392.625 99.4574 392.486 99.5839 392.325 99.6759C391.351 100.232 391.536 101.688 392.618 101.982L393.342 102.179C393.593 102.247 393.823 102.377 394.012 102.556L394.541 103.059C395.14 103.629 395.569 104.355 395.779 105.155L395.871 105.503C395.98 105.918 396.047 106.36 395.857 106.744C395.635 107.191 395.174 107.773 394.302 108.326C393.616 108.761 393.751 109.799 394.525 110.044L396.035 110.523C396.805 110.706 398.23 111.402 397.768 112.72C397.542 113.365 397.399 113.773 397.312 114.022C397.231 114.253 397.133 114.477 397.019 114.694L396.344 115.979C396.139 116.367 395.873 116.72 395.554 117.023L394.541 117.987C394.389 118.132 394.302 118.333 394.302 118.544C394.302 118.968 394.647 119.312 395.071 119.312H396.366C396.895 119.312 397.404 119.516 397.788 119.881L398.923 120.961L399.282 121.302C399.791 121.786 400.078 122.456 400.078 123.158C400.078 123.859 399.791 124.53 399.282 125.014L398.452 125.803C398 126.233 397.471 126.575 396.894 126.81L394.599 127.746C394.021 127.981 393.458 128.287 392.861 128.468C392.153 128.682 390.967 128.948 389.104 129.201C385.869 129.64 385.061 129.75 385.061 129.75H381.595L377.552 129.201H374.059C373.317 129.201 372.583 129.035 371.912 128.716L370.621 128.102L368.888 127.003L367.861 126.352C367.399 126.059 367.021 125.649 366.766 125.165L366.648 124.941C366.242 124.168 366.242 123.246 366.648 122.474C366.973 121.856 367.528 121.392 368.193 121.181L368.472 121.092C368.748 121.005 369.012 120.882 369.256 120.727L370.546 119.909C370.596 119.878 370.649 119.853 370.705 119.835C371.295 119.648 371.351 118.836 370.792 118.57L369.214 117.82C369 117.718 368.817 117.563 368.681 117.369L368.352 116.9C367.963 116.346 367.866 115.637 368.09 114.998C368.233 114.588 368.5 114.233 368.853 113.981L370.545 112.774C370.596 112.738 370.649 112.707 370.705 112.681C371.542 112.282 371.493 111.075 370.627 110.745L370.378 110.65C370.16 110.567 369.972 110.421 369.838 110.23L369.473 109.71C369.092 109.167 368.864 108.514 368.98 107.86C369.063 107.392 369.212 106.919 369.466 106.678C369.928 106.238 371.583 105.03 372.354 104.48L374.086 103.382L376.397 102.283Z" stroke="#53A934"/>
<path d="M215.948 135.508C215.562 135.388 215.14 135.243 214.68 135.069C214.564 135.025 214.436 135.005 214.312 135.014L208 135.5L204.372 136.226C203.644 136.371 203.208 137.123 203.443 137.828C203.481 137.942 203.535 138.05 203.604 138.148L203.737 138.337C204.479 139.392 206.319 140.352 205.676 141.469C205.507 141.761 205.258 142.112 204.906 142.534C204.644 142.847 204.379 143.182 204.285 143.579C203.714 145.972 207.459 147.465 211.281 149.472C213.548 150.662 216.939 149.263 217.239 146.721L217.289 146.289C217.415 145.223 218.224 144.379 219.226 143.992C220.561 143.476 222.042 142.552 221.135 141.146C220.835 140.681 221.216 139.826 221.413 139.309C221.678 138.611 216.661 135.728 215.948 135.508Z" fill="#017A8B" fill-opacity="0.18"/>
<path d="M213.1 140.829C212.287 140.829 211.367 140.28 211.367 140.28V113.362H214.833V140.28C214.833 140.28 213.913 140.829 213.1 140.829Z" fill="#346C5F" stroke="#346C5F"/>
<g filter="url(#filter4_i_193_1408)">
<path d="M201.842 98.0083L201.939 98.5634C202.06 99.255 202.4 99.8894 202.909 100.373C203.519 100.953 204.328 101.276 205.169 101.276H205.591L203.281 102.375L201.548 103.474C200.778 104.023 199.122 105.232 198.66 105.671C198.407 105.912 198.257 106.385 198.174 106.854C198.058 107.507 198.287 108.16 198.668 108.704L199.032 109.223C199.166 109.414 199.354 109.561 199.573 109.644L199.821 109.738C200.688 110.068 200.736 111.276 199.899 111.674C199.843 111.7 199.79 111.732 199.74 111.768L198.048 112.975C197.695 113.227 197.428 113.582 197.284 113.991C197.06 114.631 197.158 115.339 197.547 115.894L197.875 116.362C198.011 116.556 198.195 116.711 198.409 116.813L199.986 117.563C200.545 117.829 200.489 118.642 199.9 118.829C199.844 118.846 199.79 118.871 199.741 118.903L198.451 119.72C198.206 119.875 197.943 119.998 197.667 120.086L197.388 120.174C196.723 120.385 196.168 120.85 195.843 121.467C195.437 122.239 195.437 123.162 195.843 123.934L195.961 124.158C196.216 124.643 196.593 125.052 197.056 125.346L198.083 125.997L199.815 127.095L201.107 127.71C201.778 128.029 202.511 128.194 203.254 128.194H206.747L210.79 128.743H214.255L218.299 128.194C220.162 127.941 221.347 127.676 222.055 127.461C222.652 127.28 223.216 126.975 223.794 126.739L226.088 125.804C226.666 125.568 227.195 125.227 227.647 124.797L228.477 124.007C228.985 123.524 229.273 122.853 229.273 122.151C229.273 121.45 228.985 120.779 228.477 120.295L228.118 119.954L226.982 118.874C226.599 118.509 226.09 118.306 225.56 118.306H224.266C223.841 118.306 223.497 117.962 223.497 117.537C223.497 117.326 223.583 117.125 223.736 116.98L224.749 116.016C225.067 115.714 225.334 115.361 225.538 114.972L226.214 113.688C226.328 113.471 226.425 113.246 226.506 113.015L226.962 111.714C227.425 110.395 226 109.7 225.23 109.516L223.72 109.038C222.946 108.792 222.811 107.754 223.497 107.319C224.369 106.766 224.83 106.184 225.051 105.737C225.242 105.353 225.174 104.912 225.065 104.497L224.974 104.148C224.763 103.348 224.335 102.622 223.735 102.052L223.206 101.549C223.018 101.37 222.788 101.241 222.537 101.172L221.813 100.976C220.731 100.682 220.545 99.2252 221.519 98.6693C221.681 98.5773 221.819 98.4508 221.926 98.2988L222.612 97.3198C222.816 97.0285 222.989 96.7162 223.127 96.3883L223.259 96.0733C223.781 94.8336 223.781 93.4361 223.259 92.1964L223.079 91.7685C222.973 91.5154 222.846 91.2714 222.699 91.0391L221.96 89.8668C221.455 89.0664 220.733 88.4257 219.878 88.0192L219.579 87.877C219.113 87.6555 218.616 87.5074 218.105 87.438L215.562 87.0925C215.079 87.0268 214.588 87.0322 214.106 87.1086L211.738 87.484C211.491 87.5231 211.248 87.5807 211.01 87.6561L208.408 88.481C208.071 88.5877 207.747 88.7296 207.441 88.9045L206.098 89.6706C205.386 90.0769 204.785 90.6521 204.348 91.3455L203.281 93.0362L202.34 94.8261C201.827 95.8026 201.651 96.9216 201.842 98.0083Z" fill="#67AD15"/>
</g>
<path d="M206.747 101.276H205.591M205.591 101.276H205.169C204.328 101.276 203.519 100.953 202.909 100.373C202.4 99.8894 202.06 99.255 201.939 98.5634L201.842 98.0083C201.651 96.9216 201.827 95.8026 202.34 94.8261L203.281 93.0362L204.348 91.3455C204.785 90.6521 205.386 90.0769 206.098 89.6706L207.441 88.9045C207.747 88.7296 208.071 88.5877 208.408 88.481L211.01 87.6561C211.248 87.5807 211.491 87.5231 211.738 87.484L214.106 87.1086C214.588 87.0322 215.079 87.0268 215.562 87.0925L218.105 87.438C218.616 87.5074 219.113 87.6555 219.579 87.877L219.878 88.0192C220.733 88.4257 221.455 89.0664 221.96 89.8668L222.699 91.0391C222.846 91.2714 222.973 91.5154 223.079 91.7685L223.259 92.1964C223.781 93.4361 223.781 94.8336 223.259 96.0733L223.127 96.3883C222.989 96.7162 222.816 97.0285 222.612 97.3198L221.926 98.2988C221.819 98.4508 221.681 98.5773 221.519 98.6693C220.545 99.2252 220.731 100.682 221.813 100.976L222.537 101.172C222.788 101.241 223.018 101.37 223.206 101.549L223.735 102.052C224.335 102.622 224.763 103.348 224.974 104.148L225.065 104.497C225.174 104.912 225.242 105.353 225.051 105.737C224.83 106.184 224.369 106.766 223.497 107.319C222.811 107.754 222.946 108.792 223.72 109.038L225.23 109.516C226 109.7 227.425 110.395 226.962 111.714C226.737 112.358 226.594 112.766 226.506 113.015C226.425 113.246 226.328 113.471 226.214 113.687L225.538 114.972C225.334 115.361 225.067 115.714 224.749 116.016L223.736 116.98C223.583 117.125 223.497 117.326 223.497 117.537C223.497 117.962 223.841 118.306 224.266 118.306H225.56C226.09 118.306 226.599 118.509 226.982 118.874L228.118 119.954L228.477 120.295C228.985 120.779 229.273 121.45 229.273 122.151C229.273 122.853 228.985 123.524 228.477 124.007L227.647 124.797C227.195 125.227 226.666 125.568 226.088 125.804L223.794 126.739C223.216 126.975 222.652 127.28 222.055 127.461C221.347 127.676 220.162 127.941 218.299 128.194C215.064 128.634 214.255 128.743 214.255 128.743H210.79L206.747 128.194H203.254C202.511 128.194 201.778 128.029 201.107 127.71L199.815 127.095L198.083 125.997L197.056 125.346C196.593 125.052 196.216 124.643 195.961 124.158L195.843 123.934C195.437 123.162 195.437 122.239 195.843 121.467C196.168 120.85 196.723 120.385 197.388 120.174L197.667 120.086C197.943 119.998 198.206 119.875 198.451 119.72L199.741 118.903C199.79 118.871 199.844 118.846 199.9 118.829C200.489 118.642 200.545 117.829 199.986 117.563L198.409 116.813C198.195 116.711 198.011 116.556 197.875 116.362L197.547 115.894C197.158 115.339 197.06 114.631 197.284 113.991C197.428 113.582 197.695 113.227 198.048 112.975L199.74 111.768C199.79 111.732 199.843 111.7 199.899 111.674C200.736 111.276 200.688 110.068 199.821 109.738L199.573 109.644C199.354 109.561 199.166 109.414 199.032 109.223L198.668 108.704C198.287 108.16 198.058 107.507 198.174 106.854C198.257 106.385 198.407 105.912 198.66 105.671C199.122 105.232 200.778 104.023 201.548 103.474L203.281 102.375L205.591 101.276Z" stroke="#53A934"/>
<g filter="url(#filter5_d_193_1408)">
<path d="M164 59.7818L170.947 44H182.526L176.158 55.8364H186L169.789 75L173.842 59.7818H164Z" fill="url(#paint0_linear_193_1408)" shape-rendering="crispEdges"/>
<path d="M164 59.7818L170.947 44H182.526L176.158 55.8364H186L169.789 75L173.842 59.7818H164Z" stroke="white" stroke-opacity="0.3" shape-rendering="crispEdges"/>
</g>
<path d="M203 148.556L244.581 133L366.435 136.333L386.647 139.111L393 145.222V157.444L388.957 163L370.477 160.222H346.799L307.529 157.444L261.906 160.222H226.1H211.663L203 151.889V148.556Z" fill="#038699" fill-opacity="0.3"/>
<g filter="url(#filter6_d_193_1408)">
<path d="M59 18.7818L65.9474 3H77.5263L71.1579 14.8364H81L64.7895 34L68.8421 18.7818H59Z" fill="url(#paint1_linear_193_1408)" shape-rendering="crispEdges"/>
<path d="M59 18.7818L65.9474 3H77.5263L71.1579 14.8364H81L64.7895 34L68.8421 18.7818H59Z" stroke="white" stroke-opacity="0.3" shape-rendering="crispEdges"/>
</g>
<path d="M249.981 126.401V92.105H350.021V126.401H249.981Z" fill="#308FAD" stroke="#2785A1" stroke-width="0.5"/>
<path d="M255.552 120.953V98.6667H343.583V120.953H255.552Z" fill="#8FD3E4" stroke="white" stroke-width="4"/>
<path d="M299.258 98.7905V121.324" stroke="white" stroke-width="4"/>
<path d="M283.782 98.6667C284.079 116.397 284.153 120.829 284.153 120.829" stroke="white" stroke-width="4"/>
<path d="M269.791 98.9146C269.791 116.446 269.791 120.829 269.791 120.829" stroke="white" stroke-width="4"/>
<path d="M328.973 98.9146C328.874 116.347 328.932 120.705 328.973 120.705" stroke="white" stroke-width="4"/>
<path d="M362.526 144.106H238.342L250.228 126.401H350.021L362.526 144.106Z" fill="#186EA2" stroke="#186EA2"/>
<path d="M314.859 99.0383C314.76 116.471 314.818 120.829 314.859 120.829" stroke="white" stroke-width="4"/>
<path d="M264.095 124.544V121.201H270.038V124.544H264.095Z" fill="#039CB0" stroke="#039CB0"/>
<path d="M253.447 124.42V121.077H259.39V124.42H253.447Z" fill="#039CB0" stroke="#039CB0"/>
<path d="M268.305 131.725V128.01H269.048V131.725H268.305Z" fill="#074379"/>
<path d="M264.343 131.725V128.01H265.086V131.725H264.343Z" fill="#074379"/>
<path d="M258.647 131.477V127.763H259.39V131.477H258.647Z" fill="#074379"/>
<path d="M254.19 131.477V127.763H254.933V131.477H254.19Z" fill="#074379"/>
<path d="M267.81 131.972V128.258H268.553V131.972H267.81Z" fill="#00529C" stroke="#00529C" stroke-width="0.5"/>
<path d="M258.152 131.725V128.01H258.895V131.725H258.152Z" fill="#00529C" stroke="#00529C" stroke-width="0.5"/>
<path d="M263.847 131.972V128.258H264.59V131.972H263.847Z" fill="#00529C" stroke="#00529C" stroke-width="0.5"/>
<path d="M253.695 131.725V128.01H254.438V131.725H253.695Z" fill="#00529C" stroke="#00529C" stroke-width="0.5"/>
<path d="M269.28 134.449C269.25 134.406 269.209 133.157 269.28 128.506H269.984V134.449H269.28Z" fill="#E3A731" stroke="#E3A731"/>
<path d="M251.753 134.201C251.724 134.158 251.683 132.909 251.753 128.258H252.457V134.201H251.753Z" fill="#E3A731" stroke="#E3A731"/>
<path d="M270.077 131.229C270.048 131.186 270.007 129.937 270.077 125.286H270.781V131.229H270.077Z" fill="#DBA12E"/>
<path d="M270.781 127.143V124.667L270.038 127.515L270.162 128.258L270.781 127.143Z" fill="#E3A731" stroke="#E3A731"/>
<path d="M251.714 127.639L252.581 124.667H270.781L270.038 127.639V128.505L251.714 128.382V127.639Z" fill="#F5B700"/>
<path d="M251.714 127.639C251.714 127.639 251.887 127.044 252.581 124.667H270.781L270.038 127.639M251.714 127.639H270.038M251.714 127.639V128.382L270.038 128.505V127.639" stroke="#F5B700"/>
<path d="M270.073 127.515H251.59" stroke="#E3A731"/>
<path d="M289.477 124.791V121.448H295.42V124.791H289.477Z" fill="#039CB0" stroke="#039CB0"/>
<path d="M278.829 124.667V121.324H284.772V124.667H278.829Z" fill="#039CB0" stroke="#039CB0"/>
<path d="M293.687 131.972V128.258H294.43V131.972H293.687Z" fill="#074379"/>
<path d="M289.725 131.972V128.258H290.468V131.972H289.725Z" fill="#074379"/>
<path d="M284.03 131.725V128.01H284.772V131.725H284.03Z" fill="#074379"/>
<path d="M279.573 131.725V128.01H280.315V131.725H279.573Z" fill="#074379"/>
<path d="M293.192 132.22V128.506H293.935V132.22H293.192Z" fill="#00529C" stroke="#00529C" stroke-width="0.5"/>
<path d="M283.534 131.972V128.258H284.277V131.972H283.534Z" fill="#00529C" stroke="#00529C" stroke-width="0.5"/>
<path d="M289.23 132.22V128.506H289.973V132.22H289.23Z" fill="#00529C" stroke="#00529C" stroke-width="0.5"/>
<path d="M279.077 131.972V128.258H279.82V131.972H279.077Z" fill="#00529C" stroke="#00529C" stroke-width="0.5"/>
<path d="M294.661 134.696C294.632 134.653 294.591 133.404 294.661 128.753H295.365V134.696H294.661Z" fill="#E3A731" stroke="#E3A731"/>
<path d="M277.135 134.449C277.106 134.406 277.065 133.157 277.135 128.506H277.839V134.449H277.135Z" fill="#E3A731" stroke="#E3A731"/>
<path d="M295.459 131.477C295.43 131.434 295.389 130.185 295.459 125.534H296.163V131.477H295.459Z" fill="#DBA12E"/>
<path d="M296.163 127.391V124.915L295.42 127.763L295.544 128.506L296.163 127.391Z" fill="#E3A731" stroke="#E3A731"/>
<path d="M277.096 127.887L277.963 124.915H296.163L295.42 127.887V128.753L277.096 128.629V127.887Z" fill="#F5B700"/>
<path d="M277.096 127.887C277.096 127.887 277.27 127.292 277.963 124.915H296.163L295.42 127.887M277.096 127.887H295.42M277.096 127.887V128.629L295.42 128.753V127.887" stroke="#F5B700"/>
<path d="M295.454 127.763H276.972" stroke="#E3A731"/>
<path d="M309.534 124.296V120.953H303.591V124.296H309.534Z" fill="#039CB0" stroke="#039CB0"/>
<path d="M320.182 124.172V120.829H314.239V124.172H320.182Z" fill="#039CB0" stroke="#039CB0"/>
<path d="M305.325 131.477V127.763H304.582V131.477H305.325Z" fill="#074379"/>
<path d="M309.287 131.477V127.763H308.544V131.477H309.287Z" fill="#074379"/>
<path d="M314.982 131.229V127.515H314.24V131.229H314.982Z" fill="#074379"/>
<path d="M319.439 131.229V127.515H318.697V131.229H319.439Z" fill="#074379"/>
<path d="M305.82 131.725V128.01H305.077V131.725H305.82Z" fill="#00529C" stroke="#00529C" stroke-width="0.5"/>
<path d="M315.478 131.477V127.763H314.735V131.477H315.478Z" fill="#00529C" stroke="#00529C" stroke-width="0.5"/>
<path d="M309.782 131.725V128.01H309.039V131.725H309.782Z" fill="#00529C" stroke="#00529C" stroke-width="0.5"/>
<path d="M319.935 131.477V127.763H319.192V131.477H319.935Z" fill="#00529C" stroke="#00529C" stroke-width="0.5"/>
<path d="M304.35 134.201C304.38 134.158 304.421 132.909 304.35 128.258H303.646V134.201H304.35Z" fill="#E3A731" stroke="#E3A731"/>
<path d="M321.877 133.953C321.906 133.91 321.947 132.661 321.877 128.01H321.173V133.953H321.877Z" fill="#E3A731" stroke="#E3A731"/>
<path d="M303.553 130.982C303.582 130.939 303.623 129.69 303.553 125.039H302.849V130.982H303.553Z" fill="#DBA12E"/>
<path d="M302.849 126.896V124.42L303.592 127.267L303.468 128.01L302.849 126.896Z" fill="#E3A731" stroke="#E3A731"/>
<path d="M321.916 127.391L321.049 124.42H302.848L303.591 127.391V128.258L321.916 128.134V127.391Z" fill="#F5B700"/>
<path d="M321.916 127.391C321.916 127.391 321.742 126.797 321.049 124.42H302.848L303.591 127.391M321.916 127.391H303.591M321.916 127.391V128.134L303.591 128.258V127.391" stroke="#F5B700"/>
<path d="M303.557 127.267H322.04" stroke="#E3A731"/>
<path d="M336.031 124.296V120.953H330.088V124.296H336.031Z" fill="#039CB0" stroke="#039CB0"/>
<path d="M346.678 124.172V120.829H340.735V124.172H346.678Z" fill="#039CB0" stroke="#039CB0"/>
<path d="M331.821 131.477V127.763H331.078V131.477H331.821Z" fill="#074379"/>
<path d="M335.783 131.477V127.763H335.04V131.477H335.783Z" fill="#074379"/>
<path d="M341.479 131.229V127.515H340.736V131.229H341.479Z" fill="#074379"/>
<path d="M345.936 131.229V127.515H345.193V131.229H345.936Z" fill="#074379"/>
<path d="M332.317 131.725V128.01H331.574V131.725H332.317Z" fill="#00529C" stroke="#00529C" stroke-width="0.5"/>
<path d="M341.974 131.477V127.763H341.231V131.477H341.974Z" fill="#00529C" stroke="#00529C" stroke-width="0.5"/>
<path d="M336.279 131.725V128.01H335.536V131.725H336.279Z" fill="#00529C" stroke="#00529C" stroke-width="0.5"/>
<path d="M346.431 131.477V127.763H345.688V131.477H346.431Z" fill="#00529C" stroke="#00529C" stroke-width="0.5"/>
<path d="M330.846 134.201C330.876 134.158 330.917 132.909 330.846 128.258H330.142V134.201H330.846Z" fill="#E3A731" stroke="#E3A731"/>
<path d="M348.373 133.953C348.403 133.91 348.444 132.661 348.373 128.01H347.669V133.953H348.373Z" fill="#E3A731" stroke="#E3A731"/>
<path d="M330.049 130.982C330.078 130.939 330.119 129.69 330.049 125.039H329.345V130.982H330.049Z" fill="#DBA12E"/>
<path d="M329.345 126.896V124.42L330.088 127.267L329.964 128.01L329.345 126.896Z" fill="#E3A731" stroke="#E3A731"/>
<path d="M348.412 127.391L347.545 124.42H329.345L330.088 127.391V128.258L348.412 128.134V127.391Z" fill="#F5B700"/>
<path d="M348.412 127.391C348.412 127.391 348.239 126.797 347.545 124.42H329.345L330.088 127.391M348.412 127.391H330.088M348.412 127.391V128.134L330.088 128.258V127.391" stroke="#F5B700"/>
<path d="M330.053 127.267H348.536" stroke="#E3A731"/>
<path d="M261.743 130.734V127.391H267.686V130.734H261.743Z" fill="#039CB0" stroke="#039CB0"/>
<path d="M251.094 130.61V127.267H257.037V130.61H251.094Z" fill="#039CB0" stroke="#039CB0"/>
<path d="M265.952 137.915V134.201H266.695V137.915H265.952Z" fill="#074379"/>
<path d="M261.99 137.915V134.201H262.733V137.915H261.99Z" fill="#074379"/>
<path d="M256.295 137.667V133.953H257.038V137.667H256.295Z" fill="#074379"/>
<path d="M251.837 137.667V133.953H252.58V137.667H251.837Z" fill="#074379"/>
<path d="M265.457 138.163V134.448H266.2V138.163H265.457Z" fill="#00529C" stroke="#00529C" stroke-width="0.5"/>
<path d="M255.799 137.915V134.201H256.542V137.915H255.799Z" fill="#00529C" stroke="#00529C" stroke-width="0.5"/>
<path d="M261.495 138.163V134.448H262.238V138.163H261.495Z" fill="#00529C" stroke="#00529C" stroke-width="0.5"/>
<path d="M251.342 137.915V134.201H252.085V137.915H251.342Z" fill="#00529C" stroke="#00529C" stroke-width="0.5"/>
<path d="M266.927 140.639C266.897 140.596 266.856 139.347 266.927 134.696H267.631V140.639H266.927Z" fill="#E3A731" stroke="#E3A731"/>
<path d="M249.4 140.391C249.371 140.348 249.33 139.099 249.4 134.448H250.104V140.391H249.4Z" fill="#E3A731" stroke="#E3A731"/>
<path d="M267.724 137.42C267.695 137.377 267.654 136.128 267.724 131.477H268.428V137.42H267.724Z" fill="#DBA12E"/>
<path d="M268.428 133.334V130.858L267.686 133.706L267.809 134.448L268.428 133.334Z" fill="#E3A731" stroke="#E3A731"/>
<path d="M249.361 133.829L250.228 130.858H268.428L267.686 133.829V134.696L249.361 134.572V133.829Z" fill="#F5B700"/>
<path d="M249.361 133.829C249.361 133.829 249.535 133.235 250.228 130.858H268.428L267.686 133.829M249.361 133.829H267.686M249.361 133.829V134.572L267.686 134.696V133.829" stroke="#F5B700"/>
<path d="M267.72 133.706H249.238" stroke="#E3A731"/>
<path d="M287.125 130.982V127.639H293.067V130.982H287.125Z" fill="#039CB0" stroke="#039CB0"/>
<path d="M276.477 130.858V127.515H282.42V130.858H276.477Z" fill="#039CB0" stroke="#039CB0"/>
<path d="M291.334 138.163V134.448H292.077V138.163H291.334Z" fill="#074379"/>
<path d="M287.372 138.163V134.448H288.115V138.163H287.372Z" fill="#074379"/>
<path d="M281.677 137.915V134.201H282.42V137.915H281.677Z" fill="#074379"/>
<path d="M277.22 137.915V134.201H277.963V137.915H277.22Z" fill="#074379"/>
<path d="M290.839 138.41V134.696H291.582V138.41H290.839Z" fill="#00529C" stroke="#00529C" stroke-width="0.5"/>
<path d="M281.182 138.163V134.448H281.925V138.163H281.182Z" fill="#00529C" stroke="#00529C" stroke-width="0.5"/>
<path d="M286.877 138.41V134.696H287.62V138.41H286.877Z" fill="#00529C" stroke="#00529C" stroke-width="0.5"/>
<path d="M276.725 138.163V134.448H277.467V138.163H276.725Z" fill="#00529C" stroke="#00529C" stroke-width="0.5"/>
<path d="M292.309 140.887C292.28 140.843 292.238 139.595 292.309 134.944H293.013V140.887H292.309Z" fill="#E3A731" stroke="#E3A731"/>
<path d="M274.782 140.639C274.753 140.596 274.712 139.347 274.782 134.696H275.486V140.639H274.782Z" fill="#E3A731" stroke="#E3A731"/>
<path d="M293.106 137.668C293.077 137.625 293.036 136.376 293.106 131.725H293.811V137.668H293.106Z" fill="#DBA12E"/>
<path d="M293.811 133.582V131.105L293.068 133.953L293.191 134.696L293.811 133.582Z" fill="#E3A731" stroke="#E3A731"/>
<path d="M274.743 134.077L275.61 131.105H293.81L293.067 134.077V134.944L274.743 134.82V134.077Z" fill="#F5B700"/>
<path d="M274.743 134.077C274.743 134.077 274.917 133.483 275.61 131.105H293.81L293.067 134.077M274.743 134.077H293.067M274.743 134.077V134.82L293.067 134.944V134.077" stroke="#F5B700"/>
<path d="M293.102 133.953H274.62" stroke="#E3A731"/>
<path d="M310.277 130.734V127.391H304.334V130.734H310.277Z" fill="#039CB0" stroke="#039CB0"/>
<path d="M320.925 130.61V127.267H314.982V130.61H320.925Z" fill="#039CB0" stroke="#039CB0"/>
<path d="M306.068 137.915V134.201H305.325V137.915H306.068Z" fill="#074379"/>
<path d="M310.03 137.915V134.201H309.287V137.915H310.03Z" fill="#074379"/>
<path d="M315.725 137.667V133.953H314.982V137.667H315.725Z" fill="#074379"/>
<path d="M320.182 137.667V133.953H319.439V137.667H320.182Z" fill="#074379"/>
<path d="M306.563 138.163V134.448H305.82V138.163H306.563Z" fill="#00529C" stroke="#00529C" stroke-width="0.5"/>
<path d="M316.22 137.915V134.201H315.478V137.915H316.22Z" fill="#00529C" stroke="#00529C" stroke-width="0.5"/>
<path d="M310.525 138.163V134.448H309.782V138.163H310.525Z" fill="#00529C" stroke="#00529C" stroke-width="0.5"/>
<path d="M320.677 137.915V134.201H319.935V137.915H320.677Z" fill="#00529C" stroke="#00529C" stroke-width="0.5"/>
<path d="M305.093 140.639C305.123 140.596 305.164 139.347 305.093 134.696H304.389V140.639H305.093Z" fill="#E3A731" stroke="#E3A731"/>
<path d="M322.62 140.391C322.649 140.348 322.69 139.099 322.62 134.448H321.916V140.391H322.62Z" fill="#E3A731" stroke="#E3A731"/>
<path d="M304.296 137.42C304.325 137.377 304.366 136.128 304.296 131.477H303.592V137.42H304.296Z" fill="#DBA12E"/>
<path d="M303.592 133.334V130.858L304.334 133.706L304.211 134.448L303.592 133.334Z" fill="#E3A731" stroke="#E3A731"/>
<path d="M322.658 133.829L321.792 130.858H303.591L304.334 133.829V134.696L322.658 134.572V133.829Z" fill="#F5B700"/>
<path d="M322.658 133.829C322.658 133.829 322.485 133.235 321.792 130.858H303.591L304.334 133.829M322.658 133.829H304.334M322.658 133.829V134.572L304.334 134.696V133.829" stroke="#F5B700"/>
<path d="M304.3 133.706H322.782" stroke="#E3A731"/>
<path d="M338.012 130.734V127.391H332.069V130.734H338.012Z" fill="#039CB0" stroke="#039CB0"/>
<path d="M348.66 130.61V127.267H342.717V130.61H348.66Z" fill="#039CB0" stroke="#039CB0"/>
<path d="M333.802 137.915V134.201H333.06V137.915H333.802Z" fill="#074379"/>
<path d="M337.764 137.915V134.201H337.021V137.915H337.764Z" fill="#074379"/>
<path d="M343.46 137.667V133.953H342.717V137.667H343.46Z" fill="#074379"/>
<path d="M347.917 137.667V133.953H347.174V137.667H347.917Z" fill="#074379"/>
<path d="M334.298 138.163V134.448H333.555V138.163H334.298Z" fill="#00529C" stroke="#00529C" stroke-width="0.5"/>
<path d="M343.955 137.915V134.201H343.212V137.915H343.955Z" fill="#00529C" stroke="#00529C" stroke-width="0.5"/>
<path d="M338.26 138.163V134.448H337.517V138.163H338.26Z" fill="#00529C" stroke="#00529C" stroke-width="0.5"/>
<path d="M348.412 137.915V134.201H347.669V137.915H348.412Z" fill="#00529C" stroke="#00529C" stroke-width="0.5"/>
<path d="M332.828 140.639C332.857 140.596 332.898 139.347 332.828 134.696H332.124V140.639H332.828Z" fill="#E3A731" stroke="#E3A731"/>
<path d="M350.354 140.391C350.384 140.348 350.425 139.099 350.354 134.448H349.65V140.391H350.354Z" fill="#E3A731" stroke="#E3A731"/>
<path d="M332.03 137.42C332.06 137.377 332.101 136.128 332.03 131.477H331.326V137.42H332.03Z" fill="#DBA12E"/>
<path d="M331.326 133.334V130.858L332.069 133.706L331.945 134.448L331.326 133.334Z" fill="#E3A731" stroke="#E3A731"/>
<path d="M350.393 133.829L349.526 130.858H331.326L332.069 133.829V134.696L350.393 134.572V133.829Z" fill="#F5B700"/>
<path d="M350.393 133.829C350.393 133.829 350.22 133.235 349.526 130.858H331.326L332.069 133.829M350.393 133.829H332.069M350.393 133.829V134.572L332.069 134.696V133.829" stroke="#F5B700"/>
<path d="M332.034 133.706H350.517" stroke="#E3A731"/>
<path d="M238.343 143.858H235.247V107.086L248.124 90H352.374L365.622 107.457V143.734H362.279V107.457L350.764 91.981H249.857L238.343 107.086V143.858Z" fill="#186EA2" stroke="#186EA2"/>
<path d="M249.981 91.981L238.342 107.21V143.858L249.981 126.401V91.981Z" fill="#308FAD" stroke="#2785A1"/>
<path d="M249.485 99.905L241.685 110.8V135.439L249.485 123.924V99.905Z" fill="#8FD3E4" fill-opacity="0.8" stroke="white" stroke-width="3"/>
<path d="M245.4 105.724L246.143 128.753" stroke="white" stroke-width="3" stroke-linecap="round"/>
<path d="M241.438 131.972L248.81 101.131C248.843 100.993 248.967 100.896 249.108 100.896C249.303 100.896 249.448 101.074 249.408 101.265L242.428 134.696C242.074 134.696 241.773 134.434 241.726 134.083L241.438 131.972Z" fill="white" fill-opacity="0.2"/>
<path d="M255.428 114.886L281.305 99.0383H284.029L255.428 120.458V114.886Z" fill="white" fill-opacity="0.2"/>
<path d="M314.735 114.978L341.172 99.0383H343.955L314.735 120.582V114.978Z" fill="white" fill-opacity="0.2"/>
<path d="M350.145 126.401V92.2288V92.105H350.764L362.279 107.581V143.858L350.145 126.401Z" fill="#308FAD" stroke="#308FAD"/>
<path d="M352.126 98.5427L359.926 109.438V134.077L352.126 122.562V98.5427Z" fill="#8FD3E4" fill-opacity="0.8" stroke="white" stroke-width="3"/>
<path d="M356.211 104.362L355.469 127.391" stroke="white" stroke-width="3" stroke-linecap="round"/>
<path d="M360.174 130.61L352.801 99.7687C352.768 99.6308 352.645 99.5334 352.503 99.5334C352.308 99.5334 352.163 99.7123 352.203 99.9026L359.183 133.334C359.538 133.334 359.838 133.072 359.886 132.721L360.174 130.61Z" fill="white" fill-opacity="0.2"/>
<path d="M235.062 148.563V144.072L365.807 143.858V148.563H235.062Z" fill="#074379" stroke="#074379"/>
<path d="M365.746 153.268V148.777L235 148.563V153.268H365.746Z" fill="#E3A731" stroke="#E3A731"/>
<g filter="url(#filter7_d_193_1408)">
<path d="M239 98.7818L245.947 83H257.526L251.158 94.8364H261L244.789 114L248.842 98.7818H239Z" fill="url(#paint2_linear_193_1408)" shape-rendering="crispEdges"/>
<path d="M239 98.7818L245.947 83H257.526L251.158 94.8364H261L244.789 114L248.842 98.7818H239Z" stroke="white" stroke-opacity="0.3" shape-rendering="crispEdges"/>
</g>
<g filter="url(#filter8_d_193_1408)">
<path d="M412 49.7818L418.947 34H430.526L424.158 45.8364H434L417.789 65L421.842 49.7818H412Z" fill="url(#paint3_linear_193_1408)" shape-rendering="crispEdges"/>
<path d="M412 49.7818L418.947 34H430.526L424.158 45.8364H434L417.789 65L421.842 49.7818H412Z" stroke="white" stroke-opacity="0.3" shape-rendering="crispEdges"/>
</g>
<defs>
<filter id="filter0_d_193_1408" x="0" y="0" width="463" height="174" filterUnits="userSpaceOnUse" color-interpolation-filters="sRGB">
<feFlood flood-opacity="0" result="BackgroundImageFix"/>
<feColorMatrix in="SourceAlpha" type="matrix" values="0 0 0 0 0 0 0 0 0 0 0 0 0 0 0 0 0 0 127 0" result="hardAlpha"/>
<feOffset dy="4"/>
<feGaussianBlur stdDeviation="2"/>
<feComposite in2="hardAlpha" operator="out"/>
<feColorMatrix type="matrix" values="0 0 0 0 0 0 0 0 0 0 0 0 0 0 0 0 0 0 0.25 0"/>
<feBlend mode="normal" in2="BackgroundImageFix" result="effect1_dropShadow_193_1408"/>
<feBlend mode="normal" in="SourceGraphic" in2="effect1_dropShadow_193_1408" result="shape"/>
</filter>
<filter id="filter1_d_193_1408" x="79.0283" y="81.3787" width="127.085" height="76.2468" filterUnits="userSpaceOnUse" color-interpolation-filters="sRGB">
<feFlood flood-opacity="0" result="BackgroundImageFix"/>
<feColorMatrix in="SourceAlpha" type="matrix" values="0 0 0 0 0 0 0 0 0 0 0 0 0 0 0 0 0 0 127 0" result="hardAlpha"/>
<feOffset dy="2"/>
<feGaussianBlur stdDeviation="2"/>
<feComposite in2="hardAlpha" operator="out"/>
<feColorMatrix type="matrix" values="0 0 0 0 0 0 0 0 0 0 0 0 0 0 0 0 0 0 0.15 0"/>
<feBlend mode="normal" in2="BackgroundImageFix" result="effect1_dropShadow_193_1408"/>
<feBlend mode="normal" in="SourceGraphic" in2="effect1_dropShadow_193_1408" result="shape"/>
</filter>
<filter id="filter2_i_193_1408" x="53.8184" y="88.5042" width="34.7344" height="46.6965" filterUnits="userSpaceOnUse" color-interpolation-filters="sRGB">
<feFlood flood-opacity="0" result="BackgroundImageFix"/>
<feBlend mode="normal" in="SourceGraphic" in2="BackgroundImageFix" result="shape"/>
<feColorMatrix in="SourceAlpha" type="matrix" values="0 0 0 0 0 0 0 0 0 0 0 0 0 0 0 0 0 0 127 0" result="hardAlpha"/>
<feOffset dy="4"/>
<feGaussianBlur stdDeviation="2"/>
<feComposite in2="hardAlpha" operator="arithmetic" k2="-1" k3="1"/>
<feColorMatrix type="matrix" values="0 0 0 0 0.32549 0 0 0 0 0.662745 0 0 0 0 0.203922 0 0 0 1 0"/>
<feBlend mode="normal" in2="shape" result="effect1_innerShadow_193_1408"/>
</filter>
<filter id="filter3_i_193_1408" x="365.844" y="87.5535" width="34.7344" height="46.6965" filterUnits="userSpaceOnUse" color-interpolation-filters="sRGB">
<feFlood flood-opacity="0" result="BackgroundImageFix"/>
<feBlend mode="normal" in="SourceGraphic" in2="BackgroundImageFix" result="shape"/>
<feColorMatrix in="SourceAlpha" type="matrix" values="0 0 0 0 0 0 0 0 0 0 0 0 0 0 0 0 0 0 127 0" result="hardAlpha"/>
<feOffset dy="4"/>
<feGaussianBlur stdDeviation="2"/>
<feComposite in2="hardAlpha" operator="arithmetic" k2="-1" k3="1"/>
<feColorMatrix type="matrix" values="0 0 0 0 0.32549 0 0 0 0 0.662745 0 0 0 0 0.203922 0 0 0 1 0"/>
<feBlend mode="normal" in2="shape" result="effect1_innerShadow_193_1408"/>
</filter>
<filter id="filter4_i_193_1408" x="195.039" y="86.5469" width="34.7344" height="46.6965" filterUnits="userSpaceOnUse" color-interpolation-filters="sRGB">
<feFlood flood-opacity="0" result="BackgroundImageFix"/>
<feBlend mode="normal" in="SourceGraphic" in2="BackgroundImageFix" result="shape"/>
<feColorMatrix in="SourceAlpha" type="matrix" values="0 0 0 0 0 0 0 0 0 0 0 0 0 0 0 0 0 0 127 0" result="hardAlpha"/>
<feOffset dy="4"/>
<feGaussianBlur stdDeviation="2"/>
<feComposite in2="hardAlpha" operator="arithmetic" k2="-1" k3="1"/>
<feColorMatrix type="matrix" values="0 0 0 0 0.32549 0 0 0 0 0.662745 0 0 0 0 0.203922 0 0 0 1 0"/>
<feBlend mode="normal" in2="shape" result="effect1_innerShadow_193_1408"/>
</filter>
<filter id="filter5_d_193_1408" x="159.234" y="43.5" width="31.8442" height="39.823" filterUnits="userSpaceOnUse" color-interpolation-filters="sRGB">
<feFlood flood-opacity="0" result="BackgroundImageFix"/>
<feColorMatrix in="SourceAlpha" type="matrix" values="0 0 0 0 0 0 0 0 0 0 0 0 0 0 0 0 0 0 127 0" result="hardAlpha"/>
<feOffset dy="4"/>
<feGaussianBlur stdDeviation="2"/>
<feComposite in2="hardAlpha" operator="out"/>
<feColorMatrix type="matrix" values="0 0 0 0 1 0 0 0 0 0.906397 0 0 0 0 0.628934 0 0 0 1 0"/>
<feBlend mode="normal" in2="BackgroundImageFix" result="effect1_dropShadow_193_1408"/>
<feBlend mode="normal" in="SourceGraphic" in2="effect1_dropShadow_193_1408" result="shape"/>
</filter>
<filter id="filter6_d_193_1408" x="54.2336" y="2.5" width="31.8442" height="39.823" filterUnits="userSpaceOnUse" color-interpolation-filters="sRGB">
<feFlood flood-opacity="0" result="BackgroundImageFix"/>
<feColorMatrix in="SourceAlpha" type="matrix" values="0 0 0 0 0 0 0 0 0 0 0 0 0 0 0 0 0 0 127 0" result="hardAlpha"/>
<feOffset dy="4"/>
<feGaussianBlur stdDeviation="2"/>
<feComposite in2="hardAlpha" operator="out"/>
<feColorMatrix type="matrix" values="0 0 0 0 1 0 0 0 0 0.906397 0 0 0 0 0.628934 0 0 0 1 0"/>
<feBlend mode="normal" in2="BackgroundImageFix" result="effect1_dropShadow_193_1408"/>
<feBlend mode="normal" in="SourceGraphic" in2="effect1_dropShadow_193_1408" result="shape"/>
</filter>
<filter id="filter7_d_193_1408" x="234.234" y="82.5" width="31.8442" height="39.823" filterUnits="userSpaceOnUse" color-interpolation-filters="sRGB">
<feFlood flood-opacity="0" result="BackgroundImageFix"/>
<feColorMatrix in="SourceAlpha" type="matrix" values="0 0 0 0 0 0 0 0 0 0 0 0 0 0 0 0 0 0 127 0" result="hardAlpha"/>
<feOffset dy="4"/>
<feGaussianBlur stdDeviation="2"/>
<feComposite in2="hardAlpha" operator="out"/>
<feColorMatrix type="matrix" values="0 0 0 0 1 0 0 0 0 0.906397 0 0 0 0 0.628934 0 0 0 1 0"/>
<feBlend mode="normal" in2="BackgroundImageFix" result="effect1_dropShadow_193_1408"/>
<feBlend mode="normal" in="SourceGraphic" in2="effect1_dropShadow_193_1408" result="shape"/>
</filter>
<filter id="filter8_d_193_1408" x="407.234" y="33.5" width="31.8442" height="39.823" filterUnits="userSpaceOnUse" color-interpolation-filters="sRGB">
<feFlood flood-opacity="0" result="BackgroundImageFix"/>
<feColorMatrix in="SourceAlpha" type="matrix" values="0 0 0 0 0 0 0 0 0 0 0 0 0 0 0 0 0 0 127 0" result="hardAlpha"/>
<feOffset dy="4"/>
<feGaussianBlur stdDeviation="2"/>
<feComposite in2="hardAlpha" operator="out"/>
<feColorMatrix type="matrix" values="0 0 0 0 1 0 0 0 0 0.906397 0 0 0 0 0.628934 0 0 0 1 0"/>
<feBlend mode="normal" in2="BackgroundImageFix" result="effect1_dropShadow_193_1408"/>
<feBlend mode="normal" in="SourceGraphic" in2="effect1_dropShadow_193_1408" result="shape"/>
</filter>
<linearGradient id="paint0_linear_193_1408" x1="175" y1="44" x2="175" y2="75" gradientUnits="userSpaceOnUse">
<stop stop-color="#FFE7A0"/>
<stop offset="0.6875" stop-color="#F5B700"/>
</linearGradient>
<linearGradient id="paint1_linear_193_1408" x1="70" y1="3" x2="70" y2="34" gradientUnits="userSpaceOnUse">
<stop stop-color="#FFE7A0"/>
<stop offset="0.6875" stop-color="#F5B700"/>
</linearGradient>
<linearGradient id="paint2_linear_193_1408" x1="250" y1="83" x2="250" y2="114" gradientUnits="userSpaceOnUse">
<stop stop-color="#FFE7A0"/>
<stop offset="0.6875" stop-color="#F5B700"/>
</linearGradient>
<linearGradient id="paint3_linear_193_1408" x1="423" y1="34" x2="423" y2="65" gradientUnits="userSpaceOnUse">
<stop stop-color="#FFE7A0"/>
<stop offset="0.6875" stop-color="#F5B700"/>
</linearGradient>
</defs>
</svg>
