<svg width="466" height="174" viewBox="0 0 466 174" fill="none" xmlns="http://www.w3.org/2000/svg">
<g filter="url(#filter0_d_55_1251)">
<rect x="7" width="455" height="166" rx="5" fill="#039CB0" fill-opacity="0.2" shape-rendering="crispEdges"/>
</g>
<path fill-rule="evenodd" clip-rule="evenodd" d="M81.7137 152.408C61.3683 135.313 133.051 106.736 133.051 106.736C137.245 106.736 145.632 106.736 154.019 97.8055C162.406 90.1512 170.094 73.5668 178.482 73.5668C186.869 73.5668 195.256 90.1512 203.643 90.1512C212.03 90.1512 220.418 73.5668 228.805 62.0852C237.192 51.8794 244.88 46.7765 253.267 54.4309C261.654 62.0852 270.042 85.0483 278.429 95.2541C286.816 106.736 295.203 106.736 303.59 92.7026C311.977 78.6697 319.666 51.8794 328.053 32.7435C336.44 13.6077 344.827 3.40187 353.214 13.6077C361.602 25.0892 369.989 56.9823 378.376 65.9124C386.763 73.5668 394.451 56.9823 402.838 54.4309C411.226 51.8794 419.613 62.0852 423.806 68.4639L428 73.5668V155.213H423.806C419.613 155.213 411.226 155.213 402.838 155.213C394.451 155.213 386.763 155.213 378.376 155.213C369.989 155.213 361.602 155.213 353.214 155.213C344.827 155.213 336.44 155.213 328.053 155.213C319.666 155.213 311.977 155.213 303.59 155.213C295.203 155.213 286.816 155.213 278.429 155.213C270.042 155.213 261.654 155.213 253.267 155.213C244.88 155.213 237.192 155.213 228.805 155.213C220.418 155.213 212.03 155.213 203.643 155.213C195.256 155.213 186.869 155.213 178.482 155.213C170.094 155.213 162.406 155.213 154.019 155.213C145.632 155.213 137.245 155.213 133.051 155.213C133.051 155.213 125.524 156.143 122.451 155.213C106.215 150.303 94.7959 163.4 81.7137 152.408Z" fill="white" fill-opacity="0.5"/>
<g filter="url(#filter1_d_55_1251)">
<path d="M83.7517 148.563V145.266H101.08V148.563H83.7517Z" fill="#C5EFFA" stroke="#C5EFFA" stroke-width="0.1"/>
<path d="M45.0527 148.563V145.266H83.7518V148.563H45.0527Z" fill="#8FD3E4" stroke="#8FD3E4" stroke-width="0.1"/>
<path d="M34.0784 155.155V148.562H81.4414L79.131 155.155H34.0784Z" fill="#8FD3E4" stroke="#8FD3E4" stroke-width="0.1"/>
<path d="M111.477 155.155V148.562H153.064V155.155H111.477Z" fill="#8FD3E4" stroke="#8FD3E4" stroke-width="0.1"/>
<path d="M77.9758 155.155V148.562H111.477L116.675 155.155H77.9758Z" fill="#BAF7FF" stroke="#8FD3E4" stroke-width="0.1"/>
<path d="M101.08 148.563V145.266H142.667V148.563H101.08Z" fill="#8FD3E4" stroke="#8FD3E4" stroke-width="0.1"/>
<path d="M105.701 145.266H45.6304V116.151H98.7694L105.123 122.194L105.701 122.238V145.266Z" fill="white"/>
<path d="M45.6304 113.954V116.151M45.6304 116.151V145.266H105.701V122.238L105.123 122.194L98.7694 116.151H45.6304Z" stroke="#8FD3E4" stroke-opacity="0.13" stroke-width="0.1"/>
<path d="M58.3374 144.717V123.842H69.8894V144.717H58.3374Z" fill="#6F631D" stroke="#878264"/>
<path d="M98.7694 116.151L105.123 122.194H105.701V111.207L45.6304 110.109V113.954V116.151H98.7694Z" fill="#8FD3E4" fill-opacity="0.8" stroke="#8FD3E4" stroke-opacity="0.13" stroke-width="0.1"/>
<path d="M105.7 145.4V111.207L119.563 90.8816L138.624 113.954H138.878V145.4H105.7Z" fill="#8FD3E4" stroke="#8FD3E4" stroke-width="0.1"/>
<path d="M146.71 113.954L122.451 87.0363L119.563 90.8816L138.623 113.954H146.71Z" fill="#038699" stroke="#00A2B7" stroke-width="0.1"/>
<path d="M39.2766 113.405L61.2253 87.5856H121.296L102.812 114.503L39.2766 113.405Z" fill="#03A2B0" stroke="#00A2B7"/>
<path d="M84.8853 123.773H80.3438V129.363H84.8853V123.773Z" fill="#039CB0" stroke="#038699"/>
<path d="M84.8853 130.914H80.3438V136.504H84.8853V130.914Z" fill="#039CB0" stroke="#038699"/>
<path d="M91.8165 123.773H87.2749V129.363H91.8165V123.773Z" fill="#039CB0" stroke="#038699"/>
<path d="M91.8165 130.914H87.2749V136.504H91.8165V130.914Z" fill="#039CB0" stroke="#038699"/>
</g>
<path d="M21.3623 134.833L26.0243 132.616C26.7611 132.266 27.5733 132.101 28.3883 132.136L38.9633 132.593C39.5513 132.619 40.1282 132.762 40.6597 133.015L41.4895 133.409C43.6102 134.418 44.2452 137.135 42.7911 138.979C42.3812 139.499 41.8379 139.897 41.2191 140.133L38.385 141.211C37.1098 141.696 36.3354 142.58 37.064 143.733C37.5354 144.479 38.2427 145.51 39.2767 146.915C43.2185 151.08 23.2557 152.942 15.5881 153.905C14.8412 153.999 14.0921 153.831 13.46 153.422L12.1201 152.556C9.5188 150.873 10.7118 145.734 13.7705 145.242C15.9819 144.887 17.3186 140.853 18.1777 138.784C18.2387 138.638 18.3006 138.492 18.3619 138.348C18.9431 136.988 20.0261 135.469 21.3623 134.833Z" fill="#017A8B" fill-opacity="0.18"/>
<path d="M28.88 146.365C28.0667 146.365 27.1472 145.816 27.1472 145.816V118.898H30.6128V145.816C30.6128 145.816 29.6933 146.365 28.88 146.365Z" fill="#346C5F" stroke="#346C5F"/>
<g filter="url(#filter2_i_55_1251)">
<path d="M17.6217 103.545L17.7189 104.1C17.8401 104.791 18.1801 105.426 18.6889 105.91C19.2984 106.489 20.1074 106.813 20.9486 106.813H21.3711L19.0607 107.911L17.3279 109.01C16.5578 109.559 14.902 110.768 14.44 111.207C14.1863 111.449 14.0371 111.922 13.9541 112.39C13.8382 113.044 14.0668 113.696 14.4478 114.24L14.8119 114.759C14.9459 114.95 15.1342 115.097 15.3525 115.18L15.6011 115.275C16.4677 115.604 16.5162 116.812 15.6789 117.21C15.6232 117.237 15.5699 117.268 15.5196 117.304L13.8276 118.511C13.4744 118.763 13.2077 119.118 13.0642 119.527C12.8401 120.167 12.9378 120.875 13.3268 121.43L13.655 121.898C13.7909 122.092 13.9747 122.248 14.1886 122.349L15.7662 123.099C16.3249 123.365 16.2692 124.178 15.6795 124.365C15.6235 124.383 15.57 124.407 15.5205 124.439L14.2308 125.257C13.9862 125.412 13.7226 125.535 13.4465 125.622L13.1678 125.71C12.5026 125.921 11.9475 126.386 11.6228 127.004C11.2168 127.776 11.2168 128.698 11.6228 129.47L11.7405 129.694C11.9954 130.179 12.373 130.589 12.8356 130.882L13.8624 131.533L15.5952 132.632L16.8866 133.246C17.5575 133.565 18.291 133.73 19.0339 133.73H22.5263L26.5695 134.28H30.0351L34.0783 133.73C35.9413 133.477 37.1273 133.212 37.8349 132.997C38.432 132.817 38.9956 132.511 39.5734 132.275L41.8679 131.34C42.4457 131.104 42.9743 130.763 43.4264 130.333L44.2565 129.543C44.7649 129.06 45.0527 128.389 45.0527 127.688C45.0527 126.986 44.7649 126.315 44.2565 125.832L43.8975 125.49L42.7622 124.41C42.3786 124.046 41.8695 123.842 41.3401 123.842H40.0455C39.6209 123.842 39.2767 123.498 39.2767 123.073C39.2767 122.863 39.3631 122.661 39.5157 122.516L40.5288 121.553C40.8471 121.25 41.1138 120.897 41.3182 120.508L41.9935 119.224C42.1074 119.007 42.2052 118.782 42.2862 118.551L42.7423 117.25C43.2043 115.932 41.7796 115.236 41.0095 115.053L39.4997 114.574C38.7254 114.329 38.5906 113.29 39.2767 112.855C40.1488 112.302 40.6094 111.72 40.8311 111.274C41.0218 110.889 40.9543 110.448 40.8452 110.033L40.7536 109.684C40.5433 108.884 40.1144 108.159 39.5149 107.588L38.9862 107.086C38.7977 106.906 38.5677 106.777 38.3167 106.709L37.5927 106.512C36.5104 106.218 36.325 104.761 37.2991 104.206C37.4603 104.114 37.5991 103.987 37.7057 103.835L38.3919 102.856C38.5961 102.565 38.7686 102.252 38.9066 101.925L39.039 101.61C39.5604 100.37 39.5604 98.9724 39.039 97.7327L38.8591 97.3048C38.7526 97.0516 38.6254 96.8077 38.4789 96.5754L37.7394 95.4031C37.2344 94.6026 36.5125 93.9619 35.6578 93.5555L35.3588 93.4133C34.893 93.1918 34.3957 93.0437 33.8847 92.9742L31.3419 92.6287C30.8584 92.563 30.3678 92.5685 29.8859 92.6449L27.5177 93.0203C27.271 93.0594 27.0276 93.1169 26.7895 93.1924L24.1876 94.0173C23.8512 94.1239 23.527 94.2659 23.2205 94.4408L21.878 95.2069C21.166 95.6132 20.5647 96.1884 20.1273 96.8817L19.0607 98.5724L18.1197 100.362C17.6064 101.339 17.4312 102.458 17.6217 103.545Z" fill="#67AD15"/>
</g>
<path d="M22.5263 106.813H21.3711M21.3711 106.813H20.9486C20.1074 106.813 19.2984 106.489 18.6889 105.91C18.1801 105.426 17.8401 104.791 17.7189 104.1L17.6217 103.545C17.4312 102.458 17.6064 101.339 18.1197 100.362L19.0607 98.5724L20.1273 96.8817C20.5647 96.1884 21.166 95.6132 21.878 95.2069L23.2205 94.4408C23.527 94.2659 23.8512 94.1239 24.1876 94.0173L26.7895 93.1924C27.0276 93.1169 27.271 93.0594 27.5177 93.0203L29.8859 92.6449C30.3678 92.5685 30.8584 92.563 31.3419 92.6287L33.8847 92.9742C34.3957 93.0437 34.893 93.1918 35.3588 93.4133L35.6578 93.5555C36.5125 93.9619 37.2344 94.6026 37.7394 95.4031L38.4789 96.5754C38.6254 96.8077 38.7526 97.0516 38.8591 97.3048L39.039 97.7327C39.5604 98.9724 39.5604 100.37 39.039 101.61L38.9066 101.925C38.7686 102.252 38.5961 102.565 38.3919 102.856L37.7057 103.835C37.5991 103.987 37.4603 104.114 37.2991 104.206C36.325 104.761 36.5104 106.218 37.5927 106.512L38.3167 106.709C38.5677 106.777 38.7977 106.906 38.9862 107.086L39.5149 107.588C40.1144 108.159 40.5433 108.884 40.7536 109.684L40.8452 110.033C40.9543 110.448 41.0218 110.889 40.8311 111.274C40.6094 111.72 40.1488 112.302 39.2767 112.855C38.5906 113.29 38.7254 114.329 39.4997 114.574L41.0095 115.053C41.7796 115.236 43.2043 115.932 42.7423 117.25C42.5165 117.894 42.3735 118.302 42.2862 118.551C42.2052 118.782 42.1074 119.007 41.9935 119.224L41.3182 120.508C41.1138 120.897 40.8471 121.25 40.5288 121.553L39.5157 122.516C39.3631 122.661 39.2767 122.863 39.2767 123.073C39.2767 123.498 39.6209 123.842 40.0455 123.842H41.3401C41.8695 123.842 42.3786 124.046 42.7622 124.41L43.8975 125.49L44.2565 125.832C44.7649 126.315 45.0527 126.986 45.0527 127.688C45.0527 128.389 44.7649 129.06 44.2565 129.543L43.4264 130.333C42.9743 130.763 42.4457 131.104 41.8679 131.34L39.5734 132.275C38.9956 132.511 38.432 132.817 37.8349 132.997C37.1273 133.212 35.9413 133.477 34.0783 133.73C30.8437 134.17 30.0351 134.28 30.0351 134.28H26.5695L22.5263 133.73H19.0339C18.291 133.73 17.5575 133.565 16.8866 133.246L15.5952 132.632L13.8624 131.533L12.8356 130.882C12.373 130.589 11.9954 130.179 11.7405 129.694L11.6228 129.47C11.2168 128.698 11.2168 127.776 11.6228 127.004C11.9475 126.386 12.5026 125.921 13.1678 125.71L13.4465 125.622C13.7226 125.535 13.9862 125.412 14.2308 125.257L15.5205 124.439C15.57 124.407 15.6235 124.383 15.6795 124.365C16.2692 124.178 16.3249 123.365 15.7662 123.099L14.1886 122.349C13.9747 122.248 13.7909 122.092 13.655 121.898L13.3268 121.43C12.9378 120.875 12.8401 120.167 13.0642 119.527C13.2077 119.118 13.4744 118.763 13.8276 118.511L15.5196 117.304C15.5699 117.268 15.6232 117.237 15.6789 117.21C16.5162 116.812 16.4677 115.604 15.6011 115.275L15.3525 115.18C15.1342 115.097 14.9459 114.95 14.8119 114.759L14.4478 114.24C14.0668 113.696 13.8382 113.044 13.9541 112.39C14.0371 111.922 14.1863 111.449 14.44 111.207C14.902 110.768 16.5578 109.559 17.3279 109.01L19.0607 107.911L21.3711 106.813Z" stroke="#53A934"/>
<path d="M158.073 141.812L153.757 140.143C153.126 139.899 152.452 139.785 151.777 139.809L142.397 140.139C142.043 140.151 141.694 140.223 141.363 140.351L140.309 140.759C138.688 141.385 138.232 143.463 139.442 144.711C139.725 145.003 140.078 145.22 140.467 145.34L143.185 146.181C144.261 146.514 144.869 147.164 144.172 148.047C143.768 148.558 143.184 149.244 142.36 150.156C138.912 153.119 156.71 154.417 163.061 155.081C163.506 155.128 163.95 155.043 164.346 154.835L165.344 154.31C167.384 153.237 166.259 149.275 163.979 148.938C163.887 148.925 163.796 148.911 163.706 148.896C162.078 148.632 160.977 145.34 160.214 143.877C159.744 142.976 159.021 142.179 158.073 141.812Z" fill="#017A8B" fill-opacity="0.18"/>
<path d="M154.219 149.661C153.405 149.661 152.486 149.112 152.486 149.112V122.194H155.951V149.112C155.951 149.112 155.032 149.661 154.219 149.661Z" fill="#346C5F" stroke="#346C5F"/>
<g filter="url(#filter3_i_55_1251)">
<path d="M142.961 106.841L143.058 107.396C143.179 108.087 143.519 108.722 144.028 109.206C144.637 109.785 145.446 110.109 146.287 110.109H146.71L144.4 111.207L142.667 112.306C141.897 112.855 140.241 114.064 139.779 114.503C139.525 114.745 139.376 115.218 139.293 115.686C139.177 116.34 139.406 116.992 139.787 117.536L140.151 118.055C140.285 118.246 140.473 118.393 140.691 118.476L140.94 118.571C141.807 118.9 141.855 120.108 141.018 120.506C140.962 120.533 140.909 120.564 140.858 120.6L139.166 121.807C138.813 122.059 138.547 122.414 138.403 122.823C138.179 123.463 138.277 124.171 138.666 124.726L138.994 125.194C139.13 125.388 139.314 125.544 139.527 125.645L141.105 126.396C141.664 126.661 141.608 127.474 141.018 127.661C140.962 127.679 140.909 127.703 140.859 127.735L139.57 128.553C139.325 128.708 139.061 128.831 138.785 128.918L138.507 129.006C137.841 129.217 137.286 129.682 136.962 130.3C136.556 131.072 136.556 131.994 136.962 132.766L137.079 132.99C137.334 133.475 137.712 133.885 138.174 134.178L139.201 134.829L140.934 135.928L142.225 136.542C142.896 136.861 143.63 137.026 144.373 137.026H147.865L151.908 137.576H155.374L159.417 137.026C161.28 136.773 162.466 136.508 163.174 136.293C163.771 136.113 164.335 135.807 164.912 135.571L167.207 134.636C167.785 134.401 168.313 134.059 168.765 133.629L169.595 132.839C170.104 132.356 170.392 131.685 170.392 130.984C170.392 130.282 170.104 129.611 169.595 129.128L169.236 128.786L168.101 127.706C167.717 127.342 167.208 127.138 166.679 127.138H165.384C164.96 127.138 164.616 126.794 164.616 126.369C164.616 126.159 164.702 125.957 164.855 125.812L165.868 124.849C166.186 124.546 166.453 124.193 166.657 123.804L167.332 122.52C167.446 122.303 167.544 122.079 167.625 121.847L168.081 120.546C168.543 119.228 167.118 118.532 166.348 118.349L164.839 117.87C164.064 117.625 163.929 116.586 164.616 116.151C165.488 115.598 165.948 115.016 166.17 114.57C166.361 114.185 166.293 113.744 166.184 113.329L166.092 112.98C165.882 112.18 165.453 111.455 164.854 110.885L164.325 110.382C164.137 110.202 163.907 110.073 163.656 110.005L162.932 109.808C161.849 109.514 161.664 108.057 162.638 107.502C162.799 107.41 162.938 107.283 163.045 107.131L163.731 106.152C163.935 105.861 164.108 105.548 164.245 105.221L164.378 104.906C164.899 103.666 164.899 102.268 164.378 101.029L164.198 100.601C164.091 100.348 163.964 100.104 163.818 99.8714L163.078 98.6991C162.573 97.8986 161.851 97.2579 160.997 96.8515L160.698 96.7093C160.232 96.4878 159.735 96.3397 159.224 96.2702L156.681 95.9248C156.197 95.8591 155.707 95.8645 155.225 95.9409L152.857 96.3163C152.61 96.3554 152.366 96.4129 152.128 96.4884L149.526 97.3133C149.19 97.4199 148.866 97.5619 148.559 97.7368L147.217 98.5029C146.505 98.9092 145.904 99.4844 145.466 100.178L144.4 101.868L143.459 103.658C142.945 104.635 142.77 105.754 142.961 106.841Z" fill="#67AD15"/>
</g>
<path d="M147.865 110.109H146.71M146.71 110.109H146.287C145.446 110.109 144.637 109.785 144.028 109.206C143.519 108.722 143.179 108.087 143.058 107.396L142.961 106.841C142.77 105.754 142.945 104.635 143.459 103.658L144.4 101.868L145.466 100.178C145.904 99.4844 146.505 98.9092 147.217 98.5029L148.559 97.7368C148.866 97.5619 149.19 97.4199 149.526 97.3133L152.128 96.4884C152.366 96.4129 152.61 96.3554 152.857 96.3163L155.225 95.9409C155.707 95.8645 156.197 95.8591 156.681 95.9248L159.224 96.2702C159.735 96.3397 160.232 96.4878 160.698 96.7093L160.997 96.8515C161.851 97.2579 162.573 97.8986 163.078 98.6991L163.818 99.8714C163.964 100.104 164.091 100.348 164.198 100.601L164.378 101.029C164.899 102.268 164.899 103.666 164.378 104.906L164.245 105.221C164.108 105.548 163.935 105.861 163.731 106.152L163.045 107.131C162.938 107.283 162.799 107.41 162.638 107.502C161.664 108.057 161.849 109.514 162.932 109.808L163.656 110.005C163.907 110.073 164.137 110.202 164.325 110.382L164.854 110.885C165.453 111.455 165.882 112.18 166.092 112.98L166.184 113.329C166.293 113.744 166.361 114.185 166.17 114.57C165.948 115.016 165.488 115.598 164.616 116.151C163.929 116.586 164.064 117.625 164.839 117.87L166.348 118.349C167.118 118.532 168.543 119.228 168.081 120.546C167.855 121.19 167.712 121.598 167.625 121.847C167.544 122.079 167.446 122.303 167.332 122.52L166.657 123.804C166.453 124.193 166.186 124.546 165.868 124.849L164.855 125.812C164.702 125.957 164.616 126.159 164.616 126.369C164.616 126.794 164.96 127.138 165.384 127.138H166.679C167.208 127.138 167.717 127.342 168.101 127.706L169.236 128.786L169.595 129.128C170.104 129.611 170.392 130.282 170.392 130.984C170.392 131.685 170.104 132.356 169.595 132.839L168.765 133.629C168.313 134.059 167.785 134.401 167.207 134.636L164.912 135.571C164.335 135.807 163.771 136.113 163.174 136.293C162.466 136.508 161.28 136.773 159.417 137.026C156.183 137.466 155.374 137.576 155.374 137.576H151.908L147.865 137.026H144.373C143.63 137.026 142.896 136.861 142.225 136.542L140.934 135.928L139.201 134.829L138.174 134.178C137.712 133.885 137.334 133.475 137.079 132.99L136.962 132.766C136.556 131.994 136.556 131.072 136.962 130.3C137.286 129.682 137.841 129.217 138.507 129.006L138.785 128.918C139.061 128.831 139.325 128.708 139.57 128.553L140.859 127.735C140.909 127.703 140.962 127.679 141.018 127.661C141.608 127.474 141.664 126.661 141.105 126.396L139.527 125.645C139.314 125.544 139.13 125.388 138.994 125.194L138.666 124.726C138.277 124.171 138.179 123.463 138.403 122.823C138.547 122.414 138.813 122.059 139.166 121.807L140.858 120.6C140.909 120.564 140.962 120.533 141.018 120.506C141.855 120.108 141.807 118.9 140.94 118.571L140.691 118.476C140.473 118.393 140.285 118.246 140.151 118.055L139.787 117.536C139.406 116.992 139.177 116.34 139.293 115.686C139.376 115.218 139.525 114.745 139.779 114.503C140.241 114.064 141.897 112.855 142.667 112.306L144.4 111.207L146.71 110.109Z" stroke="#53A934"/>
<path d="M253.954 144.559L249.638 142.89C249.008 142.646 248.333 142.532 247.658 142.556L238.279 142.886C237.925 142.898 237.575 142.97 237.245 143.097L236.19 143.505C234.569 144.132 234.113 146.21 235.323 147.458C235.607 147.75 235.959 147.966 236.348 148.087L239.067 148.928C240.142 149.261 240.751 149.91 240.053 150.793C239.649 151.305 239.066 151.991 238.241 152.902C234.793 155.865 252.591 157.164 258.942 157.828C259.387 157.874 259.831 157.79 260.227 157.582L261.225 157.057C263.265 155.984 262.14 152.022 259.86 151.685C259.768 151.672 259.678 151.658 259.587 151.643C257.959 151.378 256.858 148.086 256.096 146.624C255.625 145.722 254.903 144.926 253.954 144.559Z" fill="#017A8B" fill-opacity="0.18"/>
<path d="M250.1 152.408C249.287 152.408 248.367 151.859 248.367 151.859V124.941H251.833V151.859C251.833 151.859 250.913 152.408 250.1 152.408Z" fill="#346C5F" stroke="#346C5F"/>
<g filter="url(#filter4_i_55_1251)">
<path d="M238.842 109.587L238.939 110.142C239.06 110.834 239.4 111.468 239.909 111.952C240.519 112.532 241.328 112.855 242.169 112.855H242.591L240.281 113.954L238.548 115.053C237.778 115.602 236.122 116.811 235.66 117.25C235.407 117.491 235.257 117.964 235.174 118.433C235.058 119.086 235.287 119.739 235.668 120.283L236.032 120.802C236.166 120.993 236.354 121.14 236.573 121.223L236.821 121.317C237.688 121.647 237.736 122.855 236.899 123.253C236.843 123.279 236.79 123.311 236.74 123.347L235.048 124.554C234.695 124.806 234.428 125.161 234.284 125.57C234.06 126.21 234.158 126.918 234.547 127.473L234.875 127.941C235.011 128.135 235.195 128.29 235.409 128.392L236.986 129.142C237.545 129.408 237.489 130.221 236.9 130.408C236.844 130.425 236.79 130.45 236.741 130.482L235.451 131.299C235.206 131.454 234.943 131.577 234.667 131.665L234.388 131.753C233.723 131.964 233.168 132.429 232.843 133.046C232.437 133.818 232.437 134.741 232.843 135.513L232.961 135.737C233.216 136.222 233.593 136.631 234.056 136.925L235.083 137.576L236.815 138.674L238.107 139.288C238.778 139.608 239.511 139.773 240.254 139.773H243.747L247.79 140.322H251.255L255.299 139.773C257.162 139.52 258.347 139.255 259.055 139.04C259.652 138.859 260.216 138.553 260.794 138.318L263.088 137.383C263.666 137.147 264.195 136.806 264.647 136.376L265.477 135.586C265.985 135.103 266.273 134.432 266.273 133.73C266.273 133.029 265.985 132.358 265.477 131.874L265.118 131.533L263.982 130.453C263.599 130.088 263.09 129.885 262.56 129.885H261.266C260.841 129.885 260.497 129.541 260.497 129.116C260.497 128.905 260.583 128.704 260.736 128.559L261.749 127.595C262.067 127.293 262.334 126.94 262.538 126.551L263.214 125.266C263.328 125.05 263.425 124.825 263.506 124.594L263.962 123.293C264.425 121.974 263 121.279 262.23 121.095L260.72 120.617C259.946 120.371 259.811 119.333 260.497 118.898C261.369 118.345 261.83 117.763 262.051 117.316C262.242 116.932 262.174 116.491 262.065 116.076L261.974 115.727C261.763 114.927 261.335 114.201 260.735 113.631L260.206 113.128C260.018 112.949 259.788 112.82 259.537 112.751L258.813 112.555C257.731 112.261 257.545 110.804 258.519 110.248C258.681 110.156 258.819 110.03 258.926 109.878L259.612 108.899C259.816 108.607 259.989 108.295 260.127 107.967L260.259 107.652C260.781 106.413 260.781 105.015 260.259 103.775L260.079 103.348C259.973 103.094 259.846 102.85 259.699 102.618L258.96 101.446C258.455 100.645 257.733 100.005 256.878 99.5982L256.579 99.456C256.113 99.2345 255.616 99.0864 255.105 99.0169L252.562 98.6715C252.079 98.6058 251.588 98.6112 251.106 98.6876L248.738 99.063C248.491 99.1021 248.248 99.1596 248.01 99.2351L245.408 100.06C245.071 100.167 244.747 100.309 244.441 100.484L243.098 101.25C242.386 101.656 241.785 102.231 241.348 102.924L240.281 104.615L239.34 106.405C238.827 107.382 238.651 108.501 238.842 109.587Z" fill="#67AD15"/>
</g>
<path d="M243.747 112.855H242.591M242.591 112.855H242.169C241.328 112.855 240.519 112.532 239.909 111.952C239.4 111.468 239.06 110.834 238.939 110.142L238.842 109.587C238.651 108.501 238.827 107.382 239.34 106.405L240.281 104.615L241.348 102.924C241.785 102.231 242.386 101.656 243.098 101.25L244.441 100.484C244.747 100.309 245.071 100.167 245.408 100.06L248.01 99.2351C248.248 99.1596 248.491 99.1021 248.738 99.063L251.106 98.6876C251.588 98.6112 252.079 98.6058 252.562 98.6715L255.105 99.0169C255.616 99.0864 256.113 99.2345 256.579 99.456L256.878 99.5982C257.733 100.005 258.455 100.645 258.96 101.446L259.699 102.618C259.846 102.85 259.973 103.094 260.079 103.348L260.259 103.775C260.781 105.015 260.781 106.413 260.259 107.652L260.127 107.967C259.989 108.295 259.816 108.607 259.612 108.899L258.926 109.878C258.819 110.03 258.681 110.156 258.519 110.248C257.545 110.804 257.731 112.261 258.813 112.555L259.537 112.751C259.788 112.82 260.018 112.949 260.206 113.128L260.735 113.631C261.335 114.201 261.763 114.927 261.974 115.727L262.065 116.076C262.174 116.491 262.242 116.932 262.051 117.316C261.83 117.763 261.369 118.345 260.497 118.898C259.811 119.333 259.946 120.371 260.72 120.617L262.23 121.095C263 121.279 264.425 121.974 263.962 123.293C263.737 123.937 263.594 124.345 263.506 124.594C263.425 124.825 263.328 125.05 263.214 125.266L262.538 126.551C262.334 126.94 262.067 127.293 261.749 127.595L260.736 128.559C260.583 128.704 260.497 128.905 260.497 129.116C260.497 129.541 260.841 129.885 261.266 129.885H262.56C263.09 129.885 263.599 130.088 263.982 130.453L265.118 131.533L265.477 131.874C265.985 132.358 266.273 133.029 266.273 133.73C266.273 134.432 265.985 135.103 265.477 135.586L264.647 136.376C264.195 136.806 263.666 137.147 263.088 137.383L260.794 138.318C260.216 138.553 259.652 138.859 259.055 139.04C258.347 139.255 257.162 139.52 255.299 139.773C252.064 140.213 251.255 140.322 251.255 140.322H247.79L243.747 139.773H240.254C239.511 139.773 238.778 139.608 238.107 139.288L236.815 138.674L235.083 137.576L234.056 136.925C233.593 136.631 233.216 136.222 232.961 135.737L232.843 135.513C232.437 134.741 232.437 133.818 232.843 133.046C233.168 132.429 233.723 131.964 234.388 131.753L234.667 131.665C234.943 131.577 235.206 131.454 235.451 131.299L236.741 130.482C236.79 130.45 236.844 130.425 236.9 130.408C237.489 130.221 237.545 129.408 236.986 129.142L235.409 128.392C235.195 128.29 235.011 128.135 234.875 127.941L234.547 127.473C234.158 126.918 234.06 126.21 234.284 125.57C234.428 125.161 234.695 124.806 235.048 124.554L236.74 123.347C236.79 123.311 236.843 123.279 236.899 123.253C237.736 122.855 237.688 121.647 236.821 121.317L236.573 121.223C236.354 121.14 236.166 120.993 236.032 120.802L235.668 120.283C235.287 119.739 235.058 119.086 235.174 118.433C235.257 117.964 235.407 117.491 235.66 117.25C236.122 116.811 237.778 115.602 238.548 115.053L240.281 113.954L242.591 112.855Z" stroke="#53A934"/>
<path d="M407.596 145.658L403.279 143.988C402.649 143.745 401.975 143.631 401.299 143.655L391.92 143.984C391.566 143.997 391.216 144.068 390.886 144.196L389.831 144.604C388.21 145.231 387.754 147.309 388.964 148.557C389.248 148.849 389.6 149.065 389.989 149.186L392.708 150.027C393.783 150.359 394.392 151.009 393.694 151.892C393.29 152.404 392.707 153.09 391.882 154.001C388.434 156.964 406.232 158.262 412.583 158.927C413.028 158.973 413.472 158.889 413.868 158.681L414.866 158.156C416.906 157.083 415.781 153.12 413.501 152.784C413.41 152.77 413.319 152.756 413.228 152.742C411.6 152.477 410.499 149.185 409.737 147.723C409.267 146.821 408.544 146.024 407.596 145.658Z" fill="#017A8B" fill-opacity="0.18"/>
<path d="M403.741 153.507C402.928 153.507 402.008 152.957 402.008 152.957V126.04H405.474V152.957C405.474 152.957 404.554 153.507 403.741 153.507Z" fill="#346C5F" stroke="#346C5F"/>
<g filter="url(#filter5_i_55_1251)">
<path d="M392.483 110.686L392.58 111.241C392.701 111.933 393.041 112.567 393.55 113.051C394.16 113.631 394.969 113.954 395.81 113.954H396.232L393.922 115.053L392.189 116.151C391.419 116.701 389.763 117.909 389.301 118.349C389.048 118.59 388.898 119.063 388.815 119.531C388.7 120.185 388.928 120.838 389.309 121.381L389.673 121.901C389.807 122.092 389.996 122.239 390.214 122.322L390.462 122.416C391.329 122.746 391.378 123.954 390.54 124.352C390.485 124.378 390.431 124.41 390.381 124.445L388.689 125.652C388.336 125.904 388.069 126.259 387.926 126.669C387.701 127.308 387.799 128.017 388.188 128.572L388.516 129.04C388.652 129.234 388.836 129.389 389.05 129.491L390.628 130.241C391.186 130.507 391.131 131.319 390.541 131.506C390.485 131.524 390.431 131.549 390.382 131.58L389.092 132.398C388.848 132.553 388.584 132.676 388.308 132.764L388.029 132.852C387.364 133.063 386.809 133.527 386.484 134.145C386.078 134.917 386.078 135.84 386.484 136.612L386.602 136.836C386.857 137.321 387.234 137.73 387.697 138.023L388.724 138.674L390.456 139.773L391.748 140.387C392.419 140.706 393.152 140.872 393.895 140.872H397.388L401.431 141.421H404.896L408.94 140.872C410.803 140.619 411.989 140.353 412.696 140.139C413.293 139.958 413.857 139.652 414.435 139.417L416.729 138.481C417.307 138.246 417.836 137.904 418.288 137.474L419.118 136.685C419.626 136.201 419.914 135.531 419.914 134.829C419.914 134.127 419.626 133.457 419.118 132.973L418.759 132.632L417.623 131.552C417.24 131.187 416.731 130.984 416.201 130.984H414.907C414.482 130.984 414.138 130.639 414.138 130.215C414.138 130.004 414.224 129.803 414.377 129.658L415.39 128.694C415.708 128.391 415.975 128.039 416.18 127.65L416.855 126.365C416.969 126.148 417.067 125.924 417.148 125.693L417.604 124.392C418.066 123.073 416.641 122.377 415.871 122.194L414.361 121.716C413.587 121.47 413.452 120.432 414.138 119.997C415.01 119.444 415.471 118.862 415.692 118.415C415.883 118.031 415.816 117.589 415.707 117.174L415.615 116.826C415.405 116.026 414.976 115.3 414.376 114.73L413.848 114.227C413.659 114.048 413.429 113.918 413.178 113.85L412.454 113.653C411.372 113.359 411.186 111.903 412.16 111.347C412.322 111.255 412.46 111.129 412.567 110.977L413.253 109.998C413.457 109.706 413.63 109.394 413.768 109.066L413.9 108.751C414.422 107.511 414.422 106.114 413.9 104.874L413.72 104.446C413.614 104.193 413.487 103.949 413.34 103.717L412.601 102.545C412.096 101.744 411.374 101.103 410.519 100.697L410.22 100.555C409.754 100.333 409.257 100.185 408.746 100.116L406.203 99.7702C405.72 99.7045 405.229 99.71 404.747 99.7863L402.379 100.162C402.132 100.201 401.889 100.258 401.651 100.334L399.049 101.159C398.712 101.265 398.388 101.407 398.082 101.582L396.739 102.348C396.027 102.755 395.426 103.33 394.989 104.023L393.922 105.714L392.981 107.504C392.468 108.48 392.293 109.599 392.483 110.686Z" fill="#67AD15"/>
</g>
<path d="M397.388 113.954H396.232M396.232 113.954H395.81C394.969 113.954 394.16 113.631 393.55 113.051C393.041 112.567 392.701 111.933 392.58 111.241L392.483 110.686C392.293 109.599 392.468 108.48 392.981 107.504L393.922 105.714L394.989 104.023C395.426 103.33 396.027 102.755 396.739 102.348L398.082 101.582C398.388 101.407 398.712 101.265 399.049 101.159L401.651 100.334C401.889 100.258 402.132 100.201 402.379 100.162L404.747 99.7863C405.229 99.71 405.72 99.7045 406.203 99.7702L408.746 100.116C409.257 100.185 409.754 100.333 410.22 100.555L410.519 100.697C411.374 101.103 412.096 101.744 412.601 102.545L413.34 103.717C413.487 103.949 413.614 104.193 413.72 104.446L413.9 104.874C414.422 106.114 414.422 107.511 413.9 108.751L413.768 109.066C413.63 109.394 413.457 109.706 413.253 109.998L412.567 110.977C412.46 111.129 412.322 111.255 412.16 111.347C411.186 111.903 411.372 113.359 412.454 113.653L413.178 113.85C413.429 113.918 413.659 114.048 413.848 114.227L414.376 114.73C414.976 115.3 415.405 116.026 415.615 116.826L415.707 117.174C415.816 117.589 415.883 118.031 415.692 118.415C415.471 118.862 415.01 119.444 414.138 119.997C413.452 120.432 413.587 121.47 414.361 121.716L415.871 122.194C416.641 122.377 418.066 123.073 417.604 124.392C417.378 125.036 417.235 125.444 417.148 125.693C417.067 125.924 416.969 126.148 416.855 126.365L416.18 127.65C415.975 128.039 415.708 128.391 415.39 128.694L414.377 129.658C414.224 129.803 414.138 130.004 414.138 130.215C414.138 130.639 414.482 130.984 414.907 130.984H416.201C416.731 130.984 417.24 131.187 417.623 131.552L418.759 132.632L419.118 132.973C419.626 133.457 419.914 134.127 419.914 134.829C419.914 135.531 419.626 136.201 419.118 136.685L418.288 137.474C417.836 137.904 417.307 138.246 416.729 138.481L414.435 139.417C413.857 139.652 413.293 139.958 412.696 140.139C411.989 140.353 410.803 140.619 408.94 140.872C405.705 141.311 404.896 141.421 404.896 141.421H401.431L397.388 140.872H393.895C393.152 140.872 392.419 140.706 391.748 140.387L390.456 139.773L388.724 138.674L387.697 138.023C387.234 137.73 386.857 137.321 386.602 136.836L386.484 136.612C386.078 135.84 386.078 134.917 386.484 134.145C386.809 133.527 387.364 133.063 388.029 132.852L388.308 132.764C388.584 132.676 388.848 132.553 389.092 132.398L390.382 131.58C390.431 131.549 390.485 131.524 390.541 131.506C391.131 131.319 391.186 130.507 390.628 130.241L389.05 129.491C388.836 129.389 388.652 129.234 388.516 129.04L388.188 128.572C387.799 128.017 387.701 127.308 387.926 126.669C388.069 126.259 388.336 125.904 388.689 125.652L390.381 124.445C390.431 124.41 390.485 124.378 390.54 124.352C391.378 123.954 391.329 122.746 390.462 122.416L390.214 122.322C389.996 122.239 389.807 122.092 389.673 121.901L389.309 121.381C388.928 120.838 388.7 120.185 388.815 119.531C388.898 119.063 389.048 118.59 389.301 118.349C389.763 117.909 391.419 116.701 392.189 116.151L393.922 115.053L396.232 113.954Z" stroke="#53A934"/>
<g filter="url(#filter6_d_55_1251)">
<path d="M167 59.7818L173.947 44H185.526L179.158 55.8364H189L172.789 75L176.842 59.7818H167Z" fill="url(#paint0_linear_55_1251)" shape-rendering="crispEdges"/>
<path d="M167 59.7818L173.947 44H185.526L179.158 55.8364H189L172.789 75L176.842 59.7818H167Z" stroke="white" stroke-opacity="0.3" shape-rendering="crispEdges"/>
</g>
<path d="M266 140.556L307.581 125L429.435 128.333L449.647 131.111L456 137.222V149.444L451.957 155L433.477 152.222H409.799L370.529 149.444L324.906 152.222H289.1H274.663L266 143.889V140.556Z" fill="#038699" fill-opacity="0.3"/>
<g filter="url(#filter7_d_55_1251)">
<path d="M62 18.7818L68.9474 3H80.5263L74.1579 14.8364H84L67.7895 34L71.8421 18.7818H62Z" fill="url(#paint1_linear_55_1251)" shape-rendering="crispEdges"/>
<path d="M62 18.7818L68.9474 3H80.5263L74.1579 14.8364H84L67.7895 34L71.8421 18.7818H62Z" stroke="white" stroke-opacity="0.3" shape-rendering="crispEdges"/>
</g>
<path d="M313.872 127.609V93.3129H413.912V127.609H313.872Z" fill="#308FAD" stroke="#2785A1" stroke-width="0.5"/>
<path d="M319.443 122.161V99.8748H407.474V122.161H319.443Z" fill="#8FD3E4" stroke="white" stroke-width="4"/>
<path d="M363.149 99.9985V122.532" stroke="white" stroke-width="4"/>
<path d="M347.672 99.8749C347.97 117.605 348.044 122.037 348.044 122.037" stroke="white" stroke-width="4"/>
<path d="M333.681 100.122C333.681 117.654 333.681 122.037 333.681 122.037" stroke="white" stroke-width="4"/>
<path d="M392.864 100.122C392.765 117.555 392.823 121.913 392.864 121.913" stroke="white" stroke-width="4"/>
<path d="M426.417 145.314H302.233L314.119 127.609H413.912L426.417 145.314Z" fill="#186EA2" stroke="#186EA2"/>
<path d="M378.749 100.246C378.65 117.679 378.708 122.037 378.749 122.037" stroke="white" stroke-width="4"/>
<path d="M327.986 125.751V122.409H333.929V125.751H327.986Z" fill="#039CB0" stroke="#039CB0"/>
<path d="M317.338 125.628V122.285H323.281V125.628H317.338Z" fill="#039CB0" stroke="#039CB0"/>
<path d="M332.195 132.933V129.218H332.938V132.933H332.195Z" fill="#074379"/>
<path d="M328.234 132.933V129.218H328.977V132.933H328.234Z" fill="#074379"/>
<path d="M322.538 132.685V128.971H323.281V132.685H322.538Z" fill="#074379"/>
<path d="M318.081 132.685V128.971H318.824V132.685H318.081Z" fill="#074379"/>
<path d="M331.7 133.18V129.466H332.443V133.18H331.7Z" fill="#00529C" stroke="#00529C" stroke-width="0.5"/>
<path d="M322.043 132.933V129.218H322.786V132.933H322.043Z" fill="#00529C" stroke="#00529C" stroke-width="0.5"/>
<path d="M327.738 133.18V129.466H328.481V133.18H327.738Z" fill="#00529C" stroke="#00529C" stroke-width="0.5"/>
<path d="M317.586 132.933V129.218H318.329V132.933H317.586Z" fill="#00529C" stroke="#00529C" stroke-width="0.5"/>
<path d="M333.17 135.657C333.141 135.614 333.1 134.365 333.17 129.714H333.874V135.657H333.17Z" fill="#E3A731" stroke="#E3A731"/>
<path d="M315.644 135.409C315.614 135.366 315.573 134.117 315.644 129.466H316.348V135.409H315.644Z" fill="#E3A731" stroke="#E3A731"/>
<path d="M333.968 132.437C333.938 132.394 333.897 131.146 333.968 126.495H334.672V132.437H333.968Z" fill="#DBA12E"/>
<path d="M334.672 128.352V125.875L333.929 128.723L334.053 129.466L334.672 128.352Z" fill="#E3A731" stroke="#E3A731"/>
<path d="M315.605 128.847L316.471 125.875H334.672L333.929 128.847V129.714L315.605 129.59V128.847Z" fill="#F5B700"/>
<path d="M315.605 128.847C315.605 128.847 315.778 128.253 316.471 125.875H334.672L333.929 128.847M315.605 128.847H333.929M315.605 128.847V129.59L333.929 129.714V128.847" stroke="#F5B700"/>
<path d="M333.963 128.723H315.481" stroke="#E3A731"/>
<path d="M353.368 125.999V122.656H359.311V125.999H353.368Z" fill="#039CB0" stroke="#039CB0"/>
<path d="M342.72 125.875V122.532H348.663V125.875H342.72Z" fill="#039CB0" stroke="#039CB0"/>
<path d="M357.577 133.18V129.466H358.32V133.18H357.577Z" fill="#074379"/>
<path d="M353.615 133.18V129.466H354.358V133.18H353.615Z" fill="#074379"/>
<path d="M347.92 132.932V129.218H348.663V132.932H347.92Z" fill="#074379"/>
<path d="M343.463 132.932V129.218H344.206V132.932H343.463Z" fill="#074379"/>
<path d="M357.082 133.428V129.714H357.825V133.428H357.082Z" fill="#00529C" stroke="#00529C" stroke-width="0.5"/>
<path d="M347.425 133.18V129.466H348.168V133.18H347.425Z" fill="#00529C" stroke="#00529C" stroke-width="0.5"/>
<path d="M353.12 133.428V129.714H353.863V133.428H353.12Z" fill="#00529C" stroke="#00529C" stroke-width="0.5"/>
<path d="M342.968 133.18V129.466H343.711V133.18H342.968Z" fill="#00529C" stroke="#00529C" stroke-width="0.5"/>
<path d="M358.552 135.904C358.523 135.861 358.482 134.612 358.552 129.961H359.256V135.904H358.552Z" fill="#E3A731" stroke="#E3A731"/>
<path d="M341.026 135.656C340.996 135.613 340.955 134.365 341.026 129.714H341.73V135.656H341.026Z" fill="#E3A731" stroke="#E3A731"/>
<path d="M359.35 132.685C359.321 132.642 359.28 131.393 359.35 126.742H360.054V132.685H359.35Z" fill="#DBA12E"/>
<path d="M360.054 128.599V126.123L359.311 128.971L359.435 129.713L360.054 128.599Z" fill="#E3A731" stroke="#E3A731"/>
<path d="M340.987 129.094L341.854 126.123H360.054L359.311 129.094V129.961L340.987 129.837V129.094Z" fill="#F5B700"/>
<path d="M340.987 129.094C340.987 129.094 341.16 128.5 341.854 126.123H360.054L359.311 129.094M340.987 129.094H359.311M340.987 129.094V129.837L359.311 129.961V129.094" stroke="#F5B700"/>
<path d="M359.345 128.971H340.863" stroke="#E3A731"/>
<path d="M373.425 125.504V122.161H367.482V125.504H373.425Z" fill="#039CB0" stroke="#039CB0"/>
<path d="M384.073 125.38V122.037H378.13V125.38H384.073Z" fill="#039CB0" stroke="#039CB0"/>
<path d="M369.215 132.685V128.971H368.473V132.685H369.215Z" fill="#074379"/>
<path d="M373.178 132.685V128.971H372.435V132.685H373.178Z" fill="#074379"/>
<path d="M378.873 132.437V128.723H378.13V132.437H378.873Z" fill="#074379"/>
<path d="M383.33 132.437V128.723H382.587V132.437H383.33Z" fill="#074379"/>
<path d="M369.711 132.933V129.218H368.968V132.933H369.711Z" fill="#00529C" stroke="#00529C" stroke-width="0.5"/>
<path d="M379.368 132.685V128.971H378.625V132.685H379.368Z" fill="#00529C" stroke="#00529C" stroke-width="0.5"/>
<path d="M373.673 132.933V129.218H372.93V132.933H373.673Z" fill="#00529C" stroke="#00529C" stroke-width="0.5"/>
<path d="M383.825 132.685V128.971H383.082V132.685H383.825Z" fill="#00529C" stroke="#00529C" stroke-width="0.5"/>
<path d="M368.241 135.409C368.27 135.366 368.311 134.117 368.241 129.466H367.537V135.409H368.241Z" fill="#E3A731" stroke="#E3A731"/>
<path d="M385.767 135.161C385.797 135.118 385.838 133.869 385.767 129.218H385.063V135.161H385.767Z" fill="#E3A731" stroke="#E3A731"/>
<path d="M367.444 132.19C367.473 132.147 367.514 130.898 367.444 126.247H366.74V132.19H367.444Z" fill="#DBA12E"/>
<path d="M366.74 128.104V125.628L367.483 128.475L367.359 129.218L366.74 128.104Z" fill="#E3A731" stroke="#E3A731"/>
<path d="M385.806 128.599L384.94 125.628H366.739L367.482 128.599V129.466L385.806 129.342V128.599Z" fill="#F5B700"/>
<path d="M385.806 128.599C385.806 128.599 385.633 128.005 384.94 125.628H366.739L367.482 128.599M385.806 128.599H367.482M385.806 128.599V129.342L367.482 129.466V128.599" stroke="#F5B700"/>
<path d="M367.448 128.475H385.93" stroke="#E3A731"/>
<path d="M399.921 125.504V122.161H393.978V125.504H399.921Z" fill="#039CB0" stroke="#039CB0"/>
<path d="M410.569 125.38V122.037H404.626V125.38H410.569Z" fill="#039CB0" stroke="#039CB0"/>
<path d="M395.712 132.685V128.971H394.969V132.685H395.712Z" fill="#074379"/>
<path d="M399.674 132.685V128.971H398.931V132.685H399.674Z" fill="#074379"/>
<path d="M405.369 132.437V128.723H404.626V132.437H405.369Z" fill="#074379"/>
<path d="M409.826 132.437V128.723H409.083V132.437H409.826Z" fill="#074379"/>
<path d="M396.207 132.933V129.218H395.464V132.933H396.207Z" fill="#00529C" stroke="#00529C" stroke-width="0.5"/>
<path d="M405.864 132.685V128.971H405.122V132.685H405.864Z" fill="#00529C" stroke="#00529C" stroke-width="0.5"/>
<path d="M400.169 132.933V129.218H399.426V132.933H400.169Z" fill="#00529C" stroke="#00529C" stroke-width="0.5"/>
<path d="M410.322 132.685V128.971H409.579V132.685H410.322Z" fill="#00529C" stroke="#00529C" stroke-width="0.5"/>
<path d="M394.737 135.409C394.766 135.366 394.807 134.117 394.737 129.466H394.033V135.409H394.737Z" fill="#E3A731" stroke="#E3A731"/>
<path d="M412.264 135.161C412.293 135.118 412.334 133.869 412.264 129.218H411.56V135.161H412.264Z" fill="#E3A731" stroke="#E3A731"/>
<path d="M393.939 132.19C393.969 132.147 394.01 130.898 393.939 126.247H393.235V132.19H393.939Z" fill="#DBA12E"/>
<path d="M393.235 128.104V125.628L393.978 128.475L393.854 129.218L393.235 128.104Z" fill="#E3A731" stroke="#E3A731"/>
<path d="M412.303 128.599L411.436 125.628H393.236L393.978 128.599V129.466L412.303 129.342V128.599Z" fill="#F5B700"/>
<path d="M412.303 128.599C412.303 128.599 412.129 128.005 411.436 125.628H393.236L393.978 128.599M412.303 128.599H393.978M412.303 128.599V129.342L393.978 129.466V128.599" stroke="#F5B700"/>
<path d="M393.944 128.475H412.426" stroke="#E3A731"/>
<path d="M325.633 131.942V128.599H331.576V131.942H325.633Z" fill="#039CB0" stroke="#039CB0"/>
<path d="M314.985 131.818V128.475H320.928V131.818H314.985Z" fill="#039CB0" stroke="#039CB0"/>
<path d="M329.843 139.123V135.409H330.586V139.123H329.843Z" fill="#074379"/>
<path d="M325.881 139.123V135.409H326.624V139.123H325.881Z" fill="#074379"/>
<path d="M320.185 138.876V135.161H320.928V138.876H320.185Z" fill="#074379"/>
<path d="M315.728 138.876V135.161H316.471V138.876H315.728Z" fill="#074379"/>
<path d="M329.347 139.371V135.656H330.09V139.371H329.347Z" fill="#00529C" stroke="#00529C" stroke-width="0.5"/>
<path d="M319.69 139.123V135.409H320.433V139.123H319.69Z" fill="#00529C" stroke="#00529C" stroke-width="0.5"/>
<path d="M325.385 139.371V135.656H326.128V139.371H325.385Z" fill="#00529C" stroke="#00529C" stroke-width="0.5"/>
<path d="M315.233 139.123V135.409H315.976V139.123H315.233Z" fill="#00529C" stroke="#00529C" stroke-width="0.5"/>
<path d="M330.817 141.847C330.788 141.804 330.747 140.555 330.817 135.904H331.521V141.847H330.817Z" fill="#E3A731" stroke="#E3A731"/>
<path d="M313.291 141.599C313.261 141.556 313.22 140.308 313.291 135.656H313.995V141.599H313.291Z" fill="#E3A731" stroke="#E3A731"/>
<path d="M331.615 138.628C331.586 138.585 331.545 137.336 331.615 132.685H332.319V138.628H331.615Z" fill="#DBA12E"/>
<path d="M332.319 134.542V132.066L331.576 134.914L331.7 135.656L332.319 134.542Z" fill="#E3A731" stroke="#E3A731"/>
<path d="M313.252 135.037L314.119 132.066H332.319L331.576 135.037V135.904L313.252 135.78V135.037Z" fill="#F5B700"/>
<path d="M313.252 135.037C313.252 135.037 313.425 134.443 314.119 132.066H332.319L331.576 135.037M313.252 135.037H331.576M313.252 135.037V135.78L331.576 135.904V135.037" stroke="#F5B700"/>
<path d="M331.611 134.914H313.128" stroke="#E3A731"/>
<path d="M351.015 132.19V128.847H356.958V132.19H351.015Z" fill="#039CB0" stroke="#039CB0"/>
<path d="M340.367 132.066V128.723H346.31V132.066H340.367Z" fill="#039CB0" stroke="#039CB0"/>
<path d="M355.225 139.371V135.656H355.967V139.371H355.225Z" fill="#074379"/>
<path d="M351.263 139.371V135.656H352.006V139.371H351.263Z" fill="#074379"/>
<path d="M345.567 139.123V135.409H346.31V139.123H345.567Z" fill="#074379"/>
<path d="M341.11 139.123V135.409H341.853V139.123H341.11Z" fill="#074379"/>
<path d="M354.73 139.619V135.904H355.473V139.619H354.73Z" fill="#00529C" stroke="#00529C" stroke-width="0.5"/>
<path d="M345.072 139.371V135.656H345.815V139.371H345.072Z" fill="#00529C" stroke="#00529C" stroke-width="0.5"/>
<path d="M350.768 139.619V135.904H351.51V139.619H350.768Z" fill="#00529C" stroke="#00529C" stroke-width="0.5"/>
<path d="M340.615 139.371V135.656H341.358V139.371H340.615Z" fill="#00529C" stroke="#00529C" stroke-width="0.5"/>
<path d="M356.2 142.095C356.17 142.052 356.129 140.803 356.2 136.152H356.904V142.095H356.2Z" fill="#E3A731" stroke="#E3A731"/>
<path d="M338.673 141.847C338.643 141.804 338.602 140.555 338.673 135.904H339.377V141.847H338.673Z" fill="#E3A731" stroke="#E3A731"/>
<path d="M356.997 138.876C356.968 138.833 356.927 137.584 356.997 132.933H357.701V138.876H356.997Z" fill="#DBA12E"/>
<path d="M357.701 134.79V132.313L356.958 135.161L357.082 135.904L357.701 134.79Z" fill="#E3A731" stroke="#E3A731"/>
<path d="M338.634 135.285L339.5 132.313H357.701L356.958 135.285V136.152L338.634 136.028V135.285Z" fill="#F5B700"/>
<path d="M338.634 135.285C338.634 135.285 338.807 134.691 339.5 132.313H357.701L356.958 135.285M338.634 135.285H356.958M338.634 135.285V136.028L356.958 136.152V135.285" stroke="#F5B700"/>
<path d="M356.992 135.161H338.51" stroke="#E3A731"/>
<path d="M374.168 131.942V128.599H368.225V131.942H374.168Z" fill="#039CB0" stroke="#039CB0"/>
<path d="M384.816 131.818V128.475H378.873V131.818H384.816Z" fill="#039CB0" stroke="#039CB0"/>
<path d="M369.959 139.123V135.409H369.216V139.123H369.959Z" fill="#074379"/>
<path d="M373.921 139.123V135.409H373.178V139.123H373.921Z" fill="#074379"/>
<path d="M379.616 138.876V135.161H378.873V138.876H379.616Z" fill="#074379"/>
<path d="M384.073 138.876V135.161H383.33V138.876H384.073Z" fill="#074379"/>
<path d="M370.454 139.371V135.656H369.711V139.371H370.454Z" fill="#00529C" stroke="#00529C" stroke-width="0.5"/>
<path d="M380.111 139.123V135.409H379.368V139.123H380.111Z" fill="#00529C" stroke="#00529C" stroke-width="0.5"/>
<path d="M374.416 139.371V135.656H373.673V139.371H374.416Z" fill="#00529C" stroke="#00529C" stroke-width="0.5"/>
<path d="M384.568 139.123V135.409H383.825V139.123H384.568Z" fill="#00529C" stroke="#00529C" stroke-width="0.5"/>
<path d="M368.984 141.847C369.013 141.804 369.054 140.555 368.984 135.904H368.28V141.847H368.984Z" fill="#E3A731" stroke="#E3A731"/>
<path d="M386.51 141.599C386.54 141.556 386.581 140.308 386.51 135.656H385.806V141.599H386.51Z" fill="#E3A731" stroke="#E3A731"/>
<path d="M368.186 138.628C368.216 138.585 368.257 137.336 368.186 132.685H367.482V138.628H368.186Z" fill="#DBA12E"/>
<path d="M367.482 134.542V132.066L368.225 134.914L368.101 135.656L367.482 134.542Z" fill="#E3A731" stroke="#E3A731"/>
<path d="M386.549 135.037L385.682 132.066H367.482L368.225 135.037V135.904L386.549 135.78V135.037Z" fill="#F5B700"/>
<path d="M386.549 135.037C386.549 135.037 386.376 134.443 385.682 132.066H367.482L368.225 135.037M386.549 135.037H368.225M386.549 135.037V135.78L368.225 135.904V135.037" stroke="#F5B700"/>
<path d="M368.191 134.914H386.673" stroke="#E3A731"/>
<path d="M401.902 131.942V128.599H395.959V131.942H401.902Z" fill="#039CB0" stroke="#039CB0"/>
<path d="M412.55 131.818V128.475H406.607V131.818H412.55Z" fill="#039CB0" stroke="#039CB0"/>
<path d="M397.693 139.123V135.409H396.95V139.123H397.693Z" fill="#074379"/>
<path d="M401.655 139.123V135.409H400.912V139.123H401.655Z" fill="#074379"/>
<path d="M407.35 138.876V135.161H406.607V138.876H407.35Z" fill="#074379"/>
<path d="M411.807 138.876V135.161H411.064V138.876H411.807Z" fill="#074379"/>
<path d="M398.188 139.371V135.656H397.445V139.371H398.188Z" fill="#00529C" stroke="#00529C" stroke-width="0.5"/>
<path d="M407.846 139.123V135.409H407.103V139.123H407.846Z" fill="#00529C" stroke="#00529C" stroke-width="0.5"/>
<path d="M402.15 139.371V135.656H401.407V139.371H402.15Z" fill="#00529C" stroke="#00529C" stroke-width="0.5"/>
<path d="M412.303 139.123V135.409H411.56V139.123H412.303Z" fill="#00529C" stroke="#00529C" stroke-width="0.5"/>
<path d="M396.718 141.847C396.747 141.804 396.788 140.555 396.718 135.904H396.014V141.847H396.718Z" fill="#E3A731" stroke="#E3A731"/>
<path d="M414.245 141.599C414.274 141.556 414.315 140.308 414.245 135.656H413.541V141.599H414.245Z" fill="#E3A731" stroke="#E3A731"/>
<path d="M395.921 138.628C395.95 138.585 395.991 137.336 395.921 132.685H395.217V138.628H395.921Z" fill="#DBA12E"/>
<path d="M395.217 134.542V132.066L395.96 134.914L395.836 135.656L395.217 134.542Z" fill="#E3A731" stroke="#E3A731"/>
<path d="M414.284 135.037L413.417 132.066H395.216L395.959 135.037V135.904L414.284 135.78V135.037Z" fill="#F5B700"/>
<path d="M414.284 135.037C414.284 135.037 414.11 134.443 413.417 132.066H395.216L395.959 135.037M414.284 135.037H395.959M414.284 135.037V135.78L395.959 135.904V135.037" stroke="#F5B700"/>
<path d="M395.925 134.914H414.407" stroke="#E3A731"/>
<path d="M302.233 145.066H299.138V108.294L312.014 91.208H416.264L429.512 108.665V144.942H426.169V108.665L414.655 93.189H313.748L302.233 108.294V145.066Z" fill="#186EA2" stroke="#186EA2"/>
<path d="M313.871 93.189L302.233 108.418V145.066L313.871 127.609V93.189Z" fill="#308FAD" stroke="#2785A1"/>
<path d="M313.376 101.113L305.575 112.008V136.647L313.376 125.132V101.113Z" fill="#8FD3E4" fill-opacity="0.8" stroke="white" stroke-width="3"/>
<path d="M309.29 106.932L310.033 129.961" stroke="white" stroke-width="3" stroke-linecap="round"/>
<path d="M305.328 133.18L312.701 102.339C312.734 102.201 312.857 102.104 312.999 102.104C313.194 102.104 313.339 102.282 313.299 102.473L306.319 135.904C305.964 135.904 305.664 135.642 305.616 135.291L305.328 133.18Z" fill="white" fill-opacity="0.2"/>
<path d="M319.319 116.094L345.196 100.246H347.919L319.319 121.666V116.094Z" fill="white" fill-opacity="0.2"/>
<path d="M378.625 116.186L405.062 100.246H407.845L378.625 121.789V116.186Z" fill="white" fill-opacity="0.2"/>
<path d="M414.036 127.609V93.4367V93.3129H414.655L426.169 108.789V145.066L414.036 127.609Z" fill="#308FAD" stroke="#308FAD"/>
<path d="M416.016 99.7509L423.817 110.646V135.285L416.016 123.77V99.7509Z" fill="#8FD3E4" fill-opacity="0.8" stroke="white" stroke-width="3"/>
<path d="M420.102 105.57L419.359 128.599" stroke="white" stroke-width="3" stroke-linecap="round"/>
<path d="M424.064 131.818L416.692 100.977C416.659 100.839 416.536 100.741 416.394 100.741C416.199 100.741 416.054 100.92 416.094 101.111L423.074 134.542C423.428 134.542 423.729 134.28 423.777 133.929L424.064 131.818Z" fill="white" fill-opacity="0.2"/>
<path d="M298.952 149.771V145.28L429.698 145.066V149.771H298.952Z" fill="#074379" stroke="#074379"/>
<path d="M429.636 154.476V149.985L298.891 149.771V154.476H429.636Z" fill="#E3A731" stroke="#E3A731"/>
<g filter="url(#filter8_d_55_1251)">
<path d="M302 98.7818L308.947 83H320.526L314.158 94.8364H324L307.789 114L311.842 98.7818H302Z" fill="url(#paint2_linear_55_1251)" shape-rendering="crispEdges"/>
<path d="M302 98.7818L308.947 83H320.526L314.158 94.8364H324L307.789 114L311.842 98.7818H302Z" stroke="white" stroke-opacity="0.3" shape-rendering="crispEdges"/>
</g>
<g filter="url(#filter9_d_55_1251)">
<path d="M415 49.7818L421.947 34H433.526L427.158 45.8364H437L420.789 65L424.842 49.7818H415Z" fill="url(#paint3_linear_55_1251)" shape-rendering="crispEdges"/>
<path d="M415 49.7818L421.947 34H433.526L427.158 45.8364H437L420.789 65L424.842 49.7818H415Z" stroke="white" stroke-opacity="0.3" shape-rendering="crispEdges"/>
</g>
<defs>
<filter id="filter0_d_55_1251" x="3" y="0" width="463" height="174" filterUnits="userSpaceOnUse" color-interpolation-filters="sRGB">
<feFlood flood-opacity="0" result="BackgroundImageFix"/>
<feColorMatrix in="SourceAlpha" type="matrix" values="0 0 0 0 0 0 0 0 0 0 0 0 0 0 0 0 0 0 127 0" result="hardAlpha"/>
<feOffset dy="4"/>
<feGaussianBlur stdDeviation="2"/>
<feComposite in2="hardAlpha" operator="out"/>
<feColorMatrix type="matrix" values="0 0 0 0 0 0 0 0 0 0 0 0 0 0 0 0 0 0 0.25 0"/>
<feBlend mode="normal" in2="BackgroundImageFix" result="effect1_dropShadow_55_1251"/>
<feBlend mode="normal" in="SourceGraphic" in2="effect1_dropShadow_55_1251" result="shape"/>
</filter>
<filter id="filter1_d_55_1251" x="30.0283" y="84.9576" width="127.085" height="76.2469" filterUnits="userSpaceOnUse" color-interpolation-filters="sRGB">
<feFlood flood-opacity="0" result="BackgroundImageFix"/>
<feColorMatrix in="SourceAlpha" type="matrix" values="0 0 0 0 0 0 0 0 0 0 0 0 0 0 0 0 0 0 127 0" result="hardAlpha"/>
<feOffset dy="2"/>
<feGaussianBlur stdDeviation="2"/>
<feComposite in2="hardAlpha" operator="out"/>
<feColorMatrix type="matrix" values="0 0 0 0 0 0 0 0 0 0 0 0 0 0 0 0 0 0 0.15 0"/>
<feBlend mode="normal" in2="BackgroundImageFix" result="effect1_dropShadow_55_1251"/>
<feBlend mode="normal" in="SourceGraphic" in2="effect1_dropShadow_55_1251" result="shape"/>
</filter>
<filter id="filter2_i_55_1251" x="10.8184" y="92.0833" width="34.7344" height="46.6964" filterUnits="userSpaceOnUse" color-interpolation-filters="sRGB">
<feFlood flood-opacity="0" result="BackgroundImageFix"/>
<feBlend mode="normal" in="SourceGraphic" in2="BackgroundImageFix" result="shape"/>
<feColorMatrix in="SourceAlpha" type="matrix" values="0 0 0 0 0 0 0 0 0 0 0 0 0 0 0 0 0 0 127 0" result="hardAlpha"/>
<feOffset dy="4"/>
<feGaussianBlur stdDeviation="2"/>
<feComposite in2="hardAlpha" operator="arithmetic" k2="-1" k3="1"/>
<feColorMatrix type="matrix" values="0 0 0 0 0.32549 0 0 0 0 0.662745 0 0 0 0 0.203922 0 0 0 1 0"/>
<feBlend mode="normal" in2="shape" result="effect1_innerShadow_55_1251"/>
</filter>
<filter id="filter3_i_55_1251" x="136.157" y="95.3793" width="34.7344" height="46.6964" filterUnits="userSpaceOnUse" color-interpolation-filters="sRGB">
<feFlood flood-opacity="0" result="BackgroundImageFix"/>
<feBlend mode="normal" in="SourceGraphic" in2="BackgroundImageFix" result="shape"/>
<feColorMatrix in="SourceAlpha" type="matrix" values="0 0 0 0 0 0 0 0 0 0 0 0 0 0 0 0 0 0 127 0" result="hardAlpha"/>
<feOffset dy="4"/>
<feGaussianBlur stdDeviation="2"/>
<feComposite in2="hardAlpha" operator="arithmetic" k2="-1" k3="1"/>
<feColorMatrix type="matrix" values="0 0 0 0 0.32549 0 0 0 0 0.662745 0 0 0 0 0.203922 0 0 0 1 0"/>
<feBlend mode="normal" in2="shape" result="effect1_innerShadow_55_1251"/>
</filter>
<filter id="filter4_i_55_1251" x="232.039" y="98.126" width="34.7344" height="46.6964" filterUnits="userSpaceOnUse" color-interpolation-filters="sRGB">
<feFlood flood-opacity="0" result="BackgroundImageFix"/>
<feBlend mode="normal" in="SourceGraphic" in2="BackgroundImageFix" result="shape"/>
<feColorMatrix in="SourceAlpha" type="matrix" values="0 0 0 0 0 0 0 0 0 0 0 0 0 0 0 0 0 0 127 0" result="hardAlpha"/>
<feOffset dy="4"/>
<feGaussianBlur stdDeviation="2"/>
<feComposite in2="hardAlpha" operator="arithmetic" k2="-1" k3="1"/>
<feColorMatrix type="matrix" values="0 0 0 0 0.32549 0 0 0 0 0.662745 0 0 0 0 0.203922 0 0 0 1 0"/>
<feBlend mode="normal" in2="shape" result="effect1_innerShadow_55_1251"/>
</filter>
<filter id="filter5_i_55_1251" x="385.68" y="99.2247" width="34.7343" height="46.6964" filterUnits="userSpaceOnUse" color-interpolation-filters="sRGB">
<feFlood flood-opacity="0" result="BackgroundImageFix"/>
<feBlend mode="normal" in="SourceGraphic" in2="BackgroundImageFix" result="shape"/>
<feColorMatrix in="SourceAlpha" type="matrix" values="0 0 0 0 0 0 0 0 0 0 0 0 0 0 0 0 0 0 127 0" result="hardAlpha"/>
<feOffset dy="4"/>
<feGaussianBlur stdDeviation="2"/>
<feComposite in2="hardAlpha" operator="arithmetic" k2="-1" k3="1"/>
<feColorMatrix type="matrix" values="0 0 0 0 0.32549 0 0 0 0 0.662745 0 0 0 0 0.203922 0 0 0 1 0"/>
<feBlend mode="normal" in2="shape" result="effect1_innerShadow_55_1251"/>
</filter>
<filter id="filter6_d_55_1251" x="162.234" y="43.5" width="31.8442" height="39.8229" filterUnits="userSpaceOnUse" color-interpolation-filters="sRGB">
<feFlood flood-opacity="0" result="BackgroundImageFix"/>
<feColorMatrix in="SourceAlpha" type="matrix" values="0 0 0 0 0 0 0 0 0 0 0 0 0 0 0 0 0 0 127 0" result="hardAlpha"/>
<feOffset dy="4"/>
<feGaussianBlur stdDeviation="2"/>
<feComposite in2="hardAlpha" operator="out"/>
<feColorMatrix type="matrix" values="0 0 0 0 1 0 0 0 0 0.906397 0 0 0 0 0.628934 0 0 0 1 0"/>
<feBlend mode="normal" in2="BackgroundImageFix" result="effect1_dropShadow_55_1251"/>
<feBlend mode="normal" in="SourceGraphic" in2="effect1_dropShadow_55_1251" result="shape"/>
</filter>
<filter id="filter7_d_55_1251" x="57.2336" y="2.5" width="31.8442" height="39.8229" filterUnits="userSpaceOnUse" color-interpolation-filters="sRGB">
<feFlood flood-opacity="0" result="BackgroundImageFix"/>
<feColorMatrix in="SourceAlpha" type="matrix" values="0 0 0 0 0 0 0 0 0 0 0 0 0 0 0 0 0 0 127 0" result="hardAlpha"/>
<feOffset dy="4"/>
<feGaussianBlur stdDeviation="2"/>
<feComposite in2="hardAlpha" operator="out"/>
<feColorMatrix type="matrix" values="0 0 0 0 1 0 0 0 0 0.906397 0 0 0 0 0.628934 0 0 0 1 0"/>
<feBlend mode="normal" in2="BackgroundImageFix" result="effect1_dropShadow_55_1251"/>
<feBlend mode="normal" in="SourceGraphic" in2="effect1_dropShadow_55_1251" result="shape"/>
</filter>
<filter id="filter8_d_55_1251" x="297.234" y="82.5" width="31.8442" height="39.8229" filterUnits="userSpaceOnUse" color-interpolation-filters="sRGB">
<feFlood flood-opacity="0" result="BackgroundImageFix"/>
<feColorMatrix in="SourceAlpha" type="matrix" values="0 0 0 0 0 0 0 0 0 0 0 0 0 0 0 0 0 0 127 0" result="hardAlpha"/>
<feOffset dy="4"/>
<feGaussianBlur stdDeviation="2"/>
<feComposite in2="hardAlpha" operator="out"/>
<feColorMatrix type="matrix" values="0 0 0 0 1 0 0 0 0 0.906397 0 0 0 0 0.628934 0 0 0 1 0"/>
<feBlend mode="normal" in2="BackgroundImageFix" result="effect1_dropShadow_55_1251"/>
<feBlend mode="normal" in="SourceGraphic" in2="effect1_dropShadow_55_1251" result="shape"/>
</filter>
<filter id="filter9_d_55_1251" x="410.234" y="33.5" width="31.8442" height="39.8229" filterUnits="userSpaceOnUse" color-interpolation-filters="sRGB">
<feFlood flood-opacity="0" result="BackgroundImageFix"/>
<feColorMatrix in="SourceAlpha" type="matrix" values="0 0 0 0 0 0 0 0 0 0 0 0 0 0 0 0 0 0 127 0" result="hardAlpha"/>
<feOffset dy="4"/>
<feGaussianBlur stdDeviation="2"/>
<feComposite in2="hardAlpha" operator="out"/>
<feColorMatrix type="matrix" values="0 0 0 0 1 0 0 0 0 0.906397 0 0 0 0 0.628934 0 0 0 1 0"/>
<feBlend mode="normal" in2="BackgroundImageFix" result="effect1_dropShadow_55_1251"/>
<feBlend mode="normal" in="SourceGraphic" in2="effect1_dropShadow_55_1251" result="shape"/>
</filter>
<linearGradient id="paint0_linear_55_1251" x1="178" y1="44" x2="178" y2="75" gradientUnits="userSpaceOnUse">
<stop stop-color="#FFE7A0"/>
<stop offset="0.6875" stop-color="#F5B700"/>
</linearGradient>
<linearGradient id="paint1_linear_55_1251" x1="73" y1="3" x2="73" y2="34" gradientUnits="userSpaceOnUse">
<stop stop-color="#FFE7A0"/>
<stop offset="0.6875" stop-color="#F5B700"/>
</linearGradient>
<linearGradient id="paint2_linear_55_1251" x1="313" y1="83" x2="313" y2="114" gradientUnits="userSpaceOnUse">
<stop stop-color="#FFE7A0"/>
<stop offset="0.6875" stop-color="#F5B700"/>
</linearGradient>
<linearGradient id="paint3_linear_55_1251" x1="426" y1="34" x2="426" y2="65" gradientUnits="userSpaceOnUse">
<stop stop-color="#FFE7A0"/>
<stop offset="0.6875" stop-color="#F5B700"/>
</linearGradient>
</defs>
</svg>
