<svg width="422" height="135" viewBox="0 0 422 135" fill="none" xmlns="http://www.w3.org/2000/svg">
<path fill-rule="evenodd" clip-rule="evenodd" d="M70.736 125.66C53.1239 110.62 115.176 85.4779 115.176 85.4779C118.807 85.4779 126.067 85.4779 133.327 77.6212C140.588 70.887 147.243 56.2961 154.504 56.2961C161.764 56.2961 169.024 70.887 176.285 70.887C183.545 70.887 190.805 56.2961 198.066 46.1947C205.326 37.2157 211.982 32.7262 219.242 39.4604C226.502 46.1947 233.763 66.3975 241.023 75.3765C248.284 85.4778 255.544 85.4779 262.804 73.1317C270.065 60.7856 276.72 37.2157 283.98 20.3801C291.241 3.54442 298.501 -5.43459 305.762 3.54442C313.022 13.6458 320.282 41.7052 327.543 49.5618C334.803 56.2961 341.458 41.7052 348.719 39.4604C355.979 37.2157 366.87 67.8881 370.5 73.5C370.5 73.5 391.317 80.7466 398.5 91C411.143 109.047 431.447 128.128 415.5 128.128C398.5 128.128 370.5 128.128 370.5 128.128H366.87C363.24 128.128 355.979 128.128 348.719 128.128C341.458 128.128 334.803 128.128 327.543 128.128C320.282 128.128 313.022 128.128 305.762 128.128C298.501 128.128 291.241 128.128 283.98 128.128C276.72 128.128 270.065 128.128 262.804 128.128C255.544 128.128 248.284 128.128 241.023 128.128C233.763 128.128 226.502 128.128 219.242 128.128C211.982 128.128 205.326 128.128 198.066 128.128C190.805 128.128 183.545 128.128 176.285 128.128C169.024 128.128 161.764 128.128 154.504 128.128C147.243 128.128 140.588 128.128 133.327 128.128C126.067 128.128 118.807 128.128 115.176 128.128C115.176 128.128 108.66 128.946 106 128.128C91.9459 123.808 82.0607 135.331 70.736 125.66Z" fill="white" fill-opacity="0.5"/>
<g filter="url(#filter0_d_91_4258)">
<path d="M72.5 122.277V119.377H87.5V122.277H72.5Z" fill="#C5EFFA" stroke="#C5EFFA" stroke-width="0.1"/>
<path d="M39 122.277V119.377H72.5V122.277H39Z" fill="#8FD3E4" stroke="#8FD3E4" stroke-width="0.1"/>
<path d="M29.5 128.077V122.277H70.5L68.5 128.077H29.5Z" fill="#8FD3E4" stroke="#8FD3E4" stroke-width="0.1"/>
<path d="M96.5 128.077V122.277H132.5V128.077H96.5Z" fill="#8FD3E4" stroke="#8FD3E4" stroke-width="0.1"/>
<path d="M67.5 128.077V122.277H96.5L101 128.077H67.5Z" fill="#BAF7FF" stroke="#8FD3E4" stroke-width="0.1"/>
<path d="M87.5 122.277V119.377H123.5V122.277H87.5Z" fill="#8FD3E4" stroke="#8FD3E4" stroke-width="0.1"/>
<path d="M91.5 119.377H39.5V93.7618H85.5L91 99.0782L91.5 99.1173V119.377Z" fill="white"/>
<path d="M39.5 91.8286V93.7618M39.5 93.7618V119.377H91.5V99.1173L91 99.0782L85.5 93.7618H39.5Z" stroke="#8FD3E4" stroke-opacity="0.13" stroke-width="0.1"/>
<path d="M50.5 118.894V100.528H60.5V118.894H50.5Z" fill="#6F631D" stroke="#878264"/>
<path d="M85.5 93.7617L91 99.0781H91.5V89.4119L39.5 88.4453V91.8285V93.7617H85.5Z" fill="#8FD3E4" fill-opacity="0.8" stroke="#8FD3E4" stroke-opacity="0.13" stroke-width="0.1"/>
<path d="M91.5 119.495V89.4122L103.5 71.5298L120 91.8287H120.221V119.495H91.5Z" fill="#8FD3E4" stroke="#8FD3E4" stroke-width="0.1"/>
<path d="M127 91.8286L106 68.1465L103.5 71.5296L120 91.8286H127Z" fill="#038699" stroke="#00A2B7" stroke-width="0.1"/>
<path d="M34 91.3454L53 68.6299H105L89 92.312L34 91.3454Z" fill="#03A2B0" stroke="#00A2B7"/>
<path d="M73.5 100.528H69.5V105.361H73.5V100.528Z" fill="#039CB0" stroke="#038699"/>
<path d="M73.5 106.811H69.5V111.644H73.5V106.811Z" fill="#039CB0" stroke="#038699"/>
<path d="M79.5 100.528H75.5V105.361H79.5V100.528Z" fill="#039CB0" stroke="#038699"/>
<path d="M79.5 106.811H75.5V111.644H79.5V106.811Z" fill="#039CB0" stroke="#038699"/>
</g>
<path d="M18.5174 110.186L22.3622 108.328C23.1075 107.968 23.9329 107.797 24.7598 107.833L33.707 108.226C34.2302 108.249 34.7432 108.379 35.2147 108.607L35.9029 108.939C37.7552 109.834 38.3121 112.209 37.0509 113.834C36.6904 114.299 36.2102 114.656 35.6618 114.868L33.5246 115.695C32.2331 116.194 31.4993 117.115 32.2448 118.282C32.6478 118.913 33.2152 119.743 34 120.827C37.407 124.486 20.1837 126.125 13.5241 126.973C12.8591 127.058 12.1909 126.907 11.6306 126.539L10.4571 125.767C8.19148 124.278 9.25448 119.793 11.9301 119.354C13.8558 119.039 14.9798 115.536 15.7139 113.728C15.7734 113.581 15.8343 113.435 15.8945 113.292C16.3996 112.09 17.3436 110.753 18.5174 110.186Z" fill="#017A8B" fill-opacity="0.18"/>
<path d="M25 120.344C24.296 120.344 23.5 119.86 23.5 119.86V96.1782H26.5V119.86C26.5 119.86 25.704 120.344 25 120.344Z" fill="#346C5F" stroke="#346C5F"/>
<g filter="url(#filter1_i_91_4258)">
<path d="M15.2535 82.6657L15.3416 83.1767C15.4445 83.7737 15.7348 84.3225 16.1704 84.7436C16.7026 85.258 17.4137 85.5455 18.1538 85.5455H18.5L16.5 86.5121L15 87.4787C14.3333 87.962 12.9 89.0253 12.5 89.412C12.2783 89.6263 12.1488 90.0484 12.0773 90.4645C11.9798 91.0326 12.1753 91.5993 12.5025 92.0738L12.8204 92.5347C12.9374 92.7044 13.1028 92.8349 13.2951 92.9092L13.505 92.9904C14.2626 93.2833 14.3055 94.339 13.5742 94.6925C13.5248 94.7164 13.4777 94.7445 13.4333 94.7767L11.9774 95.8322C11.6667 96.0574 11.4329 96.3729 11.3078 96.7357C11.1142 97.2969 11.199 97.9167 11.536 98.4054L11.8189 98.8155C11.9376 98.9876 12.099 99.126 12.2872 99.2169L13.6519 99.8765C14.1391 100.112 14.0899 100.821 13.5748 100.987C13.5252 101.003 13.4778 101.026 13.4339 101.054L12.3198 101.772C12.1075 101.909 11.8783 102.017 11.6379 102.095L11.4186 102.165C10.8302 102.355 10.3406 102.769 10.0566 103.318C9.7075 103.993 9.7075 104.796 10.0566 105.471L10.1599 105.67C10.3828 106.101 10.7145 106.466 11.1222 106.729L12 107.294L13.5 108.261L14.4692 108.729C15.1476 109.057 15.8914 109.228 16.6449 109.228H19.5L23 109.711H26L29.5 109.228C31.0071 109.019 32.0024 108.802 32.6262 108.62C33.2292 108.445 33.7979 108.138 34.378 107.897L36.2048 107.14C36.7302 106.923 37.21 106.608 37.6189 106.213L38.305 105.55C38.7492 105.12 39 104.529 39 103.911C39 103.293 38.7492 102.702 38.305 102.273L38 101.978L37.0175 101.028C36.6856 100.707 36.2419 100.528 35.7802 100.528H34.6787C34.3039 100.528 34 100.224 34 99.8493C34 99.6653 34.0747 99.4892 34.207 99.3613L35.0819 98.5157C35.3588 98.248 35.5902 97.937 35.7672 97.595L36.3328 96.5015C36.4441 96.2863 36.5395 96.0636 36.6185 95.8346L37 94.7284C37.4 93.5684 36.1667 92.9562 35.5 92.7951L34.1985 92.3758C33.5199 92.1571 33.4007 91.2481 34 90.8619C34.7248 90.3948 35.1212 89.9043 35.3216 89.518C35.5115 89.1518 35.4477 88.7266 35.3445 88.3273L35.2743 88.0561C35.0949 87.3625 34.7274 86.7319 34.2123 86.234L33.7523 85.7894C33.5867 85.6293 33.3837 85.5134 33.1618 85.4521L32.5459 85.282C31.5985 85.0204 31.4346 83.7469 32.2847 83.2538C32.4265 83.1716 32.5482 83.059 32.6413 82.9241L33.1988 82.1158C33.399 81.8254 33.5692 81.5118 33.7041 81.1859C34.2107 79.9617 34.2155 78.5749 33.7089 77.3507L33.6563 77.2237C33.5523 76.9723 33.4279 76.7298 33.2844 76.4986L32.759 75.6522C32.2632 74.8535 31.5506 74.2122 30.7043 73.8032C30.2376 73.5777 29.7385 73.4267 29.2252 73.3558L27.2409 73.0818C26.7497 73.014 26.2512 73.0196 25.7616 73.0984L23.8758 73.4023C23.6256 73.4426 23.3789 73.5018 23.1377 73.5795L21.0108 74.2648C20.6713 74.3742 20.3444 74.5197 20.0357 74.6987L19.0808 75.2525C18.3712 75.6641 17.7737 76.2439 17.3411 76.9408L16.5 78.2959L15.6853 79.8709C15.2406 80.7305 15.089 81.7119 15.2535 82.6657Z" fill="#67AD15"/>
</g>
<path d="M19.5 85.5455H18.5M18.5 85.5455H18.1538C17.4137 85.5455 16.7026 85.258 16.1704 84.7436C15.7348 84.3225 15.4445 83.7737 15.3416 83.1767L15.2535 82.6657C15.089 81.7119 15.2406 80.7305 15.6853 79.8709L16.5 78.2959L17.3411 76.9408C17.7737 76.2439 18.3712 75.6641 19.0808 75.2525L20.0357 74.6987C20.3444 74.5197 20.6713 74.3742 21.0108 74.2648L23.1377 73.5795C23.3789 73.5018 23.6256 73.4426 23.8758 73.4023L25.7616 73.0984C26.2512 73.0196 26.7497 73.014 27.2408 73.0818L29.2252 73.3558C29.7385 73.4267 30.2376 73.5777 30.7043 73.8032C31.5506 74.2122 32.2632 74.8535 32.759 75.6522L33.2844 76.4986C33.4279 76.7298 33.5523 76.9723 33.6563 77.2237L33.7089 77.3507C34.2155 78.5749 34.2107 79.9617 33.7041 81.1859C33.5692 81.5118 33.399 81.8254 33.1988 82.1158L32.6413 82.9241C32.5482 83.059 32.4265 83.1716 32.2848 83.2538C31.4346 83.7469 31.5985 85.0204 32.5459 85.282L33.1618 85.4521C33.3837 85.5134 33.5867 85.6293 33.7523 85.7894L34.2123 86.234C34.7274 86.7319 35.0949 87.3625 35.2743 88.0561L35.3445 88.3273C35.4477 88.7266 35.5115 89.1518 35.3216 89.518C35.1212 89.9043 34.7248 90.3948 34 90.8619C33.4007 91.2481 33.5199 92.1571 34.1985 92.3758L35.5 92.7951C36.1667 92.9562 37.4 93.5684 37 94.7284C36.8156 95.263 36.695 95.6128 36.6185 95.8346C36.5395 96.0636 36.4441 96.2863 36.3328 96.5015L35.7672 97.595C35.5902 97.937 35.3588 98.248 35.0819 98.5157L34.207 99.3613C34.0747 99.4892 34 99.6653 34 99.8493C34 100.224 34.3039 100.528 34.6787 100.528H35.7802C36.2419 100.528 36.6856 100.707 37.0175 101.028L38 101.978L38.305 102.273C38.7492 102.702 39 103.293 39 103.911C39 104.529 38.7492 105.12 38.305 105.55L37.6189 106.213C37.21 106.608 36.7302 106.923 36.2048 107.14L34.378 107.897C33.7979 108.138 33.2292 108.445 32.6262 108.62C32.0024 108.802 31.0071 109.019 29.5 109.228C26.7 109.614 26 109.711 26 109.711H23L19.5 109.228H16.6449C15.8914 109.228 15.1476 109.057 14.4692 108.729L13.5 108.261L12 107.294L11.1222 106.729C10.7145 106.466 10.3828 106.101 10.1599 105.67L10.0566 105.471C9.7075 104.796 9.7075 103.993 10.0566 103.318C10.3406 102.769 10.8302 102.355 11.4186 102.165L11.6379 102.095C11.8783 102.017 12.1075 101.909 12.3198 101.772L13.4339 101.054C13.4778 101.026 13.5252 101.003 13.5748 100.987C14.0899 100.821 14.1391 100.112 13.6519 99.8765L12.2872 99.2169C12.099 99.126 11.9376 98.9876 11.8189 98.8155L11.536 98.4054C11.199 97.9167 11.1142 97.2969 11.3078 96.7357C11.4329 96.3729 11.6667 96.0574 11.9774 95.8322L13.4333 94.7767C13.4777 94.7445 13.5248 94.7164 13.5742 94.6925C14.3055 94.339 14.2626 93.2833 13.505 92.9904L13.2951 92.9092C13.1028 92.8349 12.9374 92.7044 12.8204 92.5347L12.5025 92.0738C12.1753 91.5993 11.9798 91.0326 12.0773 90.4645C12.1488 90.0484 12.2783 89.6263 12.5 89.412C12.9 89.0253 14.3333 87.962 15 87.4787L16.5 86.5121L18.5 85.5455Z" stroke="#53A934"/>
<path d="M136.818 116.331L133.242 114.925C132.604 114.674 131.918 114.557 131.233 114.581L123.28 114.865C122.965 114.877 122.654 114.941 122.36 115.057L121.468 115.407C120.051 115.964 119.65 117.78 120.701 118.881C120.951 119.143 121.263 119.337 121.609 119.446L123.701 120.104C124.791 120.447 125.363 121.123 124.65 122.016C124.311 122.442 123.85 122.986 123.234 123.678C120.253 126.282 135.624 127.425 141.137 128.01C141.533 128.052 141.929 127.976 142.281 127.788L143.154 127.321C144.935 126.369 143.935 122.907 141.939 122.606C141.873 122.596 141.808 122.586 141.743 122.575C140.307 122.341 139.357 119.454 138.692 118.159C138.283 117.362 137.652 116.658 136.818 116.331Z" fill="#017A8B" fill-opacity="0.18"/>
<path d="M133.5 123.244C132.796 123.244 132 122.76 132 122.76V99.0781H135V122.76C135 122.76 134.204 123.244 133.5 123.244Z" fill="#346C5F" stroke="#346C5F"/>
<g filter="url(#filter2_i_91_4258)">
<path d="M123.753 85.5656L123.842 86.0766C123.945 86.6737 124.235 87.2225 124.67 87.6435C125.203 88.1579 125.914 88.4454 126.654 88.4454H127L125 89.412L123.5 90.3786C122.833 90.8619 121.4 91.9252 121 92.3119C120.778 92.5262 120.649 92.9483 120.577 93.3644C120.48 93.9325 120.675 94.4992 121.003 94.9737L121.32 95.4346C121.437 95.6043 121.603 95.7348 121.795 95.8091L122.005 95.8903C122.763 96.1832 122.806 97.2389 122.074 97.5924C122.025 97.6163 121.978 97.6444 121.933 97.6766L120.477 98.7321C120.167 98.9573 119.933 99.2728 119.808 99.6356C119.614 100.197 119.699 100.817 120.036 101.305L120.319 101.715C120.438 101.888 120.599 102.026 120.787 102.117L122.152 102.776C122.639 103.012 122.59 103.721 122.075 103.887C122.025 103.903 121.978 103.926 121.934 103.954L120.82 104.672C120.607 104.809 120.378 104.917 120.138 104.995L119.919 105.065C119.33 105.255 118.841 105.669 118.557 106.218C118.208 106.893 118.208 107.696 118.557 108.37L118.66 108.57C118.883 109.001 119.215 109.366 119.622 109.629L120.5 110.194L122 111.161L122.969 111.629C123.648 111.957 124.391 112.127 125.145 112.127H128L131.5 112.611H134.5L138 112.127C139.507 111.919 140.502 111.702 141.126 111.52C141.729 111.345 142.298 111.037 142.878 110.797L144.705 110.04C145.23 109.823 145.71 109.508 146.119 109.113L146.805 108.45C147.249 108.02 147.5 107.429 147.5 106.811C147.5 106.193 147.249 105.602 146.805 105.173L146.5 104.878L145.518 103.928C145.186 103.607 144.742 103.428 144.28 103.428H143.179C142.804 103.428 142.5 103.124 142.5 102.749C142.5 102.565 142.575 102.389 142.707 102.261L143.582 101.416C143.859 101.148 144.09 100.837 144.267 100.495L144.833 99.4014C144.944 99.1862 145.04 98.9635 145.119 98.7345L145.5 97.6283C145.9 96.4683 144.667 95.8561 144 95.695L142.698 95.2757C142.02 95.057 141.901 94.148 142.5 93.7618C143.225 93.2947 143.621 92.8042 143.822 92.4179C144.011 92.0517 143.948 91.6265 143.844 91.2272L143.774 90.956C143.595 90.2624 143.227 89.6318 142.712 89.1339L142.252 88.6893C142.087 88.5293 141.884 88.4133 141.662 88.352L141.046 88.1819C140.099 87.9203 139.935 86.6468 140.785 86.1537C140.926 86.0715 141.048 85.9589 141.141 85.824L141.699 85.0157C141.899 84.7253 142.069 84.4117 142.204 84.0858C142.711 82.8616 142.715 81.4748 142.209 80.2506L142.156 80.1236C142.052 79.8722 141.928 79.6297 141.784 79.3985L141.259 78.5521C140.763 77.7534 140.051 77.1121 139.204 76.7031C138.738 76.4776 138.239 76.3266 137.725 76.2557L135.741 75.9817C135.25 75.9139 134.751 75.9195 134.262 75.9983L132.376 76.3022C132.126 76.3425 131.879 76.4017 131.638 76.4794L129.511 77.1647C129.171 77.2741 128.844 77.4196 128.536 77.5986L127.581 78.1524C126.871 78.564 126.274 79.1438 125.841 79.8407L125 81.1958L124.185 82.7708C123.741 83.6304 123.589 84.6118 123.753 85.5656Z" fill="#67AD15"/>
</g>
<path d="M128 88.4454H127M127 88.4454H126.654C125.914 88.4454 125.203 88.1579 124.67 87.6435C124.235 87.2225 123.945 86.6737 123.842 86.0766L123.753 85.5656C123.589 84.6118 123.741 83.6304 124.185 82.7708L125 81.1958L125.841 79.8407C126.274 79.1438 126.871 78.564 127.581 78.1524L128.536 77.5986C128.844 77.4196 129.171 77.2741 129.511 77.1647L131.638 76.4794C131.879 76.4017 132.126 76.3425 132.376 76.3022L134.262 75.9983C134.751 75.9195 135.25 75.9139 135.741 75.9817L137.725 76.2557C138.239 76.3266 138.738 76.4776 139.204 76.7031C140.051 77.1121 140.763 77.7534 141.259 78.5521L141.784 79.3985C141.928 79.6297 142.052 79.8722 142.156 80.1236L142.209 80.2506C142.715 81.4748 142.711 82.8616 142.204 84.0858C142.069 84.4117 141.899 84.7253 141.699 85.0157L141.141 85.824C141.048 85.9589 140.926 86.0715 140.785 86.1537C139.935 86.6468 140.099 87.9203 141.046 88.1819L141.662 88.352C141.884 88.4133 142.087 88.5293 142.252 88.6893L142.712 89.1339C143.227 89.6318 143.595 90.2624 143.774 90.956L143.844 91.2272C143.948 91.6265 144.011 92.0517 143.822 92.4179C143.621 92.8042 143.225 93.2947 142.5 93.7618C141.901 94.148 142.02 95.057 142.698 95.2757L144 95.695C144.667 95.8561 145.9 96.4683 145.5 97.6283C145.316 98.1629 145.195 98.5127 145.119 98.7345C145.04 98.9635 144.944 99.1862 144.833 99.4014L144.267 100.495C144.09 100.837 143.859 101.148 143.582 101.416L142.707 102.261C142.575 102.389 142.5 102.565 142.5 102.749C142.5 103.124 142.804 103.428 143.179 103.428H144.28C144.742 103.428 145.186 103.607 145.518 103.928L146.5 104.878L146.805 105.173C147.249 105.602 147.5 106.193 147.5 106.811C147.5 107.429 147.249 108.02 146.805 108.45L146.119 109.113C145.71 109.508 145.23 109.823 144.705 110.04L142.878 110.797C142.298 111.037 141.729 111.345 141.126 111.52C140.502 111.702 139.507 111.919 138 112.127C135.2 112.514 134.5 112.611 134.5 112.611H131.5L128 112.127H125.145C124.391 112.127 123.648 111.957 122.969 111.629L122 111.161L120.5 110.194L119.622 109.629C119.215 109.366 118.883 109.001 118.66 108.57L118.557 108.37C118.208 107.696 118.208 106.893 118.557 106.218C118.841 105.669 119.33 105.255 119.919 105.065L120.138 104.995C120.378 104.917 120.607 104.809 120.82 104.672L121.934 103.954C121.978 103.926 122.025 103.903 122.075 103.887C122.59 103.721 122.639 103.012 122.152 102.776L120.787 102.117C120.599 102.026 120.438 101.888 120.319 101.715L120.036 101.305C119.699 100.817 119.614 100.197 119.808 99.6356C119.933 99.2728 120.167 98.9573 120.477 98.7321L121.933 97.6766C121.978 97.6444 122.025 97.6163 122.074 97.5924C122.806 97.2389 122.763 96.1832 122.005 95.8903L121.795 95.8091C121.603 95.7348 121.437 95.6043 121.32 95.4346L121.003 94.9737C120.675 94.4992 120.48 93.9325 120.577 93.3644C120.649 92.9483 120.778 92.5262 121 92.3119C121.4 91.9252 122.833 90.8619 123.5 90.3786L125 89.412L127 88.4454Z" stroke="#53A934"/>
<g filter="url(#filter3_d_91_4258)">
<path d="M140 100.067L146 86.5342H156L150.5 96.6836H159L145 113.116L148.5 100.067H140Z" fill="url(#paint0_linear_91_4258)" shape-rendering="crispEdges"/>
<path d="M140 100.067L146 86.5342H156L150.5 96.6836H159L145 113.116L148.5 100.067H140Z" stroke="white" stroke-opacity="0.3" shape-rendering="crispEdges"/>
</g>
<g filter="url(#filter4_d_91_4258)">
<path d="M26 69.0668L32 55.5342H42L36.5 65.6836H45L31 82.1161L34.5 69.0668H26Z" fill="url(#paint1_linear_91_4258)" shape-rendering="crispEdges"/>
<path d="M26 69.0668L32 55.5342H42L36.5 65.6836H45L31 82.1161L34.5 69.0668H26Z" stroke="white" stroke-opacity="0.3" shape-rendering="crispEdges"/>
</g>
<defs>
<filter id="filter0_d_91_4258" x="25.4502" y="66.0669" width="111.1" height="68.0596" filterUnits="userSpaceOnUse" color-interpolation-filters="sRGB">
<feFlood flood-opacity="0" result="BackgroundImageFix"/>
<feColorMatrix in="SourceAlpha" type="matrix" values="0 0 0 0 0 0 0 0 0 0 0 0 0 0 0 0 0 0 127 0" result="hardAlpha"/>
<feOffset dy="2"/>
<feGaussianBlur stdDeviation="2"/>
<feComposite in2="hardAlpha" operator="out"/>
<feColorMatrix type="matrix" values="0 0 0 0 0 0 0 0 0 0 0 0 0 0 0 0 0 0 0.15 0"/>
<feBlend mode="normal" in2="BackgroundImageFix" result="effect1_dropShadow_91_4258"/>
<feBlend mode="normal" in="SourceGraphic" in2="effect1_dropShadow_91_4258" result="shape"/>
</filter>
<filter id="filter1_i_91_4258" x="9.29492" y="72.5347" width="30.2051" height="41.6763" filterUnits="userSpaceOnUse" color-interpolation-filters="sRGB">
<feFlood flood-opacity="0" result="BackgroundImageFix"/>
<feBlend mode="normal" in="SourceGraphic" in2="BackgroundImageFix" result="shape"/>
<feColorMatrix in="SourceAlpha" type="matrix" values="0 0 0 0 0 0 0 0 0 0 0 0 0 0 0 0 0 0 127 0" result="hardAlpha"/>
<feOffset dy="4"/>
<feGaussianBlur stdDeviation="2"/>
<feComposite in2="hardAlpha" operator="arithmetic" k2="-1" k3="1"/>
<feColorMatrix type="matrix" values="0 0 0 0 0.32549 0 0 0 0 0.662745 0 0 0 0 0.203922 0 0 0 1 0"/>
<feBlend mode="normal" in2="shape" result="effect1_innerShadow_91_4258"/>
</filter>
<filter id="filter2_i_91_4258" x="117.795" y="75.4346" width="30.2051" height="41.6763" filterUnits="userSpaceOnUse" color-interpolation-filters="sRGB">
<feFlood flood-opacity="0" result="BackgroundImageFix"/>
<feBlend mode="normal" in="SourceGraphic" in2="BackgroundImageFix" result="shape"/>
<feColorMatrix in="SourceAlpha" type="matrix" values="0 0 0 0 0 0 0 0 0 0 0 0 0 0 0 0 0 0 127 0" result="hardAlpha"/>
<feOffset dy="4"/>
<feGaussianBlur stdDeviation="2"/>
<feComposite in2="hardAlpha" operator="arithmetic" k2="-1" k3="1"/>
<feColorMatrix type="matrix" values="0 0 0 0 0.32549 0 0 0 0 0.662745 0 0 0 0 0.203922 0 0 0 1 0"/>
<feBlend mode="normal" in2="shape" result="effect1_innerShadow_91_4258"/>
</filter>
<filter id="filter3_d_91_4258" x="135.231" y="86.0342" width="28.8516" height="35.4062" filterUnits="userSpaceOnUse" color-interpolation-filters="sRGB">
<feFlood flood-opacity="0" result="BackgroundImageFix"/>
<feColorMatrix in="SourceAlpha" type="matrix" values="0 0 0 0 0 0 0 0 0 0 0 0 0 0 0 0 0 0 127 0" result="hardAlpha"/>
<feOffset dy="4"/>
<feGaussianBlur stdDeviation="2"/>
<feComposite in2="hardAlpha" operator="out"/>
<feColorMatrix type="matrix" values="0 0 0 0 1 0 0 0 0 0.906397 0 0 0 0 0.628934 0 0 0 1 0"/>
<feBlend mode="normal" in2="BackgroundImageFix" result="effect1_dropShadow_91_4258"/>
<feBlend mode="normal" in="SourceGraphic" in2="effect1_dropShadow_91_4258" result="shape"/>
</filter>
<filter id="filter4_d_91_4258" x="21.2314" y="55.0342" width="28.8516" height="35.4062" filterUnits="userSpaceOnUse" color-interpolation-filters="sRGB">
<feFlood flood-opacity="0" result="BackgroundImageFix"/>
<feColorMatrix in="SourceAlpha" type="matrix" values="0 0 0 0 0 0 0 0 0 0 0 0 0 0 0 0 0 0 127 0" result="hardAlpha"/>
<feOffset dy="4"/>
<feGaussianBlur stdDeviation="2"/>
<feComposite in2="hardAlpha" operator="out"/>
<feColorMatrix type="matrix" values="0 0 0 0 1 0 0 0 0 0.906397 0 0 0 0 0.628934 0 0 0 1 0"/>
<feBlend mode="normal" in2="BackgroundImageFix" result="effect1_dropShadow_91_4258"/>
<feBlend mode="normal" in="SourceGraphic" in2="effect1_dropShadow_91_4258" result="shape"/>
</filter>
<linearGradient id="paint0_linear_91_4258" x1="149.5" y1="86.5342" x2="149.5" y2="113.116" gradientUnits="userSpaceOnUse">
<stop stop-color="#FFE7A0"/>
<stop offset="0.6875" stop-color="#F5B700"/>
</linearGradient>
<linearGradient id="paint1_linear_91_4258" x1="35.5" y1="55.5342" x2="35.5" y2="82.1161" gradientUnits="userSpaceOnUse">
<stop stop-color="#FFE7A0"/>
<stop offset="0.6875" stop-color="#F5B700"/>
</linearGradient>
</defs>
</svg>
