<svg width="414" height="135" viewBox="0 0 414 135" fill="none" xmlns="http://www.w3.org/2000/svg">
<path fill-rule="evenodd" clip-rule="evenodd" d="M80.736 130C63.1239 114.44 125.176 88.43 125.176 88.43C128.807 88.43 136.067 88.43 143.327 80.302C150.588 73.3352 157.243 58.2404 164.504 58.2404C171.764 58.2404 179.024 73.3352 186.285 73.3352C193.545 73.3352 200.805 58.2404 208.066 47.7901C215.326 38.501 221.982 33.8564 229.242 40.8233C236.502 47.7901 243.763 68.6906 251.023 77.9797C258.284 88.43 265.544 88.43 272.804 75.6575C280.065 62.8849 286.72 38.501 293.98 21.0839C301.241 3.66683 308.501 -5.62228 315.762 3.66683C323.022 14.1171 330.282 43.1456 337.543 51.2735C344.803 58.2404 351.458 43.1456 358.719 40.8233C365.979 38.501 368.483 64.8979 375 67C390.5 72 385 90.5 395 97C409.446 106.39 421.953 132.553 407 132.553C393 132.553 376.87 132.553 376.87 132.553C373.24 132.553 365.979 132.553 358.719 132.553C351.458 132.553 344.803 132.553 337.543 132.553C330.282 132.553 323.022 132.553 315.762 132.553C308.501 132.553 301.241 132.553 293.98 132.553C286.72 132.553 280.065 132.553 272.804 132.553C265.544 132.553 258.284 132.553 251.023 132.553C243.763 132.553 236.502 132.553 229.242 132.553C221.982 132.553 215.326 132.553 208.066 132.553C200.805 132.553 193.545 132.553 186.285 132.553C179.024 132.553 171.764 132.553 164.504 132.553C157.243 132.553 150.588 132.553 143.327 132.553C136.067 132.553 128.807 132.553 125.176 132.553C125.176 132.553 118.66 133.399 116 132.553C101.946 128.084 92.0607 140.005 80.736 130Z" fill="white" fill-opacity="0.5"/>
<path d="M18.5707 116.465L22.3338 114.583C23.0968 114.202 23.9474 114.02 24.7996 114.059L33.6598 114.462C34.2138 114.487 34.7563 114.628 35.2523 114.876L35.876 115.188C37.763 116.131 38.3348 118.554 37.0689 120.241C36.6968 120.738 36.1954 121.122 35.6196 121.352L33.5847 122.166C32.2587 122.697 31.503 123.668 32.2542 124.882C32.6565 125.533 33.2213 126.388 34 127.5C37.3958 131.273 20.2974 132.97 13.5906 133.85C12.8852 133.942 12.1736 133.778 11.5853 133.378L10.3825 132.56C8.08915 131.001 9.2173 126.44 11.9511 125.973C13.9001 125.64 14.9571 122.114 15.6694 120.269C15.7426 120.08 15.8185 119.892 15.8934 119.707C16.4025 118.454 17.3607 117.07 18.5707 116.465Z" fill="#017A8B" fill-opacity="0.18"/>
<path d="M25 127C24.296 127 23.5 126.5 23.5 126.5V102H26.5V126.5C26.5 126.5 25.704 127 25 127Z" fill="#346C5F" stroke="#346C5F"/>
<g filter="url(#filter0_i_91_4259)">
<path d="M15.2518 88.011L15.3479 88.5873C15.4468 89.1809 15.7288 89.7288 16.1543 90.1543C16.6958 90.6958 17.4302 91 18.196 91H18.5L16.5 92L15 93C14.3333 93.5 12.9 94.6 12.5 95C12.274 95.226 12.1438 95.6755 12.0732 96.114C11.9811 96.6869 12.1718 97.2576 12.4936 97.7404L12.8172 98.2258C12.9363 98.4044 13.1067 98.5427 13.306 98.6224L13.5047 98.7019C14.2778 99.0111 14.3226 100.089 13.5778 100.461C13.526 100.487 13.4767 100.517 13.4304 100.552L11.993 101.63C11.672 101.871 11.432 102.204 11.3051 102.585C11.1126 103.162 11.1975 103.796 11.5352 104.303L11.8156 104.723C11.9364 104.905 12.1025 105.051 12.2973 105.149L13.6601 105.83C14.1546 106.077 14.1033 106.799 13.5788 106.974C13.5265 106.991 13.4767 107.016 13.4309 107.046L12.3214 107.786C12.1081 107.928 11.8768 108.041 11.6335 108.122L11.4611 108.18C10.8457 108.385 10.337 108.826 10.0469 109.406C9.70263 110.095 9.70263 110.905 10.0469 111.594L10.1531 111.806C10.3804 112.261 10.7225 112.648 11.1454 112.93L12 113.5L13.5 114.5L14.4443 114.972C15.1385 115.319 15.9041 115.5 16.6803 115.5H19.1447C19.3813 115.5 19.6176 115.517 19.8518 115.55L22.6482 115.95C22.8824 115.983 23.1187 116 23.3553 116H25.6447C25.8813 116 26.1169 115.983 26.3511 115.95L29.5 115.5C31.0013 115.286 31.9947 115.061 32.6189 114.874C33.2282 114.691 33.8004 114.371 34.3851 114.121L36.1749 113.354C36.72 113.12 37.2154 112.785 37.6348 112.365L38.2929 111.707C38.7456 111.254 39 110.64 39 110C39 109.36 38.7456 108.746 38.2929 108.293L38 108L37.0178 107.018C36.6862 106.686 36.2366 106.5 35.7678 106.5H34.7071C34.3166 106.5 34 106.183 34 105.793C34 105.605 34.0745 105.426 34.2071 105.293L35.0778 104.422C35.3574 104.143 35.5902 103.82 35.767 103.466L36.3411 102.318C36.4469 102.106 36.5375 101.888 36.6123 101.663L37 100.5C37.4 99.3 36.1667 98.6667 35.5 98.5L34.2103 98.0701C33.5142 97.8381 33.3895 96.907 34 96.5C34.7384 96.0077 35.136 95.4902 35.3327 95.0873C35.512 94.7199 35.4499 94.2995 35.3507 93.9029L35.2658 93.5633C35.0919 92.8675 34.7321 92.2321 34.225 91.725L33.7601 91.2601C33.5895 91.0895 33.3783 90.9652 33.1463 90.8989L32.5541 90.7297C31.5846 90.4527 31.4131 89.1521 32.2778 88.6333C32.4241 88.5455 32.5491 88.4263 32.6438 88.2844L33.2112 87.4332C33.4032 87.1452 33.5648 86.838 33.6933 86.5166L33.7572 86.357C34.234 85.1649 34.234 83.8351 33.7572 82.643L33.6488 82.372C33.5498 82.1244 33.4311 81.8851 33.2939 81.6565L32.7388 80.7313C32.2563 79.9271 31.5545 79.2772 30.7157 78.8579C30.2417 78.6208 29.7325 78.4618 29.2079 78.3868L27.2659 78.1094C26.7583 78.0369 26.2426 78.0429 25.7368 78.1272L23.887 78.4355C23.6294 78.4784 23.3756 78.5415 23.1278 78.6241L21.0207 79.3264C20.6746 79.4418 20.3422 79.5947 20.0294 79.7824L19.0719 80.3569C18.3681 80.7791 17.7791 81.3681 17.3569 82.0719L16.5 83.5L15.685 85.1299C15.2398 86.0204 15.0882 87.029 15.2518 88.011Z" fill="#67AD15"/>
</g>
<path d="M19.5 91H18.5M18.5 91H18.196C17.4302 91 16.6958 90.6958 16.1543 90.1543C15.7288 89.7288 15.4468 89.1809 15.3479 88.5873L15.2518 88.011C15.0882 87.029 15.2398 86.0204 15.685 85.1299L16.5 83.5L17.3569 82.0719C17.7791 81.3681 18.3681 80.7791 19.0719 80.3569L20.0294 79.7824C20.3422 79.5947 20.6746 79.4418 21.0207 79.3264L23.1278 78.6241C23.3756 78.5415 23.6294 78.4784 23.887 78.4355L25.7368 78.1272C26.2426 78.0429 26.7583 78.0369 27.2659 78.1094L29.2079 78.3868C29.7325 78.4618 30.2417 78.6208 30.7157 78.8579C31.5545 79.2772 32.2563 79.9271 32.7388 80.7313L33.2939 81.6565C33.4311 81.8851 33.5498 82.1244 33.6488 82.372L33.7572 82.643C34.234 83.8351 34.234 85.1649 33.7572 86.357L33.6933 86.5166C33.5648 86.838 33.4032 87.1452 33.2112 87.4332L32.6438 88.2844C32.5491 88.4263 32.4241 88.5455 32.2778 88.6333C31.4131 89.1521 31.5846 90.4527 32.5541 90.7297L33.1463 90.8989C33.3783 90.9652 33.5895 91.0895 33.7601 91.2601L34.225 91.725C34.7321 92.2321 35.0919 92.8675 35.2658 93.5633L35.3507 93.9029C35.4499 94.2995 35.512 94.7199 35.3327 95.0873C35.136 95.4902 34.7384 96.0077 34 96.5C33.3895 96.907 33.5142 97.8381 34.2103 98.0701L35.5 98.5C36.1667 98.6667 37.4 99.3 37 100.5C36.8105 101.068 36.6884 101.435 36.6123 101.663C36.5375 101.888 36.4469 102.106 36.3411 102.318L35.767 103.466C35.5902 103.82 35.3574 104.143 35.0778 104.422L34.2071 105.293C34.0745 105.426 34 105.605 34 105.793C34 106.183 34.3166 106.5 34.7071 106.5H35.7678C36.2366 106.5 36.6862 106.686 37.0178 107.018L38 108L38.2929 108.293C38.7456 108.746 39 109.36 39 110C39 110.64 38.7456 111.254 38.2929 111.707L37.6348 112.365C37.2154 112.785 36.72 113.12 36.1749 113.354L34.3851 114.121C33.8004 114.371 33.2282 114.691 32.6189 114.874C31.9947 115.061 31.0013 115.286 29.5 115.5C27.7263 115.753 26.7953 115.886 26.3511 115.95C26.1169 115.983 25.8813 116 25.6447 116H23.3553C23.1187 116 22.8824 115.983 22.6482 115.95L19.8518 115.55C19.6176 115.517 19.3813 115.5 19.1447 115.5H16.6803C15.9041 115.5 15.1385 115.319 14.4443 114.972L13.5 114.5L12 113.5L11.1454 112.93C10.7225 112.648 10.3804 112.261 10.1531 111.806L10.0469 111.594C9.70263 110.905 9.70263 110.095 10.0469 109.406C10.337 108.826 10.8457 108.385 11.4611 108.18L11.6335 108.122C11.8768 108.041 12.1081 107.928 12.3214 107.786L13.4309 107.046C13.4767 107.016 13.5265 106.991 13.5788 106.974C14.1033 106.799 14.1546 106.077 13.6601 105.83L12.2973 105.149C12.1025 105.051 11.9364 104.905 11.8156 104.723L11.5352 104.303C11.1975 103.796 11.1126 103.162 11.3051 102.585C11.432 102.204 11.672 101.871 11.993 101.63L13.4304 100.552C13.4767 100.517 13.526 100.487 13.5778 100.461C14.3226 100.089 14.2778 99.0111 13.5047 98.7019L13.306 98.6224C13.1067 98.5427 12.9363 98.4044 12.8172 98.2258L12.4936 97.7404C12.1718 97.2576 11.9811 96.6869 12.0732 96.114C12.1438 95.6755 12.274 95.226 12.5 95C12.9 94.6 14.3333 93.5 15 93L16.5 92L18.5 91Z" stroke="#53A934"/>
<path d="M169.778 121.832L166.269 120.405C165.613 120.139 164.906 120.014 164.199 120.04L156.31 120.331C155.975 120.344 155.645 120.415 155.335 120.541L154.487 120.885C153.042 121.473 152.628 123.324 153.686 124.471C153.946 124.752 154.274 124.962 154.638 125.081L156.649 125.735C157.771 126.1 158.359 126.813 157.638 127.747C157.3 128.185 156.843 128.743 156.234 129.45C153.26 132.138 168.553 133.32 174.099 133.927C174.52 133.973 174.94 133.89 175.311 133.684L176.205 133.19C178.016 132.189 177.256 128.665 175.206 128.38C173.706 128.171 172.371 125.107 171.697 123.75C171.284 122.918 170.639 122.182 169.778 121.832Z" fill="#017A8B" fill-opacity="0.18"/>
<path d="M166.5 129C165.796 129 165 128.5 165 128.5V104H168V128.5C168 128.5 167.204 129 166.5 129Z" fill="#346C5F" stroke="#346C5F"/>
<g filter="url(#filter1_i_91_4259)">
<path d="M156.752 90.011L156.848 90.5873C156.947 91.1809 157.229 91.7288 157.654 92.1543C158.196 92.6958 158.93 93 159.696 93H160L158 94L156.5 95C155.833 95.5 154.4 96.6 154 97C153.774 97.226 153.644 97.6755 153.573 98.114C153.481 98.6869 153.672 99.2576 153.994 99.7404L154.317 100.226C154.436 100.404 154.607 100.543 154.806 100.622L155.005 100.702C155.778 101.011 155.823 102.089 155.078 102.461C155.026 102.487 154.977 102.517 154.93 102.552L153.493 103.63C153.172 103.871 152.932 104.204 152.805 104.585C152.613 105.162 152.698 105.796 153.035 106.303L153.316 106.723C153.436 106.905 153.602 107.051 153.797 107.149L155.16 107.83C155.655 108.077 155.603 108.799 155.079 108.974C155.027 108.991 154.977 109.016 154.931 109.046L153.821 109.786C153.608 109.928 153.377 110.041 153.134 110.122L152.961 110.18C152.346 110.385 151.837 110.826 151.547 111.406C151.203 112.095 151.203 112.905 151.547 113.594L151.653 113.806C151.88 114.261 152.222 114.648 152.645 114.93L153.5 115.5L155 116.5L155.944 116.972C156.639 117.319 157.404 117.5 158.18 117.5H160.645C160.881 117.5 161.118 117.517 161.352 117.55L164.148 117.95C164.382 117.983 164.619 118 164.855 118H167.145C167.381 118 167.617 117.983 167.851 117.95L171 117.5C172.501 117.286 173.495 117.061 174.119 116.874C174.728 116.691 175.3 116.371 175.885 116.121L177.675 115.354C178.22 115.12 178.715 114.785 179.135 114.365L179.793 113.707C180.246 113.254 180.5 112.64 180.5 112C180.5 111.36 180.246 110.746 179.793 110.293L179.5 110L178.518 109.018C178.186 108.686 177.737 108.5 177.268 108.5H176.207C175.817 108.5 175.5 108.183 175.5 107.793C175.5 107.605 175.574 107.426 175.707 107.293L176.578 106.422C176.857 106.143 177.09 105.82 177.267 105.466L177.841 104.318C177.947 104.106 178.037 103.888 178.112 103.663L178.5 102.5C178.9 101.3 177.667 100.667 177 100.5L175.71 100.07C175.014 99.8381 174.89 98.907 175.5 98.5C176.238 98.0077 176.636 97.4902 176.833 97.0873C177.012 96.7199 176.95 96.2995 176.851 95.9029L176.766 95.5633C176.592 94.8675 176.232 94.2321 175.725 93.725L175.26 93.2601C175.09 93.0895 174.878 92.9652 174.646 92.8989L174.054 92.7297C173.085 92.4527 172.913 91.1521 173.778 90.6333C173.924 90.5455 174.049 90.4263 174.144 90.2844L174.711 89.4332C174.903 89.1452 175.065 88.838 175.193 88.5166L175.257 88.357C175.734 87.1649 175.734 85.8351 175.257 84.643L175.149 84.372C175.05 84.1244 174.931 83.8851 174.794 83.6565L174.239 82.7313C173.756 81.9271 173.054 81.2772 172.216 80.8579C171.742 80.6208 171.233 80.4618 170.708 80.3868L168.766 80.1094C168.258 80.0369 167.743 80.0429 167.237 80.1272L165.387 80.4355C165.129 80.4784 164.876 80.5415 164.628 80.6241L162.521 81.3264C162.175 81.4418 161.842 81.5947 161.529 81.7824L160.572 82.3569C159.868 82.7791 159.279 83.3681 158.857 84.0719L158 85.5L157.185 87.1299C156.74 88.0204 156.588 89.029 156.752 90.011Z" fill="#67AD15"/>
</g>
<path d="M161 93H160M160 93H159.696C158.93 93 158.196 92.6958 157.654 92.1543C157.229 91.7288 156.947 91.1809 156.848 90.5873L156.752 90.011C156.588 89.029 156.74 88.0204 157.185 87.1299L158 85.5L158.857 84.0719C159.279 83.3681 159.868 82.7791 160.572 82.3569L161.529 81.7824C161.842 81.5947 162.175 81.4418 162.521 81.3264L164.628 80.6241C164.876 80.5415 165.129 80.4784 165.387 80.4355L167.237 80.1272C167.743 80.0429 168.258 80.0369 168.766 80.1094L170.708 80.3868C171.233 80.4618 171.742 80.6208 172.216 80.8579C173.054 81.2772 173.756 81.9271 174.239 82.7313L174.794 83.6565C174.931 83.8851 175.05 84.1244 175.149 84.372L175.257 84.643C175.734 85.8351 175.734 87.1649 175.257 88.357L175.193 88.5166C175.065 88.838 174.903 89.1452 174.711 89.4332L174.144 90.2844C174.049 90.4263 173.924 90.5455 173.778 90.6333C172.913 91.1521 173.085 92.4527 174.054 92.7297L174.646 92.8989C174.878 92.9652 175.09 93.0895 175.26 93.2601L175.725 93.725C176.232 94.2321 176.592 94.8675 176.766 95.5633L176.851 95.9029C176.95 96.2995 177.012 96.7199 176.833 97.0873C176.636 97.4902 176.238 98.0077 175.5 98.5C174.89 98.907 175.014 99.8381 175.71 100.07L177 100.5C177.667 100.667 178.9 101.3 178.5 102.5C178.311 103.068 178.188 103.435 178.112 103.663C178.037 103.888 177.947 104.106 177.841 104.318L177.267 105.466C177.09 105.82 176.857 106.143 176.578 106.422L175.707 107.293C175.574 107.426 175.5 107.605 175.5 107.793C175.5 108.183 175.817 108.5 176.207 108.5H177.268C177.737 108.5 178.186 108.686 178.518 109.018L179.5 110L179.793 110.293C180.246 110.746 180.5 111.36 180.5 112C180.5 112.64 180.246 113.254 179.793 113.707L179.135 114.365C178.715 114.785 178.22 115.12 177.675 115.354L175.885 116.121C175.3 116.371 174.728 116.691 174.119 116.874C173.495 117.061 172.501 117.286 171 117.5C169.226 117.753 168.295 117.886 167.851 117.95C167.617 117.983 167.381 118 167.145 118H164.855C164.619 118 164.382 117.983 164.148 117.95L161.352 117.55C161.118 117.517 160.881 117.5 160.645 117.5H158.18C157.404 117.5 156.639 117.319 155.944 116.972L155 116.5L153.5 115.5L152.645 114.93C152.222 114.648 151.88 114.261 151.653 113.806L151.547 113.594C151.203 112.905 151.203 112.095 151.547 111.406C151.837 110.826 152.346 110.385 152.961 110.18L153.134 110.122C153.377 110.041 153.608 109.928 153.821 109.786L154.931 109.046C154.977 109.016 155.027 108.991 155.079 108.974C155.603 108.799 155.655 108.077 155.16 107.83L153.797 107.149C153.602 107.051 153.436 106.905 153.316 106.723L153.035 106.303C152.698 105.796 152.613 105.162 152.805 104.585C152.932 104.204 153.172 103.871 153.493 103.63L154.93 102.552C154.977 102.517 155.026 102.487 155.078 102.461C155.823 102.089 155.778 101.011 155.005 100.702L154.806 100.622C154.607 100.543 154.436 100.404 154.317 100.226L153.994 99.7404C153.672 99.2576 153.481 98.6869 153.573 98.114C153.644 97.6755 153.774 97.226 154 97C154.4 96.6 155.833 95.5 156.5 95L158 94L160 93Z" stroke="#53A934"/>
<path d="M49.1548 105.963V75.8481H137V105.963H49.1548Z" fill="#308FAD" stroke="#2785A1" stroke-width="0.5"/>
<path d="M54.0469 101.18V81.6104H131.346V101.18H54.0469Z" fill="#8FD3E4" stroke="white" stroke-width="4"/>
<path d="M92.4248 81.7192V101.506" stroke="white" stroke-width="4"/>
<path d="M78.835 81.6104C79.0959 97.1788 79.1611 101.071 79.1611 101.071" stroke="white" stroke-width="4"/>
<path d="M66.5493 81.8276C66.5493 97.2222 66.5493 101.071 66.5493 101.071" stroke="white" stroke-width="4"/>
<path d="M118.517 81.8276C118.43 97.1352 118.481 100.962 118.517 100.962" stroke="white" stroke-width="4"/>
<path d="M147.98 121.51H38.9351L49.3721 105.963H137L147.98 121.51Z" fill="#186EA2" stroke="#186EA2"/>
<path d="M106.124 81.9365C106.037 97.2441 106.087 101.071 106.124 101.071" stroke="white" stroke-width="4"/>
<path d="M61.5483 104.332V101.397H66.7668V104.332H61.5483Z" fill="#039CB0" stroke="#039CB0"/>
<path d="M52.1982 104.224V101.289H57.4167V104.224H52.1982Z" fill="#039CB0" stroke="#039CB0"/>
<path d="M65.2446 110.639V107.377H65.8969V110.639H65.2446Z" fill="#074379"/>
<path d="M61.7661 110.639V107.377H62.4184V110.639H61.7661Z" fill="#074379"/>
<path d="M56.7646 110.421V107.159H57.417V110.421H56.7646Z" fill="#074379"/>
<path d="M52.8511 110.421V107.159H53.5034V110.421H52.8511Z" fill="#074379"/>
<path d="M64.8101 110.856V107.594H65.4624V110.856H64.8101Z" fill="#00529C" stroke="#00529C" stroke-width="0.5"/>
<path d="M56.3301 110.639V107.377H56.9824V110.639H56.3301Z" fill="#00529C" stroke="#00529C" stroke-width="0.5"/>
<path d="M61.3306 110.856V107.594H61.9829V110.856H61.3306Z" fill="#00529C" stroke="#00529C" stroke-width="0.5"/>
<path d="M52.416 110.639V107.377H53.0683V110.639H52.416Z" fill="#00529C" stroke="#00529C" stroke-width="0.5"/>
<path d="M66.1005 113.03C66.0748 112.992 66.0387 111.896 66.1005 107.812H66.7187V113.03H66.1005Z" fill="#E3A731" stroke="#E3A731"/>
<path d="M50.7109 112.813C50.6851 112.775 50.6491 111.678 50.7109 107.594H51.3291V112.813H50.7109Z" fill="#E3A731" stroke="#E3A731"/>
<path d="M66.8007 110.203C66.775 110.166 66.7389 109.069 66.8007 104.985H67.4189V110.203H66.8007Z" fill="#DBA12E"/>
<path d="M67.4189 106.616V104.441L66.7666 106.942L66.8753 107.594L67.4189 106.616Z" fill="#E3A731" stroke="#E3A731"/>
<path d="M50.6768 107.051L51.4378 104.441H67.4195L66.7672 107.051V107.812L50.6768 107.703V107.051Z" fill="#F5B700"/>
<path d="M50.6768 107.051C50.6768 107.051 50.829 106.529 51.4378 104.441H67.4195L66.7672 107.051M50.6768 107.051H66.7672M50.6768 107.051V107.703L66.7672 107.812V107.051" stroke="#F5B700"/>
<path d="M66.797 106.942H50.5679" stroke="#E3A731"/>
<path d="M83.8364 104.55V101.615H89.0549V104.55H83.8364Z" fill="#039CB0" stroke="#039CB0"/>
<path d="M74.4863 104.441V101.506H79.7048V104.441H74.4863Z" fill="#039CB0" stroke="#039CB0"/>
<path d="M87.5327 110.855V107.594H88.185V110.855H87.5327Z" fill="#074379"/>
<path d="M84.0537 110.855V107.594H84.706V110.855H84.0537Z" fill="#074379"/>
<path d="M79.0527 110.638V107.376H79.705V110.638H79.0527Z" fill="#074379"/>
<path d="M75.1387 110.638V107.376H75.791V110.638H75.1387Z" fill="#074379"/>
<path d="M87.0977 111.073V107.812H87.75V111.073H87.0977Z" fill="#00529C" stroke="#00529C" stroke-width="0.5"/>
<path d="M78.6177 110.855V107.594H79.27V110.855H78.6177Z" fill="#00529C" stroke="#00529C" stroke-width="0.5"/>
<path d="M83.6187 111.073V107.812H84.271V111.073H83.6187Z" fill="#00529C" stroke="#00529C" stroke-width="0.5"/>
<path d="M74.7041 110.855V107.594H75.3564V110.855H74.7041Z" fill="#00529C" stroke="#00529C" stroke-width="0.5"/>
<path d="M88.3886 113.247C88.3629 113.209 88.3268 112.113 88.3886 108.029H89.0068V113.247H88.3886Z" fill="#E3A731" stroke="#E3A731"/>
<path d="M72.9985 113.03C72.9727 112.992 72.9367 111.896 72.9985 107.812H73.6167V113.03H72.9985Z" fill="#E3A731" stroke="#E3A731"/>
<path d="M89.0888 110.421C89.0631 110.383 89.027 109.286 89.0888 105.202H89.707V110.421H89.0888Z" fill="#DBA12E"/>
<path d="M89.707 106.833V104.659L89.0547 107.159L89.1634 107.812L89.707 106.833Z" fill="#E3A731" stroke="#E3A731"/>
<path d="M72.9644 107.268L73.7254 104.659H89.7071L89.0548 107.268V108.029L72.9644 107.92V107.268Z" fill="#F5B700"/>
<path d="M72.9644 107.268C72.9644 107.268 73.1166 106.746 73.7254 104.659H89.7071L89.0548 107.268M72.9644 107.268H89.0548M72.9644 107.268V107.92L89.0548 108.029V107.268" stroke="#F5B700"/>
<path d="M89.0846 107.159H72.8555" stroke="#E3A731"/>
<path d="M101.449 104.115V101.18H96.2302V104.115H101.449Z" fill="#039CB0" stroke="#039CB0"/>
<path d="M110.798 104.006V101.071H105.58V104.006H110.798Z" fill="#039CB0" stroke="#039CB0"/>
<path d="M97.7524 110.421V107.159H97.1001V110.421H97.7524Z" fill="#074379"/>
<path d="M101.231 110.421V107.159H100.579V110.421H101.231Z" fill="#074379"/>
<path d="M106.232 110.203V106.941H105.58V110.203H106.232Z" fill="#074379"/>
<path d="M110.146 110.203V106.941H109.494V110.203H110.146Z" fill="#074379"/>
<path d="M98.187 110.638V107.376H97.5347V110.638H98.187Z" fill="#00529C" stroke="#00529C" stroke-width="0.5"/>
<path d="M106.667 110.421V107.159H106.015V110.421H106.667Z" fill="#00529C" stroke="#00529C" stroke-width="0.5"/>
<path d="M101.666 110.638V107.376H101.014V110.638H101.666Z" fill="#00529C" stroke="#00529C" stroke-width="0.5"/>
<path d="M110.581 110.421V107.159H109.929V110.421H110.581Z" fill="#00529C" stroke="#00529C" stroke-width="0.5"/>
<path d="M96.8965 112.812C96.9223 112.774 96.9583 111.678 96.8965 107.594H96.2784V112.812H96.8965Z" fill="#E3A731" stroke="#E3A731"/>
<path d="M112.286 112.595C112.312 112.557 112.348 111.46 112.286 107.376H111.668V112.595H112.286Z" fill="#E3A731" stroke="#E3A731"/>
<path d="M96.1963 109.986C96.2221 109.948 96.2582 108.851 96.1963 104.767H95.5782V109.986H96.1963Z" fill="#DBA12E"/>
<path d="M95.5782 106.398V104.224L96.2305 106.724L96.1217 107.376L95.5782 106.398Z" fill="#E3A731" stroke="#E3A731"/>
<path d="M112.32 106.833L111.559 104.224H95.5776L96.2299 106.833V107.594L112.32 107.485V106.833Z" fill="#F5B700"/>
<path d="M112.32 106.833C112.32 106.833 112.168 106.311 111.559 104.224H95.5776L96.2299 106.833M112.32 106.833H96.2299M112.32 106.833V107.485L96.2299 107.594V106.833" stroke="#F5B700"/>
<path d="M96.2001 106.724H112.429" stroke="#E3A731"/>
<path d="M124.715 104.115V101.18H119.496V104.115H124.715Z" fill="#039CB0" stroke="#039CB0"/>
<path d="M134.064 104.006V101.071H128.846V104.006H134.064Z" fill="#039CB0" stroke="#039CB0"/>
<path d="M121.019 110.421V107.159H120.366V110.421H121.019Z" fill="#074379"/>
<path d="M124.497 110.421V107.159H123.845V110.421H124.497Z" fill="#074379"/>
<path d="M129.499 110.203V106.941H128.846V110.203H129.499Z" fill="#074379"/>
<path d="M133.412 110.203V106.941H132.76V110.203H133.412Z" fill="#074379"/>
<path d="M121.454 110.638V107.376H120.801V110.638H121.454Z" fill="#00529C" stroke="#00529C" stroke-width="0.5"/>
<path d="M129.934 110.421V107.159H129.281V110.421H129.934Z" fill="#00529C" stroke="#00529C" stroke-width="0.5"/>
<path d="M124.933 110.638V107.376H124.28V110.638H124.933Z" fill="#00529C" stroke="#00529C" stroke-width="0.5"/>
<path d="M133.847 110.421V107.159H133.195V110.421H133.847Z" fill="#00529C" stroke="#00529C" stroke-width="0.5"/>
<path d="M120.163 112.812C120.188 112.774 120.224 111.678 120.163 107.594H119.544V112.812H120.163Z" fill="#E3A731" stroke="#E3A731"/>
<path d="M135.553 112.595C135.579 112.557 135.615 111.46 135.553 107.376H134.935V112.595H135.553Z" fill="#E3A731" stroke="#E3A731"/>
<path d="M119.462 109.986C119.488 109.948 119.524 108.851 119.462 104.767H118.844V109.986H119.462Z" fill="#DBA12E"/>
<path d="M118.844 106.398V104.224L119.496 106.724L119.387 107.376L118.844 106.398Z" fill="#E3A731" stroke="#E3A731"/>
<path d="M135.587 106.833L134.826 104.224H118.844L119.497 106.833V107.594L135.587 107.485V106.833Z" fill="#F5B700"/>
<path d="M135.587 106.833C135.587 106.833 135.435 106.311 134.826 104.224H118.844L119.497 106.833M135.587 106.833H119.497M135.587 106.833V107.485L119.497 107.594V106.833" stroke="#F5B700"/>
<path d="M119.466 106.724H135.695" stroke="#E3A731"/>
<path d="M59.4824 109.768V106.833H64.7009V109.768H59.4824Z" fill="#039CB0" stroke="#039CB0"/>
<path d="M50.1323 109.66V106.724H55.3508V109.66H50.1323Z" fill="#039CB0" stroke="#039CB0"/>
<path d="M63.1787 116.074V112.812H63.831V116.074H63.1787Z" fill="#074379"/>
<path d="M59.6997 116.074V112.812H60.352V116.074H59.6997Z" fill="#074379"/>
<path d="M54.6987 115.856V112.595H55.351V115.856H54.6987Z" fill="#074379"/>
<path d="M50.7847 115.856V112.595H51.437V115.856H50.7847Z" fill="#074379"/>
<path d="M62.7437 116.291V113.03H63.396V116.291H62.7437Z" fill="#00529C" stroke="#00529C" stroke-width="0.5"/>
<path d="M54.2637 116.074V112.812H54.916V116.074H54.2637Z" fill="#00529C" stroke="#00529C" stroke-width="0.5"/>
<path d="M59.2646 116.291V113.03H59.917V116.291H59.2646Z" fill="#00529C" stroke="#00529C" stroke-width="0.5"/>
<path d="M50.3496 116.074V112.812H51.0019V116.074H50.3496Z" fill="#00529C" stroke="#00529C" stroke-width="0.5"/>
<path d="M64.0346 118.466C64.0089 118.428 63.9728 117.331 64.0346 113.247H64.6528V118.466H64.0346Z" fill="#E3A731" stroke="#E3A731"/>
<path d="M48.6445 118.248C48.6187 118.21 48.5827 117.114 48.6445 113.03H49.2627V118.248H48.6445Z" fill="#E3A731" stroke="#E3A731"/>
<path d="M64.7348 115.639C64.7091 115.601 64.673 114.504 64.7348 110.42H65.353V115.639H64.7348Z" fill="#DBA12E"/>
<path d="M65.353 112.051V109.877L64.7007 112.377L64.8094 113.03L65.353 112.051Z" fill="#E3A731" stroke="#E3A731"/>
<path d="M48.6104 112.486L49.3714 109.877H65.3531L64.7007 112.486V113.247L48.6104 113.139V112.486Z" fill="#F5B700"/>
<path d="M48.6104 112.486C48.6104 112.486 48.7626 111.964 49.3714 109.877H65.3531L64.7007 112.486M48.6104 112.486H64.7007M48.6104 112.486V113.139L64.7007 113.247V112.486" stroke="#F5B700"/>
<path d="M64.7311 112.377H48.502" stroke="#E3A731"/>
<path d="M81.7705 109.986V107.051H86.989V109.986H81.7705Z" fill="#039CB0" stroke="#039CB0"/>
<path d="M72.4204 109.877V106.942H77.6389V109.877H72.4204Z" fill="#039CB0" stroke="#039CB0"/>
<path d="M85.4668 116.292V113.03H86.1191V116.292H85.4668Z" fill="#074379"/>
<path d="M81.9878 116.292V113.03H82.6401V116.292H81.9878Z" fill="#074379"/>
<path d="M76.9868 116.074V112.812H77.6391V116.074H76.9868Z" fill="#074379"/>
<path d="M73.0732 116.074V112.812H73.7256V116.074H73.0732Z" fill="#074379"/>
<path d="M85.0322 116.509V113.248H85.6845V116.509H85.0322Z" fill="#00529C" stroke="#00529C" stroke-width="0.5"/>
<path d="M76.5522 116.292V113.03H77.2046V116.292H76.5522Z" fill="#00529C" stroke="#00529C" stroke-width="0.5"/>
<path d="M81.5532 116.509V113.248H82.2055V116.509H81.5532Z" fill="#00529C" stroke="#00529C" stroke-width="0.5"/>
<path d="M72.6382 116.292V113.03H73.2905V116.292H72.6382Z" fill="#00529C" stroke="#00529C" stroke-width="0.5"/>
<path d="M86.3227 118.683C86.2969 118.646 86.2609 117.549 86.3227 113.465H86.9409V118.683H86.3227Z" fill="#E3A731" stroke="#E3A731"/>
<path d="M70.9326 118.466C70.9068 118.428 70.8708 117.332 70.9326 113.248H71.5508V118.466H70.9326Z" fill="#E3A731" stroke="#E3A731"/>
<path d="M87.0234 115.857C86.9976 115.819 86.9616 114.722 87.0234 110.638H87.6416V115.857H87.0234Z" fill="#DBA12E"/>
<path d="M87.6416 112.269V110.095L86.9893 112.595L87.098 113.248L87.6416 112.269Z" fill="#E3A731" stroke="#E3A731"/>
<path d="M70.8984 112.704L71.6595 110.095H87.6411L86.9888 112.704V113.465L70.8984 113.356V112.704Z" fill="#F5B700"/>
<path d="M70.8984 112.704C70.8984 112.704 71.0506 112.182 71.6595 110.095H87.6411L86.9888 112.704M70.8984 112.704H86.9888M70.8984 112.704V113.356L86.9888 113.465V112.704" stroke="#F5B700"/>
<path d="M87.0192 112.595H70.79" stroke="#E3A731"/>
<path d="M102.101 109.768V106.833H96.8826V109.768H102.101Z" fill="#039CB0" stroke="#039CB0"/>
<path d="M111.451 109.66V106.724H106.232V109.66H111.451Z" fill="#039CB0" stroke="#039CB0"/>
<path d="M98.4048 116.074V112.812H97.7525V116.074H98.4048Z" fill="#074379"/>
<path d="M101.884 116.074V112.812H101.231V116.074H101.884Z" fill="#074379"/>
<path d="M106.885 115.856V112.595H106.232V115.856H106.885Z" fill="#074379"/>
<path d="M110.798 115.856V112.595H110.146V115.856H110.798Z" fill="#074379"/>
<path d="M98.8394 116.291V113.03H98.187V116.291H98.8394Z" fill="#00529C" stroke="#00529C" stroke-width="0.5"/>
<path d="M107.319 116.074V112.812H106.667V116.074H107.319Z" fill="#00529C" stroke="#00529C" stroke-width="0.5"/>
<path d="M102.318 116.291V113.03H101.666V116.291H102.318Z" fill="#00529C" stroke="#00529C" stroke-width="0.5"/>
<path d="M111.233 116.074V112.812H110.581V116.074H111.233Z" fill="#00529C" stroke="#00529C" stroke-width="0.5"/>
<path d="M97.5489 118.466C97.5746 118.428 97.6107 117.331 97.5489 113.247H96.9307V118.466H97.5489Z" fill="#E3A731" stroke="#E3A731"/>
<path d="M112.939 118.248C112.964 118.21 113 117.114 112.939 113.03H112.32V118.248H112.939Z" fill="#E3A731" stroke="#E3A731"/>
<path d="M96.8482 115.639C96.8739 115.601 96.91 114.504 96.8482 110.42H96.23V115.639H96.8482Z" fill="#DBA12E"/>
<path d="M96.23 112.051V109.877L96.8823 112.377L96.7736 113.03L96.23 112.051Z" fill="#E3A731" stroke="#E3A731"/>
<path d="M112.973 112.486L112.212 109.877H96.2299L96.8823 112.486V113.247L112.973 113.139V112.486Z" fill="#F5B700"/>
<path d="M112.973 112.486C112.973 112.486 112.82 111.964 112.212 109.877H96.2299L96.8823 112.486M112.973 112.486H96.8823M112.973 112.486V113.139L96.8823 113.247V112.486" stroke="#F5B700"/>
<path d="M96.8524 112.377H113.082" stroke="#E3A731"/>
<path d="M126.454 109.768V106.833H121.236V109.768H126.454Z" fill="#039CB0" stroke="#039CB0"/>
<path d="M135.804 109.66V106.724H130.586V109.66H135.804Z" fill="#039CB0" stroke="#039CB0"/>
<path d="M122.758 116.074V112.812H122.105V116.074H122.758Z" fill="#074379"/>
<path d="M126.237 116.074V112.812H125.585V116.074H126.237Z" fill="#074379"/>
<path d="M131.238 115.856V112.595H130.585V115.856H131.238Z" fill="#074379"/>
<path d="M135.152 115.856V112.595H134.5V115.856H135.152Z" fill="#074379"/>
<path d="M123.193 116.291V113.03H122.541V116.291H123.193Z" fill="#00529C" stroke="#00529C" stroke-width="0.5"/>
<path d="M131.673 116.074V112.812H131.021V116.074H131.673Z" fill="#00529C" stroke="#00529C" stroke-width="0.5"/>
<path d="M126.672 116.291V113.03H126.02V116.291H126.672Z" fill="#00529C" stroke="#00529C" stroke-width="0.5"/>
<path d="M135.587 116.074V112.812H134.935V116.074H135.587Z" fill="#00529C" stroke="#00529C" stroke-width="0.5"/>
<path d="M121.902 118.466C121.928 118.428 121.964 117.331 121.902 113.247H121.284V118.466H121.902Z" fill="#E3A731" stroke="#E3A731"/>
<path d="M137.292 118.248C137.318 118.21 137.354 117.114 137.292 113.03H136.674V118.248H137.292Z" fill="#E3A731" stroke="#E3A731"/>
<path d="M121.202 115.639C121.227 115.601 121.264 114.504 121.202 110.42H120.584V115.639H121.202Z" fill="#DBA12E"/>
<path d="M120.584 112.051V109.877L121.236 112.377L121.127 113.03L120.584 112.051Z" fill="#E3A731" stroke="#E3A731"/>
<path d="M137.326 112.486L136.565 109.877H120.583L121.236 112.486V113.247L137.326 113.139V112.486Z" fill="#F5B700"/>
<path d="M137.326 112.486C137.326 112.486 137.174 111.964 136.565 109.877H120.583L121.236 112.486M137.326 112.486H121.236M137.326 112.486V113.139L121.236 113.247V112.486" stroke="#F5B700"/>
<path d="M121.205 112.377H137.435" stroke="#E3A731"/>
<path d="M38.9353 121.292H36.2173V89.0031L47.5241 74H139.065L150.698 89.3293V121.184H147.763V89.3293L137.652 75.7395H49.0461L38.9353 89.0031V121.292Z" fill="#186EA2" stroke="#186EA2"/>
<path d="M49.1546 75.7397L38.9351 89.1121V121.293L49.1546 105.963V75.7397Z" fill="#308FAD" stroke="#2785A1"/>
<path d="M48.7194 82.6978L41.8701 92.265V113.9L48.7194 103.789V82.6978Z" fill="#8FD3E4" fill-opacity="0.8" stroke="white" stroke-width="3"/>
<path d="M45.1323 87.8076L45.7846 108.029" stroke="white" stroke-width="3" stroke-linecap="round"/>
<path d="M41.6528 110.856L48.1266 83.774C48.1555 83.6528 48.2638 83.5674 48.3884 83.5674C48.5592 83.5674 48.6868 83.7244 48.6519 83.8916L42.5226 113.247C42.2112 113.247 41.9476 113.017 41.9055 112.709L41.6528 110.856Z" fill="white" fill-opacity="0.2"/>
<path d="M53.938 95.8525L76.6602 81.9365H79.0521L53.938 100.745V95.8525Z" fill="white" fill-opacity="0.2"/>
<path d="M106.015 95.9329L129.229 81.9365H131.672L106.015 100.854V95.9329Z" fill="white" fill-opacity="0.2"/>
<path d="M137.108 105.963V75.9569V75.8481H137.652L147.763 89.4379V121.292L137.108 105.963Z" fill="#308FAD" stroke="#308FAD"/>
<path d="M138.847 81.5015L145.697 91.0687V112.704L138.847 102.593V81.5015Z" fill="#8FD3E4" fill-opacity="0.8" stroke="white" stroke-width="3"/>
<path d="M142.435 86.6113L141.783 106.833" stroke="white" stroke-width="3" stroke-linecap="round"/>
<path d="M145.915 109.66L139.441 82.5782C139.412 82.457 139.304 82.3716 139.179 82.3716C139.008 82.3716 138.881 82.5286 138.916 82.6958L145.045 112.052C145.356 112.052 145.62 111.822 145.662 111.513L145.915 109.66Z" fill="white" fill-opacity="0.2"/>
<path d="M36.0542 125.424V121.48L150.861 121.292V125.424H36.0542Z" fill="#074379" stroke="#074379"/>
<path d="M150.807 129.555V125.612L36 125.424V129.555H150.807Z" fill="#E3A731" stroke="#E3A731"/>
<g filter="url(#filter2_d_91_4259)">
<path d="M142 107L148 93H158L152.5 103.5H161L147 120.5L150.5 107H142Z" fill="url(#paint0_linear_91_4259)" shape-rendering="crispEdges"/>
<path d="M142 107L148 93H158L152.5 103.5H161L147 120.5L150.5 107H142Z" stroke="white" stroke-opacity="0.3" shape-rendering="crispEdges"/>
</g>
<g filter="url(#filter3_d_91_4259)">
<path d="M30 53L36 39H46L40.5 49.5H49L35 66.5L38.5 53H30Z" fill="url(#paint1_linear_91_4259)" shape-rendering="crispEdges"/>
<path d="M30 53L36 39H46L40.5 49.5H49L35 66.5L38.5 53H30Z" stroke="white" stroke-opacity="0.3" shape-rendering="crispEdges"/>
</g>
<defs>
<filter id="filter0_i_91_4259" x="9.28857" y="77.5591" width="30.2114" height="42.9409" filterUnits="userSpaceOnUse" color-interpolation-filters="sRGB">
<feFlood flood-opacity="0" result="BackgroundImageFix"/>
<feBlend mode="normal" in="SourceGraphic" in2="BackgroundImageFix" result="shape"/>
<feColorMatrix in="SourceAlpha" type="matrix" values="0 0 0 0 0 0 0 0 0 0 0 0 0 0 0 0 0 0 127 0" result="hardAlpha"/>
<feOffset dy="4"/>
<feGaussianBlur stdDeviation="2"/>
<feComposite in2="hardAlpha" operator="arithmetic" k2="-1" k3="1"/>
<feColorMatrix type="matrix" values="0 0 0 0 0.32549 0 0 0 0 0.662745 0 0 0 0 0.203922 0 0 0 1 0"/>
<feBlend mode="normal" in2="shape" result="effect1_innerShadow_91_4259"/>
</filter>
<filter id="filter1_i_91_4259" x="150.789" y="79.5591" width="30.2114" height="42.9409" filterUnits="userSpaceOnUse" color-interpolation-filters="sRGB">
<feFlood flood-opacity="0" result="BackgroundImageFix"/>
<feBlend mode="normal" in="SourceGraphic" in2="BackgroundImageFix" result="shape"/>
<feColorMatrix in="SourceAlpha" type="matrix" values="0 0 0 0 0 0 0 0 0 0 0 0 0 0 0 0 0 0 127 0" result="hardAlpha"/>
<feOffset dy="4"/>
<feGaussianBlur stdDeviation="2"/>
<feComposite in2="hardAlpha" operator="arithmetic" k2="-1" k3="1"/>
<feColorMatrix type="matrix" values="0 0 0 0 0.32549 0 0 0 0 0.662745 0 0 0 0 0.203922 0 0 0 1 0"/>
<feBlend mode="normal" in2="shape" result="effect1_innerShadow_91_4259"/>
</filter>
<filter id="filter2_d_91_4259" x="137.242" y="92.5" width="28.8179" height="36.3179" filterUnits="userSpaceOnUse" color-interpolation-filters="sRGB">
<feFlood flood-opacity="0" result="BackgroundImageFix"/>
<feColorMatrix in="SourceAlpha" type="matrix" values="0 0 0 0 0 0 0 0 0 0 0 0 0 0 0 0 0 0 127 0" result="hardAlpha"/>
<feOffset dy="4"/>
<feGaussianBlur stdDeviation="2"/>
<feComposite in2="hardAlpha" operator="out"/>
<feColorMatrix type="matrix" values="0 0 0 0 1 0 0 0 0 0.906397 0 0 0 0 0.628934 0 0 0 1 0"/>
<feBlend mode="normal" in2="BackgroundImageFix" result="effect1_dropShadow_91_4259"/>
<feBlend mode="normal" in="SourceGraphic" in2="effect1_dropShadow_91_4259" result="shape"/>
</filter>
<filter id="filter3_d_91_4259" x="25.2417" y="38.5" width="28.8179" height="36.3179" filterUnits="userSpaceOnUse" color-interpolation-filters="sRGB">
<feFlood flood-opacity="0" result="BackgroundImageFix"/>
<feColorMatrix in="SourceAlpha" type="matrix" values="0 0 0 0 0 0 0 0 0 0 0 0 0 0 0 0 0 0 127 0" result="hardAlpha"/>
<feOffset dy="4"/>
<feGaussianBlur stdDeviation="2"/>
<feComposite in2="hardAlpha" operator="out"/>
<feColorMatrix type="matrix" values="0 0 0 0 1 0 0 0 0 0.906397 0 0 0 0 0.628934 0 0 0 1 0"/>
<feBlend mode="normal" in2="BackgroundImageFix" result="effect1_dropShadow_91_4259"/>
<feBlend mode="normal" in="SourceGraphic" in2="effect1_dropShadow_91_4259" result="shape"/>
</filter>
<linearGradient id="paint0_linear_91_4259" x1="151.5" y1="93" x2="151.5" y2="120.5" gradientUnits="userSpaceOnUse">
<stop stop-color="#FFE7A0"/>
<stop offset="0.6875" stop-color="#F5B700"/>
</linearGradient>
<linearGradient id="paint1_linear_91_4259" x1="39.5" y1="39" x2="39.5" y2="66.5" gradientUnits="userSpaceOnUse">
<stop stop-color="#FFE7A0"/>
<stop offset="0.6875" stop-color="#F5B700"/>
</linearGradient>
</defs>
</svg>
