<svg width="501" height="262" viewBox="0 0 501 262" fill="none" xmlns="http://www.w3.org/2000/svg">
<path d="M56.7046 27H484.705V169C484.705 185.569 471.273 199 454.705 199H86.7046C70.136 199 56.7046 185.569 56.7046 169V27Z" fill="#CDEBEF"/>
<path d="M56.2935 150.076L57.7319 148.8C68.956 138.843 76.7771 125.618 80.0958 110.986C82.2273 104.428 89.9487 89.0396 103.782 79.9534C121.073 68.5957 131.811 62.0584 132.083 48.1463C132.355 34.2342 123.301 24.2548 112.832 33.4527C102.362 42.6507 103.544 57.6717 87.0734 67.2005C70.6031 76.7294 56.2933 31.3235 56.2933 66.0764L56.2933 106.076C56.2933 124.772 56.2935 111.577 56.2933 130.076C56.2932 139.892 56.2933 143.033 56.2934 143.763C56.2934 144.079 56.2933 144.507 56.2933 145.076C56.2924 152.997 56.2935 149.576 56.2935 150.076Z" fill="white" fill-opacity="0.5"/>
<path d="M80.0961 174.986L75.3153 196.013C75.2506 196.298 74.9973 196.5 74.705 196.5C73.7047 196 69.5653 193.86 68.705 193C67.705 192 62.205 188.5 59.2048 181C57.1286 175.81 56.7048 168 56.7048 157.5C56.7048 140 56.2936 136.576 56.2936 130.076C56.2936 95.3235 70.6034 140.729 87.0737 131.201C103.544 121.672 102.363 106.651 112.832 97.4527C123.302 88.2548 132.355 98.2342 132.083 112.146C131.811 126.058 121.073 132.596 103.782 143.953C89.949 153.04 82.2276 168.428 80.0961 174.986Z" fill="white" fill-opacity="0.5"/>
<path d="M342.92 96.5454L336.725 130.777C336.352 132.835 335.792 134.899 335.964 136.983C336.156 139.307 336.96 142.704 339.101 147.013C343.507 155.879 344.112 159.577 361.719 142.63C379.326 125.682 363.079 126.997 380.57 120.393C398.061 113.79 385.202 130.271 415.274 112.85C445.345 95.4295 417.527 98.2568 426.081 81.2595C434.635 64.2623 449.699 64.5668 458.272 53.5795C466.844 42.5922 456.355 34.1355 442.482 35.2169C428.609 36.2982 422.708 47.3988 412.377 65.3222C407.107 74.464 399.136 81.2748 392.385 85.6615C386.696 89.358 379.47 88.3147 374.027 84.2646C362.313 75.5482 345.521 82.1779 342.92 96.5454Z" fill="white" fill-opacity="0.5"/>
<path d="M351.839 197.747L350.705 199C362.671 199.336 369.705 199 380.705 199L414.705 199L433.205 199C471.025 199 430.4 182.322 439.185 163.936C447.971 145.549 464.368 146.343 473.358 134.551C482.349 122.759 470.679 113.161 455.621 113.924C440.563 114.686 434.483 126.684 423.791 146.033C415.238 161.511 399.278 170.496 392.367 173.053C376.757 177.198 362.68 185.775 351.839 197.747Z" fill="white" fill-opacity="0.5"/>
<path d="M324.657 124.86C330.137 119.477 333.491 119.482 333.491 119.482C333.491 119.482 507.866 90.6758 462.928 127.548C417.99 164.42 406.851 198.22 394.944 189.77C383.038 181.32 303.148 145.984 324.657 124.86Z" fill="#039CB0" fill-opacity="0.3"/>
<g filter="url(#filter0_i_181_1758)">
<path d="M336.288 90.4293L333.595 89.04L386.79 55L449.076 95.2922L398.237 129.332L395.207 127.595L445.709 95.2922L386.79 58.1261L336.288 90.4293Z" stroke="#038699" stroke-width="3"/>
<path d="M395.489 162.991L324.978 118.997C324.915 118.958 324.915 118.866 324.978 118.827L388.421 79.6936C388.453 79.674 388.493 79.6738 388.525 79.6931L458.03 121.609C458.093 121.647 458.095 121.737 458.034 121.778L395.597 162.989C395.564 163.011 395.522 163.012 395.489 162.991Z" fill="#026B79"/>
<path d="M444.314 94.5681L386.605 59.2611C386.539 59.2203 386.453 59.2683 386.453 59.3464V87.5946C386.453 87.6293 386.471 87.6615 386.501 87.6797L444.209 123.333C444.276 123.374 444.362 123.326 444.362 123.248V94.6534C444.362 94.6185 444.344 94.5862 444.314 94.5681Z" fill="#00A2B7" stroke="#039CB0" stroke-width="1.5"/>
<path d="M335.951 117.689V90.4851C335.951 90.4503 335.969 90.4181 335.999 90.3999L386.637 59.2617C386.704 59.2207 386.79 59.2686 386.79 59.3469V85.8584C386.79 85.8928 386.772 85.9248 386.743 85.9431L336.104 117.773C336.038 117.815 335.951 117.767 335.951 117.689Z" fill="#0D6499" stroke="#0D6499" stroke-width="1.5"/>
<g filter="url(#filter1_d_181_1758)">
<path d="M368.272 94.0898V100.102C368.272 100.135 368.289 100.166 368.317 100.185L373.84 103.872C373.907 103.916 373.996 103.869 373.996 103.789V97.7771C373.996 97.7437 373.979 97.7125 373.952 97.694L368.428 94.0067C368.362 93.9623 368.272 94.0099 368.272 94.0898Z" fill="#088FA2" stroke="#017A8B"/>
<path d="M378.036 100.667V106.053C378.036 106.087 378.054 106.119 378.082 106.137L383.269 109.436C383.336 109.478 383.423 109.43 383.423 109.351V103.366C383.423 103.329 383.402 103.294 383.369 103.277L378.182 100.578C378.116 100.544 378.036 100.592 378.036 100.667Z" fill="#088FA2" stroke="#017A8B"/>
<path d="M360.529 108.392V103.82C360.529 103.74 360.619 103.691 360.685 103.736L361.496 104.293C361.523 104.312 361.539 104.343 361.539 104.376V108.391C361.539 108.446 361.494 108.491 361.439 108.491H360.629C360.574 108.491 360.529 108.447 360.529 108.392Z" fill="#C89665" stroke="#C89665"/>
<path d="M383.277 109.609L382.814 109.848C382.776 109.867 382.754 109.91 382.761 109.953L383.224 112.819C383.244 112.941 383.423 112.926 383.423 112.803V109.698C383.423 109.623 383.344 109.574 383.277 109.609Z" stroke="#017A8B" stroke-width="0.5"/>
<path d="M378.036 117.359V114.111C378.036 114.074 378.057 114.038 378.09 114.021L378.564 113.777C378.63 113.743 378.709 113.791 378.709 113.866V117.114C378.709 117.152 378.689 117.186 378.655 117.203L378.182 117.447C378.115 117.482 378.036 117.434 378.036 117.359Z" fill="#017A8B" stroke="#017A8B" stroke-width="0.5"/>
<path d="M371.976 113.885V110.637C371.976 110.6 371.996 110.565 372.03 110.547L372.503 110.303C372.57 110.269 372.649 110.317 372.649 110.392V113.641C372.649 113.678 372.628 113.712 372.595 113.729L372.121 113.974C372.055 114.008 371.976 113.96 371.976 113.885Z" fill="#017A8B" stroke="#017A8B" stroke-width="0.5"/>
<path d="M366.589 110.412V107.164C366.589 107.127 366.61 107.091 366.643 107.074L367.116 106.83C367.183 106.796 367.262 106.844 367.262 106.919V110.167C367.262 110.205 367.241 110.239 367.208 110.256L366.735 110.5C366.668 110.535 366.589 110.487 366.589 110.412Z" fill="#017A8B" stroke="#017A8B" stroke-width="0.5"/>
<path d="M362.549 108.328V105.08C362.549 105.043 362.57 105.007 362.603 104.99L363.076 104.746C363.143 104.712 363.222 104.76 363.222 104.835V108.083C363.222 108.121 363.201 108.155 363.168 108.172L362.695 108.416C362.628 108.451 362.549 108.403 362.549 108.328Z" fill="#017A8B" stroke="#017A8B" stroke-width="0.5"/>
<path d="M382.076 113.95V109.676C382.076 109.607 382.144 109.557 382.209 109.579L383.019 109.858C383.059 109.872 383.086 109.91 383.086 109.952V113.949C383.086 114.004 383.041 114.049 382.986 114.049H382.176C382.121 114.049 382.076 114.005 382.076 113.95Z" fill="#C89665" stroke="#C89665"/>
<path d="M376.353 118.812V114.538C376.353 114.469 376.42 114.419 376.485 114.442L377.295 114.72C377.335 114.734 377.363 114.772 377.363 114.815V118.812C377.363 118.867 377.318 118.912 377.263 118.912H376.453C376.397 118.912 376.353 118.867 376.353 118.812Z" fill="#C89665" stroke="#C89665"/>
<path d="M360.65 103.545L366.533 99.499C366.567 99.4757 366.61 99.4746 366.644 99.4975C371.916 103.047 382.126 109.547 383.023 109.876C383.064 109.86 383.086 109.861 383.086 109.881C383.086 109.893 383.065 109.891 383.023 109.876C382.493 110.08 378.778 113.063 377.083 114.689C377.049 114.721 376.998 114.725 376.959 114.698L360.651 103.711C360.592 103.671 360.592 103.585 360.65 103.545Z" fill="#F1BA4D"/>
<path d="M383.086 109.881C383.086 109.606 378.91 112.936 377.083 114.689C377.049 114.721 376.998 114.725 376.959 114.698L360.651 103.711C360.592 103.671 360.592 103.585 360.65 103.545L366.533 99.499C366.567 99.4757 366.61 99.4746 366.644 99.4975C372.161 103.212 383.086 110.158 383.086 109.881Z" stroke="#F1BA4D"/>
</g>
<g filter="url(#filter2_d_181_1758)">
<path d="M351.438 104.51V110.522C351.438 110.555 351.455 110.587 351.483 110.605L357.007 114.292C357.073 114.337 357.162 114.289 357.162 114.209V108.198C357.162 108.164 357.145 108.133 357.118 108.114L351.594 104.427C351.528 104.383 351.438 104.43 351.438 104.51Z" fill="#088FA2" stroke="#017A8B"/>
<path d="M361.202 111.088V116.473C361.202 116.508 361.22 116.539 361.248 116.558L366.435 119.856C366.502 119.898 366.589 119.851 366.589 119.772V113.786C366.589 113.749 366.568 113.715 366.535 113.698L361.348 110.999C361.282 110.964 361.202 111.013 361.202 111.088Z" fill="#088FA2" stroke="#017A8B"/>
<path d="M343.695 118.812V114.241C343.695 114.16 343.785 114.111 343.851 114.157L344.662 114.714C344.689 114.732 344.705 114.763 344.705 114.796V118.812C344.705 118.867 344.66 118.912 344.605 118.912H343.795C343.74 118.912 343.695 118.867 343.695 118.812Z" fill="#C89665" stroke="#C89665"/>
<path d="M366.443 120.029L365.98 120.268C365.942 120.287 365.92 120.33 365.927 120.373L366.39 123.239C366.41 123.361 366.589 123.346 366.589 123.223V120.118C366.589 120.043 366.51 119.994 366.443 120.029Z" stroke="#017A8B" stroke-width="0.5"/>
<path d="M361.202 127.779V124.531C361.202 124.494 361.223 124.459 361.256 124.441L361.73 124.197C361.796 124.163 361.876 124.211 361.876 124.286V127.535C361.876 127.572 361.855 127.606 361.821 127.623L361.348 127.868C361.281 127.902 361.202 127.854 361.202 127.779Z" fill="#017A8B" stroke="#017A8B" stroke-width="0.5"/>
<path d="M355.142 124.306V121.058C355.142 121.02 355.163 120.985 355.196 120.968L355.67 120.724C355.736 120.689 355.815 120.738 355.815 120.813V124.061C355.815 124.098 355.795 124.133 355.761 124.15L355.288 124.394C355.221 124.428 355.142 124.381 355.142 124.306Z" fill="#017A8B" stroke="#017A8B" stroke-width="0.5"/>
<path d="M349.755 120.832V117.584C349.755 117.547 349.776 117.511 349.809 117.494L350.282 117.25C350.349 117.216 350.428 117.264 350.428 117.339V120.587C350.428 120.625 350.407 120.659 350.374 120.676L349.901 120.92C349.834 120.955 349.755 120.907 349.755 120.832Z" fill="#017A8B" stroke="#017A8B" stroke-width="0.5"/>
<path d="M345.715 118.748V115.5C345.715 115.463 345.736 115.427 345.769 115.41L346.242 115.166C346.309 115.132 346.388 115.18 346.388 115.255V118.503C346.388 118.541 346.367 118.575 346.334 118.592L345.861 118.836C345.794 118.871 345.715 118.823 345.715 118.748Z" fill="#017A8B" stroke="#017A8B" stroke-width="0.5"/>
<path d="M365.243 124.37V120.096C365.243 120.027 365.31 119.977 365.375 119.999L366.185 120.278C366.226 120.292 366.253 120.33 366.253 120.372V124.369C366.253 124.424 366.208 124.469 366.153 124.469H365.343C365.287 124.469 365.243 124.425 365.243 124.37Z" fill="#C89665" stroke="#C89665"/>
<path d="M359.519 129.233V124.959C359.519 124.89 359.586 124.84 359.651 124.862L360.461 125.141C360.501 125.155 360.529 125.193 360.529 125.236V129.232C360.529 129.288 360.484 129.332 360.429 129.332H359.619C359.563 129.332 359.519 129.288 359.519 129.233Z" fill="#C89665" stroke="#C89665"/>
<path d="M343.816 113.966L349.699 109.919C349.733 109.896 349.776 109.895 349.81 109.918C355.082 113.467 365.292 119.967 366.189 120.296C366.23 120.28 366.252 120.281 366.252 120.301C366.252 120.314 366.231 120.312 366.189 120.296C365.66 120.501 361.944 123.484 360.249 125.109C360.215 125.142 360.164 125.145 360.125 125.119L343.817 114.131C343.758 114.092 343.758 114.006 343.816 113.966Z" fill="#F1BA4D"/>
<path d="M366.252 120.301C366.252 120.026 362.076 123.357 360.249 125.109C360.215 125.142 360.164 125.145 360.125 125.119L343.817 114.131C343.758 114.092 343.758 114.006 343.816 113.966L349.699 109.919C349.733 109.896 349.776 109.895 349.81 109.918C355.327 113.632 366.252 120.578 366.252 120.301Z" stroke="#F1BA4D"/>
</g>
<path d="M332.941 89.2604C333.39 89.4986 334.288 89.8697 335.769 90.06C335.872 90.0732 335.949 90.1612 335.947 90.2647L335.287 118.516C335.283 118.68 335.095 118.77 334.965 118.67L332.662 116.888C332.613 116.85 332.584 116.792 332.584 116.73V89.4596C332.584 89.2913 332.792 89.1815 332.941 89.2604Z" fill="#038699" stroke="#038699"/>
<g filter="url(#filter3_d_181_1758)">
<path d="M385.78 81.5854V87.5972C385.78 87.6306 385.796 87.6618 385.824 87.6804L391.348 91.3677C391.414 91.412 391.503 91.3644 391.503 91.2845V85.2727C391.503 85.2393 391.487 85.2081 391.459 85.1896L385.935 81.5023C385.869 81.4579 385.78 81.5055 385.78 81.5854Z" fill="#088FA2" stroke="#017A8B"/>
<path d="M395.543 88.1628V93.5486C395.543 93.5828 395.561 93.6146 395.59 93.633L400.777 96.9313C400.843 96.9737 400.93 96.9259 400.93 96.847V90.8615C400.93 90.8242 400.91 90.79 400.876 90.7728L395.69 88.0741C395.623 88.0395 395.543 88.0878 395.543 88.1628Z" fill="#088FA2" stroke="#017A8B"/>
<path d="M378.036 95.8877V91.3163C378.036 91.2358 378.126 91.1866 378.193 91.2323L379.003 91.7894C379.03 91.8081 379.046 91.8389 379.046 91.8718V95.8874C379.046 95.9426 379.001 95.9874 378.946 95.9874H378.136C378.081 95.9874 378.036 95.943 378.036 95.8877Z" fill="#C89665" stroke="#C89665"/>
<path d="M400.785 97.1044L400.322 97.3433C400.283 97.3631 400.262 97.4055 400.268 97.4482L400.731 100.315C400.751 100.436 400.93 100.422 400.93 100.299V97.1934C400.93 97.1185 400.851 97.0701 400.785 97.1044Z" stroke="#017A8B" stroke-width="0.5"/>
<path d="M395.543 104.855V101.607C395.543 101.569 395.564 101.534 395.598 101.517L396.071 101.272C396.138 101.238 396.217 101.286 396.217 101.361V104.61C396.217 104.647 396.196 104.682 396.163 104.699L395.689 104.943C395.623 104.977 395.543 104.929 395.543 104.855Z" fill="#017A8B" stroke="#017A8B" stroke-width="0.5"/>
<path d="M389.483 101.381V98.1335C389.483 98.0961 389.504 98.0607 389.538 98.0435L390.011 97.7994C390.077 97.765 390.157 97.8133 390.157 97.8882V101.137C390.157 101.174 390.136 101.208 390.103 101.226L389.629 101.47C389.563 101.504 389.483 101.456 389.483 101.381Z" fill="#017A8B" stroke="#017A8B" stroke-width="0.5"/>
<path d="M384.096 97.9078V94.6599C384.096 94.6224 384.117 94.5871 384.15 94.5699L384.624 94.3257C384.69 94.2914 384.77 94.3397 384.77 94.4146V97.663C384.77 97.7004 384.749 97.7347 384.715 97.7519L384.242 97.9961C384.175 98.0304 384.096 97.9827 384.096 97.9078Z" fill="#017A8B" stroke="#017A8B" stroke-width="0.5"/>
<path d="M380.056 95.8238V92.5759C380.056 92.5385 380.077 92.5031 380.11 92.4859L380.584 92.2417C380.65 92.2074 380.73 92.2557 380.73 92.3306V95.579C380.73 95.6165 380.709 95.6507 380.675 95.6679L380.202 95.9121C380.135 95.9464 380.056 95.8987 380.056 95.8238Z" fill="#017A8B" stroke="#017A8B" stroke-width="0.5"/>
<path d="M399.583 101.445V97.1714C399.583 97.1027 399.651 97.0525 399.716 97.0749L400.526 97.3534C400.566 97.3673 400.594 97.4053 400.594 97.448V101.445C400.594 101.5 400.549 101.545 400.494 101.545H399.683C399.628 101.545 399.583 101.501 399.583 101.445Z" fill="#C89665" stroke="#C89665"/>
<path d="M393.86 106.308V102.034C393.86 101.965 393.927 101.915 393.992 101.937L394.802 102.216C394.843 102.23 394.87 102.268 394.87 102.31V106.307C394.87 106.362 394.825 106.407 394.77 106.407H393.96C393.905 106.407 393.86 106.363 393.86 106.308Z" fill="#C89665" stroke="#C89665"/>
<path d="M378.157 91.041L384.04 86.9946C384.074 86.9714 384.117 86.9702 384.151 86.9931C389.423 90.5424 399.633 97.0424 400.53 97.3715C400.572 97.3555 400.594 97.3565 400.594 97.3765C400.594 97.3888 400.572 97.3868 400.53 97.3715C400.001 97.5758 396.285 100.559 394.59 102.184C394.556 102.217 394.505 102.22 394.466 102.194L378.158 91.2063C378.099 91.1669 378.099 91.0809 378.157 91.041Z" fill="#F1BA4D"/>
<path d="M400.594 97.3765C400.594 97.1015 396.418 100.432 394.59 102.184C394.556 102.217 394.505 102.22 394.466 102.194L378.158 91.2063C378.099 91.1669 378.099 91.0809 378.157 91.041L384.04 86.9946C384.074 86.9714 384.117 86.9702 384.151 86.9931C389.668 90.7075 400.594 97.6534 400.594 97.3765Z" stroke="#F1BA4D"/>
</g>
<g filter="url(#filter4_d_181_1758)">
<path d="M418.774 102.426V108.438C418.774 108.471 418.791 108.503 418.819 108.521L424.342 112.208C424.409 112.253 424.498 112.205 424.498 112.125V106.114C424.498 106.08 424.481 106.049 424.453 106.03L418.93 102.343C418.863 102.299 418.774 102.346 418.774 102.426Z" fill="#088FA2" stroke="#017A8B"/>
<path d="M428.538 109.004V114.389C428.538 114.424 428.556 114.455 428.584 114.474L433.771 117.772C433.838 117.814 433.925 117.767 433.925 117.688V111.702C433.925 111.665 433.904 111.631 433.871 111.614L428.684 108.915C428.618 108.88 428.538 108.929 428.538 109.004Z" fill="#088FA2" stroke="#017A8B"/>
<path d="M411.031 116.729V112.157C411.031 112.077 411.121 112.027 411.187 112.073L411.997 112.63C412.025 112.649 412.041 112.68 412.041 112.713V116.728C412.041 116.783 411.996 116.828 411.941 116.828H411.131C411.076 116.828 411.031 116.784 411.031 116.729Z" fill="#C89665" stroke="#C89665"/>
<path d="M433.779 117.945L433.316 118.184C433.278 118.204 433.256 118.246 433.263 118.289L433.726 121.156C433.746 121.277 433.925 121.263 433.925 121.14V118.034C433.925 117.959 433.846 117.911 433.779 117.945Z" stroke="#017A8B" stroke-width="0.5"/>
<path d="M428.538 125.695V122.447C428.538 122.41 428.559 122.375 428.592 122.357L429.066 122.113C429.132 122.079 429.211 122.127 429.211 122.202V125.451C429.211 125.488 429.191 125.522 429.157 125.539L428.684 125.784C428.617 125.818 428.538 125.77 428.538 125.695Z" fill="#017A8B" stroke="#017A8B" stroke-width="0.5"/>
<path d="M422.478 122.222V118.974C422.478 118.937 422.499 118.902 422.532 118.884L423.006 118.64C423.072 118.606 423.151 118.654 423.151 118.729V121.977C423.151 122.015 423.13 122.049 423.097 122.066L422.624 122.311C422.557 122.345 422.478 122.297 422.478 122.222Z" fill="#017A8B" stroke="#017A8B" stroke-width="0.5"/>
<path d="M417.091 118.749V115.501C417.091 115.463 417.112 115.428 417.145 115.411L417.618 115.167C417.685 115.132 417.764 115.181 417.764 115.255V118.504C417.764 118.541 417.743 118.576 417.71 118.593L417.237 118.837C417.17 118.871 417.091 118.824 417.091 118.749Z" fill="#017A8B" stroke="#017A8B" stroke-width="0.5"/>
<path d="M413.051 116.665V113.417C413.051 113.379 413.072 113.344 413.105 113.327L413.579 113.083C413.645 113.048 413.725 113.097 413.725 113.171V116.42C413.725 116.457 413.704 116.492 413.67 116.509L413.197 116.753C413.131 116.787 413.051 116.74 413.051 116.665Z" fill="#017A8B" stroke="#017A8B" stroke-width="0.5"/>
<path d="M432.578 122.286V118.012C432.578 117.944 432.646 117.893 432.711 117.916L433.521 118.194C433.561 118.208 433.588 118.246 433.588 118.289V122.286C433.588 122.341 433.543 122.386 433.488 122.386H432.678C432.623 122.386 432.578 122.341 432.578 122.286Z" fill="#C89665" stroke="#C89665"/>
<path d="M426.855 127.149V122.874C426.855 122.806 426.923 122.756 426.988 122.778L427.798 123.057C427.838 123.07 427.865 123.108 427.865 123.151V127.148C427.865 127.203 427.82 127.248 427.765 127.248H426.955C426.9 127.248 426.855 127.204 426.855 127.149Z" fill="#C89665" stroke="#C89665"/>
<path d="M411.152 111.882L417.035 107.835C417.069 107.812 417.112 107.811 417.146 107.834C422.418 111.383 432.628 117.883 433.525 118.212C433.566 118.196 433.588 118.197 433.588 118.217C433.588 118.23 433.567 118.228 433.525 118.212C432.995 118.417 429.28 121.4 427.585 123.025C427.551 123.058 427.5 123.061 427.461 123.035L411.153 112.047C411.094 112.008 411.094 111.922 411.152 111.882Z" fill="#F1BA4D"/>
<path d="M433.588 118.217C433.588 117.942 429.412 121.273 427.585 123.025C427.551 123.058 427.5 123.061 427.461 123.035L411.153 112.047C411.094 112.008 411.094 111.922 411.152 111.882L417.035 107.835C417.069 107.812 417.112 107.811 417.146 107.834C422.663 111.548 433.588 118.494 433.588 118.217Z" stroke="#C89665"/>
</g>
<g filter="url(#filter5_d_181_1758)">
<path d="M402.614 113.541V119.553C402.614 119.587 402.63 119.618 402.658 119.636L408.182 123.324C408.248 123.368 408.337 123.32 408.337 123.241V117.229C408.337 117.195 408.321 117.164 408.293 117.146L402.769 113.458C402.703 113.414 402.614 113.462 402.614 113.541Z" fill="#088FA2" stroke="#017A8B"/>
<path d="M412.377 120.119V125.505C412.377 125.539 412.395 125.571 412.424 125.589L417.611 128.887C417.677 128.93 417.764 128.882 417.764 128.803V122.818C417.764 122.78 417.744 122.746 417.71 122.729L412.524 120.03C412.457 119.996 412.377 120.044 412.377 120.119Z" fill="#088FA2" stroke="#017A8B"/>
<path d="M394.87 127.843V123.272C394.87 123.191 394.96 123.142 395.027 123.188L395.837 123.745C395.864 123.764 395.88 123.794 395.88 123.827V127.843C395.88 127.898 395.835 127.943 395.78 127.943H394.97C394.915 127.943 394.87 127.899 394.87 127.843Z" fill="#C89665" stroke="#C89665"/>
<path d="M417.619 129.06L417.156 129.299C417.117 129.319 417.095 129.361 417.102 129.404L417.565 132.27C417.585 132.392 417.764 132.377 417.764 132.254V129.149C417.764 129.074 417.685 129.026 417.619 129.06Z" stroke="#017A8B" stroke-width="0.5"/>
<path d="M412.377 136.811V133.563C412.377 133.525 412.398 133.49 412.432 133.473L412.905 133.229C412.972 133.194 413.051 133.243 413.051 133.317V136.566C413.051 136.603 413.03 136.638 412.997 136.655L412.523 136.899C412.457 136.933 412.377 136.886 412.377 136.811Z" fill="#017A8B" stroke="#017A8B" stroke-width="0.5"/>
<path d="M406.317 133.337V130.089C406.317 130.052 406.338 130.016 406.372 129.999L406.845 129.755C406.911 129.721 406.991 129.769 406.991 129.844V133.092C406.991 133.13 406.97 133.164 406.937 133.181L406.463 133.425C406.397 133.46 406.317 133.412 406.317 133.337Z" fill="#017A8B" stroke="#017A8B" stroke-width="0.5"/>
<path d="M400.93 129.863V126.615C400.93 126.578 400.951 126.543 400.984 126.525L401.458 126.281C401.524 126.247 401.604 126.295 401.604 126.37V129.619C401.604 129.656 401.583 129.69 401.549 129.707L401.076 129.952C401.009 129.986 400.93 129.938 400.93 129.863Z" fill="#017A8B" stroke="#017A8B" stroke-width="0.5"/>
<path d="M396.89 127.779V124.531C396.89 124.494 396.911 124.459 396.944 124.441L397.418 124.197C397.484 124.163 397.563 124.211 397.563 124.286V127.535C397.563 127.572 397.543 127.606 397.509 127.623L397.036 127.868C396.969 127.902 396.89 127.854 396.89 127.779Z" fill="#017A8B" stroke="#017A8B" stroke-width="0.5"/>
<path d="M416.417 133.401V129.127C416.417 129.058 416.485 129.008 416.55 129.03L417.36 129.309C417.4 129.323 417.428 129.361 417.428 129.404V133.4C417.428 133.456 417.383 133.5 417.328 133.5H416.517C416.462 133.5 416.417 133.456 416.417 133.401Z" fill="#C89665" stroke="#C89665"/>
<path d="M410.694 138.264V133.99C410.694 133.922 410.762 133.871 410.827 133.894L411.637 134.172C411.677 134.186 411.704 134.224 411.704 134.267V138.264C411.704 138.319 411.66 138.364 411.604 138.364H410.794C410.739 138.364 410.694 138.319 410.694 138.264Z" fill="#C89665" stroke="#C89665"/>
<path d="M394.991 122.997L400.874 118.95C400.908 118.927 400.951 118.926 400.985 118.949C406.257 122.498 416.467 128.998 417.364 129.327C417.406 129.311 417.428 129.312 417.428 129.332C417.428 129.344 417.406 129.342 417.364 129.327C416.835 129.531 413.119 132.514 411.424 134.14C411.39 134.173 411.339 134.176 411.3 134.15L394.992 123.162C394.933 123.122 394.933 123.037 394.991 122.997Z" fill="#F1BA4D"/>
<path d="M417.428 129.332C417.428 129.057 413.252 132.387 411.424 134.14C411.39 134.173 411.339 134.176 411.3 134.15L394.992 123.162C394.933 123.122 394.933 123.037 394.991 122.997L400.874 118.95C400.908 118.927 400.951 118.926 400.985 118.949C406.502 122.663 417.428 129.609 417.428 129.332Z" stroke="#F1BA4D"/>
</g>
<g filter="url(#filter6_d_181_1758)">
<path d="M386.454 125.351V131.363C386.454 131.396 386.47 131.427 386.498 131.446L392.022 135.133C392.088 135.178 392.177 135.13 392.177 135.05V129.038C392.177 129.005 392.16 128.974 392.133 128.955L386.609 125.268C386.543 125.224 386.454 125.271 386.454 125.351Z" fill="#088FA2" stroke="#017A8B"/>
<path d="M396.217 131.928V137.314C396.217 137.348 396.235 137.38 396.264 137.398L401.45 140.696C401.517 140.739 401.604 140.691 401.604 140.612V134.627C401.604 134.589 401.583 134.555 401.55 134.538L396.363 131.839C396.297 131.805 396.217 131.853 396.217 131.928Z" fill="#088FA2" stroke="#017A8B"/>
<path d="M378.71 139.653V135.081C378.71 135.001 378.8 134.952 378.867 134.997L379.677 135.555C379.704 135.573 379.72 135.604 379.72 135.637V139.653C379.72 139.708 379.675 139.753 379.62 139.753H378.81C378.755 139.753 378.71 139.708 378.71 139.653Z" fill="#C89665" stroke="#C89665"/>
<path d="M401.458 140.87L400.995 141.108C400.957 141.128 400.935 141.171 400.942 141.213L401.405 144.08C401.425 144.201 401.604 144.187 401.604 144.064V140.959C401.604 140.884 401.525 140.835 401.458 140.87Z" stroke="#017A8B" stroke-width="0.5"/>
<path d="M396.217 148.62V145.372C396.217 145.335 396.238 145.299 396.271 145.282L396.745 145.038C396.811 145.004 396.891 145.052 396.891 145.127V148.375C396.891 148.413 396.87 148.447 396.836 148.464L396.363 148.708C396.297 148.743 396.217 148.695 396.217 148.62Z" fill="#017A8B" stroke="#017A8B" stroke-width="0.5"/>
<path d="M390.157 145.147V141.899C390.157 141.861 390.178 141.826 390.211 141.809L390.685 141.564C390.751 141.53 390.831 141.578 390.831 141.653V144.902C390.831 144.939 390.81 144.974 390.776 144.991L390.303 145.235C390.237 145.269 390.157 145.221 390.157 145.147Z" fill="#017A8B" stroke="#017A8B" stroke-width="0.5"/>
<path d="M384.77 141.673V138.425C384.77 138.388 384.791 138.352 384.824 138.335L385.298 138.091C385.364 138.057 385.443 138.105 385.443 138.18V141.428C385.443 141.466 385.422 141.5 385.389 141.517L384.916 141.761C384.849 141.796 384.77 141.748 384.77 141.673Z" fill="#017A8B" stroke="#017A8B" stroke-width="0.5"/>
<path d="M380.73 139.589V136.341C380.73 136.304 380.751 136.268 380.784 136.251L381.257 136.007C381.324 135.973 381.403 136.021 381.403 136.096V139.344C381.403 139.382 381.382 139.416 381.349 139.433L380.876 139.677C380.809 139.712 380.73 139.664 380.73 139.589Z" fill="#017A8B" stroke="#017A8B" stroke-width="0.5"/>
<path d="M400.257 145.211V140.936C400.257 140.868 400.325 140.818 400.39 140.84L401.2 141.119C401.24 141.132 401.267 141.17 401.267 141.213V145.21C401.267 145.265 401.223 145.31 401.167 145.31H400.357C400.302 145.31 400.257 145.266 400.257 145.211Z" fill="#C89665" stroke="#C89665"/>
<path d="M394.534 150.073V145.799C394.534 145.731 394.601 145.68 394.666 145.703L395.476 145.981C395.517 145.995 395.544 146.033 395.544 146.076V150.073C395.544 150.128 395.499 150.173 395.444 150.173H394.634C394.578 150.173 394.534 150.129 394.534 150.073Z" fill="#C89665" stroke="#C89665"/>
<path d="M378.831 134.806L384.714 130.76C384.748 130.736 384.791 130.735 384.825 130.758C390.097 134.308 400.307 140.808 401.204 141.137C401.246 141.121 401.267 141.122 401.267 141.142C401.267 141.154 401.246 141.152 401.204 141.137C400.675 141.341 396.959 144.324 395.264 145.95C395.23 145.982 395.179 145.986 395.14 145.959L378.832 134.971C378.773 134.932 378.773 134.846 378.831 134.806Z" fill="#F1BA4D"/>
<path d="M401.267 141.142C401.267 140.867 397.091 144.197 395.264 145.95C395.23 145.982 395.179 145.986 395.14 145.959L378.832 134.971C378.773 134.932 378.773 134.846 378.831 134.806L384.714 130.76C384.748 130.736 384.791 130.735 384.825 130.758C390.342 134.473 401.267 141.419 401.267 141.142Z" stroke="#C89665"/>
</g>
<path d="M397.227 157.978V129.038C397.227 129.005 397.243 128.974 397.271 128.955L446.675 95.322C446.703 95.3034 446.719 95.2725 446.719 95.2394V93.0377C446.719 92.9599 446.804 92.9119 446.871 92.9521L450.711 95.2631C450.741 95.2812 450.759 95.3137 450.759 95.3488V123.373C450.759 123.407 450.742 123.438 450.714 123.457L397.381 158.062C397.315 158.105 397.227 158.057 397.227 157.978Z" fill="#186EA2" stroke="#017A8B" stroke-width="0.5"/>
<path d="M344.368 94.9448L344.032 124.469" stroke="white" stroke-width="1.5"/>
<path d="M335.95 118.517C335.931 117.954 335.779 112.186 336.284 90.2563C336.286 90.18 336.369 90.1298 336.435 90.1686L355.091 101.167C355.122 101.186 355.141 101.22 355.14 101.257L354.138 130.542C354.135 130.62 354.048 130.665 353.982 130.622L335.994 118.593C335.967 118.575 335.951 118.549 335.95 118.517Z" fill="white" fill-opacity="0.3" stroke="white" stroke-width="1.5"/>
<path d="M384.63 121.316L383.957 149.104" stroke="white" stroke-width="1.5"/>
<path d="M375.542 144.184C375.563 143.6 375.745 138.337 376.247 116.628C376.248 116.552 376.332 116.501 376.397 116.54L395.055 127.539C395.086 127.557 395.104 127.591 395.104 127.627L394.733 155.875C394.732 155.953 394.647 155.999 394.581 155.959L375.59 144.272C375.559 144.253 375.541 144.22 375.542 144.184Z" fill="white" fill-opacity="0.3" stroke="white" stroke-width="1.5"/>
<path d="M458.503 134.488V129.514C458.503 129.435 458.416 129.388 458.349 129.43L394.924 169.591C394.891 169.612 394.849 169.612 394.817 169.591L324.994 125.608C324.928 125.566 324.841 125.614 324.841 125.693V131.014C324.841 131.048 324.859 131.08 324.888 131.099L395.49 174.802C395.523 174.822 395.564 174.822 395.597 174.801L458.456 134.572C458.485 134.554 458.503 134.522 458.503 134.488Z" fill="#A87E40" stroke="#A87E40" stroke-width="1.5"/>
<path d="M324.841 125.164V119.441C324.841 119.363 324.927 119.313 324.993 119.354L395.544 163.025L456.701 122.658C457.348 122.231 458.213 122.67 458.251 123.444L458.503 128.638L394.87 169.277L324.841 125.164Z" fill="#046270" stroke="#025D69"/>
<path d="M396.561 128.103C396.997 128.619 397.683 129.141 398.729 129.308C398.831 129.324 398.908 129.411 398.906 129.515L398.245 157.805C398.242 157.961 398.068 158.053 397.937 157.969L395.636 156.485C395.579 156.448 395.544 156.384 395.545 156.315L395.864 128.291C395.867 128.06 396.411 127.927 396.561 128.103Z" fill="#038699" stroke="#038699"/>
<path d="M335.582 89.991L333.681 89.7459C332.749 89.6257 332.483 88.4022 333.281 87.9053L385.063 55.6559C385.708 55.2541 386.525 55.2527 387.172 55.6522L448.12 93.3143C449.357 94.0784 449.391 95.8645 448.184 96.6754L399.676 129.286C399.008 129.735 398.125 129.732 397.452 129.291C396.246 128.499 396.225 126.713 397.434 125.926L442.37 96.6798C443.604 95.8762 443.576 94.0587 442.317 93.2941L387.166 59.8053C386.522 59.4144 385.713 59.4183 385.073 59.8153L336.892 89.7069C336.501 89.9495 336.039 90.0499 335.582 89.991Z" fill="#038699"/>
</g>
<defs>
<filter id="filter0_i_181_1758" x="324.091" y="53.2163" width="135.162" height="126.351" filterUnits="userSpaceOnUse" color-interpolation-filters="sRGB">
<feFlood flood-opacity="0" result="BackgroundImageFix"/>
<feBlend mode="normal" in="SourceGraphic" in2="BackgroundImageFix" result="shape"/>
<feColorMatrix in="SourceAlpha" type="matrix" values="0 0 0 0 0 0 0 0 0 0 0 0 0 0 0 0 0 0 127 0" result="hardAlpha"/>
<feOffset dy="4"/>
<feGaussianBlur stdDeviation="2"/>
<feComposite in2="hardAlpha" operator="arithmetic" k2="-1" k3="1"/>
<feColorMatrix type="matrix" values="0 0 0 0 0 0 0 0 0 0 0 0 0 0 0 0 0 0 0.25 0"/>
<feBlend mode="normal" in2="shape" result="effect1_innerShadow_181_1758"/>
</filter>
<filter id="filter1_d_181_1758" x="356.029" y="93.4888" width="31.894" height="33.9229" filterUnits="userSpaceOnUse" color-interpolation-filters="sRGB">
<feFlood flood-opacity="0" result="BackgroundImageFix"/>
<feColorMatrix in="SourceAlpha" type="matrix" values="0 0 0 0 0 0 0 0 0 0 0 0 0 0 0 0 0 0 127 0" result="hardAlpha"/>
<feOffset dy="4"/>
<feGaussianBlur stdDeviation="2"/>
<feComposite in2="hardAlpha" operator="out"/>
<feColorMatrix type="matrix" values="0 0 0 0 0 0 0 0 0 0 0 0 0 0 0 0 0 0 0.25 0"/>
<feBlend mode="normal" in2="BackgroundImageFix" result="effect1_dropShadow_181_1758"/>
<feBlend mode="normal" in="SourceGraphic" in2="effect1_dropShadow_181_1758" result="shape"/>
</filter>
<filter id="filter2_d_181_1758" x="339.195" y="103.909" width="31.894" height="33.9233" filterUnits="userSpaceOnUse" color-interpolation-filters="sRGB">
<feFlood flood-opacity="0" result="BackgroundImageFix"/>
<feColorMatrix in="SourceAlpha" type="matrix" values="0 0 0 0 0 0 0 0 0 0 0 0 0 0 0 0 0 0 127 0" result="hardAlpha"/>
<feOffset dy="4"/>
<feGaussianBlur stdDeviation="2"/>
<feComposite in2="hardAlpha" operator="out"/>
<feColorMatrix type="matrix" values="0 0 0 0 0 0 0 0 0 0 0 0 0 0 0 0 0 0 0.25 0"/>
<feBlend mode="normal" in2="BackgroundImageFix" result="effect1_dropShadow_181_1758"/>
<feBlend mode="normal" in="SourceGraphic" in2="effect1_dropShadow_181_1758" result="shape"/>
</filter>
<filter id="filter3_d_181_1758" x="373.536" y="80.9844" width="31.894" height="33.9229" filterUnits="userSpaceOnUse" color-interpolation-filters="sRGB">
<feFlood flood-opacity="0" result="BackgroundImageFix"/>
<feColorMatrix in="SourceAlpha" type="matrix" values="0 0 0 0 0 0 0 0 0 0 0 0 0 0 0 0 0 0 127 0" result="hardAlpha"/>
<feOffset dy="4"/>
<feGaussianBlur stdDeviation="2"/>
<feComposite in2="hardAlpha" operator="out"/>
<feColorMatrix type="matrix" values="0 0 0 0 0 0 0 0 0 0 0 0 0 0 0 0 0 0 0.25 0"/>
<feBlend mode="normal" in2="BackgroundImageFix" result="effect1_dropShadow_181_1758"/>
<feBlend mode="normal" in="SourceGraphic" in2="effect1_dropShadow_181_1758" result="shape"/>
</filter>
<filter id="filter4_d_181_1758" x="406.531" y="101.825" width="31.894" height="33.9229" filterUnits="userSpaceOnUse" color-interpolation-filters="sRGB">
<feFlood flood-opacity="0" result="BackgroundImageFix"/>
<feColorMatrix in="SourceAlpha" type="matrix" values="0 0 0 0 0 0 0 0 0 0 0 0 0 0 0 0 0 0 127 0" result="hardAlpha"/>
<feOffset dy="4"/>
<feGaussianBlur stdDeviation="2"/>
<feComposite in2="hardAlpha" operator="out"/>
<feColorMatrix type="matrix" values="0 0 0 0 0 0 0 0 0 0 0 0 0 0 0 0 0 0 0.25 0"/>
<feBlend mode="normal" in2="BackgroundImageFix" result="effect1_dropShadow_181_1758"/>
<feBlend mode="normal" in="SourceGraphic" in2="effect1_dropShadow_181_1758" result="shape"/>
</filter>
<filter id="filter5_d_181_1758" x="390.37" y="112.94" width="31.894" height="33.9233" filterUnits="userSpaceOnUse" color-interpolation-filters="sRGB">
<feFlood flood-opacity="0" result="BackgroundImageFix"/>
<feColorMatrix in="SourceAlpha" type="matrix" values="0 0 0 0 0 0 0 0 0 0 0 0 0 0 0 0 0 0 127 0" result="hardAlpha"/>
<feOffset dy="4"/>
<feGaussianBlur stdDeviation="2"/>
<feComposite in2="hardAlpha" operator="out"/>
<feColorMatrix type="matrix" values="0 0 0 0 0 0 0 0 0 0 0 0 0 0 0 0 0 0 0.25 0"/>
<feBlend mode="normal" in2="BackgroundImageFix" result="effect1_dropShadow_181_1758"/>
<feBlend mode="normal" in="SourceGraphic" in2="effect1_dropShadow_181_1758" result="shape"/>
</filter>
<filter id="filter6_d_181_1758" x="374.21" y="124.75" width="31.894" height="33.9229" filterUnits="userSpaceOnUse" color-interpolation-filters="sRGB">
<feFlood flood-opacity="0" result="BackgroundImageFix"/>
<feColorMatrix in="SourceAlpha" type="matrix" values="0 0 0 0 0 0 0 0 0 0 0 0 0 0 0 0 0 0 127 0" result="hardAlpha"/>
<feOffset dy="4"/>
<feGaussianBlur stdDeviation="2"/>
<feComposite in2="hardAlpha" operator="out"/>
<feColorMatrix type="matrix" values="0 0 0 0 0 0 0 0 0 0 0 0 0 0 0 0 0 0 0.25 0"/>
<feBlend mode="normal" in2="BackgroundImageFix" result="effect1_dropShadow_181_1758"/>
<feBlend mode="normal" in="SourceGraphic" in2="effect1_dropShadow_181_1758" result="shape"/>
</filter>
</defs>
</svg>
