<svg width="463" height="174" viewBox="0 0 463 174" fill="none" xmlns="http://www.w3.org/2000/svg">
<g filter="url(#filter0_d_193_1408)">
<rect x="4" width="455" height="166" rx="5" fill="#039CB0" fill-opacity="0.2" shape-rendering="crispEdges"/>
</g>
<path fill-rule="evenodd" clip-rule="evenodd" d="M34.7137 148.829C14.3683 131.734 86.0512 103.157 86.0512 103.157C90.2447 103.157 98.6319 103.157 107.019 94.2266C115.406 86.5722 123.094 69.9878 131.482 69.9878C139.869 69.9878 148.256 86.5722 156.643 86.5722C165.03 86.5722 173.418 69.9878 181.805 58.5063C190.192 48.3005 197.88 43.1976 206.267 50.8519C214.654 58.5063 223.042 81.4693 231.429 91.6751C239.816 103.157 248.203 103.157 256.59 89.1237C264.977 75.0907 272.666 48.3005 281.053 29.1646C289.44 10.0287 297.827 -0.177111 306.214 10.0287C314.602 21.5102 322.989 53.4034 331.376 62.3334C339.763 69.9878 347.451 53.4034 355.838 50.8519C364.226 48.3005 372.613 58.5063 376.806 64.8849L381 69.9878V151.634H376.806C372.613 151.634 364.226 151.634 355.838 151.634C347.451 151.634 339.763 151.634 331.376 151.634C322.989 151.634 314.602 151.634 306.214 151.634C297.827 151.634 289.44 151.634 281.053 151.634C272.666 151.634 264.977 151.634 256.59 151.634C248.203 151.634 239.816 151.634 231.429 151.634C223.042 151.634 214.654 151.634 206.267 151.634C197.88 151.634 190.192 151.634 181.805 151.634C173.418 151.634 165.03 151.634 156.643 151.634C148.256 151.634 139.869 151.634 131.482 151.634C123.094 151.634 115.406 151.634 107.019 151.634C98.6319 151.634 90.2447 151.634 86.0512 151.634C86.0512 151.634 78.5238 152.564 75.4508 151.634C59.2153 146.724 47.7959 159.821 34.7137 148.829Z" fill="white" fill-opacity="0.5"/>
<g filter="url(#filter1_d_193_1408)">
<path d="M106.752 144.984V141.688H124.08V144.984H106.752Z" fill="#C5EFFA" stroke="#C5EFFA" stroke-width="0.1"/>
<path d="M68.0527 144.984V141.688H106.752V144.984H68.0527Z" fill="#8FD3E4" stroke="#8FD3E4" stroke-width="0.1"/>
<path d="M57.0784 151.576V144.983H104.441L102.131 151.576H57.0784Z" fill="#8FD3E4" stroke="#8FD3E4" stroke-width="0.1"/>
<path d="M134.477 151.576V144.983H176.064V151.576H134.477Z" fill="#8FD3E4" stroke="#8FD3E4" stroke-width="0.1"/>
<path d="M100.976 151.576V144.983H134.477L139.675 151.576H100.976Z" fill="#BAF7FF" stroke="#8FD3E4" stroke-width="0.1"/>
<path d="M124.08 144.984V141.688H165.667V144.984H124.08Z" fill="#8FD3E4" stroke="#8FD3E4" stroke-width="0.1"/>
<path d="M128.701 141.688H68.6304V112.572H121.769L128.123 118.615L128.701 118.659V141.688Z" fill="white"/>
<path d="M68.6304 110.375V112.572M68.6304 112.572V141.687H128.701V118.659L128.123 118.615L121.769 112.572H68.6304Z" stroke="#8FD3E4" stroke-opacity="0.13" stroke-width="0.1"/>
<path d="M81.3374 141.138V120.263H92.8894V141.138H81.3374Z" fill="#6F631D" stroke="#878264"/>
<path d="M121.769 112.572L128.123 118.615H128.701V107.628L68.6304 106.53V110.375V112.572H121.769Z" fill="#8FD3E4" fill-opacity="0.8" stroke="#8FD3E4" stroke-opacity="0.13" stroke-width="0.1"/>
<path d="M128.7 141.821V107.628L142.563 87.3027L161.624 110.375H161.878V141.821H128.7Z" fill="#8FD3E4" stroke="#8FD3E4" stroke-width="0.1"/>
<path d="M169.71 110.375L145.451 83.4573L142.563 87.3027L161.623 110.375H169.71Z" fill="#038699" stroke="#00A2B7" stroke-width="0.1"/>
<path d="M62.2766 109.826L84.2253 84.0066H144.296L125.812 110.924L62.2766 109.826Z" fill="#03A2B0" stroke="#00A2B7"/>
<path d="M107.885 120.194H103.344V125.784H107.885V120.194Z" fill="#039CB0" stroke="#038699"/>
<path d="M107.885 127.335H103.344V132.925H107.885V127.335Z" fill="#039CB0" stroke="#038699"/>
<path d="M114.816 120.194H110.275V125.784H114.816V120.194Z" fill="#039CB0" stroke="#038699"/>
<path d="M114.816 127.335H110.275V132.925H114.816V127.335Z" fill="#039CB0" stroke="#038699"/>
</g>
<path d="M44.3623 131.254L49.0243 129.037C49.7611 128.687 50.5733 128.522 51.3883 128.557L61.9633 129.014C62.5513 129.04 63.1282 129.183 63.6597 129.436L64.4895 129.83C66.6102 130.839 67.2452 133.556 65.7911 135.4C65.3812 135.92 64.8379 136.319 64.2191 136.554L61.385 137.632C60.1098 138.117 59.3354 139.001 60.064 140.154C60.5354 140.9 61.2427 141.931 62.2767 143.336C66.2185 147.501 46.2557 149.364 38.5881 150.326C37.8412 150.42 37.0921 150.252 36.46 149.843L35.1201 148.977C32.5188 147.294 33.7118 142.155 36.7705 141.663C38.9819 141.308 40.3186 137.274 41.1777 135.206C41.2387 135.059 41.3006 134.913 41.3619 134.769C41.9431 133.409 43.0261 131.89 44.3623 131.254Z" fill="#017A8B" fill-opacity="0.18"/>
<path d="M51.88 142.786C51.0667 142.786 50.1472 142.237 50.1472 142.237V115.319H53.6128V142.237C53.6128 142.237 52.6933 142.786 51.88 142.786Z" fill="#346C5F" stroke="#346C5F"/>
<g filter="url(#filter2_i_193_1408)">
<path d="M40.6217 99.9655L40.7189 100.521C40.8401 101.212 41.1801 101.847 41.6889 102.331C42.2984 102.91 43.1074 103.234 43.9486 103.234H44.3711L42.0607 104.332L40.3279 105.431C39.5578 105.98 37.902 107.189 37.44 107.628C37.1863 107.87 37.0371 108.343 36.9541 108.811C36.8382 109.465 37.0668 110.117 37.4478 110.661L37.8119 111.18C37.9459 111.371 38.1342 111.518 38.3525 111.601L38.6011 111.696C39.4677 112.025 39.5162 113.233 38.6789 113.631C38.6232 113.658 38.5699 113.689 38.5196 113.725L36.8276 114.932C36.4744 115.184 36.2077 115.539 36.0642 115.948C35.8401 116.588 35.9378 117.296 36.3268 117.851L36.655 118.319C36.7909 118.513 36.9747 118.669 37.1886 118.77L38.7662 119.521C39.3249 119.786 39.2692 120.599 38.6795 120.786C38.6235 120.804 38.57 120.828 38.5205 120.86L37.2308 121.678C36.9862 121.833 36.7226 121.956 36.4465 122.043L36.1678 122.131C35.5026 122.342 34.9475 122.807 34.6228 123.425C34.2168 124.197 34.2168 125.119 34.6228 125.891L34.7405 126.115C34.9954 126.6 35.373 127.01 35.8356 127.303L36.8624 127.954L38.5952 129.053L39.8866 129.667C40.5575 129.986 41.291 130.151 42.0339 130.151H45.5263L49.5695 130.701H53.0351L57.0783 130.151C58.9413 129.898 60.1273 129.633 60.8349 129.418C61.432 129.238 61.9956 128.932 62.5734 128.696L64.8679 127.761C65.4457 127.526 65.9743 127.184 66.4264 126.754L67.2565 125.964C67.7649 125.481 68.0527 124.81 68.0527 124.109C68.0527 123.407 67.7649 122.736 67.2565 122.253L66.8975 121.911L65.7622 120.831C65.3786 120.467 64.8695 120.263 64.3401 120.263H63.0455C62.6209 120.263 62.2767 119.919 62.2767 119.494C62.2767 119.284 62.3631 119.082 62.5157 118.937L63.5288 117.974C63.8471 117.671 64.1138 117.318 64.3182 116.929L64.9935 115.645C65.1074 115.428 65.2052 115.204 65.2862 114.972L65.7423 113.671C66.2043 112.353 64.7796 111.657 64.0095 111.474L62.4997 110.995C61.7254 110.75 61.5906 109.711 62.2767 109.276C63.1488 108.723 63.6094 108.141 63.8311 107.695C64.0218 107.31 63.9543 106.869 63.8452 106.454L63.7536 106.105C63.5433 105.305 63.1144 104.58 62.5149 104.01L61.9862 103.507C61.7977 103.327 61.5677 103.198 61.3167 103.13L60.5927 102.933C59.5104 102.639 59.325 101.182 60.2991 100.627C60.4603 100.535 60.5991 100.408 60.7057 100.256L61.3919 99.2771C61.5961 98.9857 61.7686 98.6735 61.9066 98.3455L62.039 98.0305C62.5604 96.7909 62.5604 95.3934 62.039 94.1537L61.8591 93.7258C61.7526 93.4726 61.6254 93.2287 61.4789 92.9964L60.7394 91.8241C60.2344 91.0236 59.5125 90.3829 58.6578 89.9765L58.3588 89.8343C57.893 89.6128 57.3957 89.4647 56.8847 89.3952L54.3419 89.0498C53.8584 88.9841 53.3678 88.9895 52.8859 89.0659L50.5177 89.4413C50.271 89.4804 50.0276 89.5379 49.7895 89.6134L47.1876 90.4383C46.8512 90.5449 46.527 90.6869 46.2205 90.8618L44.878 91.6279C44.166 92.0342 43.5647 92.6094 43.1273 93.3028L42.0607 94.9934L41.1197 96.7834C40.6064 97.7598 40.4312 98.8789 40.6217 99.9655Z" fill="#67AD15"/>
</g>
<path d="M45.5263 103.234H44.3711M44.3711 103.234H43.9486C43.1074 103.234 42.2984 102.91 41.6889 102.331C41.1801 101.847 40.8401 101.212 40.7189 100.521L40.6217 99.9655C40.4312 98.8789 40.6064 97.7598 41.1197 96.7834L42.0607 94.9934L43.1273 93.3028C43.5647 92.6094 44.166 92.0342 44.878 91.6279L46.2205 90.8618C46.527 90.6869 46.8512 90.5449 47.1876 90.4383L49.7895 89.6134C50.0276 89.5379 50.271 89.4804 50.5177 89.4413L52.8859 89.0659C53.3678 88.9895 53.8584 88.9841 54.3419 89.0498L56.8847 89.3952C57.3957 89.4647 57.893 89.6128 58.3588 89.8343L58.6578 89.9765C59.5125 90.3829 60.2344 91.0236 60.7394 91.8241L61.4789 92.9964C61.6254 93.2287 61.7526 93.4726 61.8591 93.7258L62.039 94.1537C62.5604 95.3934 62.5604 96.7909 62.039 98.0305L61.9066 98.3455C61.7686 98.6735 61.5961 98.9857 61.3919 99.2771L60.7057 100.256C60.5991 100.408 60.4603 100.535 60.2991 100.627C59.325 101.182 59.5104 102.639 60.5927 102.933L61.3167 103.13C61.5677 103.198 61.7977 103.327 61.9862 103.507L62.5149 104.01C63.1144 104.58 63.5433 105.305 63.7536 106.105L63.8452 106.454C63.9543 106.869 64.0218 107.31 63.8311 107.695C63.6094 108.141 63.1488 108.723 62.2767 109.276C61.5906 109.711 61.7254 110.75 62.4997 110.995L64.0095 111.474C64.7796 111.657 66.2043 112.353 65.7423 113.671C65.5165 114.315 65.3735 114.723 65.2862 114.972C65.2052 115.204 65.1074 115.428 64.9935 115.645L64.3182 116.929C64.1138 117.318 63.8471 117.671 63.5288 117.974L62.5157 118.937C62.3631 119.082 62.2767 119.284 62.2767 119.494C62.2767 119.919 62.6209 120.263 63.0455 120.263H64.3401C64.8695 120.263 65.3786 120.467 65.7622 120.831L66.8975 121.911L67.2565 122.253C67.7649 122.736 68.0527 123.407 68.0527 124.109C68.0527 124.81 67.7649 125.481 67.2565 125.964L66.4264 126.754C65.9743 127.184 65.4457 127.526 64.8679 127.761L62.5734 128.696C61.9956 128.932 61.432 129.238 60.8349 129.418C60.1273 129.633 58.9413 129.898 57.0783 130.151C53.8437 130.591 53.0351 130.701 53.0351 130.701H49.5695L45.5263 130.151H42.0339C41.291 130.151 40.5575 129.986 39.8866 129.667L38.5952 129.053L36.8624 127.954L35.8356 127.303C35.373 127.01 34.9954 126.6 34.7405 126.115L34.6228 125.891C34.2168 125.119 34.2168 124.197 34.6228 123.425C34.9475 122.807 35.5026 122.342 36.1678 122.131L36.4465 122.043C36.7226 121.956 36.9862 121.833 37.2308 121.678L38.5205 120.86C38.57 120.828 38.6235 120.804 38.6795 120.786C39.2692 120.599 39.3249 119.786 38.7662 119.521L37.1886 118.77C36.9747 118.669 36.7909 118.513 36.655 118.319L36.3268 117.851C35.9378 117.296 35.8401 116.588 36.0642 115.948C36.2077 115.539 36.4744 115.184 36.8276 114.932L38.5196 113.725C38.5699 113.689 38.6232 113.658 38.6789 113.631C39.5162 113.233 39.4677 112.025 38.6011 111.696L38.3525 111.601C38.1342 111.518 37.9459 111.371 37.8119 111.18L37.4478 110.661C37.0668 110.117 36.8382 109.465 36.9541 108.811C37.0371 108.343 37.1863 107.87 37.44 107.628C37.902 107.189 39.5578 105.98 40.3279 105.431L42.0607 104.332L44.3711 103.234Z" stroke="#53A934"/>
<path d="M206.954 140.98L202.638 139.311C202.008 139.067 201.333 138.953 200.658 138.977L191.279 139.306C190.925 139.319 190.575 139.39 190.245 139.518L189.19 139.926C187.569 140.553 187.113 142.631 188.323 143.879C188.607 144.171 188.959 144.387 189.348 144.508L192.067 145.349C193.142 145.681 193.751 146.331 193.053 147.214C192.649 147.726 192.066 148.412 191.241 149.323C187.793 152.286 205.591 153.584 211.942 154.249C212.387 154.295 212.831 154.211 213.227 154.003L214.225 153.478C216.265 152.405 215.14 148.443 212.86 148.106C212.768 148.093 212.678 148.078 212.587 148.064C210.959 147.799 209.858 144.507 209.096 143.045C208.625 142.143 207.903 141.346 206.954 140.98Z" fill="#017A8B" fill-opacity="0.18"/>
<path d="M203.1 148.829C202.287 148.829 201.367 148.28 201.367 148.28V121.362H204.833V148.28C204.833 148.28 203.913 148.829 203.1 148.829Z" fill="#346C5F" stroke="#346C5F"/>
<g filter="url(#filter3_i_193_1408)">
<path d="M191.842 106.008L191.939 106.563C192.06 107.255 192.4 107.889 192.909 108.373C193.519 108.953 194.328 109.276 195.169 109.276H195.591L193.281 110.375L191.548 111.474C190.778 112.023 189.122 113.232 188.66 113.671C188.407 113.912 188.257 114.385 188.174 114.854C188.058 115.507 188.287 116.16 188.668 116.704L189.032 117.223C189.166 117.414 189.354 117.561 189.573 117.644L189.821 117.738C190.688 118.068 190.736 119.276 189.899 119.674C189.843 119.7 189.79 119.732 189.74 119.768L188.048 120.975C187.695 121.227 187.428 121.582 187.284 121.991C187.06 122.631 187.158 123.339 187.547 123.894L187.875 124.362C188.011 124.556 188.195 124.711 188.409 124.813L189.986 125.563C190.545 125.829 190.489 126.642 189.9 126.829C189.844 126.846 189.79 126.871 189.741 126.903L188.451 127.72C188.206 127.875 187.943 127.998 187.667 128.086L187.388 128.174C186.723 128.385 186.168 128.85 185.843 129.467C185.437 130.239 185.437 131.162 185.843 131.934L185.961 132.158C186.216 132.643 186.593 133.052 187.056 133.346L188.083 133.997L189.815 135.095L191.107 135.71C191.778 136.029 192.511 136.194 193.254 136.194H196.747L200.79 136.743H204.255L208.299 136.194C210.162 135.941 211.347 135.676 212.055 135.461C212.652 135.28 213.216 134.975 213.794 134.739L216.088 133.804C216.666 133.568 217.195 133.227 217.647 132.797L218.477 132.007C218.985 131.524 219.273 130.853 219.273 130.151C219.273 129.45 218.985 128.779 218.477 128.295L218.118 127.954L216.982 126.874C216.599 126.509 216.09 126.306 215.56 126.306H214.266C213.841 126.306 213.497 125.962 213.497 125.537C213.497 125.326 213.583 125.125 213.736 124.98L214.749 124.016C215.067 123.714 215.334 123.361 215.538 122.972L216.214 121.688C216.328 121.471 216.425 121.246 216.506 121.015L216.962 119.714C217.425 118.395 216 117.7 215.23 117.516L213.72 117.038C212.946 116.792 212.811 115.754 213.497 115.319C214.369 114.766 214.83 114.184 215.051 113.737C215.242 113.353 215.174 112.912 215.065 112.497L214.974 112.148C214.763 111.348 214.335 110.622 213.735 110.052L213.206 109.549C213.018 109.37 212.788 109.241 212.537 109.172L211.813 108.976C210.731 108.682 210.545 107.225 211.519 106.669C211.681 106.577 211.819 106.451 211.926 106.299L212.612 105.32C212.816 105.028 212.989 104.716 213.127 104.388L213.259 104.073C213.781 102.834 213.781 101.436 213.259 100.196L213.079 99.7685C212.973 99.5154 212.846 99.2714 212.699 99.0391L211.96 97.8668C211.455 97.0664 210.733 96.4257 209.878 96.0192L209.579 95.877C209.113 95.6555 208.616 95.5074 208.105 95.438L205.562 95.0925C205.079 95.0268 204.588 95.0322 204.106 95.1086L201.738 95.484C201.491 95.5231 201.248 95.5807 201.01 95.6561L198.408 96.481C198.071 96.5877 197.747 96.7296 197.441 96.9045L196.098 97.6706C195.386 98.0769 194.785 98.6521 194.348 99.3455L193.281 101.036L192.34 102.826C191.827 103.803 191.651 104.922 191.842 106.008Z" fill="#67AD15"/>
</g>
<path d="M196.747 109.276H195.591M195.591 109.276H195.169C194.328 109.276 193.519 108.953 192.909 108.373C192.4 107.889 192.06 107.255 191.939 106.563L191.842 106.008C191.651 104.922 191.827 103.803 192.34 102.826L193.281 101.036L194.348 99.3455C194.785 98.6521 195.386 98.0769 196.098 97.6706L197.441 96.9045C197.747 96.7296 198.071 96.5877 198.408 96.481L201.01 95.6561C201.248 95.5807 201.491 95.5231 201.738 95.484L204.106 95.1086C204.588 95.0322 205.079 95.0268 205.562 95.0925L208.105 95.438C208.616 95.5074 209.113 95.6555 209.579 95.877L209.878 96.0192C210.733 96.4257 211.455 97.0664 211.96 97.8668L212.699 99.0391C212.846 99.2714 212.973 99.5154 213.079 99.7685L213.259 100.196C213.781 101.436 213.781 102.834 213.259 104.073L213.127 104.388C212.989 104.716 212.816 105.028 212.612 105.32L211.926 106.299C211.819 106.451 211.681 106.577 211.519 106.669C210.545 107.225 210.731 108.682 211.813 108.976L212.537 109.172C212.788 109.241 213.018 109.37 213.206 109.549L213.735 110.052C214.335 110.622 214.763 111.348 214.974 112.148L215.065 112.497C215.174 112.912 215.242 113.353 215.051 113.737C214.83 114.184 214.369 114.766 213.497 115.319C212.811 115.754 212.946 116.792 213.72 117.038L215.23 117.516C216 117.7 217.425 118.395 216.962 119.714C216.737 120.358 216.594 120.766 216.506 121.015C216.425 121.246 216.328 121.471 216.214 121.687L215.538 122.972C215.334 123.361 215.067 123.714 214.749 124.016L213.736 124.98C213.583 125.125 213.497 125.326 213.497 125.537C213.497 125.962 213.841 126.306 214.266 126.306H215.56C216.09 126.306 216.599 126.509 216.982 126.874L218.118 127.954L218.477 128.295C218.985 128.779 219.273 129.45 219.273 130.151C219.273 130.853 218.985 131.524 218.477 132.007L217.647 132.797C217.195 133.227 216.666 133.568 216.088 133.804L213.794 134.739C213.216 134.975 212.652 135.28 212.055 135.461C211.347 135.676 210.162 135.941 208.299 136.194C205.064 136.634 204.255 136.743 204.255 136.743H200.79L196.747 136.194H193.254C192.511 136.194 191.778 136.029 191.107 135.71L189.815 135.095L188.083 133.997L187.056 133.346C186.593 133.052 186.216 132.643 185.961 132.158L185.843 131.934C185.437 131.162 185.437 130.239 185.843 129.467C186.168 128.85 186.723 128.385 187.388 128.174L187.667 128.086C187.943 127.998 188.206 127.875 188.451 127.72L189.741 126.903C189.79 126.871 189.844 126.846 189.9 126.829C190.489 126.642 190.545 125.829 189.986 125.563L188.409 124.813C188.195 124.711 188.011 124.556 187.875 124.362L187.547 123.894C187.158 123.339 187.06 122.631 187.284 121.991C187.428 121.582 187.695 121.227 188.048 120.975L189.74 119.768C189.79 119.732 189.843 119.7 189.899 119.674C190.736 119.276 190.688 118.068 189.821 117.738L189.573 117.644C189.354 117.561 189.166 117.414 189.032 117.223L188.668 116.704C188.287 116.16 188.058 115.507 188.174 114.854C188.257 114.385 188.407 113.912 188.66 113.671C189.122 113.232 190.778 112.023 191.548 111.474L193.281 110.375L195.591 109.276Z" stroke="#53A934"/>
<path d="M390.76 134.986L386.443 133.317C385.813 133.073 385.139 132.96 384.463 132.983L375.084 133.313C374.73 133.325 374.381 133.397 374.05 133.525L372.995 133.933C371.374 134.56 370.919 136.638 372.129 137.885C372.412 138.178 372.764 138.394 373.153 138.514L375.872 139.355C376.947 139.688 377.556 140.338 376.858 141.221C376.454 141.732 375.871 142.419 375.046 143.33C371.599 146.293 389.397 147.591 395.748 148.255C396.193 148.302 396.637 148.218 397.032 148.009L398.031 147.484C400.07 146.412 398.945 142.449 396.665 142.113C396.574 142.099 396.483 142.085 396.393 142.07C394.765 141.806 393.664 138.514 392.901 137.051C392.431 136.15 391.708 135.353 390.76 134.986Z" fill="#017A8B" fill-opacity="0.18"/>
<path d="M386.905 142.836C386.092 142.836 385.173 142.286 385.173 142.286V115.368H388.638V142.286C388.638 142.286 387.719 142.836 386.905 142.836Z" fill="#346C5F" stroke="#346C5F"/>
<g filter="url(#filter4_i_193_1408)">
<path d="M375.647 100.015L375.745 100.57C375.866 101.262 376.206 101.896 376.715 102.38C377.324 102.96 378.133 103.283 378.974 103.283H379.397L377.086 104.382L375.354 105.48C374.583 106.03 372.928 107.238 372.466 107.678C372.212 107.919 372.063 108.392 371.98 108.86C371.864 109.514 372.092 110.167 372.473 110.71L372.838 111.23C372.972 111.421 373.16 111.567 373.378 111.65L373.627 111.745C374.493 112.075 374.542 113.282 373.705 113.681C373.649 113.707 373.596 113.738 373.545 113.774L371.853 114.981C371.5 115.233 371.233 115.588 371.09 115.998C370.866 116.637 370.963 117.346 371.352 117.9L371.681 118.369C371.817 118.563 372 118.718 372.214 118.82L373.792 119.57C374.351 119.836 374.295 120.648 373.705 120.835C373.649 120.853 373.596 120.878 373.546 120.909L372.256 121.727C372.012 121.882 371.748 122.005 371.472 122.092L371.193 122.181C370.528 122.392 369.973 122.856 369.648 123.474C369.242 124.246 369.242 125.168 369.648 125.941L369.766 126.165C370.021 126.649 370.399 127.059 370.861 127.352L371.888 128.003L373.621 129.102L374.912 129.716C375.583 130.035 376.317 130.201 377.059 130.201H380.552L384.595 130.75H388.061L392.104 130.201C393.967 129.948 395.153 129.682 395.861 129.468C396.458 129.287 397.021 128.981 397.599 128.746L399.894 127.81C400.471 127.575 401 127.233 401.452 126.803L402.282 126.014C402.791 125.53 403.078 124.859 403.078 124.158C403.078 123.456 402.791 122.786 402.282 122.302L401.923 121.961L400.788 120.881C400.404 120.516 399.895 120.312 399.366 120.312H398.071C397.647 120.312 397.302 119.968 397.302 119.544C397.302 119.333 397.389 119.132 397.541 118.987L398.554 118.023C398.873 117.72 399.139 117.367 399.344 116.979L400.019 115.694C400.133 115.477 400.231 115.253 400.312 115.022L400.768 113.72C401.23 112.402 399.805 111.706 399.035 111.523L397.525 111.044C396.751 110.799 396.616 109.761 397.302 109.326C398.174 108.773 398.635 108.191 398.857 107.744C399.047 107.36 398.98 106.918 398.871 106.503L398.779 106.155C398.569 105.355 398.14 104.629 397.541 104.059L397.012 103.556C396.823 103.377 396.593 103.247 396.342 103.179L395.618 102.982C394.536 102.688 394.351 101.232 395.325 100.676C395.486 100.584 395.625 100.457 395.731 100.305L396.418 99.3264C396.622 99.0351 396.794 98.7228 396.932 98.3949L397.065 98.0799C397.586 96.8402 397.586 95.4427 397.065 94.203L396.885 93.7751C396.778 93.522 396.651 93.278 396.505 93.0457L395.765 91.8734C395.26 91.073 394.538 90.4323 393.683 90.0258L393.384 89.8836C392.919 89.6621 392.421 89.514 391.91 89.4446L389.368 89.0991C388.884 89.0334 388.393 89.0388 387.912 89.1152L385.543 89.4906C385.297 89.5297 385.053 89.5872 384.815 89.6627L382.213 90.4876C381.877 90.5942 381.553 90.7362 381.246 90.9111L379.904 91.6772C379.192 92.0835 378.59 92.6587 378.153 93.3521L377.086 95.0428L376.145 96.8327C375.632 97.8091 375.457 98.9282 375.647 100.015Z" fill="#67AD15"/>
</g>
<path d="M380.552 103.283H379.397M379.397 103.283H378.974C378.133 103.283 377.324 102.96 376.715 102.38C376.206 101.896 375.866 101.262 375.745 100.57L375.647 100.015C375.457 98.9282 375.632 97.8091 376.145 96.8327L377.086 95.0428L378.153 93.3521C378.59 92.6587 379.192 92.0835 379.904 91.6772L381.246 90.9111C381.553 90.7362 381.877 90.5942 382.213 90.4876L384.815 89.6627C385.053 89.5872 385.297 89.5297 385.543 89.4906L387.912 89.1152C388.393 89.0388 388.884 89.0334 389.368 89.0991L391.91 89.4446C392.421 89.514 392.919 89.6621 393.384 89.8836L393.683 90.0258C394.538 90.4323 395.26 91.073 395.765 91.8734L396.505 93.0457C396.651 93.278 396.778 93.522 396.885 93.7751L397.065 94.203C397.586 95.4427 397.586 96.8402 397.065 98.0799L396.932 98.3949C396.794 98.7228 396.622 99.0351 396.418 99.3264L395.731 100.305C395.625 100.457 395.486 100.584 395.325 100.676C394.351 101.232 394.536 102.688 395.618 102.982L396.342 103.179C396.593 103.247 396.823 103.377 397.012 103.556L397.541 104.059C398.14 104.629 398.569 105.355 398.779 106.155L398.871 106.503C398.98 106.918 399.047 107.36 398.857 107.744C398.635 108.191 398.174 108.773 397.302 109.326C396.616 109.761 396.751 110.799 397.525 111.044L399.035 111.523C399.805 111.706 401.23 112.402 400.768 113.72C400.542 114.365 400.399 114.773 400.312 115.022C400.231 115.253 400.133 115.477 400.019 115.694L399.344 116.979C399.139 117.367 398.873 117.72 398.554 118.023L397.541 118.987C397.389 119.132 397.302 119.333 397.302 119.544C397.302 119.968 397.647 120.312 398.071 120.312H399.366C399.895 120.312 400.404 120.516 400.788 120.881L401.923 121.961L402.282 122.302C402.791 122.786 403.078 123.456 403.078 124.158C403.078 124.859 402.791 125.53 402.282 126.014L401.452 126.803C401 127.233 400.471 127.575 399.894 127.81L397.599 128.746C397.021 128.981 396.458 129.287 395.861 129.468C395.153 129.682 393.967 129.948 392.104 130.201C388.869 130.64 388.061 130.75 388.061 130.75H384.595L380.552 130.201H377.059C376.317 130.201 375.583 130.035 374.912 129.716L373.621 129.102L371.888 128.003L370.861 127.352C370.399 127.059 370.021 126.649 369.766 126.165L369.648 125.941C369.242 125.168 369.242 124.246 369.648 123.474C369.973 122.856 370.528 122.392 371.193 122.181L371.472 122.092C371.748 122.005 372.012 121.882 372.256 121.727L373.546 120.909C373.596 120.878 373.649 120.853 373.705 120.835C374.295 120.648 374.351 119.836 373.792 119.57L372.214 118.82C372 118.718 371.817 118.563 371.681 118.369L371.352 117.9C370.963 117.346 370.866 116.637 371.09 115.998C371.233 115.588 371.5 115.233 371.853 114.981L373.545 113.774C373.596 113.738 373.649 113.707 373.705 113.681C374.542 113.282 374.493 112.075 373.627 111.745L373.378 111.65C373.16 111.567 372.972 111.421 372.838 111.23L372.473 110.71C372.092 110.167 371.864 109.514 371.98 108.86C372.063 108.392 372.212 107.919 372.466 107.678C372.928 107.238 374.583 106.03 375.354 105.48L377.086 104.382L379.397 103.283Z" stroke="#53A934"/>
<g filter="url(#filter5_d_193_1408)">
<path d="M164 59.7818L170.947 44H182.526L176.158 55.8364H186L169.789 75L173.842 59.7818H164Z" fill="url(#paint0_linear_193_1408)" shape-rendering="crispEdges"/>
<path d="M164 59.7818L170.947 44H182.526L176.158 55.8364H186L169.789 75L173.842 59.7818H164Z" stroke="white" stroke-opacity="0.3" shape-rendering="crispEdges"/>
</g>
<path d="M203 148.556L244.581 133L366.435 136.333L386.647 139.111L393 145.222V157.444L388.957 163L370.477 160.222H346.799L307.529 157.444L261.906 160.222H226.1H211.663L203 151.889V148.556Z" fill="#038699" fill-opacity="0.3"/>
<g filter="url(#filter6_d_193_1408)">
<path d="M59 18.7818L65.9474 3H77.5263L71.1579 14.8364H81L64.7895 34L68.8421 18.7818H59Z" fill="url(#paint1_linear_193_1408)" shape-rendering="crispEdges"/>
<path d="M59 18.7818L65.9474 3H77.5263L71.1579 14.8364H81L64.7895 34L68.8421 18.7818H59Z" stroke="white" stroke-opacity="0.3" shape-rendering="crispEdges"/>
</g>
<path d="M249.981 126.401V92.105H350.021V126.401H249.981Z" fill="#308FAD" stroke="#2785A1" stroke-width="0.5"/>
<path d="M255.552 120.953V98.6667H343.583V120.953H255.552Z" fill="#8FD3E4" stroke="white" stroke-width="4"/>
<path d="M299.258 98.7905V121.324" stroke="white" stroke-width="4"/>
<path d="M283.782 98.6667C284.079 116.397 284.153 120.829 284.153 120.829" stroke="white" stroke-width="4"/>
<path d="M269.791 98.9146C269.791 116.446 269.791 120.829 269.791 120.829" stroke="white" stroke-width="4"/>
<path d="M328.973 98.9146C328.874 116.347 328.932 120.705 328.973 120.705" stroke="white" stroke-width="4"/>
<path d="M362.526 144.106H238.342L250.228 126.401H350.021L362.526 144.106Z" fill="#186EA2" stroke="#186EA2"/>
<path d="M314.859 99.0383C314.76 116.471 314.818 120.829 314.859 120.829" stroke="white" stroke-width="4"/>
<path d="M264.095 124.544V121.201H270.038V124.544H264.095Z" fill="#039CB0" stroke="#039CB0"/>
<path d="M253.447 124.42V121.077H259.39V124.42H253.447Z" fill="#039CB0" stroke="#039CB0"/>
<path d="M268.305 131.725V128.01H269.048V131.725H268.305Z" fill="#074379"/>
<path d="M264.343 131.725V128.01H265.086V131.725H264.343Z" fill="#074379"/>
<path d="M258.647 131.477V127.763H259.39V131.477H258.647Z" fill="#074379"/>
<path d="M254.19 131.477V127.763H254.933V131.477H254.19Z" fill="#074379"/>
<path d="M267.81 131.972V128.258H268.553V131.972H267.81Z" fill="#00529C" stroke="#00529C" stroke-width="0.5"/>
<path d="M258.152 131.725V128.01H258.895V131.725H258.152Z" fill="#00529C" stroke="#00529C" stroke-width="0.5"/>
<path d="M263.847 131.972V128.258H264.59V131.972H263.847Z" fill="#00529C" stroke="#00529C" stroke-width="0.5"/>
<path d="M253.695 131.725V128.01H254.438V131.725H253.695Z" fill="#00529C" stroke="#00529C" stroke-width="0.5"/>
<path d="M269.28 134.449C269.25 134.406 269.209 133.157 269.28 128.506H269.984V134.449H269.28Z" fill="#E3A731" stroke="#E3A731"/>
<path d="M251.753 134.201C251.724 134.158 251.683 132.909 251.753 128.258H252.457V134.201H251.753Z" fill="#E3A731" stroke="#E3A731"/>
<path d="M270.077 131.229C270.048 131.186 270.007 129.937 270.077 125.286H270.781V131.229H270.077Z" fill="#DBA12E"/>
<path d="M270.781 127.143V124.667L270.038 127.515L270.162 128.258L270.781 127.143Z" fill="#E3A731" stroke="#E3A731"/>
<path d="M251.714 127.639L252.581 124.667H270.781L270.038 127.639V128.505L251.714 128.382V127.639Z" fill="#F5B700"/>
<path d="M251.714 127.639C251.714 127.639 251.887 127.044 252.581 124.667H270.781L270.038 127.639M251.714 127.639H270.038M251.714 127.639V128.382L270.038 128.505V127.639" stroke="#F5B700"/>
<path d="M270.073 127.515H251.59" stroke="#E3A731"/>
<path d="M289.477 124.791V121.448H295.42V124.791H289.477Z" fill="#039CB0" stroke="#039CB0"/>
<path d="M278.829 124.667V121.324H284.772V124.667H278.829Z" fill="#039CB0" stroke="#039CB0"/>
<path d="M293.687 131.972V128.258H294.43V131.972H293.687Z" fill="#074379"/>
<path d="M289.725 131.972V128.258H290.468V131.972H289.725Z" fill="#074379"/>
<path d="M284.03 131.725V128.01H284.772V131.725H284.03Z" fill="#074379"/>
<path d="M279.573 131.725V128.01H280.315V131.725H279.573Z" fill="#074379"/>
<path d="M293.192 132.22V128.506H293.935V132.22H293.192Z" fill="#00529C" stroke="#00529C" stroke-width="0.5"/>
<path d="M283.534 131.972V128.258H284.277V131.972H283.534Z" fill="#00529C" stroke="#00529C" stroke-width="0.5"/>
<path d="M289.23 132.22V128.506H289.973V132.22H289.23Z" fill="#00529C" stroke="#00529C" stroke-width="0.5"/>
<path d="M279.077 131.972V128.258H279.82V131.972H279.077Z" fill="#00529C" stroke="#00529C" stroke-width="0.5"/>
<path d="M294.661 134.696C294.632 134.653 294.591 133.404 294.661 128.753H295.365V134.696H294.661Z" fill="#E3A731" stroke="#E3A731"/>
<path d="M277.135 134.449C277.106 134.406 277.065 133.157 277.135 128.506H277.839V134.449H277.135Z" fill="#E3A731" stroke="#E3A731"/>
<path d="M295.459 131.477C295.43 131.434 295.389 130.185 295.459 125.534H296.163V131.477H295.459Z" fill="#DBA12E"/>
<path d="M296.163 127.391V124.915L295.42 127.763L295.544 128.506L296.163 127.391Z" fill="#E3A731" stroke="#E3A731"/>
<path d="M277.096 127.887L277.963 124.915H296.163L295.42 127.887V128.753L277.096 128.629V127.887Z" fill="#F5B700"/>
<path d="M277.096 127.887C277.096 127.887 277.27 127.292 277.963 124.915H296.163L295.42 127.887M277.096 127.887H295.42M277.096 127.887V128.629L295.42 128.753V127.887" stroke="#F5B700"/>
<path d="M295.454 127.763H276.972" stroke="#E3A731"/>
<path d="M309.534 124.296V120.953H303.591V124.296H309.534Z" fill="#039CB0" stroke="#039CB0"/>
<path d="M320.182 124.172V120.829H314.239V124.172H320.182Z" fill="#039CB0" stroke="#039CB0"/>
<path d="M305.325 131.477V127.763H304.582V131.477H305.325Z" fill="#074379"/>
<path d="M309.287 131.477V127.763H308.544V131.477H309.287Z" fill="#074379"/>
<path d="M314.982 131.229V127.515H314.24V131.229H314.982Z" fill="#074379"/>
<path d="M319.439 131.229V127.515H318.697V131.229H319.439Z" fill="#074379"/>
<path d="M305.82 131.725V128.01H305.077V131.725H305.82Z" fill="#00529C" stroke="#00529C" stroke-width="0.5"/>
<path d="M315.478 131.477V127.763H314.735V131.477H315.478Z" fill="#00529C" stroke="#00529C" stroke-width="0.5"/>
<path d="M309.782 131.725V128.01H309.039V131.725H309.782Z" fill="#00529C" stroke="#00529C" stroke-width="0.5"/>
<path d="M319.935 131.477V127.763H319.192V131.477H319.935Z" fill="#00529C" stroke="#00529C" stroke-width="0.5"/>
<path d="M304.35 134.201C304.38 134.158 304.421 132.909 304.35 128.258H303.646V134.201H304.35Z" fill="#E3A731" stroke="#E3A731"/>
<path d="M321.877 133.953C321.906 133.91 321.947 132.661 321.877 128.01H321.173V133.953H321.877Z" fill="#E3A731" stroke="#E3A731"/>
<path d="M303.553 130.982C303.582 130.939 303.623 129.69 303.553 125.039H302.849V130.982H303.553Z" fill="#DBA12E"/>
<path d="M302.849 126.896V124.42L303.592 127.267L303.468 128.01L302.849 126.896Z" fill="#E3A731" stroke="#E3A731"/>
<path d="M321.916 127.391L321.049 124.42H302.848L303.591 127.391V128.258L321.916 128.134V127.391Z" fill="#F5B700"/>
<path d="M321.916 127.391C321.916 127.391 321.742 126.797 321.049 124.42H302.848L303.591 127.391M321.916 127.391H303.591M321.916 127.391V128.134L303.591 128.258V127.391" stroke="#F5B700"/>
<path d="M303.557 127.267H322.04" stroke="#E3A731"/>
<path d="M336.031 124.296V120.953H330.088V124.296H336.031Z" fill="#039CB0" stroke="#039CB0"/>
<path d="M346.678 124.172V120.829H340.735V124.172H346.678Z" fill="#039CB0" stroke="#039CB0"/>
<path d="M331.821 131.477V127.763H331.078V131.477H331.821Z" fill="#074379"/>
<path d="M335.783 131.477V127.763H335.04V131.477H335.783Z" fill="#074379"/>
<path d="M341.479 131.229V127.515H340.736V131.229H341.479Z" fill="#074379"/>
<path d="M345.936 131.229V127.515H345.193V131.229H345.936Z" fill="#074379"/>
<path d="M332.317 131.725V128.01H331.574V131.725H332.317Z" fill="#00529C" stroke="#00529C" stroke-width="0.5"/>
<path d="M341.974 131.477V127.763H341.231V131.477H341.974Z" fill="#00529C" stroke="#00529C" stroke-width="0.5"/>
<path d="M336.279 131.725V128.01H335.536V131.725H336.279Z" fill="#00529C" stroke="#00529C" stroke-width="0.5"/>
<path d="M346.431 131.477V127.763H345.688V131.477H346.431Z" fill="#00529C" stroke="#00529C" stroke-width="0.5"/>
<path d="M330.846 134.201C330.876 134.158 330.917 132.909 330.846 128.258H330.142V134.201H330.846Z" fill="#E3A731" stroke="#E3A731"/>
<path d="M348.373 133.953C348.403 133.91 348.444 132.661 348.373 128.01H347.669V133.953H348.373Z" fill="#E3A731" stroke="#E3A731"/>
<path d="M330.049 130.982C330.078 130.939 330.119 129.69 330.049 125.039H329.345V130.982H330.049Z" fill="#DBA12E"/>
<path d="M329.345 126.896V124.42L330.088 127.267L329.964 128.01L329.345 126.896Z" fill="#E3A731" stroke="#E3A731"/>
<path d="M348.412 127.391L347.545 124.42H329.345L330.088 127.391V128.258L348.412 128.134V127.391Z" fill="#F5B700"/>
<path d="M348.412 127.391C348.412 127.391 348.239 126.797 347.545 124.42H329.345L330.088 127.391M348.412 127.391H330.088M348.412 127.391V128.134L330.088 128.258V127.391" stroke="#F5B700"/>
<path d="M330.053 127.267H348.536" stroke="#E3A731"/>
<path d="M261.743 130.734V127.391H267.686V130.734H261.743Z" fill="#039CB0" stroke="#039CB0"/>
<path d="M251.094 130.61V127.267H257.037V130.61H251.094Z" fill="#039CB0" stroke="#039CB0"/>
<path d="M265.952 137.915V134.201H266.695V137.915H265.952Z" fill="#074379"/>
<path d="M261.99 137.915V134.201H262.733V137.915H261.99Z" fill="#074379"/>
<path d="M256.295 137.667V133.953H257.038V137.667H256.295Z" fill="#074379"/>
<path d="M251.837 137.667V133.953H252.58V137.667H251.837Z" fill="#074379"/>
<path d="M265.457 138.163V134.448H266.2V138.163H265.457Z" fill="#00529C" stroke="#00529C" stroke-width="0.5"/>
<path d="M255.799 137.915V134.201H256.542V137.915H255.799Z" fill="#00529C" stroke="#00529C" stroke-width="0.5"/>
<path d="M261.495 138.163V134.448H262.238V138.163H261.495Z" fill="#00529C" stroke="#00529C" stroke-width="0.5"/>
<path d="M251.342 137.915V134.201H252.085V137.915H251.342Z" fill="#00529C" stroke="#00529C" stroke-width="0.5"/>
<path d="M266.927 140.639C266.897 140.596 266.856 139.347 266.927 134.696H267.631V140.639H266.927Z" fill="#E3A731" stroke="#E3A731"/>
<path d="M249.4 140.391C249.371 140.348 249.33 139.099 249.4 134.448H250.104V140.391H249.4Z" fill="#E3A731" stroke="#E3A731"/>
<path d="M267.724 137.42C267.695 137.377 267.654 136.128 267.724 131.477H268.428V137.42H267.724Z" fill="#DBA12E"/>
<path d="M268.428 133.334V130.858L267.686 133.706L267.809 134.448L268.428 133.334Z" fill="#E3A731" stroke="#E3A731"/>
<path d="M249.361 133.829L250.228 130.858H268.428L267.686 133.829V134.696L249.361 134.572V133.829Z" fill="#F5B700"/>
<path d="M249.361 133.829C249.361 133.829 249.535 133.235 250.228 130.858H268.428L267.686 133.829M249.361 133.829H267.686M249.361 133.829V134.572L267.686 134.696V133.829" stroke="#F5B700"/>
<path d="M267.72 133.706H249.238" stroke="#E3A731"/>
<path d="M287.125 130.982V127.639H293.067V130.982H287.125Z" fill="#039CB0" stroke="#039CB0"/>
<path d="M276.477 130.858V127.515H282.42V130.858H276.477Z" fill="#039CB0" stroke="#039CB0"/>
<path d="M291.334 138.163V134.448H292.077V138.163H291.334Z" fill="#074379"/>
<path d="M287.372 138.163V134.448H288.115V138.163H287.372Z" fill="#074379"/>
<path d="M281.677 137.915V134.201H282.42V137.915H281.677Z" fill="#074379"/>
<path d="M277.22 137.915V134.201H277.963V137.915H277.22Z" fill="#074379"/>
<path d="M290.839 138.41V134.696H291.582V138.41H290.839Z" fill="#00529C" stroke="#00529C" stroke-width="0.5"/>
<path d="M281.182 138.163V134.448H281.925V138.163H281.182Z" fill="#00529C" stroke="#00529C" stroke-width="0.5"/>
<path d="M286.877 138.41V134.696H287.62V138.41H286.877Z" fill="#00529C" stroke="#00529C" stroke-width="0.5"/>
<path d="M276.725 138.163V134.448H277.467V138.163H276.725Z" fill="#00529C" stroke="#00529C" stroke-width="0.5"/>
<path d="M292.309 140.887C292.28 140.843 292.238 139.595 292.309 134.944H293.013V140.887H292.309Z" fill="#E3A731" stroke="#E3A731"/>
<path d="M274.782 140.639C274.753 140.596 274.712 139.347 274.782 134.696H275.486V140.639H274.782Z" fill="#E3A731" stroke="#E3A731"/>
<path d="M293.106 137.668C293.077 137.625 293.036 136.376 293.106 131.725H293.811V137.668H293.106Z" fill="#DBA12E"/>
<path d="M293.811 133.582V131.105L293.068 133.953L293.191 134.696L293.811 133.582Z" fill="#E3A731" stroke="#E3A731"/>
<path d="M274.743 134.077L275.61 131.105H293.81L293.067 134.077V134.944L274.743 134.82V134.077Z" fill="#F5B700"/>
<path d="M274.743 134.077C274.743 134.077 274.917 133.483 275.61 131.105H293.81L293.067 134.077M274.743 134.077H293.067M274.743 134.077V134.82L293.067 134.944V134.077" stroke="#F5B700"/>
<path d="M293.102 133.953H274.62" stroke="#E3A731"/>
<path d="M310.277 130.734V127.391H304.334V130.734H310.277Z" fill="#039CB0" stroke="#039CB0"/>
<path d="M320.925 130.61V127.267H314.982V130.61H320.925Z" fill="#039CB0" stroke="#039CB0"/>
<path d="M306.068 137.915V134.201H305.325V137.915H306.068Z" fill="#074379"/>
<path d="M310.03 137.915V134.201H309.287V137.915H310.03Z" fill="#074379"/>
<path d="M315.725 137.667V133.953H314.982V137.667H315.725Z" fill="#074379"/>
<path d="M320.182 137.667V133.953H319.439V137.667H320.182Z" fill="#074379"/>
<path d="M306.563 138.163V134.448H305.82V138.163H306.563Z" fill="#00529C" stroke="#00529C" stroke-width="0.5"/>
<path d="M316.22 137.915V134.201H315.478V137.915H316.22Z" fill="#00529C" stroke="#00529C" stroke-width="0.5"/>
<path d="M310.525 138.163V134.448H309.782V138.163H310.525Z" fill="#00529C" stroke="#00529C" stroke-width="0.5"/>
<path d="M320.677 137.915V134.201H319.935V137.915H320.677Z" fill="#00529C" stroke="#00529C" stroke-width="0.5"/>
<path d="M305.093 140.639C305.123 140.596 305.164 139.347 305.093 134.696H304.389V140.639H305.093Z" fill="#E3A731" stroke="#E3A731"/>
<path d="M322.62 140.391C322.649 140.348 322.69 139.099 322.62 134.448H321.916V140.391H322.62Z" fill="#E3A731" stroke="#E3A731"/>
<path d="M304.296 137.42C304.325 137.377 304.366 136.128 304.296 131.477H303.592V137.42H304.296Z" fill="#DBA12E"/>
<path d="M303.592 133.334V130.858L304.334 133.706L304.211 134.448L303.592 133.334Z" fill="#E3A731" stroke="#E3A731"/>
<path d="M322.658 133.829L321.792 130.858H303.591L304.334 133.829V134.696L322.658 134.572V133.829Z" fill="#F5B700"/>
<path d="M322.658 133.829C322.658 133.829 322.485 133.235 321.792 130.858H303.591L304.334 133.829M322.658 133.829H304.334M322.658 133.829V134.572L304.334 134.696V133.829" stroke="#F5B700"/>
<path d="M304.3 133.706H322.782" stroke="#E3A731"/>
<path d="M338.012 130.734V127.391H332.069V130.734H338.012Z" fill="#039CB0" stroke="#039CB0"/>
<path d="M348.66 130.61V127.267H342.717V130.61H348.66Z" fill="#039CB0" stroke="#039CB0"/>
<path d="M333.802 137.915V134.201H333.06V137.915H333.802Z" fill="#074379"/>
<path d="M337.764 137.915V134.201H337.021V137.915H337.764Z" fill="#074379"/>
<path d="M343.46 137.667V133.953H342.717V137.667H343.46Z" fill="#074379"/>
<path d="M347.917 137.667V133.953H347.174V137.667H347.917Z" fill="#074379"/>
<path d="M334.298 138.163V134.448H333.555V138.163H334.298Z" fill="#00529C" stroke="#00529C" stroke-width="0.5"/>
<path d="M343.955 137.915V134.201H343.212V137.915H343.955Z" fill="#00529C" stroke="#00529C" stroke-width="0.5"/>
<path d="M338.26 138.163V134.448H337.517V138.163H338.26Z" fill="#00529C" stroke="#00529C" stroke-width="0.5"/>
<path d="M348.412 137.915V134.201H347.669V137.915H348.412Z" fill="#00529C" stroke="#00529C" stroke-width="0.5"/>
<path d="M332.828 140.639C332.857 140.596 332.898 139.347 332.828 134.696H332.124V140.639H332.828Z" fill="#E3A731" stroke="#E3A731"/>
<path d="M350.354 140.391C350.384 140.348 350.425 139.099 350.354 134.448H349.65V140.391H350.354Z" fill="#E3A731" stroke="#E3A731"/>
<path d="M332.03 137.42C332.06 137.377 332.101 136.128 332.03 131.477H331.326V137.42H332.03Z" fill="#DBA12E"/>
<path d="M331.326 133.334V130.858L332.069 133.706L331.945 134.448L331.326 133.334Z" fill="#E3A731" stroke="#E3A731"/>
<path d="M350.393 133.829L349.526 130.858H331.326L332.069 133.829V134.696L350.393 134.572V133.829Z" fill="#F5B700"/>
<path d="M350.393 133.829C350.393 133.829 350.22 133.235 349.526 130.858H331.326L332.069 133.829M350.393 133.829H332.069M350.393 133.829V134.572L332.069 134.696V133.829" stroke="#F5B700"/>
<path d="M332.034 133.706H350.517" stroke="#E3A731"/>
<path d="M238.343 143.858H235.247V107.086L248.124 90H352.374L365.622 107.457V143.734H362.279V107.457L350.764 91.981H249.857L238.343 107.086V143.858Z" fill="#186EA2" stroke="#186EA2"/>
<path d="M249.981 91.981L238.342 107.21V143.858L249.981 126.401V91.981Z" fill="#308FAD" stroke="#2785A1"/>
<path d="M249.485 99.905L241.685 110.8V135.439L249.485 123.924V99.905Z" fill="#8FD3E4" fill-opacity="0.8" stroke="white" stroke-width="3"/>
<path d="M245.4 105.724L246.143 128.753" stroke="white" stroke-width="3" stroke-linecap="round"/>
<path d="M241.438 131.972L248.81 101.131C248.843 100.993 248.967 100.896 249.108 100.896C249.303 100.896 249.448 101.074 249.408 101.265L242.428 134.696C242.074 134.696 241.773 134.434 241.726 134.083L241.438 131.972Z" fill="white" fill-opacity="0.2"/>
<path d="M255.428 114.886L281.305 99.0383H284.029L255.428 120.458V114.886Z" fill="white" fill-opacity="0.2"/>
<path d="M314.735 114.978L341.172 99.0383H343.955L314.735 120.582V114.978Z" fill="white" fill-opacity="0.2"/>
<path d="M350.145 126.401V92.2288V92.105H350.764L362.279 107.581V143.858L350.145 126.401Z" fill="#308FAD" stroke="#308FAD"/>
<path d="M352.126 98.5427L359.926 109.438V134.077L352.126 122.562V98.5427Z" fill="#8FD3E4" fill-opacity="0.8" stroke="white" stroke-width="3"/>
<path d="M356.211 104.362L355.469 127.391" stroke="white" stroke-width="3" stroke-linecap="round"/>
<path d="M360.174 130.61L352.801 99.7687C352.768 99.6308 352.645 99.5334 352.503 99.5334C352.308 99.5334 352.163 99.7123 352.203 99.9026L359.183 133.334C359.538 133.334 359.838 133.072 359.886 132.721L360.174 130.61Z" fill="white" fill-opacity="0.2"/>
<path d="M235.062 148.563V144.072L365.807 143.858V148.563H235.062Z" fill="#074379" stroke="#074379"/>
<path d="M365.746 153.268V148.777L235 148.563V153.268H365.746Z" fill="#E3A731" stroke="#E3A731"/>
<g filter="url(#filter7_d_193_1408)">
<path d="M239 98.7818L245.947 83H257.526L251.158 94.8364H261L244.789 114L248.842 98.7818H239Z" fill="url(#paint2_linear_193_1408)" shape-rendering="crispEdges"/>
<path d="M239 98.7818L245.947 83H257.526L251.158 94.8364H261L244.789 114L248.842 98.7818H239Z" stroke="white" stroke-opacity="0.3" shape-rendering="crispEdges"/>
</g>
<g filter="url(#filter8_d_193_1408)">
<path d="M412 49.7818L418.947 34H430.526L424.158 45.8364H434L417.789 65L421.842 49.7818H412Z" fill="url(#paint3_linear_193_1408)" shape-rendering="crispEdges"/>
<path d="M412 49.7818L418.947 34H430.526L424.158 45.8364H434L417.789 65L421.842 49.7818H412Z" stroke="white" stroke-opacity="0.3" shape-rendering="crispEdges"/>
</g>
<defs>
<filter id="filter0_d_193_1408" x="0" y="0" width="463" height="174" filterUnits="userSpaceOnUse" color-interpolation-filters="sRGB">
<feFlood flood-opacity="0" result="BackgroundImageFix"/>
<feColorMatrix in="SourceAlpha" type="matrix" values="0 0 0 0 0 0 0 0 0 0 0 0 0 0 0 0 0 0 127 0" result="hardAlpha"/>
<feOffset dy="4"/>
<feGaussianBlur stdDeviation="2"/>
<feComposite in2="hardAlpha" operator="out"/>
<feColorMatrix type="matrix" values="0 0 0 0 0 0 0 0 0 0 0 0 0 0 0 0 0 0 0.25 0"/>
<feBlend mode="normal" in2="BackgroundImageFix" result="effect1_dropShadow_193_1408"/>
<feBlend mode="normal" in="SourceGraphic" in2="effect1_dropShadow_193_1408" result="shape"/>
</filter>
<filter id="filter1_d_193_1408" x="53.0283" y="81.3787" width="127.085" height="76.2468" filterUnits="userSpaceOnUse" color-interpolation-filters="sRGB">
<feFlood flood-opacity="0" result="BackgroundImageFix"/>
<feColorMatrix in="SourceAlpha" type="matrix" values="0 0 0 0 0 0 0 0 0 0 0 0 0 0 0 0 0 0 127 0" result="hardAlpha"/>
<feOffset dy="2"/>
<feGaussianBlur stdDeviation="2"/>
<feComposite in2="hardAlpha" operator="out"/>
<feColorMatrix type="matrix" values="0 0 0 0 0 0 0 0 0 0 0 0 0 0 0 0 0 0 0.15 0"/>
<feBlend mode="normal" in2="BackgroundImageFix" result="effect1_dropShadow_193_1408"/>
<feBlend mode="normal" in="SourceGraphic" in2="effect1_dropShadow_193_1408" result="shape"/>
</filter>
<filter id="filter2_i_193_1408" x="33.8184" y="88.5042" width="34.7344" height="46.6965" filterUnits="userSpaceOnUse" color-interpolation-filters="sRGB">
<feFlood flood-opacity="0" result="BackgroundImageFix"/>
<feBlend mode="normal" in="SourceGraphic" in2="BackgroundImageFix" result="shape"/>
<feColorMatrix in="SourceAlpha" type="matrix" values="0 0 0 0 0 0 0 0 0 0 0 0 0 0 0 0 0 0 127 0" result="hardAlpha"/>
<feOffset dy="4"/>
<feGaussianBlur stdDeviation="2"/>
<feComposite in2="hardAlpha" operator="arithmetic" k2="-1" k3="1"/>
<feColorMatrix type="matrix" values="0 0 0 0 0.32549 0 0 0 0 0.662745 0 0 0 0 0.203922 0 0 0 1 0"/>
<feBlend mode="normal" in2="shape" result="effect1_innerShadow_193_1408"/>
</filter>
<filter id="filter3_i_193_1408" x="185.039" y="94.5469" width="34.7344" height="46.6965" filterUnits="userSpaceOnUse" color-interpolation-filters="sRGB">
<feFlood flood-opacity="0" result="BackgroundImageFix"/>
<feBlend mode="normal" in="SourceGraphic" in2="BackgroundImageFix" result="shape"/>
<feColorMatrix in="SourceAlpha" type="matrix" values="0 0 0 0 0 0 0 0 0 0 0 0 0 0 0 0 0 0 127 0" result="hardAlpha"/>
<feOffset dy="4"/>
<feGaussianBlur stdDeviation="2"/>
<feComposite in2="hardAlpha" operator="arithmetic" k2="-1" k3="1"/>
<feColorMatrix type="matrix" values="0 0 0 0 0.32549 0 0 0 0 0.662745 0 0 0 0 0.203922 0 0 0 1 0"/>
<feBlend mode="normal" in2="shape" result="effect1_innerShadow_193_1408"/>
</filter>
<filter id="filter4_i_193_1408" x="368.844" y="88.5535" width="34.7344" height="46.6965" filterUnits="userSpaceOnUse" color-interpolation-filters="sRGB">
<feFlood flood-opacity="0" result="BackgroundImageFix"/>
<feBlend mode="normal" in="SourceGraphic" in2="BackgroundImageFix" result="shape"/>
<feColorMatrix in="SourceAlpha" type="matrix" values="0 0 0 0 0 0 0 0 0 0 0 0 0 0 0 0 0 0 127 0" result="hardAlpha"/>
<feOffset dy="4"/>
<feGaussianBlur stdDeviation="2"/>
<feComposite in2="hardAlpha" operator="arithmetic" k2="-1" k3="1"/>
<feColorMatrix type="matrix" values="0 0 0 0 0.32549 0 0 0 0 0.662745 0 0 0 0 0.203922 0 0 0 1 0"/>
<feBlend mode="normal" in2="shape" result="effect1_innerShadow_193_1408"/>
</filter>
<filter id="filter5_d_193_1408" x="159.234" y="43.5" width="31.8442" height="39.823" filterUnits="userSpaceOnUse" color-interpolation-filters="sRGB">
<feFlood flood-opacity="0" result="BackgroundImageFix"/>
<feColorMatrix in="SourceAlpha" type="matrix" values="0 0 0 0 0 0 0 0 0 0 0 0 0 0 0 0 0 0 127 0" result="hardAlpha"/>
<feOffset dy="4"/>
<feGaussianBlur stdDeviation="2"/>
<feComposite in2="hardAlpha" operator="out"/>
<feColorMatrix type="matrix" values="0 0 0 0 1 0 0 0 0 0.906397 0 0 0 0 0.628934 0 0 0 1 0"/>
<feBlend mode="normal" in2="BackgroundImageFix" result="effect1_dropShadow_193_1408"/>
<feBlend mode="normal" in="SourceGraphic" in2="effect1_dropShadow_193_1408" result="shape"/>
</filter>
<filter id="filter6_d_193_1408" x="54.2336" y="2.5" width="31.8442" height="39.823" filterUnits="userSpaceOnUse" color-interpolation-filters="sRGB">
<feFlood flood-opacity="0" result="BackgroundImageFix"/>
<feColorMatrix in="SourceAlpha" type="matrix" values="0 0 0 0 0 0 0 0 0 0 0 0 0 0 0 0 0 0 127 0" result="hardAlpha"/>
<feOffset dy="4"/>
<feGaussianBlur stdDeviation="2"/>
<feComposite in2="hardAlpha" operator="out"/>
<feColorMatrix type="matrix" values="0 0 0 0 1 0 0 0 0 0.906397 0 0 0 0 0.628934 0 0 0 1 0"/>
<feBlend mode="normal" in2="BackgroundImageFix" result="effect1_dropShadow_193_1408"/>
<feBlend mode="normal" in="SourceGraphic" in2="effect1_dropShadow_193_1408" result="shape"/>
</filter>
<filter id="filter7_d_193_1408" x="234.234" y="82.5" width="31.8442" height="39.823" filterUnits="userSpaceOnUse" color-interpolation-filters="sRGB">
<feFlood flood-opacity="0" result="BackgroundImageFix"/>
<feColorMatrix in="SourceAlpha" type="matrix" values="0 0 0 0 0 0 0 0 0 0 0 0 0 0 0 0 0 0 127 0" result="hardAlpha"/>
<feOffset dy="4"/>
<feGaussianBlur stdDeviation="2"/>
<feComposite in2="hardAlpha" operator="out"/>
<feColorMatrix type="matrix" values="0 0 0 0 1 0 0 0 0 0.906397 0 0 0 0 0.628934 0 0 0 1 0"/>
<feBlend mode="normal" in2="BackgroundImageFix" result="effect1_dropShadow_193_1408"/>
<feBlend mode="normal" in="SourceGraphic" in2="effect1_dropShadow_193_1408" result="shape"/>
</filter>
<filter id="filter8_d_193_1408" x="407.234" y="33.5" width="31.8442" height="39.823" filterUnits="userSpaceOnUse" color-interpolation-filters="sRGB">
<feFlood flood-opacity="0" result="BackgroundImageFix"/>
<feColorMatrix in="SourceAlpha" type="matrix" values="0 0 0 0 0 0 0 0 0 0 0 0 0 0 0 0 0 0 127 0" result="hardAlpha"/>
<feOffset dy="4"/>
<feGaussianBlur stdDeviation="2"/>
<feComposite in2="hardAlpha" operator="out"/>
<feColorMatrix type="matrix" values="0 0 0 0 1 0 0 0 0 0.906397 0 0 0 0 0.628934 0 0 0 1 0"/>
<feBlend mode="normal" in2="BackgroundImageFix" result="effect1_dropShadow_193_1408"/>
<feBlend mode="normal" in="SourceGraphic" in2="effect1_dropShadow_193_1408" result="shape"/>
</filter>
<linearGradient id="paint0_linear_193_1408" x1="175" y1="44" x2="175" y2="75" gradientUnits="userSpaceOnUse">
<stop stop-color="#FFE7A0"/>
<stop offset="0.6875" stop-color="#F5B700"/>
</linearGradient>
<linearGradient id="paint1_linear_193_1408" x1="70" y1="3" x2="70" y2="34" gradientUnits="userSpaceOnUse">
<stop stop-color="#FFE7A0"/>
<stop offset="0.6875" stop-color="#F5B700"/>
</linearGradient>
<linearGradient id="paint2_linear_193_1408" x1="250" y1="83" x2="250" y2="114" gradientUnits="userSpaceOnUse">
<stop stop-color="#FFE7A0"/>
<stop offset="0.6875" stop-color="#F5B700"/>
</linearGradient>
<linearGradient id="paint3_linear_193_1408" x1="423" y1="34" x2="423" y2="65" gradientUnits="userSpaceOnUse">
<stop stop-color="#FFE7A0"/>
<stop offset="0.6875" stop-color="#F5B700"/>
</linearGradient>
</defs>
</svg>
