<svg width="530" height="303" viewBox="0 0 530 303" fill="none" xmlns="http://www.w3.org/2000/svg">
<path d="M58 29.0002H486V200C486 216.569 472.569 230 456 230H88C71.4315 230 58 216.569 58 200V29.0002Z" fill="#CDEBEF"/>
<path d="M59.8068 182.654L52.0195 189.502C46.001 194.795 38.8887 198.976 31.5726 195.832C30.9583 195.568 30.3218 195.274 29.6635 194.946C20.5554 190.418 16.8285 189.964 32.7219 168.312C48.6154 146.659 48.2491 165.666 53.8226 144.851C59.3961 124.035 43.692 140.128 59.3321 103.929C74.9721 67.7304 73.7695 100.313 90.2398 89.1991C106.71 78.0847 105.529 60.5642 115.998 49.8358C126.468 39.1074 135.521 50.7473 135.249 66.9743C134.978 83.2013 124.24 90.8264 106.948 104.074C93.1151 114.672 85.3937 132.621 83.2622 140.27C79.9591 157.257 71.6847 172.209 59.8068 182.654Z" fill="white" fill-opacity="0.5"/>
<path d="M400.215 107.495L394.933 116.742C390.725 124.108 387.599 132.581 390.505 140.577C390.807 141.406 391.147 142.271 391.53 143.17C395.936 153.512 396.541 157.825 414.148 138.057C431.754 118.29 415.508 119.823 432.999 112.121C450.49 104.419 437.631 123.643 467.702 103.323C497.774 83.0035 469.956 86.3013 478.51 66.4758C487.063 46.6504 502.128 47.0055 510.7 34.19C519.273 21.3745 508.784 11.5107 494.911 12.772C481.038 14.0333 475.137 26.9808 464.806 47.8866C456.54 64.6112 441.628 74.6472 435.205 77.5747C420.912 82.3921 408.484 93.0193 400.215 107.495Z" fill="white" fill-opacity="0.5"/>
<path d="M25.2149 243.963L19.9328 253.21C15.7248 260.576 12.5994 269.049 15.5051 277.045C15.8067 277.874 16.1468 278.739 16.5297 279.638C20.9359 289.98 21.5413 294.293 39.1479 274.525C56.7545 254.758 40.508 256.291 57.9991 248.589C75.4902 240.887 62.6312 260.111 92.7025 239.791C122.774 219.472 94.9564 222.769 103.51 202.944C112.063 183.118 127.128 183.474 135.7 170.658C144.273 157.843 133.784 147.979 119.911 149.24C106.038 150.501 100.137 163.449 89.8057 184.355C81.5405 201.079 66.6282 211.115 60.2052 214.043C45.9119 218.86 33.4838 229.487 25.2149 243.963Z" fill="white" fill-opacity="0.5"/>
<path d="M397.215 204.305L385.594 224.649C390 234.991 400.393 232.635 418 212.867C435.606 193.1 427.009 232.351 444.5 224.649C461.991 216.947 439.929 213.358 470 193.038C500.071 172.719 466.956 183.112 475.51 163.287C484.063 143.461 499.128 143.816 507.7 131.001C516.273 118.185 505.783 108.321 491.911 109.583C478.038 110.844 472.137 123.792 461.806 144.697C453.54 161.422 438.628 171.458 432.205 174.385C417.912 179.203 405.484 189.83 397.215 204.305Z" fill="white" fill-opacity="0.5"/>
<path d="M321.657 152.86C327.137 147.477 330.491 147.482 330.491 147.482C330.491 147.482 504.866 118.676 459.928 155.548C414.99 192.42 403.851 226.22 391.944 217.77C380.038 209.32 300.148 173.984 321.657 152.86Z" fill="#039CB0" fill-opacity="0.3"/>
<g filter="url(#filter0_i_91_4456)">
<path d="M333.288 118.429L330.595 117.04L383.79 83L446.076 123.292L395.237 157.332L392.207 155.595L442.709 123.292L383.79 86.1261L333.288 118.429Z" stroke="#038699" stroke-width="3"/>
<path d="M392.489 190.991L321.978 146.997C321.915 146.958 321.915 146.866 321.978 146.827L385.421 107.694C385.453 107.674 385.493 107.674 385.525 107.693L455.03 149.609C455.093 149.647 455.095 149.737 455.034 149.778L392.597 190.989C392.564 191.011 392.522 191.012 392.489 190.991Z" fill="#026B79"/>
<path d="M441.314 122.568L383.605 87.2613C383.539 87.2206 383.453 87.2685 383.453 87.3466V115.595C383.453 115.63 383.471 115.662 383.501 115.68L441.209 151.333C441.276 151.374 441.362 151.326 441.362 151.248V122.654C441.362 122.619 441.344 122.586 441.314 122.568Z" fill="#00A2B7" stroke="#039CB0" stroke-width="1.5"/>
<path d="M332.951 145.689V118.485C332.951 118.451 332.969 118.418 332.999 118.4L383.637 87.2619C383.704 87.2209 383.79 87.2689 383.79 87.3471V113.859C383.79 113.893 383.772 113.925 383.743 113.943L333.104 145.773C333.038 145.815 332.951 145.767 332.951 145.689Z" fill="#0D6499" stroke="#0D6499" stroke-width="1.5"/>
<g filter="url(#filter1_d_91_4456)">
<path d="M365.272 122.09V128.102C365.272 128.135 365.289 128.166 365.317 128.185L370.84 131.872C370.907 131.916 370.996 131.869 370.996 131.789V125.777C370.996 125.744 370.979 125.713 370.952 125.694L365.428 122.007C365.362 121.962 365.272 122.01 365.272 122.09Z" fill="#088FA2" stroke="#017A8B"/>
<path d="M375.036 128.667V134.053C375.036 134.087 375.054 134.119 375.082 134.137L380.269 137.436C380.336 137.478 380.423 137.43 380.423 137.351V131.366C380.423 131.329 380.402 131.294 380.369 131.277L375.182 128.578C375.116 128.544 375.036 128.592 375.036 128.667Z" fill="#088FA2" stroke="#017A8B"/>
<path d="M357.529 136.392V131.82C357.529 131.74 357.619 131.691 357.685 131.736L358.496 132.294C358.523 132.312 358.539 132.343 358.539 132.376V136.392C358.539 136.447 358.494 136.492 358.439 136.492H357.629C357.574 136.492 357.529 136.447 357.529 136.392Z" fill="#C89665" stroke="#C89665"/>
<path d="M380.277 137.609L379.814 137.847C379.776 137.867 379.754 137.91 379.761 137.952L380.224 140.819C380.244 140.94 380.423 140.926 380.423 140.803V137.698C380.423 137.623 380.344 137.574 380.277 137.609Z" stroke="#017A8B" stroke-width="0.5"/>
<path d="M375.036 145.359V142.111C375.036 142.074 375.057 142.038 375.09 142.021L375.564 141.777C375.63 141.743 375.709 141.791 375.709 141.866V145.114C375.709 145.152 375.689 145.186 375.655 145.203L375.182 145.447C375.115 145.482 375.036 145.434 375.036 145.359Z" fill="#017A8B" stroke="#017A8B" stroke-width="0.5"/>
<path d="M368.976 141.885V138.637C368.976 138.6 368.996 138.565 369.03 138.547L369.503 138.303C369.57 138.269 369.649 138.317 369.649 138.392V141.641C369.649 141.678 369.628 141.712 369.595 141.729L369.121 141.974C369.055 142.008 368.976 141.96 368.976 141.885Z" fill="#017A8B" stroke="#017A8B" stroke-width="0.5"/>
<path d="M363.589 138.412V135.164C363.589 135.127 363.61 135.091 363.643 135.074L364.116 134.83C364.183 134.796 364.262 134.844 364.262 134.919V138.167C364.262 138.205 364.241 138.239 364.208 138.256L363.735 138.5C363.668 138.535 363.589 138.487 363.589 138.412Z" fill="#017A8B" stroke="#017A8B" stroke-width="0.5"/>
<path d="M359.549 136.328V133.08C359.549 133.043 359.57 133.007 359.603 132.99L360.076 132.746C360.143 132.712 360.222 132.76 360.222 132.835V136.083C360.222 136.121 360.201 136.155 360.168 136.172L359.695 136.416C359.628 136.451 359.549 136.403 359.549 136.328Z" fill="#017A8B" stroke="#017A8B" stroke-width="0.5"/>
<path d="M379.076 141.95V137.676C379.076 137.607 379.144 137.557 379.209 137.579L380.019 137.858C380.059 137.871 380.086 137.909 380.086 137.952V141.949C380.086 142.004 380.041 142.049 379.986 142.049H379.176C379.121 142.049 379.076 142.005 379.076 141.95Z" fill="#C89665" stroke="#C89665"/>
<path d="M373.353 146.812V142.538C373.353 142.47 373.42 142.419 373.485 142.442L374.295 142.72C374.335 142.734 374.363 142.772 374.363 142.815V146.812C374.363 146.867 374.318 146.912 374.263 146.912H373.453C373.397 146.912 373.353 146.868 373.353 146.812Z" fill="#C89665" stroke="#C89665"/>
<path d="M357.65 131.545L363.533 127.499C363.567 127.476 363.61 127.475 363.644 127.498C368.916 131.047 379.126 137.547 380.023 137.876C380.064 137.86 380.086 137.861 380.086 137.881C380.086 137.893 380.065 137.891 380.023 137.876C379.493 138.08 375.778 141.063 374.083 142.689C374.049 142.721 373.998 142.725 373.959 142.698L357.651 131.711C357.592 131.671 357.592 131.585 357.65 131.545Z" fill="#F1BA4D"/>
<path d="M380.086 137.881C380.086 137.606 375.91 140.936 374.083 142.689C374.049 142.721 373.998 142.725 373.959 142.698L357.651 131.711C357.592 131.671 357.592 131.585 357.65 131.545L363.533 127.499C363.567 127.476 363.61 127.475 363.644 127.498C369.161 131.212 380.086 138.158 380.086 137.881Z" stroke="#F1BA4D"/>
</g>
<g filter="url(#filter2_d_91_4456)">
<path d="M348.438 132.51V138.522C348.438 138.555 348.455 138.587 348.483 138.605L354.007 142.292C354.073 142.337 354.162 142.289 354.162 142.209V136.198C354.162 136.164 354.145 136.133 354.118 136.114L348.594 132.427C348.528 132.383 348.438 132.43 348.438 132.51Z" fill="#088FA2" stroke="#017A8B"/>
<path d="M358.202 139.088V144.473C358.202 144.508 358.22 144.539 358.248 144.558L363.435 147.856C363.502 147.898 363.589 147.851 363.589 147.772V141.786C363.589 141.749 363.568 141.715 363.535 141.698L358.348 138.999C358.282 138.964 358.202 139.013 358.202 139.088Z" fill="#088FA2" stroke="#017A8B"/>
<path d="M340.695 146.812V142.241C340.695 142.16 340.785 142.111 340.851 142.157L341.662 142.714C341.689 142.732 341.705 142.763 341.705 142.796V146.812C341.705 146.867 341.66 146.912 341.605 146.912H340.795C340.74 146.912 340.695 146.867 340.695 146.812Z" fill="#C89665" stroke="#C89665"/>
<path d="M363.443 148.029L362.98 148.268C362.942 148.288 362.92 148.33 362.927 148.373L363.39 151.239C363.41 151.361 363.589 151.346 363.589 151.223V148.118C363.589 148.043 363.51 147.995 363.443 148.029Z" stroke="#017A8B" stroke-width="0.5"/>
<path d="M358.202 155.779V152.531C358.202 152.494 358.223 152.458 358.256 152.441L358.73 152.197C358.796 152.163 358.876 152.211 358.876 152.286V155.534C358.876 155.572 358.855 155.606 358.821 155.623L358.348 155.867C358.281 155.902 358.202 155.854 358.202 155.779Z" fill="#017A8B" stroke="#017A8B" stroke-width="0.5"/>
<path d="M352.142 152.306V149.058C352.142 149.021 352.163 148.985 352.196 148.968L352.67 148.724C352.736 148.69 352.815 148.738 352.815 148.813V152.061C352.815 152.099 352.795 152.133 352.761 152.15L352.288 152.394C352.221 152.429 352.142 152.381 352.142 152.306Z" fill="#017A8B" stroke="#017A8B" stroke-width="0.5"/>
<path d="M346.755 148.832V145.584C346.755 145.547 346.776 145.512 346.809 145.494L347.282 145.25C347.349 145.216 347.428 145.264 347.428 145.339V148.588C347.428 148.625 347.407 148.659 347.374 148.676L346.901 148.921C346.834 148.955 346.755 148.907 346.755 148.832Z" fill="#017A8B" stroke="#017A8B" stroke-width="0.5"/>
<path d="M342.715 146.748V143.5C342.715 143.463 342.736 143.427 342.769 143.41L343.242 143.166C343.309 143.132 343.388 143.18 343.388 143.255V146.503C343.388 146.541 343.367 146.575 343.334 146.592L342.861 146.836C342.794 146.871 342.715 146.823 342.715 146.748Z" fill="#017A8B" stroke="#017A8B" stroke-width="0.5"/>
<path d="M362.243 152.37V148.096C362.243 148.027 362.31 147.977 362.375 147.999L363.185 148.278C363.226 148.292 363.253 148.33 363.253 148.373V152.369C363.253 152.425 363.208 152.469 363.153 152.469H362.343C362.287 152.469 362.243 152.425 362.243 152.37Z" fill="#C89665" stroke="#C89665"/>
<path d="M356.519 157.233V152.959C356.519 152.89 356.586 152.84 356.651 152.862L357.461 153.141C357.501 153.155 357.529 153.193 357.529 153.235V157.232C357.529 157.287 357.484 157.332 357.429 157.332H356.619C356.563 157.332 356.519 157.288 356.519 157.233Z" fill="#C89665" stroke="#C89665"/>
<path d="M340.816 141.966L346.699 137.919C346.733 137.896 346.776 137.895 346.81 137.918C352.082 141.467 362.292 147.967 363.189 148.296C363.23 148.28 363.252 148.281 363.252 148.301C363.252 148.314 363.231 148.312 363.189 148.296C362.66 148.501 358.944 151.484 357.249 153.109C357.215 153.142 357.164 153.145 357.125 153.119L340.817 142.131C340.758 142.092 340.758 142.006 340.816 141.966Z" fill="#F1BA4D"/>
<path d="M363.252 148.301C363.252 148.026 359.076 151.357 357.249 153.109C357.215 153.142 357.164 153.145 357.125 153.119L340.817 142.131C340.758 142.092 340.758 142.006 340.816 141.966L346.699 137.919C346.733 137.896 346.776 137.895 346.81 137.918C352.327 141.632 363.252 148.578 363.252 148.301Z" stroke="#F1BA4D"/>
</g>
<path d="M329.941 117.26C330.39 117.499 331.288 117.87 332.769 118.06C332.872 118.073 332.949 118.161 332.947 118.265L332.287 146.516C332.283 146.68 332.095 146.77 331.965 146.67L329.662 144.888C329.613 144.85 329.584 144.792 329.584 144.73V117.46C329.584 117.291 329.792 117.182 329.941 117.26Z" fill="#038699" stroke="#038699"/>
<g filter="url(#filter3_d_91_4456)">
<path d="M382.78 109.585V115.597C382.78 115.63 382.796 115.662 382.824 115.68L388.348 119.367C388.414 119.412 388.503 119.364 388.503 119.284V113.272C388.503 113.239 388.487 113.208 388.459 113.189L382.935 109.502C382.869 109.458 382.78 109.505 382.78 109.585Z" fill="#088FA2" stroke="#017A8B"/>
<path d="M392.543 116.163V121.549C392.543 121.583 392.561 121.615 392.59 121.633L397.777 124.931C397.843 124.974 397.93 124.926 397.93 124.847V118.861C397.93 118.824 397.91 118.79 397.876 118.773L392.69 116.074C392.623 116.039 392.543 116.088 392.543 116.163Z" fill="#088FA2" stroke="#017A8B"/>
<path d="M375.036 123.887V119.316C375.036 119.235 375.126 119.186 375.193 119.232L376.003 119.789C376.03 119.808 376.046 119.838 376.046 119.871V123.887C376.046 123.942 376.001 123.987 375.946 123.987H375.136C375.081 123.987 375.036 123.942 375.036 123.887Z" fill="#C89665" stroke="#C89665"/>
<path d="M397.785 125.104L397.322 125.343C397.283 125.363 397.262 125.405 397.268 125.448L397.731 128.314C397.751 128.436 397.93 128.422 397.93 128.299V125.193C397.93 125.118 397.851 125.07 397.785 125.104Z" stroke="#017A8B" stroke-width="0.5"/>
<path d="M392.543 132.854V129.606C392.543 129.569 392.564 129.534 392.598 129.516L393.071 129.272C393.138 129.238 393.217 129.286 393.217 129.361V132.61C393.217 132.647 393.196 132.681 393.163 132.698L392.689 132.943C392.623 132.977 392.543 132.929 392.543 132.854Z" fill="#017A8B" stroke="#017A8B" stroke-width="0.5"/>
<path d="M386.483 129.381V126.133C386.483 126.096 386.504 126.06 386.538 126.043L387.011 125.799C387.077 125.765 387.157 125.813 387.157 125.888V129.136C387.157 129.174 387.136 129.208 387.103 129.225L386.629 129.469C386.563 129.504 386.483 129.456 386.483 129.381Z" fill="#017A8B" stroke="#017A8B" stroke-width="0.5"/>
<path d="M381.096 125.907V122.659C381.096 122.622 381.117 122.587 381.15 122.569L381.624 122.325C381.69 122.291 381.77 122.339 381.77 122.414V125.663C381.77 125.7 381.749 125.734 381.715 125.751L381.242 125.996C381.175 126.03 381.096 125.982 381.096 125.907Z" fill="#017A8B" stroke="#017A8B" stroke-width="0.5"/>
<path d="M377.056 123.823V120.575C377.056 120.538 377.077 120.503 377.11 120.485L377.584 120.241C377.65 120.207 377.73 120.255 377.73 120.33V123.579C377.73 123.616 377.709 123.65 377.675 123.667L377.202 123.912C377.135 123.946 377.056 123.898 377.056 123.823Z" fill="#017A8B" stroke="#017A8B" stroke-width="0.5"/>
<path d="M396.583 129.445V125.171C396.583 125.102 396.651 125.052 396.716 125.075L397.526 125.353C397.566 125.367 397.594 125.405 397.594 125.448V129.445C397.594 129.5 397.549 129.545 397.494 129.545H396.683C396.628 129.545 396.583 129.5 396.583 129.445Z" fill="#C89665" stroke="#C89665"/>
<path d="M390.86 134.308V130.034C390.86 129.965 390.927 129.915 390.992 129.937L391.802 130.216C391.843 130.23 391.87 130.268 391.87 130.31V134.307C391.87 134.362 391.825 134.407 391.77 134.407H390.96C390.905 134.407 390.86 134.363 390.86 134.308Z" fill="#C89665" stroke="#C89665"/>
<path d="M375.157 119.04L381.04 114.994C381.074 114.971 381.117 114.97 381.151 114.993C386.423 118.542 396.633 125.042 397.53 125.371C397.572 125.355 397.594 125.356 397.594 125.376C397.594 125.388 397.572 125.386 397.53 125.371C397.001 125.575 393.285 128.558 391.59 130.184C391.556 130.217 391.505 130.22 391.466 130.194L375.158 119.206C375.099 119.166 375.099 119.08 375.157 119.04Z" fill="#F1BA4D"/>
<path d="M397.594 125.376C397.594 125.101 393.418 128.431 391.59 130.184C391.556 130.217 391.505 130.22 391.466 130.194L375.158 119.206C375.099 119.166 375.099 119.08 375.157 119.04L381.04 114.994C381.074 114.971 381.117 114.97 381.151 114.993C386.668 118.707 397.594 125.653 397.594 125.376Z" stroke="#F1BA4D"/>
</g>
<g filter="url(#filter4_d_91_4456)">
<path d="M415.774 130.426V136.438C415.774 136.471 415.791 136.502 415.819 136.521L421.342 140.208C421.409 140.253 421.498 140.205 421.498 140.125V134.113C421.498 134.08 421.481 134.049 421.453 134.03L415.93 130.343C415.863 130.298 415.774 130.346 415.774 130.426Z" fill="#088FA2" stroke="#017A8B"/>
<path d="M425.538 137.004V142.389C425.538 142.424 425.556 142.455 425.584 142.474L430.771 145.772C430.838 145.814 430.925 145.767 430.925 145.688V139.702C430.925 139.665 430.904 139.631 430.871 139.614L425.684 136.915C425.618 136.88 425.538 136.929 425.538 137.004Z" fill="#088FA2" stroke="#017A8B"/>
<path d="M408.031 144.728V140.157C408.031 140.076 408.121 140.027 408.187 140.073L408.997 140.63C409.025 140.648 409.041 140.679 409.041 140.712V144.728C409.041 144.783 408.996 144.828 408.941 144.828H408.131C408.076 144.828 408.031 144.783 408.031 144.728Z" fill="#C89665" stroke="#C89665"/>
<path d="M430.779 145.945L430.316 146.184C430.278 146.204 430.256 146.246 430.263 146.289L430.726 149.155C430.746 149.277 430.925 149.262 430.925 149.139V146.034C430.925 145.959 430.846 145.911 430.779 145.945Z" stroke="#017A8B" stroke-width="0.5"/>
<path d="M425.538 153.695V150.447C425.538 150.41 425.559 150.374 425.592 150.357L426.066 150.113C426.132 150.079 426.211 150.127 426.211 150.202V153.45C426.211 153.488 426.191 153.522 426.157 153.539L425.684 153.783C425.617 153.818 425.538 153.77 425.538 153.695Z" fill="#017A8B" stroke="#017A8B" stroke-width="0.5"/>
<path d="M419.478 150.222V146.974C419.478 146.936 419.499 146.901 419.532 146.884L420.006 146.64C420.072 146.605 420.151 146.654 420.151 146.729V149.977C420.151 150.014 420.13 150.049 420.097 150.066L419.624 150.31C419.557 150.344 419.478 150.297 419.478 150.222Z" fill="#017A8B" stroke="#017A8B" stroke-width="0.5"/>
<path d="M414.091 146.748V143.5C414.091 143.463 414.112 143.427 414.145 143.41L414.618 143.166C414.685 143.132 414.764 143.18 414.764 143.255V146.503C414.764 146.541 414.743 146.575 414.71 146.592L414.237 146.836C414.17 146.871 414.091 146.823 414.091 146.748Z" fill="#017A8B" stroke="#017A8B" stroke-width="0.5"/>
<path d="M410.051 144.664V141.416C410.051 141.379 410.072 141.343 410.105 141.326L410.579 141.082C410.645 141.048 410.725 141.096 410.725 141.171V144.419C410.725 144.457 410.704 144.491 410.67 144.508L410.197 144.752C410.131 144.787 410.051 144.739 410.051 144.664Z" fill="#017A8B" stroke="#017A8B" stroke-width="0.5"/>
<path d="M429.578 150.286V146.012C429.578 145.943 429.646 145.893 429.711 145.915L430.521 146.194C430.561 146.208 430.588 146.246 430.588 146.289V150.285C430.588 150.341 430.543 150.385 430.488 150.385H429.678C429.623 150.385 429.578 150.341 429.578 150.286Z" fill="#C89665" stroke="#C89665"/>
<path d="M423.855 155.149V150.874C423.855 150.806 423.923 150.756 423.988 150.778L424.798 151.057C424.838 151.07 424.865 151.108 424.865 151.151V155.148C424.865 155.203 424.82 155.248 424.765 155.248H423.955C423.9 155.248 423.855 155.204 423.855 155.149Z" fill="#C89665" stroke="#C89665"/>
<path d="M408.152 139.882L414.035 135.835C414.069 135.812 414.112 135.811 414.146 135.834C419.418 139.383 429.628 145.883 430.525 146.212C430.566 146.196 430.588 146.197 430.588 146.217C430.588 146.229 430.567 146.227 430.525 146.212C429.995 146.416 426.28 149.399 424.585 151.025C424.551 151.058 424.5 151.061 424.461 151.035L408.153 140.047C408.094 140.007 408.094 139.922 408.152 139.882Z" fill="#F1BA4D"/>
<path d="M430.588 146.217C430.588 145.942 426.412 149.272 424.585 151.025C424.551 151.058 424.5 151.061 424.461 151.035L408.153 140.047C408.094 140.007 408.094 139.922 408.152 139.882L414.035 135.835C414.069 135.812 414.112 135.811 414.146 135.834C419.663 139.548 430.588 146.494 430.588 146.217Z" stroke="#C89665"/>
</g>
<g filter="url(#filter5_d_91_4456)">
<path d="M399.614 141.541V147.553C399.614 147.587 399.63 147.618 399.658 147.636L405.182 151.324C405.248 151.368 405.337 151.32 405.337 151.241V145.229C405.337 145.195 405.321 145.164 405.293 145.146L399.769 141.458C399.703 141.414 399.614 141.462 399.614 141.541Z" fill="#088FA2" stroke="#017A8B"/>
<path d="M409.377 148.119V153.505C409.377 153.539 409.395 153.571 409.424 153.589L414.611 156.887C414.677 156.93 414.764 156.882 414.764 156.803V150.818C414.764 150.78 414.744 150.746 414.71 150.729L409.524 148.03C409.457 147.996 409.377 148.044 409.377 148.119Z" fill="#088FA2" stroke="#017A8B"/>
<path d="M391.87 155.843V151.272C391.87 151.191 391.96 151.142 392.027 151.188L392.837 151.745C392.864 151.764 392.88 151.794 392.88 151.827V155.843C392.88 155.898 392.835 155.943 392.78 155.943H391.97C391.915 155.943 391.87 155.899 391.87 155.843Z" fill="#C89665" stroke="#C89665"/>
<path d="M414.619 157.06L414.156 157.299C414.117 157.319 414.095 157.361 414.102 157.404L414.565 160.271C414.585 160.392 414.764 160.378 414.764 160.255V157.149C414.764 157.074 414.685 157.026 414.619 157.06Z" stroke="#017A8B" stroke-width="0.5"/>
<path d="M409.377 164.811V161.563C409.377 161.525 409.398 161.49 409.432 161.473L409.905 161.229C409.972 161.194 410.051 161.243 410.051 161.317V164.566C410.051 164.603 410.03 164.638 409.997 164.655L409.523 164.899C409.457 164.933 409.377 164.886 409.377 164.811Z" fill="#017A8B" stroke="#017A8B" stroke-width="0.5"/>
<path d="M403.317 161.337V158.089C403.317 158.052 403.338 158.016 403.372 157.999L403.845 157.755C403.911 157.721 403.991 157.769 403.991 157.844V161.092C403.991 161.13 403.97 161.164 403.937 161.181L403.463 161.425C403.397 161.46 403.317 161.412 403.317 161.337Z" fill="#017A8B" stroke="#017A8B" stroke-width="0.5"/>
<path d="M397.93 157.864V154.616C397.93 154.578 397.951 154.543 397.984 154.526L398.458 154.282C398.524 154.247 398.604 154.296 398.604 154.37V157.619C398.604 157.656 398.583 157.691 398.549 157.708L398.076 157.952C398.009 157.986 397.93 157.939 397.93 157.864Z" fill="#017A8B" stroke="#017A8B" stroke-width="0.5"/>
<path d="M393.89 155.78V152.532C393.89 152.494 393.911 152.459 393.944 152.442L394.418 152.198C394.484 152.163 394.563 152.212 394.563 152.286V155.535C394.563 155.572 394.543 155.607 394.509 155.624L394.036 155.868C393.969 155.902 393.89 155.855 393.89 155.78Z" fill="#017A8B" stroke="#017A8B" stroke-width="0.5"/>
<path d="M413.417 161.401V157.127C413.417 157.059 413.485 157.008 413.55 157.031L414.36 157.309C414.4 157.323 414.428 157.361 414.428 157.404V161.401C414.428 161.456 414.383 161.501 414.328 161.501H413.517C413.462 161.501 413.417 161.456 413.417 161.401Z" fill="#C89665" stroke="#C89665"/>
<path d="M407.694 166.264V161.99C407.694 161.921 407.762 161.871 407.827 161.893L408.637 162.172C408.677 162.186 408.704 162.224 408.704 162.267V166.263C408.704 166.319 408.66 166.363 408.604 166.363H407.794C407.739 166.363 407.694 166.319 407.694 166.264Z" fill="#C89665" stroke="#C89665"/>
<path d="M391.991 150.997L397.874 146.95C397.908 146.927 397.951 146.926 397.985 146.949C403.257 150.498 413.467 156.998 414.364 157.327C414.406 157.311 414.428 157.312 414.428 157.332C414.428 157.345 414.406 157.343 414.364 157.327C413.835 157.532 410.119 160.515 408.424 162.14C408.39 162.173 408.339 162.176 408.3 162.15L391.992 151.162C391.933 151.123 391.933 151.037 391.991 150.997Z" fill="#F1BA4D"/>
<path d="M414.428 157.332C414.428 157.057 410.252 160.388 408.424 162.14C408.39 162.173 408.339 162.176 408.3 162.15L391.992 151.162C391.933 151.123 391.933 151.037 391.991 150.997L397.874 146.95C397.908 146.927 397.951 146.926 397.985 146.949C403.502 150.663 414.428 157.609 414.428 157.332Z" stroke="#F1BA4D"/>
</g>
<g filter="url(#filter6_d_91_4456)">
<path d="M383.454 153.351V159.363C383.454 159.396 383.47 159.427 383.498 159.446L389.022 163.133C389.088 163.178 389.177 163.13 389.177 163.05V157.038C389.177 157.005 389.16 156.974 389.133 156.955L383.609 153.268C383.543 153.224 383.454 153.271 383.454 153.351Z" fill="#088FA2" stroke="#017A8B"/>
<path d="M393.217 159.928V165.314C393.217 165.348 393.235 165.38 393.264 165.398L398.45 168.697C398.517 168.739 398.604 168.691 398.604 168.612V162.627C398.604 162.59 398.583 162.555 398.55 162.538L393.363 159.839C393.297 159.805 393.217 159.853 393.217 159.928Z" fill="#088FA2" stroke="#017A8B"/>
<path d="M375.71 167.653V163.081C375.71 163.001 375.8 162.952 375.867 162.997L376.677 163.555C376.704 163.573 376.72 163.604 376.72 163.637V167.653C376.72 167.708 376.675 167.753 376.62 167.753H375.81C375.755 167.753 375.71 167.708 375.71 167.653Z" fill="#C89665" stroke="#C89665"/>
<path d="M398.458 168.87L397.995 169.108C397.957 169.128 397.935 169.171 397.942 169.213L398.405 172.08C398.425 172.201 398.604 172.187 398.604 172.064V168.959C398.604 168.884 398.525 168.835 398.458 168.87Z" stroke="#017A8B" stroke-width="0.5"/>
<path d="M393.217 176.62V173.372C393.217 173.335 393.238 173.299 393.271 173.282L393.745 173.038C393.811 173.004 393.891 173.052 393.891 173.127V176.375C393.891 176.413 393.87 176.447 393.836 176.464L393.363 176.708C393.297 176.743 393.217 176.695 393.217 176.62Z" fill="#017A8B" stroke="#017A8B" stroke-width="0.5"/>
<path d="M387.157 173.147V169.899C387.157 169.861 387.178 169.826 387.211 169.809L387.685 169.564C387.751 169.53 387.831 169.578 387.831 169.653V172.902C387.831 172.939 387.81 172.974 387.776 172.991L387.303 173.235C387.237 173.269 387.157 173.221 387.157 173.147Z" fill="#017A8B" stroke="#017A8B" stroke-width="0.5"/>
<path d="M381.77 169.673V166.425C381.77 166.388 381.791 166.352 381.824 166.335L382.298 166.091C382.364 166.057 382.443 166.105 382.443 166.18V169.428C382.443 169.466 382.422 169.5 382.389 169.517L381.916 169.761C381.849 169.796 381.77 169.748 381.77 169.673Z" fill="#017A8B" stroke="#017A8B" stroke-width="0.5"/>
<path d="M377.73 167.589V164.341C377.73 164.304 377.751 164.268 377.784 164.251L378.257 164.007C378.324 163.973 378.403 164.021 378.403 164.096V167.344C378.403 167.382 378.382 167.416 378.349 167.433L377.876 167.677C377.809 167.712 377.73 167.664 377.73 167.589Z" fill="#017A8B" stroke="#017A8B" stroke-width="0.5"/>
<path d="M397.257 173.211V168.936C397.257 168.868 397.325 168.818 397.39 168.84L398.2 169.119C398.24 169.132 398.267 169.17 398.267 169.213V173.21C398.267 173.265 398.223 173.31 398.167 173.31H397.357C397.302 173.31 397.257 173.266 397.257 173.211Z" fill="#C89665" stroke="#C89665"/>
<path d="M391.534 178.073V173.799C391.534 173.731 391.601 173.68 391.666 173.703L392.476 173.981C392.517 173.995 392.544 174.033 392.544 174.076V178.073C392.544 178.128 392.499 178.173 392.444 178.173H391.634C391.578 178.173 391.534 178.129 391.534 178.073Z" fill="#C89665" stroke="#C89665"/>
<path d="M375.831 162.806L381.714 158.76C381.748 158.737 381.791 158.736 381.825 158.759C387.097 162.308 397.307 168.808 398.204 169.137C398.246 169.121 398.267 169.122 398.267 169.142C398.267 169.154 398.246 169.152 398.204 169.137C397.675 169.341 393.959 172.324 392.264 173.95C392.23 173.982 392.179 173.986 392.14 173.959L375.832 162.972C375.773 162.932 375.773 162.846 375.831 162.806Z" fill="#F1BA4D"/>
<path d="M398.267 169.142C398.267 168.867 394.091 172.197 392.264 173.95C392.23 173.982 392.179 173.986 392.14 173.959L375.832 162.972C375.773 162.932 375.773 162.846 375.831 162.806L381.714 158.76C381.748 158.737 381.791 158.736 381.825 158.759C387.342 162.473 398.267 169.419 398.267 169.142Z" stroke="#C89665"/>
</g>
<path d="M394.227 185.978V157.038C394.227 157.005 394.243 156.974 394.271 156.955L443.675 123.322C443.703 123.303 443.719 123.272 443.719 123.239V121.038C443.719 120.96 443.804 120.912 443.871 120.952L447.711 123.263C447.741 123.281 447.759 123.314 447.759 123.349V151.373C447.759 151.407 447.742 151.438 447.714 151.457L394.381 186.062C394.315 186.105 394.227 186.057 394.227 185.978Z" fill="#186EA2" stroke="#017A8B" stroke-width="0.5"/>
<path d="M341.368 122.945L341.032 152.469" stroke="white" stroke-width="1.5"/>
<path d="M332.95 146.517C332.931 145.954 332.779 140.186 333.284 118.256C333.286 118.18 333.369 118.13 333.435 118.169L352.091 129.167C352.122 129.186 352.141 129.22 352.14 129.257L351.138 158.542C351.135 158.62 351.048 158.665 350.982 158.622L332.994 146.593C332.967 146.575 332.951 146.549 332.95 146.517Z" fill="white" fill-opacity="0.3" stroke="white" stroke-width="1.5"/>
<path d="M381.63 149.316L380.957 177.104" stroke="white" stroke-width="1.5"/>
<path d="M372.542 172.184C372.563 171.6 372.745 166.337 373.247 144.628C373.248 144.552 373.332 144.501 373.397 144.54L392.055 155.539C392.086 155.557 392.104 155.591 392.104 155.627L391.733 183.875C391.732 183.953 391.647 183.999 391.581 183.959L372.59 172.272C372.559 172.253 372.541 172.22 372.542 172.184Z" fill="white" fill-opacity="0.3" stroke="white" stroke-width="1.5"/>
<path d="M455.503 162.488V157.514C455.503 157.435 455.416 157.387 455.349 157.43L391.924 197.591C391.891 197.611 391.849 197.611 391.817 197.591L321.994 153.608C321.928 153.566 321.841 153.614 321.841 153.693V159.013C321.841 159.048 321.859 159.08 321.888 159.098L392.49 202.802C392.523 202.822 392.564 202.822 392.597 202.801L455.456 162.572C455.485 162.554 455.503 162.522 455.503 162.488Z" fill="#A87E40" stroke="#A87E40" stroke-width="1.5"/>
<path d="M321.841 153.164V147.441C321.841 147.363 321.927 147.312 321.993 147.354L392.544 191.025L453.701 150.657C454.348 150.23 455.213 150.669 455.251 151.443L455.503 156.637L391.87 197.277L321.841 153.164Z" fill="#046270" stroke="#025D69"/>
<path d="M393.561 156.103C393.997 156.619 394.683 157.141 395.729 157.308C395.831 157.324 395.908 157.411 395.906 157.515L395.245 185.805C395.242 185.961 395.068 186.053 394.937 185.969L392.636 184.485C392.579 184.448 392.544 184.384 392.545 184.315L392.864 156.291C392.867 156.06 393.411 155.927 393.561 156.103Z" fill="#038699" stroke="#038699"/>
<path d="M332.582 117.991L330.681 117.746C329.749 117.626 329.483 116.402 330.281 115.905L382.063 83.6559C382.708 83.2541 383.525 83.2527 384.172 83.6522L445.12 121.314C446.357 122.078 446.391 123.865 445.184 124.675L396.676 157.286C396.008 157.735 395.125 157.732 394.452 157.291C393.246 156.499 393.225 154.713 394.434 153.926L439.37 124.68C440.604 123.876 440.576 122.059 439.317 121.294L384.166 87.8053C383.522 87.4144 382.713 87.4183 382.073 87.8153L333.892 117.707C333.501 117.95 333.039 118.05 332.582 117.991Z" fill="#038699"/>
</g>
<defs>
<filter id="filter0_i_91_4456" x="321.091" y="81.2163" width="135.162" height="126.35" filterUnits="userSpaceOnUse" color-interpolation-filters="sRGB">
<feFlood flood-opacity="0" result="BackgroundImageFix"/>
<feBlend mode="normal" in="SourceGraphic" in2="BackgroundImageFix" result="shape"/>
<feColorMatrix in="SourceAlpha" type="matrix" values="0 0 0 0 0 0 0 0 0 0 0 0 0 0 0 0 0 0 127 0" result="hardAlpha"/>
<feOffset dy="4"/>
<feGaussianBlur stdDeviation="2"/>
<feComposite in2="hardAlpha" operator="arithmetic" k2="-1" k3="1"/>
<feColorMatrix type="matrix" values="0 0 0 0 0 0 0 0 0 0 0 0 0 0 0 0 0 0 0.25 0"/>
<feBlend mode="normal" in2="shape" result="effect1_innerShadow_91_4456"/>
</filter>
<filter id="filter1_d_91_4456" x="353.029" y="121.489" width="31.894" height="33.9231" filterUnits="userSpaceOnUse" color-interpolation-filters="sRGB">
<feFlood flood-opacity="0" result="BackgroundImageFix"/>
<feColorMatrix in="SourceAlpha" type="matrix" values="0 0 0 0 0 0 0 0 0 0 0 0 0 0 0 0 0 0 127 0" result="hardAlpha"/>
<feOffset dy="4"/>
<feGaussianBlur stdDeviation="2"/>
<feComposite in2="hardAlpha" operator="out"/>
<feColorMatrix type="matrix" values="0 0 0 0 0 0 0 0 0 0 0 0 0 0 0 0 0 0 0.25 0"/>
<feBlend mode="normal" in2="BackgroundImageFix" result="effect1_dropShadow_91_4456"/>
<feBlend mode="normal" in="SourceGraphic" in2="effect1_dropShadow_91_4456" result="shape"/>
</filter>
<filter id="filter2_d_91_4456" x="336.195" y="131.909" width="31.894" height="33.9231" filterUnits="userSpaceOnUse" color-interpolation-filters="sRGB">
<feFlood flood-opacity="0" result="BackgroundImageFix"/>
<feColorMatrix in="SourceAlpha" type="matrix" values="0 0 0 0 0 0 0 0 0 0 0 0 0 0 0 0 0 0 127 0" result="hardAlpha"/>
<feOffset dy="4"/>
<feGaussianBlur stdDeviation="2"/>
<feComposite in2="hardAlpha" operator="out"/>
<feColorMatrix type="matrix" values="0 0 0 0 0 0 0 0 0 0 0 0 0 0 0 0 0 0 0.25 0"/>
<feBlend mode="normal" in2="BackgroundImageFix" result="effect1_dropShadow_91_4456"/>
<feBlend mode="normal" in="SourceGraphic" in2="effect1_dropShadow_91_4456" result="shape"/>
</filter>
<filter id="filter3_d_91_4456" x="370.536" y="108.984" width="31.894" height="33.9231" filterUnits="userSpaceOnUse" color-interpolation-filters="sRGB">
<feFlood flood-opacity="0" result="BackgroundImageFix"/>
<feColorMatrix in="SourceAlpha" type="matrix" values="0 0 0 0 0 0 0 0 0 0 0 0 0 0 0 0 0 0 127 0" result="hardAlpha"/>
<feOffset dy="4"/>
<feGaussianBlur stdDeviation="2"/>
<feComposite in2="hardAlpha" operator="out"/>
<feColorMatrix type="matrix" values="0 0 0 0 0 0 0 0 0 0 0 0 0 0 0 0 0 0 0.25 0"/>
<feBlend mode="normal" in2="BackgroundImageFix" result="effect1_dropShadow_91_4456"/>
<feBlend mode="normal" in="SourceGraphic" in2="effect1_dropShadow_91_4456" result="shape"/>
</filter>
<filter id="filter4_d_91_4456" x="403.531" y="129.825" width="31.894" height="33.9231" filterUnits="userSpaceOnUse" color-interpolation-filters="sRGB">
<feFlood flood-opacity="0" result="BackgroundImageFix"/>
<feColorMatrix in="SourceAlpha" type="matrix" values="0 0 0 0 0 0 0 0 0 0 0 0 0 0 0 0 0 0 127 0" result="hardAlpha"/>
<feOffset dy="4"/>
<feGaussianBlur stdDeviation="2"/>
<feComposite in2="hardAlpha" operator="out"/>
<feColorMatrix type="matrix" values="0 0 0 0 0 0 0 0 0 0 0 0 0 0 0 0 0 0 0.25 0"/>
<feBlend mode="normal" in2="BackgroundImageFix" result="effect1_dropShadow_91_4456"/>
<feBlend mode="normal" in="SourceGraphic" in2="effect1_dropShadow_91_4456" result="shape"/>
</filter>
<filter id="filter5_d_91_4456" x="387.37" y="140.94" width="31.894" height="33.9231" filterUnits="userSpaceOnUse" color-interpolation-filters="sRGB">
<feFlood flood-opacity="0" result="BackgroundImageFix"/>
<feColorMatrix in="SourceAlpha" type="matrix" values="0 0 0 0 0 0 0 0 0 0 0 0 0 0 0 0 0 0 127 0" result="hardAlpha"/>
<feOffset dy="4"/>
<feGaussianBlur stdDeviation="2"/>
<feComposite in2="hardAlpha" operator="out"/>
<feColorMatrix type="matrix" values="0 0 0 0 0 0 0 0 0 0 0 0 0 0 0 0 0 0 0.25 0"/>
<feBlend mode="normal" in2="BackgroundImageFix" result="effect1_dropShadow_91_4456"/>
<feBlend mode="normal" in="SourceGraphic" in2="effect1_dropShadow_91_4456" result="shape"/>
</filter>
<filter id="filter6_d_91_4456" x="371.21" y="152.75" width="31.894" height="33.9229" filterUnits="userSpaceOnUse" color-interpolation-filters="sRGB">
<feFlood flood-opacity="0" result="BackgroundImageFix"/>
<feColorMatrix in="SourceAlpha" type="matrix" values="0 0 0 0 0 0 0 0 0 0 0 0 0 0 0 0 0 0 127 0" result="hardAlpha"/>
<feOffset dy="4"/>
<feGaussianBlur stdDeviation="2"/>
<feComposite in2="hardAlpha" operator="out"/>
<feColorMatrix type="matrix" values="0 0 0 0 0 0 0 0 0 0 0 0 0 0 0 0 0 0 0.25 0"/>
<feBlend mode="normal" in2="BackgroundImageFix" result="effect1_dropShadow_91_4456"/>
<feBlend mode="normal" in="SourceGraphic" in2="effect1_dropShadow_91_4456" result="shape"/>
</filter>
</defs>
</svg>
