<svg width="456" height="159" viewBox="0 0 456 159" fill="none" xmlns="http://www.w3.org/2000/svg">
<path fill-rule="evenodd" clip-rule="evenodd" d="M81.7137 149.908C61.3683 132.813 133.051 104.236 133.051 104.236C137.245 104.236 145.632 104.236 154.019 95.3055C162.406 87.6512 170.094 71.0667 178.482 71.0667C186.869 71.0667 195.256 87.6512 203.643 87.6512C212.03 87.6512 220.418 71.0667 228.805 59.5852C237.192 49.3794 244.88 44.2765 253.267 51.9309C261.654 59.5852 270.042 82.5482 278.429 92.7541C286.816 104.236 295.203 104.236 303.59 90.2026C311.977 76.1696 319.666 49.3794 328.053 30.2435C336.44 11.1076 344.827 0.901838 353.214 11.1076C361.602 22.5892 369.989 54.4823 378.376 63.4124C386.763 71.0667 394.451 54.4823 402.838 51.9309C411.226 49.3794 419.613 59.5852 423.806 65.9638L428 71.0667V152.713H423.806C419.613 152.713 411.226 152.713 402.838 152.713C394.451 152.713 386.763 152.713 378.376 152.713C369.989 152.713 361.602 152.713 353.214 152.713C344.827 152.713 336.44 152.713 328.053 152.713C319.666 152.713 311.977 152.713 303.59 152.713C295.203 152.713 286.816 152.713 278.429 152.713C270.042 152.713 261.654 152.713 253.267 152.713C244.88 152.713 237.192 152.713 228.805 152.713C220.418 152.713 212.03 152.713 203.643 152.713C195.256 152.713 186.869 152.713 178.482 152.713C170.094 152.713 162.406 152.713 154.019 152.713C145.632 152.713 137.245 152.713 133.051 152.713C133.051 152.713 125.524 153.643 122.451 152.713C106.215 147.803 94.7959 160.9 81.7137 149.908Z" fill="white" fill-opacity="0.5"/>
<g filter="url(#filter0_d_65_905)">
<path d="M83.7517 146.063V142.766H101.08V146.063H83.7517Z" fill="#C5EFFA" stroke="#C5EFFA" stroke-width="0.1"/>
<path d="M45.0527 146.063V142.766H83.7518V146.063H45.0527Z" fill="#8FD3E4" stroke="#8FD3E4" stroke-width="0.1"/>
<path d="M34.0784 152.655V146.062H81.4414L79.131 152.655H34.0784Z" fill="#8FD3E4" stroke="#8FD3E4" stroke-width="0.1"/>
<path d="M111.477 152.655V146.062H153.064V152.655H111.477Z" fill="#8FD3E4" stroke="#8FD3E4" stroke-width="0.1"/>
<path d="M77.9758 152.655V146.062H111.477L116.675 152.655H77.9758Z" fill="#BAF7FF" stroke="#8FD3E4" stroke-width="0.1"/>
<path d="M101.08 146.063V142.766H142.667V146.063H101.08Z" fill="#8FD3E4" stroke="#8FD3E4" stroke-width="0.1"/>
<path d="M105.701 142.766H45.6304V113.651H98.7694L105.123 119.694L105.701 119.738V142.766Z" fill="white"/>
<path d="M45.6304 111.454V113.651M45.6304 113.651V142.766H105.701V119.738L105.123 119.694L98.7694 113.651H45.6304Z" stroke="#8FD3E4" stroke-opacity="0.13" stroke-width="0.1"/>
<path d="M58.3374 142.217V121.342H69.8894V142.217H58.3374Z" fill="#6F631D" stroke="#878264"/>
<path d="M98.7694 113.651L105.123 119.694H105.701V108.707L45.6304 107.609V111.454V113.651H98.7694Z" fill="#8FD3E4" fill-opacity="0.8" stroke="#8FD3E4" stroke-opacity="0.13" stroke-width="0.1"/>
<path d="M105.7 142.9V108.707L119.563 88.3816L138.624 111.454H138.878V142.9H105.7Z" fill="#8FD3E4" stroke="#8FD3E4" stroke-width="0.1"/>
<path d="M146.71 111.454L122.451 84.5362L119.563 88.3816L138.623 111.454H146.71Z" fill="#038699" stroke="#00A2B7" stroke-width="0.1"/>
<path d="M39.2766 110.905L61.2253 85.0856H121.296L102.812 112.003L39.2766 110.905Z" fill="#03A2B0" stroke="#00A2B7"/>
<path d="M84.8853 121.273H80.3438V126.863H84.8853V121.273Z" fill="#039CB0" stroke="#038699"/>
<path d="M84.8853 128.414H80.3438V134.004H84.8853V128.414Z" fill="#039CB0" stroke="#038699"/>
<path d="M91.8165 121.273H87.2749V126.863H91.8165V121.273Z" fill="#039CB0" stroke="#038699"/>
<path d="M91.8165 128.414H87.2749V134.004H91.8165V128.414Z" fill="#039CB0" stroke="#038699"/>
</g>
<path d="M21.3623 132.333L26.0243 130.116C26.7611 129.766 27.5733 129.601 28.3883 129.636L38.9633 130.093C39.5513 130.119 40.1282 130.262 40.6597 130.515L41.4895 130.909C43.6102 131.918 44.2452 134.635 42.7911 136.479C42.3812 136.999 41.8379 137.397 41.2191 137.633L38.385 138.711C37.1098 139.196 36.3354 140.08 37.064 141.233C37.5354 141.979 38.2427 143.01 39.2767 144.415C43.2185 148.58 23.2557 150.442 15.5881 151.405C14.8412 151.499 14.0921 151.331 13.46 150.922L12.1201 150.056C9.5188 148.373 10.7118 143.234 13.7705 142.742C15.9819 142.387 17.3186 138.353 18.1777 136.284C18.2387 136.138 18.3006 135.992 18.3619 135.848C18.9431 134.488 20.0261 132.969 21.3623 132.333Z" fill="#017A8B" fill-opacity="0.18"/>
<path d="M28.88 143.865C28.0667 143.865 27.1472 143.316 27.1472 143.316V116.398H30.6128V143.316C30.6128 143.316 29.6933 143.865 28.88 143.865Z" fill="#346C5F" stroke="#346C5F"/>
<g filter="url(#filter1_i_65_905)">
<path d="M17.6217 101.044L17.7189 101.6C17.8401 102.291 18.1801 102.926 18.6889 103.41C19.2984 103.989 20.1074 104.313 20.9486 104.313H21.3711L19.0607 105.411L17.3279 106.51C16.5578 107.059 14.902 108.268 14.44 108.707C14.1863 108.949 14.0371 109.422 13.9541 109.89C13.8382 110.544 14.0668 111.196 14.4478 111.74L14.8119 112.259C14.9459 112.45 15.1342 112.597 15.3525 112.68L15.6011 112.775C16.4677 113.104 16.5162 114.312 15.6789 114.71C15.6232 114.737 15.5699 114.768 15.5196 114.804L13.8276 116.011C13.4744 116.263 13.2077 116.618 13.0642 117.027C12.8401 117.667 12.9378 118.375 13.3268 118.93L13.655 119.398C13.7909 119.592 13.9747 119.748 14.1886 119.849L15.7662 120.599C16.3249 120.865 16.2692 121.678 15.6795 121.865C15.6235 121.882 15.57 121.907 15.5205 121.939L14.2308 122.757C13.9862 122.912 13.7226 123.034 13.4465 123.122L13.1678 123.21C12.5026 123.421 11.9475 123.886 11.6228 124.504C11.2168 125.276 11.2168 126.198 11.6228 126.97L11.7405 127.194C11.9954 127.679 12.373 128.089 12.8356 128.382L13.8624 129.033L15.5952 130.132L16.8866 130.746C17.5575 131.065 18.291 131.23 19.0339 131.23H22.5263L26.5695 131.78H30.0351L34.0783 131.23C35.9413 130.977 37.1273 130.712 37.8349 130.497C38.432 130.316 38.9956 130.011 39.5734 129.775L41.8679 128.84C42.4457 128.604 42.9743 128.263 43.4264 127.833L44.2565 127.043C44.7649 126.56 45.0527 125.889 45.0527 125.188C45.0527 124.486 44.7649 123.815 44.2565 123.332L43.8975 122.99L42.7622 121.91C42.3786 121.546 41.8695 121.342 41.3401 121.342H40.0455C39.6209 121.342 39.2767 120.998 39.2767 120.573C39.2767 120.363 39.3631 120.161 39.5157 120.016L40.5288 119.053C40.8471 118.75 41.1138 118.397 41.3182 118.008L41.9935 116.724C42.1074 116.507 42.2052 116.282 42.2862 116.051L42.7423 114.75C43.2043 113.432 41.7796 112.736 41.0095 112.553L39.4997 112.074C38.7254 111.829 38.5906 110.79 39.2767 110.355C40.1488 109.802 40.6094 109.22 40.8311 108.774C41.0218 108.389 40.9543 107.948 40.8452 107.533L40.7536 107.184C40.5433 106.384 40.1144 105.659 39.5149 105.088L38.9862 104.586C38.7977 104.406 38.5677 104.277 38.3167 104.209L37.5927 104.012C36.5104 103.718 36.325 102.261 37.2991 101.706C37.4603 101.614 37.5991 101.487 37.7057 101.335L38.3919 100.356C38.5961 100.065 38.7686 99.7524 38.9066 99.4245L39.039 99.1095C39.5604 97.8698 39.5604 96.4724 39.039 95.2327L38.8591 94.8047C38.7526 94.5516 38.6254 94.3076 38.4789 94.0754L37.7394 92.9031C37.2344 92.1026 36.5125 91.4619 35.6578 91.0554L35.3588 90.9132C34.893 90.6917 34.3957 90.5436 33.8847 90.4742L31.3419 90.1287C30.8584 90.063 30.3678 90.0684 29.8859 90.1448L27.5177 90.5202C27.271 90.5593 27.0276 90.6169 26.7895 90.6924L24.1876 91.5172C23.8512 91.6239 23.527 91.7659 23.2205 91.9408L21.878 92.7068C21.166 93.1132 20.5647 93.6883 20.1273 94.3817L19.0607 96.0724L18.1197 97.8623C17.6064 98.8388 17.4312 99.9579 17.6217 101.044Z" fill="#67AD15"/>
</g>
<path d="M22.5263 104.313H21.3711M21.3711 104.313H20.9486C20.1074 104.313 19.2984 103.989 18.6889 103.41C18.1801 102.926 17.8401 102.291 17.7189 101.6L17.6217 101.044C17.4312 99.9579 17.6064 98.8388 18.1197 97.8623L19.0607 96.0724L20.1273 94.3817C20.5647 93.6883 21.166 93.1132 21.878 92.7068L23.2205 91.9408C23.527 91.7659 23.8512 91.6239 24.1876 91.5172L26.7895 90.6924C27.0276 90.6169 27.271 90.5593 27.5177 90.5202L29.8859 90.1448C30.3678 90.0684 30.8584 90.063 31.3419 90.1287L33.8847 90.4742C34.3957 90.5436 34.893 90.6917 35.3588 90.9132L35.6578 91.0554C36.5125 91.4619 37.2344 92.1026 37.7394 92.9031L38.4789 94.0754C38.6254 94.3076 38.7526 94.5516 38.8591 94.8047L39.039 95.2327C39.5604 96.4724 39.5604 97.8698 39.039 99.1095L38.9066 99.4245C38.7686 99.7524 38.5961 100.065 38.3919 100.356L37.7057 101.335C37.5991 101.487 37.4603 101.614 37.2991 101.706C36.325 102.261 36.5104 103.718 37.5927 104.012L38.3167 104.209C38.5677 104.277 38.7977 104.406 38.9862 104.586L39.5149 105.088C40.1144 105.659 40.5433 106.384 40.7536 107.184L40.8452 107.533C40.9543 107.948 41.0218 108.389 40.8311 108.774C40.6094 109.22 40.1488 109.802 39.2767 110.355C38.5906 110.79 38.7254 111.829 39.4997 112.074L41.0095 112.553C41.7796 112.736 43.2043 113.432 42.7423 114.75C42.5165 115.394 42.3735 115.802 42.2862 116.051C42.2052 116.282 42.1074 116.507 41.9935 116.724L41.3182 118.008C41.1138 118.397 40.8471 118.75 40.5288 119.053L39.5157 120.016C39.3631 120.161 39.2767 120.363 39.2767 120.573C39.2767 120.998 39.6209 121.342 40.0455 121.342H41.3401C41.8695 121.342 42.3786 121.546 42.7622 121.91L43.8975 122.99L44.2565 123.332C44.7649 123.815 45.0527 124.486 45.0527 125.188C45.0527 125.889 44.7649 126.56 44.2565 127.043L43.4264 127.833C42.9743 128.263 42.4457 128.604 41.8679 128.84L39.5734 129.775C38.9956 130.011 38.432 130.316 37.8349 130.497C37.1273 130.712 35.9413 130.977 34.0783 131.23C30.8437 131.67 30.0351 131.78 30.0351 131.78H26.5695L22.5263 131.23H19.0339C18.291 131.23 17.5575 131.065 16.8866 130.746L15.5952 130.132L13.8624 129.033L12.8356 128.382C12.373 128.089 11.9954 127.679 11.7405 127.194L11.6228 126.97C11.2168 126.198 11.2168 125.276 11.6228 124.504C11.9475 123.886 12.5026 123.421 13.1678 123.21L13.4465 123.122C13.7226 123.034 13.9862 122.912 14.2308 122.757L15.5205 121.939C15.57 121.907 15.6235 121.882 15.6795 121.865C16.2692 121.678 16.3249 120.865 15.7662 120.599L14.1886 119.849C13.9747 119.748 13.7909 119.592 13.655 119.398L13.3268 118.93C12.9378 118.375 12.8401 117.667 13.0642 117.027C13.2077 116.618 13.4744 116.263 13.8276 116.011L15.5196 114.804C15.5699 114.768 15.6232 114.737 15.6789 114.71C16.5162 114.312 16.4677 113.104 15.6011 112.775L15.3525 112.68C15.1342 112.597 14.9459 112.45 14.8119 112.259L14.4478 111.74C14.0668 111.196 13.8382 110.544 13.9541 109.89C14.0371 109.422 14.1863 108.949 14.44 108.707C14.902 108.268 16.5578 107.059 17.3279 106.51L19.0607 105.411L21.3711 104.313Z" stroke="#53A934"/>
<path d="M158.073 139.312L153.757 137.643C153.126 137.399 152.452 137.285 151.777 137.309L142.397 137.639C142.043 137.651 141.694 137.723 141.363 137.851L140.309 138.258C138.688 138.885 138.232 140.963 139.442 142.211C139.725 142.503 140.078 142.72 140.467 142.84L143.185 143.681C144.261 144.014 144.869 144.663 144.172 145.547C143.768 146.058 143.184 146.744 142.36 147.656C138.912 150.618 156.71 151.917 163.061 152.581C163.506 152.628 163.95 152.543 164.346 152.335L165.344 151.81C167.384 150.737 166.259 146.775 163.979 146.438C163.887 146.425 163.796 146.411 163.706 146.396C162.078 146.132 160.977 142.839 160.214 141.377C159.744 140.476 159.021 139.679 158.073 139.312Z" fill="#017A8B" fill-opacity="0.18"/>
<path d="M154.219 147.161C153.405 147.161 152.486 146.612 152.486 146.612V119.694H155.951V146.612C155.951 146.612 155.032 147.161 154.219 147.161Z" fill="#346C5F" stroke="#346C5F"/>
<g filter="url(#filter2_i_65_905)">
<path d="M142.961 104.341L143.058 104.896C143.179 105.587 143.519 106.222 144.028 106.706C144.637 107.285 145.446 107.609 146.287 107.609H146.71L144.4 108.707L142.667 109.806C141.897 110.355 140.241 111.564 139.779 112.003C139.525 112.245 139.376 112.718 139.293 113.186C139.177 113.84 139.406 114.492 139.787 115.036L140.151 115.555C140.285 115.746 140.473 115.893 140.691 115.976L140.94 116.071C141.807 116.4 141.855 117.608 141.018 118.006C140.962 118.033 140.909 118.064 140.858 118.1L139.166 119.307C138.813 119.559 138.547 119.914 138.403 120.323C138.179 120.963 138.277 121.671 138.666 122.226L138.994 122.694C139.13 122.888 139.314 123.044 139.527 123.145L141.105 123.896C141.664 124.161 141.608 124.974 141.018 125.161C140.962 125.179 140.909 125.203 140.859 125.235L139.57 126.053C139.325 126.208 139.061 126.331 138.785 126.418L138.507 126.506C137.841 126.717 137.286 127.182 136.962 127.8C136.556 128.572 136.556 129.494 136.962 130.266L137.079 130.49C137.334 130.975 137.712 131.385 138.174 131.678L139.201 132.329L140.934 133.428L142.225 134.042C142.896 134.361 143.63 134.526 144.373 134.526H147.865L151.908 135.076H155.374L159.417 134.526C161.28 134.273 162.466 134.008 163.174 133.793C163.771 133.613 164.335 133.307 164.912 133.071L167.207 132.136C167.785 131.901 168.313 131.559 168.765 131.129L169.595 130.339C170.104 129.856 170.392 129.185 170.392 128.484C170.392 127.782 170.104 127.111 169.595 126.628L169.236 126.286L168.101 125.206C167.717 124.842 167.208 124.638 166.679 124.638H165.384C164.96 124.638 164.616 124.294 164.616 123.869C164.616 123.659 164.702 123.457 164.855 123.312L165.868 122.349C166.186 122.046 166.453 121.693 166.657 121.304L167.332 120.02C167.446 119.803 167.544 119.579 167.625 119.347L168.081 118.046C168.543 116.728 167.118 116.032 166.348 115.849L164.839 115.37C164.064 115.125 163.929 114.086 164.616 113.651C165.488 113.098 165.948 112.516 166.17 112.07C166.361 111.685 166.293 111.244 166.184 110.829L166.092 110.48C165.882 109.68 165.453 108.955 164.854 108.385L164.325 107.882C164.137 107.702 163.907 107.573 163.656 107.505L162.932 107.308C161.849 107.014 161.664 105.557 162.638 105.002C162.799 104.91 162.938 104.783 163.045 104.631L163.731 103.652C163.935 103.361 164.108 103.048 164.245 102.721L164.378 102.406C164.899 101.166 164.899 99.7684 164.378 98.5287L164.198 98.1008C164.091 97.8476 163.964 97.6037 163.818 97.3714L163.078 96.1991C162.573 95.3986 161.851 94.7579 160.997 94.3515L160.698 94.2093C160.232 93.9878 159.735 93.8397 159.224 93.7702L156.681 93.4248C156.197 93.3591 155.707 93.3645 155.225 93.4409L152.857 93.8163C152.61 93.8554 152.366 93.9129 152.128 93.9884L149.526 94.8133C149.19 94.9199 148.866 95.0619 148.559 95.2368L147.217 96.0029C146.505 96.4092 145.904 96.9844 145.466 97.6778L144.4 99.3684L143.459 101.158C142.945 102.135 142.77 103.254 142.961 104.341Z" fill="#67AD15"/>
</g>
<path d="M147.865 107.609H146.71M146.71 107.609H146.287C145.446 107.609 144.637 107.285 144.028 106.706C143.519 106.222 143.179 105.587 143.058 104.896L142.961 104.341C142.77 103.254 142.945 102.135 143.459 101.158L144.4 99.3684L145.466 97.6778C145.904 96.9844 146.505 96.4092 147.217 96.0029L148.559 95.2368C148.866 95.0619 149.19 94.9199 149.526 94.8133L152.128 93.9884C152.366 93.9129 152.61 93.8554 152.857 93.8163L155.225 93.4409C155.707 93.3645 156.197 93.3591 156.681 93.4248L159.224 93.7702C159.735 93.8397 160.232 93.9878 160.698 94.2093L160.997 94.3515C161.851 94.7579 162.573 95.3986 163.078 96.1991L163.818 97.3714C163.964 97.6037 164.091 97.8476 164.198 98.1008L164.378 98.5287C164.899 99.7684 164.899 101.166 164.378 102.406L164.245 102.721C164.108 103.048 163.935 103.361 163.731 103.652L163.045 104.631C162.938 104.783 162.799 104.91 162.638 105.002C161.664 105.557 161.849 107.014 162.932 107.308L163.656 107.505C163.907 107.573 164.137 107.702 164.325 107.882L164.854 108.385C165.453 108.955 165.882 109.68 166.092 110.48L166.184 110.829C166.293 111.244 166.361 111.685 166.17 112.07C165.948 112.516 165.488 113.098 164.616 113.651C163.929 114.086 164.064 115.125 164.839 115.37L166.348 115.849C167.118 116.032 168.543 116.728 168.081 118.046C167.855 118.69 167.712 119.098 167.625 119.347C167.544 119.579 167.446 119.803 167.332 120.02L166.657 121.304C166.453 121.693 166.186 122.046 165.868 122.349L164.855 123.312C164.702 123.457 164.616 123.659 164.616 123.869C164.616 124.294 164.96 124.638 165.384 124.638H166.679C167.208 124.638 167.717 124.842 168.101 125.206L169.236 126.286L169.595 126.628C170.104 127.111 170.392 127.782 170.392 128.484C170.392 129.185 170.104 129.856 169.595 130.339L168.765 131.129C168.313 131.559 167.785 131.901 167.207 132.136L164.912 133.071C164.335 133.307 163.771 133.613 163.174 133.793C162.466 134.008 161.28 134.273 159.417 134.526C156.183 134.966 155.374 135.076 155.374 135.076H151.908L147.865 134.526H144.373C143.63 134.526 142.896 134.361 142.225 134.042L140.934 133.428L139.201 132.329L138.174 131.678C137.712 131.385 137.334 130.975 137.079 130.49L136.962 130.266C136.556 129.494 136.556 128.572 136.962 127.8C137.286 127.182 137.841 126.717 138.507 126.506L138.785 126.418C139.061 126.331 139.325 126.208 139.57 126.053L140.859 125.235C140.909 125.203 140.962 125.179 141.018 125.161C141.608 124.974 141.664 124.161 141.105 123.896L139.527 123.145C139.314 123.044 139.13 122.888 138.994 122.694L138.666 122.226C138.277 121.671 138.179 120.963 138.403 120.323C138.547 119.914 138.813 119.559 139.166 119.307L140.858 118.1C140.909 118.064 140.962 118.033 141.018 118.006C141.855 117.608 141.807 116.4 140.94 116.071L140.691 115.976C140.473 115.893 140.285 115.746 140.151 115.555L139.787 115.036C139.406 114.492 139.177 113.84 139.293 113.186C139.376 112.718 139.525 112.245 139.779 112.003C140.241 111.564 141.897 110.355 142.667 109.806L144.4 108.707L146.71 107.609Z" stroke="#53A934"/>
<path d="M253.954 142.059L249.638 140.39C249.008 140.146 248.333 140.032 247.658 140.056L238.279 140.385C237.925 140.398 237.575 140.47 237.245 140.597L236.19 141.005C234.569 141.632 234.113 143.71 235.323 144.958C235.607 145.25 235.959 145.466 236.348 145.587L239.067 146.428C240.142 146.76 240.751 147.41 240.053 148.293C239.649 148.805 239.066 149.491 238.241 150.402C234.793 153.365 252.591 154.663 258.942 155.328C259.387 155.374 259.831 155.29 260.227 155.082L261.225 154.557C263.265 153.484 262.14 149.522 259.86 149.185C259.768 149.172 259.678 149.158 259.587 149.143C257.959 148.878 256.858 145.586 256.096 144.124C255.625 143.222 254.903 142.426 253.954 142.059Z" fill="#017A8B" fill-opacity="0.18"/>
<path d="M250.1 149.908C249.287 149.908 248.367 149.359 248.367 149.359V122.441H251.833V149.359C251.833 149.359 250.913 149.908 250.1 149.908Z" fill="#346C5F" stroke="#346C5F"/>
<g filter="url(#filter3_i_65_905)">
<path d="M238.842 107.087L238.939 107.642C239.06 108.334 239.4 108.968 239.909 109.452C240.519 110.032 241.328 110.355 242.169 110.355H242.591L240.281 111.454L238.548 112.553C237.778 113.102 236.122 114.311 235.66 114.75C235.407 114.991 235.257 115.464 235.174 115.933C235.058 116.586 235.287 117.239 235.668 117.783L236.032 118.302C236.166 118.493 236.354 118.64 236.573 118.723L236.821 118.817C237.688 119.147 237.736 120.355 236.899 120.753C236.843 120.779 236.79 120.811 236.74 120.847L235.048 122.054C234.695 122.306 234.428 122.661 234.284 123.07C234.06 123.71 234.158 124.418 234.547 124.973L234.875 125.441C235.011 125.635 235.195 125.79 235.409 125.892L236.986 126.642C237.545 126.908 237.489 127.721 236.9 127.908C236.844 127.925 236.79 127.95 236.741 127.982L235.451 128.799C235.206 128.954 234.943 129.077 234.667 129.165L234.388 129.253C233.723 129.464 233.168 129.929 232.843 130.546C232.437 131.318 232.437 132.241 232.843 133.013L232.961 133.237C233.216 133.722 233.593 134.131 234.056 134.425L235.083 135.076L236.815 136.174L238.107 136.789C238.778 137.108 239.511 137.273 240.254 137.273H243.747L247.79 137.822H251.255L255.299 137.273C257.162 137.02 258.347 136.755 259.055 136.54C259.652 136.359 260.216 136.053 260.794 135.818L263.088 134.883C263.666 134.647 264.195 134.306 264.647 133.876L265.477 133.086C265.985 132.603 266.273 131.932 266.273 131.23C266.273 130.529 265.985 129.858 265.477 129.374L265.118 129.033L263.982 127.953C263.599 127.588 263.09 127.385 262.56 127.385H261.266C260.841 127.385 260.497 127.041 260.497 126.616C260.497 126.405 260.583 126.204 260.736 126.059L261.749 125.095C262.067 124.793 262.334 124.44 262.538 124.051L263.214 122.766C263.328 122.55 263.425 122.325 263.506 122.094L263.962 120.793C264.425 119.474 263 118.779 262.23 118.595L260.72 118.117C259.946 117.871 259.811 116.833 260.497 116.398C261.369 115.845 261.83 115.263 262.051 114.816C262.242 114.432 262.174 113.991 262.065 113.576L261.974 113.227C261.763 112.427 261.335 111.701 260.735 111.131L260.206 110.628C260.018 110.449 259.788 110.32 259.537 110.251L258.813 110.055C257.731 109.761 257.545 108.304 258.519 107.748C258.681 107.656 258.819 107.53 258.926 107.378L259.612 106.399C259.816 106.107 259.989 105.795 260.127 105.467L260.259 105.152C260.781 103.913 260.781 102.515 260.259 101.275L260.079 100.848C259.973 100.594 259.846 100.35 259.699 100.118L258.96 98.9458C258.455 98.1454 257.733 97.5047 256.878 97.0982L256.579 96.956C256.113 96.7345 255.616 96.5864 255.105 96.517L252.562 96.1715C252.079 96.1058 251.588 96.1112 251.106 96.1876L248.738 96.563C248.491 96.6021 248.248 96.6596 248.01 96.7351L245.408 97.56C245.071 97.6667 244.747 97.8086 244.441 97.9835L243.098 98.7496C242.386 99.1559 241.785 99.7311 241.348 100.424L240.281 102.115L239.34 103.905C238.827 104.882 238.651 106.001 238.842 107.087Z" fill="#67AD15"/>
</g>
<path d="M243.747 110.355H242.591M242.591 110.355H242.169C241.328 110.355 240.519 110.032 239.909 109.452C239.4 108.968 239.06 108.334 238.939 107.642L238.842 107.087C238.651 106.001 238.827 104.882 239.34 103.905L240.281 102.115L241.348 100.424C241.785 99.7311 242.386 99.1559 243.098 98.7496L244.441 97.9835C244.747 97.8086 245.071 97.6667 245.408 97.56L248.01 96.7351C248.248 96.6596 248.491 96.6021 248.738 96.563L251.106 96.1876C251.588 96.1112 252.079 96.1058 252.562 96.1715L255.105 96.517C255.616 96.5864 256.113 96.7345 256.579 96.956L256.878 97.0982C257.733 97.5047 258.455 98.1454 258.96 98.9458L259.699 100.118C259.846 100.35 259.973 100.594 260.079 100.848L260.259 101.275C260.781 102.515 260.781 103.913 260.259 105.152L260.127 105.467C259.989 105.795 259.816 106.107 259.612 106.399L258.926 107.378C258.819 107.53 258.681 107.656 258.519 107.748C257.545 108.304 257.731 109.761 258.813 110.055L259.537 110.251C259.788 110.32 260.018 110.449 260.206 110.628L260.735 111.131C261.335 111.701 261.763 112.427 261.974 113.227L262.065 113.576C262.174 113.991 262.242 114.432 262.051 114.816C261.83 115.263 261.369 115.845 260.497 116.398C259.811 116.833 259.946 117.871 260.72 118.117L262.23 118.595C263 118.779 264.425 119.474 263.962 120.793C263.737 121.437 263.594 121.845 263.506 122.094C263.425 122.325 263.328 122.55 263.214 122.766L262.538 124.051C262.334 124.44 262.067 124.793 261.749 125.095L260.736 126.059C260.583 126.204 260.497 126.405 260.497 126.616C260.497 127.041 260.841 127.385 261.266 127.385H262.56C263.09 127.385 263.599 127.588 263.982 127.953L265.118 129.033L265.477 129.374C265.985 129.858 266.273 130.529 266.273 131.23C266.273 131.932 265.985 132.603 265.477 133.086L264.647 133.876C264.195 134.306 263.666 134.647 263.088 134.883L260.794 135.818C260.216 136.053 259.652 136.359 259.055 136.54C258.347 136.755 257.162 137.02 255.299 137.273C252.064 137.713 251.255 137.822 251.255 137.822H247.79L243.747 137.273H240.254C239.511 137.273 238.778 137.108 238.107 136.789L236.815 136.174L235.083 135.076L234.056 134.425C233.593 134.131 233.216 133.722 232.961 133.237L232.843 133.013C232.437 132.241 232.437 131.318 232.843 130.546C233.168 129.929 233.723 129.464 234.388 129.253L234.667 129.165C234.943 129.077 235.206 128.954 235.451 128.799L236.741 127.982C236.79 127.95 236.844 127.925 236.9 127.908C237.489 127.721 237.545 126.908 236.986 126.642L235.409 125.892C235.195 125.79 235.011 125.635 234.875 125.441L234.547 124.973C234.158 124.418 234.06 123.71 234.284 123.07C234.428 122.661 234.695 122.306 235.048 122.054L236.74 120.847C236.79 120.811 236.843 120.779 236.899 120.753C237.736 120.355 237.688 119.147 236.821 118.817L236.573 118.723C236.354 118.64 236.166 118.493 236.032 118.302L235.668 117.783C235.287 117.239 235.058 116.586 235.174 115.933C235.257 115.464 235.407 114.991 235.66 114.75C236.122 114.311 237.778 113.102 238.548 112.553L240.281 111.454L242.591 110.355Z" stroke="#53A934"/>
<path d="M407.596 143.158L403.279 141.488C402.649 141.244 401.975 141.131 401.299 141.154L391.92 141.484C391.566 141.497 391.216 141.568 390.886 141.696L389.831 142.104C388.21 142.731 387.754 144.809 388.964 146.056C389.248 146.349 389.6 146.565 389.989 146.685L392.708 147.526C393.783 147.859 394.392 148.509 393.694 149.392C393.29 149.903 392.707 150.59 391.882 151.501C388.434 154.464 406.232 155.762 412.583 156.426C413.028 156.473 413.472 156.389 413.868 156.18L414.866 155.655C416.906 154.583 415.781 150.62 413.501 150.284C413.41 150.27 413.319 150.256 413.228 150.242C411.6 149.977 410.499 146.685 409.737 145.222C409.267 144.321 408.544 143.524 407.596 143.158Z" fill="#017A8B" fill-opacity="0.18"/>
<path d="M403.741 151.007C402.928 151.007 402.008 150.457 402.008 150.457V123.539H405.474V150.457C405.474 150.457 404.554 151.007 403.741 151.007Z" fill="#346C5F" stroke="#346C5F"/>
<g filter="url(#filter4_i_65_905)">
<path d="M392.483 108.186L392.58 108.741C392.701 109.433 393.041 110.067 393.55 110.551C394.16 111.131 394.969 111.454 395.81 111.454H396.232L393.922 112.553L392.189 113.651C391.419 114.201 389.763 115.409 389.301 115.849C389.048 116.09 388.898 116.563 388.815 117.031C388.7 117.685 388.928 118.338 389.309 118.881L389.673 119.401C389.807 119.592 389.996 119.738 390.214 119.822L390.462 119.916C391.329 120.246 391.378 121.453 390.54 121.852C390.485 121.878 390.431 121.91 390.381 121.945L388.689 123.152C388.336 123.404 388.069 123.759 387.926 124.169C387.701 124.808 387.799 125.517 388.188 126.071L388.516 126.54C388.652 126.734 388.836 126.889 389.05 126.991L390.628 127.741C391.186 128.007 391.131 128.819 390.541 129.006C390.485 129.024 390.431 129.049 390.382 129.08L389.092 129.898C388.848 130.053 388.584 130.176 388.308 130.263L388.029 130.352C387.364 130.563 386.809 131.027 386.484 131.645C386.078 132.417 386.078 133.34 386.484 134.112L386.602 134.336C386.857 134.821 387.234 135.23 387.697 135.523L388.724 136.174L390.456 137.273L391.748 137.887C392.419 138.206 393.152 138.372 393.895 138.372H397.388L401.431 138.921H404.896L408.94 138.372C410.803 138.119 411.989 137.853 412.696 137.639C413.293 137.458 413.857 137.152 414.435 136.917L416.729 135.981C417.307 135.746 417.836 135.404 418.288 134.974L419.118 134.185C419.626 133.701 419.914 133.031 419.914 132.329C419.914 131.627 419.626 130.957 419.118 130.473L418.759 130.132L417.623 129.052C417.24 128.687 416.731 128.484 416.201 128.484H414.907C414.482 128.484 414.138 128.139 414.138 127.715C414.138 127.504 414.224 127.303 414.377 127.158L415.39 126.194C415.708 125.891 415.975 125.539 416.18 125.15L416.855 123.865C416.969 123.648 417.067 123.424 417.148 123.193L417.604 121.891C418.066 120.573 416.641 119.877 415.871 119.694L414.361 119.215C413.587 118.97 413.452 117.932 414.138 117.497C415.01 116.944 415.471 116.362 415.692 115.915C415.883 115.531 415.816 115.089 415.707 114.674L415.615 114.326C415.405 113.526 414.976 112.8 414.376 112.23L413.848 111.727C413.659 111.548 413.429 111.418 413.178 111.35L412.454 111.153C411.372 110.859 411.186 109.403 412.16 108.847C412.322 108.755 412.46 108.628 412.567 108.476L413.253 107.497C413.457 107.206 413.63 106.894 413.768 106.566L413.9 106.251C414.422 105.011 414.422 103.614 413.9 102.374L413.72 101.946C413.614 101.693 413.487 101.449 413.34 101.217L412.601 100.045C412.096 99.244 411.374 98.6033 410.519 98.1969L410.22 98.0547C409.754 97.8332 409.257 97.6851 408.746 97.6156L406.203 97.2702C405.72 97.2045 405.229 97.2099 404.747 97.2863L402.379 97.6617C402.132 97.7008 401.889 97.7583 401.651 97.8338L399.049 98.6587C398.712 98.7653 398.388 98.9073 398.082 99.0822L396.739 99.8483C396.027 100.255 395.426 100.83 394.989 101.523L393.922 103.214L392.981 105.004C392.468 105.98 392.293 107.099 392.483 108.186Z" fill="#67AD15"/>
</g>
<path d="M397.388 111.454H396.232M396.232 111.454H395.81C394.969 111.454 394.16 111.131 393.55 110.551C393.041 110.067 392.701 109.433 392.58 108.741L392.483 108.186C392.293 107.099 392.468 105.98 392.981 105.004L393.922 103.214L394.989 101.523C395.426 100.83 396.027 100.255 396.739 99.8483L398.082 99.0822C398.388 98.9073 398.712 98.7653 399.049 98.6587L401.651 97.8338C401.889 97.7583 402.132 97.7008 402.379 97.6617L404.747 97.2863C405.229 97.2099 405.72 97.2045 406.203 97.2702L408.746 97.6156C409.257 97.6851 409.754 97.8332 410.22 98.0547L410.519 98.1969C411.374 98.6033 412.096 99.244 412.601 100.045L413.34 101.217C413.487 101.449 413.614 101.693 413.72 101.946L413.9 102.374C414.422 103.614 414.422 105.011 413.9 106.251L413.768 106.566C413.63 106.894 413.457 107.206 413.253 107.497L412.567 108.476C412.46 108.628 412.322 108.755 412.16 108.847C411.186 109.403 411.372 110.859 412.454 111.153L413.178 111.35C413.429 111.418 413.659 111.548 413.848 111.727L414.376 112.23C414.976 112.8 415.405 113.526 415.615 114.326L415.707 114.674C415.816 115.089 415.883 115.531 415.692 115.915C415.471 116.362 415.01 116.944 414.138 117.497C413.452 117.932 413.587 118.97 414.361 119.215L415.871 119.694C416.641 119.877 418.066 120.573 417.604 121.891C417.378 122.536 417.235 122.944 417.148 123.193C417.067 123.424 416.969 123.648 416.855 123.865L416.18 125.15C415.975 125.539 415.708 125.891 415.39 126.194L414.377 127.158C414.224 127.303 414.138 127.504 414.138 127.715C414.138 128.139 414.482 128.484 414.907 128.484H416.201C416.731 128.484 417.24 128.687 417.623 129.052L418.759 130.132L419.118 130.473C419.626 130.957 419.914 131.627 419.914 132.329C419.914 133.031 419.626 133.701 419.118 134.185L418.288 134.974C417.836 135.404 417.307 135.746 416.729 135.981L414.435 136.917C413.857 137.152 413.293 137.458 412.696 137.639C411.989 137.853 410.803 138.119 408.94 138.372C405.705 138.811 404.896 138.921 404.896 138.921H401.431L397.388 138.372H393.895C393.152 138.372 392.419 138.206 391.748 137.887L390.456 137.273L388.724 136.174L387.697 135.523C387.234 135.23 386.857 134.821 386.602 134.336L386.484 134.112C386.078 133.34 386.078 132.417 386.484 131.645C386.809 131.027 387.364 130.563 388.029 130.352L388.308 130.263C388.584 130.176 388.848 130.053 389.092 129.898L390.382 129.08C390.431 129.049 390.485 129.024 390.541 129.006C391.131 128.819 391.186 128.007 390.628 127.741L389.05 126.991C388.836 126.889 388.652 126.734 388.516 126.54L388.188 126.071C387.799 125.517 387.701 124.808 387.926 124.169C388.069 123.759 388.336 123.404 388.689 123.152L390.381 121.945C390.431 121.91 390.485 121.878 390.54 121.852C391.378 121.453 391.329 120.246 390.462 119.916L390.214 119.822C389.996 119.738 389.807 119.592 389.673 119.401L389.309 118.881C388.928 118.338 388.7 117.685 388.815 117.031C388.898 116.563 389.048 116.09 389.301 115.849C389.763 115.409 391.419 114.201 392.189 113.651L393.922 112.553L396.232 111.454Z" stroke="#53A934"/>
<g filter="url(#filter5_d_65_905)">
<path d="M167 57.2818L173.947 41.5H185.526L179.158 53.3364H189L172.789 72.5L176.842 57.2818H167Z" fill="url(#paint0_linear_65_905)" shape-rendering="crispEdges"/>
<path d="M167 57.2818L173.947 41.5H185.526L179.158 53.3364H189L172.789 72.5L176.842 57.2818H167Z" stroke="white" stroke-opacity="0.3" shape-rendering="crispEdges"/>
</g>
<path d="M266 138.056L307.581 122.5L429.435 125.833L449.647 128.611L456 134.722V146.944L451.957 152.5L433.477 149.722H409.799L370.529 146.944L324.906 149.722H289.1H274.663L266 141.389V138.056Z" fill="#038699" fill-opacity="0.3"/>
<g filter="url(#filter6_d_65_905)">
<path d="M62 16.2818L68.9474 0.5H80.5263L74.1579 12.3364H84L67.7895 31.5L71.8421 16.2818H62Z" fill="url(#paint1_linear_65_905)" shape-rendering="crispEdges"/>
<path d="M62 16.2818L68.9474 0.5H80.5263L74.1579 12.3364H84L67.7895 31.5L71.8421 16.2818H62Z" stroke="white" stroke-opacity="0.3" shape-rendering="crispEdges"/>
</g>
<path d="M313.872 125.109V90.8128H413.912V125.109H313.872Z" fill="#308FAD" stroke="#2785A1" stroke-width="0.5"/>
<path d="M319.443 119.661V97.3748H407.474V119.661H319.443Z" fill="#8FD3E4" stroke="white" stroke-width="4"/>
<path d="M363.149 97.4986V120.032" stroke="white" stroke-width="4"/>
<path d="M347.672 97.3748C347.97 115.105 348.044 119.537 348.044 119.537" stroke="white" stroke-width="4"/>
<path d="M333.681 97.6225C333.681 115.154 333.681 119.537 333.681 119.537" stroke="white" stroke-width="4"/>
<path d="M392.864 97.6225C392.765 115.055 392.823 119.413 392.864 119.413" stroke="white" stroke-width="4"/>
<path d="M426.417 142.814H302.233L314.119 125.109H413.912L426.417 142.814Z" fill="#186EA2" stroke="#186EA2"/>
<path d="M378.75 97.7462C378.65 115.179 378.708 119.537 378.75 119.537" stroke="white" stroke-width="4"/>
<path d="M327.986 123.251V119.908H333.929V123.251H327.986Z" fill="#039CB0" stroke="#039CB0"/>
<path d="M317.338 123.128V119.785H323.281V123.128H317.338Z" fill="#039CB0" stroke="#039CB0"/>
<path d="M332.195 130.433V126.718H332.938V130.433H332.195Z" fill="#074379"/>
<path d="M328.234 130.433V126.718H328.977V130.433H328.234Z" fill="#074379"/>
<path d="M322.538 130.185V126.471H323.281V130.185H322.538Z" fill="#074379"/>
<path d="M318.081 130.185V126.471H318.824V130.185H318.081Z" fill="#074379"/>
<path d="M331.7 130.68V126.966H332.443V130.68H331.7Z" fill="#00529C" stroke="#00529C" stroke-width="0.5"/>
<path d="M322.043 130.433V126.718H322.786V130.433H322.043Z" fill="#00529C" stroke="#00529C" stroke-width="0.5"/>
<path d="M327.738 130.68V126.966H328.481V130.68H327.738Z" fill="#00529C" stroke="#00529C" stroke-width="0.5"/>
<path d="M317.586 130.433V126.718H318.329V130.433H317.586Z" fill="#00529C" stroke="#00529C" stroke-width="0.5"/>
<path d="M333.17 133.157C333.141 133.113 333.1 131.865 333.17 127.214H333.874V133.157H333.17Z" fill="#E3A731" stroke="#E3A731"/>
<path d="M315.644 132.909C315.614 132.866 315.573 131.617 315.644 126.966H316.348V132.909H315.644Z" fill="#E3A731" stroke="#E3A731"/>
<path d="M333.968 129.937C333.938 129.894 333.897 128.645 333.968 123.994H334.672V129.937H333.968Z" fill="#DBA12E"/>
<path d="M334.672 125.851V123.375L333.929 126.223L334.053 126.966L334.672 125.851Z" fill="#E3A731" stroke="#E3A731"/>
<path d="M315.605 126.347L316.471 123.375H334.672L333.929 126.347V127.213L315.605 127.09V126.347Z" fill="#F5B700"/>
<path d="M315.605 126.347C315.605 126.347 315.778 125.752 316.471 123.375H334.672L333.929 126.347M315.605 126.347H333.929M315.605 126.347V127.09L333.929 127.213V126.347" stroke="#F5B700"/>
<path d="M333.963 126.223H315.481" stroke="#E3A731"/>
<path d="M353.368 123.499V120.156H359.311V123.499H353.368Z" fill="#039CB0" stroke="#039CB0"/>
<path d="M342.72 123.375V120.032H348.663V123.375H342.72Z" fill="#039CB0" stroke="#039CB0"/>
<path d="M357.577 130.68V126.966H358.32V130.68H357.577Z" fill="#074379"/>
<path d="M353.615 130.68V126.966H354.358V130.68H353.615Z" fill="#074379"/>
<path d="M347.92 130.433V126.718H348.663V130.433H347.92Z" fill="#074379"/>
<path d="M343.463 130.433V126.718H344.206V130.433H343.463Z" fill="#074379"/>
<path d="M357.082 130.928V127.214H357.825V130.928H357.082Z" fill="#00529C" stroke="#00529C" stroke-width="0.5"/>
<path d="M347.425 130.68V126.966H348.168V130.68H347.425Z" fill="#00529C" stroke="#00529C" stroke-width="0.5"/>
<path d="M353.12 130.928V127.214H353.863V130.928H353.12Z" fill="#00529C" stroke="#00529C" stroke-width="0.5"/>
<path d="M342.968 130.68V126.966H343.711V130.68H342.968Z" fill="#00529C" stroke="#00529C" stroke-width="0.5"/>
<path d="M358.552 133.404C358.523 133.361 358.482 132.112 358.552 127.461H359.256V133.404H358.552Z" fill="#E3A731" stroke="#E3A731"/>
<path d="M341.026 133.157C340.996 133.113 340.955 131.865 341.026 127.214H341.73V133.157H341.026Z" fill="#E3A731" stroke="#E3A731"/>
<path d="M359.35 130.185C359.321 130.142 359.28 128.893 359.35 124.242H360.054V130.185H359.35Z" fill="#DBA12E"/>
<path d="M360.054 126.099V123.623L359.311 126.471L359.435 127.214L360.054 126.099Z" fill="#E3A731" stroke="#E3A731"/>
<path d="M340.987 126.594L341.854 123.623H360.054L359.311 126.594V127.461L340.987 127.337V126.594Z" fill="#F5B700"/>
<path d="M340.987 126.594C340.987 126.594 341.16 126 341.854 123.623H360.054L359.311 126.594M340.987 126.594H359.311M340.987 126.594V127.337L359.311 127.461V126.594" stroke="#F5B700"/>
<path d="M359.345 126.471H340.863" stroke="#E3A731"/>
<path d="M373.425 123.004V119.661H367.482V123.004H373.425Z" fill="#039CB0" stroke="#039CB0"/>
<path d="M384.073 122.88V119.537H378.13V122.88H384.073Z" fill="#039CB0" stroke="#039CB0"/>
<path d="M369.216 130.185V126.471H368.473V130.185H369.216Z" fill="#074379"/>
<path d="M373.178 130.185V126.471H372.435V130.185H373.178Z" fill="#074379"/>
<path d="M378.873 129.937V126.223H378.13V129.937H378.873Z" fill="#074379"/>
<path d="M383.33 129.937V126.223H382.587V129.937H383.33Z" fill="#074379"/>
<path d="M369.711 130.433V126.718H368.968V130.433H369.711Z" fill="#00529C" stroke="#00529C" stroke-width="0.5"/>
<path d="M379.368 130.185V126.471H378.625V130.185H379.368Z" fill="#00529C" stroke="#00529C" stroke-width="0.5"/>
<path d="M373.673 130.433V126.718H372.93V130.433H373.673Z" fill="#00529C" stroke="#00529C" stroke-width="0.5"/>
<path d="M383.825 130.185V126.471H383.082V130.185H383.825Z" fill="#00529C" stroke="#00529C" stroke-width="0.5"/>
<path d="M368.241 132.909C368.27 132.866 368.311 131.617 368.241 126.966H367.537V132.909H368.241Z" fill="#E3A731" stroke="#E3A731"/>
<path d="M385.767 132.661C385.797 132.618 385.838 131.369 385.767 126.718H385.063V132.661H385.767Z" fill="#E3A731" stroke="#E3A731"/>
<path d="M367.444 129.69C367.473 129.647 367.514 128.398 367.444 123.747H366.74V129.69H367.444Z" fill="#DBA12E"/>
<path d="M366.74 125.604V123.128L367.482 125.975L367.359 126.718L366.74 125.604Z" fill="#E3A731" stroke="#E3A731"/>
<path d="M385.806 126.099L384.939 123.128H366.739L367.482 126.099V126.966L385.806 126.842V126.099Z" fill="#F5B700"/>
<path d="M385.806 126.099C385.806 126.099 385.633 125.505 384.939 123.128H366.739L367.482 126.099M385.806 126.099H367.482M385.806 126.099V126.842L367.482 126.966V126.099" stroke="#F5B700"/>
<path d="M367.448 125.975H385.93" stroke="#E3A731"/>
<path d="M399.921 123.004V119.661H393.978V123.004H399.921Z" fill="#039CB0" stroke="#039CB0"/>
<path d="M410.569 122.88V119.537H404.626V122.88H410.569Z" fill="#039CB0" stroke="#039CB0"/>
<path d="M395.712 130.185V126.471H394.969V130.185H395.712Z" fill="#074379"/>
<path d="M399.674 130.185V126.471H398.931V130.185H399.674Z" fill="#074379"/>
<path d="M405.369 129.937V126.223H404.626V129.937H405.369Z" fill="#074379"/>
<path d="M409.826 129.937V126.223H409.083V129.937H409.826Z" fill="#074379"/>
<path d="M396.207 130.433V126.718H395.464V130.433H396.207Z" fill="#00529C" stroke="#00529C" stroke-width="0.5"/>
<path d="M405.865 130.185V126.471H405.122V130.185H405.865Z" fill="#00529C" stroke="#00529C" stroke-width="0.5"/>
<path d="M400.169 130.433V126.718H399.426V130.433H400.169Z" fill="#00529C" stroke="#00529C" stroke-width="0.5"/>
<path d="M410.322 130.185V126.471H409.579V130.185H410.322Z" fill="#00529C" stroke="#00529C" stroke-width="0.5"/>
<path d="M394.737 132.909C394.766 132.866 394.807 131.617 394.737 126.966H394.033V132.909H394.737Z" fill="#E3A731" stroke="#E3A731"/>
<path d="M412.264 132.661C412.293 132.618 412.334 131.369 412.264 126.718H411.56V132.661H412.264Z" fill="#E3A731" stroke="#E3A731"/>
<path d="M393.939 129.69C393.969 129.647 394.01 128.398 393.939 123.747H393.235V129.69H393.939Z" fill="#DBA12E"/>
<path d="M393.235 125.604V123.128L393.978 125.975L393.854 126.718L393.235 125.604Z" fill="#E3A731" stroke="#E3A731"/>
<path d="M412.303 126.099L411.436 123.128H393.236L393.979 126.099V126.966L412.303 126.842V126.099Z" fill="#F5B700"/>
<path d="M412.303 126.099C412.303 126.099 412.129 125.505 411.436 123.128H393.236L393.979 126.099M412.303 126.099H393.979M412.303 126.099V126.842L393.979 126.966V126.099" stroke="#F5B700"/>
<path d="M393.944 125.975H412.426" stroke="#E3A731"/>
<path d="M325.633 129.442V126.099H331.576V129.442H325.633Z" fill="#039CB0" stroke="#039CB0"/>
<path d="M314.985 129.318V125.975H320.928V129.318H314.985Z" fill="#039CB0" stroke="#039CB0"/>
<path d="M329.843 136.623V132.909H330.586V136.623H329.843Z" fill="#074379"/>
<path d="M325.881 136.623V132.909H326.624V136.623H325.881Z" fill="#074379"/>
<path d="M320.185 136.376V132.661H320.928V136.376H320.185Z" fill="#074379"/>
<path d="M315.728 136.376V132.661H316.471V136.376H315.728Z" fill="#074379"/>
<path d="M329.347 136.871V133.156H330.09V136.871H329.347Z" fill="#00529C" stroke="#00529C" stroke-width="0.5"/>
<path d="M319.69 136.623V132.909H320.433V136.623H319.69Z" fill="#00529C" stroke="#00529C" stroke-width="0.5"/>
<path d="M325.385 136.871V133.156H326.128V136.871H325.385Z" fill="#00529C" stroke="#00529C" stroke-width="0.5"/>
<path d="M315.233 136.623V132.909H315.976V136.623H315.233Z" fill="#00529C" stroke="#00529C" stroke-width="0.5"/>
<path d="M330.817 139.347C330.788 139.304 330.747 138.055 330.817 133.404H331.521V139.347H330.817Z" fill="#E3A731" stroke="#E3A731"/>
<path d="M313.291 139.099C313.261 139.056 313.22 137.807 313.291 133.156H313.995V139.099H313.291Z" fill="#E3A731" stroke="#E3A731"/>
<path d="M331.615 136.128C331.586 136.085 331.545 134.836 331.615 130.185H332.319V136.128H331.615Z" fill="#DBA12E"/>
<path d="M332.319 132.042V129.566L331.576 132.414L331.7 133.156L332.319 132.042Z" fill="#E3A731" stroke="#E3A731"/>
<path d="M313.252 132.537L314.119 129.566H332.319L331.576 132.537V133.404L313.252 133.28V132.537Z" fill="#F5B700"/>
<path d="M313.252 132.537C313.252 132.537 313.425 131.943 314.119 129.566H332.319L331.576 132.537M313.252 132.537H331.576M313.252 132.537V133.28L331.576 133.404V132.537" stroke="#F5B700"/>
<path d="M331.611 132.414H313.128" stroke="#E3A731"/>
<path d="M351.015 129.69V126.347H356.958V129.69H351.015Z" fill="#039CB0" stroke="#039CB0"/>
<path d="M340.367 129.566V126.223H346.31V129.566H340.367Z" fill="#039CB0" stroke="#039CB0"/>
<path d="M355.225 136.871V133.156H355.967V136.871H355.225Z" fill="#074379"/>
<path d="M351.263 136.871V133.156H352.006V136.871H351.263Z" fill="#074379"/>
<path d="M345.567 136.623V132.909H346.31V136.623H345.567Z" fill="#074379"/>
<path d="M341.11 136.623V132.909H341.853V136.623H341.11Z" fill="#074379"/>
<path d="M354.73 137.118V133.404H355.473V137.118H354.73Z" fill="#00529C" stroke="#00529C" stroke-width="0.5"/>
<path d="M345.072 136.871V133.156H345.815V136.871H345.072Z" fill="#00529C" stroke="#00529C" stroke-width="0.5"/>
<path d="M350.768 137.118V133.404H351.51V137.118H350.768Z" fill="#00529C" stroke="#00529C" stroke-width="0.5"/>
<path d="M340.615 136.871V133.156H341.358V136.871H340.615Z" fill="#00529C" stroke="#00529C" stroke-width="0.5"/>
<path d="M356.2 139.595C356.17 139.552 356.129 138.303 356.2 133.652H356.904V139.595H356.2Z" fill="#E3A731" stroke="#E3A731"/>
<path d="M338.673 139.347C338.643 139.304 338.602 138.055 338.673 133.404H339.377V139.347H338.673Z" fill="#E3A731" stroke="#E3A731"/>
<path d="M356.997 136.376C356.968 136.333 356.927 135.084 356.997 130.433H357.701V136.376H356.997Z" fill="#DBA12E"/>
<path d="M357.701 132.29V129.813L356.958 132.661L357.082 133.404L357.701 132.29Z" fill="#E3A731" stroke="#E3A731"/>
<path d="M338.634 132.785L339.5 129.813H357.701L356.958 132.785V133.652L338.634 133.528V132.785Z" fill="#F5B700"/>
<path d="M338.634 132.785C338.634 132.785 338.807 132.191 339.5 129.813H357.701L356.958 132.785M338.634 132.785H356.958M338.634 132.785V133.528L356.958 133.652V132.785" stroke="#F5B700"/>
<path d="M356.992 132.661H338.51" stroke="#E3A731"/>
<path d="M374.168 129.442V126.099H368.225V129.442H374.168Z" fill="#039CB0" stroke="#039CB0"/>
<path d="M384.816 129.318V125.975H378.873V129.318H384.816Z" fill="#039CB0" stroke="#039CB0"/>
<path d="M369.959 136.623V132.909H369.216V136.623H369.959Z" fill="#074379"/>
<path d="M373.921 136.623V132.909H373.178V136.623H373.921Z" fill="#074379"/>
<path d="M379.616 136.376V132.661H378.873V136.376H379.616Z" fill="#074379"/>
<path d="M384.073 136.376V132.661H383.33V136.376H384.073Z" fill="#074379"/>
<path d="M370.454 136.871V133.156H369.711V136.871H370.454Z" fill="#00529C" stroke="#00529C" stroke-width="0.5"/>
<path d="M380.111 136.623V132.909H379.368V136.623H380.111Z" fill="#00529C" stroke="#00529C" stroke-width="0.5"/>
<path d="M374.416 136.871V133.156H373.673V136.871H374.416Z" fill="#00529C" stroke="#00529C" stroke-width="0.5"/>
<path d="M384.568 136.623V132.909H383.825V136.623H384.568Z" fill="#00529C" stroke="#00529C" stroke-width="0.5"/>
<path d="M368.984 139.347C369.013 139.304 369.054 138.055 368.984 133.404H368.28V139.347H368.984Z" fill="#E3A731" stroke="#E3A731"/>
<path d="M386.51 139.099C386.54 139.056 386.581 137.807 386.51 133.156H385.806V139.099H386.51Z" fill="#E3A731" stroke="#E3A731"/>
<path d="M368.186 136.128C368.216 136.085 368.257 134.836 368.186 130.185H367.482V136.128H368.186Z" fill="#DBA12E"/>
<path d="M367.482 132.042V129.566L368.225 132.414L368.101 133.156L367.482 132.042Z" fill="#E3A731" stroke="#E3A731"/>
<path d="M386.549 132.537L385.682 129.566H367.482L368.225 132.537V133.404L386.549 133.28V132.537Z" fill="#F5B700"/>
<path d="M386.549 132.537C386.549 132.537 386.376 131.943 385.682 129.566H367.482L368.225 132.537M386.549 132.537H368.225M386.549 132.537V133.28L368.225 133.404V132.537" stroke="#F5B700"/>
<path d="M368.191 132.414H386.673" stroke="#E3A731"/>
<path d="M401.902 129.442V126.099H395.959V129.442H401.902Z" fill="#039CB0" stroke="#039CB0"/>
<path d="M412.551 129.318V125.975H406.608V129.318H412.551Z" fill="#039CB0" stroke="#039CB0"/>
<path d="M397.693 136.623V132.909H396.95V136.623H397.693Z" fill="#074379"/>
<path d="M401.655 136.623V132.909H400.912V136.623H401.655Z" fill="#074379"/>
<path d="M407.35 136.376V132.661H406.607V136.376H407.35Z" fill="#074379"/>
<path d="M411.807 136.376V132.661H411.064V136.376H411.807Z" fill="#074379"/>
<path d="M398.188 136.871V133.156H397.445V136.871H398.188Z" fill="#00529C" stroke="#00529C" stroke-width="0.5"/>
<path d="M407.846 136.623V132.909H407.103V136.623H407.846Z" fill="#00529C" stroke="#00529C" stroke-width="0.5"/>
<path d="M402.15 136.871V133.156H401.408V136.871H402.15Z" fill="#00529C" stroke="#00529C" stroke-width="0.5"/>
<path d="M412.303 136.623V132.909H411.56V136.623H412.303Z" fill="#00529C" stroke="#00529C" stroke-width="0.5"/>
<path d="M396.718 139.347C396.748 139.304 396.789 138.055 396.718 133.404H396.014V139.347H396.718Z" fill="#E3A731" stroke="#E3A731"/>
<path d="M414.245 139.099C414.274 139.056 414.315 137.807 414.245 133.156H413.541V139.099H414.245Z" fill="#E3A731" stroke="#E3A731"/>
<path d="M395.921 136.128C395.95 136.085 395.991 134.836 395.921 130.185H395.217V136.128H395.921Z" fill="#DBA12E"/>
<path d="M395.217 132.042V129.566L395.96 132.414L395.836 133.156L395.217 132.042Z" fill="#E3A731" stroke="#E3A731"/>
<path d="M414.284 132.537L413.417 129.566H395.217L395.959 132.537V133.404L414.284 133.28V132.537Z" fill="#F5B700"/>
<path d="M414.284 132.537C414.284 132.537 414.11 131.943 413.417 129.566H395.217L395.959 132.537M414.284 132.537H395.959M414.284 132.537V133.28L395.959 133.404V132.537" stroke="#F5B700"/>
<path d="M395.925 132.414H414.407" stroke="#E3A731"/>
<path d="M302.233 142.566H299.138V105.794L312.014 88.7079H416.264L429.512 106.165V142.442H426.169V106.165L414.655 90.6889H313.748L302.233 105.794V142.566Z" fill="#186EA2" stroke="#186EA2"/>
<path d="M313.871 90.6889L302.233 105.918V142.566L313.871 125.109V90.6889Z" fill="#308FAD" stroke="#2785A1"/>
<path d="M313.376 98.613L305.575 109.508V134.147L313.376 122.632V98.613Z" fill="#8FD3E4" fill-opacity="0.8" stroke="white" stroke-width="3"/>
<path d="M309.29 104.432L310.033 127.461" stroke="white" stroke-width="3" stroke-linecap="round"/>
<path d="M305.328 130.68L312.701 99.8388C312.734 99.7008 312.857 99.6035 312.999 99.6035C313.194 99.6035 313.339 99.7823 313.299 99.9727L306.319 133.404C305.964 133.404 305.664 133.142 305.616 132.791L305.328 130.68Z" fill="white" fill-opacity="0.2"/>
<path d="M319.319 113.594L345.196 97.7462H347.919L319.319 119.166V113.594Z" fill="white" fill-opacity="0.2"/>
<path d="M378.625 113.686L405.062 97.7462H407.845L378.625 119.289V113.686Z" fill="white" fill-opacity="0.2"/>
<path d="M414.036 125.109V90.9366V90.8128H414.655L426.169 106.289V142.566L414.036 125.109Z" fill="#308FAD" stroke="#308FAD"/>
<path d="M416.016 97.2508L423.817 108.146V132.785L416.016 121.27V97.2508Z" fill="#8FD3E4" fill-opacity="0.8" stroke="white" stroke-width="3"/>
<path d="M420.102 103.07L419.359 126.099" stroke="white" stroke-width="3" stroke-linecap="round"/>
<path d="M424.064 129.318L416.692 98.4766C416.659 98.3387 416.536 98.2413 416.394 98.2413C416.199 98.2413 416.054 98.4202 416.094 98.6105L423.074 132.042C423.429 132.042 423.729 131.78 423.777 131.429L424.064 129.318Z" fill="white" fill-opacity="0.2"/>
<path d="M298.952 147.271V142.78L429.698 142.566V147.271H298.952Z" fill="#074379" stroke="#074379"/>
<path d="M429.636 151.976V147.485L298.891 147.271V151.976H429.636Z" fill="#E3A731" stroke="#E3A731"/>
<g filter="url(#filter7_d_65_905)">
<path d="M302 96.2818L308.947 80.5H320.526L314.158 92.3364H324L307.789 111.5L311.842 96.2818H302Z" fill="url(#paint2_linear_65_905)" shape-rendering="crispEdges"/>
<path d="M302 96.2818L308.947 80.5H320.526L314.158 92.3364H324L307.789 111.5L311.842 96.2818H302Z" stroke="white" stroke-opacity="0.3" shape-rendering="crispEdges"/>
</g>
<g filter="url(#filter8_d_65_905)">
<path d="M415 47.2818L421.947 31.5H433.526L427.158 43.3364H437L420.789 62.5L424.842 47.2818H415Z" fill="url(#paint3_linear_65_905)" shape-rendering="crispEdges"/>
<path d="M415 47.2818L421.947 31.5H433.526L427.158 43.3364H437L420.789 62.5L424.842 47.2818H415Z" stroke="white" stroke-opacity="0.3" shape-rendering="crispEdges"/>
</g>
<defs>
<filter id="filter0_d_65_905" x="30.0283" y="82.4576" width="127.085" height="76.2469" filterUnits="userSpaceOnUse" color-interpolation-filters="sRGB">
<feFlood flood-opacity="0" result="BackgroundImageFix"/>
<feColorMatrix in="SourceAlpha" type="matrix" values="0 0 0 0 0 0 0 0 0 0 0 0 0 0 0 0 0 0 127 0" result="hardAlpha"/>
<feOffset dy="2"/>
<feGaussianBlur stdDeviation="2"/>
<feComposite in2="hardAlpha" operator="out"/>
<feColorMatrix type="matrix" values="0 0 0 0 0 0 0 0 0 0 0 0 0 0 0 0 0 0 0.15 0"/>
<feBlend mode="normal" in2="BackgroundImageFix" result="effect1_dropShadow_65_905"/>
<feBlend mode="normal" in="SourceGraphic" in2="effect1_dropShadow_65_905" result="shape"/>
</filter>
<filter id="filter1_i_65_905" x="10.8184" y="89.5832" width="34.7344" height="46.6965" filterUnits="userSpaceOnUse" color-interpolation-filters="sRGB">
<feFlood flood-opacity="0" result="BackgroundImageFix"/>
<feBlend mode="normal" in="SourceGraphic" in2="BackgroundImageFix" result="shape"/>
<feColorMatrix in="SourceAlpha" type="matrix" values="0 0 0 0 0 0 0 0 0 0 0 0 0 0 0 0 0 0 127 0" result="hardAlpha"/>
<feOffset dy="4"/>
<feGaussianBlur stdDeviation="2"/>
<feComposite in2="hardAlpha" operator="arithmetic" k2="-1" k3="1"/>
<feColorMatrix type="matrix" values="0 0 0 0 0.32549 0 0 0 0 0.662745 0 0 0 0 0.203922 0 0 0 1 0"/>
<feBlend mode="normal" in2="shape" result="effect1_innerShadow_65_905"/>
</filter>
<filter id="filter2_i_65_905" x="136.157" y="92.8792" width="34.7344" height="46.6964" filterUnits="userSpaceOnUse" color-interpolation-filters="sRGB">
<feFlood flood-opacity="0" result="BackgroundImageFix"/>
<feBlend mode="normal" in="SourceGraphic" in2="BackgroundImageFix" result="shape"/>
<feColorMatrix in="SourceAlpha" type="matrix" values="0 0 0 0 0 0 0 0 0 0 0 0 0 0 0 0 0 0 127 0" result="hardAlpha"/>
<feOffset dy="4"/>
<feGaussianBlur stdDeviation="2"/>
<feComposite in2="hardAlpha" operator="arithmetic" k2="-1" k3="1"/>
<feColorMatrix type="matrix" values="0 0 0 0 0.32549 0 0 0 0 0.662745 0 0 0 0 0.203922 0 0 0 1 0"/>
<feBlend mode="normal" in2="shape" result="effect1_innerShadow_65_905"/>
</filter>
<filter id="filter3_i_65_905" x="232.039" y="95.626" width="34.7344" height="46.6964" filterUnits="userSpaceOnUse" color-interpolation-filters="sRGB">
<feFlood flood-opacity="0" result="BackgroundImageFix"/>
<feBlend mode="normal" in="SourceGraphic" in2="BackgroundImageFix" result="shape"/>
<feColorMatrix in="SourceAlpha" type="matrix" values="0 0 0 0 0 0 0 0 0 0 0 0 0 0 0 0 0 0 127 0" result="hardAlpha"/>
<feOffset dy="4"/>
<feGaussianBlur stdDeviation="2"/>
<feComposite in2="hardAlpha" operator="arithmetic" k2="-1" k3="1"/>
<feColorMatrix type="matrix" values="0 0 0 0 0.32549 0 0 0 0 0.662745 0 0 0 0 0.203922 0 0 0 1 0"/>
<feBlend mode="normal" in2="shape" result="effect1_innerShadow_65_905"/>
</filter>
<filter id="filter4_i_65_905" x="385.68" y="96.7246" width="34.7344" height="46.6964" filterUnits="userSpaceOnUse" color-interpolation-filters="sRGB">
<feFlood flood-opacity="0" result="BackgroundImageFix"/>
<feBlend mode="normal" in="SourceGraphic" in2="BackgroundImageFix" result="shape"/>
<feColorMatrix in="SourceAlpha" type="matrix" values="0 0 0 0 0 0 0 0 0 0 0 0 0 0 0 0 0 0 127 0" result="hardAlpha"/>
<feOffset dy="4"/>
<feGaussianBlur stdDeviation="2"/>
<feComposite in2="hardAlpha" operator="arithmetic" k2="-1" k3="1"/>
<feColorMatrix type="matrix" values="0 0 0 0 0.32549 0 0 0 0 0.662745 0 0 0 0 0.203922 0 0 0 1 0"/>
<feBlend mode="normal" in2="shape" result="effect1_innerShadow_65_905"/>
</filter>
<filter id="filter5_d_65_905" x="162.234" y="41" width="31.8442" height="39.8229" filterUnits="userSpaceOnUse" color-interpolation-filters="sRGB">
<feFlood flood-opacity="0" result="BackgroundImageFix"/>
<feColorMatrix in="SourceAlpha" type="matrix" values="0 0 0 0 0 0 0 0 0 0 0 0 0 0 0 0 0 0 127 0" result="hardAlpha"/>
<feOffset dy="4"/>
<feGaussianBlur stdDeviation="2"/>
<feComposite in2="hardAlpha" operator="out"/>
<feColorMatrix type="matrix" values="0 0 0 0 1 0 0 0 0 0.906397 0 0 0 0 0.628934 0 0 0 1 0"/>
<feBlend mode="normal" in2="BackgroundImageFix" result="effect1_dropShadow_65_905"/>
<feBlend mode="normal" in="SourceGraphic" in2="effect1_dropShadow_65_905" result="shape"/>
</filter>
<filter id="filter6_d_65_905" x="57.2336" y="0" width="31.8442" height="39.8229" filterUnits="userSpaceOnUse" color-interpolation-filters="sRGB">
<feFlood flood-opacity="0" result="BackgroundImageFix"/>
<feColorMatrix in="SourceAlpha" type="matrix" values="0 0 0 0 0 0 0 0 0 0 0 0 0 0 0 0 0 0 127 0" result="hardAlpha"/>
<feOffset dy="4"/>
<feGaussianBlur stdDeviation="2"/>
<feComposite in2="hardAlpha" operator="out"/>
<feColorMatrix type="matrix" values="0 0 0 0 1 0 0 0 0 0.906397 0 0 0 0 0.628934 0 0 0 1 0"/>
<feBlend mode="normal" in2="BackgroundImageFix" result="effect1_dropShadow_65_905"/>
<feBlend mode="normal" in="SourceGraphic" in2="effect1_dropShadow_65_905" result="shape"/>
</filter>
<filter id="filter7_d_65_905" x="297.234" y="80" width="31.8442" height="39.8229" filterUnits="userSpaceOnUse" color-interpolation-filters="sRGB">
<feFlood flood-opacity="0" result="BackgroundImageFix"/>
<feColorMatrix in="SourceAlpha" type="matrix" values="0 0 0 0 0 0 0 0 0 0 0 0 0 0 0 0 0 0 127 0" result="hardAlpha"/>
<feOffset dy="4"/>
<feGaussianBlur stdDeviation="2"/>
<feComposite in2="hardAlpha" operator="out"/>
<feColorMatrix type="matrix" values="0 0 0 0 1 0 0 0 0 0.906397 0 0 0 0 0.628934 0 0 0 1 0"/>
<feBlend mode="normal" in2="BackgroundImageFix" result="effect1_dropShadow_65_905"/>
<feBlend mode="normal" in="SourceGraphic" in2="effect1_dropShadow_65_905" result="shape"/>
</filter>
<filter id="filter8_d_65_905" x="410.234" y="31" width="31.8442" height="39.8229" filterUnits="userSpaceOnUse" color-interpolation-filters="sRGB">
<feFlood flood-opacity="0" result="BackgroundImageFix"/>
<feColorMatrix in="SourceAlpha" type="matrix" values="0 0 0 0 0 0 0 0 0 0 0 0 0 0 0 0 0 0 127 0" result="hardAlpha"/>
<feOffset dy="4"/>
<feGaussianBlur stdDeviation="2"/>
<feComposite in2="hardAlpha" operator="out"/>
<feColorMatrix type="matrix" values="0 0 0 0 1 0 0 0 0 0.906397 0 0 0 0 0.628934 0 0 0 1 0"/>
<feBlend mode="normal" in2="BackgroundImageFix" result="effect1_dropShadow_65_905"/>
<feBlend mode="normal" in="SourceGraphic" in2="effect1_dropShadow_65_905" result="shape"/>
</filter>
<linearGradient id="paint0_linear_65_905" x1="178" y1="41.5" x2="178" y2="72.5" gradientUnits="userSpaceOnUse">
<stop stop-color="#FFE7A0"/>
<stop offset="0.6875" stop-color="#F5B700"/>
</linearGradient>
<linearGradient id="paint1_linear_65_905" x1="73" y1="0.5" x2="73" y2="31.5" gradientUnits="userSpaceOnUse">
<stop stop-color="#FFE7A0"/>
<stop offset="0.6875" stop-color="#F5B700"/>
</linearGradient>
<linearGradient id="paint2_linear_65_905" x1="313" y1="80.5" x2="313" y2="111.5" gradientUnits="userSpaceOnUse">
<stop stop-color="#FFE7A0"/>
<stop offset="0.6875" stop-color="#F5B700"/>
</linearGradient>
<linearGradient id="paint3_linear_65_905" x1="426" y1="31.5" x2="426" y2="62.5" gradientUnits="userSpaceOnUse">
<stop stop-color="#FFE7A0"/>
<stop offset="0.6875" stop-color="#F5B700"/>
</linearGradient>
</defs>
</svg>
