<svg width="163" height="60" viewBox="0 0 163 60" fill="none" xmlns="http://www.w3.org/2000/svg">
<path d="M7.18586 35.0918L19.1965 33.0424C20.3937 32.8381 21.6124 32.7919 22.8216 32.9051L129.989 42.9366C132.322 43.1549 134.672 43.1007 136.992 42.7749L143.203 41.9028C145.027 41.6467 146.886 41.9343 148.547 42.7294L151.56 44.1716C154.564 45.6093 155.832 49.2106 154.391 52.2127C153.522 54.0247 151.806 55.2839 149.817 55.5701L128.248 58.6731C124.431 59.2222 120.56 59.298 116.724 58.8986L105.733 57.7542C97.2631 56.8724 88.729 56.7879 80.2431 57.502L72.8379 58.1251C61.9818 59.0386 51.0567 58.7038 40.2769 57.1272L28.515 55.4069C27.1749 55.2109 25.8188 55.146 24.4661 55.2132L7.43711 56.0591C3.53844 56.2527 0.394331 52.9077 0.828808 49.0285C0.941301 48.0241 1.29253 47.0612 1.85315 46.2203L4.00785 42.9882C4.63255 42.0512 4.78047 40.875 4.40725 39.8125C3.67155 37.7179 4.99753 35.4652 7.18586 35.0918Z" fill="#FFB2B2" fill-opacity="0.5"/>
<path d="M41.9445 30.7373V2.24854H125.046V30.7373H41.9445Z" fill="#308FAD" stroke="#2785A1" stroke-width="0.5"/>
<path d="M46.5724 26.2119V7.69934H119.697V26.2119H46.5724Z" fill="#8FD3E4" stroke="white" stroke-width="4"/>
<path d="M82.8778 7.802V26.5202" stroke="white" stroke-width="4"/>
<path d="M70.0217 7.69922C70.2686 22.427 70.3303 26.1089 70.3303 26.1089" stroke="white" stroke-width="4"/>
<path d="M58.3997 7.90503C58.3997 22.4682 58.3997 26.109 58.3997 26.109" stroke="white" stroke-width="4"/>
<path d="M107.561 7.90503C107.479 22.3859 107.527 26.0062 107.561 26.0062" stroke="white" stroke-width="4"/>
<path d="M135.433 45.4445H32.2764L42.1498 30.7373H125.045L135.433 45.4445Z" fill="#186EA2" stroke="#186EA2"/>
<path d="M95.837 8.00793C95.7547 22.4889 95.8027 26.1091 95.837 26.1091" stroke="white" stroke-width="4"/>
<path d="M53.6689 29.1944V26.4175H58.6057V29.1944H53.6689Z" fill="#039CB0" stroke="#039CB0"/>
<path d="M44.8237 29.0916V26.3147H49.7604V29.0916H44.8237Z" fill="#039CB0" stroke="#039CB0"/>
<path d="M57.1654 35.1595V32.0741H57.7825V35.1595H57.1654Z" fill="#074379"/>
<path d="M53.8748 35.1595V32.0741H54.4919V35.1595H53.8748Z" fill="#074379"/>
<path d="M49.1432 34.954V31.8685H49.7603V34.954H49.1432Z" fill="#074379"/>
<path d="M45.4411 34.954V31.8685H46.0582V34.954H45.4411Z" fill="#074379"/>
<path d="M56.7544 35.3653V32.2799H57.3715V35.3653H56.7544Z" fill="#00529C" stroke="#00529C" stroke-width="0.5"/>
<path d="M48.7321 35.1595V32.0741H49.3492V35.1595H48.7321Z" fill="#00529C" stroke="#00529C" stroke-width="0.5"/>
<path d="M53.4629 35.3653V32.2799H54.08V35.3653H53.4629Z" fill="#00529C" stroke="#00529C" stroke-width="0.5"/>
<path d="M45.0295 35.1595V32.0741H45.6466V35.1595H45.0295Z" fill="#00529C" stroke="#00529C" stroke-width="0.5"/>
<path d="M57.9753 37.4224C57.9509 37.3866 57.9168 36.3492 57.9753 32.4857H58.5601V37.4224H57.9753Z" fill="#E3A731" stroke="#E3A731"/>
<path d="M43.4163 37.2166C43.392 37.1808 43.3578 36.1434 43.4163 32.2799H44.0011V37.2166H43.4163Z" fill="#E3A731" stroke="#E3A731"/>
<path d="M58.6376 34.7481C58.6132 34.7123 58.5791 33.6749 58.6376 29.8114H59.2224V34.7481H58.6376Z" fill="#DBA12E"/>
<path d="M59.2224 31.3543V29.2974L58.6053 31.6629L58.7081 32.2799L59.2224 31.3543Z" fill="#E3A731" stroke="#E3A731"/>
<path d="M43.384 31.7657L44.104 29.2974H59.2226L58.6055 31.7657V32.4856L43.384 32.3828V31.7657Z" fill="#F5B700"/>
<path d="M43.384 31.7657C43.384 31.7657 43.528 31.272 44.104 29.2974H59.2226L58.6055 31.7657M43.384 31.7657H58.6055M43.384 31.7657V32.3828L58.6055 32.4856V31.7657" stroke="#F5B700"/>
<path d="M58.6339 31.6627H43.2812" stroke="#E3A731"/>
<path d="M74.7533 29.4002V26.6233H79.69V29.4002H74.7533Z" fill="#039CB0" stroke="#039CB0"/>
<path d="M65.9082 29.2974V26.5205H70.8449V29.2974H65.9082Z" fill="#039CB0" stroke="#039CB0"/>
<path d="M78.2499 35.3653V32.2799H78.867V35.3653H78.2499Z" fill="#074379"/>
<path d="M74.9588 35.3653V32.2799H75.5759V35.3653H74.9588Z" fill="#074379"/>
<path d="M70.2279 35.1595V32.0741H70.845V35.1595H70.2279Z" fill="#074379"/>
<path d="M66.5256 35.1595V32.0741H67.1427V35.1595H66.5256Z" fill="#074379"/>
<path d="M77.8386 35.5711V32.4857H78.4557V35.5711H77.8386Z" fill="#00529C" stroke="#00529C" stroke-width="0.5"/>
<path d="M69.8165 35.3653V32.2799H70.4336V35.3653H69.8165Z" fill="#00529C" stroke="#00529C" stroke-width="0.5"/>
<path d="M74.5476 35.5711V32.4857H75.1647V35.5711H74.5476Z" fill="#00529C" stroke="#00529C" stroke-width="0.5"/>
<path d="M66.1141 35.3653V32.2799H66.7312V35.3653H66.1141Z" fill="#00529C" stroke="#00529C" stroke-width="0.5"/>
<path d="M79.0595 37.6278C79.0351 37.5921 79.001 36.5546 79.0595 32.6912H79.6443V37.6278H79.0595Z" fill="#E3A731" stroke="#E3A731"/>
<path d="M64.5008 37.4224C64.4764 37.3866 64.4423 36.3492 64.5008 32.4857H65.0856V37.4224H64.5008Z" fill="#E3A731" stroke="#E3A731"/>
<path d="M79.7223 34.9539C79.6979 34.9181 79.6638 33.8807 79.7223 30.0172H80.3071V34.9539H79.7223Z" fill="#DBA12E"/>
<path d="M80.3071 31.56V29.5031L79.69 31.8685L79.7929 32.4856L80.3071 31.56Z" fill="#E3A731" stroke="#E3A731"/>
<path d="M64.4685 31.9714L65.1884 29.5031H80.3071L79.69 31.9714V32.6913L64.4685 32.5885V31.9714Z" fill="#F5B700"/>
<path d="M64.4685 31.9714C64.4685 31.9714 64.6125 31.4777 65.1884 29.5031H80.3071L79.69 31.9714M64.4685 31.9714H79.69M64.4685 31.9714V32.5885L79.69 32.6913V31.9714" stroke="#F5B700"/>
<path d="M79.7183 31.8685H64.3655" stroke="#E3A731"/>
<path d="M91.4142 28.989V26.2122H86.4775V28.989H91.4142Z" fill="#039CB0" stroke="#039CB0"/>
<path d="M100.259 28.886V26.1091H95.3225V28.886H100.259Z" fill="#039CB0" stroke="#039CB0"/>
<path d="M87.9175 34.9542V31.8688H87.3004V34.9542H87.9175Z" fill="#074379"/>
<path d="M91.2089 34.9542V31.8688H90.5918V34.9542H91.2089Z" fill="#074379"/>
<path d="M95.9398 34.7484V31.663H95.3227V34.7484H95.9398Z" fill="#074379"/>
<path d="M99.6421 34.7484V31.663H99.025V34.7484H99.6421Z" fill="#074379"/>
<path d="M88.329 35.1598V32.0743H87.712V35.1598H88.329Z" fill="#00529C" stroke="#00529C" stroke-width="0.5"/>
<path d="M96.3511 34.9542V31.8688H95.734V34.9542H96.3511Z" fill="#00529C" stroke="#00529C" stroke-width="0.5"/>
<path d="M91.6201 35.1598V32.0743H91.003V35.1598H91.6201Z" fill="#00529C" stroke="#00529C" stroke-width="0.5"/>
<path d="M100.053 34.9542V31.8688H99.4364V34.9542H100.053Z" fill="#00529C" stroke="#00529C" stroke-width="0.5"/>
<path d="M87.1079 37.2168C87.1323 37.1811 87.1664 36.1436 87.1079 32.2802H86.5231V37.2168H87.1079Z" fill="#E3A731" stroke="#E3A731"/>
<path d="M101.667 37.011C101.691 36.9752 101.725 35.9378 101.667 32.0743H101.082V37.011H101.667Z" fill="#E3A731" stroke="#E3A731"/>
<path d="M86.4455 34.5428C86.4699 34.507 86.504 33.4696 86.4455 29.6061H85.8607V34.5428H86.4455Z" fill="#DBA12E"/>
<path d="M85.8607 31.1487V29.0918L86.4778 31.4573L86.3749 32.0744L85.8607 31.1487Z" fill="#E3A731" stroke="#E3A731"/>
<path d="M101.699 31.5601L100.979 29.0918H85.8603L86.4774 31.5601V32.2801L101.699 32.1772V31.5601Z" fill="#F5B700"/>
<path d="M101.699 31.5601C101.699 31.5601 101.555 31.0665 100.979 29.0918H85.8603L86.4774 31.5601M101.699 31.5601H86.4774M101.699 31.5601V32.1772L86.4774 32.2801V31.5601" stroke="#F5B700"/>
<path d="M86.4492 31.4573H101.802" stroke="#E3A731"/>
<path d="M113.424 28.989V26.2122H108.487V28.989H113.424Z" fill="#039CB0" stroke="#039CB0"/>
<path d="M122.269 28.886V26.1091H117.332V28.886H122.269Z" fill="#039CB0" stroke="#039CB0"/>
<path d="M109.927 34.9542V31.8688H109.31V34.9542H109.927Z" fill="#074379"/>
<path d="M113.218 34.9542V31.8688H112.601V34.9542H113.218Z" fill="#074379"/>
<path d="M117.949 34.7484V31.663H117.332V34.7484H117.949Z" fill="#074379"/>
<path d="M121.652 34.7484V31.663H121.035V34.7484H121.652Z" fill="#074379"/>
<path d="M110.339 35.1598V32.0743H109.722V35.1598H110.339Z" fill="#00529C" stroke="#00529C" stroke-width="0.5"/>
<path d="M118.361 34.9542V31.8688H117.744V34.9542H118.361Z" fill="#00529C" stroke="#00529C" stroke-width="0.5"/>
<path d="M113.63 35.1598V32.0743H113.013V35.1598H113.63Z" fill="#00529C" stroke="#00529C" stroke-width="0.5"/>
<path d="M122.063 34.9542V31.8688H121.446V34.9542H122.063Z" fill="#00529C" stroke="#00529C" stroke-width="0.5"/>
<path d="M109.117 37.2168C109.142 37.1811 109.176 36.1436 109.117 32.2802H108.533V37.2168H109.117Z" fill="#E3A731" stroke="#E3A731"/>
<path d="M123.677 37.011C123.701 36.9752 123.735 35.9378 123.677 32.0743H123.092V37.011H123.677Z" fill="#E3A731" stroke="#E3A731"/>
<path d="M108.455 34.5428C108.479 34.507 108.513 33.4696 108.455 29.6061H107.87V34.5428H108.455Z" fill="#DBA12E"/>
<path d="M107.87 31.1487V29.0918L108.487 31.4573L108.384 32.0744L107.87 31.1487Z" fill="#E3A731" stroke="#E3A731"/>
<path d="M123.709 31.5601L122.989 29.0918H107.87L108.487 31.5601V32.2801L123.709 32.1772V31.5601Z" fill="#F5B700"/>
<path d="M123.709 31.5601C123.709 31.5601 123.565 31.0665 122.989 29.0918H107.87L108.487 31.5601M123.709 31.5601H108.487M123.709 31.5601V32.1772L108.487 32.2801V31.5601" stroke="#F5B700"/>
<path d="M108.459 31.4573H123.812" stroke="#E3A731"/>
<path d="M51.7145 34.3368V31.5599H56.6512V34.3368H51.7145Z" fill="#039CB0" stroke="#039CB0"/>
<path d="M42.8693 34.2342V31.4573H47.806V34.2342H42.8693Z" fill="#039CB0" stroke="#039CB0"/>
<path d="M55.2115 40.302V37.2166H55.8286V40.302H55.2115Z" fill="#074379"/>
<path d="M51.9201 40.302V37.2166H52.5372V40.302H51.9201Z" fill="#074379"/>
<path d="M47.189 40.0964V37.011H47.8061V40.0964H47.189Z" fill="#074379"/>
<path d="M43.4864 40.0964V37.011H44.1035V40.0964H43.4864Z" fill="#074379"/>
<path d="M54.7997 40.5078V37.4224H55.4168V40.5078H54.7997Z" fill="#00529C" stroke="#00529C" stroke-width="0.5"/>
<path d="M46.7775 40.302V37.2166H47.3946V40.302H46.7775Z" fill="#00529C" stroke="#00529C" stroke-width="0.5"/>
<path d="M51.5084 40.5078V37.4224H52.1255V40.5078H51.5084Z" fill="#00529C" stroke="#00529C" stroke-width="0.5"/>
<path d="M43.075 40.302V37.2166H43.692V40.302H43.075Z" fill="#00529C" stroke="#00529C" stroke-width="0.5"/>
<path d="M56.0208 42.5646C55.9964 42.5288 55.9623 41.4914 56.0208 37.6279H56.6056V42.5646H56.0208Z" fill="#E3A731" stroke="#E3A731"/>
<path d="M41.4619 42.359C41.4375 42.3233 41.4034 41.2859 41.4619 37.4224H42.0467V42.359H41.4619Z" fill="#E3A731" stroke="#E3A731"/>
<path d="M56.6834 39.8908C56.659 39.855 56.6249 38.8176 56.6834 34.9541H57.2682V39.8908H56.6834Z" fill="#DBA12E"/>
<path d="M57.2682 36.4968V34.4398L56.6511 36.8053L56.754 37.4224L57.2682 36.4968Z" fill="#E3A731" stroke="#E3A731"/>
<path d="M41.4296 36.9082L42.1495 34.4398H57.2682L56.6511 36.9082V37.6281L41.4296 37.5252V36.9082Z" fill="#F5B700"/>
<path d="M41.4296 36.9082C41.4296 36.9082 41.5736 36.4145 42.1495 34.4398H57.2682L56.6511 36.9082M41.4296 36.9082H56.6511M41.4296 36.9082V37.5252L56.6511 37.6281V36.9082" stroke="#F5B700"/>
<path d="M56.6798 36.8053H41.327" stroke="#E3A731"/>
<path d="M72.7987 34.5425V31.7656H77.7354V34.5425H72.7987Z" fill="#039CB0" stroke="#039CB0"/>
<path d="M63.9537 34.4395V31.6626H68.8904V34.4395H63.9537Z" fill="#039CB0" stroke="#039CB0"/>
<path d="M76.2953 40.5077V37.4222H76.9124V40.5077H76.2953Z" fill="#074379"/>
<path d="M73.0043 40.5077V37.4222H73.6214V40.5077H73.0043Z" fill="#074379"/>
<path d="M68.2734 40.3019V37.2164H68.8905V40.3019H68.2734Z" fill="#074379"/>
<path d="M64.571 40.3019V37.2164H65.1881V40.3019H64.571Z" fill="#074379"/>
<path d="M75.8844 40.7132V37.6278H76.5015V40.7132H75.8844Z" fill="#00529C" stroke="#00529C" stroke-width="0.5"/>
<path d="M67.8621 40.5077V37.4222H68.4792V40.5077H67.8621Z" fill="#00529C" stroke="#00529C" stroke-width="0.5"/>
<path d="M72.593 40.7132V37.6278H73.2101V40.7132H72.593Z" fill="#00529C" stroke="#00529C" stroke-width="0.5"/>
<path d="M64.1597 40.5077V37.4222H64.7768V40.5077H64.1597Z" fill="#00529C" stroke="#00529C" stroke-width="0.5"/>
<path d="M77.1053 42.7703C77.0809 42.7345 77.0468 41.6971 77.1053 37.8336H77.6901V42.7703H77.1053Z" fill="#E3A731" stroke="#E3A731"/>
<path d="M62.5461 42.5645C62.5217 42.5287 62.4876 41.4913 62.5461 37.6278H63.1309V42.5645H62.5461Z" fill="#E3A731" stroke="#E3A731"/>
<path d="M77.7678 40.0962C77.7434 40.0605 77.7093 39.023 77.7678 35.1595H78.3526V40.0962H77.7678Z" fill="#DBA12E"/>
<path d="M78.3526 36.7022V34.6453L77.7355 37.0108L77.8383 37.6278L78.3526 36.7022Z" fill="#E3A731" stroke="#E3A731"/>
<path d="M62.5138 37.1136L63.2337 34.6453H78.3524L77.7353 37.1136V37.8335L62.5138 37.7307V37.1136Z" fill="#F5B700"/>
<path d="M62.5138 37.1136C62.5138 37.1136 62.6578 36.6199 63.2337 34.6453H78.3524L77.7353 37.1136M62.5138 37.1136H77.7353M62.5138 37.1136V37.7307L77.7353 37.8335V37.1136" stroke="#F5B700"/>
<path d="M77.7639 37.0107H62.4111" stroke="#E3A731"/>
<path d="M92.0313 34.3368V31.5599H87.0946V34.3368H92.0313Z" fill="#039CB0" stroke="#039CB0"/>
<path d="M100.876 34.2342V31.4573H95.9396V34.2342H100.876Z" fill="#039CB0" stroke="#039CB0"/>
<path d="M88.5347 40.302V37.2166H87.9176V40.302H88.5347Z" fill="#074379"/>
<path d="M91.8259 40.302V37.2166H91.2088V40.302H91.8259Z" fill="#074379"/>
<path d="M96.5568 40.0964V37.011H95.9397V40.0964H96.5568Z" fill="#074379"/>
<path d="M100.259 40.0964V37.011H99.6421V40.0964H100.259Z" fill="#074379"/>
<path d="M88.9459 40.5078V37.4224H88.3288V40.5078H88.9459Z" fill="#00529C" stroke="#00529C" stroke-width="0.5"/>
<path d="M96.9681 40.302V37.2166H96.3511V40.302H96.9681Z" fill="#00529C" stroke="#00529C" stroke-width="0.5"/>
<path d="M92.2371 40.5078V37.4224H91.62V40.5078H92.2371Z" fill="#00529C" stroke="#00529C" stroke-width="0.5"/>
<path d="M100.671 40.302V37.2166H100.053V40.302H100.671Z" fill="#00529C" stroke="#00529C" stroke-width="0.5"/>
<path d="M87.725 42.5646C87.7493 42.5288 87.7835 41.4914 87.725 37.6279H87.1402V42.5646H87.725Z" fill="#E3A731" stroke="#E3A731"/>
<path d="M102.284 42.359C102.308 42.3233 102.342 41.2859 102.284 37.4224H101.699V42.359H102.284Z" fill="#E3A731" stroke="#E3A731"/>
<path d="M87.0623 39.8908C87.0867 39.855 87.1208 38.8176 87.0623 34.9541H86.4775V39.8908H87.0623Z" fill="#DBA12E"/>
<path d="M86.4775 36.4968V34.4398L87.0946 36.8053L86.9918 37.4224L86.4775 36.4968Z" fill="#E3A731" stroke="#E3A731"/>
<path d="M102.316 36.9082L101.596 34.4398H86.4774L87.0945 36.9082V37.6281L102.316 37.5252V36.9082Z" fill="#F5B700"/>
<path d="M102.316 36.9082C102.316 36.9082 102.172 36.4145 101.596 34.4398H86.4774L87.0945 36.9082M102.316 36.9082H87.0945M102.316 36.9082V37.5252L87.0945 37.6281V36.9082" stroke="#F5B700"/>
<path d="M87.0662 36.8053H102.419" stroke="#E3A731"/>
<path d="M115.07 34.3368V31.5599H110.133V34.3368H115.07Z" fill="#039CB0" stroke="#039CB0"/>
<path d="M123.915 34.2342V31.4573H118.978V34.2342H123.915Z" fill="#039CB0" stroke="#039CB0"/>
<path d="M111.573 40.302V37.2166H110.956V40.302H111.573Z" fill="#074379"/>
<path d="M114.864 40.302V37.2166H114.247V40.302H114.864Z" fill="#074379"/>
<path d="M119.595 40.0964V37.011H118.978V40.0964H119.595Z" fill="#074379"/>
<path d="M123.297 40.0964V37.011H122.68V40.0964H123.297Z" fill="#074379"/>
<path d="M111.984 40.5078V37.4224H111.367V40.5078H111.984Z" fill="#00529C" stroke="#00529C" stroke-width="0.5"/>
<path d="M120.007 40.302V37.2166H119.39V40.302H120.007Z" fill="#00529C" stroke="#00529C" stroke-width="0.5"/>
<path d="M115.276 40.5078V37.4224H114.658V40.5078H115.276Z" fill="#00529C" stroke="#00529C" stroke-width="0.5"/>
<path d="M123.709 40.302V37.2166H123.092V40.302H123.709Z" fill="#00529C" stroke="#00529C" stroke-width="0.5"/>
<path d="M110.763 42.5646C110.787 42.5288 110.822 41.4914 110.763 37.6279H110.178V42.5646H110.763Z" fill="#E3A731" stroke="#E3A731"/>
<path d="M125.322 42.359C125.346 42.3233 125.381 41.2859 125.322 37.4224H124.737V42.359H125.322Z" fill="#E3A731" stroke="#E3A731"/>
<path d="M110.101 39.8908C110.125 39.855 110.159 38.8176 110.101 34.9541H109.516V39.8908H110.101Z" fill="#DBA12E"/>
<path d="M109.516 36.4968V34.4398L110.133 36.8053L110.03 37.4224L109.516 36.4968Z" fill="#E3A731" stroke="#E3A731"/>
<path d="M125.354 36.9082L124.634 34.4398H109.516L110.133 36.9082V37.6281L125.354 37.5252V36.9082Z" fill="#F5B700"/>
<path d="M125.354 36.9082C125.354 36.9082 125.21 36.4145 124.634 34.4398H109.516L110.133 36.9082M125.354 36.9082H110.133M125.354 36.9082V37.5252L110.133 37.6281V36.9082" stroke="#F5B700"/>
<path d="M110.104 36.8053H125.457" stroke="#E3A731"/>
<path d="M32.2766 45.2386H29.7054V14.6929L40.4016 0.5H127L138.004 15.0015V45.1358H135.228V15.0015L125.663 2.14556H41.8415L32.2766 14.6929V45.2386Z" fill="#186EA2" stroke="#186EA2"/>
<path d="M41.9441 2.14551L32.2764 14.7957V45.2386L41.9441 30.7371V2.14551Z" fill="#308FAD" stroke="#2785A1"/>
<path d="M41.5324 8.72778L35.053 17.7784V38.245L41.5324 28.6802V8.72778Z" fill="#8FD3E4" fill-opacity="0.8" stroke="white" stroke-width="3"/>
<path d="M38.1389 13.5618L38.7559 32.6914" stroke="white" stroke-width="3" stroke-linecap="round"/>
<path d="M34.8478 35.3655L40.9719 9.74622C40.9993 9.63162 41.1018 9.55078 41.2196 9.55078C41.3812 9.55078 41.5019 9.69931 41.4689 9.85746L35.6706 37.6281C35.376 37.6281 35.1266 37.4105 35.0868 37.1186L34.8478 35.3655Z" fill="white" fill-opacity="0.2"/>
<path d="M46.4694 21.1724L67.9646 8.00793H70.2273L46.4694 25.8005V21.1724Z" fill="white" fill-opacity="0.2"/>
<path d="M95.7339 21.2485L117.694 8.00793H120.006L95.7339 25.9034V21.2485Z" fill="white" fill-opacity="0.2"/>
<path d="M125.149 30.7373V2.35138V2.24854H125.663L135.228 15.1045V45.2388L125.149 30.7373Z" fill="#308FAD" stroke="#308FAD"/>
<path d="M126.794 7.59644L133.273 16.647V37.1137L126.794 27.5488V7.59644Z" fill="#8FD3E4" fill-opacity="0.8" stroke="white" stroke-width="3"/>
<path d="M130.188 12.4303L129.571 31.5599" stroke="white" stroke-width="3" stroke-linecap="round"/>
<path d="M133.479 34.234L127.355 8.61475C127.328 8.50015 127.225 8.41931 127.107 8.41931C126.946 8.41931 126.825 8.56784 126.858 8.72599L132.656 36.4967C132.951 36.4967 133.2 36.279 133.24 35.9871L133.479 34.234Z" fill="white" fill-opacity="0.2"/>
<path d="M29.5511 49.1468V45.4163L138.159 45.2386V49.1468H29.5511Z" fill="#074379" stroke="#074379"/>
<path d="M138.108 53.0551V49.3245L29.5 49.1469V53.0551H138.108Z" fill="#E3A731" stroke="#E3A731"/>
<path d="M150.285 44.3232L147.73 43.2843C147.156 43.0509 146.537 42.9414 145.918 42.9643L140.039 43.1816C139.785 43.191 139.534 43.2449 139.298 43.3409L138.653 43.6031C137.553 44.0502 137.239 45.4579 138.044 46.3305C138.241 46.5447 138.49 46.7045 138.767 46.7946L139.881 47.157C141.003 47.522 141.52 48.2462 140.779 49.1649C140.562 49.4342 140.299 49.7498 139.982 50.1185C137.719 52.1631 149.353 53.0629 153.572 53.5243C153.893 53.5594 154.212 53.4958 154.495 53.3397L155.175 52.9636C156.552 52.2019 155.974 49.5217 154.415 49.3046C153.273 49.1456 152.258 46.8143 151.745 45.7824C151.431 45.1491 150.94 44.5896 150.285 44.3232Z" fill="#017A8B" fill-opacity="0.18"/>
<path d="M147.791 49.7762C147.256 49.7762 146.65 49.3958 146.65 49.3958V30.7578H148.933V49.3958C148.933 49.3958 148.327 49.7762 147.791 49.7762Z" fill="#346C5F" stroke="#346C5F"/>
<g filter="url(#filter0_i_209_1324)">
<path d="M140.376 20.1157L140.449 20.5541C140.524 21.0057 140.738 21.4225 141.062 21.7462C141.474 22.1581 142.033 22.3896 142.615 22.3896H142.847L141.325 23.1503L140.184 23.911C139.677 24.2914 138.587 25.1282 138.282 25.4325C138.11 25.6044 138.011 25.9464 137.958 26.28C137.887 26.7158 138.033 27.15 138.277 27.5173L138.523 27.8865C138.614 28.0223 138.744 28.1275 138.895 28.1882L139.046 28.2486C139.635 28.4839 139.669 29.3036 139.102 29.5869C139.063 29.6066 139.025 29.6298 138.99 29.6563L137.897 30.4764C137.652 30.6595 137.47 30.9128 137.373 31.2024C137.227 31.6418 137.291 32.1241 137.548 32.5095L137.762 32.8295C137.853 32.9673 137.98 33.0788 138.128 33.1529L139.165 33.6713C139.541 33.8594 139.502 34.4084 139.103 34.5413C139.063 34.5546 139.025 34.5731 138.99 34.5964L138.146 35.1591C137.984 35.2672 137.808 35.3533 137.623 35.415L137.492 35.4587C137.024 35.6148 136.637 35.9504 136.416 36.3918C136.154 36.9156 136.154 37.5322 136.416 38.056L136.497 38.2176C136.67 38.5635 136.93 38.8582 137.252 39.0727L137.902 39.5061L139.043 40.2669L139.509 40.4997C140.203 40.8469 140.969 41.0276 141.745 41.0276H143.252C143.489 41.0276 143.725 41.0444 143.959 41.0778L145.918 41.3577C146.152 41.3912 146.389 41.408 146.625 41.408H148.197C148.433 41.408 148.669 41.3912 148.903 41.3578L151.215 41.0276C152.193 40.8878 152.888 40.7426 153.366 40.6142C153.98 40.4491 154.558 40.1381 155.143 39.8875L156.293 39.3948C156.707 39.217 157.084 38.9619 157.403 38.6429L157.904 38.1422C158.248 37.7978 158.442 37.3306 158.442 36.8435C158.442 36.3564 158.248 35.8893 157.904 35.5449L157.681 35.3221L156.934 34.5749C156.682 34.3226 156.339 34.181 155.983 34.181H155.176C154.879 34.181 154.638 33.9401 154.638 33.643C154.638 33.5004 154.695 33.3636 154.796 33.2627L155.458 32.6003C155.671 32.3876 155.848 32.1419 155.982 31.8728L156.381 31.0755C156.487 30.8639 156.577 30.645 156.652 30.4206L156.92 29.6166C157.225 28.7037 156.286 28.2219 155.779 28.0951L154.798 27.768C154.268 27.5915 154.174 26.8832 154.638 26.5736C155.192 26.2043 155.494 25.8163 155.646 25.5117C155.788 25.2248 155.74 24.8949 155.662 24.584L155.601 24.3395C155.469 23.8103 155.195 23.3269 154.809 22.9411L154.456 22.5875C154.326 22.4577 154.165 22.3631 153.989 22.3127L153.538 22.184C152.801 21.9732 152.67 20.9838 153.328 20.5892C153.439 20.5224 153.534 20.4317 153.606 20.3237L154.023 19.6986C154.179 19.4646 154.31 19.215 154.415 18.9538C154.802 17.9851 154.802 16.9045 154.415 15.9358L154.385 15.8603C154.3 15.6491 154.199 15.4449 154.082 15.2498L153.679 14.5778C153.312 13.966 152.778 13.4716 152.14 13.1526C151.779 12.9723 151.392 12.8513 150.992 12.7943L149.698 12.6094C149.191 12.5369 148.675 12.5429 148.169 12.6272L147.037 12.8159C146.78 12.8588 146.526 12.9218 146.278 13.0044L144.889 13.4675C144.543 13.5829 144.21 13.7358 143.897 13.9235L143.538 14.1391C142.834 14.5613 142.245 15.1503 141.823 15.8541L141.325 16.684L140.705 17.924C140.366 18.6014 140.251 19.3687 140.376 20.1157Z" fill="#67AD15"/>
</g>
<path d="M143.607 22.3896H142.847M142.847 22.3896H142.615C142.033 22.3896 141.474 22.1581 141.062 21.7462C140.738 21.4225 140.524 21.0057 140.449 20.5541L140.376 20.1157C140.251 19.3687 140.366 18.6014 140.705 17.924L141.325 16.684L141.823 15.8541C142.245 15.1503 142.834 14.5613 143.538 14.1391L143.897 13.9235C144.21 13.7358 144.543 13.5829 144.889 13.4675L146.278 13.0044C146.526 12.9218 146.78 12.8588 147.037 12.8159L148.169 12.6272C148.675 12.5429 149.191 12.5369 149.698 12.6094L150.992 12.7943C151.392 12.8513 151.779 12.9723 152.14 13.1526C152.778 13.4716 153.312 13.966 153.679 14.5778L154.082 15.2498C154.199 15.4449 154.3 15.6491 154.385 15.8603L154.415 15.9358C154.802 16.9045 154.802 17.9851 154.415 18.9538C154.31 19.215 154.179 19.4646 154.023 19.6986L153.606 20.3237C153.534 20.4317 153.439 20.5224 153.328 20.5892C152.67 20.9838 152.801 21.9732 153.538 22.184L153.989 22.3127C154.165 22.3631 154.326 22.4577 154.456 22.5875L154.809 22.9411C155.195 23.3269 155.469 23.8103 155.601 24.3395L155.662 24.584C155.74 24.8949 155.788 25.2248 155.646 25.5117C155.494 25.8163 155.192 26.2043 154.638 26.5736C154.174 26.8832 154.268 27.5915 154.798 27.768L155.779 28.0951C156.286 28.2219 157.225 28.7037 156.92 29.6166C156.797 29.9873 156.711 30.2451 156.652 30.4206C156.577 30.645 156.487 30.8639 156.381 31.0755L155.982 31.8728C155.848 32.1419 155.671 32.3876 155.458 32.6003L154.796 33.2627C154.695 33.3636 154.638 33.5004 154.638 33.643C154.638 33.9401 154.879 34.181 155.176 34.181H155.983C156.339 34.181 156.682 34.3226 156.934 34.5748L157.681 35.3221L157.904 35.5449C158.248 35.8893 158.442 36.3564 158.442 36.8435C158.442 37.3306 158.248 37.7978 157.904 38.1422L157.403 38.6429C157.084 38.9619 156.707 39.217 156.293 39.3948L155.143 39.8875C154.558 40.1381 153.98 40.4491 153.366 40.6142C152.888 40.7426 152.193 40.8878 151.215 41.0276C149.969 41.2056 149.269 41.3055 148.903 41.3578C148.669 41.3912 148.433 41.408 148.197 41.408H146.625C146.389 41.408 146.152 41.3912 145.918 41.3577L143.959 41.0778C143.725 41.0444 143.489 41.0276 143.252 41.0276H141.745C140.969 41.0276 140.203 40.8469 139.509 40.4997L139.043 40.2669L137.902 39.5061L137.252 39.0727C136.93 38.8582 136.67 38.5635 136.497 38.2176L136.416 38.056C136.154 37.5322 136.154 36.9156 136.416 36.3918C136.637 35.9504 137.024 35.6148 137.492 35.4587L137.623 35.415C137.808 35.3533 137.984 35.2672 138.146 35.1591L138.99 34.5964C139.025 34.5731 139.063 34.5546 139.103 34.5413C139.502 34.4084 139.541 33.8594 139.165 33.6713L138.128 33.1529C137.98 33.0788 137.853 32.9673 137.762 32.8295L137.548 32.5095C137.291 32.1241 137.227 31.6418 137.373 31.2024C137.47 30.9128 137.652 30.6595 137.897 30.4764L138.99 29.6563C139.025 29.6298 139.063 29.6066 139.102 29.5869C139.669 29.3037 139.635 28.4839 139.046 28.2486L138.895 28.1882C138.744 28.1275 138.614 28.0223 138.523 27.8865L138.277 27.5173C138.033 27.15 137.887 26.7158 137.958 26.28C138.011 25.9464 138.11 25.6044 138.282 25.4325C138.587 25.1282 139.677 24.2914 140.184 23.911L141.325 23.1503L142.847 22.3896Z" stroke="#53A934"/>
<g filter="url(#filter1_i_209_1324)">
<path d="M140.876 20.1157L140.949 20.5541C141.024 21.0057 141.238 21.4225 141.562 21.7462C141.974 22.1581 142.533 22.3896 143.115 22.3896H143.347L141.825 23.1503L140.684 23.911C140.177 24.2914 139.087 25.1282 138.782 25.4325C138.61 25.6044 138.511 25.9464 138.458 26.28C138.387 26.7158 138.533 27.15 138.777 27.5173L139.023 27.8865C139.114 28.0223 139.244 28.1275 139.395 28.1882L139.546 28.2486C140.135 28.4839 140.169 29.3036 139.602 29.5869C139.563 29.6066 139.525 29.6298 139.49 29.6563L138.397 30.4764C138.152 30.6595 137.97 30.9128 137.873 31.2024C137.727 31.6418 137.791 32.1241 138.048 32.5095L138.262 32.8295C138.353 32.9673 138.48 33.0788 138.628 33.1529L139.665 33.6713C140.041 33.8594 140.002 34.4084 139.603 34.5413C139.563 34.5546 139.525 34.5731 139.49 34.5964L138.646 35.1591C138.484 35.2672 138.308 35.3533 138.123 35.415L137.992 35.4587C137.524 35.6148 137.137 35.9504 136.916 36.3918C136.654 36.9156 136.654 37.5322 136.916 38.056L136.997 38.2176C137.17 38.5635 137.43 38.8582 137.752 39.0727L138.402 39.5061L139.543 40.2669L140.009 40.4997C140.703 40.8469 141.469 41.0276 142.245 41.0276H143.752C143.989 41.0276 144.225 41.0444 144.459 41.0778L146.418 41.3577C146.652 41.3912 146.889 41.408 147.125 41.408H148.697C148.933 41.408 149.169 41.3912 149.403 41.3578L151.715 41.0276C152.693 40.8878 153.388 40.7426 153.866 40.6142C154.48 40.4491 155.058 40.1381 155.643 39.8875L156.793 39.3948C157.207 39.217 157.584 38.9619 157.903 38.6429L158.404 38.1422C158.748 37.7978 158.942 37.3306 158.942 36.8435C158.942 36.3564 158.748 35.8893 158.404 35.5449L158.181 35.3221L157.434 34.5749C157.182 34.3226 156.839 34.181 156.483 34.181H155.676C155.379 34.181 155.138 33.9401 155.138 33.643C155.138 33.5004 155.195 33.3636 155.296 33.2627L155.958 32.6003C156.171 32.3876 156.348 32.1419 156.482 31.8728L156.881 31.0755C156.987 30.8639 157.077 30.645 157.152 30.4206L157.42 29.6166C157.725 28.7037 156.786 28.2219 156.279 28.0951L155.298 27.768C154.768 27.5915 154.674 26.8832 155.138 26.5736C155.692 26.2043 155.994 25.8163 156.146 25.5117C156.288 25.2248 156.24 24.8949 156.162 24.584L156.101 24.3395C155.969 23.8103 155.695 23.3269 155.309 22.9411L154.956 22.5875C154.826 22.4577 154.665 22.3631 154.489 22.3127L154.038 22.184C153.301 21.9732 153.17 20.9838 153.828 20.5892C153.939 20.5224 154.034 20.4317 154.106 20.3237L154.523 19.6986C154.679 19.4646 154.81 19.215 154.915 18.9538C155.302 17.9851 155.302 16.9045 154.915 15.9358L154.885 15.8603C154.8 15.6491 154.699 15.4449 154.582 15.2498L154.179 14.5778C153.812 13.966 153.278 13.4716 152.64 13.1526C152.279 12.9723 151.892 12.8513 151.492 12.7943L150.198 12.6094C149.691 12.5369 149.175 12.5429 148.669 12.6272L147.537 12.8159C147.28 12.8588 147.026 12.9218 146.778 13.0044L145.389 13.4675C145.043 13.5829 144.71 13.7358 144.397 13.9235L144.038 14.1391C143.334 14.5613 142.745 15.1503 142.323 15.8541L141.825 16.684L141.205 17.924C140.866 18.6014 140.751 19.3687 140.876 20.1157Z" fill="#67AD15"/>
</g>
<path d="M144.107 22.3896H143.347M143.347 22.3896H143.115C142.533 22.3896 141.974 22.1581 141.562 21.7462C141.238 21.4225 141.024 21.0057 140.949 20.5541L140.876 20.1157C140.751 19.3687 140.866 18.6014 141.205 17.924L141.825 16.684L142.323 15.8541C142.745 15.1503 143.334 14.5613 144.038 14.1391L144.397 13.9235C144.71 13.7358 145.043 13.5829 145.389 13.4675L146.778 13.0044C147.026 12.9218 147.28 12.8588 147.537 12.8159L148.669 12.6272C149.175 12.5429 149.691 12.5369 150.198 12.6094L151.492 12.7943C151.892 12.8513 152.279 12.9723 152.64 13.1526C153.278 13.4716 153.812 13.966 154.179 14.5778L154.582 15.2498C154.699 15.4449 154.8 15.6491 154.885 15.8603L154.915 15.9358C155.302 16.9045 155.302 17.9851 154.915 18.9538C154.81 19.215 154.679 19.4646 154.523 19.6986L154.106 20.3237C154.034 20.4317 153.939 20.5224 153.828 20.5892C153.17 20.9838 153.301 21.9732 154.038 22.184L154.489 22.3127C154.665 22.3631 154.826 22.4577 154.956 22.5875L155.309 22.9411C155.695 23.3269 155.969 23.8103 156.101 24.3395L156.162 24.584C156.24 24.8949 156.288 25.2248 156.146 25.5117C155.994 25.8163 155.692 26.2043 155.138 26.5736C154.674 26.8832 154.768 27.5915 155.298 27.768L156.279 28.0951C156.786 28.2219 157.725 28.7037 157.42 29.6166C157.297 29.9873 157.211 30.2451 157.152 30.4206C157.077 30.645 156.987 30.8639 156.881 31.0755L156.482 31.8728C156.348 32.1419 156.171 32.3876 155.958 32.6003L155.296 33.2627C155.195 33.3636 155.138 33.5004 155.138 33.643C155.138 33.9401 155.379 34.181 155.676 34.181H156.483C156.839 34.181 157.182 34.3226 157.434 34.5748L158.181 35.3221L158.404 35.5449C158.748 35.8893 158.942 36.3564 158.942 36.8435C158.942 37.3306 158.748 37.7978 158.404 38.1422L157.903 38.6429C157.584 38.9619 157.207 39.217 156.793 39.3948L155.643 39.8875C155.058 40.1381 154.48 40.4491 153.866 40.6142C153.388 40.7426 152.693 40.8878 151.715 41.0276C150.469 41.2056 149.769 41.3055 149.403 41.3578C149.169 41.3912 148.933 41.408 148.697 41.408H147.125C146.889 41.408 146.652 41.3912 146.418 41.3577L144.459 41.0778C144.225 41.0444 143.989 41.0276 143.752 41.0276H142.245C141.469 41.0276 140.703 40.8469 140.009 40.4997L139.543 40.2669L138.402 39.5061L137.752 39.0727C137.43 38.8582 137.17 38.5635 136.997 38.2176L136.916 38.056C136.654 37.5322 136.654 36.9156 136.916 36.3918C137.137 35.9504 137.524 35.6148 137.992 35.4587L138.123 35.415C138.308 35.3533 138.484 35.2672 138.646 35.1591L139.49 34.5964C139.525 34.5731 139.563 34.5546 139.603 34.5413C140.002 34.4084 140.041 33.8594 139.665 33.6713L138.628 33.1529C138.48 33.0788 138.353 32.9673 138.262 32.8295L138.048 32.5095C137.791 32.1241 137.727 31.6418 137.873 31.2024C137.97 30.9128 138.152 30.6595 138.397 30.4764L139.49 29.6563C139.525 29.6298 139.563 29.6066 139.602 29.5869C140.169 29.3037 140.135 28.4839 139.546 28.2486L139.395 28.1882C139.244 28.1275 139.114 28.0223 139.023 27.8865L138.777 27.5173C138.533 27.15 138.387 26.7158 138.458 26.28C138.511 25.9464 138.61 25.6044 138.782 25.4325C139.087 25.1282 140.177 24.2914 140.684 23.911L141.825 23.1503L143.347 22.3896Z" stroke="#53A934"/>
<path d="M23.2847 44.3232L20.7298 43.2843C20.1557 43.0509 19.5371 42.9414 18.9178 42.9643L13.0392 43.1816C12.7846 43.191 12.5337 43.2449 12.2977 43.3409L11.6529 43.6031C10.5533 44.0502 10.2388 45.4579 11.0435 46.3305C11.241 46.5447 11.4903 46.7045 11.7674 46.7946L12.8813 47.157C14.0034 47.522 14.5196 48.2462 13.7793 49.1649C13.5623 49.4342 13.2992 49.7498 12.9818 50.1185C10.719 52.1631 22.3532 53.0629 26.5718 53.5243C26.8926 53.5594 27.2122 53.4958 27.4945 53.3397L28.1746 52.9636C29.552 52.2019 28.9736 49.5217 27.4145 49.3046C26.2734 49.1456 25.2576 46.8143 24.7451 45.7824C24.4306 45.1491 23.9397 44.5896 23.2847 44.3232Z" fill="#017A8B" fill-opacity="0.18"/>
<path d="M20.7914 49.7762C20.2559 49.7762 19.6503 49.3958 19.6503 49.3958V30.7578H21.9325V49.3958C21.9325 49.3958 21.327 49.7762 20.7914 49.7762Z" fill="#346C5F" stroke="#346C5F"/>
<g filter="url(#filter2_i_209_1324)">
<path d="M13.3756 20.1157L13.4487 20.5541C13.524 21.0057 13.7384 21.4225 14.0622 21.7462C14.4741 22.1581 15.0328 22.3896 15.6154 22.3896H15.8466L14.3251 23.1503L13.184 23.911C12.6769 24.2914 11.5865 25.1282 11.2822 25.4325C11.1103 25.6044 11.0112 25.9464 10.9575 26.28C10.8874 26.7158 11.0325 27.15 11.2774 27.5173L11.5235 27.8865C11.6141 28.0223 11.7437 28.1275 11.8954 28.1882L12.0465 28.2486C12.6346 28.4839 12.6687 29.3036 12.1022 29.5869C12.0628 29.6066 12.0252 29.6298 11.99 29.6563L10.8965 30.4764C10.6523 30.6595 10.4698 30.9128 10.3732 31.2024C10.2268 31.6418 10.2914 32.1241 10.5483 32.5095L10.7616 32.8295C10.8535 32.9673 10.9798 33.0788 11.128 33.1529L12.1647 33.6713C12.5409 33.8594 12.5019 34.4084 12.1029 34.5413C12.0631 34.5546 12.0253 34.5731 11.9903 34.5964L11.1464 35.1591C10.9841 35.2672 10.8081 35.3533 10.623 35.415L10.4919 35.4587C10.0237 35.6148 9.63675 35.9504 9.41606 36.3918C9.15414 36.9156 9.15414 37.5322 9.41606 38.056L9.49685 38.2176C9.66978 38.5635 9.92997 38.8582 10.2517 39.0727L10.9018 39.5061L12.0429 40.2669L12.5087 40.4997C13.203 40.8469 13.9685 41.0276 14.7448 41.0276H16.252C16.4886 41.0276 16.7249 41.0444 16.9591 41.0778L18.9182 41.3577C19.1524 41.3912 19.3887 41.408 19.6253 41.408H21.1968C21.4334 41.408 21.6691 41.3912 21.9033 41.3578L24.2147 41.0276C25.1934 40.8878 25.8883 40.7426 26.366 40.6142C26.9803 40.4491 27.558 40.1381 28.1427 39.8875L29.2926 39.3948C29.7072 39.217 30.0841 38.9619 30.4031 38.6429L30.9038 38.1422C31.2482 37.7978 31.4417 37.3306 31.4417 36.8435C31.4417 36.3564 31.2482 35.8893 30.9038 35.5449L30.681 35.3221L29.9337 34.5749C29.6815 34.3226 29.3395 34.181 28.9828 34.181H28.1759C27.8789 34.181 27.638 33.9401 27.638 33.643C27.638 33.5004 27.6947 33.3636 27.7956 33.2627L28.4579 32.6003C28.6707 32.3876 28.8477 32.1419 28.9823 31.8728L29.3809 31.0755C29.4868 30.8639 29.5774 30.645 29.6522 30.4206L29.9202 29.6166C30.2245 28.7037 29.2863 28.2219 28.7791 28.0951L27.798 27.768C27.2685 27.5915 27.1736 26.8832 27.638 26.5736C28.192 26.2043 28.4938 25.8163 28.6455 25.5117C28.7884 25.2248 28.7398 24.8949 28.6621 24.584L28.601 24.3395C28.4687 23.8103 28.195 23.3269 27.8092 22.9411L27.4555 22.5875C27.3258 22.4577 27.165 22.3631 26.9886 22.3127L26.5381 22.184C25.8005 21.9732 25.6701 20.9838 26.3279 20.5892C26.4392 20.5224 26.5343 20.4317 26.6063 20.3237L27.023 19.6986C27.179 19.4646 27.3103 19.215 27.4148 18.9538C27.8023 17.9851 27.8023 16.9045 27.4148 15.9358L27.3846 15.8603C27.3001 15.6491 27.1988 15.4449 27.0818 15.2498L26.6786 14.5778C26.3115 13.966 25.7776 13.4716 25.1395 13.1526C24.7789 12.9723 24.3916 12.8513 23.9925 12.7943L22.6984 12.6094C22.1908 12.5369 21.6751 12.5429 21.1693 12.6272L20.0373 12.8159C19.7797 12.8588 19.5259 12.9218 19.2781 13.0044L17.8888 13.4675C17.5427 13.5829 17.2103 13.7358 16.8974 13.9235L16.5381 14.1391C15.8344 14.5613 15.2454 15.1503 14.8231 15.8541L14.3251 16.684L13.7052 17.924C13.3665 18.6014 13.2511 19.3687 13.3756 20.1157Z" fill="#67AD15"/>
</g>
<path d="M16.6074 22.3896H15.8466M15.8466 22.3896H15.6154C15.0328 22.3896 14.4741 22.1581 14.0622 21.7462C13.7384 21.4225 13.524 21.0057 13.4487 20.5541L13.3756 20.1157C13.2511 19.3687 13.3665 18.6014 13.7052 17.924L14.3251 16.684L14.8231 15.8541C15.2454 15.1503 15.8344 14.5613 16.5381 14.1391L16.8974 13.9235C17.2103 13.7358 17.5427 13.5829 17.8888 13.4675L19.2781 13.0044C19.5259 12.9218 19.7797 12.8588 20.0373 12.8159L21.1693 12.6272C21.6751 12.5429 22.1908 12.5369 22.6984 12.6094L23.9925 12.7943C24.3916 12.8513 24.7789 12.9723 25.1395 13.1526C25.7776 13.4716 26.3115 13.966 26.6786 14.5778L27.0818 15.2498C27.1988 15.4449 27.3001 15.6491 27.3846 15.8603L27.4148 15.9358C27.8023 16.9045 27.8023 17.9851 27.4148 18.9538C27.3103 19.215 27.179 19.4646 27.023 19.6986L26.6063 20.3237C26.5343 20.4317 26.4392 20.5224 26.3279 20.5892C25.6701 20.9838 25.8005 21.9732 26.5381 22.184L26.9886 22.3127C27.165 22.3631 27.3258 22.4577 27.4555 22.5875L27.8092 22.9411C28.195 23.3269 28.4687 23.8103 28.601 24.3395L28.6621 24.584C28.7398 24.8949 28.7884 25.2248 28.6455 25.5117C28.4938 25.8163 28.192 26.2043 27.638 26.5736C27.1736 26.8832 27.2685 27.5915 27.798 27.768L28.7791 28.0951C29.2863 28.2219 30.2245 28.7037 29.9202 29.6166C29.7967 29.9873 29.7107 30.2451 29.6522 30.4206C29.5774 30.645 29.4868 30.8639 29.3809 31.0755L28.9823 31.8728C28.8477 32.1419 28.6707 32.3876 28.4579 32.6003L27.7956 33.2627C27.6947 33.3636 27.638 33.5004 27.638 33.643C27.638 33.9401 27.8789 34.181 28.1759 34.181H28.9828C29.3395 34.181 29.6815 34.3226 29.9337 34.5748L30.681 35.3221L30.9038 35.5449C31.2482 35.8893 31.4417 36.3564 31.4417 36.8435C31.4417 37.3306 31.2482 37.7978 30.9038 38.1422L30.4031 38.6429C30.0841 38.9619 29.7072 39.217 29.2926 39.3948L28.1427 39.8875C27.558 40.1381 26.9803 40.4491 26.366 40.6142C25.8883 40.7426 25.1934 40.8878 24.2147 41.0276C22.9686 41.2056 22.2692 41.3055 21.9033 41.3578C21.6691 41.3912 21.4334 41.408 21.1968 41.408H19.6253C19.3887 41.408 19.1524 41.3912 18.9182 41.3577L16.9591 41.0778C16.7249 41.0444 16.4886 41.0276 16.252 41.0276H14.7448C13.9685 41.0276 13.203 40.8469 12.5087 40.4997L12.0429 40.2669L10.9018 39.5061L10.2517 39.0727C9.92997 38.8582 9.66978 38.5635 9.49685 38.2176L9.41606 38.056C9.15414 37.5322 9.15414 36.9156 9.41606 36.3918C9.63675 35.9504 10.0237 35.6148 10.4919 35.4587L10.623 35.415C10.8081 35.3533 10.9841 35.2672 11.1464 35.1591L11.9903 34.5964C12.0253 34.5731 12.0631 34.5546 12.1029 34.5413C12.5019 34.4084 12.5409 33.8594 12.1647 33.6713L11.128 33.1529C10.9798 33.0788 10.8535 32.9673 10.7616 32.8295L10.5483 32.5095C10.2914 32.1241 10.2268 31.6418 10.3732 31.2024C10.4698 30.9128 10.6523 30.6595 10.8965 30.4764L11.99 29.6563C12.0252 29.6298 12.0628 29.6066 12.1022 29.5869C12.6687 29.3037 12.6346 28.4839 12.0465 28.2486L11.8954 28.1882C11.7437 28.1275 11.6141 28.0223 11.5235 27.8865L11.2774 27.5173C11.0325 27.15 10.8874 26.7158 10.9575 26.28C11.0112 25.9464 11.1103 25.6044 11.2822 25.4325C11.5865 25.1282 12.6769 24.2914 13.184 23.911L14.3251 23.1503L15.8466 22.3896Z" stroke="#53A934"/>
<g filter="url(#filter3_i_209_1324)">
<path d="M13.8756 20.1157L13.9487 20.5541C14.024 21.0057 14.2384 21.4225 14.5622 21.7462C14.9741 22.1581 15.5328 22.3896 16.1154 22.3896H16.3466L14.8251 23.1503L13.684 23.911C13.1769 24.2914 12.0865 25.1282 11.7822 25.4325C11.6103 25.6044 11.5112 25.9464 11.4575 26.28C11.3874 26.7158 11.5325 27.15 11.7774 27.5173L12.0235 27.8865C12.1141 28.0223 12.2437 28.1275 12.3954 28.1882L12.5465 28.2486C13.1346 28.4839 13.1687 29.3036 12.6022 29.5869C12.5628 29.6066 12.5252 29.6298 12.49 29.6563L11.3965 30.4764C11.1523 30.6595 10.9698 30.9128 10.8732 31.2024C10.7268 31.6418 10.7914 32.1241 11.0483 32.5095L11.2616 32.8295C11.3535 32.9673 11.4798 33.0788 11.628 33.1529L12.6647 33.6713C13.0409 33.8594 13.0019 34.4084 12.6029 34.5413C12.5631 34.5546 12.5253 34.5731 12.4903 34.5964L11.6464 35.1591C11.4841 35.2672 11.3081 35.3533 11.123 35.415L10.9919 35.4587C10.5237 35.6148 10.1368 35.9504 9.91606 36.3918C9.65414 36.9156 9.65414 37.5322 9.91606 38.056L9.99685 38.2176C10.1698 38.5635 10.43 38.8582 10.7517 39.0727L11.4018 39.5061L12.5429 40.2669L13.0087 40.4997C13.703 40.8469 14.4685 41.0276 15.2448 41.0276H16.752C16.9886 41.0276 17.2249 41.0444 17.4591 41.0778L19.4182 41.3577C19.6524 41.3912 19.8887 41.408 20.1253 41.408H21.6968C21.9334 41.408 22.1691 41.3912 22.4033 41.3578L24.7147 41.0276C25.6934 40.8878 26.3883 40.7426 26.866 40.6142C27.4803 40.4491 28.058 40.1381 28.6427 39.8875L29.7926 39.3948C30.2072 39.217 30.5841 38.9619 30.9031 38.6429L31.4038 38.1422C31.7482 37.7978 31.9417 37.3306 31.9417 36.8435C31.9417 36.3564 31.7482 35.8893 31.4038 35.5449L31.181 35.3221L30.4337 34.5749C30.1815 34.3226 29.8395 34.181 29.4828 34.181H28.6759C28.3789 34.181 28.138 33.9401 28.138 33.643C28.138 33.5004 28.1947 33.3636 28.2956 33.2627L28.9579 32.6003C29.1707 32.3876 29.3477 32.1419 29.4823 31.8728L29.8809 31.0755C29.9868 30.8639 30.0774 30.645 30.1522 30.4206L30.4202 29.6166C30.7245 28.7037 29.7863 28.2219 29.2791 28.0951L28.298 27.768C27.7685 27.5915 27.6736 26.8832 28.138 26.5736C28.692 26.2043 28.9938 25.8163 29.1455 25.5117C29.2884 25.2248 29.2398 24.8949 29.1621 24.584L29.101 24.3395C28.9687 23.8103 28.695 23.3269 28.3092 22.9411L27.9555 22.5875C27.8258 22.4577 27.665 22.3631 27.4886 22.3127L27.0381 22.184C26.3005 21.9732 26.1701 20.9838 26.8279 20.5892C26.9392 20.5224 27.0343 20.4317 27.1063 20.3237L27.523 19.6986C27.679 19.4646 27.8103 19.215 27.9148 18.9538C28.3023 17.9851 28.3023 16.9045 27.9148 15.9358L27.8846 15.8603C27.8001 15.6491 27.6988 15.4449 27.5818 15.2498L27.1786 14.5778C26.8115 13.966 26.2776 13.4716 25.6395 13.1526C25.2789 12.9723 24.8916 12.8513 24.4925 12.7943L23.1984 12.6094C22.6908 12.5369 22.1751 12.5429 21.6693 12.6272L20.5373 12.8159C20.2797 12.8588 20.0259 12.9218 19.7781 13.0044L18.3888 13.4675C18.0427 13.5829 17.7103 13.7358 17.3974 13.9235L17.0381 14.1391C16.3344 14.5613 15.7454 15.1503 15.3231 15.8541L14.8251 16.684L14.2052 17.924C13.8665 18.6014 13.7511 19.3687 13.8756 20.1157Z" fill="#67AD15"/>
</g>
<path d="M17.1074 22.3896H16.3466M16.3466 22.3896H16.1154C15.5328 22.3896 14.9741 22.1581 14.5622 21.7462C14.2384 21.4225 14.024 21.0057 13.9487 20.5541L13.8756 20.1157C13.7511 19.3687 13.8665 18.6014 14.2052 17.924L14.8251 16.684L15.3231 15.8541C15.7454 15.1503 16.3344 14.5613 17.0381 14.1391L17.3974 13.9235C17.7103 13.7358 18.0427 13.5829 18.3888 13.4675L19.7781 13.0044C20.0259 12.9218 20.2797 12.8588 20.5373 12.8159L21.6693 12.6272C22.1751 12.5429 22.6908 12.5369 23.1984 12.6094L24.4925 12.7943C24.8916 12.8513 25.2789 12.9723 25.6395 13.1526C26.2776 13.4716 26.8115 13.966 27.1786 14.5778L27.5818 15.2498C27.6988 15.4449 27.8001 15.6491 27.8846 15.8603L27.9148 15.9358C28.3023 16.9045 28.3023 17.9851 27.9148 18.9538C27.8103 19.215 27.679 19.4646 27.523 19.6986L27.1063 20.3237C27.0343 20.4317 26.9392 20.5224 26.8279 20.5892C26.1701 20.9838 26.3005 21.9732 27.0381 22.184L27.4886 22.3127C27.665 22.3631 27.8258 22.4577 27.9555 22.5875L28.3092 22.9411C28.695 23.3269 28.9687 23.8103 29.101 24.3395L29.1621 24.584C29.2398 24.8949 29.2884 25.2248 29.1455 25.5117C28.9938 25.8163 28.692 26.2043 28.138 26.5736C27.6736 26.8832 27.7685 27.5915 28.298 27.768L29.2791 28.0951C29.7863 28.2219 30.7245 28.7037 30.4202 29.6166C30.2967 29.9873 30.2107 30.2451 30.1522 30.4206C30.0774 30.645 29.9868 30.8639 29.8809 31.0755L29.4823 31.8728C29.3477 32.1419 29.1707 32.3876 28.9579 32.6003L28.2956 33.2627C28.1947 33.3636 28.138 33.5004 28.138 33.643C28.138 33.9401 28.3789 34.181 28.6759 34.181H29.4828C29.8395 34.181 30.1815 34.3226 30.4337 34.5748L31.181 35.3221L31.4038 35.5449C31.7482 35.8893 31.9417 36.3564 31.9417 36.8435C31.9417 37.3306 31.7482 37.7978 31.4038 38.1422L30.9031 38.6429C30.5841 38.9619 30.2072 39.217 29.7926 39.3948L28.6427 39.8875C28.058 40.1381 27.4803 40.4491 26.866 40.6142C26.3883 40.7426 25.6934 40.8878 24.7147 41.0276C23.4686 41.2056 22.7692 41.3055 22.4033 41.3578C22.1691 41.3912 21.9334 41.408 21.6968 41.408H20.1253C19.8887 41.408 19.6524 41.3912 19.4182 41.3577L17.4591 41.0778C17.2249 41.0444 16.9886 41.0276 16.752 41.0276H15.2448C14.4685 41.0276 13.703 40.8469 13.0087 40.4997L12.5429 40.2669L11.4018 39.5061L10.7517 39.0727C10.43 38.8582 10.1698 38.5635 9.99685 38.2176L9.91606 38.056C9.65414 37.5322 9.65414 36.9156 9.91606 36.3918C10.1368 35.9504 10.5237 35.6148 10.9919 35.4587L11.123 35.415C11.3081 35.3533 11.4841 35.2672 11.6464 35.1591L12.4903 34.5964C12.5253 34.5731 12.5631 34.5546 12.6029 34.5413C13.0019 34.4084 13.0409 33.8594 12.6647 33.6713L11.628 33.1529C11.4798 33.0788 11.3535 32.9673 11.2616 32.8295L11.0483 32.5095C10.7914 32.1241 10.7268 31.6418 10.8732 31.2024C10.9698 30.9128 11.1523 30.6595 11.3965 30.4764L12.49 29.6563C12.5252 29.6298 12.5628 29.6066 12.6022 29.5869C13.1687 29.3037 13.1346 28.4839 12.5465 28.2486L12.3954 28.1882C12.2437 28.1275 12.1141 28.0223 12.0235 27.8865L11.7774 27.5173C11.5325 27.15 11.3874 26.7158 11.4575 26.28C11.5112 25.9464 11.6103 25.6044 11.7822 25.4325C12.0865 25.1282 13.1769 24.2914 13.684 23.911L14.8251 23.1503L16.3466 22.3896Z" stroke="#53A934"/>
<defs>
<filter id="filter0_i_209_1324" x="135.72" y="12.0592" width="23.2221" height="33.8488" filterUnits="userSpaceOnUse" color-interpolation-filters="sRGB">
<feFlood flood-opacity="0" result="BackgroundImageFix"/>
<feBlend mode="normal" in="SourceGraphic" in2="BackgroundImageFix" result="shape"/>
<feColorMatrix in="SourceAlpha" type="matrix" values="0 0 0 0 0 0 0 0 0 0 0 0 0 0 0 0 0 0 127 0" result="hardAlpha"/>
<feOffset dy="4"/>
<feGaussianBlur stdDeviation="2"/>
<feComposite in2="hardAlpha" operator="arithmetic" k2="-1" k3="1"/>
<feColorMatrix type="matrix" values="0 0 0 0 0.32549 0 0 0 0 0.662745 0 0 0 0 0.203922 0 0 0 1 0"/>
<feBlend mode="normal" in2="shape" result="effect1_innerShadow_209_1324"/>
</filter>
<filter id="filter1_i_209_1324" x="136.22" y="12.0592" width="23.2221" height="33.8488" filterUnits="userSpaceOnUse" color-interpolation-filters="sRGB">
<feFlood flood-opacity="0" result="BackgroundImageFix"/>
<feBlend mode="normal" in="SourceGraphic" in2="BackgroundImageFix" result="shape"/>
<feColorMatrix in="SourceAlpha" type="matrix" values="0 0 0 0 0 0 0 0 0 0 0 0 0 0 0 0 0 0 127 0" result="hardAlpha"/>
<feOffset dy="4"/>
<feGaussianBlur stdDeviation="2"/>
<feComposite in2="hardAlpha" operator="arithmetic" k2="-1" k3="1"/>
<feColorMatrix type="matrix" values="0 0 0 0 0.32549 0 0 0 0 0.662745 0 0 0 0 0.203922 0 0 0 1 0"/>
<feBlend mode="normal" in2="shape" result="effect1_innerShadow_209_1324"/>
</filter>
<filter id="filter2_i_209_1324" x="8.7196" y="12.0592" width="23.2221" height="33.8488" filterUnits="userSpaceOnUse" color-interpolation-filters="sRGB">
<feFlood flood-opacity="0" result="BackgroundImageFix"/>
<feBlend mode="normal" in="SourceGraphic" in2="BackgroundImageFix" result="shape"/>
<feColorMatrix in="SourceAlpha" type="matrix" values="0 0 0 0 0 0 0 0 0 0 0 0 0 0 0 0 0 0 127 0" result="hardAlpha"/>
<feOffset dy="4"/>
<feGaussianBlur stdDeviation="2"/>
<feComposite in2="hardAlpha" operator="arithmetic" k2="-1" k3="1"/>
<feColorMatrix type="matrix" values="0 0 0 0 0.32549 0 0 0 0 0.662745 0 0 0 0 0.203922 0 0 0 1 0"/>
<feBlend mode="normal" in2="shape" result="effect1_innerShadow_209_1324"/>
</filter>
<filter id="filter3_i_209_1324" x="9.2196" y="12.0592" width="23.2221" height="33.8488" filterUnits="userSpaceOnUse" color-interpolation-filters="sRGB">
<feFlood flood-opacity="0" result="BackgroundImageFix"/>
<feBlend mode="normal" in="SourceGraphic" in2="BackgroundImageFix" result="shape"/>
<feColorMatrix in="SourceAlpha" type="matrix" values="0 0 0 0 0 0 0 0 0 0 0 0 0 0 0 0 0 0 127 0" result="hardAlpha"/>
<feOffset dy="4"/>
<feGaussianBlur stdDeviation="2"/>
<feComposite in2="hardAlpha" operator="arithmetic" k2="-1" k3="1"/>
<feColorMatrix type="matrix" values="0 0 0 0 0.32549 0 0 0 0 0.662745 0 0 0 0 0.203922 0 0 0 1 0"/>
<feBlend mode="normal" in2="shape" result="effect1_innerShadow_209_1324"/>
</filter>
</defs>
</svg>
