<svg width="158" height="56" viewBox="0 0 158 56" fill="none" xmlns="http://www.w3.org/2000/svg">
<path d="M40.4446 30.7373V2.24854H123.546V30.7373H40.4446Z" fill="#308FAD" stroke="#2785A1" stroke-width="0.5"/>
<path d="M45.0725 26.212V7.69946H118.197V26.212H45.0725Z" fill="#8FD3E4" stroke="white" stroke-width="4"/>
<path d="M81.3779 7.80225V26.5205" stroke="white" stroke-width="4"/>
<path d="M68.5217 7.69946C68.7686 22.4272 68.8303 26.1092 68.8303 26.1092" stroke="white" stroke-width="4"/>
<path d="M56.8999 7.90527C56.8999 22.4685 56.8999 26.1093 56.8999 26.1093" stroke="white" stroke-width="4"/>
<path d="M106.061 7.90527C105.979 22.3862 106.027 26.0064 106.061 26.0064" stroke="white" stroke-width="4"/>
<path d="M133.933 45.4445H30.7764L40.6498 30.7373H123.545L133.933 45.4445Z" fill="#186EA2" stroke="#186EA2"/>
<path d="M94.3369 8.00806C94.2547 22.489 94.3027 26.1092 94.3369 26.1092" stroke="white" stroke-width="4"/>
<path d="M52.1689 29.1944V26.4175H57.1057V29.1944H52.1689Z" fill="#039CB0" stroke="#039CB0"/>
<path d="M43.3237 29.0916V26.3147H48.2604V29.0916H43.3237Z" fill="#039CB0" stroke="#039CB0"/>
<path d="M55.6655 35.1596V32.0742H56.2826V35.1596H55.6655Z" fill="#074379"/>
<path d="M52.3748 35.1596V32.0742H52.9918V35.1596H52.3748Z" fill="#074379"/>
<path d="M47.6433 34.9541V31.8687H48.2604V34.9541H47.6433Z" fill="#074379"/>
<path d="M43.9412 34.9541V31.8687H44.5583V34.9541H43.9412Z" fill="#074379"/>
<path d="M55.2544 35.3652V32.2798H55.8715V35.3652H55.2544Z" fill="#00529C" stroke="#00529C" stroke-width="0.5"/>
<path d="M47.2322 35.1596V32.0742H47.8493V35.1596H47.2322Z" fill="#00529C" stroke="#00529C" stroke-width="0.5"/>
<path d="M51.9629 35.3652V32.2798H52.58V35.3652H51.9629Z" fill="#00529C" stroke="#00529C" stroke-width="0.5"/>
<path d="M43.5295 35.1596V32.0742H44.1466V35.1596H43.5295Z" fill="#00529C" stroke="#00529C" stroke-width="0.5"/>
<path d="M56.4754 37.4223C56.451 37.3865 56.4169 36.3491 56.4754 32.4856H57.0602V37.4223H56.4754Z" fill="#E3A731" stroke="#E3A731"/>
<path d="M41.9163 37.2165C41.892 37.1807 41.8578 36.1433 41.9163 32.2798H42.5011V37.2165H41.9163Z" fill="#E3A731" stroke="#E3A731"/>
<path d="M57.1375 34.7482C57.1131 34.7124 57.079 33.675 57.1375 29.8115H57.7223V34.7482H57.1375Z" fill="#DBA12E"/>
<path d="M57.7223 31.3543V29.2974L57.1052 31.6629L57.2081 32.2799L57.7223 31.3543Z" fill="#E3A731" stroke="#E3A731"/>
<path d="M41.884 31.7657L42.604 29.2974H57.7226L57.1055 31.7657V32.4856L41.884 32.3828V31.7657Z" fill="#F5B700"/>
<path d="M41.884 31.7657C41.884 31.7657 42.028 31.272 42.604 29.2974H57.7226L57.1055 31.7657M41.884 31.7657H57.1055M41.884 31.7657V32.3828L57.1055 32.4856V31.7657" stroke="#F5B700"/>
<path d="M57.134 31.6628H41.7812" stroke="#E3A731"/>
<path d="M73.2534 29.4002V26.6233H78.1901V29.4002H73.2534Z" fill="#039CB0" stroke="#039CB0"/>
<path d="M64.4082 29.2974V26.5205H69.3449V29.2974H64.4082Z" fill="#039CB0" stroke="#039CB0"/>
<path d="M76.75 35.3652V32.2798H77.3671V35.3652H76.75Z" fill="#074379"/>
<path d="M73.459 35.3652V32.2798H74.0761V35.3652H73.459Z" fill="#074379"/>
<path d="M68.728 35.1596V32.0742H69.3451V35.1596H68.728Z" fill="#074379"/>
<path d="M65.0256 35.1596V32.0742H65.6427V35.1596H65.0256Z" fill="#074379"/>
<path d="M76.3389 35.571V32.4856H76.956V35.571H76.3389Z" fill="#00529C" stroke="#00529C" stroke-width="0.5"/>
<path d="M68.3167 35.3652V32.2798H68.9337V35.3652H68.3167Z" fill="#00529C" stroke="#00529C" stroke-width="0.5"/>
<path d="M73.0476 35.571V32.4856H73.6647V35.571H73.0476Z" fill="#00529C" stroke="#00529C" stroke-width="0.5"/>
<path d="M64.6143 35.3652V32.2798H65.2313V35.3652H64.6143Z" fill="#00529C" stroke="#00529C" stroke-width="0.5"/>
<path d="M77.5596 37.6278C77.5353 37.5921 77.5012 36.5546 77.5596 32.6912H78.1444V37.6278H77.5596Z" fill="#E3A731" stroke="#E3A731"/>
<path d="M63.001 37.4223C62.9767 37.3865 62.9426 36.3491 63.001 32.4856H63.5858V37.4223H63.001Z" fill="#E3A731" stroke="#E3A731"/>
<path d="M78.2225 34.9538C78.1981 34.918 78.164 33.8806 78.2225 30.0171H78.8073V34.9538H78.2225Z" fill="#DBA12E"/>
<path d="M78.8073 31.5601V29.5032L78.1902 31.8687L78.293 32.4857L78.8073 31.5601Z" fill="#E3A731" stroke="#E3A731"/>
<path d="M62.9688 31.9715L63.6887 29.5032H78.8073L78.1903 31.9715V32.6914L62.9688 32.5886V31.9715Z" fill="#F5B700"/>
<path d="M62.9688 31.9715C62.9688 31.9715 63.1127 31.4778 63.6887 29.5032H78.8073L78.1903 31.9715M62.9688 31.9715H78.1903M62.9688 31.9715V32.5886L78.1903 32.6914V31.9715" stroke="#F5B700"/>
<path d="M78.2185 31.8687H62.8657" stroke="#E3A731"/>
<path d="M89.9143 28.989V26.2122H84.9776V28.989H89.9143Z" fill="#039CB0" stroke="#039CB0"/>
<path d="M98.7593 28.886V26.1091H93.8226V28.886H98.7593Z" fill="#039CB0" stroke="#039CB0"/>
<path d="M86.4175 34.9543V31.8689H85.8004V34.9543H86.4175Z" fill="#074379"/>
<path d="M89.709 34.9543V31.8689H89.0919V34.9543H89.709Z" fill="#074379"/>
<path d="M94.4399 34.7485V31.6631H93.8229V34.7485H94.4399Z" fill="#074379"/>
<path d="M98.1423 34.7485V31.6631H97.5252V34.7485H98.1423Z" fill="#074379"/>
<path d="M86.8291 35.1596V32.0742H86.212V35.1596H86.8291Z" fill="#00529C" stroke="#00529C" stroke-width="0.5"/>
<path d="M94.8513 34.9543V31.8689H94.2342V34.9543H94.8513Z" fill="#00529C" stroke="#00529C" stroke-width="0.5"/>
<path d="M90.1201 35.1596V32.0742H89.503V35.1596H90.1201Z" fill="#00529C" stroke="#00529C" stroke-width="0.5"/>
<path d="M98.5535 34.9543V31.8689H97.9364V34.9543H98.5535Z" fill="#00529C" stroke="#00529C" stroke-width="0.5"/>
<path d="M85.6081 37.2167C85.6325 37.1809 85.6666 36.1435 85.6081 32.28H85.0233V37.2167H85.6081Z" fill="#E3A731" stroke="#E3A731"/>
<path d="M100.167 37.0109C100.191 36.9751 100.225 35.9377 100.167 32.0742H99.5819V37.0109H100.167Z" fill="#E3A731" stroke="#E3A731"/>
<path d="M84.9457 34.5429C84.9701 34.5071 85.0042 33.4697 84.9457 29.6062H84.3609V34.5429H84.9457Z" fill="#DBA12E"/>
<path d="M84.3609 31.1487V29.0918L84.978 31.4573L84.8752 32.0744L84.3609 31.1487Z" fill="#E3A731" stroke="#E3A731"/>
<path d="M100.199 31.5601L99.479 29.0918H84.3604L84.9775 31.5601V32.2801L100.199 32.1772V31.5601Z" fill="#F5B700"/>
<path d="M100.199 31.5601C100.199 31.5601 100.055 31.0665 99.479 29.0918H84.3604L84.9775 31.5601M100.199 31.5601H84.9775M100.199 31.5601V32.1772L84.9775 32.2801V31.5601" stroke="#F5B700"/>
<path d="M84.9493 31.4573H100.302" stroke="#E3A731"/>
<path d="M111.924 28.989V26.2122H106.987V28.989H111.924Z" fill="#039CB0" stroke="#039CB0"/>
<path d="M120.769 28.886V26.1091H115.832V28.886H120.769Z" fill="#039CB0" stroke="#039CB0"/>
<path d="M108.427 34.9543V31.8689H107.81V34.9543H108.427Z" fill="#074379"/>
<path d="M111.718 34.9543V31.8689H111.101V34.9543H111.718Z" fill="#074379"/>
<path d="M116.449 34.7485V31.6631H115.832V34.7485H116.449Z" fill="#074379"/>
<path d="M120.152 34.7485V31.6631H119.535V34.7485H120.152Z" fill="#074379"/>
<path d="M108.839 35.1596V32.0742H108.222V35.1596H108.839Z" fill="#00529C" stroke="#00529C" stroke-width="0.5"/>
<path d="M116.861 34.9543V31.8689H116.244V34.9543H116.861Z" fill="#00529C" stroke="#00529C" stroke-width="0.5"/>
<path d="M112.13 35.1596V32.0742H111.513V35.1596H112.13Z" fill="#00529C" stroke="#00529C" stroke-width="0.5"/>
<path d="M120.563 34.9543V31.8689H119.946V34.9543H120.563Z" fill="#00529C" stroke="#00529C" stroke-width="0.5"/>
<path d="M107.618 37.2167C107.642 37.1809 107.676 36.1435 107.618 32.28H107.033V37.2167H107.618Z" fill="#E3A731" stroke="#E3A731"/>
<path d="M122.177 37.0109C122.201 36.9751 122.235 35.9377 122.177 32.0742H121.592V37.0109H122.177Z" fill="#E3A731" stroke="#E3A731"/>
<path d="M106.955 34.5429C106.979 34.5071 107.013 33.4697 106.955 29.6062H106.37V34.5429H106.955Z" fill="#DBA12E"/>
<path d="M106.37 31.1487V29.0918L106.987 31.4573L106.884 32.0744L106.37 31.1487Z" fill="#E3A731" stroke="#E3A731"/>
<path d="M122.209 31.5601L121.489 29.0918H106.37L106.987 31.5601V32.2801L122.209 32.1772V31.5601Z" fill="#F5B700"/>
<path d="M122.209 31.5601C122.209 31.5601 122.065 31.0665 121.489 29.0918H106.37L106.987 31.5601M122.209 31.5601H106.987M122.209 31.5601V32.1772L106.987 32.2801V31.5601" stroke="#F5B700"/>
<path d="M106.959 31.4573H122.312" stroke="#E3A731"/>
<path d="M50.2146 34.3369V31.5601H55.1513V34.3369H50.2146Z" fill="#039CB0" stroke="#039CB0"/>
<path d="M41.3694 34.2342V31.4573H46.3061V34.2342H41.3694Z" fill="#039CB0" stroke="#039CB0"/>
<path d="M53.7114 40.302V37.2166H54.3285V40.302H53.7114Z" fill="#074379"/>
<path d="M50.4202 40.302V37.2166H51.0373V40.302H50.4202Z" fill="#074379"/>
<path d="M45.689 40.0964V37.011H46.3061V40.0964H45.689Z" fill="#074379"/>
<path d="M41.9863 40.0964V37.011H42.6034V40.0964H41.9863Z" fill="#074379"/>
<path d="M53.2998 40.5078V37.4224H53.9169V40.5078H53.2998Z" fill="#00529C" stroke="#00529C" stroke-width="0.5"/>
<path d="M45.2776 40.302V37.2166H45.8947V40.302H45.2776Z" fill="#00529C" stroke="#00529C" stroke-width="0.5"/>
<path d="M50.0085 40.5078V37.4224H50.6256V40.5078H50.0085Z" fill="#00529C" stroke="#00529C" stroke-width="0.5"/>
<path d="M41.575 40.302V37.2166H42.192V40.302H41.575Z" fill="#00529C" stroke="#00529C" stroke-width="0.5"/>
<path d="M54.5208 42.5646C54.4964 42.5288 54.4623 41.4914 54.5208 37.6279H55.1056V42.5646H54.5208Z" fill="#E3A731" stroke="#E3A731"/>
<path d="M39.962 42.359C39.9376 42.3233 39.9035 41.2859 39.962 37.4224H40.5468V42.359H39.962Z" fill="#E3A731" stroke="#E3A731"/>
<path d="M55.1834 39.8908C55.159 39.855 55.1249 38.8176 55.1834 34.9541H55.7682V39.8908H55.1834Z" fill="#DBA12E"/>
<path d="M55.7682 36.4966V34.4397L55.1511 36.8052L55.254 37.4223L55.7682 36.4966Z" fill="#E3A731" stroke="#E3A731"/>
<path d="M39.9297 36.908L40.6496 34.4397H55.7683L55.1512 36.908V37.628L39.9297 37.5251V36.908Z" fill="#F5B700"/>
<path d="M39.9297 36.908C39.9297 36.908 40.0737 36.4144 40.6496 34.4397H55.7683L55.1512 36.908M39.9297 36.908H55.1512M39.9297 36.908V37.5251L55.1512 37.628V36.908" stroke="#F5B700"/>
<path d="M55.1799 36.8052H39.8271" stroke="#E3A731"/>
<path d="M71.2986 34.5427V31.7659H76.2353V34.5427H71.2986Z" fill="#039CB0" stroke="#039CB0"/>
<path d="M62.4536 34.4397V31.6628H67.3903V34.4397H62.4536Z" fill="#039CB0" stroke="#039CB0"/>
<path d="M74.7954 40.5078V37.4224H75.4125V40.5078H74.7954Z" fill="#074379"/>
<path d="M71.5044 40.5078V37.4224H72.1215V40.5078H71.5044Z" fill="#074379"/>
<path d="M66.7734 40.302V37.2166H67.3905V40.302H66.7734Z" fill="#074379"/>
<path d="M63.071 40.302V37.2166H63.6881V40.302H63.071Z" fill="#074379"/>
<path d="M74.3843 40.7134V37.6279H75.0014V40.7134H74.3843Z" fill="#00529C" stroke="#00529C" stroke-width="0.5"/>
<path d="M66.3621 40.5078V37.4224H66.9791V40.5078H66.3621Z" fill="#00529C" stroke="#00529C" stroke-width="0.5"/>
<path d="M71.093 40.7134V37.6279H71.7101V40.7134H71.093Z" fill="#00529C" stroke="#00529C" stroke-width="0.5"/>
<path d="M62.6597 40.5078V37.4224H63.2768V40.5078H62.6597Z" fill="#00529C" stroke="#00529C" stroke-width="0.5"/>
<path d="M75.6053 42.7704C75.5809 42.7346 75.5468 41.6972 75.6053 37.8337H76.1901V42.7704H75.6053Z" fill="#E3A731" stroke="#E3A731"/>
<path d="M61.0462 42.5646C61.0218 42.5288 60.9877 41.4914 61.0462 37.6279H61.631V42.5646H61.0462Z" fill="#E3A731" stroke="#E3A731"/>
<path d="M76.2679 40.0963C76.2435 40.0606 76.2094 39.0232 76.2679 35.1597H76.8527V40.0963H76.2679Z" fill="#DBA12E"/>
<path d="M76.8527 36.7022V34.6453L76.2356 37.0108L76.3384 37.6278L76.8527 36.7022Z" fill="#E3A731" stroke="#E3A731"/>
<path d="M61.0139 37.1136L61.7339 34.6453H76.8525L76.2354 37.1136V37.8335L61.0139 37.7307V37.1136Z" fill="#F5B700"/>
<path d="M61.0139 37.1136C61.0139 37.1136 61.1579 36.6199 61.7339 34.6453H76.8525L76.2354 37.1136M61.0139 37.1136H76.2354M61.0139 37.1136V37.7307L76.2354 37.8335V37.1136" stroke="#F5B700"/>
<path d="M76.2639 37.0107H60.9111" stroke="#E3A731"/>
<path d="M90.5312 34.3369V31.5601H85.5945V34.3369H90.5312Z" fill="#039CB0" stroke="#039CB0"/>
<path d="M99.3762 34.2342V31.4573H94.4395V34.2342H99.3762Z" fill="#039CB0" stroke="#039CB0"/>
<path d="M87.0347 40.302V37.2166H86.4176V40.302H87.0347Z" fill="#074379"/>
<path d="M90.3259 40.302V37.2166H89.7088V40.302H90.3259Z" fill="#074379"/>
<path d="M95.0566 40.0964V37.011H94.4396V40.0964H95.0566Z" fill="#074379"/>
<path d="M98.759 40.0964V37.011H98.1419V40.0964H98.759Z" fill="#074379"/>
<path d="M87.4458 40.5078V37.4224H86.8287V40.5078H87.4458Z" fill="#00529C" stroke="#00529C" stroke-width="0.5"/>
<path d="M95.468 40.302V37.2166H94.8509V40.302H95.468Z" fill="#00529C" stroke="#00529C" stroke-width="0.5"/>
<path d="M90.7371 40.5078V37.4224H90.12V40.5078H90.7371Z" fill="#00529C" stroke="#00529C" stroke-width="0.5"/>
<path d="M99.1704 40.302V37.2166H98.5533V40.302H99.1704Z" fill="#00529C" stroke="#00529C" stroke-width="0.5"/>
<path d="M86.2248 42.5646C86.2492 42.5288 86.2833 41.4914 86.2248 37.6279H85.64V42.5646H86.2248Z" fill="#E3A731" stroke="#E3A731"/>
<path d="M100.784 42.359C100.808 42.3233 100.842 41.2859 100.784 37.4224H100.199V42.359H100.784Z" fill="#E3A731" stroke="#E3A731"/>
<path d="M85.5622 39.8908C85.5866 39.855 85.6207 38.8176 85.5622 34.9541H84.9774V39.8908H85.5622Z" fill="#DBA12E"/>
<path d="M84.9774 36.4966V34.4397L85.5945 36.8052L85.4916 37.4223L84.9774 36.4966Z" fill="#E3A731" stroke="#E3A731"/>
<path d="M100.816 36.908L100.096 34.4397H84.9773L85.5944 36.908V37.628L100.816 37.5251V36.908Z" fill="#F5B700"/>
<path d="M100.816 36.908C100.816 36.908 100.672 36.4144 100.096 34.4397H84.9773L85.5944 36.908M100.816 36.908H85.5944M100.816 36.908V37.5251L85.5944 37.628V36.908" stroke="#F5B700"/>
<path d="M85.5662 36.8052H100.919" stroke="#E3A731"/>
<path d="M113.569 34.3369V31.5601H108.633V34.3369H113.569Z" fill="#039CB0" stroke="#039CB0"/>
<path d="M122.415 34.2342V31.4573H117.478V34.2342H122.415Z" fill="#039CB0" stroke="#039CB0"/>
<path d="M110.073 40.302V37.2166H109.456V40.302H110.073Z" fill="#074379"/>
<path d="M113.364 40.302V37.2166H112.747V40.302H113.364Z" fill="#074379"/>
<path d="M118.095 40.0964V37.011H117.478V40.0964H118.095Z" fill="#074379"/>
<path d="M121.797 40.0964V37.011H121.18V40.0964H121.797Z" fill="#074379"/>
<path d="M110.484 40.5078V37.4224H109.867V40.5078H110.484Z" fill="#00529C" stroke="#00529C" stroke-width="0.5"/>
<path d="M118.507 40.302V37.2166H117.89V40.302H118.507Z" fill="#00529C" stroke="#00529C" stroke-width="0.5"/>
<path d="M113.775 40.5078V37.4224H113.158V40.5078H113.775Z" fill="#00529C" stroke="#00529C" stroke-width="0.5"/>
<path d="M122.209 40.302V37.2166H121.592V40.302H122.209Z" fill="#00529C" stroke="#00529C" stroke-width="0.5"/>
<path d="M109.263 42.5646C109.287 42.5288 109.322 41.4914 109.263 37.6279H108.678V42.5646H109.263Z" fill="#E3A731" stroke="#E3A731"/>
<path d="M123.822 42.359C123.846 42.3233 123.88 41.2859 123.822 37.4224H123.237V42.359H123.822Z" fill="#E3A731" stroke="#E3A731"/>
<path d="M108.601 39.8908C108.625 39.855 108.659 38.8176 108.601 34.9541H108.016V39.8908H108.601Z" fill="#DBA12E"/>
<path d="M108.016 36.4966V34.4397L108.633 36.8052L108.53 37.4223L108.016 36.4966Z" fill="#E3A731" stroke="#E3A731"/>
<path d="M123.854 36.908L123.134 34.4397H108.016L108.633 36.908V37.628L123.854 37.5251V36.908Z" fill="#F5B700"/>
<path d="M123.854 36.908C123.854 36.908 123.71 36.4144 123.134 34.4397H108.016L108.633 36.908M123.854 36.908H108.633M123.854 36.908V37.5251L108.633 37.628V36.908" stroke="#F5B700"/>
<path d="M108.604 36.8052H123.957" stroke="#E3A731"/>
<path d="M30.7768 45.2386H28.2056V14.6929L38.9018 0.5H125.5L136.505 15.0015V45.1358H133.728V15.0015L124.163 2.14556H40.3416L30.7768 14.6929V45.2386Z" fill="#186EA2" stroke="#186EA2"/>
<path d="M40.4441 2.14551L30.7764 14.7957V45.2386L40.4441 30.7371V2.14551Z" fill="#308FAD" stroke="#2785A1"/>
<path d="M40.0324 8.72778L33.553 17.7784V38.245L40.0324 28.6802V8.72778Z" fill="#8FD3E4" fill-opacity="0.8" stroke="white" stroke-width="3"/>
<path d="M36.6389 13.5618L37.256 32.6914" stroke="white" stroke-width="3" stroke-linecap="round"/>
<path d="M33.3477 35.3655L39.4718 9.74622C39.4992 9.63162 39.6017 9.55078 39.7195 9.55078C39.8811 9.55078 40.0018 9.69931 39.9687 9.85746L34.1704 37.6281C33.8758 37.6281 33.6265 37.4105 33.5867 37.1186L33.3477 35.3655Z" fill="white" fill-opacity="0.2"/>
<path d="M44.9692 21.1725L66.4645 8.00806H68.7271L44.9692 25.8007V21.1725Z" fill="white" fill-opacity="0.2"/>
<path d="M94.2339 21.2486L116.194 8.00806H118.506L94.2339 25.9035V21.2486Z" fill="white" fill-opacity="0.2"/>
<path d="M123.649 30.7373V2.35138V2.24854H124.163L133.728 15.1045V45.2388L123.649 30.7373Z" fill="#308FAD" stroke="#308FAD"/>
<path d="M125.294 7.59644L131.773 16.647V37.1137L125.294 27.5488V7.59644Z" fill="#8FD3E4" fill-opacity="0.8" stroke="white" stroke-width="3"/>
<path d="M128.688 12.4304L128.071 31.56" stroke="white" stroke-width="3" stroke-linecap="round"/>
<path d="M131.979 34.2339L125.855 8.61463C125.828 8.50003 125.725 8.41919 125.607 8.41919C125.446 8.41919 125.325 8.56772 125.358 8.72587L131.156 36.4965C131.451 36.4965 131.7 36.2789 131.74 35.987L131.979 34.2339Z" fill="white" fill-opacity="0.2"/>
<path d="M28.0513 49.1467V45.4162L136.659 45.2385V49.1467H28.0513Z" fill="#074379" stroke="#074379"/>
<path d="M136.607 53.0552V49.3246L27.9999 49.147V53.0552H136.607Z" fill="#E3A731" stroke="#E3A731"/>
<path d="M22.4386 16.6364L20.523 17.1617C20.3296 17.2148 20.1696 17.351 20.0864 17.5335C19.9626 17.8051 20.0315 18.1256 20.2558 18.3225L20.5553 18.5853C20.669 18.6852 20.7631 18.8054 20.8326 18.9398L38.6049 53.309C38.8911 53.8624 38.8218 54.5328 38.4285 55.016L38.2369 55.2515C38.2302 55.2597 38.2219 55.2665 38.2125 55.2715C38.1269 55.3165 38.182 55.4464 38.2739 55.4162L38.7364 55.2639L40.2834 54.8114C40.61 54.7159 40.9237 54.5807 41.2174 54.4089L41.6454 54.1585C42.075 53.9071 42.4208 53.5344 42.6392 53.0872C42.7549 52.8501 42.8329 52.5964 42.8701 52.3352L42.9056 52.0857C42.9575 51.7213 42.9604 51.3516 42.9141 50.9864L42.9097 50.9516C42.8463 50.4508 42.6969 49.9648 42.4681 49.5149L29.3921 23.8055L27.1835 19.6309L26.019 17.8142C25.7793 17.4404 25.4546 17.1286 25.0713 16.9043C24.7828 16.7355 24.4664 16.6195 24.1372 16.5617L24.0628 16.5487C23.8783 16.5163 23.6913 16.5 23.504 16.5H23.4519C23.1095 16.5 22.7688 16.5459 22.4386 16.6364Z" fill="#C37522" stroke="#C37522" stroke-linecap="round"/>
<path d="M19.9086 17.3059L20.0474 17.2788C20.1606 17.2567 20.2757 17.2456 20.3911 17.2456C20.8268 17.2456 21.2493 17.4055 21.5768 17.6929C22.028 18.1878 22.413 18.7391 22.7224 19.333L24.9747 23.6566L28.7124 30.6639L30.9211 34.9876L32.6201 38.4167L34.9986 43.0385L37.547 47.8095L38.8573 50.6201C39.0028 50.9323 39.1173 51.258 39.199 51.5926L39.3819 52.3419C39.5147 52.8857 39.4794 53.4569 39.2806 53.9802C39.1457 54.3353 38.9391 54.6589 38.6737 54.9307L38.649 54.9559C38.2621 55.3521 37.771 55.6307 37.2324 55.7596L36.9506 55.827C36.4471 55.9475 35.9247 55.9676 35.4134 55.886L34.319 55.7114L6.28616 50.4931L3.0628 49.8503C2.72227 49.7824 2.39545 49.6582 2.09574 49.4828C1.72203 49.2642 1.39782 48.9703 1.14365 48.6198L0.690658 47.9952C0.459142 47.6759 0.294616 47.3131 0.206983 46.9286C0.0723295 46.3377 0.124606 45.7197 0.356581 45.1599L0.532773 44.7347C0.63046 44.4989 0.748617 44.2722 0.885889 44.0571L3.05813 40.6531L10.7035 29.0239L16.6498 20.2274L17.9367 18.5335C18.4209 17.8961 19.1228 17.4591 19.9086 17.3059Z" fill="#F5B700"/>
<path d="M3.19537 45.6146L4.22161 45.7047C4.28366 45.7101 4.31657 45.6331 4.26975 45.592C4.25581 45.5798 4.24782 45.5622 4.24782 45.5436V45.1255C4.24782 44.8324 4.32413 44.5443 4.46924 44.2896L4.58761 44.0819L10.3641 35.4345L15.8008 27.2345L18.0638 23.8832C18.3644 23.4381 18.7501 23.057 19.1987 22.7617C19.4166 22.5704 19.5516 22.3019 19.5751 22.0129L19.6973 20.5117C19.7033 20.4387 19.6457 20.3762 19.5724 20.3762C19.5502 20.3762 19.5284 20.3821 19.5092 20.3934L19.2629 20.5374C19.1088 20.6276 18.9773 20.7515 18.8781 20.9L3.39833 44.0819L3.2954 44.2625C3.13773 44.5392 3.00174 44.8278 2.88865 45.1255C2.8034 45.3499 2.95624 45.5936 3.19537 45.6146Z" fill="black" stroke="black"/>
<path d="M18.6245 21.2034C18.6245 21.2034 19.127 20.3478 19.7206 20.2439C20.0666 20.1833 20.3931 20.3984 20.6023 20.6805L20.6341 20.7236C20.8585 21.0303 21.1821 21.5232 21.1821 21.5232L36.3504 50.9252C36.4668 51.1509 36.5276 51.4012 36.5276 51.6551V51.6966C36.5276 51.8369 36.5054 51.9763 36.4619 52.1096C36.2831 52.6573 35.7724 53.0278 35.1964 53.0278H34.5422C34.4046 53.0278 34.2673 53.0151 34.1321 52.9898L4.61705 47.4757C4.45611 47.4457 4.2981 47.4016 4.1448 47.3441L3.67392 47.1674C3.30301 47.0283 2.99936 46.7526 2.82517 46.3968C2.64764 46.0342 2.61841 45.6166 2.74368 45.2328L2.82147 44.9945C2.88267 44.807 2.96917 44.6286 3.07857 44.4645L14.4228 27.4403L15.7016 25.5213L17.1631 23.2824L18.6245 21.2034Z" stroke="black"/>
<path d="M18.5554 23.4822C18.5554 23.4822 19.0026 22.7199 19.5309 22.6273C19.8388 22.5734 20.1293 22.7649 20.3154 23.0161L20.3438 23.0548C20.5436 23.3279 20.8316 23.7671 20.8316 23.7671L34.3313 49.9616C34.435 50.1627 34.4891 50.3857 34.4891 50.6119V50.6491C34.4891 50.7739 34.4694 50.898 34.4307 51.0167C34.2716 51.5046 33.8166 51.8348 33.3033 51.8348H32.7222C32.5997 51.8348 32.4774 51.8235 32.357 51.801L6.08887 46.8885C5.94553 46.8617 5.8048 46.8224 5.66828 46.7711L5.24997 46.614C4.91945 46.4899 4.64891 46.2441 4.4938 45.9269C4.33588 45.604 4.30987 45.2323 4.4213 44.8906L4.49062 44.678C4.54511 44.5108 4.62212 44.3519 4.71953 44.2056L14.8158 29.0387L15.954 27.329L17.2547 25.3344L18.5554 23.4822Z" stroke="black"/>
<path d="M19.7455 22.1187L19.8607 20.6025C19.8704 20.4749 19.9768 20.3762 20.1049 20.3762C20.1765 20.3762 20.2445 20.4076 20.291 20.462L20.6258 20.8537C20.6933 20.9327 20.7516 21.0192 20.7994 21.1114L36.1654 50.7185C36.2918 50.9621 36.3578 51.2324 36.3578 51.5069V52.1044C36.3578 52.2172 36.3092 52.3246 36.2244 52.3991C36.033 52.567 35.7349 52.5108 35.6177 52.2848L20.5012 23.1299C20.4277 22.9881 20.3078 22.8758 20.1616 22.8116C19.8899 22.6924 19.7231 22.4146 19.7455 22.1187Z" fill="black" stroke="black"/>
<path d="M35.7384 51.9231L34.99 50.8284C34.8583 50.6358 34.5619 50.684 34.498 50.9083C34.4919 50.9296 34.4833 50.95 34.4724 50.9692L34.3282 51.2224C34.2104 51.429 34.0455 51.6048 33.8469 51.7356C33.6007 51.8976 33.3124 51.984 33.0177 51.984H32.6929C32.5314 51.984 32.3703 51.9689 32.2116 51.9389L7.98507 47.3621L5.94631 46.9148L5.23798 46.7372C4.93304 46.6608 4.67741 46.4536 4.53946 46.1711L4.47665 46.0425C4.33634 45.7552 4.04457 45.573 3.72485 45.573H3.15621C3.00818 45.573 2.88818 45.693 2.88818 45.841C2.88818 45.8611 2.89043 45.881 2.89488 45.9006L2.92089 46.0147C3.00776 46.3958 3.26052 46.7182 3.60997 46.8934L3.9747 47.0763C4.15558 47.167 4.34825 47.232 4.54711 47.2694L32.7899 52.5803L33.6974 52.7794C33.9976 52.8453 34.3041 52.8785 34.6115 52.8785H35.2343C35.3032 52.8785 35.3716 52.8669 35.4366 52.844C35.8155 52.711 35.9651 52.2546 35.7384 51.9231Z" fill="black" stroke="black"/>
<path d="M20.5576 17.2456L20.5925 17.2558C20.9069 17.3478 21.2041 17.4907 21.4722 17.6789C21.7662 17.8853 22.0206 18.143 22.2234 18.4395L22.2623 18.4964C22.3715 18.6562 22.4668 18.8251 22.5471 19.0012L23.1061 20.2274L24.4652 22.6129L28.033 29.4712L36.8676 46.6168L38.9064 50.4931" stroke="white" stroke-opacity="0.25" stroke-linecap="round"/>
<path d="M17.6611 29.4392L17.5534 29.5185C17.2703 29.7273 17.0553 30.0152 16.9357 30.3459C16.8588 30.5583 16.8231 30.7834 16.8304 31.0092L17.1192 39.9227L17.2137 40.6196C17.2502 40.8883 17.3459 41.1457 17.4939 41.3729L17.5912 41.5224C17.6752 41.6515 17.787 41.7603 17.9182 41.8409C18.082 41.9415 18.2703 41.9947 18.4625 41.9947H18.7199C18.8506 41.9947 18.9797 41.9664 19.0984 41.9117C19.3619 41.7903 19.5512 41.5499 19.6073 41.2653L19.8177 40.1989L20.5083 33.0724C20.5476 32.6672 20.5489 32.2592 20.5122 31.8537L20.454 31.2099C20.4298 30.9421 20.3629 30.6799 20.2558 30.4332L20.21 30.3279C20.1487 30.1866 20.0683 30.0543 19.971 29.9348C19.7728 29.6914 19.5106 29.508 19.2139 29.4055L18.8062 29.2646C18.5855 29.1884 18.3478 29.1757 18.1202 29.2282C17.9544 29.2664 17.7981 29.3382 17.6611 29.4392Z" fill="#272727" stroke="black"/>
<path d="M18.5138 29.0182L18.2115 29.1108C18.0769 29.1521 17.9482 29.2105 17.8286 29.2848C18.0184 29.1948 18.2259 29.1481 18.436 29.1481H18.459C18.6144 29.1481 18.769 29.1719 18.9172 29.2188L18.9286 29.2224C19.0597 29.2638 19.1848 29.3219 19.301 29.3953L19.398 29.4567C19.5047 29.5241 19.6046 29.6018 19.6962 29.6887C19.8906 29.873 20.0447 30.0955 20.1488 30.3423L20.1962 30.4546C20.2515 30.5856 20.2955 30.721 20.328 30.8594L20.3773 31.0697C20.5033 31.6073 20.5407 32.1618 20.488 32.7113L20.2792 34.8881L19.8468 39.8082L19.5747 41.485C19.5645 41.5475 19.5243 41.6011 19.467 41.6282L18.8238 41.9331C18.7925 41.9479 18.8031 41.9949 18.8377 41.9949L19.5329 41.9007C19.737 41.8731 19.9272 41.782 20.0766 41.6403C20.2091 41.5147 20.3039 41.3547 20.3504 41.1782L20.4234 40.9015L21 35.9815L21.5222 31.6493C21.5582 31.3512 21.5373 31.049 21.4607 30.7586C21.348 30.3312 21.1184 29.9437 20.7976 29.6395L20.7831 29.6258C20.6399 29.49 20.4808 29.3721 20.3093 29.2746L20.1824 29.2023C19.9605 29.0761 19.7176 28.991 19.4654 28.9512C19.1472 28.9009 18.8218 28.9238 18.5138 29.0182Z" fill="black" stroke="black"/>
<path d="M17.1592 30.3659L17.2301 30.1792C17.2951 30.0081 17.401 29.8555 17.5386 29.7348C17.6249 29.659 17.7224 29.597 17.8276 29.5508L17.9386 29.5021C18.2059 29.3848 18.5018 29.3492 18.7893 29.3996L18.8435 29.4091C19.0753 29.4498 19.2915 29.5535 19.4684 29.7087C19.5146 29.7492 19.5577 29.793 19.5976 29.8396L19.6461 29.8964C19.9091 30.2041 20.0871 30.5751 20.1627 30.9727L20.1729 31.0265C20.2024 31.1821 20.2173 31.3402 20.2173 31.4986V33.1987L20.0474 34.8387" stroke="#8A8A8A" stroke-opacity="0.15" stroke-linecap="round"/>
<ellipse cx="18.8585" cy="45.2748" rx="2.37855" ry="2.08729" fill="black"/>
<path d="M17.499 44.0821L18.1816 43.911C18.5134 43.8278 18.8614 43.8346 19.1897 43.9306L19.2084 43.9361C19.5349 44.0316 19.8289 44.2151 20.0582 44.4666L20.1111 44.5247C20.2921 44.7232 20.4186 44.9653 20.4783 45.2272C20.5302 45.4549 20.5302 45.6912 20.4783 45.9188L20.3873 46.3185" stroke="#8A8A8A" stroke-opacity="0.25" stroke-linecap="round"/>
<path d="M17.8394 22.9109C17.9526 22.6624 18.2811 22.0163 18.6888 21.4199C18.8284 21.2158 18.9321 21.0641 19.0082 20.9528C19.1305 20.774 19.3163 20.6486 19.5279 20.6022C19.7518 20.5531 19.9861 20.5965 20.1776 20.7225L20.2948 20.7997C20.4671 20.913 20.6067 21.0694 20.6999 21.2534L21.2373 22.3145L21.9169 23.6563L22.5964 25.1472L23.7857 27.6818" stroke="white" stroke-opacity="0.25" stroke-linecap="round"/>
<path d="M34.8286 50.9408L34.7393 51.1235C34.477 51.6607 33.9614 52.0292 33.3683 52.1036C33.2099 52.1234 33.0496 52.1218 32.8917 52.0987L31.0909 51.8353L5.60645 46.9153" stroke="white" stroke-opacity="0.25" stroke-linecap="round"/>
<path d="M22.2562 16.7983L21.2681 17.0873C21.2475 17.0933 21.2284 17.1038 21.2123 17.118C21.1391 17.1822 21.1472 17.2984 21.2285 17.3519L21.7465 17.6928C21.9681 17.8873 22.2422 18.0109 22.5328 18.061C22.6699 18.0846 22.8159 18.1121 22.9358 18.1401C25.0324 18.6305 26.8691 21.0998 27.5654 22.1447C27.6505 22.2725 27.8627 22.2111 27.8627 22.0576C27.8627 22.0307 27.8555 22.0043 27.8419 21.9811L25.6586 18.277C25.4305 17.89 25.1422 17.5418 24.8046 17.2455L24.624 17.1267C24.2954 16.9104 23.9233 16.7688 23.534 16.7118C23.2502 16.6703 22.9617 16.6744 22.6793 16.724L22.2562 16.7983Z" fill="#D9D9D9" fill-opacity="0.15"/>
<path d="M40.9127 54.0071L40.018 54.4597C39.9941 54.4717 39.9675 54.4787 39.9402 54.4802C39.835 54.4856 39.7496 54.4087 39.7583 54.3163L39.8079 53.7914C39.8106 53.7622 39.811 53.7329 39.8091 53.7037L39.8069 53.6724C39.7918 53.4478 39.8598 53.2242 39.9919 53.0295C40.0711 52.9127 40.1574 52.7806 40.2206 52.6702C41.1873 50.9824 40.3246 48.1693 39.893 47.0011C39.843 46.8659 40.0412 46.7478 40.1619 46.8419C40.18 46.856 40.1939 46.8737 40.2026 46.8936L42.0047 51.0042C42.1216 51.2708 42.191 51.5523 42.2103 51.8387L42.2125 51.8715C42.22 51.9823 42.2185 52.0936 42.2081 52.2045L42.202 52.2686C42.1702 52.6051 42.0461 52.931 41.8404 53.2183C41.684 53.4367 41.4835 53.6285 41.2491 53.784L40.9127 54.0071Z" fill="#D9D9D9" fill-opacity="0.15"/>
<path d="M36.8674 31.5797V32.0054C36.8674 32.1016 36.9018 32.1947 36.9643 32.2678L37.3771 32.7509L38.1129 33.8577C38.4147 34.3118 38.68 34.7892 38.9062 35.2854L39.4159 36.4782C39.6415 37.0722 39.7921 37.6921 39.864 38.3235L39.9256 38.8636V41.2491V41.6423C39.9256 41.7766 39.95 41.9098 39.9977 42.0354L40.0105 42.0692C40.0663 42.216 40.1572 42.3469 40.2752 42.4505C40.3806 42.543 40.505 42.6113 40.6396 42.6507L40.6834 42.6635C40.8555 42.7139 41.0368 42.7239 41.2133 42.6929L41.6078 42.6237C41.7312 42.602 41.8498 42.5585 41.958 42.4952C42.181 42.3648 42.3483 42.1571 42.4283 41.9115L42.5638 41.4952C42.617 41.3317 42.6509 41.1626 42.6649 40.9912L42.7258 40.2424C42.7842 39.5249 42.7524 38.8028 42.6311 38.0932L42.5064 37.3634C42.3719 36.5768 42.1524 35.8071 41.8516 35.068C41.5875 34.4193 41.2622 33.7972 40.88 33.2103L40.3118 32.3376C40.1678 32.1165 40.0061 31.9074 39.8284 31.7125L39.6372 31.5027C39.4902 31.3415 39.3237 31.1993 39.1414 31.0793L38.9804 30.9733C38.819 30.8671 38.6395 30.7914 38.4508 30.75L38.4069 30.7404C38.1771 30.69 37.9384 30.6982 37.7126 30.7642C37.6026 30.7964 37.497 30.8419 37.3981 30.8998L37.1863 31.0237C37.0887 31.0808 37.0079 31.1626 36.9519 31.2608C36.8965 31.3579 36.8674 31.4678 36.8674 31.5797Z" fill="black" stroke="black"/>
<path d="M37.2075 31.5585C37.3135 31.2795 37.5532 31.0727 37.8448 31.0087L37.9828 30.9784C38.0321 30.9676 38.0825 30.9622 38.133 30.9622C38.303 30.9622 38.4673 31.024 38.5951 31.1362L38.7366 31.2603C39.0759 31.5581 39.3935 31.8799 39.6868 32.2231L39.756 32.304L40.0958 32.7513L40.4355 33.1985L40.6344 33.4312C40.8401 33.6719 41.0027 33.9462 41.1151 34.2422L41.285 34.6895" stroke="white" stroke-opacity="0.22" stroke-width="1.2" stroke-linecap="round"/>
<path d="M9.685 26.1607L9.60258 26.5812C9.58398 26.6761 9.53205 26.7627 9.45604 26.8257L8.95624 27.24L8.01789 28.2208C7.63226 28.6238 7.2784 29.055 6.95964 29.5104L6.22689 30.61C5.88973 31.1619 5.62171 31.7501 5.42898 32.3612L5.26371 32.8851L4.80284 35.2361L4.72673 35.6243C4.70087 35.7562 4.6512 35.8834 4.58011 35.9998L4.55985 36.033C4.47705 36.1685 4.36271 36.2834 4.22677 36.3677C4.1046 36.4434 3.96815 36.4924 3.82703 36.5113L3.78314 36.5172C3.60361 36.5412 3.42257 36.5241 3.25426 36.4672L2.88062 36.3409C2.76236 36.3009 2.65321 36.24 2.55836 36.1612C2.36427 35.9998 2.2399 35.7715 2.20877 35.5194L2.15514 35.085C2.13435 34.9167 2.13358 34.7457 2.15285 34.5756L2.23762 33.827C2.31868 33.1113 2.48949 32.4047 2.74613 31.7234L3.01089 31.0205C3.29485 30.2667 3.65942 29.5419 4.09827 28.8589C4.48423 28.2582 4.92578 27.6926 5.41696 27.1698L6.14477 26.3952C6.32881 26.1993 6.52803 26.0178 6.74047 25.8524L6.97115 25.6728C7.1464 25.5364 7.33738 25.4214 7.53965 25.3305L7.72049 25.2493C7.89943 25.1689 8.09055 25.1212 8.28423 25.1084L8.32941 25.1055C8.56579 25.09 8.79983 25.1336 9.00969 25.2324C9.11169 25.2803 9.20677 25.3408 9.2928 25.4123L9.47709 25.5655C9.56283 25.6368 9.62707 25.7298 9.66337 25.8353C9.69905 25.939 9.7065 26.0511 9.685 26.1607Z" fill="black" stroke="black"/>
<path d="M9.35451 26.0892C9.30396 25.7984 9.10665 25.5586 8.82994 25.4515L8.70258 25.4022C8.65603 25.3842 8.60741 25.3713 8.55759 25.3638C8.39011 25.3385 8.2165 25.3748 8.06946 25.466L7.90519 25.5678C7.51321 25.8108 7.13827 26.0805 6.78326 26.3748L6.69894 26.4447L6.27765 26.835L5.85636 27.2252L5.6163 27.4242C5.36652 27.6313 5.15297 27.8777 4.98499 28.1526L4.73114 28.5681" stroke="white" stroke-opacity="0.22" stroke-width="1.2" stroke-linecap="round"/>
<path d="M41.2849 28.8747C41.3909 28.5956 41.6306 28.3889 41.9222 28.3249L42.0602 28.2946C42.1095 28.2838 42.1599 28.2783 42.2103 28.2783C42.3804 28.2783 42.5447 28.3402 42.6725 28.4523L42.814 28.5765C43.1533 28.8743 43.4709 29.1961 43.7642 29.5393L43.8334 29.6201L44.1731 30.0674L44.5129 30.5147L44.7118 30.7474C44.9175 30.988 45.0801 31.2624 45.1925 31.5583L45.3624 32.0056" stroke="white" stroke-opacity="0.22" stroke-width="1.2" stroke-linecap="round"/>
<path d="M145.285 45.3231L142.73 44.2842C142.156 44.0508 141.537 43.9413 140.918 43.9642L135.039 44.1815C134.785 44.1909 134.534 44.2448 134.298 44.3407L133.653 44.6029C132.553 45.05 132.239 46.4578 133.044 47.3304C133.241 47.5446 133.49 47.7044 133.767 47.7945L134.881 48.1569C136.003 48.5219 136.52 49.2461 135.779 50.1648C135.562 50.4341 135.299 50.7496 134.982 51.1184C132.719 53.163 144.353 54.0628 148.572 54.5242C148.893 54.5592 149.212 54.4957 149.495 54.3396L150.175 53.9635C151.552 53.2018 150.974 50.5216 149.415 50.3044C148.273 50.1455 147.258 47.8142 146.745 46.7823C146.431 46.149 145.94 45.5894 145.285 45.3231Z" fill="#017A8B" fill-opacity="0.18"/>
<path d="M142.791 50.7762C142.256 50.7762 141.65 50.3958 141.65 50.3958V31.7578H143.933V50.3958C143.933 50.3958 143.327 50.7762 142.791 50.7762Z" fill="#346C5F" stroke="#346C5F"/>
<g filter="url(#filter0_i_91_4814)">
<path d="M135.376 21.1157L135.449 21.5541C135.524 22.0057 135.738 22.4225 136.062 22.7462C136.474 23.1581 137.033 23.3896 137.615 23.3896H137.847L136.325 24.1503L135.184 24.911C134.677 25.2914 133.587 26.1282 133.282 26.4325C133.11 26.6044 133.011 26.9464 132.958 27.28C132.887 27.7158 133.033 28.15 133.277 28.5173L133.523 28.8865C133.614 29.0223 133.744 29.1275 133.895 29.1882L134.046 29.2486C134.635 29.4839 134.669 30.3036 134.102 30.5869C134.063 30.6066 134.025 30.6298 133.99 30.6563L132.897 31.4764C132.652 31.6595 132.47 31.9128 132.373 32.2024C132.227 32.6418 132.291 33.1241 132.548 33.5095L132.762 33.8295C132.853 33.9673 132.98 34.0788 133.128 34.1529L134.165 34.6713C134.541 34.8594 134.502 35.4084 134.103 35.5413C134.063 35.5546 134.025 35.5731 133.99 35.5964L133.146 36.1591C132.984 36.2672 132.808 36.3533 132.623 36.415L132.492 36.4587C132.024 36.6148 131.637 36.9504 131.416 37.3918C131.154 37.9156 131.154 38.5322 131.416 39.056L131.497 39.2176C131.67 39.5635 131.93 39.8582 132.252 40.0727L132.902 40.5061L134.043 41.2669L134.509 41.4997C135.203 41.8469 135.969 42.0276 136.745 42.0276H138.252C138.489 42.0276 138.725 42.0444 138.959 42.0778L140.918 42.3577C141.152 42.3912 141.389 42.408 141.625 42.408H143.197C143.433 42.408 143.669 42.3912 143.903 42.3578L146.215 42.0276C147.193 41.8878 147.888 41.7426 148.366 41.6142C148.98 41.4491 149.558 41.1381 150.143 40.8875L151.293 40.3948C151.707 40.217 152.084 39.9619 152.403 39.6429L152.904 39.1422C153.248 38.7978 153.442 38.3306 153.442 37.8435C153.442 37.3564 153.248 36.8893 152.904 36.5449L152.681 36.3221L151.934 35.5749C151.682 35.3226 151.339 35.181 150.983 35.181H150.176C149.879 35.181 149.638 34.9401 149.638 34.643C149.638 34.5004 149.695 34.3636 149.796 34.2627L150.458 33.6003C150.671 33.3876 150.848 33.1419 150.982 32.8728L151.381 32.0755C151.487 31.8639 151.577 31.645 151.652 31.4206L151.92 30.6166C152.225 29.7037 151.286 29.2219 150.779 29.0951L149.798 28.768C149.268 28.5915 149.174 27.8832 149.638 27.5736C150.192 27.2043 150.494 26.8163 150.646 26.5117C150.788 26.2248 150.74 25.8949 150.662 25.584L150.601 25.3395C150.469 24.8103 150.195 24.3269 149.809 23.9411L149.456 23.5875C149.326 23.4577 149.165 23.3631 148.989 23.3127L148.538 23.184C147.801 22.9732 147.67 21.9838 148.328 21.5892C148.439 21.5224 148.534 21.4317 148.606 21.3237L149.023 20.6986C149.179 20.4646 149.31 20.215 149.415 19.9538C149.802 18.9851 149.802 17.9045 149.415 16.9358L149.385 16.8603C149.3 16.6491 149.199 16.4449 149.082 16.2498L148.679 15.5778C148.312 14.966 147.778 14.4716 147.14 14.1526C146.779 13.9723 146.392 13.8513 145.992 13.7943L144.698 13.6094C144.191 13.5369 143.675 13.5429 143.169 13.6272L142.037 13.8159C141.78 13.8588 141.526 13.9218 141.278 14.0044L139.889 14.4675C139.543 14.5829 139.21 14.7358 138.897 14.9235L138.538 15.1391C137.834 15.5613 137.245 16.1503 136.823 16.8541L136.325 17.684L135.705 18.924C135.366 19.6014 135.251 20.3687 135.376 21.1157Z" fill="#67AD15"/>
</g>
<path d="M138.607 23.3896H137.847M137.847 23.3896H137.615C137.033 23.3896 136.474 23.1581 136.062 22.7462C135.738 22.4225 135.524 22.0057 135.449 21.5541L135.376 21.1157C135.251 20.3687 135.366 19.6014 135.705 18.924L136.325 17.684L136.823 16.8541C137.245 16.1503 137.834 15.5613 138.538 15.1391L138.897 14.9235C139.21 14.7358 139.543 14.5829 139.889 14.4675L141.278 14.0044C141.526 13.9218 141.78 13.8588 142.037 13.8159L143.169 13.6272C143.675 13.5429 144.191 13.5369 144.698 13.6094L145.992 13.7943C146.392 13.8513 146.779 13.9723 147.14 14.1526C147.778 14.4716 148.312 14.966 148.679 15.5778L149.082 16.2498C149.199 16.4449 149.3 16.6491 149.385 16.8603L149.415 16.9358C149.802 17.9045 149.802 18.9851 149.415 19.9538C149.31 20.215 149.179 20.4646 149.023 20.6986L148.606 21.3237C148.534 21.4317 148.439 21.5224 148.328 21.5892C147.67 21.9838 147.801 22.9732 148.538 23.184L148.989 23.3127C149.165 23.3631 149.326 23.4577 149.456 23.5875L149.809 23.9411C150.195 24.3269 150.469 24.8103 150.601 25.3395L150.662 25.584C150.74 25.8949 150.788 26.2248 150.646 26.5117C150.494 26.8163 150.192 27.2043 149.638 27.5736C149.174 27.8832 149.268 28.5915 149.798 28.768L150.779 29.0951C151.286 29.2219 152.225 29.7037 151.92 30.6166C151.797 30.9873 151.711 31.2451 151.652 31.4206C151.577 31.645 151.487 31.8639 151.381 32.0755L150.982 32.8728C150.848 33.1419 150.671 33.3876 150.458 33.6003L149.796 34.2627C149.695 34.3636 149.638 34.5004 149.638 34.643C149.638 34.9401 149.879 35.181 150.176 35.181H150.983C151.339 35.181 151.682 35.3226 151.934 35.5748L152.681 36.3221L152.904 36.5449C153.248 36.8893 153.442 37.3564 153.442 37.8435C153.442 38.3306 153.248 38.7978 152.904 39.1422L152.403 39.6429C152.084 39.9619 151.707 40.217 151.293 40.3948L150.143 40.8875C149.558 41.1381 148.98 41.4491 148.366 41.6142C147.888 41.7426 147.193 41.8878 146.215 42.0276C144.969 42.2056 144.269 42.3055 143.903 42.3578C143.669 42.3912 143.433 42.408 143.197 42.408H141.625C141.389 42.408 141.152 42.3912 140.918 42.3577L138.959 42.0778C138.725 42.0444 138.489 42.0276 138.252 42.0276H136.745C135.969 42.0276 135.203 41.8469 134.509 41.4997L134.043 41.2669L132.902 40.5061L132.252 40.0727C131.93 39.8582 131.67 39.5635 131.497 39.2176L131.416 39.056C131.154 38.5322 131.154 37.9156 131.416 37.3918C131.637 36.9504 132.024 36.6148 132.492 36.4587L132.623 36.415C132.808 36.3533 132.984 36.2672 133.146 36.1591L133.99 35.5964C134.025 35.5731 134.063 35.5546 134.103 35.5413C134.502 35.4084 134.541 34.8594 134.165 34.6713L133.128 34.1529C132.98 34.0788 132.853 33.9673 132.762 33.8295L132.548 33.5095C132.291 33.1241 132.227 32.6418 132.373 32.2024C132.47 31.9128 132.652 31.6595 132.897 31.4764L133.99 30.6563C134.025 30.6298 134.063 30.6066 134.102 30.5869C134.669 30.3037 134.635 29.4839 134.046 29.2486L133.895 29.1882C133.744 29.1275 133.614 29.0223 133.523 28.8865L133.277 28.5173C133.033 28.15 132.887 27.7158 132.958 27.28C133.011 26.9464 133.11 26.6044 133.282 26.4325C133.587 26.1282 134.677 25.2914 135.184 24.911L136.325 24.1503L137.847 23.3896Z" stroke="#53A934"/>
<defs>
<filter id="filter0_i_91_4814" x="130.72" y="13.0591" width="23.2219" height="33.8489" filterUnits="userSpaceOnUse" color-interpolation-filters="sRGB">
<feFlood flood-opacity="0" result="BackgroundImageFix"/>
<feBlend mode="normal" in="SourceGraphic" in2="BackgroundImageFix" result="shape"/>
<feColorMatrix in="SourceAlpha" type="matrix" values="0 0 0 0 0 0 0 0 0 0 0 0 0 0 0 0 0 0 127 0" result="hardAlpha"/>
<feOffset dy="4"/>
<feGaussianBlur stdDeviation="2"/>
<feComposite in2="hardAlpha" operator="arithmetic" k2="-1" k3="1"/>
<feColorMatrix type="matrix" values="0 0 0 0 0.32549 0 0 0 0 0.662745 0 0 0 0 0.203922 0 0 0 1 0"/>
<feBlend mode="normal" in2="shape" result="effect1_innerShadow_91_4814"/>
</filter>
</defs>
</svg>
