<svg width="464" height="455" viewBox="0 0 464 455" fill="none" xmlns="http://www.w3.org/2000/svg">
<g filter="url(#filter0_d_112_1812)">
<path d="M17.6001 13.6001H445.6V412.6C445.6 423.646 436.646 432.6 425.6 432.6H37.6001C26.5544 432.6 17.6001 423.646 17.6001 412.6V13.6001Z" fill="url(#paint0_linear_112_1812)" shape-rendering="crispEdges"/>
</g>
<path fill-rule="evenodd" clip-rule="evenodd" d="M17.5996 104.758H23.5996C29.5996 104.758 41.5996 104.758 53.5996 97.7581C65.5996 91.7581 76.5996 78.7581 88.5996 78.7581C100.6 78.7581 112.6 91.7581 124.6 91.7581C136.6 91.7581 148.6 78.7581 160.6 69.7581C172.6 61.7581 183.6 57.7581 195.6 63.7581C207.6 69.7581 219.6 87.7581 231.6 95.7581C243.6 104.758 255.6 104.758 267.6 93.7581C279.6 82.7581 290.6 61.7581 302.6 46.7581C314.6 31.7581 326.6 23.7581 338.6 31.7581C350.6 40.7581 362.6 65.7581 374.6 72.7581C386.6 78.7581 397.6 65.7581 409.6 63.7581C421.6 61.7581 433.6 69.7581 439.6 74.7581L445.6 78.7581V142.758H439.6C433.6 142.758 421.6 142.758 409.6 142.758C397.6 142.758 386.6 142.758 374.6 142.758C362.6 142.758 350.6 142.758 338.6 142.758C326.6 142.758 314.6 142.758 302.6 142.758C290.6 142.758 279.6 142.758 267.6 142.758C255.6 142.758 243.6 142.758 231.6 142.758C219.6 142.758 207.6 142.758 195.6 142.758C183.6 142.758 172.6 142.758 160.6 142.758C148.6 142.758 136.6 142.758 124.6 142.758C112.6 142.758 100.6 142.758 88.5996 142.758C76.5996 142.758 65.5996 142.758 53.5996 142.758C41.5996 142.758 29.5996 142.758 23.5996 142.758H17.5996V104.758Z" fill="white" fill-opacity="0.5"/>
<path fill-rule="evenodd" clip-rule="evenodd" d="M173.882 171.153C156.27 155.594 215.276 127.03 215.276 127.03C218.906 127.03 226.167 127.03 233.427 118.902C240.687 111.935 247.343 96.8405 254.603 96.8405C261.863 96.8405 269.124 111.935 276.384 111.935C283.645 111.935 290.905 96.8405 298.165 86.3902C305.426 77.1011 312.081 72.4565 319.342 79.4234C326.602 86.3902 333.862 107.291 341.123 116.58C348.383 127.03 355.643 127.03 362.904 114.258C370.164 101.485 376.82 77.1011 384.08 59.684C391.34 42.2669 398.601 32.9778 405.861 42.2669C413.122 52.7172 420.382 81.7457 427.642 89.8736C434.903 96.8405 438.339 82.4224 445.6 80.1001C445.6 82.1001 445.6 101.6 445.6 101.6V117.1V171.153C452.86 171.153 441.969 171.153 445.6 171.153C438.339 171.153 434.903 171.153 427.642 171.153C420.382 171.153 413.122 171.153 405.861 171.153C398.601 171.153 391.34 171.153 384.08 171.153C376.82 171.153 370.164 171.153 362.904 171.153C355.643 171.153 348.383 171.153 341.123 171.153C333.862 171.153 326.602 171.153 319.342 171.153C312.081 171.153 305.426 171.153 298.165 171.153C290.905 171.153 283.645 171.153 276.384 171.153C269.124 171.153 261.863 171.153 254.603 171.153C247.343 171.153 240.687 171.153 233.427 171.153C226.167 171.153 218.906 171.153 215.276 171.153H211.646C211.646 171.153 185.206 181.159 173.882 171.153Z" fill="#088FA2" fill-opacity="0.11"/>
<path fill-rule="evenodd" clip-rule="evenodd" d="M233.317 169.153C250.93 153.593 191.923 125.03 191.923 125.03C188.293 125.03 181.033 125.03 173.772 116.902C166.512 109.935 159.856 94.8404 152.596 94.8404C145.336 94.8404 138.075 109.935 130.815 109.935C123.555 109.935 116.294 94.8404 109.034 84.3901C101.773 75.101 95.118 70.4564 87.8577 77.4233C80.5973 84.3901 73.3369 105.291 66.0765 114.58C58.8161 125.03 51.5557 125.03 44.2953 112.257C37.035 99.4849 30.3796 75.101 23.1192 57.6839C19.0996 40.1001 17.5996 39.1001 17.5996 39.1001V55.6001C17.5996 61.6001 17.5996 96.6001 17.5996 91.1001C17.5996 84.6001 17.5996 116.6 17.5996 116.6V142.6V169.153C24.86 169.153 15.8588 169.153 23.1192 169.153C30.3796 169.153 37.035 169.153 44.2953 169.153C51.5557 169.153 58.8161 169.153 66.0765 169.153C73.3369 169.153 80.5973 169.153 87.8577 169.153C95.118 169.153 101.773 169.153 109.034 169.153C116.294 169.153 123.555 169.153 130.815 169.153C138.075 169.153 145.336 169.153 152.596 169.153C159.856 169.153 166.512 169.153 173.772 169.153C181.033 169.153 188.293 169.153 191.923 169.153H195.553C195.553 169.153 221.993 179.158 233.317 169.153Z" fill="#088FA2" fill-opacity="0.11"/>
<path d="M57.8337 178.1H94.2084C99.7927 178.1 105.367 178.568 110.873 179.498L370.749 223.421C380.948 225.145 390.136 230.612 396.516 238.752C407.84 253.2 408.336 273.369 397.736 288.356L394.279 293.243C389.407 300.132 387.799 308.811 389.882 316.988C394.835 336.431 378.889 354.856 358.936 352.744L318.736 348.49C310.093 347.576 301.356 348.652 293.193 351.636L233.358 373.511C220.103 378.357 205.44 377.557 192.79 371.297L175.581 362.782C168.549 359.302 164.1 352.135 164.1 344.29C164.1 337.31 160.571 330.804 154.721 326.997L145.298 320.864C137.099 315.528 127.274 313.271 117.568 314.493L87.5119 318.278C75.6149 319.776 65.0996 310.502 65.0996 298.511C65.0996 290.403 60.1865 283.104 52.6751 280.053L39.5312 274.713C35.4163 273.041 32.1435 269.79 30.4453 265.685C28.3515 260.626 28.8894 254.858 31.8827 250.273L42.8354 233.494C47.5698 226.242 47.6619 216.9 43.0715 209.555L41.6555 207.29C36.717 199.388 38.2089 189.075 45.1843 182.897C48.6733 179.806 53.1729 178.1 57.8337 178.1Z" fill="#039CB0" fill-opacity="0.21"/>
<g filter="url(#filter1_d_112_1812)">
<path d="M92.5996 247.315V236.135L350.055 239.862L350.6 238.797V249.266L219.512 320.246L92.5996 247.315Z" fill="#048293"/>
<path d="M87.3788 209.612C86.3441 209.612 85.1743 208.877 85.1743 208.877V172.871H89.5832V208.877C89.5832 208.877 88.4134 209.612 87.3788 209.612Z" fill="#346C5F" stroke="#346C5F"/>
<g filter="url(#filter2_i_112_1812)">
<path d="M72.9499 151.696L73.1938 153.16C73.3392 154.032 73.7536 154.837 74.379 155.462C75.1748 156.258 76.2541 156.705 77.3796 156.705H77.8263L74.887 158.175L72.6826 159.645C71.7028 160.379 69.5964 161.996 69.0085 162.584C68.6764 162.916 68.485 163.577 68.3813 164.221C68.2459 165.063 68.5261 165.902 68.9991 166.611L69.4747 167.325C69.6496 167.587 69.9001 167.79 70.193 167.907L70.485 168.024C71.6212 168.479 71.6871 170.062 70.5925 170.61C70.5164 170.648 70.4439 170.693 70.3758 170.744L68.2634 172.328C67.7916 172.682 67.439 173.171 67.2525 173.731C66.9695 174.579 67.0943 175.511 67.5906 176.256L68.0027 176.874C68.1803 177.14 68.4243 177.356 68.7106 177.499L70.7134 178.5C71.4401 178.863 71.3647 179.924 70.594 180.181C70.5171 180.206 70.444 180.242 70.3765 180.287L68.7461 181.374C68.4325 181.583 68.0926 181.749 67.7351 181.869L67.4818 181.953C66.5773 182.255 65.8297 182.903 65.4034 183.756C64.8974 184.768 64.8974 185.959 65.4034 186.971L65.5594 187.283C65.8935 187.951 66.3962 188.52 67.0177 188.935L68.2737 189.772L70.4781 191.242L72.3617 192.184C73.056 192.531 73.8215 192.711 74.5978 192.711H78.9406C79.1772 192.711 79.4135 192.728 79.6477 192.762L84.0879 193.396C84.3221 193.429 84.5584 193.446 84.795 193.446H88.4932C88.7298 193.446 88.9654 193.429 89.1997 193.396L93.9923 192.711C96.5822 192.341 98.1437 191.952 99.0063 191.653C99.6074 191.445 100.171 191.113 100.756 190.862L104.129 189.417C104.714 189.166 105.246 188.806 105.695 188.356L106.915 187.137C107.58 186.472 107.954 185.569 107.954 184.628C107.954 183.687 107.58 182.785 106.915 182.12L106.484 181.689L105.041 180.246C104.553 179.758 103.893 179.485 103.204 179.485H101.645C101.071 179.485 100.606 179.019 100.606 178.445C100.606 178.17 100.715 177.906 100.91 177.711L102.236 176.384C102.616 176.004 102.933 175.566 103.173 175.085L104.121 173.189C104.227 172.978 104.317 172.759 104.392 172.535L105.015 170.667C105.602 168.903 103.79 167.973 102.81 167.728L100.915 167.096C99.8917 166.755 99.7084 165.386 100.606 164.788C101.861 163.952 102.446 163.065 102.679 162.447C102.823 162.065 102.76 161.649 102.661 161.252L102.411 160.253C102.191 159.374 101.737 158.571 101.096 157.931L100.253 157.088C100.002 156.837 99.6919 156.654 99.351 156.557L98.4807 156.308C97.0558 155.901 96.8039 153.99 98.0746 153.227C98.2896 153.098 98.4733 152.923 98.6124 152.714L99.582 151.26C99.774 150.972 99.9356 150.665 100.064 150.343L100.598 149.01C101.074 147.818 101.074 146.488 100.598 145.296L100.02 143.851C99.9206 143.603 99.8019 143.364 99.6647 143.135L98.4155 141.053C97.9262 140.238 97.2146 139.579 96.3641 139.153L95.4528 138.698C94.9722 138.457 94.4559 138.296 93.9239 138.22L90.3493 137.71C89.8417 137.637 89.326 137.643 88.8202 137.727L85.5615 138.27C85.3039 138.313 85.05 138.376 84.8023 138.459L81.2863 139.631C80.9402 139.746 80.6078 139.899 80.2949 140.087L78.1634 141.366C77.4596 141.788 76.8706 142.377 76.4484 143.081L74.887 145.683L73.4097 148.638C72.9372 149.583 72.7762 150.653 72.9499 151.696Z" fill="#67AD15"/>
</g>
<path d="M79.2959 156.705H77.8263M77.8263 156.705H77.3796C76.2541 156.705 75.1748 156.258 74.379 155.462C73.7536 154.837 73.3392 154.032 73.1938 153.16L72.9499 151.696C72.7762 150.653 72.9372 149.583 73.4097 148.638L74.887 145.683L76.4484 143.081C76.8706 142.377 77.4596 141.788 78.1634 141.366L80.2949 140.087C80.6078 139.899 80.9402 139.746 81.2863 139.631L84.8023 138.459C85.05 138.376 85.3039 138.313 85.5615 138.27L88.8202 137.727C89.326 137.643 89.8417 137.637 90.3493 137.71L93.9239 138.22C94.4559 138.296 94.9722 138.457 95.4528 138.698L96.3641 139.153C97.2146 139.579 97.9262 140.238 98.4155 141.053L99.6647 143.135C99.8019 143.364 99.9206 143.603 100.02 143.851L100.598 145.296C101.074 146.488 101.074 147.818 100.598 149.01L100.064 150.343C99.9356 150.665 99.774 150.972 99.582 151.26L98.6125 152.714C98.4733 152.923 98.2896 153.098 98.0746 153.227C96.8039 153.99 97.0558 155.901 98.4807 156.308L99.351 156.557C99.6919 156.654 100.002 156.837 100.253 157.088L101.096 157.931C101.737 158.571 102.191 159.374 102.411 160.253L102.661 161.252C102.76 161.649 102.823 162.065 102.679 162.447C102.446 163.065 101.861 163.952 100.606 164.788C99.7084 165.386 99.8917 166.755 100.915 167.096L102.81 167.728C103.79 167.973 105.602 168.903 105.015 170.667C104.687 171.649 104.497 172.221 104.392 172.535C104.317 172.759 104.227 172.978 104.121 173.189L103.173 175.085C102.933 175.566 102.616 176.004 102.236 176.384L100.91 177.711C100.715 177.906 100.606 178.17 100.606 178.445C100.606 179.019 101.071 179.485 101.645 179.485H103.204C103.893 179.485 104.553 179.758 105.041 180.246L106.484 181.689L106.915 182.12C107.58 182.785 107.954 183.687 107.954 184.628C107.954 185.569 107.58 186.472 106.915 187.137L105.695 188.356C105.246 188.806 104.714 189.166 104.129 189.417L100.756 190.862C100.171 191.113 99.6074 191.445 99.0063 191.653C98.1437 191.952 96.5822 192.341 93.9923 192.711C91.1418 193.119 89.7722 193.314 89.1997 193.396C88.9654 193.429 88.7298 193.446 88.4932 193.446H84.795C84.5584 193.446 84.3221 193.429 84.0879 193.396L79.6477 192.762C79.4135 192.728 79.1772 192.711 78.9406 192.711H74.5978C73.8215 192.711 73.056 192.531 72.3617 192.184L70.4781 191.242L68.2737 189.772L67.0177 188.935C66.3962 188.52 65.8935 187.951 65.5594 187.283L65.4034 186.971C64.8974 185.959 64.8974 184.768 65.4034 183.756C65.8297 182.903 66.5773 182.255 67.4818 181.953L67.7351 181.869C68.0926 181.749 68.4325 181.583 68.7461 181.374L70.3765 180.287C70.444 180.242 70.5171 180.206 70.594 180.181C71.3647 179.924 71.4401 178.863 70.7134 178.5L68.7106 177.499C68.4243 177.356 68.1803 177.14 68.0027 176.874L67.5906 176.256C67.0943 175.511 66.9695 174.579 67.2525 173.731C67.439 173.171 67.7916 172.682 68.2634 172.328L70.3758 170.744C70.4439 170.693 70.5164 170.648 70.5925 170.61C71.6871 170.062 71.6212 168.479 70.485 168.024L70.193 167.907C69.9001 167.79 69.6496 167.587 69.4747 167.325L68.9991 166.611C68.5261 165.902 68.2459 165.063 68.3813 164.221C68.485 163.577 68.6764 162.916 69.0085 162.584C69.5964 161.996 71.7028 160.379 72.6826 159.645L74.887 158.175L77.8263 156.705Z" stroke="#53A934"/>
<path d="M73.5164 206.623L79.5976 203.583C80.3606 203.201 81.2128 203.019 82.065 203.058L95.8715 203.685C96.5703 203.717 97.2548 203.895 97.8805 204.208L98.9536 204.745C101.727 206.131 102.567 209.691 100.707 212.171C100.16 212.901 99.4231 213.465 98.5768 213.804L94.6073 215.392C93.2812 215.922 92.3801 216.848 93.0903 218.087C93.6752 219.108 94.6479 220.626 96.1966 222.839C100.877 228.04 89.4159 231.707 80.944 233.331C79.0457 233.695 77.1425 232.836 76.0703 231.227L72.3054 225.58C71.2429 223.986 69.6603 223.657 71.0148 222.302C73.2235 220.093 73.9424 214.06 72.1205 211.523C72.0453 211.418 71.9727 211.313 71.9027 211.209C70.799 209.559 71.7411 207.511 73.5164 206.623Z" fill="#017A8B" fill-opacity="0.18"/>
<path d="M350.6 238.62V237.022L346.968 196.742L346.424 194.612L344.971 193.37L295.223 165.866L238.939 143.507L230.405 140.491L228.045 139.781L225.685 139.603L223.688 139.781L220.419 140.491L215.699 142.265L98.5912 192.838L97.5018 193.548L97.1387 194.79L92.5996 235.958L92.7812 237.2L93.689 238.265L156.873 274.464L200.811 299.129L221.872 310.486L246.02 297.355L275.978 280.852L299.944 267.544L315.74 258.849L332.807 249.621L344.063 243.233L348.239 240.926L349.873 239.862L350.6 238.62Z" fill="#01A9BF"/>
<path d="M356.379 235.612C355.344 235.612 354.174 234.877 354.174 234.877V198.871H358.583V234.877C358.583 234.877 357.413 235.612 356.379 235.612Z" fill="#346C5F" stroke="#346C5F"/>
<g filter="url(#filter3_i_112_1812)">
<path d="M341.95 177.696L342.194 179.16C342.339 180.032 342.754 180.837 343.379 181.462C344.175 182.258 345.254 182.705 346.38 182.705H346.826L343.887 184.175L341.683 185.645C340.703 186.379 338.596 187.996 338.009 188.584C337.676 188.916 337.485 189.577 337.381 190.221C337.246 191.063 337.526 191.902 337.999 192.611L338.475 193.325C338.65 193.587 338.9 193.79 339.193 193.907L339.485 194.024C340.621 194.479 340.687 196.062 339.593 196.61C339.516 196.648 339.444 196.693 339.376 196.744L337.263 198.328C336.792 198.682 336.439 199.171 336.252 199.731C335.97 200.579 336.094 201.511 336.591 202.256L337.003 202.874C337.18 203.14 337.424 203.356 337.711 203.499L339.713 204.5C340.44 204.863 340.365 205.924 339.594 206.181C339.517 206.206 339.444 206.242 339.377 206.287L337.746 207.374C337.433 207.583 337.093 207.749 336.735 207.869L336.482 207.953C335.577 208.255 334.83 208.903 334.403 209.756C333.897 210.768 333.897 211.959 334.403 212.971L334.559 213.283C334.894 213.951 335.396 214.52 336.018 214.935L337.274 215.772L339.478 217.242L341.362 218.184C342.056 218.531 342.822 218.711 343.598 218.711H347.941C348.177 218.711 348.413 218.728 348.648 218.762L353.088 219.396C353.322 219.429 353.558 219.446 353.795 219.446H357.493C357.73 219.446 357.965 219.429 358.2 219.396L362.992 218.711C365.582 218.341 367.144 217.952 368.006 217.653C368.607 217.445 369.171 217.113 369.756 216.862L373.129 215.417C373.714 215.166 374.246 214.806 374.695 214.356L375.915 213.137C376.58 212.472 376.954 211.569 376.954 210.628C376.954 209.687 376.58 208.785 375.915 208.12L375.484 207.689L374.041 206.246C373.553 205.758 372.893 205.485 372.204 205.485H370.645C370.071 205.485 369.606 205.019 369.606 204.445C369.606 204.17 369.715 203.906 369.91 203.711L371.236 202.384C371.616 202.004 371.933 201.566 372.173 201.085L373.121 199.189C373.227 198.978 373.317 198.759 373.392 198.535L374.015 196.667C374.602 194.903 372.79 193.973 371.81 193.728L369.915 193.096C368.892 192.755 368.708 191.386 369.606 190.788C370.861 189.952 371.446 189.065 371.679 188.447C371.823 188.065 371.76 187.649 371.661 187.252L371.411 186.253C371.191 185.374 370.737 184.571 370.096 183.931L369.253 183.088C369.002 182.837 368.692 182.654 368.351 182.557L367.481 182.308C366.056 181.901 365.804 179.99 367.075 179.227C367.29 179.098 367.473 178.923 367.612 178.714L368.582 177.26C368.774 176.972 368.936 176.665 369.064 176.343L369.598 175.01C370.074 173.818 370.074 172.488 369.598 171.296L369.02 169.851C368.921 169.603 368.802 169.364 368.665 169.135L367.415 167.053C366.926 166.238 366.215 165.579 365.364 165.153L364.453 164.698C363.972 164.457 363.456 164.296 362.924 164.22L359.349 163.71C358.842 163.637 358.326 163.643 357.82 163.727L354.561 164.27C354.304 164.313 354.05 164.376 353.802 164.459L350.286 165.631C349.94 165.746 349.608 165.899 349.295 166.087L347.163 167.366C346.46 167.788 345.871 168.377 345.448 169.081L343.887 171.683L342.41 174.638C341.937 175.583 341.776 176.653 341.95 177.696Z" fill="#67AD15"/>
</g>
<path d="M348.296 182.705H346.826M346.826 182.705H346.38C345.254 182.705 344.175 182.258 343.379 181.462C342.754 180.837 342.339 180.032 342.194 179.16L341.95 177.696C341.776 176.653 341.937 175.583 342.41 174.638L343.887 171.683L345.448 169.081C345.871 168.377 346.46 167.788 347.163 167.366L349.295 166.087C349.608 165.899 349.94 165.746 350.286 165.631L353.802 164.459C354.05 164.376 354.304 164.313 354.561 164.27L357.82 163.727C358.326 163.643 358.842 163.637 359.349 163.71L362.924 164.22C363.456 164.296 363.972 164.457 364.453 164.698L365.364 165.153C366.215 165.579 366.926 166.238 367.415 167.053L368.665 169.135C368.802 169.364 368.921 169.603 369.02 169.851L369.598 171.296C370.074 172.488 370.074 173.818 369.598 175.01L369.064 176.343C368.936 176.665 368.774 176.972 368.582 177.26L367.612 178.714C367.473 178.923 367.29 179.098 367.075 179.227C365.804 179.99 366.056 181.901 367.481 182.308L368.351 182.557C368.692 182.654 369.002 182.837 369.253 183.088L370.096 183.931C370.737 184.571 371.191 185.374 371.411 186.253L371.661 187.252C371.76 187.649 371.823 188.065 371.679 188.447C371.446 189.065 370.861 189.952 369.606 190.788C368.708 191.386 368.892 192.755 369.915 193.096L371.81 193.728C372.79 193.973 374.602 194.903 374.015 196.667C373.687 197.649 373.497 198.221 373.392 198.535C373.317 198.759 373.227 198.978 373.121 199.189L372.173 201.085C371.933 201.566 371.616 202.004 371.236 202.384L369.91 203.711C369.715 203.906 369.606 204.17 369.606 204.445C369.606 205.019 370.071 205.485 370.645 205.485H372.204C372.893 205.485 373.553 205.758 374.041 206.246L375.484 207.689L375.915 208.12C376.58 208.785 376.954 209.687 376.954 210.628C376.954 211.569 376.58 212.472 375.915 213.137L374.695 214.356C374.246 214.806 373.714 215.166 373.129 215.417L369.756 216.862C369.171 217.113 368.607 217.445 368.006 217.653C367.144 217.952 365.582 218.341 362.992 218.711C360.142 219.119 358.772 219.314 358.2 219.396C357.965 219.429 357.73 219.446 357.493 219.446H353.795C353.558 219.446 353.322 219.429 353.088 219.396L348.648 218.762C348.413 218.728 348.177 218.711 347.941 218.711H343.598C342.822 218.711 342.056 218.531 341.362 218.184L339.478 217.242L337.274 215.772L336.018 214.935C335.396 214.52 334.894 213.951 334.559 213.283L334.403 212.971C333.897 211.959 333.897 210.768 334.403 209.756C334.83 208.903 335.577 208.255 336.482 207.953L336.735 207.869C337.093 207.749 337.433 207.583 337.746 207.374L339.377 206.287C339.444 206.242 339.517 206.206 339.594 206.181C340.365 205.924 340.44 204.863 339.713 204.5L337.711 203.499C337.424 203.356 337.18 203.14 337.003 202.874L336.591 202.256C336.094 201.511 335.97 200.579 336.252 199.731C336.439 199.171 336.792 198.682 337.263 198.328L339.376 196.744C339.444 196.693 339.516 196.648 339.593 196.61C340.687 196.062 340.621 194.479 339.485 194.024L339.193 193.907C338.9 193.79 338.65 193.587 338.475 193.325L337.999 192.611C337.526 191.902 337.246 191.063 337.381 190.221C337.485 189.577 337.676 188.916 338.009 188.584C338.596 187.996 340.703 186.379 341.683 185.645L343.887 184.175L346.826 182.705Z" stroke="#53A934"/>
<path d="M342.516 232.623L348.598 229.583C349.361 229.201 350.213 229.019 351.065 229.058L364.871 229.685C365.57 229.717 366.255 229.895 366.88 230.208L367.954 230.745C370.727 232.131 371.567 235.691 369.707 238.171C369.16 238.901 368.423 239.465 367.577 239.804L363.607 241.392C362.281 241.922 361.38 242.848 362.09 244.087C362.675 245.108 363.648 246.626 365.197 248.839C369.877 254.04 358.416 257.707 349.944 259.331C348.046 259.695 346.142 258.836 345.07 257.227L341.305 251.58C340.243 249.986 338.66 249.657 340.015 248.302C342.223 246.093 342.942 240.06 341.121 237.523C341.045 237.418 340.973 237.313 340.903 237.209C339.799 235.559 340.741 233.511 342.516 232.623Z" fill="#017A8B" fill-opacity="0.18"/>
<path d="M169.32 255.64L175.908 251.602L223.3 262.44L230.313 267.116L232.013 268.816L232.651 270.516V272.004L232.013 273.916L216.499 284.542L212.674 286.03H209.698L206.936 285.818L203.96 284.542L192.484 277.954L178.245 269.879L170.382 264.778L167.194 261.803V258.828L168.044 256.915L169.32 255.64Z" fill="#048293" stroke="#017A8B" stroke-opacity="0.77"/>
<path d="M173.733 197.516C174.724 197.288 175.946 197.094 176.971 197.197C179.63 197.463 177.614 202.927 176.825 204.834C176.646 205.268 176.545 205.728 176.545 206.197C176.545 206.841 176.355 207.471 175.997 208.007L175.559 208.664C175.367 208.953 175.15 209.223 174.91 209.474L174.294 210.115C171.635 212.885 170.068 216.523 169.883 220.358L169.7 224.161C169.452 229.305 170.734 234.407 173.383 238.823L177.608 245.864C180.687 250.342 184.718 254.084 189.412 256.823L199.376 262.635C199.877 262.927 200.315 263.317 200.662 263.781L202.382 266.074C203.821 267.992 202.452 270.729 200.054 270.729C199.826 270.729 199.598 270.702 199.375 270.648L196.814 270.034C195.207 269.648 193.641 269.105 192.14 268.412L192.074 268.381C189.949 267.401 187.967 266.136 186.181 264.623L180.871 260.123C177.853 257.566 175.102 254.71 172.658 251.6L172.318 251.167C170.323 248.629 168.566 245.913 167.068 243.053C165.456 239.976 164.152 236.746 163.175 233.413L162.992 232.788C161.689 228.344 160.912 223.763 160.675 219.139L160.606 217.811L160.763 215.695C160.941 213.293 161.461 210.928 162.307 208.673L163.772 205.863C164.492 204.484 165.396 203.209 166.46 202.074C167.512 200.953 168.71 199.978 170.021 199.176L170.216 199.057C171.316 198.385 172.477 197.806 173.733 197.516Z" fill="#348BDA"/>
<path d="M195.035 210.373L200.985 215.473C201.975 216.463 202.879 217.536 203.686 218.68L205.023 220.574C207.851 224.675 210.319 229.013 212.399 233.54L212.886 234.6C213.873 237.841 214.374 241.21 214.374 244.597V247.776L214.123 250.534C214.008 251.808 213.737 253.063 213.319 254.272L212.776 255.839C212.29 257.243 211.468 258.507 210.382 259.521C209.373 260.463 208.163 261.164 206.843 261.57L205.154 262.089C203.937 262.464 202.682 262.699 201.412 262.789L200.198 262.876C198.333 263.009 196.459 262.774 194.685 262.182C193.928 261.93 193.193 261.614 192.489 261.238L192.235 261.103C190.989 260.439 189.827 259.627 188.775 258.685L186.321 256.49C183.352 253.803 180.625 250.86 178.172 247.695L175.27 243.951L173.55 241.18C172.15 238.925 170.988 236.531 170.08 234.036L169.789 233.235C168.633 230.055 167.973 226.717 167.832 223.337L168.045 218.874L168.39 216.338C168.584 214.921 169.008 213.546 169.648 212.266C170.275 211.012 171.1 209.867 172.092 208.876L172.221 208.747C172.695 208.273 173.202 207.833 173.738 207.431L175.046 206.45C175.898 205.811 176.848 205.313 177.859 204.976C178.54 204.749 179.243 204.597 179.956 204.522L181.662 204.342C182.499 204.254 183.342 204.262 184.177 204.367C185.593 204.544 186.961 204.995 188.205 205.694L189.722 206.547L195.035 210.373Z" fill="#2683D6" stroke="#2683D6" stroke-width="2"/>
<path d="M274.714 169.939L277.865 169.405C278.045 169.374 278.229 169.435 278.356 169.567C278.489 169.706 278.686 169.765 278.874 169.723L279.854 169.505C280.29 169.408 280.744 169.437 281.163 169.59L283.035 170.271C285.013 170.992 286.683 172.371 287.763 174.179L289.297 176.746L290.925 179.955C291.582 181.25 291.753 182.738 291.407 184.149C290.741 186.864 288.307 188.773 285.511 188.773H279.881C278.491 188.773 277.457 190.056 277.751 191.414C277.982 192.475 277.396 193.547 276.368 193.896C274.959 194.374 273.386 194.859 272.86 194.859C272.695 194.859 272.506 194.811 272.305 194.731C270.862 194.154 269.286 193.673 267.864 194.299C267.041 194.661 266.118 194.723 265.255 194.476L263.057 193.848C261.759 193.476 260.677 192.576 260.077 191.366C259.286 189.771 259.442 187.869 260.484 186.425L261.343 185.233C261.865 184.508 262.518 183.886 263.268 183.399L265.762 181.777C267.694 180.521 268.949 178.452 269.169 176.158L269.192 175.917C269.313 174.66 269.786 173.462 270.556 172.461L270.586 172.421C271.6 171.103 273.074 170.216 274.714 169.939Z" fill="#017A8B" fill-opacity="0.5"/>
<path d="M178.011 216.267L178.106 216.204C179.028 215.589 180.112 215.261 181.221 215.261H182.264C183.686 215.261 185.102 215.465 186.466 215.866C187.5 216.17 188.498 216.585 189.442 217.104L189.864 217.337C191.461 218.215 192.926 219.315 194.215 220.604L195.885 222.274C198.289 225.103 200.458 228.124 202.368 231.308L202.685 231.837L203.863 234.455C204.352 235.542 204.756 236.665 205.069 237.815L205.19 238.258C205.643 239.921 205.873 241.637 205.873 243.36V244.246C205.873 245.46 205.704 246.668 205.371 247.836L205.092 248.809C204.767 249.949 204.202 251.007 203.436 251.913L203.408 251.946C202.652 252.839 201.712 253.56 200.653 254.058C199.34 254.676 197.885 254.933 196.44 254.801L195.606 254.726C194.522 254.627 193.459 254.372 192.449 253.968L190.996 253.387C190.148 253.047 189.328 252.641 188.544 252.171C187.21 251.37 185.991 250.392 184.921 249.262L182.708 246.926L179.521 242.676L177.667 239.498C176.921 238.219 176.281 236.879 175.756 235.494C174.73 232.791 174.149 229.939 174.033 227.05L173.995 226.099L174.124 224.036C174.18 223.148 174.34 222.269 174.602 221.418L174.645 221.278C174.919 220.388 175.313 219.539 175.817 218.756L176.294 218.013C176.74 217.319 177.325 216.725 178.011 216.267Z" fill="white"/>
<path d="M260.623 188.637L260.558 188.25C260.514 187.986 260.547 187.715 260.652 187.468C260.926 186.83 261.625 186.489 262.297 186.665L263.782 187.056C264.662 187.288 265.6 187.132 266.357 186.627L272.237 182.707C273.047 182.167 273.809 181.558 274.515 180.887L274.942 180.482C276.754 178.76 278.975 177.528 281.394 176.902L295.049 173.368C295.446 173.265 295.85 173.506 295.95 173.903C295.971 173.988 295.977 174.076 295.967 174.163L295.478 178.569C295.39 179.359 295.125 180.12 294.704 180.794C294.424 181.242 294.079 181.646 293.68 181.992L293.14 182.459C291.8 183.621 290.176 184.408 288.434 184.739L287.913 184.838C287.065 185 286.194 185.016 285.34 184.884C284.368 184.735 283.434 184.397 282.591 183.891L281.743 183.383L280.827 182.925C280.056 182.539 279.155 182.493 278.348 182.796C278.063 182.903 277.795 183.052 277.554 183.237L277.325 183.413C276.122 184.339 275.887 186.059 276.797 187.273L276.866 187.364C276.999 187.542 277.103 187.741 277.174 187.952C277.244 188.163 277.28 188.384 277.28 188.607V189.348C277.28 189.479 277.267 189.611 277.241 189.74L277.17 190.093C277.105 190.421 276.904 190.707 276.616 190.879C276.24 191.105 275.77 191.105 275.393 190.879L274.942 190.608L273.88 189.758L273.298 189.322C273.158 189.217 272.958 189.264 272.879 189.421C272.84 189.499 272.84 189.592 272.879 189.671L273.003 189.918C273.021 189.953 273.036 189.99 273.048 190.027L273.094 190.165C273.192 190.459 273.242 190.766 273.242 191.076V191.246L273.349 192.105C273.414 192.623 273.19 193.135 272.765 193.438C272.285 193.782 271.642 193.792 271.151 193.464L270.246 192.862C270.118 192.776 269.997 192.681 269.884 192.577L268.01 190.86C267.694 190.57 267.254 190.458 266.838 190.562C266.716 190.593 266.599 190.641 266.491 190.706L266.086 190.949C265.102 191.539 263.903 191.649 262.828 191.246L262.517 191.09C261.889 190.776 261.367 190.283 261.019 189.673L260.946 189.546C260.786 189.265 260.676 188.957 260.623 188.637Z" fill="#DBA12E" stroke="#DBA12E"/>
<path d="M212.461 199.534L210.761 193.159L209.911 191.459L206.511 185.933L205.023 184.02L203.535 182.32L199.285 178.707L196.947 177.007L193.972 175.945L191.422 175.519H188.446L187.596 176.37L186.321 177.857L185.684 180.195L185.471 185.508V188.271V189.333L185.259 192.309L182.283 194.646L178.458 195.496H176.12V191.033L176.545 182.108L176.758 178.92L177.82 175.094L179.733 172.332L183.133 168.719L187.384 167.231L192.697 166.806L197.16 167.231L203.535 170.632L209.486 175.519L214.586 182.108L217.562 187.846L219.899 192.734L220.962 198.259L221.174 202.722L221.812 208.673V214.411L220.749 216.536L216.499 217.599L213.524 215.686L211.824 212.498L212.461 199.534Z" fill="white" stroke="white"/>
<path d="M218.199 262.228L213.949 267.328L231.588 255.002C231.092 254.577 230.823 253.599 229.463 253.939C228.102 254.28 226.487 254.099 226.487 253.514C226.487 252.664 226.582 252.169 226.912 251.389C227.372 250.303 227.814 249.659 228.825 249.051C229.568 248.605 230.14 248.108 230.95 248.414C231.499 248.621 231.808 248.926 232.013 249.477C232.279 250.194 231.588 251.389 231.588 251.389L233.5 252.877L234.776 249.477L236.051 241.613L235.413 232.262L234.351 228.224L232.225 222.274L229.038 214.836L225.425 208.248L221.387 203.147V209.098L221.174 214.198C221.174 214.198 220.576 215.419 219.899 215.898C219.257 216.353 218.764 216.413 217.986 216.536C217.249 216.652 216.781 216.777 216.074 216.536C215.616 216.379 215.205 216.161 214.799 215.898C214.199 215.511 213.97 215.305 213.523 214.836L213.469 214.779C212.754 214.027 212.277 213.526 212.036 212.498C211.866 211.771 211.823 211.332 211.823 210.585C211.823 208.178 212.036 204.422 212.036 204.422V199.534L212.248 196.984L210.761 193.159L210.123 192.734L209.061 192.096L203.11 188.908L198.86 187.421L196.097 186.783H193.547L190.996 186.995L189.296 187.633L185.683 189.333V189.591C185.683 189.844 185.662 190.096 185.621 190.345L185.601 190.466C185.515 190.981 185.328 191.474 185.052 191.916C184.632 192.587 184.022 193.118 183.299 193.439L181.279 194.337C180.815 194.543 180.337 194.713 179.848 194.847L178.245 195.284L177.702 195.374C176.378 195.595 175.111 196.08 173.978 196.802L173.357 197.196L171.444 198.259C171.146 198.458 171.372 198.921 171.713 198.807L172.72 198.472L176.757 197.196L204.81 212.923L214.374 225.037L220.962 240.763L221.322 246.52C221.365 247.214 221.336 247.911 221.235 248.599L220.324 254.79L218.199 262.228Z" fill="#00529C" stroke="#00529C"/>
<path d="M263.041 185.295L265.166 183.808L275.443 176.495C275.888 176.178 276.037 175.584 275.792 175.094L275.649 174.714C275.322 173.841 275.155 172.917 275.155 171.985V171.944C275.155 171.214 275.261 170.489 275.471 169.791L275.51 169.66C275.697 169.036 275.976 168.443 276.337 167.901C276.819 167.178 277.439 166.558 278.162 166.076L278.94 165.558C279.391 165.257 279.866 164.995 280.362 164.775L280.431 164.744C281.161 164.42 281.93 164.194 282.719 164.073C283.76 163.913 284.821 163.937 285.854 164.143L286.418 164.256L287.973 164.774C288.635 164.995 289.278 165.271 289.894 165.6C291.387 166.396 292.701 167.487 293.757 168.808L293.856 168.931L294.366 169.611C295.277 170.825 295.769 172.302 295.769 173.819L295.617 174.958C295.438 176.301 294.909 177.572 294.084 178.645C293.512 179.389 292.801 180.027 292.002 180.519C290.992 181.14 289.843 181.531 288.662 181.649L287.447 181.771C286.622 181.853 285.79 181.846 284.966 181.749L283.408 181.566C282.87 181.503 282.351 181.329 281.883 181.056L280.863 180.461C280.351 180.162 279.723 180.142 279.192 180.407L278.338 180.906C277.21 181.564 276.153 182.335 275.183 183.208L274.708 183.635C274.601 183.732 274.587 183.896 274.677 184.01L277.07 187.041C277.432 187.5 277.393 188.157 276.98 188.571C276.764 188.787 276.47 188.908 276.165 188.908H275.995C275.723 188.908 275.455 188.837 275.219 188.702L274.506 188.295C274.244 188.145 273.929 188.123 273.65 188.235C273.275 188.385 273.029 188.748 273.029 189.151V190.518C273.029 191.127 272.491 191.594 271.888 191.508C271.664 191.476 271.457 191.369 271.302 191.204L269.225 188.997C268.604 188.337 267.592 188.238 266.855 188.765C266.721 188.86 266.576 188.937 266.421 188.993L265.623 189.283C264.776 189.591 263.851 189.603 262.997 189.319L262.413 189.124C261.992 188.984 261.627 188.714 261.369 188.353L261.106 187.985C260.855 187.633 260.8 187.178 260.961 186.777C261.069 186.506 261.267 186.281 261.522 186.139L263.041 185.295Z" fill="#F5B700" stroke="#F5B700"/>
<path d="M259.24 190.414L259.093 190.134C259.072 190.094 259.032 190.069 258.988 190.067C258.92 190.064 258.867 190.007 258.869 189.938L258.884 189.602C258.89 189.468 258.955 189.344 259.052 189.252C259.312 189.008 259.555 188.691 259.742 188.444C259.943 188.177 260.237 188.051 260.572 188.058C260.795 188.063 261.052 188.074 261.249 188.102C261.41 188.125 261.553 188.206 261.682 188.303L261.962 188.514C262.257 188.736 262.425 189.09 262.409 189.46C262.402 189.624 262.359 189.784 262.284 189.929L262.267 189.961C262.081 190.32 261.738 190.571 261.34 190.639L260.547 190.774C260.447 190.791 260.346 190.798 260.245 190.793L259.809 190.775C259.569 190.765 259.352 190.627 259.24 190.414Z" fill="#B1823B" stroke="#B1823B"/>
<path d="M286.917 171.694H286.259C285.97 171.694 285.71 171.87 285.603 172.138C285.464 172.485 285.079 172.664 284.724 172.546L284.55 172.488C284.258 172.391 284.035 172.151 283.961 171.852L283.938 171.76C283.892 171.578 283.895 171.386 283.947 171.205L284.063 170.798C284.211 170.281 284.55 169.84 285.011 169.563C285.239 169.427 285.49 169.334 285.753 169.29L286.035 169.243C286.43 169.177 286.832 169.177 287.227 169.243L287.709 169.323C287.84 169.345 287.968 169.381 288.091 169.43C288.642 169.651 289.054 170.122 289.198 170.698L289.289 171.063C289.357 171.336 289.341 171.622 289.242 171.885L289.058 172.376C288.891 172.821 288.396 173.046 287.951 172.88L287.418 172.68C287.225 172.607 287.137 172.383 287.229 172.198C287.345 171.967 287.176 171.694 286.917 171.694Z" fill="#A87E40" stroke="#A87E40"/>
<path d="M285.329 171.354L285.147 171.645C284.905 172.033 285 172.542 285.366 172.817C285.498 172.916 285.656 172.976 285.821 172.99L287.241 173.108C287.756 173.151 288.234 172.837 288.397 172.347L288.407 172.315C288.495 172.053 288.474 171.768 288.351 171.521C288.205 171.229 287.929 171.022 287.607 170.963L286.619 170.784C286.113 170.692 285.602 170.918 285.329 171.354Z" fill="#0ABED5" stroke="#0ABED5"/>
<path d="M228.187 250.964C228.642 250.42 229.186 250.226 229.887 250.327C230.147 250.364 230.525 250.752 230.525 250.752L231.163 251.177L231.375 251.389L231.588 250.964L231.8 250.327V249.689L231.375 248.839L230.525 248.626C230.313 248.626 229.632 248.796 228.612 249.477C228.187 249.689 227.762 250.327 227.762 250.327L227.337 251.177C227.337 251.177 226.821 252.044 226.7 252.664C226.588 253.234 226.388 253.662 226.7 254.152C226.826 254.35 226.923 254.458 227.125 254.577C227.63 254.875 228.612 254.365 228.612 254.365L229.462 253.939C229.462 253.939 228.886 253.613 228.612 253.302C228.195 252.827 227.762 252.027 227.762 252.027C227.762 252.027 227.901 251.307 228.187 250.964Z" fill="#003565" stroke="#003565"/>
<path d="M197.584 267.634V265.871C197.584 264.297 198.801 262.991 200.371 262.879L200.56 262.865C200.56 262.865 203.746 262.493 205.66 261.803C207.511 261.135 208.718 260.842 210.123 259.465C211.424 258.19 211.802 257.126 212.461 255.427C212.927 254.226 213.119 253.513 213.311 252.239C213.683 249.772 212.896 248.359 212.886 245.864C212.885 245.625 213.072 245.429 213.31 245.417L218.407 245.156C219.947 245.077 221.269 246.239 221.387 247.776L221.174 251.389C221.174 251.389 220.552 255.74 219.687 258.402C219.077 260.279 218.799 261.393 217.774 263.078C216.552 265.086 215.58 266.083 213.736 267.541C212.652 268.397 212.004 268.852 210.761 269.454C209.272 270.174 208.357 270.476 206.723 270.729C205.082 270.982 204.131 270.795 202.472 270.729C201.801 270.702 200.998 270.641 200.24 270.574C198.724 270.44 197.584 269.156 197.584 267.634Z" fill="#348BDA"/>
<path d="M229.25 251.814L233.067 254.557C235.033 255.971 237.282 256.942 239.658 257.406L241.184 257.704C243.516 258.159 245.932 257.898 248.114 256.956C251.847 255.344 254.486 251.922 255.095 247.901L255.178 247.351L255.22 246.975C256.039 239.598 256.035 232.153 255.207 224.777L254.715 220.389C254.316 216.835 254.212 213.253 254.405 209.682L254.811 202.175C254.913 200.285 255.316 198.423 256.004 196.66L257.398 193.089C258.023 191.487 259.194 190.157 260.704 189.333" stroke="url(#paint1_linear_112_1812)" stroke-width="7" stroke-linecap="round"/>
<path d="M192.909 211.648L196.097 203.997L192.272 201.447C190.076 200.455 185.556 198.387 185.046 198.047C184.536 197.707 179.308 197.338 176.758 197.197L176.333 205.697H179.308C180.937 205.91 184.833 206.675 187.384 208.035C189.934 209.395 192.13 211.01 192.909 211.648Z" fill="#2683D6"/>
<path d="M192.059 227.374L186.321 223.761L180.795 233.75L186.959 237.15L183.558 245.864L194.609 236.725L188.659 232.9L192.059 227.374Z" fill="#F5B700" stroke="#F5B700"/>
<path d="M179.521 215.686L179.034 216.01C178.678 216.247 178.885 216.801 179.308 216.748L180.103 216.635C180.564 216.569 181.03 216.536 181.496 216.536H181.724C182.378 216.536 183.029 216.616 183.663 216.774C184.159 216.898 184.642 217.07 185.105 217.286L187.596 218.448L189.969 219.872C190.511 220.197 191.021 220.573 191.492 220.995L194.058 223.29C194.566 223.745 195.026 224.25 195.432 224.799L198.435 228.862L200.985 232.9L202.45 236.155C202.748 236.816 202.973 237.509 203.12 238.219L203.75 241.242C203.89 241.913 203.96 242.596 203.96 243.281V245.345C203.96 245.973 203.901 246.599 203.784 247.216L203.533 248.531C203.255 249.993 202.632 251.36 201.813 252.603C201.411 253.214 201.137 253.697 201.41 253.514C201.559 253.415 203.545 252.376 203.7 252.289L204.124 252.054C204.156 252.036 204.182 252.009 204.199 251.977L205.791 248.938C206.268 248.027 206.602 247.048 206.78 246.036L206.893 245.398C207.062 244.438 207.09 243.459 206.977 242.492L206.723 240.338L205.873 236.725L205.241 234.669C205.096 234.199 204.916 233.739 204.704 233.295L203.015 229.763C202.795 229.305 202.542 228.864 202.255 228.444L199.498 224.399L196.422 220.982C195.924 220.428 195.365 219.932 194.756 219.502L192.059 217.598L189.262 216.117C188.719 215.83 188.152 215.594 187.566 215.41L186.503 215.078C185.537 214.777 184.532 214.623 183.52 214.623H182.921C181.796 214.764 180.703 215.095 179.689 215.602L179.521 215.686Z" fill="#C2BEBE" stroke="#C2BEBE"/>
<path d="M190.572 209.735C188.49 207.654 193.335 202.722 193.335 202.722C193.457 202.6 193.65 202.584 193.79 202.686L197.858 205.645C198.101 205.821 198.33 206.015 198.545 206.225L203.33 210.893C205.73 213.234 207.941 215.762 209.943 218.452C212.466 221.842 214.645 225.474 216.447 229.296L216.982 230.43C218.358 233.346 219.476 236.377 220.325 239.488L221.107 243.398C221.293 244.33 221.364 245.281 221.319 246.23L221.178 249.198C221.176 249.241 221.185 249.284 221.204 249.323C221.288 249.491 221.166 249.689 220.978 249.689H217.198C216.877 249.689 216.558 249.629 216.259 249.513L215.889 249.369C214.079 248.665 212.886 246.922 212.886 244.98V244.929C212.886 244.702 212.87 244.476 212.838 244.252L212.605 242.621C212.368 240.961 211.982 239.325 211.452 237.734L210.124 233.75C208.44 229.822 206.364 226.02 203.961 222.486L202.888 221.219C200.49 218.385 197.864 215.753 195.035 213.348C195.035 213.348 191.209 210.373 190.572 209.735Z" fill="#348BDA" stroke="#348BDA"/>
<path d="M266.441 185.508L272.179 182.107L273.325 181.42C273.976 181.029 274.584 180.57 275.137 180.049C276.934 178.358 278.085 176.092 278.391 173.643L278.555 172.332V171.608C278.555 169.795 279.431 168.093 280.906 167.039C281.32 166.743 281.773 166.505 282.251 166.331L282.366 166.29C283.353 165.931 284.412 165.816 285.452 165.955L285.562 165.969C286.547 166.101 287.492 166.441 288.334 166.967L288.756 167.231" stroke="white" stroke-opacity="0.1" stroke-width="5" stroke-linecap="round"/>
</g>
<g filter="url(#filter4_d_112_1812)">
<path d="M314.6 144.6L320.6 130.6H330.6L325.1 141.1H333.6L319.6 158.1L323.1 144.6H314.6Z" fill="url(#paint2_linear_112_1812)" shape-rendering="crispEdges"/>
<path d="M314.6 144.6L320.6 130.6H330.6L325.1 141.1H333.6L319.6 158.1L323.1 144.6H314.6Z" stroke="white" stroke-opacity="0.3" shape-rendering="crispEdges"/>
</g>
<g filter="url(#filter5_d_112_1812)">
<path d="M284.6 257.618L296.915 228.6H317.442L306.152 250.364H323.6L294.863 285.6L302.047 257.618H284.6Z" fill="url(#paint3_linear_112_1812)" shape-rendering="crispEdges"/>
<path d="M284.6 257.618L296.915 228.6H317.442L306.152 250.364H323.6L294.863 285.6L302.047 257.618H284.6Z" stroke="white" stroke-opacity="0.3" shape-rendering="crispEdges"/>
</g>
<g filter="url(#filter6_d_112_1812)">
<path d="M82.5996 224.891L89.547 208.6H101.126L94.7575 220.818H104.6L88.3891 240.6L92.4417 224.891H82.5996Z" fill="url(#paint4_linear_112_1812)" shape-rendering="crispEdges"/>
<path d="M82.5996 224.891L89.547 208.6H101.126L94.7575 220.818H104.6L88.3891 240.6L92.4417 224.891H82.5996Z" stroke="white" stroke-opacity="0.3" shape-rendering="crispEdges"/>
</g>
<g filter="url(#filter7_d_112_1812)">
<path d="M145.6 114.891L152.547 98.6001H164.126L157.758 110.818H167.6L151.389 130.6L155.442 114.891H145.6Z" fill="url(#paint5_linear_112_1812)" shape-rendering="crispEdges"/>
<path d="M145.6 114.891L152.547 98.6001H164.126L157.758 110.818H167.6L151.389 130.6L155.442 114.891H145.6Z" stroke="white" stroke-opacity="0.3" shape-rendering="crispEdges"/>
</g>
<defs>
<filter id="filter0_d_112_1812" x="9.72748e-05" y="9.72748e-05" width="463.2" height="454.2" filterUnits="userSpaceOnUse" color-interpolation-filters="sRGB">
<feFlood flood-opacity="0" result="BackgroundImageFix"/>
<feColorMatrix in="SourceAlpha" type="matrix" values="0 0 0 0 0 0 0 0 0 0 0 0 0 0 0 0 0 0 127 0" result="hardAlpha"/>
<feOffset dy="4"/>
<feGaussianBlur stdDeviation="8.8"/>
<feComposite in2="hardAlpha" operator="out"/>
<feColorMatrix type="matrix" values="0 0 0 0 0 0 0 0 0 0 0 0 0 0 0 0 0 0 0.15 0"/>
<feBlend mode="normal" in2="BackgroundImageFix" result="effect1_dropShadow_112_1812"/>
<feBlend mode="normal" in="SourceGraphic" in2="effect1_dropShadow_112_1812" result="shape"/>
</filter>
<filter id="filter1_d_112_1812" x="60.5239" y="137.159" width="320.93" height="191.087" filterUnits="userSpaceOnUse" color-interpolation-filters="sRGB">
<feFlood flood-opacity="0" result="BackgroundImageFix"/>
<feColorMatrix in="SourceAlpha" type="matrix" values="0 0 0 0 0 0 0 0 0 0 0 0 0 0 0 0 0 0 127 0" result="hardAlpha"/>
<feOffset dy="4"/>
<feGaussianBlur stdDeviation="2"/>
<feComposite in2="hardAlpha" operator="out"/>
<feColorMatrix type="matrix" values="0 0 0 0 0 0 0 0 0 0 0 0 0 0 0 0 0 0 0.25 0"/>
<feBlend mode="normal" in2="BackgroundImageFix" result="effect1_dropShadow_112_1812"/>
<feBlend mode="normal" in="SourceGraphic" in2="effect1_dropShadow_112_1812" result="shape"/>
</filter>
<filter id="filter2_i_112_1812" x="64.5239" y="137.159" width="43.9297" height="60.7871" filterUnits="userSpaceOnUse" color-interpolation-filters="sRGB">
<feFlood flood-opacity="0" result="BackgroundImageFix"/>
<feBlend mode="normal" in="SourceGraphic" in2="BackgroundImageFix" result="shape"/>
<feColorMatrix in="SourceAlpha" type="matrix" values="0 0 0 0 0 0 0 0 0 0 0 0 0 0 0 0 0 0 127 0" result="hardAlpha"/>
<feOffset dy="4"/>
<feGaussianBlur stdDeviation="2"/>
<feComposite in2="hardAlpha" operator="arithmetic" k2="-1" k3="1"/>
<feColorMatrix type="matrix" values="0 0 0 0 0.32549 0 0 0 0 0.662745 0 0 0 0 0.203922 0 0 0 1 0"/>
<feBlend mode="normal" in2="shape" result="effect1_innerShadow_112_1812"/>
</filter>
<filter id="filter3_i_112_1812" x="333.524" y="163.159" width="43.9297" height="60.7871" filterUnits="userSpaceOnUse" color-interpolation-filters="sRGB">
<feFlood flood-opacity="0" result="BackgroundImageFix"/>
<feBlend mode="normal" in="SourceGraphic" in2="BackgroundImageFix" result="shape"/>
<feColorMatrix in="SourceAlpha" type="matrix" values="0 0 0 0 0 0 0 0 0 0 0 0 0 0 0 0 0 0 127 0" result="hardAlpha"/>
<feOffset dy="4"/>
<feGaussianBlur stdDeviation="2"/>
<feComposite in2="hardAlpha" operator="arithmetic" k2="-1" k3="1"/>
<feColorMatrix type="matrix" values="0 0 0 0 0.32549 0 0 0 0 0.662745 0 0 0 0 0.203922 0 0 0 1 0"/>
<feBlend mode="normal" in2="shape" result="effect1_innerShadow_112_1812"/>
</filter>
<filter id="filter4_d_112_1812" x="309.841" y="130.1" width="28.8179" height="36.3179" filterUnits="userSpaceOnUse" color-interpolation-filters="sRGB">
<feFlood flood-opacity="0" result="BackgroundImageFix"/>
<feColorMatrix in="SourceAlpha" type="matrix" values="0 0 0 0 0 0 0 0 0 0 0 0 0 0 0 0 0 0 127 0" result="hardAlpha"/>
<feOffset dy="4"/>
<feGaussianBlur stdDeviation="2"/>
<feComposite in2="hardAlpha" operator="out"/>
<feColorMatrix type="matrix" values="0 0 0 0 1 0 0 0 0 0.906397 0 0 0 0 0.628934 0 0 0 1 0"/>
<feBlend mode="normal" in2="BackgroundImageFix" result="effect1_dropShadow_112_1812"/>
<feBlend mode="normal" in="SourceGraphic" in2="effect1_dropShadow_112_1812" result="shape"/>
</filter>
<filter id="filter5_d_112_1812" x="279.844" y="228.1" width="48.8081" height="65.8159" filterUnits="userSpaceOnUse" color-interpolation-filters="sRGB">
<feFlood flood-opacity="0" result="BackgroundImageFix"/>
<feColorMatrix in="SourceAlpha" type="matrix" values="0 0 0 0 0 0 0 0 0 0 0 0 0 0 0 0 0 0 127 0" result="hardAlpha"/>
<feOffset dy="4"/>
<feGaussianBlur stdDeviation="2"/>
<feComposite in2="hardAlpha" operator="out"/>
<feColorMatrix type="matrix" values="0 0 0 0 1 0 0 0 0 0.906397 0 0 0 0 0.628934 0 0 0 1 0"/>
<feBlend mode="normal" in2="BackgroundImageFix" result="effect1_dropShadow_112_1812"/>
<feBlend mode="normal" in="SourceGraphic" in2="effect1_dropShadow_112_1812" result="shape"/>
</filter>
<filter id="filter6_d_112_1812" x="77.8428" y="208.1" width="31.813" height="40.8169" filterUnits="userSpaceOnUse" color-interpolation-filters="sRGB">
<feFlood flood-opacity="0" result="BackgroundImageFix"/>
<feColorMatrix in="SourceAlpha" type="matrix" values="0 0 0 0 0 0 0 0 0 0 0 0 0 0 0 0 0 0 127 0" result="hardAlpha"/>
<feOffset dy="4"/>
<feGaussianBlur stdDeviation="2"/>
<feComposite in2="hardAlpha" operator="out"/>
<feColorMatrix type="matrix" values="0 0 0 0 1 0 0 0 0 0.906397 0 0 0 0 0.628934 0 0 0 1 0"/>
<feBlend mode="normal" in2="BackgroundImageFix" result="effect1_dropShadow_112_1812"/>
<feBlend mode="normal" in="SourceGraphic" in2="effect1_dropShadow_112_1812" result="shape"/>
</filter>
<filter id="filter7_d_112_1812" x="140.843" y="98.1001" width="31.813" height="40.8169" filterUnits="userSpaceOnUse" color-interpolation-filters="sRGB">
<feFlood flood-opacity="0" result="BackgroundImageFix"/>
<feColorMatrix in="SourceAlpha" type="matrix" values="0 0 0 0 0 0 0 0 0 0 0 0 0 0 0 0 0 0 127 0" result="hardAlpha"/>
<feOffset dy="4"/>
<feGaussianBlur stdDeviation="2"/>
<feComposite in2="hardAlpha" operator="out"/>
<feColorMatrix type="matrix" values="0 0 0 0 1 0 0 0 0 0.906397 0 0 0 0 0.628934 0 0 0 1 0"/>
<feBlend mode="normal" in2="BackgroundImageFix" result="effect1_dropShadow_112_1812"/>
<feBlend mode="normal" in="SourceGraphic" in2="effect1_dropShadow_112_1812" result="shape"/>
</filter>
<linearGradient id="paint0_linear_112_1812" x1="231.6" y1="13.6001" x2="231.6" y2="432.6" gradientUnits="userSpaceOnUse">
<stop offset="0.528846" stop-color="white"/>
<stop offset="1" stop-color="#088FA2" stop-opacity="0.1"/>
</linearGradient>
<linearGradient id="paint1_linear_112_1812" x1="210.549" y1="205.485" x2="298.32" y2="231.625" gradientUnits="userSpaceOnUse">
<stop stop-color="#DBA12E"/>
<stop offset="0.938707" stop-color="white"/>
</linearGradient>
<linearGradient id="paint2_linear_112_1812" x1="324.1" y1="130.6" x2="324.1" y2="158.1" gradientUnits="userSpaceOnUse">
<stop stop-color="#FFE7A0"/>
<stop offset="0.6875" stop-color="#F5B700"/>
</linearGradient>
<linearGradient id="paint3_linear_112_1812" x1="304.1" y1="228.6" x2="304.1" y2="285.6" gradientUnits="userSpaceOnUse">
<stop stop-color="#FFE7A0"/>
<stop offset="0.6875" stop-color="#F5B700"/>
</linearGradient>
<linearGradient id="paint4_linear_112_1812" x1="93.5996" y1="208.6" x2="93.5996" y2="240.6" gradientUnits="userSpaceOnUse">
<stop stop-color="#FFE7A0"/>
<stop offset="0.6875" stop-color="#F5B700"/>
</linearGradient>
<linearGradient id="paint5_linear_112_1812" x1="156.6" y1="98.6001" x2="156.6" y2="130.6" gradientUnits="userSpaceOnUse">
<stop stop-color="#FFE7A0"/>
<stop offset="0.6875" stop-color="#F5B700"/>
</linearGradient>
</defs>
</svg>
