<svg width="125" height="65" viewBox="0 0 125 65" fill="none" xmlns="http://www.w3.org/2000/svg">
<path d="M22.6457 48.0341L29.5687 46.9654L98.1007 45.6094L109.201 46.3359C110.371 46.4125 111.501 46.7957 112.477 47.4471L113.864 48.3732C115.527 49.4831 116.252 51.5607 115.641 53.4639C115.114 55.1066 113.689 56.3 111.98 56.5315L109.483 56.8696C107.794 57.0984 106.327 58.1477 105.565 59.6724C104.332 62.1389 101.369 63.2108 98.7664 62.2995C94.7804 60.9038 88.8398 59.1847 83.5809 59.1046C73.9424 58.9579 68.856 62.8831 59.2374 62.1801C52.5109 61.6885 45.0532 59.3884 38.3171 59.1046C30.5902 58.7791 23.9165 63.8909 17.3969 63.3212C13.3449 62.9672 12.4414 59.1046 12.4414 59.1046C10.9165 53.5904 15.0644 48.1397 20.7856 48.1397H21.2688C21.7298 48.1397 22.1901 48.1044 22.6457 48.0341Z" fill="#017A8B" fill-opacity="0.25"/>
<g filter="url(#filter0_d_91_4555)">
<path d="M56.3262 48.8873V46.3799H69.5082V48.8873H56.3262Z" fill="#C5EFFA" stroke="#C5EFFA" stroke-width="0.1"/>
<path d="M26.8862 48.8873V46.3799H56.326V48.8873H26.8862Z" fill="#8FD3E4" stroke="#8FD3E4" stroke-width="0.1"/>
<path d="M18.5378 53.9023V48.8875H54.5686L52.811 53.9023H18.5378Z" fill="#8FD3E4" stroke="#8FD3E4" stroke-width="0.1"/>
<path d="M77.4175 53.9023V48.8875H109.054V53.9023H77.4175Z" fill="#8FD3E4" stroke="#8FD3E4" stroke-width="0.1"/>
<path d="M51.9321 53.9023V48.8875H77.4173L81.3719 53.9023H51.9321Z" fill="#BAF7FF" stroke="#8FD3E4" stroke-width="0.1"/>
<path d="M69.5081 48.8873V46.3799H101.145V48.8873H69.5081Z" fill="#8FD3E4" stroke="#8FD3E4" stroke-width="0.1"/>
<path d="M73.0235 46.3799H27.3259V24.2309H67.7507L72.5841 28.8279L73.0235 28.8616V46.3799Z" fill="white"/>
<path d="M27.3259 22.5593V24.2309M27.3259 24.2309V46.3799H73.0235V28.8616L72.5841 28.8279L67.7507 24.2309H27.3259Z" stroke="#8FD3E4" stroke-opacity="0.13" stroke-width="0.1"/>
<path d="M36.9924 45.9619V30.0815H45.7804V45.9619H36.9924Z" fill="#6F631D" stroke="#878264"/>
<path d="M67.7507 24.231L72.5841 28.8279H73.0235V20.4698L27.3259 19.634V22.5594V24.231H67.7507Z" fill="#8FD3E4" fill-opacity="0.8" stroke="#8FD3E4" stroke-opacity="0.13" stroke-width="0.1"/>
<path d="M73.0232 46.4814V20.4698L83.5688 5.00732L98.069 22.5593H98.2629V46.4814H73.0232Z" fill="#8FD3E4" stroke="#8FD3E4" stroke-width="0.1"/>
<path d="M104.221 22.5593L85.7658 2.08203L83.5688 5.00736L98.069 22.5593H104.221Z" fill="#038699" stroke="#00A2B7" stroke-width="0.1"/>
<path d="M22.4922 22.1415L39.1894 2.5H84.8869L70.8261 22.9773L22.4922 22.1415Z" fill="#03A2B0" stroke="#00A2B7"/>
<path d="M57.1886 30.0291H53.7336V34.2813H57.1886V30.0291Z" fill="#039CB0" stroke="#038699"/>
<path d="M57.1886 35.4617H53.7336V39.7139H57.1886V35.4617Z" fill="#039CB0" stroke="#038699"/>
<path d="M62.4613 30.0291H59.0063V34.2813H62.4613V30.0291Z" fill="#039CB0" stroke="#038699"/>
<path d="M62.4613 35.4617H59.0063V39.7139H62.4613V35.4617Z" fill="#039CB0" stroke="#038699"/>
</g>
<path d="M112.7 50.6412L110.145 49.6023C109.571 49.3689 108.952 49.2594 108.333 49.2823L102.454 49.4996C102.2 49.509 101.949 49.5629 101.713 49.6588L101.068 49.921C99.9686 50.3682 99.6541 51.7759 100.459 52.6485C100.656 52.8627 100.906 53.0225 101.183 53.1126L102.297 53.475C103.419 53.84 103.935 54.5642 103.195 55.4829C102.978 55.7522 102.714 56.0678 102.397 56.4365C100.134 58.4811 111.768 59.3809 115.987 59.8423C116.308 59.8774 116.627 59.8138 116.91 59.6577L117.59 59.2816C118.967 58.5199 118.389 55.8397 116.83 55.6226C115.689 55.4636 114.673 53.1323 114.16 52.1004C113.846 51.4671 113.355 50.9075 112.7 50.6412Z" fill="#017A8B" fill-opacity="0.18"/>
<path d="M110.207 56.0943C109.671 56.0943 109.066 55.714 109.066 55.714V37.0759H111.348V55.714C111.348 55.714 110.742 56.0943 110.207 56.0943Z" fill="#346C5F" stroke="#346C5F"/>
<g filter="url(#filter1_i_91_4555)">
<path d="M102.791 26.4338L102.864 26.8722C102.939 27.3238 103.154 27.7406 103.477 28.0643C103.889 28.4763 104.448 28.7077 105.031 28.7077H105.262L103.74 29.4684L102.599 30.2291C102.092 30.6095 101.002 31.4463 100.697 31.7506C100.526 31.9226 100.426 32.2645 100.373 32.5981C100.303 33.0339 100.448 33.4681 100.693 33.8354L100.939 34.2046C101.029 34.3405 101.159 34.4457 101.311 34.5063L101.462 34.5668C102.05 34.802 102.084 35.6218 101.517 35.9051C101.478 35.9248 101.441 35.948 101.405 35.9744L100.312 36.7945C100.068 36.9776 99.885 37.2309 99.7885 37.5205C99.642 37.9599 99.7066 38.4423 99.9635 38.8276L100.177 39.1476C100.269 39.2855 100.395 39.397 100.543 39.4711L101.58 39.9894C101.956 40.1775 101.917 40.7265 101.518 40.8595C101.478 40.8727 101.441 40.8912 101.406 40.9145L100.562 41.4772C100.399 41.5854 100.223 41.6714 100.038 41.7331L99.9072 41.7768C99.439 41.9329 99.052 42.2685 98.8313 42.7099C98.5694 43.2337 98.5694 43.8503 98.8313 44.3741L98.9121 44.5357C99.0851 44.8816 99.3453 45.1763 99.667 45.3908L100.317 45.8242L101.458 46.585L101.924 46.8178C102.618 47.165 103.384 47.3457 104.16 47.3457H105.667C105.904 47.3457 106.14 47.3625 106.374 47.396L108.333 47.6758C108.568 47.7093 108.804 47.7261 109.041 47.7261H110.612C110.849 47.7261 111.084 47.7094 111.319 47.6759L113.63 47.3457C114.609 47.2059 115.304 47.0607 115.781 46.9323C116.396 46.7672 116.973 46.4562 117.558 46.2057L118.708 45.7129C119.122 45.5352 119.499 45.28 119.818 44.961L120.319 44.4603C120.663 44.1159 120.857 43.6487 120.857 43.1617C120.857 42.6746 120.663 42.2074 120.319 41.863L120.096 41.6402L119.349 40.893C119.097 40.6408 118.755 40.4991 118.398 40.4991H117.591C117.294 40.4991 117.053 40.2582 117.053 39.9612C117.053 39.8185 117.11 39.6817 117.211 39.5808L117.873 38.9185C118.086 38.7057 118.263 38.46 118.398 38.1909L118.796 37.3936C118.902 37.182 118.993 36.9631 119.068 36.7387L119.336 35.9347C119.64 35.0218 118.702 34.54 118.194 34.4132L117.213 34.0861C116.684 33.9096 116.589 33.2013 117.053 32.8917C117.607 32.5224 117.909 32.1345 118.061 31.8298C118.204 31.5429 118.155 31.213 118.077 30.9021L118.016 30.6576C117.884 30.1284 117.61 29.645 117.224 29.2592L116.871 28.9056C116.741 28.7758 116.58 28.6812 116.404 28.6308L115.953 28.5021C115.216 28.2914 115.085 27.3019 115.743 26.9073C115.854 26.8405 115.95 26.7498 116.022 26.6418L116.438 26.0167C116.594 25.7827 116.726 25.5331 116.83 25.2719C117.218 24.3032 117.218 23.2226 116.83 22.2539L116.8 22.1785C116.715 21.9672 116.614 21.763 116.497 21.5679L116.094 20.8959C115.727 20.2841 115.193 19.7898 114.555 19.4707C114.194 19.2904 113.807 19.1694 113.408 19.1124L112.114 18.9275C111.606 18.855 111.09 18.861 110.585 18.9453L109.453 19.134C109.195 19.1769 108.941 19.24 108.693 19.3225L107.304 19.7857C106.958 19.901 106.626 20.0539 106.313 20.2416L105.953 20.4572C105.25 20.8795 104.661 21.4684 104.238 22.1722L103.74 23.0022L103.12 24.2421C102.782 24.9195 102.666 25.6868 102.791 26.4338Z" fill="#67AD15"/>
</g>
<path d="M106.023 28.7077H105.262M105.262 28.7077H105.031C104.448 28.7077 103.889 28.4763 103.477 28.0643C103.154 27.7406 102.939 27.3238 102.864 26.8722L102.791 26.4338C102.666 25.6868 102.782 24.9195 103.12 24.2421L103.74 23.0022L104.238 22.1722C104.661 21.4684 105.25 20.8795 105.953 20.4572L106.313 20.2416C106.626 20.0539 106.958 19.901 107.304 19.7857L108.693 19.3225C108.941 19.24 109.195 19.1769 109.453 19.134L110.585 18.9453C111.09 18.861 111.606 18.855 112.114 18.9275L113.408 19.1124C113.807 19.1694 114.194 19.2904 114.555 19.4707C115.193 19.7898 115.727 20.2841 116.094 20.8959L116.497 21.5679C116.614 21.763 116.715 21.9672 116.8 22.1785L116.83 22.2539C117.218 23.2226 117.218 24.3032 116.83 25.2719C116.726 25.5331 116.594 25.7827 116.438 26.0167L116.022 26.6418C115.95 26.7498 115.854 26.8405 115.743 26.9073C115.085 27.3019 115.216 28.2914 115.953 28.5021L116.404 28.6308C116.58 28.6812 116.741 28.7758 116.871 28.9056L117.224 29.2592C117.61 29.645 117.884 30.1284 118.016 30.6576L118.077 30.9021C118.155 31.213 118.204 31.5429 118.061 31.8298C117.909 32.1345 117.607 32.5224 117.053 32.8917C116.589 33.2013 116.684 33.9096 117.213 34.0861L118.194 34.4132C118.702 34.54 119.64 35.0218 119.336 35.9347C119.212 36.3054 119.126 36.5632 119.068 36.7387C118.993 36.9631 118.902 37.182 118.796 37.3936L118.398 38.1909C118.263 38.46 118.086 38.7057 117.873 38.9185L117.211 39.5808C117.11 39.6817 117.053 39.8185 117.053 39.9612C117.053 40.2582 117.294 40.4991 117.591 40.4991H118.398C118.755 40.4991 119.097 40.6408 119.349 40.893L120.096 41.6402L120.319 41.863C120.663 42.2074 120.857 42.6746 120.857 43.1617C120.857 43.6487 120.663 44.1159 120.319 44.4603L119.818 44.961C119.499 45.28 119.122 45.5352 118.708 45.7129L117.558 46.2057C116.973 46.4562 116.396 46.7672 115.781 46.9323C115.304 47.0607 114.609 47.2059 113.63 47.3457C112.384 47.5237 111.684 47.6236 111.319 47.6759C111.084 47.7094 110.849 47.7261 110.612 47.7261H109.041C108.804 47.7261 108.568 47.7093 108.333 47.6758L106.374 47.396C106.14 47.3625 105.904 47.3457 105.667 47.3457H104.16C103.384 47.3457 102.618 47.165 101.924 46.8178L101.458 46.585L100.317 45.8242L99.667 45.3908C99.3453 45.1763 99.0851 44.8816 98.9121 44.5357L98.8313 44.3741C98.5694 43.8503 98.5694 43.2337 98.8313 42.7099C99.052 42.2685 99.439 41.9329 99.9072 41.7768L100.038 41.7331C100.223 41.6714 100.399 41.5854 100.562 41.4772L101.406 40.9145C101.441 40.8912 101.478 40.8727 101.518 40.8595C101.917 40.7265 101.956 40.1775 101.58 39.9894L100.543 39.4711C100.395 39.397 100.269 39.2855 100.177 39.1476L99.9635 38.8276C99.7066 38.4423 99.642 37.9599 99.7885 37.5205C99.885 37.2309 100.068 36.9776 100.312 36.7945L101.405 35.9744C101.441 35.948 101.478 35.9248 101.517 35.9051C102.084 35.6218 102.05 34.802 101.462 34.5668L101.311 34.5063C101.159 34.4457 101.029 34.3405 100.939 34.2046L100.693 33.8354C100.448 33.4681 100.303 33.0339 100.373 32.5981C100.426 32.2645 100.526 31.9226 100.697 31.7506C101.002 31.4463 102.092 30.6095 102.599 30.2291L103.74 29.4684L105.262 28.7077Z" stroke="#53A934"/>
<path d="M14.565 51.4019L12.01 50.3631C11.436 50.1296 10.8174 50.0201 10.1981 50.043L4.31945 50.2603C4.0649 50.2697 3.81396 50.3236 3.578 50.4196L2.93317 50.6818C1.83358 51.1289 1.51905 52.5367 2.32379 53.4092C2.52131 53.6234 2.77057 53.7832 3.04764 53.8734L4.16161 54.2357C5.28366 54.6007 5.7999 55.3249 5.05957 56.2437C4.8426 56.5129 4.57949 56.8285 4.26208 57.1973C1.9993 59.2419 13.6335 60.1416 17.8521 60.603C18.1729 60.6381 18.4924 60.5746 18.7748 60.4184L19.4548 60.0424C20.8323 59.2806 20.2538 56.6004 18.6948 56.3833C17.5537 56.2244 16.5379 53.893 16.0254 52.8611C15.7109 52.2278 15.22 51.6683 14.565 51.4019Z" fill="#017A8B" fill-opacity="0.18"/>
<path d="M12.0718 56.8551C11.5362 56.8551 10.9307 56.4747 10.9307 56.4747V37.8367H13.2129V56.4747C13.2129 56.4747 12.6073 56.8551 12.0718 56.8551Z" fill="#346C5F" stroke="#346C5F"/>
<g filter="url(#filter2_i_91_4555)">
<path d="M4.65589 27.1946L4.72896 27.633C4.80423 28.0846 5.01871 28.5013 5.34243 28.8251C5.75437 29.237 6.31307 29.4684 6.89564 29.4684H7.12689L5.60542 30.2292L4.46432 30.9899C3.95716 31.3703 2.86677 32.2071 2.56248 32.5114C2.39054 32.6833 2.29147 33.0253 2.23781 33.3588C2.1677 33.7946 2.31278 34.2288 2.55763 34.5961L2.80377 34.9653C2.89436 35.1012 3.02402 35.2064 3.17564 35.2671L3.32676 35.3275C3.91492 35.5628 3.94902 36.3825 3.38243 36.6658C3.34303 36.6855 3.30549 36.7087 3.27026 36.7351L2.1768 37.5552C1.93258 37.7384 1.75003 37.9917 1.65349 38.2813C1.50704 38.7206 1.57164 39.203 1.82854 39.5884L2.04185 39.9083C2.13377 40.0462 2.26007 40.1577 2.40828 40.2318L3.44502 40.7502C3.82117 40.9382 3.78215 41.4872 3.38319 41.6202C3.34338 41.6335 3.30553 41.652 3.27062 41.6753L2.42663 42.2379C2.26434 42.3461 2.08836 42.4322 1.90332 42.4939L1.77218 42.5376C1.30402 42.6936 0.917026 43.0293 0.696334 43.4706C0.434418 43.9945 0.434418 44.6111 0.696334 45.1349L0.77712 45.2965C0.950049 45.6423 1.21024 45.9371 1.53198 46.1516L2.18211 46.585L3.32322 47.3457L3.78896 47.5786C4.48324 47.9257 5.2488 48.1064 6.02503 48.1064H7.53229C7.76889 48.1064 8.00518 48.1232 8.2394 48.1567L10.1984 48.4366C10.4327 48.47 10.6689 48.4868 10.9055 48.4868H12.4771C12.7137 48.4868 12.9494 48.4701 13.1836 48.4366L15.495 48.1064C16.4737 47.9666 17.1686 47.8215 17.6463 47.6931C18.2606 47.528 18.8383 47.217 19.423 46.9664L20.5728 46.4736C20.9875 46.2959 21.3644 46.0407 21.6834 45.7217L22.1841 45.2211C22.5285 44.8766 22.722 44.4095 22.722 43.9224C22.722 43.4353 22.5285 42.9682 22.1841 42.6237L21.9612 42.4009L21.214 41.6537C20.9618 41.4015 20.6198 41.2598 20.2631 41.2598H19.4562C19.1591 41.2598 18.9183 41.019 18.9183 40.7219C18.9183 40.5792 18.975 40.4424 19.0758 40.3415L19.7382 39.6792C19.9509 39.4664 20.128 39.2208 20.2626 38.9517L20.6612 38.1543C20.767 37.9427 20.8577 37.7239 20.9325 37.4994L21.2005 36.6954C21.5048 35.7825 20.5666 35.3007 20.0594 35.1739L19.0783 34.8469C18.5487 34.6704 18.4539 33.9621 18.9183 33.6525C19.4722 33.2832 19.7741 32.8952 19.9258 32.5905C20.0687 32.3037 20.0201 31.9738 19.9424 31.6628L19.8812 31.4184C19.7489 30.8891 19.4753 30.4057 19.0895 30.02L18.7358 29.6663C18.606 29.5365 18.4453 29.442 18.2688 29.3915L17.8184 29.2628C17.0808 29.0521 16.9504 28.0627 17.6081 27.668C17.7195 27.6012 17.8145 27.5106 17.8866 27.4025L18.3033 26.7775C18.4593 26.5434 18.5906 26.2938 18.6951 26.0327C19.0825 25.064 19.0825 23.9833 18.6951 23.0146L18.6649 22.9392C18.5804 22.7279 18.4791 22.5238 18.3621 22.3287L17.9588 21.6566C17.5918 21.0449 17.0579 20.5505 16.4198 20.2315C16.0592 20.0511 15.6719 19.9302 15.2727 19.8731L13.9787 19.6883C13.4711 19.6158 12.9554 19.6218 12.4496 19.7061L11.3175 19.8947C11.06 19.9377 10.8061 20.0007 10.5584 20.0833L9.16906 20.5464C8.82297 20.6618 8.49054 20.8147 8.17772 21.0023L7.81839 21.2179C7.11464 21.6402 6.52566 22.2292 6.10341 22.9329L5.60542 23.7629L4.98546 25.0028C4.64676 25.6802 4.53139 26.4475 4.65589 27.1946Z" fill="#67AD15"/>
</g>
<path d="M7.88763 29.4684H7.12689M7.12689 29.4684H6.89564C6.31307 29.4684 5.75437 29.237 5.34243 28.8251C5.01871 28.5013 4.80423 28.0846 4.72896 27.633L4.65589 27.1946C4.53139 26.4475 4.64676 25.6802 4.98546 25.0028L5.60542 23.7629L6.10341 22.9329C6.52566 22.2292 7.11464 21.6402 7.81839 21.2179L8.17772 21.0023C8.49054 20.8147 8.82297 20.6618 9.16906 20.5464L10.5584 20.0833C10.8061 20.0007 11.06 19.9377 11.3175 19.8947L12.4496 19.7061C12.9554 19.6218 13.4711 19.6158 13.9787 19.6883L15.2727 19.8731C15.6719 19.9302 16.0592 20.0511 16.4198 20.2315C17.0579 20.5505 17.5918 21.0449 17.9588 21.6566L18.3621 22.3287C18.4791 22.5238 18.5804 22.7279 18.6649 22.9392L18.6951 23.0146C19.0825 23.9833 19.0825 25.064 18.6951 26.0327C18.5906 26.2938 18.4593 26.5434 18.3033 26.7775L17.8866 27.4025C17.8145 27.5106 17.7195 27.6012 17.6081 27.668C16.9504 28.0627 17.0808 29.0521 17.8184 29.2628L18.2688 29.3915C18.4453 29.442 18.606 29.5365 18.7358 29.6663L19.0895 30.02C19.4753 30.4057 19.7489 30.8891 19.8812 31.4184L19.9424 31.6628C20.0201 31.9738 20.0687 32.3037 19.9258 32.5905C19.7741 32.8952 19.4722 33.2832 18.9183 33.6525C18.4539 33.9621 18.5487 34.6704 19.0783 34.8469L20.0594 35.1739C20.5666 35.3007 21.5048 35.7825 21.2005 36.6954C21.0769 37.0661 20.991 37.3239 20.9325 37.4994C20.8577 37.7239 20.767 37.9427 20.6612 38.1543L20.2626 38.9517C20.128 39.2208 19.9509 39.4664 19.7382 39.6792L19.0758 40.3415C18.975 40.4424 18.9183 40.5792 18.9183 40.7219C18.9183 41.019 19.1591 41.2598 19.4562 41.2598H20.2631C20.6198 41.2598 20.9618 41.4015 21.214 41.6537L21.9612 42.4009L22.1841 42.6237C22.5285 42.9682 22.722 43.4353 22.722 43.9224C22.722 44.4095 22.5285 44.8766 22.1841 45.2211L21.6834 45.7217C21.3644 46.0407 20.9875 46.2959 20.5728 46.4736L19.423 46.9664C18.8383 47.217 18.2606 47.528 17.6463 47.6931C17.1686 47.8215 16.4737 47.9666 15.495 48.1064C14.2488 48.2845 13.5494 48.3844 13.1836 48.4366C12.9494 48.4701 12.7137 48.4868 12.4771 48.4868H10.9055C10.6689 48.4868 10.4327 48.47 10.1984 48.4366L8.2394 48.1567C8.00518 48.1232 7.76889 48.1064 7.53229 48.1064H6.02503C5.2488 48.1064 4.48324 47.9257 3.78896 47.5786L3.32322 47.3457L2.18211 46.585L1.53198 46.1516C1.21024 45.9371 0.950049 45.6423 0.77712 45.2965L0.696334 45.1349C0.434418 44.6111 0.434418 43.9945 0.696334 43.4706C0.917026 43.0293 1.30402 42.6936 1.77218 42.5376L1.90332 42.4939C2.08836 42.4322 2.26434 42.3461 2.42663 42.2379L3.27062 41.6753C3.30553 41.652 3.34338 41.6335 3.38319 41.6202C3.78215 41.4872 3.82117 40.9382 3.44502 40.7502L2.40828 40.2318C2.26007 40.1577 2.13377 40.0462 2.04185 39.9083L1.82854 39.5884C1.57164 39.203 1.50704 38.7206 1.65349 38.2813C1.75003 37.9917 1.93258 37.7384 2.1768 37.5552L3.27026 36.7351C3.30549 36.7087 3.34303 36.6855 3.38243 36.6658C3.94902 36.3825 3.91492 35.5628 3.32676 35.3275L3.17564 35.2671C3.02402 35.2064 2.89436 35.1012 2.80377 34.9653L2.55763 34.5961C2.31278 34.2288 2.1677 33.7946 2.23781 33.3588C2.29147 33.0253 2.39054 32.6833 2.56248 32.5114C2.86677 32.2071 3.95716 31.3703 4.46432 30.9899L5.60542 30.2292L7.12689 29.4684Z" stroke="#53A934"/>
<defs>
<filter id="filter0_d_91_4555" x="14.4878" y="0" width="98.6165" height="59.9524" filterUnits="userSpaceOnUse" color-interpolation-filters="sRGB">
<feFlood flood-opacity="0" result="BackgroundImageFix"/>
<feColorMatrix in="SourceAlpha" type="matrix" values="0 0 0 0 0 0 0 0 0 0 0 0 0 0 0 0 0 0 127 0" result="hardAlpha"/>
<feOffset dy="2"/>
<feGaussianBlur stdDeviation="2"/>
<feComposite in2="hardAlpha" operator="out"/>
<feColorMatrix type="matrix" values="0 0 0 0 0 0 0 0 0 0 0 0 0 0 0 0 0 0 0.15 0"/>
<feBlend mode="normal" in2="BackgroundImageFix" result="effect1_dropShadow_91_4555"/>
<feBlend mode="normal" in="SourceGraphic" in2="effect1_dropShadow_91_4555" result="shape"/>
</filter>
<filter id="filter1_i_91_4555" x="98.135" y="18.3772" width="23.2219" height="33.8489" filterUnits="userSpaceOnUse" color-interpolation-filters="sRGB">
<feFlood flood-opacity="0" result="BackgroundImageFix"/>
<feBlend mode="normal" in="SourceGraphic" in2="BackgroundImageFix" result="shape"/>
<feColorMatrix in="SourceAlpha" type="matrix" values="0 0 0 0 0 0 0 0 0 0 0 0 0 0 0 0 0 0 127 0" result="hardAlpha"/>
<feOffset dy="4"/>
<feGaussianBlur stdDeviation="2"/>
<feComposite in2="hardAlpha" operator="arithmetic" k2="-1" k3="1"/>
<feColorMatrix type="matrix" values="0 0 0 0 0.32549 0 0 0 0 0.662745 0 0 0 0 0.203922 0 0 0 1 0"/>
<feBlend mode="normal" in2="shape" result="effect1_innerShadow_91_4555"/>
</filter>
<filter id="filter2_i_91_4555" x="0" y="19.1379" width="23.2219" height="33.8489" filterUnits="userSpaceOnUse" color-interpolation-filters="sRGB">
<feFlood flood-opacity="0" result="BackgroundImageFix"/>
<feBlend mode="normal" in="SourceGraphic" in2="BackgroundImageFix" result="shape"/>
<feColorMatrix in="SourceAlpha" type="matrix" values="0 0 0 0 0 0 0 0 0 0 0 0 0 0 0 0 0 0 127 0" result="hardAlpha"/>
<feOffset dy="4"/>
<feGaussianBlur stdDeviation="2"/>
<feComposite in2="hardAlpha" operator="arithmetic" k2="-1" k3="1"/>
<feColorMatrix type="matrix" values="0 0 0 0 0.32549 0 0 0 0 0.662745 0 0 0 0 0.203922 0 0 0 1 0"/>
<feBlend mode="normal" in2="shape" result="effect1_innerShadow_91_4555"/>
</filter>
</defs>
</svg>
