<svg width="534" height="363" viewBox="0 0 534 363" fill="none" xmlns="http://www.w3.org/2000/svg">
<path d="M123.5 230.815C110.416 220.705 103.94 212.246 100.887 205.243C96.4756 195.123 113.171 172.213 123.5 168.315C123.5 168.315 257.916 131.606 329.5 168.315C370.303 189.24 437.862 219.894 475.004 236.526C489.781 243.143 496.705 260.231 490.66 275.251L468.5 330.315C435.5 412.315 405 307.815 340.5 330.315C244.799 363.7 203 343.315 199.5 321.815C184.068 227.016 167.5 264.815 123.5 230.815Z" fill="#088FA2" fill-opacity="0.2"/>
<path fill-rule="evenodd" clip-rule="evenodd" d="M81 76.158H87C93 76.158 105 76.158 117 69.158C129 63.158 140 50.158 152 50.158C164 50.158 176 63.158 188 63.158C200 63.158 212 50.158 224 41.158C236 33.158 247 29.158 259 35.158C271 41.158 283 59.158 295 67.158C307 76.158 319 76.158 331 65.158C343 54.158 354 33.158 366 18.158C378 3.15796 390 -4.84204 402 3.15796C414 12.158 426 37.158 438 44.158C450 50.158 461 37.158 473 35.158C485 33.158 497 41.158 503 46.158L509 50.158V114.158H503C497 114.158 485 114.158 473 114.158C461 114.158 450 114.158 438 114.158C426 114.158 414 114.158 402 114.158C390 114.158 378 114.158 366 114.158C354 114.158 343 114.158 331 114.158C319 114.158 307 114.158 295 114.158C283 114.158 271 114.158 259 114.158C247 114.158 236 114.158 224 114.158C212 114.158 200 114.158 188 114.158C176 114.158 164 114.158 152 114.158C140 114.158 129 114.158 117 114.158C105 114.158 93 114.158 87 114.158H81V76.158Z" fill="white" fill-opacity="0.5"/>
<path d="M291.76 250.943C298.895 243.936 303.26 243.943 303.26 243.943C303.26 243.943 530.26 206.443 471.76 254.443C413.26 302.443 398.76 346.443 383.26 335.443C367.76 324.443 263.761 278.443 291.76 250.943Z" fill="#039CB0" fill-opacity="0.3"/>
<g filter="url(#filter0_i_65_857)">
<path d="M306.902 206.122L303.396 204.313L372.645 160L453.728 212.452L387.547 256.765L383.602 254.504L449.345 212.452L372.645 164.07L306.902 206.122Z" stroke="#038699" stroke-width="3"/>
<path d="M383.986 300.592L292.137 243.285C292.074 243.246 292.074 243.154 292.137 243.115L374.784 192.136C374.816 192.117 374.856 192.117 374.888 192.136L465.426 246.736C465.489 246.774 465.491 246.864 465.429 246.905L384.094 300.591C384.061 300.612 384.019 300.613 383.986 300.592Z" fill="#026B79"/>
<path d="M447.544 211.518L372.359 165.519C372.292 165.478 372.207 165.526 372.207 165.604V202.449C372.207 202.483 372.224 202.515 372.254 202.534L447.439 248.984C447.506 249.025 447.592 248.977 447.592 248.899V211.604C447.592 211.569 447.574 211.537 447.544 211.518Z" fill="#00A2B7" stroke="#039CB0" stroke-width="1.5"/>
<path d="M306.463 241.662V206.178C306.463 206.143 306.481 206.111 306.511 206.092L372.492 165.52C372.559 165.479 372.645 165.527 372.645 165.605V200.188C372.645 200.223 372.627 200.255 372.598 200.273L306.617 241.747C306.55 241.789 306.463 241.741 306.463 241.662Z" fill="#0D6499" stroke="#0D6499" stroke-width="1.5"/>
<g filter="url(#filter1_d_65_857)">
<path d="M348.539 210.83V218.729C348.539 218.762 348.556 218.794 348.584 218.812L355.834 223.653C355.901 223.697 355.99 223.649 355.99 223.569V215.671C355.99 215.637 355.973 215.606 355.945 215.588L348.695 210.747C348.628 210.703 348.539 210.751 348.539 210.83Z" fill="#088FA2" stroke="#017A8B"/>
<path d="M361.25 219.399V226.477C361.25 226.511 361.267 226.543 361.296 226.561L368.108 230.894C368.175 230.936 368.262 230.888 368.262 230.809V222.944C368.262 222.907 368.241 222.873 368.208 222.855L361.396 219.311C361.329 219.276 361.25 219.324 361.25 219.399Z" fill="#088FA2" stroke="#017A8B"/>
<path d="M338.458 229.536V223.497C338.458 223.416 338.549 223.366 338.615 223.412L339.73 224.179C339.757 224.198 339.773 224.228 339.773 224.261V229.535C339.773 229.59 339.729 229.635 339.673 229.635H338.558C338.503 229.635 338.458 229.591 338.458 229.536Z" fill="#C89665" stroke="#C89665"/>
<path d="M368.116 231.066L367.45 231.41C367.411 231.43 367.39 231.472 367.397 231.515L368.063 235.639C368.083 235.761 368.262 235.747 368.262 235.624V231.155C368.262 231.081 368.183 231.032 368.116 231.066Z" stroke="#017A8B" stroke-width="0.5"/>
<path d="M361.25 241.228V236.932C361.25 236.894 361.27 236.859 361.304 236.842L361.98 236.493C362.047 236.458 362.126 236.507 362.126 236.581V240.878C362.126 240.916 362.105 240.95 362.072 240.967L361.395 241.316C361.329 241.35 361.25 241.303 361.25 241.228Z" fill="#017A8B" stroke="#017A8B" stroke-width="0.5"/>
<path d="M353.36 236.706V232.41C353.36 232.372 353.381 232.337 353.415 232.32L354.091 231.971C354.158 231.937 354.237 231.985 354.237 232.06V236.356C354.237 236.394 354.216 236.428 354.183 236.445L353.506 236.794C353.44 236.829 353.36 236.781 353.36 236.706Z" fill="#017A8B" stroke="#017A8B" stroke-width="0.5"/>
<path d="M346.348 232.185V227.888C346.348 227.851 346.369 227.815 346.402 227.798L347.078 227.449C347.145 227.415 347.224 227.463 347.224 227.538V231.835C347.224 231.872 347.203 231.906 347.17 231.924L346.494 232.273C346.427 232.307 346.348 232.259 346.348 232.185Z" fill="#017A8B" stroke="#017A8B" stroke-width="0.5"/>
<path d="M341.088 229.472V225.175C341.088 225.138 341.109 225.102 341.143 225.085L341.819 224.736C341.886 224.702 341.965 224.75 341.965 224.825V229.122C341.965 229.159 341.944 229.193 341.911 229.211L341.234 229.56C341.168 229.594 341.088 229.546 341.088 229.472Z" fill="#017A8B" stroke="#017A8B" stroke-width="0.5"/>
<path d="M366.509 236.77V231.134C366.509 231.065 366.576 231.015 366.641 231.037L367.756 231.42C367.797 231.434 367.824 231.472 367.824 231.515V236.77C367.824 236.825 367.779 236.87 367.724 236.87H366.609C366.554 236.87 366.509 236.825 366.509 236.77Z" fill="#C89665" stroke="#C89665"/>
<path d="M359.058 243.1V237.464C359.058 237.395 359.126 237.345 359.191 237.367L360.305 237.751C360.346 237.765 360.373 237.802 360.373 237.845V243.1C360.373 243.155 360.328 243.2 360.273 243.2H359.158C359.103 243.2 359.058 243.156 359.058 243.1Z" fill="#C89665" stroke="#C89665"/>
<path d="M338.58 223.221L346.292 217.917C346.325 217.894 346.369 217.892 346.403 217.915C353.261 222.533 366.573 231.008 367.741 231.437C367.795 231.416 367.824 231.418 367.824 231.444C367.824 231.46 367.796 231.457 367.741 231.437C367.05 231.704 362.189 235.607 359.991 237.719C359.957 237.752 359.907 237.755 359.867 237.729L338.58 223.386C338.522 223.347 338.521 223.261 338.58 223.221Z" fill="#F1BA4D"/>
<path d="M367.824 231.444C367.824 231.085 362.361 235.442 359.991 237.719C359.957 237.752 359.907 237.755 359.867 237.729L338.58 223.386C338.522 223.347 338.521 223.261 338.58 223.221L346.292 217.917C346.325 217.894 346.369 217.892 346.403 217.915C353.579 222.748 367.824 231.804 367.824 231.444Z" stroke="#F1BA4D"/>
</g>
<g filter="url(#filter2_d_65_857)">
<path d="M326.625 224.396V232.294C326.625 232.328 326.641 232.359 326.669 232.377L333.92 237.218C333.986 237.262 334.075 237.215 334.075 237.135V229.236C334.075 229.203 334.059 229.171 334.031 229.153L326.78 224.312C326.714 224.268 326.625 224.316 326.625 224.396Z" fill="#088FA2" stroke="#017A8B"/>
<path d="M339.335 232.965V240.042C339.335 240.076 339.352 240.108 339.381 240.127L346.194 244.459C346.26 244.501 346.348 244.453 346.348 244.374V236.509C346.348 236.472 346.327 236.438 346.294 236.42L339.481 232.876C339.415 232.841 339.335 232.89 339.335 232.965Z" fill="#088FA2" stroke="#017A8B"/>
<path d="M316.544 243.101V237.062C316.544 236.981 316.634 236.932 316.701 236.977L317.815 237.744C317.843 237.763 317.859 237.794 317.859 237.826V243.1C317.859 243.155 317.814 243.2 317.759 243.2H316.644C316.589 243.2 316.544 243.156 316.544 243.101Z" fill="#C89665" stroke="#C89665"/>
<path d="M346.202 244.632L345.535 244.975C345.497 244.995 345.475 245.037 345.482 245.08L346.149 249.205C346.168 249.326 346.347 249.312 346.347 249.189V244.721C346.347 244.646 346.268 244.597 346.202 244.632Z" stroke="#017A8B" stroke-width="0.5"/>
<path d="M339.335 254.793V250.497C339.335 250.459 339.356 250.424 339.389 250.407L340.066 250.058C340.132 250.023 340.212 250.072 340.212 250.147V254.443C340.212 254.481 340.191 254.515 340.157 254.532L339.481 254.881C339.414 254.916 339.335 254.868 339.335 254.793Z" fill="#017A8B" stroke="#017A8B" stroke-width="0.5"/>
<path d="M331.446 250.271V245.975C331.446 245.938 331.467 245.902 331.5 245.885L332.177 245.536C332.243 245.502 332.322 245.55 332.322 245.625V249.922C332.322 249.959 332.301 249.993 332.268 250.01L331.592 250.359C331.525 250.394 331.446 250.346 331.446 250.271Z" fill="#017A8B" stroke="#017A8B" stroke-width="0.5"/>
<path d="M324.433 245.75V241.453C324.433 241.416 324.454 241.38 324.487 241.363L325.164 241.014C325.23 240.98 325.31 241.028 325.31 241.103V245.4C325.31 245.437 325.289 245.472 325.256 245.489L324.579 245.838C324.512 245.872 324.433 245.825 324.433 245.75Z" fill="#017A8B" stroke="#017A8B" stroke-width="0.5"/>
<path d="M319.173 243.037V238.74C319.173 238.703 319.194 238.667 319.227 238.65L319.904 238.301C319.971 238.267 320.05 238.315 320.05 238.39V242.687C320.05 242.724 320.029 242.758 319.996 242.776L319.319 243.125C319.253 243.159 319.173 243.111 319.173 243.037Z" fill="#017A8B" stroke="#017A8B" stroke-width="0.5"/>
<path d="M344.594 250.335V244.699C344.594 244.63 344.662 244.58 344.727 244.602L345.842 244.985C345.882 244.999 345.909 245.037 345.909 245.08V250.335C345.909 250.39 345.864 250.435 345.809 250.435H344.694C344.639 250.435 344.594 250.39 344.594 250.335Z" fill="#C89665" stroke="#C89665"/>
<path d="M337.144 256.666V251.029C337.144 250.961 337.211 250.91 337.276 250.932L338.391 251.316C338.431 251.33 338.458 251.368 338.458 251.41V256.665C338.458 256.72 338.414 256.765 338.358 256.765H337.244C337.188 256.765 337.144 256.721 337.144 256.666Z" fill="#C89665" stroke="#C89665"/>
<path d="M316.665 236.786L324.377 231.482C324.411 231.459 324.454 231.457 324.488 231.48C331.346 236.098 344.658 244.573 345.827 245.002C345.881 244.981 345.909 244.983 345.909 245.009C345.909 245.025 345.881 245.022 345.827 245.002C345.136 245.269 340.275 249.172 338.077 251.284C338.043 251.317 337.992 251.32 337.953 251.294L316.666 236.952C316.607 236.912 316.607 236.826 316.665 236.786Z" fill="#F1BA4D"/>
<path d="M345.909 245.009C345.909 244.65 340.446 249.007 338.077 251.284C338.043 251.317 337.992 251.32 337.953 251.294L316.666 236.952C316.607 236.912 316.607 236.826 316.665 236.786L324.377 231.482C324.411 231.459 324.454 231.457 324.488 231.48C331.665 236.313 345.909 245.369 345.909 245.009Z" stroke="#F1BA4D"/>
</g>
<path d="M302.433 204.539C302.978 204.845 304.187 205.385 306.281 205.648C306.383 205.66 306.462 205.749 306.459 205.852L305.596 242.804C305.592 242.968 305.404 243.058 305.274 242.958L302.158 240.547C302.109 240.509 302.081 240.451 302.081 240.389V204.733C302.081 204.564 302.286 204.456 302.433 204.539Z" fill="#038699" stroke="#038699"/>
<g filter="url(#filter3_d_65_857)">
<path d="M371.33 194.552V202.451C371.33 202.484 371.347 202.516 371.375 202.534L378.625 207.374C378.692 207.419 378.781 207.371 378.781 207.291V199.393C378.781 199.359 378.764 199.328 378.736 199.309L371.486 194.469C371.419 194.425 371.33 194.472 371.33 194.552Z" fill="#088FA2" stroke="#017A8B"/>
<path d="M384.041 203.121V210.199C384.041 210.233 384.058 210.265 384.087 210.283L390.899 214.615C390.966 214.658 391.053 214.61 391.053 214.531V206.666C391.053 206.629 391.032 206.594 390.999 206.577L384.187 203.033C384.12 202.998 384.041 203.046 384.041 203.121Z" fill="#088FA2" stroke="#017A8B"/>
<path d="M361.25 213.258V207.218C361.25 207.138 361.34 207.088 361.406 207.134L362.521 207.901C362.548 207.919 362.564 207.95 362.564 207.983V213.257C362.564 213.312 362.52 213.357 362.464 213.357H361.35C361.294 213.357 361.25 213.313 361.25 213.258Z" fill="#C89665" stroke="#C89665"/>
<path d="M390.908 214.788L390.241 215.132C390.203 215.152 390.181 215.194 390.188 215.237L390.855 219.361C390.874 219.483 391.053 219.468 391.053 219.345V214.877C391.053 214.802 390.974 214.754 390.908 214.788Z" stroke="#017A8B" stroke-width="0.5"/>
<path d="M384.041 224.95V220.653C384.041 220.616 384.061 220.581 384.095 220.563L384.771 220.214C384.838 220.18 384.917 220.228 384.917 220.303V224.6C384.917 224.637 384.896 224.672 384.863 224.689L384.186 225.038C384.12 225.072 384.041 225.025 384.041 224.95Z" fill="#017A8B" stroke="#017A8B" stroke-width="0.5"/>
<path d="M376.151 220.428V216.132C376.151 216.094 376.172 216.059 376.206 216.042L376.882 215.693C376.949 215.658 377.028 215.707 377.028 215.782V220.078C377.028 220.116 377.007 220.15 376.974 220.167L376.297 220.516C376.231 220.55 376.151 220.503 376.151 220.428Z" fill="#017A8B" stroke="#017A8B" stroke-width="0.5"/>
<path d="M369.139 215.906V211.61C369.139 211.572 369.16 211.537 369.193 211.52L369.869 211.171C369.936 211.136 370.015 211.185 370.015 211.26V215.556C370.015 215.594 369.994 215.628 369.961 215.645L369.285 215.994C369.218 216.029 369.139 215.981 369.139 215.906Z" fill="#017A8B" stroke="#017A8B" stroke-width="0.5"/>
<path d="M363.879 213.193V208.897C363.879 208.859 363.9 208.824 363.934 208.807L364.61 208.458C364.677 208.423 364.756 208.472 364.756 208.547V212.843C364.756 212.881 364.735 212.915 364.702 212.932L364.025 213.281C363.959 213.316 363.879 213.268 363.879 213.193Z" fill="#017A8B" stroke="#017A8B" stroke-width="0.5"/>
<path d="M389.3 220.492V214.855C389.3 214.787 389.367 214.736 389.432 214.759L390.547 215.142C390.588 215.156 390.615 215.194 390.615 215.237V220.491C390.615 220.546 390.57 220.591 390.515 220.591H389.4C389.345 220.591 389.3 220.547 389.3 220.492Z" fill="#C89665" stroke="#C89665"/>
<path d="M381.849 226.822V221.186C381.849 221.117 381.917 221.067 381.982 221.089L383.097 221.472C383.137 221.486 383.164 221.524 383.164 221.567V226.822C383.164 226.877 383.119 226.922 383.064 226.922H381.949C381.894 226.922 381.849 226.877 381.849 226.822Z" fill="#C89665" stroke="#C89665"/>
<path d="M361.371 206.943L369.083 201.639C369.116 201.615 369.16 201.614 369.194 201.637C376.052 206.255 389.364 214.73 390.532 215.159C390.586 215.138 390.615 215.139 390.615 215.165C390.615 215.181 390.587 215.179 390.532 215.159C389.841 215.425 384.981 219.329 382.782 221.441C382.748 221.474 382.698 221.477 382.658 221.45L361.371 207.108C361.313 207.069 361.312 206.983 361.371 206.943Z" fill="#F1BA4D"/>
<path d="M390.615 215.165C390.615 214.806 385.152 219.164 382.782 221.441C382.748 221.474 382.698 221.477 382.658 221.45L361.371 207.108C361.313 207.069 361.312 206.983 361.371 206.943L369.083 201.639C369.116 201.615 369.16 201.614 369.194 201.637C376.37 206.47 390.615 215.526 390.615 215.165Z" stroke="#F1BA4D"/>
</g>
<g filter="url(#filter4_d_65_857)">
<path d="M414.282 221.683V229.581C414.282 229.615 414.299 229.646 414.327 229.664L421.578 234.505C421.644 234.549 421.733 234.502 421.733 234.422V226.523C421.733 226.49 421.716 226.458 421.689 226.44L414.438 221.599C414.371 221.555 414.282 221.603 414.282 221.683Z" fill="#088FA2" stroke="#017A8B"/>
<path d="M426.993 230.252V237.329C426.993 237.363 427.01 237.395 427.039 237.414L433.852 241.746C433.918 241.788 434.005 241.74 434.005 241.661V233.796C434.005 233.759 433.985 233.725 433.951 233.707L427.139 230.163C427.072 230.128 426.993 230.177 426.993 230.252Z" fill="#088FA2" stroke="#017A8B"/>
<path d="M404.202 240.388V234.349C404.202 234.268 404.292 234.219 404.358 234.264L405.473 235.031C405.5 235.05 405.517 235.081 405.517 235.113V240.387C405.517 240.442 405.472 240.487 405.417 240.487H404.302C404.246 240.487 404.202 240.443 404.202 240.388Z" fill="#C89665" stroke="#C89665"/>
<path d="M433.86 241.919L433.193 242.262C433.155 242.282 433.134 242.325 433.14 242.367L433.807 246.492C433.826 246.613 434.005 246.599 434.005 246.476V242.008C434.005 241.933 433.926 241.884 433.86 241.919Z" stroke="#017A8B" stroke-width="0.5"/>
<path d="M426.993 252.08V247.784C426.993 247.746 427.014 247.711 427.047 247.694L427.723 247.345C427.79 247.31 427.869 247.359 427.869 247.434V251.73C427.869 251.768 427.848 251.802 427.815 251.819L427.139 252.168C427.072 252.203 426.993 252.155 426.993 252.08Z" fill="#017A8B" stroke="#017A8B" stroke-width="0.5"/>
<path d="M419.104 247.558V243.262C419.104 243.225 419.124 243.189 419.158 243.172L419.834 242.823C419.901 242.789 419.98 242.837 419.98 242.912V247.209C419.98 247.246 419.959 247.28 419.926 247.297L419.249 247.646C419.183 247.681 419.104 247.633 419.104 247.558Z" fill="#017A8B" stroke="#017A8B" stroke-width="0.5"/>
<path d="M412.091 243.037V238.74C412.091 238.703 412.112 238.667 412.145 238.65L412.822 238.301C412.888 238.267 412.967 238.315 412.967 238.39V242.687C412.967 242.724 412.946 242.759 412.913 242.776L412.237 243.125C412.17 243.159 412.091 243.112 412.091 243.037Z" fill="#017A8B" stroke="#017A8B" stroke-width="0.5"/>
<path d="M406.832 240.324V236.027C406.832 235.99 406.852 235.954 406.886 235.937L407.562 235.588C407.629 235.554 407.708 235.602 407.708 235.677V239.974C407.708 240.011 407.687 240.046 407.654 240.063L406.977 240.412C406.911 240.446 406.832 240.399 406.832 240.324Z" fill="#017A8B" stroke="#017A8B" stroke-width="0.5"/>
<path d="M432.252 247.622V241.986C432.252 241.917 432.32 241.867 432.384 241.889L433.499 242.272C433.54 242.286 433.567 242.324 433.567 242.367V247.622C433.567 247.677 433.522 247.722 433.467 247.722H432.352C432.297 247.722 432.252 247.677 432.252 247.622Z" fill="#C89665" stroke="#C89665"/>
<path d="M424.801 253.953V248.316C424.801 248.248 424.869 248.197 424.934 248.219L426.049 248.603C426.089 248.617 426.116 248.655 426.116 248.697V253.952C426.116 254.007 426.071 254.052 426.016 254.052H424.901C424.846 254.052 424.801 254.008 424.801 253.953Z" fill="#C89665" stroke="#C89665"/>
<path d="M404.323 234.073L412.035 228.769C412.069 228.746 412.112 228.745 412.146 228.768C419.004 233.385 432.316 241.86 433.485 242.289C433.538 242.268 433.567 242.27 433.567 242.296C433.567 242.312 433.539 242.309 433.485 242.289C432.793 242.556 427.933 246.459 425.735 248.571C425.701 248.604 425.65 248.607 425.611 248.581L404.323 234.239C404.265 234.199 404.265 234.113 404.323 234.073Z" fill="#F1BA4D"/>
<path d="M433.567 242.296C433.567 241.937 428.104 246.295 425.735 248.571C425.701 248.604 425.65 248.607 425.611 248.581L404.323 234.239C404.265 234.199 404.265 234.113 404.323 234.073L412.035 228.769C412.069 228.746 412.112 228.745 412.146 228.768C419.323 233.6 433.567 242.656 433.567 242.296Z" stroke="#C89665"/>
</g>
<g filter="url(#filter5_d_65_857)">
<path d="M393.244 236.152V244.051C393.244 244.084 393.261 244.115 393.289 244.134L400.54 248.974C400.606 249.019 400.695 248.971 400.695 248.891V240.993C400.695 240.959 400.678 240.928 400.651 240.909L393.4 236.069C393.333 236.025 393.244 236.072 393.244 236.152Z" fill="#088FA2" stroke="#017A8B"/>
<path d="M405.955 244.721V251.799C405.955 251.833 405.972 251.865 406.001 251.883L412.814 256.215C412.88 256.258 412.967 256.21 412.967 256.131V248.266C412.967 248.228 412.946 248.194 412.913 248.177L406.101 244.633C406.034 244.598 405.955 244.646 405.955 244.721Z" fill="#088FA2" stroke="#017A8B"/>
<path d="M383.164 254.858V248.818C383.164 248.738 383.254 248.688 383.32 248.734L384.435 249.501C384.462 249.519 384.478 249.55 384.478 249.583V254.857C384.478 254.912 384.434 254.957 384.378 254.957H383.264C383.208 254.957 383.164 254.913 383.164 254.858Z" fill="#C89665" stroke="#C89665"/>
<path d="M412.821 256.388L412.155 256.732C412.116 256.752 412.095 256.794 412.102 256.837L412.768 260.961C412.788 261.083 412.967 261.068 412.967 260.945V256.477C412.967 256.402 412.888 256.354 412.821 256.388Z" stroke="#017A8B" stroke-width="0.5"/>
<path d="M405.955 266.55V262.253C405.955 262.216 405.975 262.181 406.009 262.163L406.685 261.814C406.752 261.78 406.831 261.828 406.831 261.903V266.2C406.831 266.237 406.81 266.272 406.777 266.289L406.1 266.638C406.034 266.672 405.955 266.625 405.955 266.55Z" fill="#017A8B" stroke="#017A8B" stroke-width="0.5"/>
<path d="M398.065 262.028V257.732C398.065 257.694 398.086 257.659 398.12 257.642L398.796 257.293C398.863 257.258 398.942 257.307 398.942 257.382V261.678C398.942 261.716 398.921 261.75 398.888 261.767L398.211 262.116C398.145 262.15 398.065 262.103 398.065 262.028Z" fill="#017A8B" stroke="#017A8B" stroke-width="0.5"/>
<path d="M391.053 257.506V253.21C391.053 253.173 391.074 253.137 391.107 253.12L391.783 252.771C391.85 252.737 391.929 252.785 391.929 252.86V257.156C391.929 257.194 391.908 257.228 391.875 257.245L391.199 257.594C391.132 257.629 391.053 257.581 391.053 257.506Z" fill="#017A8B" stroke="#017A8B" stroke-width="0.5"/>
<path d="M385.793 254.793V250.497C385.793 250.459 385.814 250.424 385.847 250.407L386.524 250.058C386.59 250.023 386.67 250.072 386.67 250.147V254.443C386.67 254.481 386.649 254.515 386.615 254.532L385.939 254.881C385.872 254.916 385.793 254.868 385.793 254.793Z" fill="#017A8B" stroke="#017A8B" stroke-width="0.5"/>
<path d="M411.214 262.092V256.455C411.214 256.387 411.281 256.336 411.346 256.359L412.461 256.742C412.502 256.756 412.529 256.794 412.529 256.837V262.091C412.529 262.146 412.484 262.191 412.429 262.191H411.314C411.259 262.191 411.214 262.147 411.214 262.092Z" fill="#C89665" stroke="#C89665"/>
<path d="M403.763 268.422V262.786C403.763 262.717 403.831 262.667 403.896 262.689L405.011 263.072C405.051 263.086 405.078 263.124 405.078 263.167V268.422C405.078 268.477 405.033 268.522 404.978 268.522H403.863C403.808 268.522 403.763 268.477 403.763 268.422Z" fill="#C89665" stroke="#C89665"/>
<path d="M383.285 248.543L390.997 243.239C391.03 243.215 391.074 243.214 391.108 243.237C397.966 247.855 411.278 256.33 412.446 256.759C412.5 256.738 412.529 256.739 412.529 256.765C412.529 256.781 412.501 256.779 412.446 256.759C411.755 257.025 406.895 260.929 404.696 263.041C404.662 263.074 404.612 263.077 404.572 263.05L383.285 248.708C383.227 248.669 383.226 248.583 383.285 248.543Z" fill="#F1BA4D"/>
<path d="M412.529 256.765C412.529 256.406 407.066 260.764 404.696 263.041C404.662 263.074 404.612 263.077 404.572 263.05L383.285 248.708C383.227 248.669 383.226 248.583 383.285 248.543L390.997 243.239C391.03 243.215 391.074 243.214 391.108 243.237C398.284 248.07 412.529 257.126 412.529 256.765Z" stroke="#F1BA4D"/>
</g>
<g filter="url(#filter6_d_65_857)">
<path d="M372.207 251.526V259.425C372.207 259.458 372.223 259.489 372.251 259.508L379.502 264.348C379.568 264.393 379.657 264.345 379.657 264.265V256.367C379.657 256.333 379.641 256.302 379.613 256.283L372.362 251.443C372.296 251.399 372.207 251.446 372.207 251.526Z" fill="#088FA2" stroke="#017A8B"/>
<path d="M384.917 260.095V267.173C384.917 267.207 384.934 267.239 384.963 267.257L391.776 271.589C391.843 271.632 391.93 271.584 391.93 271.505V263.64C391.93 263.602 391.909 263.568 391.876 263.551L385.063 260.006C384.997 259.972 384.917 260.02 384.917 260.095Z" fill="#088FA2" stroke="#017A8B"/>
<path d="M362.126 270.232V264.192C362.126 264.112 362.216 264.062 362.283 264.108L363.398 264.875C363.425 264.893 363.441 264.924 363.441 264.957V270.23C363.441 270.286 363.396 270.33 363.341 270.33H362.226C362.171 270.33 362.126 270.287 362.126 270.232Z" fill="#C89665" stroke="#C89665"/>
<path d="M391.784 271.762L391.117 272.106C391.079 272.126 391.057 272.168 391.064 272.211L391.731 276.335C391.75 276.457 391.929 276.442 391.929 276.319V271.851C391.929 271.776 391.85 271.728 391.784 271.762Z" stroke="#017A8B" stroke-width="0.5"/>
<path d="M384.917 281.924V277.627C384.917 277.59 384.938 277.554 384.971 277.537L385.648 277.188C385.714 277.154 385.794 277.202 385.794 277.277V281.574C385.794 281.611 385.773 281.646 385.739 281.663L385.063 282.012C384.996 282.046 384.917 281.999 384.917 281.924Z" fill="#017A8B" stroke="#017A8B" stroke-width="0.5"/>
<path d="M377.028 277.402V273.106C377.028 273.068 377.049 273.033 377.082 273.016L377.759 272.667C377.825 272.632 377.904 272.681 377.904 272.755V277.052C377.904 277.09 377.884 277.124 377.85 277.141L377.174 277.49C377.107 277.524 377.028 277.477 377.028 277.402Z" fill="#017A8B" stroke="#017A8B" stroke-width="0.5"/>
<path d="M370.015 272.88V268.584C370.015 268.546 370.036 268.511 370.069 268.494L370.746 268.145C370.812 268.11 370.892 268.159 370.892 268.234V272.53C370.892 272.568 370.871 272.602 370.838 272.619L370.161 272.968C370.094 273.003 370.015 272.955 370.015 272.88Z" fill="#017A8B" stroke="#017A8B" stroke-width="0.5"/>
<path d="M364.756 270.167V265.871C364.756 265.833 364.777 265.798 364.81 265.781L365.487 265.432C365.553 265.397 365.632 265.446 365.632 265.521V269.817C365.632 269.855 365.612 269.889 365.578 269.906L364.902 270.255C364.835 270.289 364.756 270.242 364.756 270.167Z" fill="#017A8B" stroke="#017A8B" stroke-width="0.5"/>
<path d="M390.176 277.466V271.829C390.176 271.761 390.244 271.71 390.309 271.732L391.424 272.116C391.464 272.13 391.491 272.168 391.491 272.21V277.465C391.491 277.52 391.446 277.565 391.391 277.565H390.276C390.221 277.565 390.176 277.521 390.176 277.466Z" fill="#C89665" stroke="#C89665"/>
<path d="M382.726 283.796V278.16C382.726 278.091 382.793 278.041 382.858 278.063L383.973 278.446C384.013 278.46 384.04 278.498 384.04 278.541V283.796C384.04 283.851 383.996 283.896 383.94 283.896H382.826C382.77 283.896 382.726 283.851 382.726 283.796Z" fill="#C89665" stroke="#C89665"/>
<path d="M362.247 263.917L369.959 258.612C369.993 258.589 370.036 258.588 370.07 258.611C376.928 263.229 390.24 271.704 391.409 272.133C391.463 272.112 391.491 272.113 391.491 272.139C391.491 272.155 391.463 272.153 391.409 272.133C390.718 272.399 385.857 276.302 383.659 278.415C383.625 278.447 383.574 278.451 383.535 278.424L362.248 264.082C362.189 264.043 362.189 263.957 362.247 263.917Z" fill="#F1BA4D"/>
<path d="M391.491 272.139C391.491 271.78 386.028 276.138 383.659 278.415C383.625 278.447 383.574 278.451 383.535 278.424L362.248 264.082C362.189 264.043 362.189 263.957 362.247 263.917L369.959 258.612C369.993 258.589 370.036 258.588 370.07 258.611C377.247 263.443 391.491 272.5 391.491 272.139Z" stroke="#C89665"/>
</g>
<path d="M386.232 294.112V256.366C386.232 256.333 386.248 256.302 386.276 256.283L450.616 212.482C450.644 212.463 450.66 212.432 450.66 212.399V209.464C450.66 209.386 450.745 209.338 450.812 209.378L455.871 212.423C455.901 212.441 455.92 212.474 455.92 212.509V249.024C455.92 249.058 455.902 249.089 455.874 249.108L386.386 294.195C386.32 294.239 386.232 294.191 386.232 294.112Z" fill="#186EA2" stroke="#017A8B" stroke-width="0.5"/>
<path d="M317.421 212L316.982 250.435" stroke="white" stroke-width="1.5"/>
<path d="M306.462 242.702C306.441 242.073 306.234 234.668 306.898 205.844C306.899 205.768 306.983 205.717 307.048 205.756L331.395 220.109C331.426 220.128 331.445 220.162 331.444 220.199L330.137 258.394C330.134 258.473 330.047 258.518 329.981 258.474L306.506 242.776C306.479 242.758 306.463 242.734 306.462 242.702Z" fill="white" fill-opacity="0.3" stroke="white" stroke-width="1.5"/>
<path d="M369.834 246.33L368.957 282.504" stroke="white" stroke-width="1.5"/>
<path d="M358.002 276.119C358.026 275.471 358.261 268.757 358.921 240.175C358.923 240.098 359.006 240.048 359.072 240.087L383.419 254.44C383.45 254.458 383.469 254.492 383.468 254.528L382.985 291.372C382.984 291.449 382.899 291.496 382.832 291.455L358.05 276.205C358.019 276.186 358.001 276.155 358.002 276.119Z" fill="white" fill-opacity="0.3" stroke="white" stroke-width="1.5"/>
<path d="M466 263.493V256.947C466 256.868 465.913 256.82 465.846 256.862L383.217 309.184C383.184 309.204 383.143 309.204 383.11 309.184L292.153 251.888C292.087 251.846 292 251.894 292 251.972V258.97C292 259.005 292.018 259.037 292.047 259.055L383.987 315.967C384.019 315.987 384.061 315.987 384.093 315.966L465.954 263.577C465.983 263.559 466 263.527 466 263.493Z" fill="#A87E40" stroke="#A87E40" stroke-width="1.5"/>
<path d="M292 251.339V243.835C292 243.756 292.086 243.705 292.153 243.747L384.04 300.626L464.097 247.784C464.744 247.357 465.609 247.796 465.647 248.57L466 255.861L383.164 308.765L292 251.339Z" fill="#046270" stroke="#025D69"/>
<path d="M385.108 254.833C385.655 255.606 386.622 256.501 388.241 256.741C388.343 256.756 388.422 256.844 388.419 256.948L387.555 293.939C387.552 294.095 387.378 294.187 387.247 294.102L384.133 292.095C384.076 292.057 384.041 291.993 384.042 291.924L384.463 254.99C384.466 254.759 384.974 254.645 385.108 254.833Z" fill="#038699" stroke="#038699"/>
<path d="M306.196 205.579L302.67 205.124C301.737 205.004 301.471 203.78 302.269 203.283L370.715 160.656C371.36 160.254 372.177 160.253 372.824 160.652L453.281 210.369C454.517 211.133 454.551 212.92 453.345 213.731L389.088 256.928C388.419 257.377 387.547 257.382 386.874 256.94L385.721 256.183C384.515 255.392 384.519 253.622 385.728 252.835L445.803 213.735C447.038 212.931 447.009 211.114 445.75 210.349L372.818 166.063C372.174 165.672 371.365 165.676 370.725 166.073L307.506 205.294C307.115 205.537 306.653 205.637 306.196 205.579Z" fill="#038699"/>
</g>
<path fill-rule="evenodd" clip-rule="evenodd" d="M237.282 142.553C219.67 126.993 278.676 98.43 278.676 98.43C282.307 98.43 289.567 98.43 296.827 90.302C304.088 83.3352 310.743 68.2404 318.003 68.2404C325.264 68.2404 332.524 83.3352 339.785 83.3352C347.045 83.3352 354.305 68.2404 361.566 57.7901C368.826 48.501 375.482 43.8565 382.742 50.8233C390.002 57.7901 397.263 78.6906 404.523 87.9797C411.783 98.43 419.044 98.43 426.304 85.6575C433.565 72.8849 440.22 48.501 447.48 31.0839C454.741 13.6668 462.001 4.37772 469.262 13.6668C476.522 24.1171 483.782 53.1456 491.043 61.2735C498.303 68.2404 504.958 53.1456 512.219 50.8233C519.479 48.501 526.74 57.7901 530.37 63.5958L534 68.2404V142.553H530.37C526.74 142.553 519.479 142.553 512.219 142.553C504.958 142.553 498.303 142.553 491.043 142.553C483.782 142.553 476.522 142.553 469.262 142.553C462.001 142.553 454.741 142.553 447.48 142.553C440.22 142.553 433.565 142.553 426.304 142.553C419.044 142.553 411.783 142.553 404.523 142.553C397.263 142.553 390.002 142.553 382.742 142.553C375.482 142.553 368.826 142.553 361.566 142.553C354.305 142.553 347.045 142.553 339.785 142.553C332.524 142.553 325.264 142.553 318.003 142.553C310.743 142.553 304.088 142.553 296.827 142.553C289.567 142.553 282.307 142.553 278.676 142.553H275.046C275.046 142.553 248.607 152.558 237.282 142.553Z" fill="#088FA2" fill-opacity="0.11"/>
<path fill-rule="evenodd" clip-rule="evenodd" d="M296.718 140.553C314.33 124.993 255.324 96.43 255.324 96.43C251.693 96.43 244.433 96.43 237.173 88.302C229.912 81.3352 223.257 66.2404 215.997 66.2404C208.736 66.2404 201.476 81.3352 194.215 81.3352C186.955 81.3352 179.695 66.2404 172.434 55.7901C165.174 46.501 158.518 41.8565 151.258 48.8233C143.998 55.7901 136.737 76.6906 129.477 85.9797C122.217 96.43 114.956 96.43 107.696 83.6575C100.435 70.8849 93.78 46.501 86.5196 29.0839C79.2592 11.6668 71.9989 2.37772 64.7385 11.6668C57.4781 22.1171 50.2177 51.1456 42.9573 59.2735C35.6969 66.2404 29.0416 51.1456 21.7812 48.8233C14.5208 46.501 7.26042 55.7901 3.63023 61.5958L1.59244e-05 66.2404V140.553H3.63023C7.26042 140.553 14.5208 140.553 21.7812 140.553C29.0416 140.553 35.6969 140.553 42.9573 140.553C50.2177 140.553 57.4781 140.553 64.7385 140.553C71.9989 140.553 79.2592 140.553 86.5196 140.553C93.78 140.553 100.435 140.553 107.696 140.553C114.956 140.553 122.217 140.553 129.477 140.553C136.737 140.553 143.998 140.553 151.258 140.553C158.518 140.553 165.174 140.553 172.434 140.553C179.695 140.553 186.955 140.553 194.215 140.553C201.476 140.553 208.736 140.553 215.997 140.553C223.257 140.553 229.912 140.553 237.173 140.553C244.433 140.553 251.693 140.553 255.324 140.553H258.954C258.954 140.553 285.393 150.558 296.718 140.553Z" fill="#088FA2" fill-opacity="0.11"/>
<path d="M111.046 194C112.952 188.192 118.046 180 118.046 180L293.046 171C293.046 171 330.546 161.5 299.546 180C268.546 198.5 231.046 272.5 199.046 249.5C167.046 226.5 109.139 199.808 111.046 194Z" fill="#039CB0" fill-opacity="0.2"/>
<g filter="url(#filter7_i_65_857)">
<path d="M199.546 215.5L115.046 164L210.546 104.5L295.046 156.5L199.546 215.5Z" fill="#00A2B7" stroke="#038699"/>
<path d="M220.546 174V174.625" stroke="#ABABB3" stroke-width="0.5"/>
<path d="M114.546 172.5V164L199.546 215.5L295.546 156.5V165L198.546 224.5L141.046 189.5L114.546 172.5Z" fill="#038699" stroke="#038699"/>
<path d="M114.846 182V173.5L200.046 224.5L295.546 165.5V173.5L199.31 234L141.492 199L114.846 182Z" fill="#B1823B" stroke="#906834" stroke-opacity="0.3"/>
<path d="M187.046 185L213.546 169L220.546 174V176.5L213.546 172L187.046 188L142.546 161.5V158.5L187.046 185Z" fill="#A7A7B1"/>
<path d="M213.546 169L187.046 185M213.546 169V172M213.546 169L220.546 174V176.5L213.546 172M187.046 185L142.546 158.5V161.5L187.046 188M187.046 185V188M187.046 188L213.546 172" stroke="#ABABB3" stroke-width="0.5"/>
<path d="M240.046 163.5V161L221.046 173.5V176.5L240.046 163.5Z" fill="#A7A7B1" stroke="#ABABB3" stroke-width="0.5"/>
<path d="M249.046 149.5V147.5L237.546 155V157L249.046 149.5Z" fill="#A7A7B1" stroke="#ABABB3" stroke-width="0.5"/>
<g filter="url(#filter8_f_65_857)">
<path d="M142.046 166.5L145.046 163.5L249.046 149.5C249.968 150.422 251.824 152.109 252.422 152.053C252.544 151.977 252.59 151.955 252.546 152C252.515 152.031 252.473 152.048 252.422 152.053C251.45 152.663 245.656 156.779 242.546 159L245.546 165L222.546 181L215.046 179L189.046 194.5L142.046 166.5Z" fill="#218C9A"/>
</g>
<path d="M187.046 180.5V145.5L243.046 111V145.5L187.046 180.5Z" fill="white" stroke="#F7F7F7" stroke-width="0.5"/>
<path d="M219.046 151.5L210.546 165L230.046 153L242.046 137.5L219.046 151.5Z" fill="#D9D9D9" fill-opacity="0.5"/>
<path d="M158.546 162.5V138.5L171.046 146.291V170L158.546 162.5Z" fill="#6F631D" stroke="#878264"/>
<path d="M147.046 156V117.819L165.546 117L187.046 146.5L186.546 180L172.046 171.5V170V146L158.046 137.5V162.5L156.046 162L147.046 156Z" fill="white" stroke="#F7F7F7"/>
<path d="M224.046 81L166.046 116L144.046 117L202.046 82L224.046 81Z" fill="#088FA2"/>
<path d="M166.546 116L144.046 117L202.046 82L224.046 81" stroke="#038699"/>
<path d="M224.046 81L166.046 116L187.046 145L244.546 109L224.046 81Z" fill="#00A2B7" stroke="#039CB0"/>
<path d="M196.046 154V146L201.546 142.5V150.5L196.046 154Z" fill="#088FA2" stroke="#038699"/>
<path d="M231.046 133V125L236.546 122V129.5L231.046 133Z" fill="#088FA2" stroke="#038699"/>
<path d="M231.046 143V135L236.546 132V139.5L231.046 143Z" fill="#088FA2" stroke="#038699"/>
<path d="M204.046 149.5V141.5L209.546 138.5V146L204.046 149.5Z" fill="#088FA2" stroke="#038699"/>
<path d="M202.046 152.5L196.046 156.5V164L202.046 160.5V152.5Z" fill="#039CB0" stroke="#038699"/>
<path d="M210.046 148L204.046 151.5V159.5L210.046 156V148Z" fill="#039CB0" stroke="#038699"/>
<path d="M210.546 165.5V145L230.046 138V153.5L210.546 165.5Z" fill="#D9D9D9" fill-opacity="0.59"/>
<path d="M237.546 155.5L234.546 157.5L237.546 159.5V155.5Z" fill="white" stroke="#D9D9D9" stroke-width="0.5"/>
<path d="M142.546 158.5L146.546 155.5L187.046 180L243.046 145.5V142L249.046 147.5L234.046 157.5L240.046 161L220.546 174L213.546 169L187.046 185L142.546 158.5Z" fill="#AAAAB3" stroke="#B1B1BB" stroke-width="0.5"/>
<path d="M214.046 169V149L218.046 152.5L220.046 151.5V171.5L218.546 172L214.046 169Z" fill="white"/>
<path d="M218.546 172L214.046 169V149L218.046 152.5M218.546 172L218.046 152.5M218.546 172L220.046 171.5V151.5L218.046 152.5" stroke="#F7F7F7" stroke-width="0.5"/>
<path d="M232.046 158V141.5L236.046 142L237.046 141V159L236.046 160L232.046 158Z" fill="white"/>
<path d="M236.046 160L232.046 158V141.5L236.046 142M236.046 160V142M236.046 160L237.046 159V141L236.046 142" stroke="#F7F7F7" stroke-width="0.5"/>
<path d="M219.046 151L206.046 140.83L227.546 127L241.046 137.5L219.046 151Z" fill="#039CB0" stroke="#038699"/>
</g>
<path d="M300.5 170C299.796 170 299 169.5 299 169.5V145H302V169.5C302 169.5 301.204 170 300.5 170Z" fill="#346C5F" stroke="#346C5F"/>
<g filter="url(#filter9_i_65_857)">
<path d="M290.752 131.011L290.848 131.587C290.947 132.181 291.229 132.729 291.654 133.154C292.196 133.696 292.93 134 293.696 134H294L292 135L290.5 136C289.833 136.5 288.4 137.6 288 138C287.774 138.226 287.644 138.676 287.573 139.114C287.481 139.687 287.672 140.258 287.994 140.74L288.317 141.226C288.436 141.404 288.607 141.543 288.806 141.622L289.005 141.702C289.778 142.011 289.823 143.089 289.078 143.461C289.026 143.487 288.977 143.517 288.93 143.552L287.493 144.63C287.172 144.871 286.932 145.204 286.805 145.585C286.613 146.162 286.698 146.796 287.035 147.303L287.316 147.723C287.436 147.905 287.602 148.051 287.797 148.149L289.16 148.83C289.655 149.077 289.603 149.799 289.079 149.974C289.027 149.991 288.977 150.016 288.931 150.046L287.821 150.786C287.608 150.928 287.377 151.041 287.134 151.122L286.961 151.18C286.346 151.385 285.837 151.826 285.547 152.406C285.203 153.095 285.203 153.905 285.547 154.594L285.653 154.806C285.88 155.261 286.222 155.648 286.645 155.93L287.5 156.5L289 157.5L289.944 157.972C290.639 158.319 291.404 158.5 292.18 158.5H294.645C294.881 158.5 295.118 158.517 295.352 158.55L298.148 158.95C298.382 158.983 298.619 159 298.855 159H301.145C301.381 159 301.617 158.983 301.851 158.95L305 158.5C306.501 158.286 307.495 158.061 308.119 157.874C308.728 157.691 309.3 157.371 309.885 157.121L311.675 156.354C312.22 156.12 312.715 155.785 313.135 155.365L313.793 154.707C314.246 154.254 314.5 153.64 314.5 153C314.5 152.36 314.246 151.746 313.793 151.293L313.5 151L312.518 150.018C312.186 149.686 311.737 149.5 311.268 149.5H310.207C309.817 149.5 309.5 149.183 309.5 148.793C309.5 148.605 309.574 148.426 309.707 148.293L310.578 147.422C310.857 147.143 311.09 146.82 311.267 146.466L311.841 145.318C311.947 145.106 312.037 144.888 312.112 144.663L312.5 143.5C312.9 142.3 311.667 141.667 311 141.5L309.71 141.07C309.014 140.838 308.89 139.907 309.5 139.5C310.238 139.008 310.636 138.49 310.833 138.087C311.012 137.72 310.95 137.299 310.851 136.903L310.766 136.563C310.592 135.868 310.232 135.232 309.725 134.725L309.26 134.26C309.09 134.09 308.878 133.965 308.646 133.899L308.054 133.73C307.085 133.453 306.913 132.152 307.778 131.633C307.924 131.546 308.049 131.426 308.144 131.284L308.711 130.433C308.903 130.145 309.065 129.838 309.193 129.517L309.257 129.357C309.734 128.165 309.734 126.835 309.257 125.643L309.149 125.372C309.05 125.124 308.931 124.885 308.794 124.656L308.239 123.731C307.756 122.927 307.054 122.277 306.216 121.858C305.742 121.621 305.233 121.462 304.708 121.387L302.766 121.109C302.258 121.037 301.743 121.043 301.237 121.127L299.387 121.436C299.129 121.478 298.876 121.541 298.628 121.624L296.521 122.326C296.175 122.442 295.842 122.595 295.529 122.782L294.572 123.357C293.868 123.779 293.279 124.368 292.857 125.072L292 126.5L291.185 128.13C290.74 129.02 290.588 130.029 290.752 131.011Z" fill="#67AD15"/>
</g>
<path d="M295 134H294M294 134H293.696C292.93 134 292.196 133.696 291.654 133.154C291.229 132.729 290.947 132.181 290.848 131.587L290.752 131.011C290.588 130.029 290.74 129.02 291.185 128.13L292 126.5L292.857 125.072C293.279 124.368 293.868 123.779 294.572 123.357L295.529 122.782C295.842 122.595 296.175 122.442 296.521 122.326L298.628 121.624C298.876 121.541 299.129 121.478 299.387 121.436L301.237 121.127C301.743 121.043 302.258 121.037 302.766 121.109L304.708 121.387C305.233 121.462 305.742 121.621 306.216 121.858C307.054 122.277 307.756 122.927 308.239 123.731L308.794 124.656C308.931 124.885 309.05 125.124 309.149 125.372L309.257 125.643C309.734 126.835 309.734 128.165 309.257 129.357L309.193 129.517C309.065 129.838 308.903 130.145 308.711 130.433L308.144 131.284C308.049 131.426 307.924 131.546 307.778 131.633C306.913 132.152 307.085 133.453 308.054 133.73L308.646 133.899C308.878 133.965 309.09 134.09 309.26 134.26L309.725 134.725C310.232 135.232 310.592 135.868 310.766 136.563L310.851 136.903C310.95 137.299 311.012 137.72 310.833 138.087C310.636 138.49 310.238 139.008 309.5 139.5C308.89 139.907 309.014 140.838 309.71 141.07L311 141.5C311.667 141.667 312.9 142.3 312.5 143.5C312.311 144.068 312.188 144.435 312.112 144.663C312.037 144.888 311.947 145.106 311.841 145.318L311.267 146.466C311.09 146.82 310.857 147.143 310.578 147.422L309.707 148.293C309.574 148.426 309.5 148.605 309.5 148.793C309.5 149.183 309.817 149.5 310.207 149.5H311.268C311.737 149.5 312.186 149.686 312.518 150.018L313.5 151L313.793 151.293C314.246 151.746 314.5 152.36 314.5 153C314.5 153.64 314.246 154.254 313.793 154.707L313.135 155.365C312.715 155.785 312.22 156.12 311.675 156.354L309.885 157.121C309.3 157.371 308.728 157.691 308.119 157.874C307.495 158.061 306.501 158.286 305 158.5C303.226 158.753 302.295 158.886 301.851 158.95C301.617 158.983 301.381 159 301.145 159H298.855C298.619 159 298.382 158.983 298.148 158.95L295.352 158.55C295.118 158.517 294.881 158.5 294.645 158.5H292.18C291.404 158.5 290.639 158.319 289.944 157.972L289 157.5L287.5 156.5L286.645 155.93C286.222 155.648 285.88 155.261 285.653 154.806L285.547 154.594C285.203 153.905 285.203 153.095 285.547 152.406C285.837 151.826 286.346 151.385 286.961 151.18L287.134 151.122C287.377 151.041 287.608 150.928 287.821 150.786L288.931 150.046C288.977 150.016 289.027 149.991 289.079 149.974C289.603 149.799 289.655 149.077 289.16 148.83L287.797 148.149C287.602 148.051 287.436 147.905 287.316 147.723L287.035 147.303C286.698 146.796 286.613 146.162 286.805 145.585C286.932 145.204 287.172 144.871 287.493 144.63L288.93 143.552C288.977 143.517 289.026 143.487 289.078 143.461C289.823 143.089 289.778 142.011 289.005 141.702L288.806 141.622C288.607 141.543 288.436 141.404 288.317 141.226L287.994 140.74C287.672 140.258 287.481 139.687 287.573 139.114C287.644 138.676 287.774 138.226 288 138C288.4 137.6 289.833 136.5 290.5 136L292 135L294 134Z" stroke="#53A934"/>
<path d="M291.067 167.966L294.834 166.083C295.597 165.702 296.447 165.52 297.3 165.559L306.16 165.962C306.714 165.987 307.256 166.128 307.752 166.376L308.376 166.688C310.263 167.631 310.835 170.054 309.569 171.741C309.197 172.238 308.695 172.622 308.12 172.852L306.085 173.666C304.759 174.197 304.003 175.168 304.754 176.382C305.157 177.033 305.721 177.888 306.5 179C309.505 182.339 302.731 184.749 297.114 185.939C295.223 186.34 293.316 185.474 292.244 183.866L290.243 180.865C289.52 179.781 288.444 179.556 289.365 178.635C290.868 177.132 291.357 173.026 290.118 171.3C290.066 171.229 290.017 171.157 289.969 171.086C289.218 169.964 289.859 168.57 291.067 167.966Z" fill="#017A8B" fill-opacity="0.18"/>
<path d="M404.5 314C403.796 314 403 313.5 403 313.5V289H406V313.5C406 313.5 405.204 314 404.5 314Z" fill="#346C5F" stroke="#346C5F"/>
<g filter="url(#filter10_i_65_857)">
<path d="M394.752 275.011L394.848 275.587C394.947 276.181 395.229 276.729 395.654 277.154C396.196 277.696 396.93 278 397.696 278H398L396 279L394.5 280C393.833 280.5 392.4 281.6 392 282C391.774 282.226 391.644 282.676 391.573 283.114C391.481 283.687 391.672 284.258 391.994 284.74L392.317 285.226C392.436 285.404 392.607 285.543 392.806 285.622L393.005 285.702C393.778 286.011 393.823 287.089 393.078 287.461C393.026 287.487 392.977 287.517 392.93 287.552L391.493 288.63C391.172 288.871 390.932 289.204 390.805 289.585C390.613 290.162 390.698 290.796 391.035 291.303L391.316 291.723C391.436 291.905 391.602 292.051 391.797 292.149L393.16 292.83C393.655 293.077 393.603 293.799 393.079 293.974C393.027 293.991 392.977 294.016 392.931 294.046L391.821 294.786C391.608 294.928 391.377 295.041 391.134 295.122L390.961 295.18C390.346 295.385 389.837 295.826 389.547 296.406C389.203 297.095 389.203 297.905 389.547 298.594L389.653 298.806C389.88 299.261 390.222 299.648 390.645 299.93L391.5 300.5L393 301.5L393.944 301.972C394.639 302.319 395.404 302.5 396.18 302.5H398.645C398.881 302.5 399.118 302.517 399.352 302.55L402.148 302.95C402.382 302.983 402.619 303 402.855 303H405.145C405.381 303 405.617 302.983 405.851 302.95L409 302.5C410.501 302.286 411.495 302.061 412.119 301.874C412.728 301.691 413.3 301.371 413.885 301.121L415.675 300.354C416.22 300.12 416.715 299.785 417.135 299.365L417.793 298.707C418.246 298.254 418.5 297.64 418.5 297C418.5 296.36 418.246 295.746 417.793 295.293L417.5 295L416.518 294.018C416.186 293.686 415.737 293.5 415.268 293.5H414.207C413.817 293.5 413.5 293.183 413.5 292.793C413.5 292.605 413.574 292.426 413.707 292.293L414.578 291.422C414.857 291.143 415.09 290.82 415.267 290.466L415.841 289.318C415.947 289.106 416.037 288.888 416.112 288.663L416.5 287.5C416.9 286.3 415.667 285.667 415 285.5L413.71 285.07C413.014 284.838 412.89 283.907 413.5 283.5C414.238 283.008 414.636 282.49 414.833 282.087C415.012 281.72 414.95 281.299 414.851 280.903L414.766 280.563C414.592 279.868 414.232 279.232 413.725 278.725L413.26 278.26C413.09 278.09 412.878 277.965 412.646 277.899L412.054 277.73C411.085 277.453 410.913 276.152 411.778 275.633C411.924 275.546 412.049 275.426 412.144 275.284L412.711 274.433C412.903 274.145 413.065 273.838 413.193 273.517L413.257 273.357C413.734 272.165 413.734 270.835 413.257 269.643L413.149 269.372C413.05 269.124 412.931 268.885 412.794 268.656L412.239 267.731C411.756 266.927 411.054 266.277 410.216 265.858C409.742 265.621 409.233 265.462 408.708 265.387L406.766 265.109C406.258 265.037 405.743 265.043 405.237 265.127L403.387 265.436C403.129 265.478 402.876 265.541 402.628 265.624L400.521 266.326C400.175 266.442 399.842 266.595 399.529 266.782L398.572 267.357C397.868 267.779 397.279 268.368 396.857 269.072L396 270.5L395.185 272.13C394.74 273.02 394.588 274.029 394.752 275.011Z" fill="#67AD15"/>
</g>
<path d="M399 278H398M398 278H397.696C396.93 278 396.196 277.696 395.654 277.154C395.229 276.729 394.947 276.181 394.848 275.587L394.752 275.011C394.588 274.029 394.74 273.02 395.185 272.13L396 270.5L396.857 269.072C397.279 268.368 397.868 267.779 398.572 267.357L399.529 266.782C399.842 266.595 400.175 266.442 400.521 266.326L402.628 265.624C402.876 265.541 403.129 265.478 403.387 265.436L405.237 265.127C405.743 265.043 406.258 265.037 406.766 265.109L408.708 265.387C409.233 265.462 409.742 265.621 410.216 265.858C411.054 266.277 411.756 266.927 412.239 267.731L412.794 268.656C412.931 268.885 413.05 269.124 413.149 269.372L413.257 269.643C413.734 270.835 413.734 272.165 413.257 273.357L413.193 273.517C413.065 273.838 412.903 274.145 412.711 274.433L412.144 275.284C412.049 275.426 411.924 275.546 411.778 275.633C410.913 276.152 411.085 277.453 412.054 277.73L412.646 277.899C412.878 277.965 413.09 278.09 413.26 278.26L413.725 278.725C414.232 279.232 414.592 279.868 414.766 280.563L414.851 280.903C414.95 281.299 415.012 281.72 414.833 282.087C414.636 282.49 414.238 283.008 413.5 283.5C412.89 283.907 413.014 284.838 413.71 285.07L415 285.5C415.667 285.667 416.9 286.3 416.5 287.5C416.311 288.068 416.188 288.435 416.112 288.663C416.037 288.888 415.947 289.106 415.841 289.318L415.267 290.466C415.09 290.82 414.857 291.143 414.578 291.422L413.707 292.293C413.574 292.426 413.5 292.605 413.5 292.793C413.5 293.183 413.817 293.5 414.207 293.5H415.268C415.737 293.5 416.186 293.686 416.518 294.018L417.5 295L417.793 295.293C418.246 295.746 418.5 296.36 418.5 297C418.5 297.64 418.246 298.254 417.793 298.707L417.135 299.365C416.715 299.785 416.22 300.12 415.675 300.354L413.885 301.121C413.3 301.371 412.728 301.691 412.119 301.874C411.495 302.061 410.501 302.286 409 302.5C407.226 302.753 406.295 302.886 405.851 302.95C405.617 302.983 405.381 303 405.145 303H402.855C402.619 303 402.382 302.983 402.148 302.95L399.352 302.55C399.118 302.517 398.881 302.5 398.645 302.5H396.18C395.404 302.5 394.639 302.319 393.944 301.972L393 301.5L391.5 300.5L390.645 299.93C390.222 299.648 389.88 299.261 389.653 298.806L389.547 298.594C389.203 297.905 389.203 297.095 389.547 296.406C389.837 295.826 390.346 295.385 390.961 295.18L391.134 295.122C391.377 295.041 391.608 294.928 391.821 294.786L392.931 294.046C392.977 294.016 393.027 293.991 393.079 293.974C393.603 293.799 393.655 293.077 393.16 292.83L391.797 292.149C391.602 292.051 391.436 291.905 391.316 291.723L391.035 291.303C390.698 290.796 390.613 290.162 390.805 289.585C390.932 289.204 391.172 288.871 391.493 288.63L392.93 287.552C392.977 287.517 393.026 287.487 393.078 287.461C393.823 287.089 393.778 286.011 393.005 285.702L392.806 285.622C392.607 285.543 392.436 285.404 392.317 285.226L391.994 284.74C391.672 284.258 391.481 283.687 391.573 283.114C391.644 282.676 391.774 282.226 392 282C392.4 281.6 393.833 280.5 394.5 280L396 279L398 278Z" stroke="#53A934"/>
<path d="M395.067 311.966L398.834 310.083C399.597 309.702 400.447 309.52 401.3 309.559L410.16 309.962C410.714 309.987 411.256 310.128 411.752 310.376L412.376 310.688C414.263 311.631 414.835 314.054 413.569 315.741C413.197 316.238 412.695 316.622 412.12 316.852L410.085 317.666C408.759 318.197 408.003 319.168 408.754 320.382C409.157 321.033 409.721 321.888 410.5 323C413.505 326.339 406.731 328.749 401.114 329.939C399.223 330.34 397.316 329.474 396.244 327.866L394.243 324.865C393.52 323.781 392.444 323.556 393.365 322.635C394.868 321.132 395.357 317.026 394.118 315.3C394.066 315.229 394.017 315.157 393.969 315.086C393.218 313.964 393.859 312.57 395.067 311.966Z" fill="#017A8B" fill-opacity="0.18"/>
<path d="M130.5 202C129.796 202 129 201.5 129 201.5V177H132V201.5C132 201.5 131.204 202 130.5 202Z" fill="#346C5F" stroke="#346C5F"/>
<g filter="url(#filter11_i_65_857)">
<path d="M120.752 163.011L120.848 163.587C120.947 164.181 121.229 164.729 121.654 165.154C122.196 165.696 122.93 166 123.696 166H124L122 167L120.5 168C119.833 168.5 118.4 169.6 118 170C117.774 170.226 117.644 170.676 117.573 171.114C117.481 171.687 117.672 172.258 117.994 172.74L118.317 173.226C118.436 173.404 118.607 173.543 118.806 173.622L119.005 173.702C119.778 174.011 119.823 175.089 119.078 175.461C119.026 175.487 118.977 175.517 118.93 175.552L117.493 176.63C117.172 176.871 116.932 177.204 116.805 177.585C116.613 178.162 116.698 178.796 117.035 179.303L117.316 179.723C117.436 179.905 117.602 180.051 117.797 180.149L119.16 180.83C119.655 181.077 119.603 181.799 119.079 181.974C119.027 181.991 118.977 182.016 118.931 182.046L117.821 182.786C117.608 182.928 117.377 183.041 117.134 183.122L116.961 183.18C116.346 183.385 115.837 183.826 115.547 184.406C115.203 185.095 115.203 185.905 115.547 186.594L115.653 186.806C115.88 187.261 116.222 187.648 116.645 187.93L117.5 188.5L119 189.5L119.944 189.972C120.639 190.319 121.404 190.5 122.18 190.5H124.645C124.881 190.5 125.118 190.517 125.352 190.55L128.148 190.95C128.382 190.983 128.619 191 128.855 191H131.145C131.381 191 131.617 190.983 131.851 190.95L135 190.5C136.501 190.286 137.495 190.061 138.119 189.874C138.728 189.691 139.3 189.371 139.885 189.121L141.675 188.354C142.22 188.12 142.715 187.785 143.135 187.365L143.793 186.707C144.246 186.254 144.5 185.64 144.5 185C144.5 184.36 144.246 183.746 143.793 183.293L143.5 183L142.518 182.018C142.186 181.686 141.737 181.5 141.268 181.5H140.207C139.817 181.5 139.5 181.183 139.5 180.793C139.5 180.605 139.574 180.426 139.707 180.293L140.578 179.422C140.857 179.143 141.09 178.82 141.267 178.466L141.841 177.318C141.947 177.106 142.037 176.888 142.112 176.663L142.5 175.5C142.9 174.3 141.667 173.667 141 173.5L139.71 173.07C139.014 172.838 138.89 171.907 139.5 171.5C140.238 171.008 140.636 170.49 140.833 170.087C141.012 169.72 140.95 169.299 140.851 168.903L140.766 168.563C140.592 167.868 140.232 167.232 139.725 166.725L139.26 166.26C139.09 166.09 138.878 165.965 138.646 165.899L138.054 165.73C137.085 165.453 136.913 164.152 137.778 163.633C137.924 163.546 138.049 163.426 138.144 163.284L138.711 162.433C138.903 162.145 139.065 161.838 139.193 161.517L139.257 161.357C139.734 160.165 139.734 158.835 139.257 157.643L139.149 157.372C139.05 157.124 138.931 156.885 138.794 156.656L138.239 155.731C137.756 154.927 137.054 154.277 136.216 153.858C135.742 153.621 135.233 153.462 134.708 153.387L132.766 153.109C132.258 153.037 131.743 153.043 131.237 153.127L129.387 153.436C129.129 153.478 128.876 153.541 128.628 153.624L126.521 154.326C126.175 154.442 125.842 154.595 125.529 154.782L124.572 155.357C123.868 155.779 123.279 156.368 122.857 157.072L122 158.5L121.185 160.13C120.74 161.02 120.588 162.029 120.752 163.011Z" fill="#67AD15"/>
</g>
<path d="M125 166H124M124 166H123.696C122.93 166 122.196 165.696 121.654 165.154C121.229 164.729 120.947 164.181 120.848 163.587L120.752 163.011C120.588 162.029 120.74 161.02 121.185 160.13L122 158.5L122.857 157.072C123.279 156.368 123.868 155.779 124.572 155.357L125.529 154.782C125.842 154.595 126.175 154.442 126.521 154.326L128.628 153.624C128.876 153.541 129.129 153.478 129.387 153.436L131.237 153.127C131.743 153.043 132.258 153.037 132.766 153.109L134.708 153.387C135.233 153.462 135.742 153.621 136.216 153.858C137.054 154.277 137.756 154.927 138.239 155.731L138.794 156.656C138.931 156.885 139.05 157.124 139.149 157.372L139.257 157.643C139.734 158.835 139.734 160.165 139.257 161.357L139.193 161.517C139.065 161.838 138.903 162.145 138.711 162.433L138.144 163.284C138.049 163.426 137.924 163.546 137.778 163.633C136.913 164.152 137.085 165.453 138.054 165.73L138.646 165.899C138.878 165.965 139.09 166.09 139.26 166.26L139.725 166.725C140.232 167.232 140.592 167.868 140.766 168.563L140.851 168.903C140.95 169.299 141.012 169.72 140.833 170.087C140.636 170.49 140.238 171.008 139.5 171.5C138.89 171.907 139.014 172.838 139.71 173.07L141 173.5C141.667 173.667 142.9 174.3 142.5 175.5C142.311 176.068 142.188 176.435 142.112 176.663C142.037 176.888 141.947 177.106 141.841 177.318L141.267 178.466C141.09 178.82 140.857 179.143 140.578 179.422L139.707 180.293C139.574 180.426 139.5 180.605 139.5 180.793C139.5 181.183 139.817 181.5 140.207 181.5H141.268C141.737 181.5 142.186 181.686 142.518 182.018L143.5 183L143.793 183.293C144.246 183.746 144.5 184.36 144.5 185C144.5 185.64 144.246 186.254 143.793 186.707L143.135 187.365C142.715 187.785 142.22 188.12 141.675 188.354L139.885 189.121C139.3 189.371 138.728 189.691 138.119 189.874C137.495 190.061 136.501 190.286 135 190.5C133.226 190.753 132.295 190.886 131.851 190.95C131.617 190.983 131.381 191 131.145 191H128.855C128.619 191 128.382 190.983 128.148 190.95L125.352 190.55C125.118 190.517 124.881 190.5 124.645 190.5H122.18C121.404 190.5 120.639 190.319 119.944 189.972L119 189.5L117.5 188.5L116.645 187.93C116.222 187.648 115.88 187.261 115.653 186.806L115.547 186.594C115.203 185.905 115.203 185.095 115.547 184.406C115.837 183.826 116.346 183.385 116.961 183.18L117.134 183.122C117.377 183.041 117.608 182.928 117.821 182.786L118.931 182.046C118.977 182.016 119.027 181.991 119.079 181.974C119.603 181.799 119.655 181.077 119.16 180.83L117.797 180.149C117.602 180.051 117.436 179.905 117.316 179.723L117.035 179.303C116.698 178.796 116.613 178.162 116.805 177.585C116.932 177.204 117.172 176.871 117.493 176.63L118.93 175.552C118.977 175.517 119.026 175.487 119.078 175.461C119.823 175.089 119.778 174.011 119.005 173.702L118.806 173.622C118.607 173.543 118.436 173.404 118.317 173.226L117.994 172.74C117.672 172.258 117.481 171.687 117.573 171.114C117.644 170.676 117.774 170.226 118 170C118.4 169.6 119.833 168.5 120.5 168L122 167L124 166Z" stroke="#53A934"/>
<path d="M121.067 199.966L124.834 198.083C125.597 197.702 126.447 197.52 127.3 197.559L136.16 197.962C136.714 197.987 137.256 198.128 137.752 198.376L138.376 198.688C140.263 199.631 140.835 202.054 139.569 203.741C139.197 204.238 138.695 204.622 138.12 204.852L136.085 205.666C134.759 206.197 134.003 207.168 134.754 208.382C135.157 209.033 135.721 209.888 136.5 211C139.505 214.339 132.731 216.749 127.114 217.939C125.223 218.34 123.316 217.474 122.244 215.866L120.243 212.865C119.52 211.781 118.444 211.556 119.365 210.635C120.868 209.132 121.357 205.026 120.118 203.3C120.066 203.229 120.017 203.157 119.969 203.086C119.218 201.964 119.859 200.57 121.067 199.966Z" fill="#017A8B" fill-opacity="0.18"/>
<g filter="url(#filter12_d_65_857)">
<path d="M115 130L121 116H131L125.5 126.5H134L120 143.5L123.5 130H115Z" fill="url(#paint0_linear_65_857)" shape-rendering="crispEdges"/>
<path d="M115 130L121 116H131L125.5 126.5H134L120 143.5L123.5 130H115Z" stroke="white" stroke-opacity="0.3" shape-rendering="crispEdges"/>
</g>
<g filter="url(#filter13_d_65_857)">
<path d="M322 136L328 122H338L332.5 132.5H341L327 149.5L330.5 136H322Z" fill="url(#paint1_linear_65_857)" shape-rendering="crispEdges"/>
<path d="M322 136L328 122H338L332.5 132.5H341L327 149.5L330.5 136H322Z" stroke="white" stroke-opacity="0.3" shape-rendering="crispEdges"/>
</g>
<g filter="url(#filter14_d_65_857)">
<path d="M462 252L468 238H478L472.5 248.5H481L467 265.5L470.5 252H462Z" fill="url(#paint2_linear_65_857)" shape-rendering="crispEdges"/>
<path d="M462 252L468 238H478L472.5 248.5H481L467 265.5L470.5 252H462Z" stroke="white" stroke-opacity="0.3" shape-rendering="crispEdges"/>
</g>
<g filter="url(#filter15_d_65_857)">
<path d="M236 201.691L240.737 191H248.632L244.289 199.018H251L239.947 212L242.711 201.691H236Z" fill="url(#paint3_linear_65_857)" shape-rendering="crispEdges"/>
<path d="M236 201.691L240.737 191H248.632L244.289 199.018H251L239.947 212L242.711 201.691H236Z" stroke="white" stroke-opacity="0.3" shape-rendering="crispEdges"/>
</g>
<path d="M149.738 194.599L149.479 194.77C148.862 195.182 148.892 196.099 149.535 196.469L158.666 201.726C158.969 201.9 159.158 202.219 159.167 202.568L159.36 210.508C159.379 211.281 160.23 211.742 160.887 211.334L161.281 211.089C161.582 210.902 161.762 210.569 161.753 210.215L161.532 201.288C161.524 200.938 161.334 200.619 161.031 200.445L150.79 194.564C150.461 194.375 150.053 194.388 149.738 194.599Z" fill="#039CB0" stroke="#039CB0"/>
<path d="M165.982 206.706L165.85 199.934C165.824 198.57 165.212 197.283 164.171 196.401C163.902 196.174 163.61 195.977 163.298 195.814L155.274 191.629C154.545 191.249 153.658 191.348 153.03 191.88C151.956 192.791 152.118 194.494 153.345 195.185L160.087 198.983C161.34 199.689 162.13 201.002 162.165 202.44L162.273 206.788C162.311 208.299 164.042 209.133 165.247 208.221C165.72 207.862 165.993 207.299 165.982 206.706Z" fill="#039CB0" stroke="#039CB0"/>
<path d="M159.068 201.322L148.524 195.799C148.284 195.673 148.268 195.505 148.043 195.657C147.592 195.963 147.41 196.833 147.889 197.093L157.578 202.337C157.898 202.51 158.098 202.842 158.102 203.205L158.197 211.219C158.207 212.03 159.092 212.44 159.787 212.022C159.82 212.002 159.838 211.994 159.838 212C159.838 212.048 159.689 205.809 159.603 202.183C159.595 201.819 159.389 201.491 159.068 201.322Z" fill="#00515C" stroke="#00515C"/>
<path d="M151.187 193.523L150.066 194.383L161.456 200.702L161.768 210.787C162.12 210.532 162.826 209.97 162.826 210.021C162.826 210.072 162.784 203.298 162.701 199.808L151.187 193.523Z" fill="#00515C" stroke="#00515C"/>
<path d="M141.535 202.868L145.569 199.251C146.144 198.736 146.309 197.905 145.976 197.209C145.566 196.352 147.655 196.611 148.501 197.044C151.519 198.59 158.58 202.243 158.404 202.489C158.302 202.63 157.891 202.924 157.534 203.163C157.174 203.406 156.73 203.483 156.305 203.394C156.123 203.356 155.937 203.349 155.752 203.372L155.43 203.412C154.801 203.491 154.203 203.733 153.696 204.115L150.565 206.475C148.839 207.777 146.507 207.936 144.62 206.881L141.806 205.307C141.18 204.957 140.887 204.215 141.105 203.532C141.187 203.276 141.335 203.047 141.535 202.868Z" fill="#039CB0" stroke="#017A8B"/>
<path d="M149.506 215.192C149.62 214.684 149.596 213.671 149.551 212.918C149.527 212.52 149.548 212.121 149.629 211.731C149.792 210.949 150.185 210.234 150.757 209.677L156.888 203.702C156.888 203.702 158.444 201.941 158.444 202.681C158.444 206.255 158.867 212.447 158.656 212.766C158.562 212.907 158.188 213.171 157.8 213.423C157.149 213.845 156.378 214.031 155.603 214.009C154.91 213.989 154.226 214.141 153.606 214.449C151.77 215.362 147.914 217.256 148.199 216.915C148.313 216.778 148.468 216.639 148.625 216.511C149.048 216.17 149.387 215.722 149.506 215.192Z" fill="#017A8B" stroke="#017A8B"/>
<path d="M152.68 204.457L150.877 205.91C149.788 206.681 148.481 207.098 147.147 207.098C146.498 207.098 147.44 207.72 148.294 208.215C148.983 208.615 149.519 209.243 149.758 210.004L149.842 210.363C149.859 210.435 149.95 210.46 150.001 210.405C150.005 210.402 150.008 210.399 150.012 210.396L153.364 207.825C156.721 205.249 155.85 205.514 156.472 204.655C156.482 204.641 156.493 204.626 156.503 204.612C157.128 203.717 156.211 202.953 155.125 203.068C154.704 203.113 154.303 203.268 153.961 203.518L152.68 204.457Z" fill="#01A9BF" stroke="#01A9BF"/>
<path d="M139.998 204.89L140.134 204.621C140.802 203.302 140.975 203.89 142.1 204.851C142.271 204.997 142.443 205.132 142.61 205.255C143.315 205.773 144.6 206.282 145.398 206.638L147.515 207.277L147.709 207.362C148.155 207.558 148.551 207.85 148.87 208.218C149.207 208.606 149.447 209.068 149.573 209.566L149.61 209.71C149.747 210.252 149.766 210.816 149.667 211.366L149.597 211.751C149.537 212.086 149.506 212.427 149.506 212.768V214.617V215.165C149.506 215.701 149.242 216.202 148.8 216.504C148.53 216.689 148.211 216.787 147.885 216.787H147.128C146.643 216.787 146.162 216.7 145.707 216.531L145.025 216.277C144.215 215.975 142.903 215.259 141.921 214.691C141.338 214.354 140.851 213.877 140.484 213.313C140.194 212.867 139.986 212.373 139.868 211.854L139.663 210.951C139.504 210.248 139.423 209.53 139.423 208.809V207.72C139.423 207.003 139.532 206.29 139.746 205.605L139.87 205.205C139.904 205.097 139.947 204.992 139.998 204.89Z" fill="#088FA2" stroke="#03909F"/>
<g filter="url(#filter16_d_65_857)">
<path d="M138.649 212.379L139.332 212.799C140.016 213.22 140.858 213.291 141.603 212.991L142.612 212.584C144.352 211.883 144.314 209.404 142.577 208.696C141.972 208.449 141.276 208.513 140.73 208.872L138.178 210.723L136.396 211.844C136.302 211.903 136.233 211.996 136.205 212.105C136.117 212.443 136.441 212.743 136.771 212.63L137.787 212.283C138.074 212.184 138.39 212.22 138.649 212.379Z" fill="#038C9F"/>
<path d="M138.649 212.379L139.332 212.799C140.016 213.22 140.858 213.291 141.603 212.991L142.612 212.584C144.352 211.883 144.314 209.404 142.577 208.696C141.972 208.449 141.276 208.513 140.73 208.872L138.178 210.723L136.396 211.844C136.302 211.903 136.233 211.996 136.205 212.105C136.117 212.443 136.441 212.743 136.771 212.63L137.787 212.283C138.074 212.184 138.39 212.22 138.649 212.379Z" stroke="#03909F"/>
</g>
<path d="M145.014 210.156L141.429 212.607C140.724 213.089 140.14 213.729 139.724 214.475L139.534 214.817C139.419 215.023 139.332 215.244 139.277 215.473L139.2 215.786C139.142 216.024 139.147 216.273 139.215 216.508C139.345 216.961 139.694 217.319 140.144 217.461L140.275 217.503C140.759 217.656 141.286 217.579 141.707 217.294L144.153 215.638L145.587 214.658C145.866 214.467 146.065 214.18 146.145 213.851C146.204 213.61 146.208 213.193 146.192 212.809C146.174 212.356 146.067 211.912 145.914 211.484L145.737 210.993C145.719 210.941 145.695 210.891 145.666 210.845L145.237 210.161C145.192 210.09 145.093 210.079 145.034 210.14C145.028 210.146 145.021 210.151 145.014 210.156Z" fill="#038699" stroke="#038699"/>
<path d="M136.459 211.941L136.452 211.946C136.4 211.982 136.351 212.023 136.307 212.069C136.149 212.23 136.053 212.443 136.036 212.668L136 213.149V214.872V214.956C136 215.357 136.136 215.745 136.386 216.058C136.501 216.203 136.639 216.329 136.794 216.431L138.303 217.426L138.986 217.776C139.273 217.923 139.592 218 139.914 218H140.221C140.47 218 140.713 217.918 140.911 217.765C141.189 217.551 141.353 217.22 141.353 216.868V216.482C141.353 216.345 141.338 216.209 141.309 216.076L141.104 215.128L141.046 214.853C140.961 214.446 140.782 214.065 140.523 213.74C140.412 213.602 140.289 213.475 140.153 213.361L140.005 213.236C139.783 213.051 139.545 212.887 139.294 212.746L138.988 212.575L138.116 212.128L137.461 211.845C137.133 211.703 136.755 211.74 136.459 211.941Z" fill="#088FA2" stroke="#088FA2"/>
<path d="M145.469 198.021C145.469 198.021 145.979 196.896 145.967 197.256C145.946 197.899 146.138 198.562 145.735 199.064C145.605 199.226 145.454 199.394 145.283 199.553C144.735 200.064 145.013 199.256 145.22 198.787L145.469 198.021Z" fill="#017A8B" stroke="#017A8B"/>
<path d="M343.5 281C342.567 283.143 341.649 284.001 339.673 284.001C337.869 284.001 336.406 282.658 336.406 281.001C336.406 279.344 338.196 277.5 340 277.5C341.804 277.5 343.594 278.999 343.5 281Z" fill="black" fill-opacity="0.3"/>
<path d="M138.564 218.445C136.489 217.909 135.597 217.232 135.379 215.554C135.179 214.022 136.253 212.619 137.778 212.42C139.303 212.221 141.198 213.52 141.398 215.052C141.597 216.585 140.416 218.284 138.564 218.445Z" fill="black" fill-opacity="0.3"/>
<path d="M138 215.5L132.305 220.626C129.647 223.018 128.491 226.661 129.284 230.147C130.04 233.476 132.463 236.177 135.689 237.289L154.297 243.706C164.871 247.352 169.472 259.372 168.54 270.519C167.315 285.176 173.518 298.817 200.5 294.5C215.407 292.115 226.148 290.396 233.757 289.179C243.298 287.652 252.46 293.53 255.056 302.838L257.449 311.42C261.063 324.381 276.633 329.582 287.311 321.395L340 281" stroke="url(#paint4_linear_65_857)" stroke-width="5" stroke-linecap="round"/>
<defs>
<filter id="filter0_i_65_857" x="291.25" y="158.216" width="175.5" height="162.516" filterUnits="userSpaceOnUse" color-interpolation-filters="sRGB">
<feFlood flood-opacity="0" result="BackgroundImageFix"/>
<feBlend mode="normal" in="SourceGraphic" in2="BackgroundImageFix" result="shape"/>
<feColorMatrix in="SourceAlpha" type="matrix" values="0 0 0 0 0 0 0 0 0 0 0 0 0 0 0 0 0 0 127 0" result="hardAlpha"/>
<feOffset dy="4"/>
<feGaussianBlur stdDeviation="2"/>
<feComposite in2="hardAlpha" operator="arithmetic" k2="-1" k3="1"/>
<feColorMatrix type="matrix" values="0 0 0 0 0 0 0 0 0 0 0 0 0 0 0 0 0 0 0.25 0"/>
<feBlend mode="normal" in2="shape" result="effect1_innerShadow_65_857"/>
</filter>
<filter id="filter1_d_65_857" x="333.958" y="210.229" width="38.8037" height="41.4706" filterUnits="userSpaceOnUse" color-interpolation-filters="sRGB">
<feFlood flood-opacity="0" result="BackgroundImageFix"/>
<feColorMatrix in="SourceAlpha" type="matrix" values="0 0 0 0 0 0 0 0 0 0 0 0 0 0 0 0 0 0 127 0" result="hardAlpha"/>
<feOffset dy="4"/>
<feGaussianBlur stdDeviation="2"/>
<feComposite in2="hardAlpha" operator="out"/>
<feColorMatrix type="matrix" values="0 0 0 0 0 0 0 0 0 0 0 0 0 0 0 0 0 0 0.25 0"/>
<feBlend mode="normal" in2="BackgroundImageFix" result="effect1_dropShadow_65_857"/>
<feBlend mode="normal" in="SourceGraphic" in2="effect1_dropShadow_65_857" result="shape"/>
</filter>
<filter id="filter2_d_65_857" x="312.044" y="223.795" width="38.8037" height="41.4706" filterUnits="userSpaceOnUse" color-interpolation-filters="sRGB">
<feFlood flood-opacity="0" result="BackgroundImageFix"/>
<feColorMatrix in="SourceAlpha" type="matrix" values="0 0 0 0 0 0 0 0 0 0 0 0 0 0 0 0 0 0 127 0" result="hardAlpha"/>
<feOffset dy="4"/>
<feGaussianBlur stdDeviation="2"/>
<feComposite in2="hardAlpha" operator="out"/>
<feColorMatrix type="matrix" values="0 0 0 0 0 0 0 0 0 0 0 0 0 0 0 0 0 0 0.25 0"/>
<feBlend mode="normal" in2="BackgroundImageFix" result="effect1_dropShadow_65_857"/>
<feBlend mode="normal" in="SourceGraphic" in2="effect1_dropShadow_65_857" result="shape"/>
</filter>
<filter id="filter3_d_65_857" x="356.75" y="193.951" width="38.8037" height="41.4706" filterUnits="userSpaceOnUse" color-interpolation-filters="sRGB">
<feFlood flood-opacity="0" result="BackgroundImageFix"/>
<feColorMatrix in="SourceAlpha" type="matrix" values="0 0 0 0 0 0 0 0 0 0 0 0 0 0 0 0 0 0 127 0" result="hardAlpha"/>
<feOffset dy="4"/>
<feGaussianBlur stdDeviation="2"/>
<feComposite in2="hardAlpha" operator="out"/>
<feColorMatrix type="matrix" values="0 0 0 0 0 0 0 0 0 0 0 0 0 0 0 0 0 0 0.25 0"/>
<feBlend mode="normal" in2="BackgroundImageFix" result="effect1_dropShadow_65_857"/>
<feBlend mode="normal" in="SourceGraphic" in2="effect1_dropShadow_65_857" result="shape"/>
</filter>
<filter id="filter4_d_65_857" x="399.702" y="221.082" width="38.8037" height="41.4706" filterUnits="userSpaceOnUse" color-interpolation-filters="sRGB">
<feFlood flood-opacity="0" result="BackgroundImageFix"/>
<feColorMatrix in="SourceAlpha" type="matrix" values="0 0 0 0 0 0 0 0 0 0 0 0 0 0 0 0 0 0 127 0" result="hardAlpha"/>
<feOffset dy="4"/>
<feGaussianBlur stdDeviation="2"/>
<feComposite in2="hardAlpha" operator="out"/>
<feColorMatrix type="matrix" values="0 0 0 0 0 0 0 0 0 0 0 0 0 0 0 0 0 0 0.25 0"/>
<feBlend mode="normal" in2="BackgroundImageFix" result="effect1_dropShadow_65_857"/>
<feBlend mode="normal" in="SourceGraphic" in2="effect1_dropShadow_65_857" result="shape"/>
</filter>
<filter id="filter5_d_65_857" x="378.664" y="235.551" width="38.8037" height="41.4706" filterUnits="userSpaceOnUse" color-interpolation-filters="sRGB">
<feFlood flood-opacity="0" result="BackgroundImageFix"/>
<feColorMatrix in="SourceAlpha" type="matrix" values="0 0 0 0 0 0 0 0 0 0 0 0 0 0 0 0 0 0 127 0" result="hardAlpha"/>
<feOffset dy="4"/>
<feGaussianBlur stdDeviation="2"/>
<feComposite in2="hardAlpha" operator="out"/>
<feColorMatrix type="matrix" values="0 0 0 0 0 0 0 0 0 0 0 0 0 0 0 0 0 0 0.25 0"/>
<feBlend mode="normal" in2="BackgroundImageFix" result="effect1_dropShadow_65_857"/>
<feBlend mode="normal" in="SourceGraphic" in2="effect1_dropShadow_65_857" result="shape"/>
</filter>
<filter id="filter6_d_65_857" x="357.626" y="250.925" width="38.8037" height="41.4706" filterUnits="userSpaceOnUse" color-interpolation-filters="sRGB">
<feFlood flood-opacity="0" result="BackgroundImageFix"/>
<feColorMatrix in="SourceAlpha" type="matrix" values="0 0 0 0 0 0 0 0 0 0 0 0 0 0 0 0 0 0 127 0" result="hardAlpha"/>
<feOffset dy="4"/>
<feGaussianBlur stdDeviation="2"/>
<feComposite in2="hardAlpha" operator="out"/>
<feColorMatrix type="matrix" values="0 0 0 0 0 0 0 0 0 0 0 0 0 0 0 0 0 0 0.25 0"/>
<feBlend mode="normal" in2="BackgroundImageFix" result="effect1_dropShadow_65_857"/>
<feBlend mode="normal" in="SourceGraphic" in2="effect1_dropShadow_65_857" result="shape"/>
</filter>
<filter id="filter7_i_65_857" x="114.046" y="80.3356" width="182" height="158.252" filterUnits="userSpaceOnUse" color-interpolation-filters="sRGB">
<feFlood flood-opacity="0" result="BackgroundImageFix"/>
<feBlend mode="normal" in="SourceGraphic" in2="BackgroundImageFix" result="shape"/>
<feColorMatrix in="SourceAlpha" type="matrix" values="0 0 0 0 0 0 0 0 0 0 0 0 0 0 0 0 0 0 127 0" result="hardAlpha"/>
<feOffset dy="4"/>
<feGaussianBlur stdDeviation="11.05"/>
<feComposite in2="hardAlpha" operator="arithmetic" k2="-1" k3="1"/>
<feColorMatrix type="matrix" values="0 0 0 0 0.0509804 0 0 0 0 0.392157 0 0 0 0 0.6 0 0 0 0.3 0"/>
<feBlend mode="normal" in2="shape" result="effect1_innerShadow_65_857"/>
</filter>
<filter id="filter8_f_65_857" x="138.046" y="145.5" width="118.517" height="53" filterUnits="userSpaceOnUse" color-interpolation-filters="sRGB">
<feFlood flood-opacity="0" result="BackgroundImageFix"/>
<feBlend mode="normal" in="SourceGraphic" in2="BackgroundImageFix" result="shape"/>
<feGaussianBlur stdDeviation="2" result="effect1_foregroundBlur_65_857"/>
</filter>
<filter id="filter9_i_65_857" x="284.789" y="120.559" width="30.2114" height="42.9408" filterUnits="userSpaceOnUse" color-interpolation-filters="sRGB">
<feFlood flood-opacity="0" result="BackgroundImageFix"/>
<feBlend mode="normal" in="SourceGraphic" in2="BackgroundImageFix" result="shape"/>
<feColorMatrix in="SourceAlpha" type="matrix" values="0 0 0 0 0 0 0 0 0 0 0 0 0 0 0 0 0 0 127 0" result="hardAlpha"/>
<feOffset dy="4"/>
<feGaussianBlur stdDeviation="2"/>
<feComposite in2="hardAlpha" operator="arithmetic" k2="-1" k3="1"/>
<feColorMatrix type="matrix" values="0 0 0 0 0.32549 0 0 0 0 0.662745 0 0 0 0 0.203922 0 0 0 1 0"/>
<feBlend mode="normal" in2="shape" result="effect1_innerShadow_65_857"/>
</filter>
<filter id="filter10_i_65_857" x="388.789" y="264.559" width="30.2114" height="42.9408" filterUnits="userSpaceOnUse" color-interpolation-filters="sRGB">
<feFlood flood-opacity="0" result="BackgroundImageFix"/>
<feBlend mode="normal" in="SourceGraphic" in2="BackgroundImageFix" result="shape"/>
<feColorMatrix in="SourceAlpha" type="matrix" values="0 0 0 0 0 0 0 0 0 0 0 0 0 0 0 0 0 0 127 0" result="hardAlpha"/>
<feOffset dy="4"/>
<feGaussianBlur stdDeviation="2"/>
<feComposite in2="hardAlpha" operator="arithmetic" k2="-1" k3="1"/>
<feColorMatrix type="matrix" values="0 0 0 0 0.32549 0 0 0 0 0.662745 0 0 0 0 0.203922 0 0 0 1 0"/>
<feBlend mode="normal" in2="shape" result="effect1_innerShadow_65_857"/>
</filter>
<filter id="filter11_i_65_857" x="114.789" y="152.559" width="30.2114" height="42.9408" filterUnits="userSpaceOnUse" color-interpolation-filters="sRGB">
<feFlood flood-opacity="0" result="BackgroundImageFix"/>
<feBlend mode="normal" in="SourceGraphic" in2="BackgroundImageFix" result="shape"/>
<feColorMatrix in="SourceAlpha" type="matrix" values="0 0 0 0 0 0 0 0 0 0 0 0 0 0 0 0 0 0 127 0" result="hardAlpha"/>
<feOffset dy="4"/>
<feGaussianBlur stdDeviation="2"/>
<feComposite in2="hardAlpha" operator="arithmetic" k2="-1" k3="1"/>
<feColorMatrix type="matrix" values="0 0 0 0 0.32549 0 0 0 0 0.662745 0 0 0 0 0.203922 0 0 0 1 0"/>
<feBlend mode="normal" in2="shape" result="effect1_innerShadow_65_857"/>
</filter>
<filter id="filter12_d_65_857" x="110.242" y="115.5" width="28.8179" height="36.3179" filterUnits="userSpaceOnUse" color-interpolation-filters="sRGB">
<feFlood flood-opacity="0" result="BackgroundImageFix"/>
<feColorMatrix in="SourceAlpha" type="matrix" values="0 0 0 0 0 0 0 0 0 0 0 0 0 0 0 0 0 0 127 0" result="hardAlpha"/>
<feOffset dy="4"/>
<feGaussianBlur stdDeviation="2"/>
<feComposite in2="hardAlpha" operator="out"/>
<feColorMatrix type="matrix" values="0 0 0 0 1 0 0 0 0 0.906397 0 0 0 0 0.628934 0 0 0 1 0"/>
<feBlend mode="normal" in2="BackgroundImageFix" result="effect1_dropShadow_65_857"/>
<feBlend mode="normal" in="SourceGraphic" in2="effect1_dropShadow_65_857" result="shape"/>
</filter>
<filter id="filter13_d_65_857" x="317.242" y="121.5" width="28.8179" height="36.3179" filterUnits="userSpaceOnUse" color-interpolation-filters="sRGB">
<feFlood flood-opacity="0" result="BackgroundImageFix"/>
<feColorMatrix in="SourceAlpha" type="matrix" values="0 0 0 0 0 0 0 0 0 0 0 0 0 0 0 0 0 0 127 0" result="hardAlpha"/>
<feOffset dy="4"/>
<feGaussianBlur stdDeviation="2"/>
<feComposite in2="hardAlpha" operator="out"/>
<feColorMatrix type="matrix" values="0 0 0 0 1 0 0 0 0 0.906397 0 0 0 0 0.628934 0 0 0 1 0"/>
<feBlend mode="normal" in2="BackgroundImageFix" result="effect1_dropShadow_65_857"/>
<feBlend mode="normal" in="SourceGraphic" in2="effect1_dropShadow_65_857" result="shape"/>
</filter>
<filter id="filter14_d_65_857" x="457.242" y="237.5" width="28.8179" height="36.3179" filterUnits="userSpaceOnUse" color-interpolation-filters="sRGB">
<feFlood flood-opacity="0" result="BackgroundImageFix"/>
<feColorMatrix in="SourceAlpha" type="matrix" values="0 0 0 0 0 0 0 0 0 0 0 0 0 0 0 0 0 0 127 0" result="hardAlpha"/>
<feOffset dy="4"/>
<feGaussianBlur stdDeviation="2"/>
<feComposite in2="hardAlpha" operator="out"/>
<feColorMatrix type="matrix" values="0 0 0 0 1 0 0 0 0 0.906397 0 0 0 0 0.628934 0 0 0 1 0"/>
<feBlend mode="normal" in2="BackgroundImageFix" result="effect1_dropShadow_65_857"/>
<feBlend mode="normal" in="SourceGraphic" in2="effect1_dropShadow_65_857" result="shape"/>
</filter>
<filter id="filter15_d_65_857" x="231.231" y="190.5" width="24.8511" height="29.8241" filterUnits="userSpaceOnUse" color-interpolation-filters="sRGB">
<feFlood flood-opacity="0" result="BackgroundImageFix"/>
<feColorMatrix in="SourceAlpha" type="matrix" values="0 0 0 0 0 0 0 0 0 0 0 0 0 0 0 0 0 0 127 0" result="hardAlpha"/>
<feOffset dy="4"/>
<feGaussianBlur stdDeviation="2"/>
<feComposite in2="hardAlpha" operator="out"/>
<feColorMatrix type="matrix" values="0 0 0 0 1 0 0 0 0 0.906397 0 0 0 0 0.628934 0 0 0 1 0"/>
<feBlend mode="normal" in2="BackgroundImageFix" result="effect1_dropShadow_65_857"/>
<feBlend mode="normal" in="SourceGraphic" in2="effect1_dropShadow_65_857" result="shape"/>
</filter>
<filter id="filter16_d_65_857" x="131.69" y="208.048" width="16.7085" height="13.6266" filterUnits="userSpaceOnUse" color-interpolation-filters="sRGB">
<feFlood flood-opacity="0" result="BackgroundImageFix"/>
<feColorMatrix in="SourceAlpha" type="matrix" values="0 0 0 0 0 0 0 0 0 0 0 0 0 0 0 0 0 0 127 0" result="hardAlpha"/>
<feOffset dy="4"/>
<feGaussianBlur stdDeviation="2"/>
<feComposite in2="hardAlpha" operator="out"/>
<feColorMatrix type="matrix" values="0 0 0 0 0 0 0 0 0 0 0 0 0 0 0 0 0 0 0.25 0"/>
<feBlend mode="normal" in2="BackgroundImageFix" result="effect1_dropShadow_65_857"/>
<feBlend mode="normal" in="SourceGraphic" in2="effect1_dropShadow_65_857" result="shape"/>
</filter>
<linearGradient id="paint0_linear_65_857" x1="124.5" y1="116" x2="124.5" y2="143.5" gradientUnits="userSpaceOnUse">
<stop stop-color="#FFE7A0"/>
<stop offset="0.6875" stop-color="#F5B700"/>
</linearGradient>
<linearGradient id="paint1_linear_65_857" x1="331.5" y1="122" x2="331.5" y2="149.5" gradientUnits="userSpaceOnUse">
<stop stop-color="#FFE7A0"/>
<stop offset="0.6875" stop-color="#F5B700"/>
</linearGradient>
<linearGradient id="paint2_linear_65_857" x1="471.5" y1="238" x2="471.5" y2="265.5" gradientUnits="userSpaceOnUse">
<stop stop-color="#FFE7A0"/>
<stop offset="0.6875" stop-color="#F5B700"/>
</linearGradient>
<linearGradient id="paint3_linear_65_857" x1="243.5" y1="191" x2="243.5" y2="212" gradientUnits="userSpaceOnUse">
<stop stop-color="#FFE7A0"/>
<stop offset="0.6875" stop-color="#F5B700"/>
</linearGradient>
<linearGradient id="paint4_linear_65_857" x1="235.25" y1="200.5" x2="159.5" y2="331.5" gradientUnits="userSpaceOnUse">
<stop offset="0.182692" stop-color="white"/>
<stop offset="0.850962" stop-color="#F1BA4D"/>
</linearGradient>
</defs>
</svg>
