<svg width="758" height="440" viewBox="0 0 758 440" fill="none" xmlns="http://www.w3.org/2000/svg">
<g filter="url(#filter0_d_172_2375)">
<path d="M17.6001 13.6001H739.6V397.6C739.6 408.646 730.646 417.6 719.6 417.6H37.6001C26.5544 417.6 17.6001 408.646 17.6001 397.6V13.6001Z" fill="url(#paint0_linear_172_2375)" shape-rendering="crispEdges"/>
</g>
<path d="M210.657 244.416C197.573 234.305 191.097 225.846 188.044 218.843C183.632 208.723 200.328 185.813 210.657 181.916C210.657 181.916 345.073 145.206 416.657 181.916C457.46 202.84 525.019 233.494 562.161 250.126C576.937 256.743 583.861 273.831 577.817 288.851L555.657 343.916C522.657 425.916 492.157 321.416 427.657 343.916C331.955 377.3 290.157 356.916 286.657 335.416C271.224 240.617 254.657 278.416 210.657 244.416Z" fill="#088FA2" fill-opacity="0.2"/>
<path d="M378.917 264.543C386.052 257.536 390.417 257.543 390.417 257.543C390.417 257.543 617.417 220.043 558.917 268.043C500.417 316.043 485.917 360.043 470.417 349.043C454.917 338.043 350.917 292.043 378.917 264.543Z" fill="#039CB0" fill-opacity="0.3"/>
<g filter="url(#filter1_i_172_2375)">
<path d="M394.059 219.722L390.552 217.913L459.802 173.6L540.885 226.052L474.703 270.365L470.759 268.104L536.502 226.052L459.802 177.67L394.059 219.722Z" stroke="#038699" stroke-width="3"/>
<path d="M471.143 314.192L379.293 256.885C379.231 256.846 379.231 256.754 379.294 256.715L461.941 205.736C461.973 205.717 462.013 205.717 462.045 205.736L552.583 260.336C552.646 260.374 552.648 260.464 552.586 260.505L471.251 314.191C471.218 314.212 471.176 314.213 471.143 314.192Z" fill="#026B79"/>
<path d="M534.701 225.119L459.515 179.119C459.449 179.078 459.363 179.126 459.363 179.205V216.049C459.363 216.083 459.381 216.115 459.411 216.134L534.596 262.584C534.663 262.625 534.749 262.577 534.749 262.499V225.204C534.749 225.169 534.731 225.137 534.701 225.119Z" fill="#00A2B7" stroke="#039CB0" stroke-width="1.5"/>
<path d="M393.62 255.263V219.778C393.62 219.743 393.638 219.711 393.668 219.692L459.649 179.12C459.716 179.079 459.801 179.127 459.801 179.205V213.788C459.801 213.823 459.784 213.855 459.755 213.873L393.773 255.347C393.707 255.389 393.62 255.341 393.62 255.263Z" fill="#0D6499" stroke="#0D6499" stroke-width="1.5"/>
<g filter="url(#filter2_d_172_2375)">
<path d="M435.696 224.431V232.329C435.696 232.363 435.712 232.394 435.74 232.412L442.991 237.253C443.058 237.297 443.147 237.25 443.147 237.17V229.271C443.147 229.238 443.13 229.206 443.102 229.188L435.851 224.347C435.785 224.303 435.696 224.351 435.696 224.431Z" fill="#088FA2" stroke="#017A8B"/>
<path d="M448.406 233V240.077C448.406 240.111 448.424 240.143 448.453 240.162L455.265 244.494C455.332 244.536 455.419 244.488 455.419 244.409V236.544C455.419 236.507 455.398 236.473 455.365 236.456L448.552 232.911C448.486 232.876 448.406 232.925 448.406 233Z" fill="#088FA2" stroke="#017A8B"/>
<path d="M425.615 243.136V237.097C425.615 237.016 425.706 236.967 425.772 237.012L426.887 237.779C426.914 237.798 426.93 237.829 426.93 237.861V243.135C426.93 243.19 426.885 243.235 426.83 243.235H425.715C425.66 243.235 425.615 243.192 425.615 243.136Z" fill="#C89665" stroke="#C89665"/>
<path d="M455.273 244.667L454.606 245.01C454.568 245.03 454.547 245.073 454.554 245.115L455.22 249.24C455.239 249.361 455.419 249.347 455.419 249.224V244.756C455.419 244.681 455.339 244.632 455.273 244.667Z" stroke="#017A8B" stroke-width="0.5"/>
<path d="M448.406 254.828V250.532C448.406 250.494 448.427 250.459 448.46 250.442L449.137 250.093C449.204 250.058 449.283 250.107 449.283 250.182V254.478C449.283 254.516 449.262 254.55 449.229 254.567L448.552 254.916C448.486 254.951 448.406 254.903 448.406 254.828Z" fill="#017A8B" stroke="#017A8B" stroke-width="0.5"/>
<path d="M440.517 250.306V246.01C440.517 245.973 440.538 245.937 440.571 245.92L441.248 245.571C441.314 245.537 441.394 245.585 441.394 245.66V249.957C441.394 249.994 441.373 250.028 441.34 250.046L440.663 250.395C440.596 250.429 440.517 250.381 440.517 250.306Z" fill="#017A8B" stroke="#017A8B" stroke-width="0.5"/>
<path d="M433.504 245.785V241.488C433.504 241.451 433.525 241.416 433.559 241.398L434.235 241.049C434.302 241.015 434.381 241.063 434.381 241.138V245.435C434.381 245.472 434.36 245.507 434.327 245.524L433.65 245.873C433.584 245.907 433.504 245.86 433.504 245.785Z" fill="#017A8B" stroke="#017A8B" stroke-width="0.5"/>
<path d="M428.245 243.072V238.775C428.245 238.738 428.266 238.702 428.299 238.685L428.976 238.336C429.042 238.302 429.122 238.35 429.122 238.425V242.722C429.122 242.759 429.101 242.794 429.068 242.811L428.391 243.16C428.324 243.194 428.245 243.147 428.245 243.072Z" fill="#017A8B" stroke="#017A8B" stroke-width="0.5"/>
<path d="M453.666 250.37V244.734C453.666 244.665 453.733 244.615 453.798 244.637L454.913 245.021C454.953 245.034 454.98 245.072 454.98 245.115V250.37C454.98 250.425 454.936 250.47 454.88 250.47H453.766C453.71 250.47 453.666 250.425 453.666 250.37Z" fill="#C89665" stroke="#C89665"/>
<path d="M446.215 256.701V251.064C446.215 250.996 446.282 250.945 446.347 250.967L447.462 251.351C447.503 251.365 447.53 251.403 447.53 251.445V256.7C447.53 256.755 447.485 256.8 447.43 256.8H446.315C446.26 256.8 446.215 256.756 446.215 256.701Z" fill="#C89665" stroke="#C89665"/>
<path d="M425.736 236.821L433.448 231.517C433.482 231.494 433.525 231.493 433.559 231.516C440.417 236.134 453.729 244.609 454.898 245.037C454.952 245.016 454.98 245.018 454.98 245.044C454.98 245.06 454.952 245.057 454.898 245.037C454.207 245.304 449.346 249.207 447.148 251.319C447.114 251.352 447.063 251.355 447.024 251.329L425.737 236.987C425.679 236.947 425.678 236.861 425.736 236.821Z" fill="#F1BA4D"/>
<path d="M454.98 245.044C454.98 244.685 449.517 249.043 447.148 251.319C447.114 251.352 447.063 251.355 447.024 251.329L425.737 236.987C425.679 236.947 425.678 236.861 425.736 236.821L433.448 231.517C433.482 231.494 433.525 231.493 433.559 231.516C440.736 236.348 454.98 245.405 454.98 245.044Z" stroke="#F1BA4D"/>
</g>
<g filter="url(#filter3_d_172_2375)">
<path d="M413.781 237.996V245.894C413.781 245.928 413.798 245.959 413.826 245.978L421.077 250.818C421.143 250.862 421.232 250.815 421.232 250.735V242.836C421.232 242.803 421.215 242.772 421.188 242.753L413.937 237.913C413.87 237.868 413.781 237.916 413.781 237.996Z" fill="#088FA2" stroke="#017A8B"/>
<path d="M426.492 246.565V253.642C426.492 253.677 426.509 253.708 426.538 253.727L433.351 258.059C433.417 258.101 433.504 258.053 433.504 257.975V250.109C433.504 250.072 433.484 250.038 433.45 250.021L426.638 246.476C426.571 246.442 426.492 246.49 426.492 246.565Z" fill="#088FA2" stroke="#017A8B"/>
<path d="M403.701 256.701V250.662C403.701 250.582 403.791 250.532 403.857 250.577L404.972 251.344C404.999 251.363 405.016 251.394 405.016 251.427V256.7C405.016 256.755 404.971 256.8 404.916 256.8H403.801C403.745 256.8 403.701 256.757 403.701 256.701Z" fill="#C89665" stroke="#C89665"/>
<path d="M433.358 258.232L432.692 258.576C432.653 258.595 432.632 258.638 432.639 258.68L433.305 262.805C433.325 262.926 433.504 262.912 433.504 262.789V258.321C433.504 258.246 433.425 258.198 433.358 258.232Z" stroke="#017A8B" stroke-width="0.5"/>
<path d="M426.492 268.393V264.097C426.492 264.06 426.513 264.024 426.546 264.007L427.222 263.658C427.289 263.624 427.368 263.672 427.368 263.747V268.044C427.368 268.081 427.347 268.115 427.314 268.132L426.638 268.481C426.571 268.516 426.492 268.468 426.492 268.393Z" fill="#017A8B" stroke="#017A8B" stroke-width="0.5"/>
<path d="M418.603 263.872V259.575C418.603 259.538 418.623 259.502 418.657 259.485L419.333 259.136C419.4 259.102 419.479 259.15 419.479 259.225V263.522C419.479 263.559 419.458 263.594 419.425 263.611L418.748 263.96C418.682 263.994 418.603 263.947 418.603 263.872Z" fill="#017A8B" stroke="#017A8B" stroke-width="0.5"/>
<path d="M411.59 259.35V255.054C411.59 255.016 411.611 254.981 411.644 254.964L412.321 254.615C412.387 254.58 412.466 254.629 412.466 254.703V259C412.466 259.038 412.446 259.072 412.412 259.089L411.736 259.438C411.669 259.472 411.59 259.425 411.59 259.35Z" fill="#017A8B" stroke="#017A8B" stroke-width="0.5"/>
<path d="M406.33 256.637V252.34C406.33 252.303 406.351 252.268 406.384 252.25L407.061 251.901C407.127 251.867 407.207 251.915 407.207 251.99V256.287C407.207 256.324 407.186 256.359 407.152 256.376L406.476 256.725C406.409 256.759 406.33 256.712 406.33 256.637Z" fill="#017A8B" stroke="#017A8B" stroke-width="0.5"/>
<path d="M431.751 263.935V258.299C431.751 258.23 431.819 258.18 431.883 258.202L432.998 258.586C433.039 258.6 433.066 258.638 433.066 258.68V263.935C433.066 263.99 433.021 264.035 432.966 264.035H431.851C431.796 264.035 431.751 263.991 431.751 263.935Z" fill="#C89665" stroke="#C89665"/>
<path d="M424.3 270.266V264.629C424.3 264.561 424.368 264.51 424.433 264.533L425.548 264.916C425.588 264.93 425.615 264.968 425.615 265.011V270.265C425.615 270.321 425.57 270.365 425.515 270.365H424.4C424.345 270.365 424.3 270.321 424.3 270.266Z" fill="#C89665" stroke="#C89665"/>
<path d="M403.822 250.387L411.534 245.082C411.568 245.059 411.611 245.058 411.645 245.081C418.503 249.699 431.815 258.174 432.984 258.602C433.037 258.582 433.066 258.583 433.066 258.609C433.066 258.625 433.038 258.622 432.984 258.602C432.292 258.869 427.432 262.772 425.234 264.885C425.2 264.917 425.149 264.92 425.11 264.894L403.823 250.552C403.764 250.512 403.764 250.427 403.822 250.387Z" fill="#F1BA4D"/>
<path d="M433.066 258.609C433.066 258.25 427.603 262.608 425.234 264.885C425.2 264.917 425.149 264.92 425.11 264.894L403.823 250.552C403.764 250.512 403.764 250.427 403.822 250.387L411.534 245.082C411.568 245.059 411.611 245.058 411.645 245.081C418.822 249.913 433.066 258.97 433.066 258.609Z" stroke="#F1BA4D"/>
</g>
<path d="M389.589 218.139C390.134 218.445 391.344 218.985 393.438 219.248C393.54 219.261 393.618 219.349 393.616 219.452L392.753 256.404C392.749 256.568 392.56 256.658 392.431 256.558L389.315 254.147C389.266 254.109 389.237 254.051 389.237 253.989V218.333C389.237 218.164 389.443 218.056 389.589 218.139Z" fill="#038699" stroke="#038699"/>
<g filter="url(#filter4_d_172_2375)">
<path d="M458.487 208.152V216.051C458.487 216.084 458.504 216.116 458.531 216.134L465.782 220.975C465.849 221.019 465.938 220.971 465.938 220.891V212.993C465.938 212.959 465.921 212.928 465.893 212.91L458.642 208.069C458.576 208.025 458.487 208.072 458.487 208.152Z" fill="#088FA2" stroke="#017A8B"/>
<path d="M471.197 216.721V223.799C471.197 223.833 471.215 223.865 471.244 223.883L478.056 228.215C478.123 228.258 478.21 228.21 478.21 228.131V220.266C478.21 220.229 478.189 220.194 478.156 220.177L471.343 216.633C471.277 216.598 471.197 216.646 471.197 216.721Z" fill="#088FA2" stroke="#017A8B"/>
<path d="M448.406 226.858V220.819C448.406 220.738 448.497 220.688 448.563 220.734L449.678 221.501C449.705 221.519 449.721 221.55 449.721 221.583V226.857C449.721 226.912 449.676 226.957 449.621 226.957H448.506C448.451 226.957 448.406 226.913 448.406 226.858Z" fill="#C89665" stroke="#C89665"/>
<path d="M478.064 228.388L477.398 228.732C477.36 228.752 477.338 228.794 477.345 228.837L478.011 232.961C478.031 233.083 478.21 233.069 478.21 232.945V228.477C478.21 228.402 478.131 228.354 478.064 228.388Z" stroke="#017A8B" stroke-width="0.5"/>
<path d="M471.197 238.55V234.254C471.197 234.216 471.218 234.181 471.251 234.163L471.928 233.814C471.995 233.78 472.074 233.828 472.074 233.903V238.2C472.074 238.237 472.053 238.272 472.02 238.289L471.343 238.638C471.277 238.672 471.197 238.625 471.197 238.55Z" fill="#017A8B" stroke="#017A8B" stroke-width="0.5"/>
<path d="M463.308 234.028V229.732C463.308 229.694 463.329 229.659 463.362 229.642L464.039 229.293C464.105 229.258 464.185 229.307 464.185 229.382V233.678C464.185 233.716 464.164 233.75 464.131 233.767L463.454 234.116C463.387 234.151 463.308 234.103 463.308 234.028Z" fill="#017A8B" stroke="#017A8B" stroke-width="0.5"/>
<path d="M456.295 229.506V225.21C456.295 225.173 456.316 225.137 456.35 225.12L457.026 224.771C457.093 224.737 457.172 224.785 457.172 224.86V229.157C457.172 229.194 457.151 229.228 457.118 229.245L456.441 229.594C456.375 229.629 456.295 229.581 456.295 229.506Z" fill="#017A8B" stroke="#017A8B" stroke-width="0.5"/>
<path d="M451.036 226.793V222.497C451.036 222.46 451.057 222.424 451.09 222.407L451.767 222.058C451.833 222.024 451.913 222.072 451.913 222.147V226.443C451.913 226.481 451.892 226.515 451.859 226.532L451.182 226.881C451.115 226.916 451.036 226.868 451.036 226.793Z" fill="#017A8B" stroke="#017A8B" stroke-width="0.5"/>
<path d="M476.457 234.092V228.456C476.457 228.387 476.524 228.336 476.589 228.359L477.704 228.742C477.744 228.756 477.771 228.794 477.771 228.837V234.091C477.771 234.147 477.727 234.191 477.671 234.191H476.557C476.501 234.191 476.457 234.147 476.457 234.092Z" fill="#C89665" stroke="#C89665"/>
<path d="M469.006 240.422V234.786C469.006 234.717 469.073 234.667 469.138 234.689L470.253 235.073C470.294 235.086 470.321 235.124 470.321 235.167V240.422C470.321 240.477 470.276 240.522 470.221 240.522H469.106C469.051 240.522 469.006 240.477 469.006 240.422Z" fill="#C89665" stroke="#C89665"/>
<path d="M448.527 220.543L456.239 215.239C456.273 215.215 456.316 215.214 456.35 215.237C463.208 219.855 476.52 228.33 477.689 228.759C477.743 228.738 477.771 228.739 477.771 228.765C477.771 228.781 477.743 228.779 477.689 228.759C476.998 229.026 472.137 232.929 469.939 235.041C469.905 235.074 469.854 235.077 469.815 235.051L448.528 220.708C448.47 220.669 448.469 220.583 448.527 220.543Z" fill="#F1BA4D"/>
<path d="M477.771 228.765C477.771 228.407 472.309 232.764 469.939 235.041C469.905 235.074 469.854 235.077 469.815 235.051L448.528 220.708C448.47 220.669 448.469 220.583 448.527 220.543L456.239 215.239C456.273 215.215 456.316 215.214 456.35 215.237C463.527 220.07 477.771 229.126 477.771 228.765Z" stroke="#F1BA4D"/>
</g>
<g filter="url(#filter5_d_172_2375)">
<path d="M501.439 235.283V243.181C501.439 243.215 501.456 243.246 501.483 243.265L508.734 248.105C508.801 248.149 508.89 248.102 508.89 248.022V240.123C508.89 240.09 508.873 240.058 508.845 240.04L501.594 235.2C501.528 235.155 501.439 235.203 501.439 235.283Z" fill="#088FA2" stroke="#017A8B"/>
<path d="M514.149 243.852V250.929C514.149 250.963 514.167 250.995 514.196 251.014L521.008 255.346C521.075 255.388 521.162 255.34 521.162 255.261V247.396C521.162 247.359 521.141 247.325 521.108 247.308L514.296 243.763C514.229 243.728 514.149 243.777 514.149 243.852Z" fill="#088FA2" stroke="#017A8B"/>
<path d="M491.358 253.988V247.949C491.358 247.868 491.449 247.819 491.515 247.864L492.63 248.631C492.657 248.65 492.673 248.681 492.673 248.714V253.987C492.673 254.042 492.628 254.087 492.573 254.087H491.458C491.403 254.087 491.358 254.044 491.358 253.988Z" fill="#C89665" stroke="#C89665"/>
<path d="M521.017 255.519L520.35 255.863C520.312 255.882 520.29 255.925 520.297 255.967L520.963 260.092C520.983 260.213 521.162 260.199 521.162 260.076V255.608C521.162 255.533 521.083 255.484 521.017 255.519Z" stroke="#017A8B" stroke-width="0.5"/>
<path d="M514.149 265.68V261.384C514.149 261.346 514.17 261.311 514.204 261.294L514.88 260.945C514.947 260.911 515.026 260.959 515.026 261.034V265.33C515.026 265.368 515.005 265.402 514.972 265.419L514.295 265.768C514.229 265.803 514.149 265.755 514.149 265.68Z" fill="#017A8B" stroke="#017A8B" stroke-width="0.5"/>
<path d="M506.26 261.159V256.862C506.26 256.825 506.281 256.789 506.314 256.772L506.991 256.423C507.058 256.389 507.137 256.437 507.137 256.512V260.809C507.137 260.846 507.116 260.88 507.083 260.898L506.406 261.247C506.34 261.281 506.26 261.233 506.26 261.159Z" fill="#017A8B" stroke="#017A8B" stroke-width="0.5"/>
<path d="M499.248 256.637V252.34C499.248 252.303 499.268 252.268 499.302 252.25L499.978 251.901C500.045 251.867 500.124 251.915 500.124 251.99V256.287C500.124 256.324 500.103 256.359 500.07 256.376L499.393 256.725C499.327 256.759 499.248 256.712 499.248 256.637Z" fill="#017A8B" stroke="#017A8B" stroke-width="0.5"/>
<path d="M493.988 253.924V249.627C493.988 249.59 494.009 249.554 494.042 249.537L494.719 249.188C494.786 249.154 494.865 249.202 494.865 249.277V253.574C494.865 253.611 494.844 253.646 494.811 253.663L494.134 254.012C494.068 254.046 493.988 253.999 493.988 253.924Z" fill="#017A8B" stroke="#017A8B" stroke-width="0.5"/>
<path d="M519.409 261.222V255.586C519.409 255.517 519.476 255.467 519.541 255.489L520.656 255.873C520.696 255.886 520.724 255.924 520.724 255.967V261.222C520.724 261.277 520.679 261.322 520.624 261.322H519.509C519.453 261.322 519.409 261.278 519.409 261.222Z" fill="#C89665" stroke="#C89665"/>
<path d="M511.958 267.553V261.916C511.958 261.848 512.026 261.797 512.091 261.819L513.205 262.203C513.246 262.217 513.273 262.255 513.273 262.297V267.552C513.273 267.607 513.228 267.652 513.173 267.652H512.058C512.003 267.652 511.958 267.608 511.958 267.553Z" fill="#C89665" stroke="#C89665"/>
<path d="M491.479 247.673L499.191 242.369C499.225 242.346 499.268 242.345 499.303 242.368C506.161 246.986 519.472 255.461 520.641 255.889C520.695 255.869 520.724 255.87 520.724 255.896C520.724 255.912 520.696 255.909 520.641 255.889C519.95 256.156 515.089 260.059 512.891 262.171C512.857 262.204 512.806 262.207 512.767 262.181L491.48 247.839C491.422 247.799 491.421 247.713 491.479 247.673Z" fill="#F1BA4D"/>
<path d="M520.724 255.896C520.724 255.537 515.261 259.895 512.891 262.171C512.857 262.204 512.806 262.207 512.767 262.181L491.48 247.839C491.422 247.799 491.421 247.713 491.479 247.673L499.191 242.369C499.225 242.346 499.268 242.345 499.303 242.368C506.479 247.2 520.724 256.257 520.724 255.896Z" stroke="#C89665"/>
</g>
<g filter="url(#filter6_d_172_2375)">
<path d="M480.401 249.752V257.651C480.401 257.684 480.418 257.715 480.445 257.734L487.696 262.574C487.763 262.619 487.852 262.571 487.852 262.491V254.593C487.852 254.559 487.835 254.528 487.807 254.509L480.556 249.669C480.49 249.625 480.401 249.672 480.401 249.752Z" fill="#088FA2" stroke="#017A8B"/>
<path d="M493.111 258.321V265.399C493.111 265.433 493.129 265.465 493.158 265.483L499.97 269.815C500.037 269.858 500.124 269.81 500.124 269.731V261.866C500.124 261.828 500.103 261.794 500.07 261.777L493.257 258.233C493.191 258.198 493.111 258.246 493.111 258.321Z" fill="#088FA2" stroke="#017A8B"/>
<path d="M470.32 268.458V262.418C470.32 262.338 470.411 262.288 470.477 262.334L471.592 263.101C471.619 263.119 471.635 263.15 471.635 263.183V268.457C471.635 268.512 471.59 268.557 471.535 268.557H470.42C470.365 268.557 470.32 268.513 470.32 268.458Z" fill="#C89665" stroke="#C89665"/>
<path d="M499.978 269.988L499.312 270.332C499.273 270.352 499.252 270.394 499.259 270.437L499.925 274.561C499.945 274.683 500.124 274.668 500.124 274.545V270.077C500.124 270.002 500.045 269.954 499.978 269.988Z" stroke="#017A8B" stroke-width="0.5"/>
<path d="M493.111 280.15V275.853C493.111 275.816 493.132 275.781 493.165 275.763L493.842 275.414C493.909 275.38 493.988 275.428 493.988 275.503V279.8C493.988 279.837 493.967 279.872 493.934 279.889L493.257 280.238C493.191 280.272 493.111 280.225 493.111 280.15Z" fill="#017A8B" stroke="#017A8B" stroke-width="0.5"/>
<path d="M485.222 275.628V271.332C485.222 271.294 485.243 271.259 485.276 271.242L485.953 270.893C486.019 270.858 486.099 270.907 486.099 270.981V275.278C486.099 275.316 486.078 275.35 486.045 275.367L485.368 275.716C485.301 275.75 485.222 275.703 485.222 275.628Z" fill="#017A8B" stroke="#017A8B" stroke-width="0.5"/>
<path d="M478.209 271.106V266.81C478.209 266.773 478.23 266.737 478.264 266.72L478.94 266.371C479.007 266.337 479.086 266.385 479.086 266.46V270.756C479.086 270.794 479.065 270.828 479.032 270.845L478.355 271.194C478.289 271.229 478.209 271.181 478.209 271.106Z" fill="#017A8B" stroke="#017A8B" stroke-width="0.5"/>
<path d="M472.95 268.393V264.097C472.95 264.059 472.971 264.024 473.004 264.007L473.68 263.658C473.747 263.623 473.826 263.672 473.826 263.747V268.043C473.826 268.081 473.805 268.115 473.772 268.132L473.096 268.481C473.029 268.516 472.95 268.468 472.95 268.393Z" fill="#017A8B" stroke="#017A8B" stroke-width="0.5"/>
<path d="M498.371 275.692V270.055C498.371 269.987 498.438 269.936 498.503 269.959L499.618 270.342C499.658 270.356 499.685 270.394 499.685 270.437V275.691C499.685 275.747 499.641 275.791 499.585 275.791H498.471C498.415 275.791 498.371 275.747 498.371 275.692Z" fill="#C89665" stroke="#C89665"/>
<path d="M490.92 282.022V276.386C490.92 276.317 490.988 276.267 491.052 276.289L492.167 276.672C492.208 276.686 492.235 276.724 492.235 276.767V282.022C492.235 282.077 492.19 282.122 492.135 282.122H491.02C490.965 282.122 490.92 282.077 490.92 282.022Z" fill="#C89665" stroke="#C89665"/>
<path d="M470.441 262.143L478.153 256.839C478.187 256.815 478.23 256.814 478.264 256.837C485.123 261.455 498.434 269.93 499.603 270.359C499.657 270.338 499.686 270.339 499.686 270.365C499.686 270.381 499.657 270.379 499.603 270.359C498.912 270.625 494.051 274.529 491.853 276.641C491.819 276.674 491.768 276.677 491.729 276.65L470.442 262.308C470.384 262.269 470.383 262.183 470.441 262.143Z" fill="#F1BA4D"/>
<path d="M499.686 270.365C499.686 270.006 494.223 274.364 491.853 276.641C491.819 276.674 491.768 276.677 491.729 276.65L470.442 262.308C470.384 262.269 470.383 262.183 470.441 262.143L478.153 256.839C478.187 256.815 478.23 256.814 478.264 256.837C485.441 261.67 499.686 270.726 499.686 270.365Z" stroke="#F1BA4D"/>
</g>
<g filter="url(#filter7_d_172_2375)">
<path d="M459.363 265.126V273.025C459.363 273.058 459.38 273.089 459.408 273.108L466.659 277.948C466.725 277.993 466.814 277.945 466.814 277.865V269.967C466.814 269.933 466.797 269.902 466.77 269.883L459.519 265.043C459.452 264.999 459.363 265.046 459.363 265.126Z" fill="#088FA2" stroke="#017A8B"/>
<path d="M472.074 273.695V280.773C472.074 280.807 472.091 280.839 472.12 280.857L478.933 285.189C478.999 285.232 479.086 285.184 479.086 285.105V277.24C479.086 277.202 479.066 277.168 479.032 277.151L472.22 273.607C472.153 273.572 472.074 273.62 472.074 273.695Z" fill="#088FA2" stroke="#017A8B"/>
<path d="M449.283 283.832V277.792C449.283 277.712 449.373 277.662 449.439 277.708L450.554 278.475C450.581 278.493 450.598 278.524 450.598 278.557V283.831C450.598 283.886 450.553 283.931 450.498 283.931H449.383C449.327 283.931 449.283 283.887 449.283 283.832Z" fill="#C89665" stroke="#C89665"/>
<path d="M478.94 285.362L478.274 285.706C478.235 285.726 478.214 285.768 478.221 285.811L478.887 289.935C478.907 290.057 479.086 290.042 479.086 289.919V285.451C479.086 285.376 479.007 285.328 478.94 285.362Z" stroke="#017A8B" stroke-width="0.5"/>
<path d="M472.074 295.524V291.227C472.074 291.19 472.095 291.155 472.128 291.137L472.804 290.788C472.871 290.754 472.95 290.802 472.95 290.877V295.174C472.95 295.211 472.929 295.246 472.896 295.263L472.22 295.612C472.153 295.646 472.074 295.599 472.074 295.524Z" fill="#017A8B" stroke="#017A8B" stroke-width="0.5"/>
<path d="M464.185 291.002V286.706C464.185 286.668 464.205 286.633 464.239 286.616L464.915 286.267C464.982 286.232 465.061 286.281 465.061 286.356V290.652C465.061 290.69 465.04 290.724 465.007 290.741L464.33 291.09C464.264 291.124 464.185 291.077 464.185 291.002Z" fill="#017A8B" stroke="#017A8B" stroke-width="0.5"/>
<path d="M457.172 286.48V282.184C457.172 282.147 457.193 282.111 457.226 282.094L457.903 281.745C457.969 281.711 458.048 281.759 458.048 281.834V286.13C458.048 286.168 458.028 286.202 457.994 286.219L457.318 286.568C457.251 286.603 457.172 286.555 457.172 286.48Z" fill="#017A8B" stroke="#017A8B" stroke-width="0.5"/>
<path d="M451.913 283.767V279.471C451.913 279.433 451.933 279.398 451.967 279.381L452.643 279.032C452.71 278.997 452.789 279.046 452.789 279.121V283.417C452.789 283.455 452.768 283.489 452.735 283.506L452.058 283.855C451.992 283.89 451.913 283.842 451.913 283.767Z" fill="#017A8B" stroke="#017A8B" stroke-width="0.5"/>
<path d="M477.333 291.066V285.429C477.333 285.361 477.401 285.31 477.466 285.333L478.58 285.716C478.621 285.73 478.648 285.768 478.648 285.811V291.065C478.648 291.121 478.603 291.165 478.548 291.165H477.433C477.378 291.165 477.333 291.121 477.333 291.066Z" fill="#C89665" stroke="#C89665"/>
<path d="M469.882 297.396V291.76C469.882 291.691 469.95 291.641 470.015 291.663L471.13 292.046C471.17 292.06 471.197 292.098 471.197 292.141V297.396C471.197 297.451 471.152 297.496 471.097 297.496H469.982C469.927 297.496 469.882 297.451 469.882 297.396Z" fill="#C89665" stroke="#C89665"/>
<path d="M449.404 277.517L457.116 272.213C457.15 272.189 457.193 272.188 457.227 272.211C464.085 276.829 477.397 285.304 478.566 285.733C478.619 285.712 478.648 285.713 478.648 285.739C478.648 285.755 478.62 285.753 478.566 285.733C477.874 286 473.014 289.903 470.816 292.015C470.782 292.048 470.731 292.051 470.692 292.024L449.405 277.682C449.346 277.643 449.346 277.557 449.404 277.517Z" fill="#F1BA4D"/>
<path d="M478.648 285.739C478.648 285.38 473.185 289.738 470.816 292.015C470.782 292.048 470.731 292.051 470.692 292.024L449.405 277.682C449.346 277.643 449.346 277.557 449.404 277.517L457.116 272.213C457.15 272.189 457.193 272.188 457.227 272.211C464.404 277.044 478.648 286.1 478.648 285.739Z" stroke="#C89665"/>
</g>
<path d="M473.389 307.712V269.966C473.389 269.933 473.405 269.902 473.432 269.883L537.773 226.082C537.801 226.063 537.817 226.032 537.817 225.999V223.064C537.817 222.986 537.902 222.938 537.968 222.978L543.028 226.023C543.058 226.041 543.076 226.074 543.076 226.109V262.624C543.076 262.658 543.059 262.689 543.031 262.708L473.543 307.795C473.477 307.839 473.389 307.791 473.389 307.712Z" fill="#186EA2" stroke="#017A8B" stroke-width="0.5"/>
<path d="M404.577 225.6L404.139 264.035" stroke="white" stroke-width="1.5"/>
<path d="M393.619 256.302C393.598 255.673 393.391 248.268 394.054 219.444C394.056 219.368 394.139 219.317 394.205 219.356L418.551 233.709C418.583 233.728 418.602 233.762 418.6 233.798L417.294 271.994C417.291 272.073 417.203 272.118 417.138 272.074L393.662 256.376C393.636 256.358 393.62 256.334 393.619 256.302Z" fill="white" fill-opacity="0.3" stroke="white" stroke-width="1.5"/>
<path d="M456.99 259.93L456.114 296.104" stroke="white" stroke-width="1.5"/>
<path d="M445.159 289.719C445.182 289.071 445.418 282.357 446.078 253.775C446.079 253.698 446.163 253.648 446.228 253.687L470.576 268.04C470.607 268.058 470.625 268.092 470.625 268.128L470.142 304.972C470.14 305.049 470.055 305.096 469.989 305.056L445.207 289.805C445.176 289.786 445.157 289.755 445.159 289.719Z" fill="white" fill-opacity="0.3" stroke="white" stroke-width="1.5"/>
<path d="M553.157 277.093V270.547C553.157 270.468 553.07 270.42 553.003 270.463L470.374 322.784C470.341 322.804 470.3 322.804 470.267 322.784L379.31 265.488C379.243 265.446 379.157 265.494 379.157 265.573V272.57C379.157 272.605 379.175 272.637 379.204 272.655L471.144 329.567C471.176 329.587 471.218 329.587 471.25 329.566L553.111 277.177C553.139 277.159 553.157 277.127 553.157 277.093Z" fill="#A87E40" stroke="#A87E40" stroke-width="1.5"/>
<path d="M379.157 264.939V257.435C379.157 257.356 379.243 257.305 379.309 257.347L471.197 314.226L551.254 261.384C551.9 260.957 552.766 261.396 552.803 262.17L553.157 269.461L470.32 322.365L379.157 264.939Z" fill="#046270" stroke="#025D69"/>
<path d="M472.264 268.433C472.811 269.206 473.778 270.101 475.398 270.341C475.5 270.356 475.578 270.444 475.576 270.548L474.712 307.539C474.708 307.695 474.535 307.787 474.404 307.702L471.29 305.695C471.232 305.657 471.198 305.593 471.199 305.524L471.62 268.59C471.622 268.359 472.131 268.245 472.264 268.433Z" fill="#038699" stroke="#038699"/>
<path d="M393.353 219.179L389.826 218.724C388.894 218.604 388.628 217.38 389.426 216.883L457.872 174.256C458.517 173.854 459.334 173.853 459.98 174.252L540.437 223.969C541.674 224.734 541.708 226.52 540.502 227.331L476.244 270.528C475.576 270.977 474.704 270.982 474.031 270.54L472.878 269.784C471.672 268.992 471.676 267.222 472.885 266.435L532.96 227.335C534.194 226.531 534.166 224.714 532.907 223.949L459.974 179.663C459.331 179.272 458.522 179.276 457.882 179.673L394.663 218.895C394.272 219.137 393.809 219.238 393.353 219.179Z" fill="#038699"/>
</g>
<path fill-rule="evenodd" clip-rule="evenodd" d="M324.439 156.153C306.827 140.594 365.833 112.03 365.833 112.03C369.463 112.03 376.724 112.03 383.984 103.902C391.245 96.9353 397.9 81.8405 405.16 81.8405C412.421 81.8405 419.681 96.9353 426.941 96.9353C434.202 96.9353 441.462 81.8405 448.723 71.3902C455.983 62.1011 462.638 57.4565 469.899 64.4234C477.159 71.3902 484.419 92.2907 491.68 101.58C498.94 112.03 506.201 112.03 513.461 99.2576C520.721 86.485 527.377 62.1011 534.637 44.684C541.898 27.2669 549.158 17.9778 556.418 27.2669C563.679 37.7172 570.939 66.7457 578.199 74.8736C585.46 81.8405 611.34 71.9224 618.6 69.6001C641.665 62.2225 654.319 107.701 676.6 111.6C716.6 118.6 740.1 156.153 740.1 156.153H596.157C603.418 156.153 592.527 156.153 596.157 156.153C588.897 156.153 585.46 156.153 578.199 156.153C570.939 156.153 563.679 156.153 556.418 156.153C549.158 156.153 541.898 156.153 534.637 156.153C527.377 156.153 520.721 156.153 513.461 156.153C506.201 156.153 498.94 156.153 491.68 156.153C484.419 156.153 477.159 156.153 469.899 156.153C462.638 156.153 455.983 156.153 448.723 156.153C441.462 156.153 434.202 156.153 426.941 156.153C419.681 156.153 412.421 156.153 405.16 156.153C397.9 156.153 391.245 156.153 383.984 156.153C376.724 156.153 369.463 156.153 365.833 156.153H362.203C362.203 156.153 335.764 166.159 324.439 156.153Z" fill="#088FA2" fill-opacity="0.11"/>
<path fill-rule="evenodd" clip-rule="evenodd" d="M431.261 157.153C448.873 141.594 389.867 113.03 389.867 113.03C386.237 113.03 378.976 113.03 371.716 104.902C364.456 97.9353 357.8 82.8405 350.54 82.8405C343.28 82.8405 336.019 97.9353 328.759 97.9353C321.498 97.9353 314.238 82.8405 306.978 72.3902C299.717 63.1011 293.062 58.4565 285.801 65.4234C278.541 72.3902 271.281 93.2907 264.02 102.58C256.76 113.03 249.5 113.03 242.239 100.258C234.979 87.485 228.323 63.1011 221.063 45.684C213.803 28.2669 206.542 18.9778 199.282 28.2669C192.022 38.7172 184.761 67.7457 177.501 75.8736C170.24 82.8405 144.36 72.9224 137.1 70.6001C114.035 63.2225 101.381 108.701 79.1001 112.6C39.1001 119.6 15.6001 157.153 15.6001 157.153H159.543C152.283 157.153 163.173 157.153 159.543 157.153C166.803 157.153 170.24 157.153 177.501 157.153C184.761 157.153 192.022 157.153 199.282 157.153C206.542 157.153 213.803 157.153 221.063 157.153C228.323 157.153 234.979 157.153 242.239 157.153C249.5 157.153 256.76 157.153 264.02 157.153C271.281 157.153 278.541 157.153 285.801 157.153C293.062 157.153 299.717 157.153 306.978 157.153C314.238 157.153 321.498 157.153 328.759 157.153C336.019 157.153 343.28 157.153 350.54 157.153C357.8 157.153 364.456 157.153 371.716 157.153C378.976 157.153 386.237 157.153 389.867 157.153H393.497C393.497 157.153 419.937 167.159 431.261 157.153Z" fill="#088FA2" fill-opacity="0.11"/>
<path d="M198.203 207.6C200.109 201.792 205.203 193.6 205.203 193.6L380.203 184.6C380.203 184.6 417.703 175.1 386.703 193.6C355.703 212.1 318.203 286.1 286.203 263.1C254.203 240.1 196.296 213.408 198.203 207.6Z" fill="#039CB0" fill-opacity="0.2"/>
<g filter="url(#filter8_i_172_2375)">
<path d="M286.703 229.1L202.203 177.6L297.703 118.1L382.203 170.1L286.703 229.1Z" fill="#00A2B7" stroke="#038699"/>
<path d="M307.703 187.6V188.225" stroke="#ABABB3" stroke-width="0.5"/>
<path d="M201.703 186.1V177.6L286.703 229.1L382.703 170.1V178.6L285.703 238.1L228.203 203.1L201.703 186.1Z" fill="#038699" stroke="#038699"/>
<path d="M202.002 195.6V187.1L287.202 238.1L382.702 179.1V187.1L286.467 247.6L228.649 212.6L202.002 195.6Z" fill="#B1823B" stroke="#906834" stroke-opacity="0.3"/>
<path d="M274.203 198.6L300.703 182.6L307.703 187.6V190.1L300.703 185.6L274.203 201.6L229.703 175.1V172.1L274.203 198.6Z" fill="#A7A7B1"/>
<path d="M300.703 182.6L274.203 198.6M300.703 182.6V185.6M300.703 182.6L307.703 187.6V190.1L300.703 185.6M274.203 198.6L229.703 172.1V175.1L274.203 201.6M274.203 198.6V201.6M274.203 201.6L300.703 185.6" stroke="#ABABB3" stroke-width="0.5"/>
<path d="M327.203 177.1V174.6L308.203 187.1V190.1L327.203 177.1Z" fill="#A7A7B1" stroke="#ABABB3" stroke-width="0.5"/>
<path d="M336.203 163.1V161.1L324.703 168.6V170.6L336.203 163.1Z" fill="#A7A7B1" stroke="#ABABB3" stroke-width="0.5"/>
<g filter="url(#filter9_f_172_2375)">
<path d="M229.203 180.1L232.203 177.1L336.203 163.1C337.124 164.022 338.981 165.709 339.579 165.653C339.701 165.577 339.747 165.556 339.703 165.6C339.671 165.631 339.63 165.649 339.579 165.653C338.606 166.263 332.812 170.379 329.703 172.6L332.703 178.6L309.703 194.6L302.203 192.6L276.203 208.1L229.203 180.1Z" fill="#218C9A"/>
</g>
<path d="M274.203 194.1V159.1L330.203 124.6V159.1L274.203 194.1Z" fill="white" stroke="#F7F7F7" stroke-width="0.5"/>
<path d="M306.203 165.1L297.703 178.6L317.203 166.6L329.203 151.1L306.203 165.1Z" fill="#D9D9D9" fill-opacity="0.5"/>
<path d="M245.703 176.1V152.1L258.203 159.891V183.6L245.703 176.1Z" fill="#6F631D" stroke="#878264"/>
<path d="M234.203 169.6V131.419L252.703 130.6L274.203 160.1L273.703 193.6L259.203 185.1V183.6V159.6L245.203 151.1V176.1L243.203 175.6L234.203 169.6Z" fill="white" stroke="#F7F7F7"/>
<path d="M311.203 94.6001L253.203 129.6L231.203 130.6L289.203 95.6001L311.203 94.6001Z" fill="#088FA2"/>
<path d="M253.703 129.6L231.203 130.6L289.203 95.6001L311.203 94.6001" stroke="#038699"/>
<path d="M311.203 94.6001L253.203 129.6L274.203 158.6L331.703 122.6L311.203 94.6001Z" fill="#00A2B7" stroke="#039CB0"/>
<path d="M283.203 167.6V159.6L288.703 156.1V164.1L283.203 167.6Z" fill="#088FA2" stroke="#038699"/>
<path d="M318.203 146.6V138.6L323.703 135.6V143.1L318.203 146.6Z" fill="#088FA2" stroke="#038699"/>
<path d="M318.203 156.6V148.6L323.703 145.6V153.1L318.203 156.6Z" fill="#088FA2" stroke="#038699"/>
<path d="M291.203 163.1V155.1L296.703 152.1V159.6L291.203 163.1Z" fill="#088FA2" stroke="#038699"/>
<path d="M289.203 166.1L283.203 170.1V177.6L289.203 174.1V166.1Z" fill="#039CB0" stroke="#038699"/>
<path d="M297.203 161.6L291.203 165.1V173.1L297.203 169.6V161.6Z" fill="#039CB0" stroke="#038699"/>
<path d="M297.703 179.1V158.6L317.203 151.6V167.1L297.703 179.1Z" fill="#D9D9D9" fill-opacity="0.59"/>
<path d="M324.703 169.1L321.703 171.1L324.703 173.1V169.1Z" fill="white" stroke="#D9D9D9" stroke-width="0.5"/>
<path d="M229.703 172.1L233.703 169.1L274.203 193.6L330.203 159.1V155.6L336.203 161.1L321.203 171.1L327.203 174.6L307.703 187.6L300.703 182.6L274.203 198.6L229.703 172.1Z" fill="#AAAAB3" stroke="#B1B1BB" stroke-width="0.5"/>
<path d="M301.203 182.6V162.6L305.203 166.1L307.203 165.1V185.1L305.703 185.6L301.203 182.6Z" fill="white"/>
<path d="M305.703 185.6L301.203 182.6V162.6L305.203 166.1M305.703 185.6L305.203 166.1M305.703 185.6L307.203 185.1V165.1L305.203 166.1" stroke="#F7F7F7" stroke-width="0.5"/>
<path d="M319.203 171.6V155.1L323.203 155.6L324.203 154.6V172.6L323.203 173.6L319.203 171.6Z" fill="white"/>
<path d="M323.203 173.6L319.203 171.6V155.1L323.203 155.6M323.203 173.6V155.6M323.203 173.6L324.203 172.6V154.6L323.203 155.6" stroke="#F7F7F7" stroke-width="0.5"/>
<path d="M306.203 164.6L293.203 154.43L314.703 140.6L328.203 151.1L306.203 164.6Z" fill="#039CB0" stroke="#038699"/>
</g>
<path d="M387.657 183.6C386.953 183.6 386.157 183.1 386.157 183.1V158.6H389.157V183.1C389.157 183.1 388.361 183.6 387.657 183.6Z" fill="#346C5F" stroke="#346C5F"/>
<g filter="url(#filter10_i_172_2375)">
<path d="M377.909 144.611L378.005 145.187C378.104 145.781 378.385 146.329 378.811 146.754C379.353 147.296 380.087 147.6 380.853 147.6H381.157L379.157 148.6L377.657 149.6C376.99 150.1 375.557 151.2 375.157 151.6C374.931 151.826 374.8 152.276 374.73 152.714C374.638 153.287 374.828 153.858 375.15 154.341L375.474 154.826C375.593 155.004 375.763 155.143 375.963 155.223L376.161 155.302C376.935 155.611 376.979 156.689 376.235 157.061C376.183 157.087 376.133 157.118 376.087 157.152L374.65 158.23C374.329 158.471 374.089 158.804 373.962 159.185C373.769 159.762 373.854 160.396 374.192 160.903L374.472 161.324C374.593 161.505 374.759 161.651 374.954 161.749L376.317 162.43C376.811 162.677 376.76 163.399 376.236 163.574C376.183 163.591 376.133 163.616 376.088 163.646L374.978 164.386C374.765 164.528 374.533 164.641 374.29 164.722L374.118 164.78C373.502 164.985 372.994 165.426 372.704 166.006C372.359 166.695 372.359 167.505 372.704 168.194L372.81 168.406C373.037 168.861 373.379 169.248 373.802 169.53L374.657 170.1L376.157 171.1L377.101 171.572C377.795 171.919 378.561 172.1 379.337 172.1H381.801C382.038 172.1 382.274 172.117 382.509 172.15L385.305 172.55C385.539 172.583 385.775 172.6 386.012 172.6H388.301C388.538 172.6 388.774 172.583 389.008 172.55L392.157 172.1C393.658 171.886 394.651 171.662 395.276 171.474C395.885 171.291 396.457 170.971 397.042 170.721L398.832 169.954C399.377 169.72 399.872 169.385 400.291 168.965L400.95 168.307C401.402 167.854 401.657 167.24 401.657 166.6C401.657 165.96 401.402 165.346 400.95 164.893L400.657 164.6L399.675 163.618C399.343 163.286 398.893 163.1 398.425 163.1H397.364C396.973 163.1 396.657 162.784 396.657 162.393C396.657 162.205 396.731 162.026 396.864 161.893L397.735 161.022C398.014 160.743 398.247 160.42 398.424 160.066L398.998 158.918C399.104 158.706 399.194 158.488 399.269 158.263L399.657 157.1C400.057 155.9 398.823 155.267 398.157 155.1L396.867 154.67C396.171 154.438 396.046 153.507 396.657 153.1C397.395 152.608 397.793 152.09 397.989 151.687C398.169 151.32 398.107 150.9 398.007 150.503L397.923 150.163C397.749 149.468 397.389 148.832 396.882 148.325L396.417 147.86C396.246 147.69 396.035 147.565 395.803 147.499L395.211 147.33C394.241 147.053 394.07 145.752 394.935 145.233C395.081 145.146 395.206 145.026 395.3 144.884L395.868 144.033C396.06 143.745 396.222 143.438 396.35 143.117L396.414 142.957C396.891 141.765 396.891 140.435 396.414 139.243L396.306 138.972C396.206 138.724 396.088 138.485 395.951 138.257L395.395 137.331C394.913 136.527 394.211 135.877 393.372 135.458C392.898 135.221 392.389 135.062 391.865 134.987L389.923 134.71C389.415 134.637 388.899 134.643 388.394 134.727L386.544 135.036C386.286 135.079 386.032 135.142 385.785 135.224L383.677 135.927C383.331 136.042 382.999 136.195 382.686 136.382L381.729 136.957C381.025 137.379 380.436 137.968 380.014 138.672L379.157 140.1L378.342 141.73C377.897 142.62 377.745 143.629 377.909 144.611Z" fill="#67AD15"/>
</g>
<path d="M382.157 147.6H381.157M381.157 147.6H380.853C380.087 147.6 379.353 147.296 378.811 146.754C378.385 146.329 378.104 145.781 378.005 145.187L377.909 144.611C377.745 143.629 377.897 142.62 378.342 141.73L379.157 140.1L380.014 138.672C380.436 137.968 381.025 137.379 381.729 136.957L382.686 136.382C382.999 136.195 383.331 136.042 383.677 135.927L385.785 135.224C386.032 135.142 386.286 135.079 386.544 135.036L388.394 134.727C388.899 134.643 389.415 134.637 389.923 134.71L391.865 134.987C392.389 135.062 392.898 135.221 393.372 135.458C394.211 135.877 394.913 136.527 395.395 137.331L395.951 138.257C396.088 138.485 396.206 138.724 396.306 138.972L396.414 139.243C396.891 140.435 396.891 141.765 396.414 142.957L396.35 143.117C396.222 143.438 396.06 143.745 395.868 144.033L395.3 144.884C395.206 145.026 395.081 145.146 394.935 145.233C394.07 145.752 394.241 147.053 395.211 147.33L395.803 147.499C396.035 147.565 396.246 147.69 396.417 147.86L396.882 148.325C397.389 148.832 397.749 149.468 397.923 150.163L398.007 150.503C398.107 150.9 398.169 151.32 397.989 151.687C397.793 152.09 397.395 152.608 396.657 153.1C396.046 153.507 396.171 154.438 396.867 154.67L398.157 155.1C398.823 155.267 400.057 155.9 399.657 157.1C399.467 157.668 399.345 158.035 399.269 158.263C399.194 158.488 399.104 158.706 398.998 158.918L398.424 160.066C398.247 160.42 398.014 160.743 397.735 161.022L396.864 161.893C396.731 162.026 396.657 162.205 396.657 162.393C396.657 162.784 396.973 163.1 397.364 163.1H398.425C398.893 163.1 399.343 163.286 399.675 163.618L400.657 164.6L400.95 164.893C401.402 165.346 401.657 165.96 401.657 166.6C401.657 167.24 401.402 167.854 400.95 168.307L400.291 168.965C399.872 169.385 399.377 169.72 398.832 169.954L397.042 170.721C396.457 170.971 395.885 171.291 395.276 171.474C394.651 171.662 393.658 171.886 392.157 172.1C390.383 172.353 389.452 172.486 389.008 172.55C388.774 172.583 388.538 172.6 388.301 172.6H386.012C385.775 172.6 385.539 172.583 385.305 172.55L382.509 172.15C382.274 172.117 382.038 172.1 381.801 172.1H379.337C378.561 172.1 377.795 171.919 377.101 171.572L376.157 171.1L374.657 170.1L373.802 169.53C373.379 169.248 373.037 168.861 372.81 168.406L372.704 168.194C372.359 167.505 372.359 166.695 372.704 166.006C372.994 165.426 373.502 164.985 374.118 164.78L374.29 164.722C374.533 164.641 374.765 164.528 374.978 164.386L376.088 163.646C376.133 163.616 376.183 163.591 376.236 163.574C376.76 163.399 376.811 162.677 376.317 162.43L374.954 161.749C374.759 161.651 374.593 161.505 374.472 161.324L374.192 160.903C373.854 160.396 373.769 159.762 373.962 159.185C374.089 158.804 374.329 158.471 374.65 158.23L376.087 157.152C376.133 157.118 376.183 157.087 376.235 157.061C376.979 156.689 376.935 155.611 376.161 155.302L375.963 155.223C375.763 155.143 375.593 155.004 375.474 154.826L375.15 154.341C374.828 153.858 374.638 153.287 374.73 152.714C374.8 152.276 374.931 151.826 375.157 151.6C375.557 151.2 376.99 150.1 377.657 149.6L379.157 148.6L381.157 147.6Z" stroke="#53A934"/>
<path d="M378.224 181.566L381.991 179.683C382.754 179.302 383.604 179.12 384.456 179.159L393.317 179.562C393.87 179.587 394.413 179.728 394.909 179.976L395.533 180.288C397.42 181.232 397.992 183.654 396.726 185.342C396.354 185.838 395.852 186.222 395.276 186.452L393.241 187.266C391.915 187.797 391.16 188.768 391.911 189.982C392.313 190.633 392.878 191.488 393.657 192.6C396.662 195.939 389.887 198.349 384.271 199.539C382.38 199.94 380.473 199.075 379.401 197.466L377.4 194.465C376.677 193.381 375.6 193.157 376.522 192.235C378.025 190.732 378.514 186.627 377.274 184.9C377.223 184.829 377.174 184.758 377.126 184.686C376.375 183.564 377.016 182.17 378.224 181.566Z" fill="#017A8B" fill-opacity="0.18"/>
<path d="M491.657 327.6C490.953 327.6 490.157 327.1 490.157 327.1V302.6H493.157V327.1C493.157 327.1 492.361 327.6 491.657 327.6Z" fill="#346C5F" stroke="#346C5F"/>
<g filter="url(#filter11_i_172_2375)">
<path d="M481.909 288.611L482.005 289.187C482.104 289.781 482.385 290.329 482.811 290.754C483.353 291.296 484.087 291.6 484.853 291.6H485.157L483.157 292.6L481.657 293.6C480.99 294.1 479.557 295.2 479.157 295.6C478.931 295.826 478.8 296.276 478.73 296.714C478.638 297.287 478.828 297.858 479.15 298.341L479.474 298.826C479.593 299.004 479.763 299.143 479.963 299.223L480.161 299.302C480.935 299.611 480.979 300.689 480.235 301.061C480.183 301.087 480.133 301.118 480.087 301.152L478.65 302.23C478.329 302.471 478.089 302.804 477.962 303.185C477.769 303.762 477.854 304.396 478.192 304.903L478.472 305.324C478.593 305.505 478.759 305.651 478.954 305.749L480.317 306.43C480.811 306.677 480.76 307.399 480.236 307.574C480.183 307.591 480.133 307.616 480.088 307.646L478.978 308.386C478.765 308.528 478.533 308.641 478.29 308.722L478.118 308.78C477.502 308.985 476.994 309.426 476.704 310.006C476.359 310.695 476.359 311.505 476.704 312.194L476.81 312.406C477.037 312.861 477.379 313.248 477.802 313.53L478.657 314.1L480.157 315.1L481.101 315.572C481.795 315.919 482.561 316.1 483.337 316.1H485.801C486.038 316.1 486.274 316.117 486.509 316.15L489.305 316.55C489.539 316.583 489.775 316.6 490.012 316.6H492.301C492.538 316.6 492.774 316.583 493.008 316.55L496.157 316.1C497.658 315.886 498.651 315.662 499.276 315.474C499.885 315.291 500.457 314.971 501.042 314.721L502.832 313.954C503.377 313.72 503.872 313.385 504.291 312.965L504.95 312.307C505.402 311.854 505.657 311.24 505.657 310.6C505.657 309.96 505.402 309.346 504.95 308.893L504.657 308.6L503.675 307.618C503.343 307.286 502.893 307.1 502.425 307.1H501.364C500.973 307.1 500.657 306.784 500.657 306.393C500.657 306.205 500.731 306.026 500.864 305.893L501.735 305.022C502.014 304.743 502.247 304.42 502.424 304.066L502.998 302.918C503.104 302.706 503.194 302.488 503.269 302.263L503.657 301.1C504.057 299.9 502.823 299.267 502.157 299.1L500.867 298.67C500.171 298.438 500.046 297.507 500.657 297.1C501.395 296.608 501.793 296.09 501.989 295.687C502.169 295.32 502.107 294.9 502.007 294.503L501.923 294.163C501.749 293.468 501.389 292.832 500.882 292.325L500.417 291.86C500.246 291.69 500.035 291.565 499.803 291.499L499.211 291.33C498.241 291.053 498.07 289.752 498.935 289.233C499.081 289.146 499.206 289.026 499.3 288.884L499.868 288.033C500.06 287.745 500.222 287.438 500.35 287.117L500.414 286.957C500.891 285.765 500.891 284.435 500.414 283.243L500.306 282.972C500.206 282.724 500.088 282.485 499.951 282.257L499.395 281.331C498.913 280.527 498.211 279.877 497.372 279.458C496.898 279.221 496.389 279.062 495.865 278.987L493.923 278.71C493.415 278.637 492.899 278.643 492.394 278.727L490.544 279.036C490.286 279.079 490.032 279.142 489.785 279.224L487.677 279.927C487.331 280.042 486.999 280.195 486.686 280.382L485.729 280.957C485.025 281.379 484.436 281.968 484.014 282.672L483.157 284.1L482.342 285.73C481.897 286.62 481.745 287.629 481.909 288.611Z" fill="#67AD15"/>
</g>
<path d="M486.157 291.6H485.157M485.157 291.6H484.853C484.087 291.6 483.353 291.296 482.811 290.754C482.385 290.329 482.104 289.781 482.005 289.187L481.909 288.611C481.745 287.629 481.897 286.62 482.342 285.73L483.157 284.1L484.014 282.672C484.436 281.968 485.025 281.379 485.729 280.957L486.686 280.382C486.999 280.195 487.331 280.042 487.677 279.927L489.785 279.224C490.032 279.142 490.286 279.079 490.544 279.036L492.394 278.727C492.899 278.643 493.415 278.637 493.923 278.71L495.865 278.987C496.389 279.062 496.898 279.221 497.372 279.458C498.211 279.877 498.913 280.527 499.395 281.331L499.951 282.257C500.088 282.485 500.206 282.724 500.306 282.972L500.414 283.243C500.891 284.435 500.891 285.765 500.414 286.957L500.35 287.117C500.222 287.438 500.06 287.745 499.868 288.033L499.3 288.884C499.206 289.026 499.081 289.146 498.935 289.233C498.07 289.752 498.241 291.053 499.211 291.33L499.803 291.499C500.035 291.565 500.246 291.69 500.417 291.86L500.882 292.325C501.389 292.832 501.749 293.468 501.923 294.163L502.007 294.503C502.107 294.9 502.169 295.32 501.989 295.687C501.793 296.09 501.395 296.608 500.657 297.1C500.046 297.507 500.171 298.438 500.867 298.67L502.157 299.1C502.823 299.267 504.057 299.9 503.657 301.1C503.467 301.668 503.345 302.035 503.269 302.263C503.194 302.488 503.104 302.706 502.998 302.918L502.424 304.066C502.247 304.42 502.014 304.743 501.735 305.022L500.864 305.893C500.731 306.026 500.657 306.205 500.657 306.393C500.657 306.784 500.973 307.1 501.364 307.1H502.425C502.893 307.1 503.343 307.286 503.675 307.618L504.657 308.6L504.95 308.893C505.402 309.346 505.657 309.96 505.657 310.6C505.657 311.24 505.402 311.854 504.95 312.307L504.291 312.965C503.872 313.385 503.377 313.72 502.832 313.954L501.042 314.721C500.457 314.971 499.885 315.291 499.276 315.474C498.651 315.662 497.658 315.886 496.157 316.1C494.383 316.353 493.452 316.486 493.008 316.55C492.774 316.583 492.538 316.6 492.301 316.6H490.012C489.775 316.6 489.539 316.583 489.305 316.55L486.509 316.15C486.274 316.117 486.038 316.1 485.801 316.1H483.337C482.561 316.1 481.795 315.919 481.101 315.572L480.157 315.1L478.657 314.1L477.802 313.53C477.379 313.248 477.037 312.861 476.81 312.406L476.704 312.194C476.359 311.505 476.359 310.695 476.704 310.006C476.994 309.426 477.502 308.985 478.118 308.78L478.29 308.722C478.533 308.641 478.765 308.528 478.978 308.386L480.088 307.646C480.133 307.616 480.183 307.591 480.236 307.574C480.76 307.399 480.811 306.677 480.317 306.43L478.954 305.749C478.759 305.651 478.593 305.505 478.472 305.324L478.192 304.903C477.854 304.396 477.769 303.762 477.962 303.185C478.089 302.804 478.329 302.471 478.65 302.23L480.087 301.152C480.133 301.118 480.183 301.087 480.235 301.061C480.979 300.689 480.935 299.611 480.161 299.302L479.963 299.223C479.763 299.143 479.593 299.004 479.474 298.826L479.15 298.341C478.828 297.858 478.638 297.287 478.73 296.714C478.8 296.276 478.931 295.826 479.157 295.6C479.557 295.2 480.99 294.1 481.657 293.6L483.157 292.6L485.157 291.6Z" stroke="#53A934"/>
<path d="M482.224 325.566L485.991 323.683C486.754 323.302 487.604 323.12 488.456 323.159L497.317 323.562C497.87 323.587 498.413 323.728 498.909 323.976L499.533 324.288C501.42 325.232 501.992 327.654 500.726 329.342C500.354 329.838 499.852 330.222 499.276 330.452L497.241 331.266C495.915 331.797 495.16 332.768 495.911 333.982C496.313 334.633 496.878 335.488 497.657 336.6C500.662 339.939 493.887 342.349 488.271 343.539C486.38 343.94 484.473 343.075 483.401 341.466L481.4 338.465C480.677 337.381 479.6 337.157 480.522 336.235C482.025 334.732 482.514 330.627 481.274 328.9C481.223 328.829 481.174 328.758 481.126 328.686C480.375 327.564 481.016 326.17 482.224 325.566Z" fill="#017A8B" fill-opacity="0.18"/>
<path d="M217.657 215.6C216.953 215.6 216.157 215.1 216.157 215.1V190.6H219.157V215.1C219.157 215.1 218.361 215.6 217.657 215.6Z" fill="#346C5F" stroke="#346C5F"/>
<g filter="url(#filter12_i_172_2375)">
<path d="M207.909 176.611L208.005 177.187C208.104 177.781 208.385 178.329 208.811 178.754C209.353 179.296 210.087 179.6 210.853 179.6H211.157L209.157 180.6L207.657 181.6C206.99 182.1 205.557 183.2 205.157 183.6C204.931 183.826 204.8 184.276 204.73 184.714C204.638 185.287 204.828 185.858 205.15 186.341L205.474 186.826C205.593 187.004 205.763 187.143 205.963 187.223L206.161 187.302C206.935 187.611 206.979 188.689 206.235 189.061C206.183 189.087 206.133 189.118 206.087 189.152L204.65 190.23C204.329 190.471 204.089 190.804 203.962 191.185C203.769 191.762 203.854 192.396 204.192 192.903L204.472 193.324C204.593 193.505 204.759 193.651 204.954 193.749L206.317 194.43C206.811 194.677 206.76 195.399 206.236 195.574C206.183 195.591 206.133 195.616 206.088 195.646L204.978 196.386C204.765 196.528 204.533 196.641 204.29 196.722L204.118 196.78C203.502 196.985 202.994 197.426 202.704 198.006C202.359 198.695 202.359 199.505 202.704 200.194L202.81 200.406C203.037 200.861 203.379 201.248 203.802 201.53L204.657 202.1L206.157 203.1L207.101 203.572C207.795 203.919 208.561 204.1 209.337 204.1H211.801C212.038 204.1 212.274 204.117 212.509 204.15L215.305 204.55C215.539 204.583 215.775 204.6 216.012 204.6H218.301C218.538 204.6 218.774 204.583 219.008 204.55L222.157 204.1C223.658 203.886 224.651 203.662 225.276 203.474C225.885 203.291 226.457 202.971 227.042 202.721L228.832 201.954C229.377 201.72 229.872 201.385 230.291 200.965L230.95 200.307C231.402 199.854 231.657 199.24 231.657 198.6C231.657 197.96 231.402 197.346 230.95 196.893L230.657 196.6L229.675 195.618C229.343 195.286 228.893 195.1 228.425 195.1H227.364C226.973 195.1 226.657 194.784 226.657 194.393C226.657 194.205 226.731 194.026 226.864 193.893L227.735 193.022C228.014 192.743 228.247 192.42 228.424 192.066L228.998 190.918C229.104 190.706 229.194 190.488 229.269 190.263L229.657 189.1C230.057 187.9 228.823 187.267 228.157 187.1L226.867 186.67C226.171 186.438 226.046 185.507 226.657 185.1C227.395 184.608 227.793 184.09 227.989 183.687C228.169 183.32 228.107 182.9 228.007 182.503L227.923 182.163C227.749 181.468 227.389 180.832 226.882 180.325L226.417 179.86C226.246 179.69 226.035 179.565 225.803 179.499L225.211 179.33C224.241 179.053 224.07 177.752 224.935 177.233C225.081 177.146 225.206 177.026 225.3 176.884L225.868 176.033C226.06 175.745 226.222 175.438 226.35 175.117L226.414 174.957C226.891 173.765 226.891 172.435 226.414 171.243L226.306 170.972C226.206 170.724 226.088 170.485 225.951 170.257L225.395 169.331C224.913 168.527 224.211 167.877 223.372 167.458C222.898 167.221 222.389 167.062 221.865 166.987L219.923 166.71C219.415 166.637 218.899 166.643 218.394 166.727L216.544 167.036C216.286 167.079 216.032 167.142 215.785 167.224L213.677 167.927C213.331 168.042 212.999 168.195 212.686 168.382L211.729 168.957C211.025 169.379 210.436 169.968 210.014 170.672L209.157 172.1L208.342 173.73C207.897 174.62 207.745 175.629 207.909 176.611Z" fill="#67AD15"/>
</g>
<path d="M212.157 179.6H211.157M211.157 179.6H210.853C210.087 179.6 209.353 179.296 208.811 178.754C208.385 178.329 208.104 177.781 208.005 177.187L207.909 176.611C207.745 175.629 207.897 174.62 208.342 173.73L209.157 172.1L210.014 170.672C210.436 169.968 211.025 169.379 211.729 168.957L212.686 168.382C212.999 168.195 213.331 168.042 213.677 167.927L215.785 167.224C216.032 167.142 216.286 167.079 216.544 167.036L218.394 166.727C218.899 166.643 219.415 166.637 219.923 166.71L221.865 166.987C222.389 167.062 222.898 167.221 223.372 167.458C224.211 167.877 224.913 168.527 225.395 169.331L225.951 170.257C226.088 170.485 226.206 170.724 226.306 170.972L226.414 171.243C226.891 172.435 226.891 173.765 226.414 174.957L226.35 175.117C226.222 175.438 226.06 175.745 225.868 176.033L225.3 176.884C225.206 177.026 225.081 177.146 224.935 177.233C224.07 177.752 224.241 179.053 225.211 179.33L225.803 179.499C226.035 179.565 226.246 179.69 226.417 179.86L226.882 180.325C227.389 180.832 227.749 181.468 227.923 182.163L228.007 182.503C228.107 182.9 228.169 183.32 227.989 183.687C227.793 184.09 227.395 184.608 226.657 185.1C226.046 185.507 226.171 186.438 226.867 186.67L228.157 187.1C228.823 187.267 230.057 187.9 229.657 189.1C229.467 189.668 229.345 190.035 229.269 190.263C229.194 190.488 229.104 190.706 228.998 190.918L228.424 192.066C228.247 192.42 228.014 192.743 227.735 193.022L226.864 193.893C226.731 194.026 226.657 194.205 226.657 194.393C226.657 194.784 226.973 195.1 227.364 195.1H228.425C228.893 195.1 229.343 195.286 229.675 195.618L230.657 196.6L230.95 196.893C231.402 197.346 231.657 197.96 231.657 198.6C231.657 199.24 231.402 199.854 230.95 200.307L230.291 200.965C229.872 201.385 229.377 201.72 228.832 201.954L227.042 202.721C226.457 202.971 225.885 203.291 225.276 203.474C224.651 203.662 223.658 203.886 222.157 204.1C220.383 204.353 219.452 204.486 219.008 204.55C218.774 204.583 218.538 204.6 218.301 204.6H216.012C215.775 204.6 215.539 204.583 215.305 204.55L212.509 204.15C212.274 204.117 212.038 204.1 211.801 204.1H209.337C208.561 204.1 207.795 203.919 207.101 203.572L206.157 203.1L204.657 202.1L203.802 201.53C203.379 201.248 203.037 200.861 202.81 200.406L202.704 200.194C202.359 199.505 202.359 198.695 202.704 198.006C202.994 197.426 203.502 196.985 204.118 196.78L204.29 196.722C204.533 196.641 204.765 196.528 204.978 196.386L206.088 195.646C206.133 195.616 206.183 195.591 206.236 195.574C206.76 195.399 206.811 194.677 206.317 194.43L204.954 193.749C204.759 193.651 204.593 193.505 204.472 193.324L204.192 192.903C203.854 192.396 203.769 191.762 203.962 191.185C204.089 190.804 204.329 190.471 204.65 190.23L206.087 189.152C206.133 189.118 206.183 189.087 206.235 189.061C206.979 188.689 206.935 187.611 206.161 187.302L205.963 187.223C205.763 187.143 205.593 187.004 205.474 186.826L205.15 186.341C204.828 185.858 204.638 185.287 204.73 184.714C204.8 184.276 204.931 183.826 205.157 183.6C205.557 183.2 206.99 182.1 207.657 181.6L209.157 180.6L211.157 179.6Z" stroke="#53A934"/>
<path d="M208.224 213.566L211.991 211.683C212.754 211.302 213.604 211.12 214.456 211.159L223.317 211.562C223.87 211.587 224.413 211.728 224.909 211.976L225.533 212.288C227.42 213.232 227.992 215.654 226.726 217.342C226.354 217.838 225.852 218.222 225.276 218.452L223.241 219.266C221.915 219.797 221.16 220.768 221.911 221.982C222.313 222.633 222.878 223.488 223.657 224.6C226.662 227.939 219.887 230.349 214.271 231.539C212.38 231.94 210.473 231.075 209.401 229.466L207.4 226.465C206.677 225.381 205.6 225.157 206.522 224.235C208.025 222.732 208.514 218.627 207.274 216.9C207.223 216.829 207.174 216.758 207.126 216.686C206.375 215.564 207.016 214.17 208.224 213.566Z" fill="#017A8B" fill-opacity="0.18"/>
<g filter="url(#filter13_d_172_2375)">
<path d="M202.157 143.6L208.157 129.6H218.157L212.657 140.1H221.157L207.157 157.1L210.657 143.6H202.157Z" fill="url(#paint1_linear_172_2375)" shape-rendering="crispEdges"/>
<path d="M202.157 143.6L208.157 129.6H218.157L212.657 140.1H221.157L207.157 157.1L210.657 143.6H202.157Z" stroke="white" stroke-opacity="0.3" shape-rendering="crispEdges"/>
</g>
<g filter="url(#filter14_d_172_2375)">
<path d="M409.157 149.6L415.157 135.6H425.157L419.657 146.1H428.157L414.157 163.1L417.657 149.6H409.157Z" fill="url(#paint2_linear_172_2375)" shape-rendering="crispEdges"/>
<path d="M409.157 149.6L415.157 135.6H425.157L419.657 146.1H428.157L414.157 163.1L417.657 149.6H409.157Z" stroke="white" stroke-opacity="0.3" shape-rendering="crispEdges"/>
</g>
<g filter="url(#filter15_d_172_2375)">
<path d="M549.157 265.6L555.157 251.6H565.157L559.657 262.1H568.157L554.157 279.1L557.657 265.6H549.157Z" fill="url(#paint3_linear_172_2375)" shape-rendering="crispEdges"/>
<path d="M549.157 265.6L555.157 251.6H565.157L559.657 262.1H568.157L554.157 279.1L557.657 265.6H549.157Z" stroke="white" stroke-opacity="0.3" shape-rendering="crispEdges"/>
</g>
<g filter="url(#filter16_d_172_2375)">
<path d="M323.157 215.291L327.894 204.6H335.788L331.446 212.618H338.157L327.104 225.6L329.867 215.291H323.157Z" fill="url(#paint4_linear_172_2375)" shape-rendering="crispEdges"/>
<path d="M323.157 215.291L327.894 204.6H335.788L331.446 212.618H338.157L327.104 225.6L329.867 215.291H323.157Z" stroke="white" stroke-opacity="0.3" shape-rendering="crispEdges"/>
</g>
<path d="M236.894 208.199L236.636 208.371C236.018 208.782 236.048 209.699 236.692 210.07L245.823 215.326C246.125 215.5 246.315 215.82 246.324 216.168L246.517 224.109C246.535 224.882 247.387 225.342 248.044 224.934L248.438 224.689C248.739 224.502 248.919 224.17 248.91 223.815L248.689 214.888C248.68 214.539 248.49 214.219 248.187 214.045L237.947 208.164C237.618 207.975 237.21 207.988 236.894 208.199Z" fill="#039CB0" stroke="#039CB0"/>
<path d="M253.139 220.306L253.007 213.535C252.981 212.17 252.369 210.883 251.327 210.001C251.059 209.774 250.766 209.577 250.454 209.415L242.431 205.229C241.701 204.849 240.814 204.948 240.187 205.48C239.112 206.391 239.275 208.094 240.502 208.785L247.244 212.583C248.497 213.289 249.286 214.602 249.322 216.041L249.43 220.388C249.468 221.899 251.199 222.733 252.404 221.821C252.877 221.463 253.15 220.9 253.139 220.306Z" fill="#039CB0" stroke="#039CB0"/>
<path d="M246.224 214.922L235.681 209.399C235.441 209.273 235.425 209.105 235.2 209.257C234.749 209.563 234.567 210.434 235.046 210.693L244.735 215.937C245.054 216.11 245.255 216.442 245.259 216.805L245.354 224.819C245.363 225.63 246.249 226.04 246.944 225.622C246.977 225.602 246.995 225.594 246.995 225.6C246.995 225.648 246.846 219.409 246.76 215.783C246.751 215.419 246.546 215.091 246.224 214.922Z" fill="#00515C" stroke="#00515C"/>
<path d="M238.343 207.124L237.223 207.983L248.613 214.302L248.924 224.387C249.277 224.132 249.982 223.57 249.982 223.621C249.982 223.673 249.941 216.898 249.858 213.409L238.343 207.124Z" fill="#00515C" stroke="#00515C"/>
<path d="M228.692 216.468L232.726 212.851C233.3 212.337 233.466 211.505 233.133 210.809C232.722 209.952 234.812 210.211 235.658 210.645C238.676 212.191 245.737 215.843 245.56 216.09C245.459 216.231 245.048 216.524 244.691 216.764C244.331 217.006 243.887 217.083 243.462 216.994C243.28 216.956 243.093 216.949 242.909 216.972L242.587 217.012C241.957 217.091 241.359 217.334 240.853 217.715L237.722 220.076C235.996 221.377 233.664 221.536 231.776 220.481L228.963 218.907C228.337 218.557 228.044 217.815 228.262 217.132C228.344 216.876 228.492 216.647 228.692 216.468Z" fill="#039CB0" stroke="#017A8B"/>
<path d="M236.663 228.791C236.777 228.284 236.753 227.271 236.708 226.518C236.684 226.12 236.704 225.721 236.786 225.331C236.949 224.549 237.342 223.834 237.914 223.277L244.044 217.302C244.044 217.302 245.6 215.541 245.6 216.281C245.6 219.855 246.024 226.047 245.812 226.366C245.719 226.507 245.345 226.771 244.956 227.023C244.306 227.445 243.535 227.631 242.76 227.609C242.067 227.589 241.383 227.741 240.763 228.049C238.926 228.962 235.071 230.856 235.356 230.515C235.47 230.378 235.624 230.239 235.782 230.111C236.205 229.77 236.544 229.322 236.663 228.791Z" fill="#017A8B" stroke="#017A8B"/>
<path d="M239.836 218.057L238.034 219.51C236.944 220.281 235.638 220.698 234.303 220.698C233.655 220.698 234.597 221.32 235.45 221.815C236.14 222.215 236.676 222.843 236.915 223.604L236.999 223.963C237.016 224.035 237.107 224.06 237.158 224.005C237.161 224.002 237.165 223.999 237.169 223.996L240.52 221.425C243.877 218.85 243.007 219.114 243.629 218.255C243.639 218.241 243.649 218.227 243.659 218.212C244.285 217.317 243.368 216.553 242.282 216.668C241.861 216.713 241.459 216.868 241.118 217.118L239.836 218.057Z" fill="#01A9BF" stroke="#01A9BF"/>
<path d="M227.155 218.49L227.291 218.221C227.958 216.902 228.132 217.49 229.256 218.451C229.427 218.597 229.6 218.733 229.767 218.855C230.471 219.373 231.757 219.882 232.555 220.238L234.671 220.877L234.866 220.962C235.312 221.158 235.708 221.45 236.027 221.818C236.363 222.206 236.604 222.668 236.73 223.166L236.767 223.31C236.903 223.852 236.923 224.416 236.824 224.966L236.754 225.351C236.694 225.687 236.663 226.027 236.663 226.368V228.217V228.766C236.663 229.301 236.399 229.802 235.957 230.104C235.687 230.289 235.368 230.387 235.041 230.387H234.285C233.8 230.387 233.318 230.301 232.864 230.131L232.182 229.877C231.372 229.575 230.059 228.859 229.078 228.291C228.495 227.954 228.008 227.477 227.641 226.913C227.351 226.467 227.142 225.973 227.025 225.454L226.82 224.551C226.661 223.848 226.58 223.13 226.58 222.409V221.32C226.58 220.603 226.689 219.89 226.902 219.205L227.027 218.805C227.061 218.697 227.104 218.592 227.155 218.49Z" fill="#088FA2" stroke="#03909F"/>
<g filter="url(#filter17_d_172_2375)">
<path d="M225.805 225.979L226.489 226.399C227.172 226.82 228.015 226.891 228.76 226.591L229.769 226.184C231.509 225.484 231.47 223.004 229.734 222.296C229.129 222.049 228.432 222.113 227.887 222.472L225.335 224.323L223.553 225.444C223.458 225.503 223.39 225.596 223.362 225.705C223.274 226.043 223.598 226.343 223.928 226.23L224.944 225.883C225.231 225.785 225.547 225.82 225.805 225.979Z" fill="#038C9F"/>
<path d="M225.805 225.979L226.489 226.399C227.172 226.82 228.015 226.891 228.76 226.591L229.769 226.184C231.509 225.484 231.47 223.004 229.734 222.296C229.129 222.049 228.432 222.113 227.887 222.472L225.335 224.323L223.553 225.444C223.458 225.503 223.39 225.596 223.362 225.705C223.274 226.043 223.598 226.343 223.928 226.23L224.944 225.883C225.231 225.785 225.547 225.82 225.805 225.979Z" stroke="#03909F"/>
</g>
<path d="M232.171 223.756L228.586 226.207C227.88 226.689 227.297 227.329 226.881 228.075L226.691 228.417C226.576 228.623 226.489 228.844 226.433 229.073L226.357 229.387C226.299 229.624 226.304 229.873 226.371 230.108C226.502 230.561 226.85 230.92 227.3 231.062L227.431 231.103C227.916 231.256 228.443 231.179 228.864 230.894L231.31 229.238L232.743 228.258C233.023 228.067 233.222 227.78 233.302 227.451C233.361 227.21 233.364 226.793 233.349 226.409C233.331 225.956 233.224 225.512 233.071 225.084L232.894 224.593C232.875 224.541 232.851 224.492 232.822 224.445L232.394 223.761C232.349 223.69 232.249 223.679 232.19 223.74C232.184 223.746 232.178 223.751 232.171 223.756Z" fill="#038699" stroke="#038699"/>
<path d="M223.616 225.541L223.609 225.546C223.557 225.582 223.508 225.623 223.463 225.669C223.306 225.83 223.21 226.043 223.193 226.268L223.157 226.749V228.472V228.556C223.157 228.957 223.293 229.345 223.542 229.658C223.658 229.803 223.796 229.929 223.951 230.031L225.46 231.026L226.143 231.376C226.43 231.523 226.748 231.6 227.071 231.6H227.378C227.627 231.6 227.87 231.518 228.068 231.365C228.346 231.151 228.509 230.82 228.509 230.468V230.082C228.509 229.945 228.495 229.809 228.466 229.676L228.26 228.728L228.203 228.453C228.118 228.046 227.939 227.665 227.679 227.34C227.569 227.201 227.445 227.075 227.31 226.961L227.161 226.836C226.94 226.651 226.702 226.487 226.45 226.346L226.144 226.174L225.273 225.728L224.618 225.445C224.29 225.303 223.911 225.339 223.616 225.541Z" fill="#088FA2" stroke="#088FA2"/>
<path d="M232.626 211.622C232.626 211.622 233.136 210.496 233.124 210.856C233.102 211.499 233.294 212.162 232.892 212.664C232.762 212.826 232.61 212.994 232.439 213.154C231.892 213.664 232.17 212.856 232.377 212.388L232.626 211.622Z" fill="#017A8B" stroke="#017A8B"/>
<path d="M430.657 294.6C429.723 296.743 428.806 297.601 426.83 297.601C425.026 297.601 423.563 296.258 423.563 294.601C423.563 292.945 425.353 291.1 427.157 291.1C428.961 291.1 430.75 292.599 430.657 294.6Z" fill="black" fill-opacity="0.3"/>
<path d="M225.721 232.045C223.646 231.509 222.754 230.832 222.535 229.154C222.336 227.622 223.41 226.219 224.935 226.02C226.459 225.821 228.355 227.12 228.554 228.652C228.754 230.185 227.573 231.884 225.721 232.045Z" fill="black" fill-opacity="0.3"/>
<path d="M225.157 229.1L219.461 234.226C216.804 236.618 215.648 240.261 216.44 243.748C217.197 247.076 219.619 249.777 222.846 250.889L241.453 257.306C252.028 260.952 256.628 272.972 255.697 284.119C254.472 298.776 260.674 312.417 287.657 308.1C302.564 305.715 313.304 303.996 320.913 302.779C330.454 301.252 339.617 307.13 342.212 316.438L344.606 325.02C348.22 337.981 363.789 343.182 374.468 334.995L427.157 294.6" stroke="url(#paint5_linear_172_2375)" stroke-width="5" stroke-linecap="round"/>
<defs>
<filter id="filter0_d_172_2375" x="9.72748e-05" y="9.72748e-05" width="757.2" height="439.2" filterUnits="userSpaceOnUse" color-interpolation-filters="sRGB">
<feFlood flood-opacity="0" result="BackgroundImageFix"/>
<feColorMatrix in="SourceAlpha" type="matrix" values="0 0 0 0 0 0 0 0 0 0 0 0 0 0 0 0 0 0 127 0" result="hardAlpha"/>
<feOffset dy="4"/>
<feGaussianBlur stdDeviation="8.8"/>
<feComposite in2="hardAlpha" operator="out"/>
<feColorMatrix type="matrix" values="0 0 0 0 0 0 0 0 0 0 0 0 0 0 0 0 0 0 0.15 0"/>
<feBlend mode="normal" in2="BackgroundImageFix" result="effect1_dropShadow_172_2375"/>
<feBlend mode="normal" in="SourceGraphic" in2="effect1_dropShadow_172_2375" result="shape"/>
</filter>
<filter id="filter1_i_172_2375" x="378.407" y="171.816" width="175.5" height="162.516" filterUnits="userSpaceOnUse" color-interpolation-filters="sRGB">
<feFlood flood-opacity="0" result="BackgroundImageFix"/>
<feBlend mode="normal" in="SourceGraphic" in2="BackgroundImageFix" result="shape"/>
<feColorMatrix in="SourceAlpha" type="matrix" values="0 0 0 0 0 0 0 0 0 0 0 0 0 0 0 0 0 0 127 0" result="hardAlpha"/>
<feOffset dy="4"/>
<feGaussianBlur stdDeviation="2"/>
<feComposite in2="hardAlpha" operator="arithmetic" k2="-1" k3="1"/>
<feColorMatrix type="matrix" values="0 0 0 0 0 0 0 0 0 0 0 0 0 0 0 0 0 0 0.25 0"/>
<feBlend mode="normal" in2="shape" result="effect1_innerShadow_172_2375"/>
</filter>
<filter id="filter2_d_172_2375" x="421.115" y="223.83" width="38.8037" height="41.4705" filterUnits="userSpaceOnUse" color-interpolation-filters="sRGB">
<feFlood flood-opacity="0" result="BackgroundImageFix"/>
<feColorMatrix in="SourceAlpha" type="matrix" values="0 0 0 0 0 0 0 0 0 0 0 0 0 0 0 0 0 0 127 0" result="hardAlpha"/>
<feOffset dy="4"/>
<feGaussianBlur stdDeviation="2"/>
<feComposite in2="hardAlpha" operator="out"/>
<feColorMatrix type="matrix" values="0 0 0 0 0 0 0 0 0 0 0 0 0 0 0 0 0 0 0.25 0"/>
<feBlend mode="normal" in2="BackgroundImageFix" result="effect1_dropShadow_172_2375"/>
<feBlend mode="normal" in="SourceGraphic" in2="effect1_dropShadow_172_2375" result="shape"/>
</filter>
<filter id="filter3_d_172_2375" x="399.201" y="237.395" width="38.8037" height="41.4705" filterUnits="userSpaceOnUse" color-interpolation-filters="sRGB">
<feFlood flood-opacity="0" result="BackgroundImageFix"/>
<feColorMatrix in="SourceAlpha" type="matrix" values="0 0 0 0 0 0 0 0 0 0 0 0 0 0 0 0 0 0 127 0" result="hardAlpha"/>
<feOffset dy="4"/>
<feGaussianBlur stdDeviation="2"/>
<feComposite in2="hardAlpha" operator="out"/>
<feColorMatrix type="matrix" values="0 0 0 0 0 0 0 0 0 0 0 0 0 0 0 0 0 0 0.25 0"/>
<feBlend mode="normal" in2="BackgroundImageFix" result="effect1_dropShadow_172_2375"/>
<feBlend mode="normal" in="SourceGraphic" in2="effect1_dropShadow_172_2375" result="shape"/>
</filter>
<filter id="filter4_d_172_2375" x="443.906" y="207.551" width="38.8037" height="41.4705" filterUnits="userSpaceOnUse" color-interpolation-filters="sRGB">
<feFlood flood-opacity="0" result="BackgroundImageFix"/>
<feColorMatrix in="SourceAlpha" type="matrix" values="0 0 0 0 0 0 0 0 0 0 0 0 0 0 0 0 0 0 127 0" result="hardAlpha"/>
<feOffset dy="4"/>
<feGaussianBlur stdDeviation="2"/>
<feComposite in2="hardAlpha" operator="out"/>
<feColorMatrix type="matrix" values="0 0 0 0 0 0 0 0 0 0 0 0 0 0 0 0 0 0 0.25 0"/>
<feBlend mode="normal" in2="BackgroundImageFix" result="effect1_dropShadow_172_2375"/>
<feBlend mode="normal" in="SourceGraphic" in2="effect1_dropShadow_172_2375" result="shape"/>
</filter>
<filter id="filter5_d_172_2375" x="486.858" y="234.682" width="38.8037" height="41.4705" filterUnits="userSpaceOnUse" color-interpolation-filters="sRGB">
<feFlood flood-opacity="0" result="BackgroundImageFix"/>
<feColorMatrix in="SourceAlpha" type="matrix" values="0 0 0 0 0 0 0 0 0 0 0 0 0 0 0 0 0 0 127 0" result="hardAlpha"/>
<feOffset dy="4"/>
<feGaussianBlur stdDeviation="2"/>
<feComposite in2="hardAlpha" operator="out"/>
<feColorMatrix type="matrix" values="0 0 0 0 0 0 0 0 0 0 0 0 0 0 0 0 0 0 0.25 0"/>
<feBlend mode="normal" in2="BackgroundImageFix" result="effect1_dropShadow_172_2375"/>
<feBlend mode="normal" in="SourceGraphic" in2="effect1_dropShadow_172_2375" result="shape"/>
</filter>
<filter id="filter6_d_172_2375" x="465.82" y="249.151" width="38.8037" height="41.4705" filterUnits="userSpaceOnUse" color-interpolation-filters="sRGB">
<feFlood flood-opacity="0" result="BackgroundImageFix"/>
<feColorMatrix in="SourceAlpha" type="matrix" values="0 0 0 0 0 0 0 0 0 0 0 0 0 0 0 0 0 0 127 0" result="hardAlpha"/>
<feOffset dy="4"/>
<feGaussianBlur stdDeviation="2"/>
<feComposite in2="hardAlpha" operator="out"/>
<feColorMatrix type="matrix" values="0 0 0 0 0 0 0 0 0 0 0 0 0 0 0 0 0 0 0.25 0"/>
<feBlend mode="normal" in2="BackgroundImageFix" result="effect1_dropShadow_172_2375"/>
<feBlend mode="normal" in="SourceGraphic" in2="effect1_dropShadow_172_2375" result="shape"/>
</filter>
<filter id="filter7_d_172_2375" x="444.783" y="264.525" width="38.8037" height="41.4705" filterUnits="userSpaceOnUse" color-interpolation-filters="sRGB">
<feFlood flood-opacity="0" result="BackgroundImageFix"/>
<feColorMatrix in="SourceAlpha" type="matrix" values="0 0 0 0 0 0 0 0 0 0 0 0 0 0 0 0 0 0 127 0" result="hardAlpha"/>
<feOffset dy="4"/>
<feGaussianBlur stdDeviation="2"/>
<feComposite in2="hardAlpha" operator="out"/>
<feColorMatrix type="matrix" values="0 0 0 0 0 0 0 0 0 0 0 0 0 0 0 0 0 0 0.25 0"/>
<feBlend mode="normal" in2="BackgroundImageFix" result="effect1_dropShadow_172_2375"/>
<feBlend mode="normal" in="SourceGraphic" in2="effect1_dropShadow_172_2375" result="shape"/>
</filter>
<filter id="filter8_i_172_2375" x="201.203" y="93.9358" width="182" height="158.252" filterUnits="userSpaceOnUse" color-interpolation-filters="sRGB">
<feFlood flood-opacity="0" result="BackgroundImageFix"/>
<feBlend mode="normal" in="SourceGraphic" in2="BackgroundImageFix" result="shape"/>
<feColorMatrix in="SourceAlpha" type="matrix" values="0 0 0 0 0 0 0 0 0 0 0 0 0 0 0 0 0 0 127 0" result="hardAlpha"/>
<feOffset dy="4"/>
<feGaussianBlur stdDeviation="11.05"/>
<feComposite in2="hardAlpha" operator="arithmetic" k2="-1" k3="1"/>
<feColorMatrix type="matrix" values="0 0 0 0 0.0509804 0 0 0 0 0.392157 0 0 0 0 0.6 0 0 0 0.3 0"/>
<feBlend mode="normal" in2="shape" result="effect1_innerShadow_172_2375"/>
</filter>
<filter id="filter9_f_172_2375" x="225.203" y="159.1" width="118.517" height="53" filterUnits="userSpaceOnUse" color-interpolation-filters="sRGB">
<feFlood flood-opacity="0" result="BackgroundImageFix"/>
<feBlend mode="normal" in="SourceGraphic" in2="BackgroundImageFix" result="shape"/>
<feGaussianBlur stdDeviation="2" result="effect1_foregroundBlur_172_2375"/>
</filter>
<filter id="filter10_i_172_2375" x="371.945" y="134.159" width="30.2114" height="42.9409" filterUnits="userSpaceOnUse" color-interpolation-filters="sRGB">
<feFlood flood-opacity="0" result="BackgroundImageFix"/>
<feBlend mode="normal" in="SourceGraphic" in2="BackgroundImageFix" result="shape"/>
<feColorMatrix in="SourceAlpha" type="matrix" values="0 0 0 0 0 0 0 0 0 0 0 0 0 0 0 0 0 0 127 0" result="hardAlpha"/>
<feOffset dy="4"/>
<feGaussianBlur stdDeviation="2"/>
<feComposite in2="hardAlpha" operator="arithmetic" k2="-1" k3="1"/>
<feColorMatrix type="matrix" values="0 0 0 0 0.32549 0 0 0 0 0.662745 0 0 0 0 0.203922 0 0 0 1 0"/>
<feBlend mode="normal" in2="shape" result="effect1_innerShadow_172_2375"/>
</filter>
<filter id="filter11_i_172_2375" x="475.945" y="278.159" width="30.2114" height="42.9409" filterUnits="userSpaceOnUse" color-interpolation-filters="sRGB">
<feFlood flood-opacity="0" result="BackgroundImageFix"/>
<feBlend mode="normal" in="SourceGraphic" in2="BackgroundImageFix" result="shape"/>
<feColorMatrix in="SourceAlpha" type="matrix" values="0 0 0 0 0 0 0 0 0 0 0 0 0 0 0 0 0 0 127 0" result="hardAlpha"/>
<feOffset dy="4"/>
<feGaussianBlur stdDeviation="2"/>
<feComposite in2="hardAlpha" operator="arithmetic" k2="-1" k3="1"/>
<feColorMatrix type="matrix" values="0 0 0 0 0.32549 0 0 0 0 0.662745 0 0 0 0 0.203922 0 0 0 1 0"/>
<feBlend mode="normal" in2="shape" result="effect1_innerShadow_172_2375"/>
</filter>
<filter id="filter12_i_172_2375" x="201.945" y="166.159" width="30.2114" height="42.9409" filterUnits="userSpaceOnUse" color-interpolation-filters="sRGB">
<feFlood flood-opacity="0" result="BackgroundImageFix"/>
<feBlend mode="normal" in="SourceGraphic" in2="BackgroundImageFix" result="shape"/>
<feColorMatrix in="SourceAlpha" type="matrix" values="0 0 0 0 0 0 0 0 0 0 0 0 0 0 0 0 0 0 127 0" result="hardAlpha"/>
<feOffset dy="4"/>
<feGaussianBlur stdDeviation="2"/>
<feComposite in2="hardAlpha" operator="arithmetic" k2="-1" k3="1"/>
<feColorMatrix type="matrix" values="0 0 0 0 0.32549 0 0 0 0 0.662745 0 0 0 0 0.203922 0 0 0 1 0"/>
<feBlend mode="normal" in2="shape" result="effect1_innerShadow_172_2375"/>
</filter>
<filter id="filter13_d_172_2375" x="197.398" y="129.1" width="28.8179" height="36.3179" filterUnits="userSpaceOnUse" color-interpolation-filters="sRGB">
<feFlood flood-opacity="0" result="BackgroundImageFix"/>
<feColorMatrix in="SourceAlpha" type="matrix" values="0 0 0 0 0 0 0 0 0 0 0 0 0 0 0 0 0 0 127 0" result="hardAlpha"/>
<feOffset dy="4"/>
<feGaussianBlur stdDeviation="2"/>
<feComposite in2="hardAlpha" operator="out"/>
<feColorMatrix type="matrix" values="0 0 0 0 1 0 0 0 0 0.906397 0 0 0 0 0.628934 0 0 0 1 0"/>
<feBlend mode="normal" in2="BackgroundImageFix" result="effect1_dropShadow_172_2375"/>
<feBlend mode="normal" in="SourceGraphic" in2="effect1_dropShadow_172_2375" result="shape"/>
</filter>
<filter id="filter14_d_172_2375" x="404.398" y="135.1" width="28.8179" height="36.3179" filterUnits="userSpaceOnUse" color-interpolation-filters="sRGB">
<feFlood flood-opacity="0" result="BackgroundImageFix"/>
<feColorMatrix in="SourceAlpha" type="matrix" values="0 0 0 0 0 0 0 0 0 0 0 0 0 0 0 0 0 0 127 0" result="hardAlpha"/>
<feOffset dy="4"/>
<feGaussianBlur stdDeviation="2"/>
<feComposite in2="hardAlpha" operator="out"/>
<feColorMatrix type="matrix" values="0 0 0 0 1 0 0 0 0 0.906397 0 0 0 0 0.628934 0 0 0 1 0"/>
<feBlend mode="normal" in2="BackgroundImageFix" result="effect1_dropShadow_172_2375"/>
<feBlend mode="normal" in="SourceGraphic" in2="effect1_dropShadow_172_2375" result="shape"/>
</filter>
<filter id="filter15_d_172_2375" x="544.398" y="251.1" width="28.8179" height="36.3179" filterUnits="userSpaceOnUse" color-interpolation-filters="sRGB">
<feFlood flood-opacity="0" result="BackgroundImageFix"/>
<feColorMatrix in="SourceAlpha" type="matrix" values="0 0 0 0 0 0 0 0 0 0 0 0 0 0 0 0 0 0 127 0" result="hardAlpha"/>
<feOffset dy="4"/>
<feGaussianBlur stdDeviation="2"/>
<feComposite in2="hardAlpha" operator="out"/>
<feColorMatrix type="matrix" values="0 0 0 0 1 0 0 0 0 0.906397 0 0 0 0 0.628934 0 0 0 1 0"/>
<feBlend mode="normal" in2="BackgroundImageFix" result="effect1_dropShadow_172_2375"/>
<feBlend mode="normal" in="SourceGraphic" in2="effect1_dropShadow_172_2375" result="shape"/>
</filter>
<filter id="filter16_d_172_2375" x="318.388" y="204.1" width="24.8511" height="29.8242" filterUnits="userSpaceOnUse" color-interpolation-filters="sRGB">
<feFlood flood-opacity="0" result="BackgroundImageFix"/>
<feColorMatrix in="SourceAlpha" type="matrix" values="0 0 0 0 0 0 0 0 0 0 0 0 0 0 0 0 0 0 127 0" result="hardAlpha"/>
<feOffset dy="4"/>
<feGaussianBlur stdDeviation="2"/>
<feComposite in2="hardAlpha" operator="out"/>
<feColorMatrix type="matrix" values="0 0 0 0 1 0 0 0 0 0.906397 0 0 0 0 0.628934 0 0 0 1 0"/>
<feBlend mode="normal" in2="BackgroundImageFix" result="effect1_dropShadow_172_2375"/>
<feBlend mode="normal" in="SourceGraphic" in2="effect1_dropShadow_172_2375" result="shape"/>
</filter>
<filter id="filter17_d_172_2375" x="218.847" y="221.648" width="16.7085" height="13.6265" filterUnits="userSpaceOnUse" color-interpolation-filters="sRGB">
<feFlood flood-opacity="0" result="BackgroundImageFix"/>
<feColorMatrix in="SourceAlpha" type="matrix" values="0 0 0 0 0 0 0 0 0 0 0 0 0 0 0 0 0 0 127 0" result="hardAlpha"/>
<feOffset dy="4"/>
<feGaussianBlur stdDeviation="2"/>
<feComposite in2="hardAlpha" operator="out"/>
<feColorMatrix type="matrix" values="0 0 0 0 0 0 0 0 0 0 0 0 0 0 0 0 0 0 0.25 0"/>
<feBlend mode="normal" in2="BackgroundImageFix" result="effect1_dropShadow_172_2375"/>
<feBlend mode="normal" in="SourceGraphic" in2="effect1_dropShadow_172_2375" result="shape"/>
</filter>
<linearGradient id="paint0_linear_172_2375" x1="378.6" y1="13.6001" x2="378.1" y2="419.1" gradientUnits="userSpaceOnUse">
<stop offset="0.490385" stop-color="white" stop-opacity="0.5"/>
<stop offset="0.850962" stop-color="#088FA2" stop-opacity="0.06"/>
<stop offset="0.951923" stop-color="white" stop-opacity="0"/>
</linearGradient>
<linearGradient id="paint1_linear_172_2375" x1="211.657" y1="129.6" x2="211.657" y2="157.1" gradientUnits="userSpaceOnUse">
<stop stop-color="#FFE7A0"/>
<stop offset="0.6875" stop-color="#F5B700"/>
</linearGradient>
<linearGradient id="paint2_linear_172_2375" x1="418.657" y1="135.6" x2="418.657" y2="163.1" gradientUnits="userSpaceOnUse">
<stop stop-color="#FFE7A0"/>
<stop offset="0.6875" stop-color="#F5B700"/>
</linearGradient>
<linearGradient id="paint3_linear_172_2375" x1="558.657" y1="251.6" x2="558.657" y2="279.1" gradientUnits="userSpaceOnUse">
<stop stop-color="#FFE7A0"/>
<stop offset="0.6875" stop-color="#F5B700"/>
</linearGradient>
<linearGradient id="paint4_linear_172_2375" x1="330.657" y1="204.6" x2="330.657" y2="225.6" gradientUnits="userSpaceOnUse">
<stop stop-color="#FFE7A0"/>
<stop offset="0.6875" stop-color="#F5B700"/>
</linearGradient>
<linearGradient id="paint5_linear_172_2375" x1="322.407" y1="214.1" x2="246.657" y2="345.1" gradientUnits="userSpaceOnUse">
<stop offset="0.182692" stop-color="white"/>
<stop offset="0.850962" stop-color="#F1BA4D"/>
</linearGradient>
</defs>
</svg>
