<svg width="464" height="440" viewBox="0 0 464 440" fill="none" xmlns="http://www.w3.org/2000/svg">
<g filter="url(#filter0_d_102_1396)">
<path d="M17.6001 13.6H445.6V397.6C445.6 408.646 436.646 417.6 425.6 417.6H37.6001C26.5544 417.6 17.6001 408.646 17.6001 397.6V13.6Z" fill="url(#paint0_linear_102_1396)" shape-rendering="crispEdges"/>
</g>
<path d="M60.0996 244.415C47.0161 234.305 40.5399 225.846 37.4869 218.843C33.0752 208.723 49.7706 185.813 60.0996 181.915C60.0996 181.915 194.516 145.206 266.1 181.915C306.902 202.84 374.462 233.494 411.603 250.126C426.38 256.743 433.304 273.831 427.26 288.851L405.1 343.915C372.1 425.915 341.6 321.415 277.1 343.915C181.398 377.3 139.6 356.915 136.1 335.415C120.667 240.616 104.1 278.415 60.0996 244.415Z" fill="#088FA2" fill-opacity="0.2"/>
<path fill-rule="evenodd" clip-rule="evenodd" d="M17.5996 89.7579H23.5996C29.5996 89.7579 41.5996 89.7579 53.5996 82.7579C65.5996 76.7579 76.5996 63.7579 88.5996 63.7579C100.6 63.7579 112.6 76.7579 124.6 76.7579C136.6 76.7579 148.6 63.7579 160.6 54.7579C172.6 46.7579 183.6 42.7579 195.6 48.7579C207.6 54.7579 219.6 72.7579 231.6 80.7579C243.6 89.7579 255.6 89.7579 267.6 78.7579C279.6 67.7579 290.6 46.7579 302.6 31.7579C314.6 16.7579 326.6 8.75794 338.6 16.7579C350.6 25.7579 362.6 50.7579 374.6 57.7579C386.6 63.7579 397.6 50.7579 409.6 48.7579C421.6 46.7579 433.6 54.7579 439.6 59.7579L445.6 63.7579V127.758H439.6C433.6 127.758 421.6 127.758 409.6 127.758C397.6 127.758 386.6 127.758 374.6 127.758C362.6 127.758 350.6 127.758 338.6 127.758C326.6 127.758 314.6 127.758 302.6 127.758C290.6 127.758 279.6 127.758 267.6 127.758C255.6 127.758 243.6 127.758 231.6 127.758C219.6 127.758 207.6 127.758 195.6 127.758C183.6 127.758 172.6 127.758 160.6 127.758C148.6 127.758 136.6 127.758 124.6 127.758C112.6 127.758 100.6 127.758 88.5996 127.758C76.5996 127.758 65.5996 127.758 53.5996 127.758C41.5996 127.758 29.5996 127.758 23.5996 127.758H17.5996V89.7579Z" fill="white" fill-opacity="0.5"/>
<path d="M228.36 264.543C235.494 257.536 239.86 257.543 239.86 257.543C239.86 257.543 466.86 220.042 408.36 268.043C349.86 316.043 335.36 360.043 319.86 349.043C304.36 338.043 200.36 292.043 228.36 264.543Z" fill="#039CB0" fill-opacity="0.3"/>
<g filter="url(#filter1_i_102_1396)">
<path d="M243.501 219.722L239.995 217.913L309.244 173.6L390.328 226.052L324.146 270.365L320.202 268.104L385.945 226.052L309.244 177.67L243.501 219.722Z" stroke="#038699" stroke-width="3"/>
<path d="M320.585 314.192L228.736 256.885C228.673 256.846 228.674 256.754 228.737 256.715L311.384 205.736C311.416 205.717 311.456 205.717 311.488 205.736L402.026 260.336C402.089 260.374 402.09 260.464 402.029 260.505L320.693 314.191C320.661 314.212 320.619 314.213 320.585 314.192Z" fill="#026B79"/>
<path d="M384.144 225.118L308.958 179.119C308.892 179.078 308.806 179.126 308.806 179.204V216.048C308.806 216.083 308.824 216.115 308.854 216.134L384.039 262.584C384.106 262.625 384.192 262.577 384.192 262.499V225.204C384.192 225.169 384.173 225.137 384.144 225.118Z" fill="#00A2B7" stroke="#039CB0" stroke-width="1.5"/>
<path d="M243.063 255.262V219.778C243.063 219.743 243.081 219.711 243.111 219.692L309.092 179.12C309.159 179.079 309.244 179.127 309.244 179.205V213.788C309.244 213.823 309.227 213.854 309.198 213.873L243.216 255.347C243.15 255.389 243.063 255.341 243.063 255.262Z" fill="#0D6499" stroke="#0D6499" stroke-width="1.5"/>
<g filter="url(#filter2_d_102_1396)">
<path d="M285.139 224.43V232.329C285.139 232.362 285.155 232.394 285.183 232.412L292.434 237.253C292.5 237.297 292.59 237.249 292.59 237.169V229.271C292.59 229.237 292.573 229.206 292.545 229.188L285.294 224.347C285.228 224.303 285.139 224.351 285.139 224.43Z" fill="#088FA2" stroke="#017A8B"/>
<path d="M297.849 232.999V240.077C297.849 240.111 297.867 240.143 297.895 240.161L304.708 244.494C304.775 244.536 304.862 244.488 304.862 244.409V236.544C304.862 236.507 304.841 236.472 304.808 236.455L297.995 232.911C297.929 232.876 297.849 232.924 297.849 232.999Z" fill="#088FA2" stroke="#017A8B"/>
<path d="M275.058 243.136V237.097C275.058 237.016 275.148 236.966 275.215 237.012L276.33 237.779C276.357 237.797 276.373 237.828 276.373 237.861V243.135C276.373 243.19 276.328 243.235 276.273 243.235H275.158C275.103 243.235 275.058 243.191 275.058 243.136Z" fill="#C89665" stroke="#C89665"/>
<path d="M304.716 244.666L304.049 245.01C304.011 245.03 303.99 245.072 303.996 245.115L304.663 249.239C304.682 249.361 304.861 249.347 304.861 249.224V244.755C304.861 244.681 304.782 244.632 304.716 244.666Z" stroke="#017A8B" stroke-width="0.5"/>
<path d="M297.849 254.828V250.532C297.849 250.494 297.87 250.459 297.903 250.442L298.58 250.093C298.646 250.058 298.726 250.107 298.726 250.181V254.478C298.726 254.516 298.705 254.55 298.672 254.567L297.995 254.916C297.928 254.95 297.849 254.903 297.849 254.828Z" fill="#017A8B" stroke="#017A8B" stroke-width="0.5"/>
<path d="M289.96 250.306V246.01C289.96 245.972 289.981 245.937 290.014 245.92L290.691 245.571C290.757 245.537 290.837 245.585 290.837 245.66V249.956C290.837 249.994 290.816 250.028 290.782 250.045L290.106 250.394C290.039 250.429 289.96 250.381 289.96 250.306Z" fill="#017A8B" stroke="#017A8B" stroke-width="0.5"/>
<path d="M282.947 245.785V241.488C282.947 241.451 282.968 241.415 283.001 241.398L283.678 241.049C283.745 241.015 283.824 241.063 283.824 241.138V245.435C283.824 245.472 283.803 245.506 283.77 245.524L283.093 245.873C283.027 245.907 282.947 245.859 282.947 245.785Z" fill="#017A8B" stroke="#017A8B" stroke-width="0.5"/>
<path d="M277.688 243.072V238.775C277.688 238.738 277.709 238.702 277.742 238.685L278.419 238.336C278.485 238.302 278.565 238.35 278.565 238.425V242.722C278.565 242.759 278.544 242.793 278.51 242.811L277.834 243.16C277.767 243.194 277.688 243.146 277.688 243.072Z" fill="#017A8B" stroke="#017A8B" stroke-width="0.5"/>
<path d="M303.108 250.37V244.734C303.108 244.665 303.176 244.615 303.241 244.637L304.356 245.02C304.396 245.034 304.423 245.072 304.423 245.115V250.37C304.423 250.425 304.378 250.47 304.323 250.47H303.208C303.153 250.47 303.108 250.425 303.108 250.37Z" fill="#C89665" stroke="#C89665"/>
<path d="M295.658 256.7V251.064C295.658 250.995 295.725 250.945 295.79 250.967L296.905 251.351C296.945 251.364 296.973 251.402 296.973 251.445V256.7C296.973 256.755 296.928 256.8 296.873 256.8H295.758C295.702 256.8 295.658 256.756 295.658 256.7Z" fill="#C89665" stroke="#C89665"/>
<path d="M275.179 236.821L282.891 231.517C282.925 231.494 282.968 231.492 283.002 231.515C289.86 236.133 303.172 244.608 304.341 245.037C304.395 245.016 304.423 245.018 304.423 245.043C304.423 245.06 304.395 245.057 304.341 245.037C303.65 245.304 298.789 249.207 296.591 251.319C296.557 251.352 296.506 251.355 296.467 251.329L275.18 236.986C275.121 236.947 275.121 236.861 275.179 236.821Z" fill="#F1BA4D"/>
<path d="M304.423 245.043C304.423 244.685 298.96 249.042 296.591 251.319C296.557 251.352 296.506 251.355 296.467 251.329L275.18 236.986C275.121 236.947 275.121 236.861 275.179 236.821L282.891 231.517C282.925 231.494 282.968 231.492 283.002 231.515C290.179 236.348 304.423 245.404 304.423 245.043Z" stroke="#F1BA4D"/>
</g>
<g filter="url(#filter3_d_102_1396)">
<path d="M263.224 237.996V245.894C263.224 245.928 263.241 245.959 263.269 245.977L270.519 250.818C270.586 250.862 270.675 250.815 270.675 250.735V242.836C270.675 242.803 270.658 242.771 270.631 242.753L263.38 237.912C263.313 237.868 263.224 237.916 263.224 237.996Z" fill="#088FA2" stroke="#017A8B"/>
<path d="M275.935 246.565V253.642C275.935 253.676 275.952 253.708 275.981 253.727L282.794 258.059C282.86 258.101 282.947 258.053 282.947 257.974V250.109C282.947 250.072 282.926 250.038 282.893 250.02L276.081 246.476C276.014 246.441 275.935 246.49 275.935 246.565Z" fill="#088FA2" stroke="#017A8B"/>
<path d="M253.144 256.701V250.662C253.144 250.581 253.234 250.532 253.3 250.577L254.415 251.344C254.442 251.363 254.458 251.393 254.458 251.426V256.7C254.458 256.755 254.414 256.8 254.358 256.8H253.244C253.188 256.8 253.144 256.756 253.144 256.701Z" fill="#C89665" stroke="#C89665"/>
<path d="M282.801 258.232L282.135 258.575C282.096 258.595 282.075 258.637 282.082 258.68L282.748 262.805C282.768 262.926 282.947 262.912 282.947 262.789V258.32C282.947 258.246 282.868 258.197 282.801 258.232Z" stroke="#017A8B" stroke-width="0.5"/>
<path d="M275.935 268.393V264.097C275.935 264.059 275.955 264.024 275.989 264.007L276.665 263.658C276.732 263.623 276.811 263.672 276.811 263.747V268.043C276.811 268.081 276.79 268.115 276.757 268.132L276.08 268.481C276.014 268.516 275.935 268.468 275.935 268.393Z" fill="#017A8B" stroke="#017A8B" stroke-width="0.5"/>
<path d="M268.045 263.871V259.575C268.045 259.538 268.066 259.502 268.1 259.485L268.776 259.136C268.843 259.102 268.922 259.15 268.922 259.225V263.522C268.922 263.559 268.901 263.593 268.868 263.61L268.191 263.959C268.125 263.994 268.045 263.946 268.045 263.871Z" fill="#017A8B" stroke="#017A8B" stroke-width="0.5"/>
<path d="M261.033 259.35V255.053C261.033 255.016 261.054 254.98 261.087 254.963L261.763 254.614C261.83 254.58 261.909 254.628 261.909 254.703V259C261.909 259.037 261.888 259.072 261.855 259.089L261.179 259.438C261.112 259.472 261.033 259.425 261.033 259.35Z" fill="#017A8B" stroke="#017A8B" stroke-width="0.5"/>
<path d="M255.773 256.637V252.34C255.773 252.303 255.794 252.267 255.827 252.25L256.504 251.901C256.57 251.867 256.65 251.915 256.65 251.99V256.287C256.65 256.324 256.629 256.358 256.595 256.376L255.919 256.725C255.852 256.759 255.773 256.711 255.773 256.637Z" fill="#017A8B" stroke="#017A8B" stroke-width="0.5"/>
<path d="M281.194 263.935V258.299C281.194 258.23 281.261 258.18 281.326 258.202L282.441 258.585C282.482 258.599 282.509 258.637 282.509 258.68V263.935C282.509 263.99 282.464 264.035 282.409 264.035H281.294C281.239 264.035 281.194 263.99 281.194 263.935Z" fill="#C89665" stroke="#C89665"/>
<path d="M273.743 270.266V264.629C273.743 264.561 273.811 264.51 273.876 264.532L274.991 264.916C275.031 264.93 275.058 264.968 275.058 265.01V270.265C275.058 270.32 275.013 270.365 274.958 270.365H273.843C273.788 270.365 273.743 270.321 273.743 270.266Z" fill="#C89665" stroke="#C89665"/>
<path d="M253.265 250.386L260.977 245.082C261.01 245.059 261.054 245.057 261.088 245.08C267.946 249.698 281.258 258.173 282.426 258.602C282.48 258.581 282.509 258.583 282.509 258.609C282.509 258.625 282.481 258.622 282.426 258.602C281.735 258.869 276.875 262.772 274.676 264.884C274.642 264.917 274.592 264.92 274.552 264.894L253.265 250.552C253.207 250.512 253.206 250.426 253.265 250.386Z" fill="#F1BA4D"/>
<path d="M282.509 258.609C282.509 258.25 277.046 262.607 274.676 264.884C274.642 264.917 274.592 264.92 274.552 264.894L253.265 250.552C253.207 250.512 253.206 250.426 253.265 250.386L260.977 245.082C261.01 245.059 261.054 245.057 261.088 245.08C268.264 249.913 282.509 258.969 282.509 258.609Z" stroke="#F1BA4D"/>
</g>
<path d="M239.032 218.139C239.577 218.445 240.786 218.985 242.88 219.248C242.983 219.26 243.061 219.349 243.059 219.452L242.196 256.404C242.192 256.568 242.003 256.658 241.873 256.558L238.758 254.147C238.709 254.109 238.68 254.051 238.68 253.989V218.333C238.68 218.164 238.886 218.056 239.032 218.139Z" fill="#038699" stroke="#038699"/>
<g filter="url(#filter4_d_102_1396)">
<path d="M307.93 208.152V216.051C307.93 216.084 307.946 216.115 307.974 216.134L315.225 220.974C315.291 221.019 315.381 220.971 315.381 220.891V212.993C315.381 212.959 315.364 212.928 315.336 212.909L308.085 208.069C308.019 208.025 307.93 208.072 307.93 208.152Z" fill="#088FA2" stroke="#017A8B"/>
<path d="M320.64 216.721V223.799C320.64 223.833 320.658 223.865 320.686 223.883L327.499 228.215C327.566 228.258 327.653 228.21 327.653 228.131V220.266C327.653 220.228 327.632 220.194 327.599 220.177L320.786 216.633C320.72 216.598 320.64 216.646 320.64 216.721Z" fill="#088FA2" stroke="#017A8B"/>
<path d="M297.849 226.858V220.818C297.849 220.738 297.939 220.688 298.006 220.734L299.121 221.501C299.148 221.519 299.164 221.55 299.164 221.583V226.857C299.164 226.912 299.119 226.957 299.064 226.957H297.949C297.894 226.957 297.849 226.913 297.849 226.858Z" fill="#C89665" stroke="#C89665"/>
<path d="M327.507 228.388L326.841 228.732C326.802 228.752 326.781 228.794 326.788 228.837L327.454 232.961C327.474 233.083 327.653 233.068 327.653 232.945V228.477C327.653 228.402 327.574 228.354 327.507 228.388Z" stroke="#017A8B" stroke-width="0.5"/>
<path d="M320.64 238.55V234.253C320.64 234.216 320.661 234.181 320.694 234.163L321.371 233.814C321.437 233.78 321.517 233.828 321.517 233.903V238.2C321.517 238.237 321.496 238.272 321.463 238.289L320.786 238.638C320.719 238.672 320.64 238.625 320.64 238.55Z" fill="#017A8B" stroke="#017A8B" stroke-width="0.5"/>
<path d="M312.751 234.028V229.732C312.751 229.694 312.772 229.659 312.805 229.642L313.482 229.293C313.548 229.258 313.628 229.307 313.628 229.382V233.678C313.628 233.716 313.607 233.75 313.573 233.767L312.897 234.116C312.83 234.15 312.751 234.103 312.751 234.028Z" fill="#017A8B" stroke="#017A8B" stroke-width="0.5"/>
<path d="M305.738 229.506V225.21C305.738 225.172 305.759 225.137 305.792 225.12L306.469 224.771C306.536 224.736 306.615 224.785 306.615 224.86V229.156C306.615 229.194 306.594 229.228 306.561 229.245L305.884 229.594C305.818 229.629 305.738 229.581 305.738 229.506Z" fill="#017A8B" stroke="#017A8B" stroke-width="0.5"/>
<path d="M300.479 226.793V222.497C300.479 222.459 300.5 222.424 300.533 222.407L301.21 222.058C301.276 222.023 301.356 222.072 301.356 222.147V226.443C301.356 226.481 301.335 226.515 301.301 226.532L300.625 226.881C300.558 226.916 300.479 226.868 300.479 226.793Z" fill="#017A8B" stroke="#017A8B" stroke-width="0.5"/>
<path d="M325.899 234.092V228.455C325.899 228.387 325.967 228.336 326.032 228.359L327.147 228.742C327.187 228.756 327.214 228.794 327.214 228.837V234.091C327.214 234.146 327.17 234.191 327.114 234.191H325.999C325.944 234.191 325.899 234.147 325.899 234.092Z" fill="#C89665" stroke="#C89665"/>
<path d="M318.449 240.422V234.786C318.449 234.717 318.516 234.667 318.581 234.689L319.696 235.072C319.736 235.086 319.764 235.124 319.764 235.167V240.422C319.764 240.477 319.719 240.522 319.664 240.522H318.549C318.494 240.522 318.449 240.477 318.449 240.422Z" fill="#C89665" stroke="#C89665"/>
<path d="M297.97 220.543L305.682 215.239C305.716 215.215 305.759 215.214 305.793 215.237C312.651 219.855 325.963 228.33 327.132 228.759C327.186 228.738 327.214 228.739 327.214 228.765C327.214 228.781 327.186 228.779 327.132 228.759C326.441 229.025 321.58 232.929 319.382 235.041C319.348 235.074 319.297 235.077 319.258 235.05L297.971 220.708C297.912 220.669 297.912 220.583 297.97 220.543Z" fill="#F1BA4D"/>
<path d="M327.214 228.765C327.214 228.406 321.751 232.764 319.382 235.041C319.348 235.074 319.297 235.077 319.258 235.05L297.971 220.708C297.912 220.669 297.912 220.583 297.97 220.543L305.682 215.239C305.716 215.215 305.759 215.214 305.793 215.237C312.97 220.07 327.214 229.126 327.214 228.765Z" stroke="#F1BA4D"/>
</g>
<g filter="url(#filter5_d_102_1396)">
<path d="M350.882 235.283V243.181C350.882 243.215 350.899 243.246 350.926 243.264L358.177 248.105C358.244 248.149 358.333 248.102 358.333 248.022V240.123C358.333 240.09 358.316 240.058 358.288 240.04L351.037 235.199C350.971 235.155 350.882 235.203 350.882 235.283Z" fill="#088FA2" stroke="#017A8B"/>
<path d="M363.592 243.852V250.929C363.592 250.963 363.61 250.995 363.639 251.014L370.451 255.346C370.518 255.388 370.605 255.34 370.605 255.261V247.396C370.605 247.359 370.584 247.325 370.551 247.307L363.738 243.763C363.672 243.728 363.592 243.777 363.592 243.852Z" fill="#088FA2" stroke="#017A8B"/>
<path d="M340.801 253.988V247.949C340.801 247.868 340.892 247.819 340.958 247.864L342.073 248.631C342.1 248.65 342.116 248.68 342.116 248.713V253.987C342.116 254.042 342.071 254.087 342.016 254.087H340.901C340.846 254.087 340.801 254.043 340.801 253.988Z" fill="#C89665" stroke="#C89665"/>
<path d="M370.459 255.519L369.793 255.862C369.755 255.882 369.733 255.925 369.74 255.967L370.406 260.092C370.426 260.213 370.605 260.199 370.605 260.076V255.608C370.605 255.533 370.526 255.484 370.459 255.519Z" stroke="#017A8B" stroke-width="0.5"/>
<path d="M363.592 265.68V261.384C363.592 261.346 363.613 261.311 363.646 261.294L364.323 260.945C364.39 260.91 364.469 260.959 364.469 261.034V265.33C364.469 265.368 364.448 265.402 364.415 265.419L363.738 265.768C363.672 265.803 363.592 265.755 363.592 265.68Z" fill="#017A8B" stroke="#017A8B" stroke-width="0.5"/>
<path d="M355.703 261.158V256.862C355.703 256.825 355.724 256.789 355.757 256.772L356.434 256.423C356.5 256.389 356.58 256.437 356.58 256.512V260.809C356.58 260.846 356.559 260.88 356.526 260.897L355.849 261.246C355.782 261.281 355.703 261.233 355.703 261.158Z" fill="#017A8B" stroke="#017A8B" stroke-width="0.5"/>
<path d="M348.69 256.637V252.34C348.69 252.303 348.711 252.267 348.745 252.25L349.421 251.901C349.488 251.867 349.567 251.915 349.567 251.99V256.287C349.567 256.324 349.546 256.359 349.513 256.376L348.836 256.725C348.77 256.759 348.69 256.712 348.69 256.637Z" fill="#017A8B" stroke="#017A8B" stroke-width="0.5"/>
<path d="M343.431 253.924V249.627C343.431 249.59 343.452 249.554 343.485 249.537L344.162 249.188C344.228 249.154 344.308 249.202 344.308 249.277V253.574C344.308 253.611 344.287 253.646 344.254 253.663L343.577 254.012C343.51 254.046 343.431 253.999 343.431 253.924Z" fill="#017A8B" stroke="#017A8B" stroke-width="0.5"/>
<path d="M368.852 261.222V255.586C368.852 255.517 368.919 255.467 368.984 255.489L370.099 255.872C370.139 255.886 370.166 255.924 370.166 255.967V261.222C370.166 261.277 370.122 261.322 370.066 261.322H368.952C368.896 261.322 368.852 261.277 368.852 261.222Z" fill="#C89665" stroke="#C89665"/>
<path d="M361.401 267.553V261.916C361.401 261.848 361.468 261.797 361.533 261.819L362.648 262.203C362.689 262.217 362.716 262.255 362.716 262.297V267.552C362.716 267.607 362.671 267.652 362.616 267.652H361.501C361.446 267.652 361.401 267.608 361.401 267.553Z" fill="#C89665" stroke="#C89665"/>
<path d="M340.922 247.673L348.634 242.369C348.668 242.346 348.711 242.345 348.745 242.367C355.603 246.985 368.915 255.46 370.084 255.889C370.138 255.868 370.167 255.87 370.167 255.896C370.167 255.912 370.138 255.909 370.084 255.889C369.393 256.156 364.532 260.059 362.334 262.171C362.3 262.204 362.249 262.207 362.21 262.181L340.923 247.839C340.865 247.799 340.864 247.713 340.922 247.673Z" fill="#F1BA4D"/>
<path d="M370.167 255.896C370.167 255.537 364.704 259.894 362.334 262.171C362.3 262.204 362.249 262.207 362.21 262.181L340.923 247.839C340.865 247.799 340.864 247.713 340.922 247.673L348.634 242.369C348.668 242.346 348.711 242.345 348.745 242.367C355.922 247.2 370.167 256.256 370.167 255.896Z" stroke="#C89665"/>
</g>
<g filter="url(#filter6_d_102_1396)">
<path d="M329.844 249.752V257.651C329.844 257.684 329.86 257.715 329.888 257.734L337.139 262.574C337.206 262.619 337.295 262.571 337.295 262.491V254.593C337.295 254.559 337.278 254.528 337.25 254.509L329.999 249.669C329.933 249.625 329.844 249.672 329.844 249.752Z" fill="#088FA2" stroke="#017A8B"/>
<path d="M342.554 258.321V265.399C342.554 265.433 342.572 265.465 342.601 265.483L349.413 269.815C349.48 269.858 349.567 269.81 349.567 269.731V261.866C349.567 261.828 349.546 261.794 349.513 261.777L342.7 258.233C342.634 258.198 342.554 258.246 342.554 258.321Z" fill="#088FA2" stroke="#017A8B"/>
<path d="M319.763 268.458V262.418C319.763 262.338 319.854 262.288 319.92 262.334L321.035 263.101C321.062 263.119 321.078 263.15 321.078 263.183V268.457C321.078 268.512 321.033 268.557 320.978 268.557H319.863C319.808 268.557 319.763 268.513 319.763 268.458Z" fill="#C89665" stroke="#C89665"/>
<path d="M349.421 269.988L348.754 270.332C348.716 270.352 348.695 270.394 348.702 270.437L349.368 274.561C349.387 274.683 349.567 274.668 349.567 274.545V270.077C349.567 270.002 349.487 269.954 349.421 269.988Z" stroke="#017A8B" stroke-width="0.5"/>
<path d="M342.554 280.15V275.853C342.554 275.816 342.575 275.781 342.608 275.763L343.285 275.414C343.351 275.38 343.431 275.428 343.431 275.503V279.8C343.431 279.837 343.41 279.872 343.377 279.889L342.7 280.238C342.633 280.272 342.554 280.225 342.554 280.15Z" fill="#017A8B" stroke="#017A8B" stroke-width="0.5"/>
<path d="M334.665 275.628V271.332C334.665 271.294 334.686 271.259 334.719 271.242L335.396 270.893C335.462 270.858 335.542 270.907 335.542 270.981V275.278C335.542 275.316 335.521 275.35 335.487 275.367L334.811 275.716C334.744 275.75 334.665 275.703 334.665 275.628Z" fill="#017A8B" stroke="#017A8B" stroke-width="0.5"/>
<path d="M327.652 271.106V266.81C327.652 266.773 327.673 266.737 327.706 266.72L328.383 266.371C328.45 266.337 328.529 266.385 328.529 266.46V270.756C328.529 270.794 328.508 270.828 328.475 270.845L327.798 271.194C327.732 271.229 327.652 271.181 327.652 271.106Z" fill="#017A8B" stroke="#017A8B" stroke-width="0.5"/>
<path d="M322.393 268.393V264.097C322.393 264.059 322.413 264.024 322.447 264.007L323.123 263.658C323.19 263.623 323.269 263.672 323.269 263.747V268.043C323.269 268.081 323.248 268.115 323.215 268.132L322.538 268.481C322.472 268.516 322.393 268.468 322.393 268.393Z" fill="#017A8B" stroke="#017A8B" stroke-width="0.5"/>
<path d="M347.813 275.692V270.055C347.813 269.987 347.881 269.936 347.946 269.959L349.061 270.342C349.101 270.356 349.128 270.394 349.128 270.436V275.691C349.128 275.746 349.084 275.791 349.028 275.791H347.913C347.858 275.791 347.813 275.747 347.813 275.692Z" fill="#C89665" stroke="#C89665"/>
<path d="M340.363 282.022V276.386C340.363 276.317 340.43 276.267 340.495 276.289L341.61 276.672C341.651 276.686 341.678 276.724 341.678 276.767V282.022C341.678 282.077 341.633 282.122 341.578 282.122H340.463C340.408 282.122 340.363 282.077 340.363 282.022Z" fill="#C89665" stroke="#C89665"/>
<path d="M319.884 262.143L327.596 256.839C327.63 256.815 327.673 256.814 327.707 256.837C334.565 261.455 347.877 269.93 349.046 270.359C349.1 270.338 349.128 270.339 349.128 270.365C349.128 270.381 349.1 270.379 349.046 270.359C348.355 270.625 343.494 274.529 341.296 276.641C341.262 276.674 341.211 276.677 341.172 276.65L319.885 262.308C319.827 262.269 319.826 262.183 319.884 262.143Z" fill="#F1BA4D"/>
<path d="M349.128 270.365C349.128 270.006 343.665 274.364 341.296 276.641C341.262 276.674 341.211 276.677 341.172 276.65L319.885 262.308C319.827 262.269 319.826 262.183 319.884 262.143L327.596 256.839C327.63 256.815 327.673 256.814 327.707 256.837C334.884 261.67 349.128 270.726 349.128 270.365Z" stroke="#F1BA4D"/>
</g>
<g filter="url(#filter7_d_102_1396)">
<path d="M308.806 265.126V273.025C308.806 273.058 308.823 273.089 308.851 273.108L316.102 277.948C316.168 277.993 316.257 277.945 316.257 277.865V269.966C316.257 269.933 316.24 269.902 316.213 269.883L308.962 265.043C308.895 264.999 308.806 265.046 308.806 265.126Z" fill="#088FA2" stroke="#017A8B"/>
<path d="M321.517 273.695V280.773C321.517 280.807 321.534 280.839 321.563 280.857L328.376 285.189C328.442 285.232 328.529 285.184 328.529 285.105V277.24C328.529 277.202 328.508 277.168 328.475 277.151L321.663 273.606C321.596 273.572 321.517 273.62 321.517 273.695Z" fill="#088FA2" stroke="#017A8B"/>
<path d="M298.726 283.832V277.792C298.726 277.712 298.816 277.662 298.882 277.708L299.997 278.475C300.024 278.493 300.04 278.524 300.04 278.557V283.83C300.04 283.886 299.996 283.93 299.94 283.93H298.826C298.77 283.93 298.726 283.887 298.726 283.832Z" fill="#C89665" stroke="#C89665"/>
<path d="M328.383 285.362L327.717 285.706C327.678 285.726 327.657 285.768 327.664 285.811L328.33 289.935C328.35 290.057 328.529 290.042 328.529 289.919V285.451C328.529 285.376 328.45 285.328 328.383 285.362Z" stroke="#017A8B" stroke-width="0.5"/>
<path d="M321.517 295.524V291.227C321.517 291.19 321.537 291.154 321.571 291.137L322.247 290.788C322.314 290.754 322.393 290.802 322.393 290.877V295.174C322.393 295.211 322.372 295.246 322.339 295.263L321.662 295.612C321.596 295.646 321.517 295.599 321.517 295.524Z" fill="#017A8B" stroke="#017A8B" stroke-width="0.5"/>
<path d="M313.627 291.002V286.706C313.627 286.668 313.648 286.633 313.682 286.616L314.358 286.267C314.425 286.232 314.504 286.28 314.504 286.355V290.652C314.504 290.69 314.483 290.724 314.45 290.741L313.773 291.09C313.707 291.124 313.627 291.077 313.627 291.002Z" fill="#017A8B" stroke="#017A8B" stroke-width="0.5"/>
<path d="M306.615 286.48V282.184C306.615 282.146 306.636 282.111 306.669 282.094L307.345 281.745C307.412 281.71 307.491 281.759 307.491 281.834V286.13C307.491 286.168 307.47 286.202 307.437 286.219L306.761 286.568C306.694 286.603 306.615 286.555 306.615 286.48Z" fill="#017A8B" stroke="#017A8B" stroke-width="0.5"/>
<path d="M301.355 283.767V279.471C301.355 279.433 301.376 279.398 301.41 279.381L302.086 279.032C302.153 278.997 302.232 279.046 302.232 279.121V283.417C302.232 283.455 302.211 283.489 302.178 283.506L301.501 283.855C301.435 283.889 301.355 283.842 301.355 283.767Z" fill="#017A8B" stroke="#017A8B" stroke-width="0.5"/>
<path d="M326.776 291.066V285.429C326.776 285.361 326.843 285.31 326.908 285.332L328.023 285.716C328.064 285.73 328.091 285.768 328.091 285.81V291.065C328.091 291.12 328.046 291.165 327.991 291.165H326.876C326.821 291.165 326.776 291.121 326.776 291.066Z" fill="#C89665" stroke="#C89665"/>
<path d="M319.325 297.396V291.76C319.325 291.691 319.393 291.641 319.458 291.663L320.573 292.046C320.613 292.06 320.64 292.098 320.64 292.141V297.396C320.64 297.451 320.595 297.496 320.54 297.496H319.425C319.37 297.496 319.325 297.451 319.325 297.396Z" fill="#C89665" stroke="#C89665"/>
<path d="M298.847 277.517L306.559 272.212C306.593 272.189 306.636 272.188 306.67 272.211C313.528 276.829 326.84 285.304 328.008 285.733C328.062 285.712 328.091 285.713 328.091 285.739C328.091 285.755 328.063 285.753 328.008 285.733C327.317 285.999 322.457 289.902 320.258 292.015C320.224 292.047 320.174 292.051 320.134 292.024L298.847 277.682C298.789 277.643 298.789 277.557 298.847 277.517Z" fill="#F1BA4D"/>
<path d="M328.091 285.739C328.091 285.38 322.628 289.738 320.258 292.015C320.224 292.047 320.174 292.051 320.134 292.024L298.847 277.682C298.789 277.643 298.789 277.557 298.847 277.517L306.559 272.212C306.593 272.189 306.636 272.188 306.67 272.211C313.846 277.043 328.091 286.1 328.091 285.739Z" stroke="#C89665"/>
</g>
<path d="M322.832 307.712V269.966C322.832 269.933 322.848 269.902 322.875 269.883L387.216 226.082C387.243 226.063 387.26 226.032 387.26 225.999V223.064C387.26 222.986 387.345 222.938 387.411 222.978L392.471 226.023C392.501 226.041 392.519 226.074 392.519 226.109V262.624C392.519 262.658 392.502 262.689 392.474 262.708L322.986 307.795C322.919 307.839 322.832 307.791 322.832 307.712Z" fill="#186EA2" stroke="#017A8B" stroke-width="0.5"/>
<path d="M254.02 225.6L253.582 264.035" stroke="white" stroke-width="1.5"/>
<path d="M243.061 256.302C243.041 255.673 242.834 248.268 243.497 219.444C243.499 219.368 243.582 219.317 243.648 219.356L267.994 233.709C268.026 233.728 268.045 233.762 268.043 233.798L266.737 271.994C266.734 272.073 266.646 272.118 266.581 272.074L243.105 256.376C243.079 256.358 243.062 256.334 243.061 256.302Z" fill="white" fill-opacity="0.3" stroke="white" stroke-width="1.5"/>
<path d="M306.433 259.93L305.557 296.104" stroke="white" stroke-width="1.5"/>
<path d="M294.602 289.719C294.625 289.071 294.861 282.357 295.521 253.774C295.522 253.698 295.606 253.648 295.671 253.687L320.019 268.04C320.05 268.058 320.068 268.092 320.068 268.128L319.584 304.972C319.583 305.049 319.498 305.096 319.432 305.055L294.649 289.805C294.619 289.786 294.6 289.755 294.602 289.719Z" fill="white" fill-opacity="0.3" stroke="white" stroke-width="1.5"/>
<path d="M402.6 277.093V270.547C402.6 270.468 402.513 270.42 402.446 270.462L319.817 322.784C319.784 322.804 319.743 322.804 319.71 322.784L228.753 265.488C228.686 265.446 228.6 265.494 228.6 265.572V272.57C228.6 272.605 228.618 272.637 228.647 272.655L320.586 329.567C320.619 329.587 320.661 329.587 320.693 329.566L402.554 277.177C402.582 277.159 402.6 277.127 402.6 277.093Z" fill="#A87E40" stroke="#A87E40" stroke-width="1.5"/>
<path d="M228.6 264.939V257.434C228.6 257.356 228.686 257.305 228.752 257.347L320.64 314.226L400.697 261.384C401.343 260.957 402.209 261.396 402.246 262.17L402.6 269.461L319.763 322.365L228.6 264.939Z" fill="#046270" stroke="#025D69"/>
<path d="M321.707 268.433C322.254 269.206 323.221 270.101 324.841 270.341C324.943 270.356 325.021 270.444 325.019 270.548L324.155 307.539C324.151 307.695 323.978 307.787 323.846 307.702L320.733 305.695C320.675 305.657 320.641 305.593 320.641 305.524L321.063 268.59C321.065 268.359 321.574 268.245 321.707 268.433Z" fill="#038699" stroke="#038699"/>
<path d="M242.796 219.179L239.269 218.724C238.337 218.604 238.071 217.38 238.868 216.883L307.315 174.256C307.96 173.854 308.777 173.853 309.423 174.252L389.88 223.969C391.117 224.733 391.151 226.52 389.945 227.331L325.687 270.528C325.019 270.977 324.147 270.982 323.474 270.54L322.321 269.783C321.115 268.992 321.118 267.222 322.328 266.435L382.402 227.335C383.637 226.531 383.609 224.714 382.35 223.949L309.417 179.663C308.773 179.272 307.965 179.276 307.325 179.673L244.106 218.894C243.715 219.137 243.252 219.237 242.796 219.179Z" fill="#038699"/>
</g>
<path fill-rule="evenodd" clip-rule="evenodd" d="M173.882 156.153C156.27 140.593 215.276 112.03 215.276 112.03C218.906 112.03 226.167 112.03 233.427 103.902C240.687 96.9352 247.343 81.8403 254.603 81.8403C261.863 81.8403 269.124 96.9352 276.384 96.9352C283.645 96.9352 290.905 81.8404 298.165 71.3901C305.426 62.101 312.081 57.4564 319.342 64.4233C326.602 71.3901 333.862 92.2906 341.123 101.58C348.383 112.03 355.643 112.03 362.904 99.2574C370.164 86.4849 376.82 62.101 384.08 44.6839C391.34 27.2668 398.601 17.9777 405.861 27.2668C413.122 37.7171 420.382 66.7455 427.642 74.8735C434.903 81.8403 438.339 65.9223 445.6 63.6V76.1V94.1L445.6 156.153C452.86 156.153 441.97 156.153 445.6 156.153C438.34 156.153 434.903 156.153 427.642 156.153C420.382 156.153 413.122 156.153 405.861 156.153C398.601 156.153 391.34 156.153 384.08 156.153C376.82 156.153 370.164 156.153 362.904 156.153C355.643 156.153 348.383 156.153 341.123 156.153C333.862 156.153 326.602 156.153 319.342 156.153C312.081 156.153 305.426 156.153 298.165 156.153C290.905 156.153 283.645 156.153 276.384 156.153C269.124 156.153 261.863 156.153 254.603 156.153C247.343 156.153 240.687 156.153 233.427 156.153C226.167 156.153 218.906 156.153 215.276 156.153H211.646C211.646 156.153 185.206 166.158 173.882 156.153Z" fill="#088FA2" fill-opacity="0.11"/>
<path fill-rule="evenodd" clip-rule="evenodd" d="M233.317 154.153C250.93 138.593 191.923 110.03 191.923 110.03C188.293 110.03 181.033 110.03 173.772 101.902C166.512 94.9352 159.856 79.8403 152.596 79.8403C145.336 79.8403 138.075 94.9352 130.815 94.9352C123.555 94.9352 116.294 79.8404 109.034 69.3901C101.773 60.101 95.118 55.4564 87.8577 62.4233C80.5973 69.3901 73.3369 90.2906 66.0765 99.5797C58.8161 110.03 51.5557 110.03 44.2953 97.2574C37.035 84.4849 30.3796 60.101 23.1192 42.6839C15.8588 25.2668 17.5996 16.1 17.5996 25.1C17.5996 26.6 17.5996 79.1 17.5996 79.1V86.1V154.153C10.3392 154.153 21.2298 154.153 17.5996 154.153C24.86 154.153 15.8588 154.153 23.1192 154.153C30.3796 154.153 37.035 154.153 44.2953 154.153C51.5557 154.153 58.8161 154.153 66.0765 154.153C73.3369 154.153 80.5973 154.153 87.8577 154.153C95.118 154.153 101.773 154.153 109.034 154.153C116.294 154.153 123.555 154.153 130.815 154.153C138.075 154.153 145.336 154.153 152.596 154.153C159.856 154.153 166.512 154.153 173.772 154.153C181.033 154.153 188.293 154.153 191.923 154.153H195.553C195.553 154.153 221.993 164.158 233.317 154.153Z" fill="#088FA2" fill-opacity="0.11"/>
<path d="M47.6455 207.6C49.5521 201.792 54.6455 193.6 54.6455 193.6L229.646 184.6C229.646 184.6 267.146 175.1 236.146 193.6C205.146 212.1 167.646 286.1 135.646 263.1C103.646 240.1 45.739 213.408 47.6455 207.6Z" fill="#039CB0" fill-opacity="0.2"/>
<g filter="url(#filter8_i_102_1396)">
<path d="M136.146 229.1L51.6455 177.6L147.146 118.1L231.646 170.1L136.146 229.1Z" fill="#00A2B7" stroke="#038699"/>
<path d="M157.146 187.6V188.225" stroke="#ABABB3" stroke-width="0.5"/>
<path d="M51.1455 186.1V177.6L136.146 229.1L232.146 170.1V178.6L135.146 238.1L77.6455 203.1L51.1455 186.1Z" fill="#038699" stroke="#038699"/>
<path d="M51.4458 195.6V187.1L136.646 238.1L232.146 179.1V187.1L135.91 247.6L78.0922 212.6L51.4458 195.6Z" fill="#B1823B" stroke="#906834" stroke-opacity="0.3"/>
<path d="M123.646 198.6L150.146 182.6L157.146 187.6V190.1L150.146 185.6L123.646 201.6L79.1455 175.1V172.1L123.646 198.6Z" fill="#A7A7B1"/>
<path d="M150.146 182.6L123.646 198.6M150.146 182.6V185.6M150.146 182.6L157.146 187.6V190.1L150.146 185.6M123.646 198.6L79.1455 172.1V175.1L123.646 201.6M123.646 198.6V201.6M123.646 201.6L150.146 185.6" stroke="#ABABB3" stroke-width="0.5"/>
<path d="M176.646 177.1V174.6L157.646 187.1V190.1L176.646 177.1Z" fill="#A7A7B1" stroke="#ABABB3" stroke-width="0.5"/>
<path d="M185.646 163.1V161.1L174.146 168.6V170.6L185.646 163.1Z" fill="#A7A7B1" stroke="#ABABB3" stroke-width="0.5"/>
<g filter="url(#filter9_f_102_1396)">
<path d="M78.6455 180.1L81.6455 177.1L185.646 163.1C186.567 164.022 188.424 165.709 189.022 165.653C189.144 165.577 189.19 165.555 189.146 165.6C189.114 165.631 189.073 165.648 189.022 165.653C188.049 166.263 182.255 170.379 179.146 172.6L182.146 178.6L159.146 194.6L151.646 192.6L125.646 208.1L78.6455 180.1Z" fill="#218C9A"/>
</g>
<path d="M123.646 194.1V159.1L179.646 124.6V159.1L123.646 194.1Z" fill="white" stroke="#F7F7F7" stroke-width="0.5"/>
<path d="M155.646 165.1L147.146 178.6L166.646 166.6L178.646 151.1L155.646 165.1Z" fill="#D9D9D9" fill-opacity="0.5"/>
<path d="M95.1455 176.1V152.1L107.646 159.891V183.6L95.1455 176.1Z" fill="#6F631D" stroke="#878264"/>
<path d="M83.6455 169.6V131.419L102.146 130.6L123.646 160.1L123.146 193.6L108.646 185.1V183.6V159.6L94.6455 151.1V176.1L92.6455 175.6L83.6455 169.6Z" fill="white" stroke="#F7F7F7"/>
<path d="M160.646 94.6L102.646 129.6L80.6455 130.6L138.646 95.6L160.646 94.6Z" fill="#088FA2"/>
<path d="M103.146 129.6L80.6455 130.6L138.646 95.6L160.646 94.6" stroke="#038699"/>
<path d="M160.646 94.6L102.646 129.6L123.646 158.6L181.146 122.6L160.646 94.6Z" fill="#00A2B7" stroke="#039CB0"/>
<path d="M132.646 167.6V159.6L138.146 156.1V164.1L132.646 167.6Z" fill="#088FA2" stroke="#038699"/>
<path d="M167.646 146.6V138.6L173.146 135.6V143.1L167.646 146.6Z" fill="#088FA2" stroke="#038699"/>
<path d="M167.646 156.6V148.6L173.146 145.6V153.1L167.646 156.6Z" fill="#088FA2" stroke="#038699"/>
<path d="M140.646 163.1V155.1L146.146 152.1V159.6L140.646 163.1Z" fill="#088FA2" stroke="#038699"/>
<path d="M138.646 166.1L132.646 170.1V177.6L138.646 174.1V166.1Z" fill="#039CB0" stroke="#038699"/>
<path d="M146.646 161.6L140.646 165.1V173.1L146.646 169.6V161.6Z" fill="#039CB0" stroke="#038699"/>
<path d="M147.146 179.1V158.6L166.646 151.6V167.1L147.146 179.1Z" fill="#D9D9D9" fill-opacity="0.59"/>
<path d="M174.146 169.1L171.146 171.1L174.146 173.1V169.1Z" fill="white" stroke="#D9D9D9" stroke-width="0.5"/>
<path d="M79.1455 172.1L83.1455 169.1L123.646 193.6L179.646 159.1V155.6L185.646 161.1L170.646 171.1L176.646 174.6L157.146 187.6L150.146 182.6L123.646 198.6L79.1455 172.1Z" fill="#AAAAB3" stroke="#B1B1BB" stroke-width="0.5"/>
<path d="M150.646 182.6V162.6L154.646 166.1L156.646 165.1V185.1L155.146 185.6L150.646 182.6Z" fill="white"/>
<path d="M155.146 185.6L150.646 182.6V162.6L154.646 166.1M155.146 185.6L154.646 166.1M155.146 185.6L156.646 185.1V165.1L154.646 166.1" stroke="#F7F7F7" stroke-width="0.5"/>
<path d="M168.646 171.6V155.1L172.646 155.6L173.646 154.6V172.6L172.646 173.6L168.646 171.6Z" fill="white"/>
<path d="M172.646 173.6L168.646 171.6V155.1L172.646 155.6M172.646 173.6V155.6M172.646 173.6L173.646 172.6V154.6L172.646 155.6" stroke="#F7F7F7" stroke-width="0.5"/>
<path d="M155.646 164.6L142.646 154.43L164.146 140.6L177.646 151.1L155.646 164.6Z" fill="#039CB0" stroke="#038699"/>
</g>
<path d="M237.1 183.6C236.396 183.6 235.6 183.1 235.6 183.1V158.6H238.6V183.1C238.6 183.1 237.804 183.6 237.1 183.6Z" fill="#346C5F" stroke="#346C5F"/>
<g filter="url(#filter10_i_102_1396)">
<path d="M227.351 144.611L227.447 145.187C227.546 145.781 227.828 146.329 228.254 146.754C228.795 147.296 229.53 147.6 230.296 147.6H230.6L228.6 148.6L227.1 149.6C226.433 150.1 225 151.2 224.6 151.6C224.374 151.826 224.243 152.275 224.173 152.714C224.081 153.287 224.271 153.858 224.593 154.34L224.917 154.826C225.036 155.004 225.206 155.143 225.406 155.222L225.604 155.302C226.377 155.611 226.422 156.689 225.677 157.061C225.626 157.087 225.576 157.117 225.53 157.152L224.093 158.23C223.772 158.471 223.532 158.804 223.405 159.185C223.212 159.762 223.297 160.396 223.635 160.903L223.915 161.323C224.036 161.505 224.202 161.651 224.397 161.749L225.76 162.43C226.254 162.677 226.203 163.399 225.678 163.574C225.626 163.591 225.576 163.615 225.53 163.646L224.421 164.386C224.208 164.528 223.976 164.641 223.733 164.722L223.561 164.78C222.945 164.985 222.437 165.426 222.147 166.006C221.802 166.695 221.802 167.505 222.147 168.194L222.253 168.406C222.48 168.861 222.822 169.248 223.245 169.53L224.1 170.1L225.6 171.1L226.544 171.572C227.238 171.919 228.004 172.1 228.78 172.1H231.244C231.481 172.1 231.717 172.117 231.951 172.15L234.748 172.55C234.982 172.583 235.218 172.6 235.455 172.6H237.744C237.981 172.6 238.216 172.583 238.451 172.55L241.6 172.1C243.101 171.886 244.094 171.661 244.719 171.474C245.328 171.291 245.9 170.971 246.485 170.721L248.275 169.954C248.82 169.72 249.315 169.385 249.734 168.965L250.393 168.307C250.845 167.854 251.1 167.24 251.1 166.6C251.1 165.96 250.845 165.346 250.393 164.893L250.1 164.6L249.117 163.618C248.786 163.286 248.336 163.1 247.867 163.1H246.807C246.416 163.1 246.1 162.783 246.1 162.393C246.1 162.205 246.174 162.025 246.307 161.893L247.177 161.022C247.457 160.743 247.69 160.42 247.867 160.066L248.441 158.918C248.547 158.706 248.637 158.488 248.712 158.263L249.1 157.1C249.5 155.9 248.266 155.267 247.6 155.1L246.31 154.67C245.614 154.438 245.489 153.507 246.1 153.1C246.838 152.608 247.236 152.09 247.432 151.687C247.612 151.32 247.549 150.899 247.45 150.503L247.365 150.163C247.191 149.467 246.832 148.832 246.325 148.325L245.86 147.86C245.689 147.69 245.478 147.565 245.246 147.499L244.654 147.33C243.684 147.053 243.513 145.752 244.377 145.233C244.524 145.146 244.649 145.026 244.743 144.884L245.311 144.033C245.503 143.745 245.664 143.438 245.793 143.117L245.857 142.957C246.334 141.765 246.334 140.435 245.857 139.243L245.748 138.972C245.649 138.724 245.531 138.485 245.393 138.256L244.838 137.331C244.356 136.527 243.654 135.877 242.815 135.458C242.341 135.221 241.832 135.062 241.307 134.987L239.366 134.709C238.858 134.637 238.342 134.643 237.836 134.727L235.987 135.035C235.729 135.078 235.475 135.141 235.227 135.224L233.12 135.926C232.774 136.042 232.442 136.195 232.129 136.382L231.171 136.957C230.468 137.379 229.879 137.968 229.456 138.672L228.6 140.1L227.785 141.73C227.339 142.62 227.188 143.629 227.351 144.611Z" fill="#67AD15"/>
</g>
<path d="M231.6 147.6H230.6M230.6 147.6H230.296C229.53 147.6 228.795 147.296 228.254 146.754C227.828 146.329 227.546 145.781 227.447 145.187L227.351 144.611C227.188 143.629 227.339 142.62 227.785 141.73L228.6 140.1L229.456 138.672C229.879 137.968 230.468 137.379 231.171 136.957L232.129 136.382C232.442 136.195 232.774 136.042 233.12 135.926L235.227 135.224C235.475 135.141 235.729 135.078 235.987 135.035L237.836 134.727C238.342 134.643 238.858 134.637 239.366 134.709L241.307 134.987C241.832 135.062 242.341 135.221 242.815 135.458C243.654 135.877 244.356 136.527 244.838 137.331L245.393 138.256C245.531 138.485 245.649 138.724 245.748 138.972L245.857 139.243C246.334 140.435 246.334 141.765 245.857 142.957L245.793 143.117C245.664 143.438 245.503 143.745 245.311 144.033L244.743 144.884C244.649 145.026 244.524 145.146 244.377 145.233C243.513 145.752 243.684 147.053 244.654 147.33L245.246 147.499C245.478 147.565 245.689 147.69 245.86 147.86L246.325 148.325C246.832 148.832 247.191 149.467 247.365 150.163L247.45 150.503C247.549 150.899 247.612 151.32 247.432 151.687C247.236 152.09 246.838 152.608 246.1 153.1C245.489 153.507 245.614 154.438 246.31 154.67L247.6 155.1C248.266 155.267 249.5 155.9 249.1 157.1C248.91 157.668 248.788 158.035 248.712 158.263C248.637 158.488 248.547 158.706 248.441 158.918L247.867 160.066C247.69 160.42 247.457 160.743 247.177 161.022L246.307 161.893C246.174 162.025 246.1 162.205 246.1 162.393C246.1 162.783 246.416 163.1 246.807 163.1H247.867C248.336 163.1 248.786 163.286 249.117 163.618L250.1 164.6L250.393 164.893C250.845 165.346 251.1 165.96 251.1 166.6C251.1 167.24 250.845 167.854 250.393 168.307L249.734 168.965C249.315 169.385 248.82 169.72 248.275 169.954L246.485 170.721C245.9 170.971 245.328 171.291 244.719 171.474C244.094 171.661 243.101 171.886 241.6 172.1C239.826 172.353 238.895 172.486 238.451 172.55C238.216 172.583 237.981 172.6 237.744 172.6H235.455C235.218 172.6 234.982 172.583 234.748 172.55L231.951 172.15C231.717 172.117 231.481 172.1 231.244 172.1H228.78C228.004 172.1 227.238 171.919 226.544 171.572L225.6 171.1L224.1 170.1L223.245 169.53C222.822 169.248 222.48 168.861 222.253 168.406L222.147 168.194C221.802 167.505 221.802 166.695 222.147 166.006C222.437 165.426 222.945 164.985 223.561 164.78L223.733 164.722C223.976 164.641 224.208 164.528 224.421 164.386L225.53 163.646C225.576 163.615 225.626 163.591 225.678 163.574C226.203 163.399 226.254 162.677 225.76 162.43L224.397 161.749C224.202 161.651 224.036 161.505 223.915 161.323L223.635 160.903C223.297 160.396 223.212 159.762 223.405 159.185C223.532 158.804 223.772 158.471 224.093 158.23L225.53 157.152C225.576 157.117 225.626 157.087 225.677 157.061C226.422 156.689 226.377 155.611 225.604 155.302L225.406 155.222C225.206 155.143 225.036 155.004 224.917 154.826L224.593 154.34C224.271 153.858 224.081 153.287 224.173 152.714C224.243 152.275 224.374 151.826 224.6 151.6C225 151.2 226.433 150.1 227.1 149.6L228.6 148.6L230.6 147.6Z" stroke="#53A934"/>
<path d="M227.667 181.566L231.433 179.683C232.196 179.302 233.047 179.12 233.899 179.159L242.759 179.562C243.313 179.587 243.856 179.728 244.352 179.976L244.976 180.288C246.863 181.231 247.434 183.654 246.169 185.341C245.796 185.838 245.295 186.222 244.719 186.452L242.684 187.266C241.358 187.796 240.603 188.768 241.354 189.982C241.756 190.633 242.321 191.488 243.1 192.6C246.105 195.939 239.33 198.349 233.713 199.539C231.822 199.94 229.916 199.074 228.844 197.466L226.843 194.465C226.12 193.381 225.043 193.156 225.965 192.235C227.468 190.732 227.957 186.626 226.717 184.9C226.666 184.829 226.617 184.757 226.569 184.686C225.818 183.564 226.459 182.17 227.667 181.566Z" fill="#017A8B" fill-opacity="0.18"/>
<path d="M341.1 327.6C340.396 327.6 339.6 327.1 339.6 327.1V302.6H342.6V327.1C342.6 327.1 341.804 327.6 341.1 327.6Z" fill="#346C5F" stroke="#346C5F"/>
<g filter="url(#filter11_i_102_1396)">
<path d="M331.351 288.611L331.447 289.187C331.546 289.781 331.828 290.329 332.254 290.754C332.795 291.296 333.53 291.6 334.296 291.6H334.6L332.6 292.6L331.1 293.6C330.433 294.1 329 295.2 328.6 295.6C328.374 295.826 328.243 296.275 328.173 296.714C328.081 297.287 328.271 297.858 328.593 298.34L328.917 298.826C329.036 299.004 329.206 299.143 329.406 299.222L329.604 299.302C330.377 299.611 330.422 300.689 329.677 301.061C329.626 301.087 329.576 301.117 329.53 301.152L328.093 302.23C327.772 302.471 327.532 302.804 327.405 303.185C327.212 303.762 327.297 304.396 327.635 304.903L327.915 305.323C328.036 305.505 328.202 305.651 328.397 305.749L329.76 306.43C330.254 306.677 330.203 307.399 329.678 307.574C329.626 307.591 329.576 307.615 329.53 307.646L328.421 308.386C328.208 308.528 327.976 308.641 327.733 308.722L327.561 308.78C326.945 308.985 326.437 309.426 326.147 310.006C325.802 310.695 325.802 311.505 326.147 312.194L326.253 312.406C326.48 312.861 326.822 313.248 327.245 313.53L328.1 314.1L329.6 315.1L330.544 315.572C331.238 315.919 332.004 316.1 332.78 316.1H335.244C335.481 316.1 335.717 316.117 335.951 316.15L338.748 316.55C338.982 316.583 339.218 316.6 339.455 316.6H341.744C341.981 316.6 342.216 316.583 342.451 316.55L345.6 316.1C347.101 315.886 348.094 315.661 348.719 315.474C349.328 315.291 349.9 314.971 350.485 314.721L352.275 313.954C352.82 313.72 353.315 313.385 353.734 312.965L354.393 312.307C354.845 311.854 355.1 311.24 355.1 310.6C355.1 309.96 354.845 309.346 354.393 308.893L354.1 308.6L353.117 307.618C352.786 307.286 352.336 307.1 351.867 307.1H350.807C350.416 307.1 350.1 306.783 350.1 306.393C350.1 306.205 350.174 306.025 350.307 305.893L351.177 305.022C351.457 304.743 351.69 304.42 351.867 304.066L352.441 302.918C352.547 302.706 352.637 302.488 352.712 302.263L353.1 301.1C353.5 299.9 352.266 299.267 351.6 299.1L350.31 298.67C349.614 298.438 349.489 297.507 350.1 297.1C350.838 296.608 351.236 296.09 351.432 295.687C351.612 295.32 351.549 294.899 351.45 294.503L351.365 294.163C351.191 293.467 350.832 292.832 350.325 292.325L349.86 291.86C349.689 291.69 349.478 291.565 349.246 291.499L348.654 291.33C347.684 291.053 347.513 289.752 348.377 289.233C348.524 289.146 348.649 289.026 348.743 288.884L349.311 288.033C349.503 287.745 349.664 287.438 349.793 287.117L349.857 286.957C350.334 285.765 350.334 284.435 349.857 283.243L349.748 282.972C349.649 282.724 349.531 282.485 349.393 282.256L348.838 281.331C348.356 280.527 347.654 279.877 346.815 279.458C346.341 279.221 345.832 279.062 345.307 278.987L343.366 278.709C342.858 278.637 342.342 278.643 341.836 278.727L339.987 279.035C339.729 279.078 339.475 279.141 339.227 279.224L337.12 279.926C336.774 280.042 336.442 280.195 336.129 280.382L335.171 280.957C334.468 281.379 333.879 281.968 333.456 282.672L332.6 284.1L331.785 285.73C331.339 286.62 331.188 287.629 331.351 288.611Z" fill="#67AD15"/>
</g>
<path d="M335.6 291.6H334.6M334.6 291.6H334.296C333.53 291.6 332.795 291.296 332.254 290.754C331.828 290.329 331.546 289.781 331.447 289.187L331.351 288.611C331.188 287.629 331.339 286.62 331.785 285.73L332.6 284.1L333.456 282.672C333.879 281.968 334.468 281.379 335.171 280.957L336.129 280.382C336.442 280.195 336.774 280.042 337.12 279.926L339.227 279.224C339.475 279.141 339.729 279.078 339.987 279.035L341.836 278.727C342.342 278.643 342.858 278.637 343.366 278.709L345.307 278.987C345.832 279.062 346.341 279.221 346.815 279.458C347.654 279.877 348.356 280.527 348.838 281.331L349.393 282.256C349.531 282.485 349.649 282.724 349.748 282.972L349.857 283.243C350.334 284.435 350.334 285.765 349.857 286.957L349.793 287.117C349.664 287.438 349.503 287.745 349.311 288.033L348.743 288.884C348.649 289.026 348.524 289.146 348.377 289.233C347.513 289.752 347.684 291.053 348.654 291.33L349.246 291.499C349.478 291.565 349.689 291.69 349.86 291.86L350.325 292.325C350.832 292.832 351.191 293.467 351.365 294.163L351.45 294.503C351.549 294.899 351.612 295.32 351.432 295.687C351.236 296.09 350.838 296.608 350.1 297.1C349.489 297.507 349.614 298.438 350.31 298.67L351.6 299.1C352.266 299.267 353.5 299.9 353.1 301.1C352.91 301.668 352.788 302.035 352.712 302.263C352.637 302.488 352.547 302.706 352.441 302.918L351.867 304.066C351.69 304.42 351.457 304.743 351.177 305.022L350.307 305.893C350.174 306.025 350.1 306.205 350.1 306.393C350.1 306.783 350.416 307.1 350.807 307.1H351.867C352.336 307.1 352.786 307.286 353.117 307.618L354.1 308.6L354.393 308.893C354.845 309.346 355.1 309.96 355.1 310.6C355.1 311.24 354.845 311.854 354.393 312.307L353.734 312.965C353.315 313.385 352.82 313.72 352.275 313.954L350.485 314.721C349.9 314.971 349.328 315.291 348.719 315.474C348.094 315.661 347.101 315.886 345.6 316.1C343.826 316.353 342.895 316.486 342.451 316.55C342.216 316.583 341.981 316.6 341.744 316.6H339.455C339.218 316.6 338.982 316.583 338.748 316.55L335.951 316.15C335.717 316.117 335.481 316.1 335.244 316.1H332.78C332.004 316.1 331.238 315.919 330.544 315.572L329.6 315.1L328.1 314.1L327.245 313.53C326.822 313.248 326.48 312.861 326.253 312.406L326.147 312.194C325.802 311.505 325.802 310.695 326.147 310.006C326.437 309.426 326.945 308.985 327.561 308.78L327.733 308.722C327.976 308.641 328.208 308.528 328.421 308.386L329.53 307.646C329.576 307.615 329.626 307.591 329.678 307.574C330.203 307.399 330.254 306.677 329.76 306.43L328.397 305.749C328.202 305.651 328.036 305.505 327.915 305.323L327.635 304.903C327.297 304.396 327.212 303.762 327.405 303.185C327.532 302.804 327.772 302.471 328.093 302.23L329.53 301.152C329.576 301.117 329.626 301.087 329.677 301.061C330.422 300.689 330.377 299.611 329.604 299.302L329.406 299.222C329.206 299.143 329.036 299.004 328.917 298.826L328.593 298.34C328.271 297.858 328.081 297.287 328.173 296.714C328.243 296.275 328.374 295.826 328.6 295.6C329 295.2 330.433 294.1 331.1 293.6L332.6 292.6L334.6 291.6Z" stroke="#53A934"/>
<path d="M331.667 325.566L335.433 323.683C336.196 323.302 337.047 323.12 337.899 323.159L346.759 323.562C347.313 323.587 347.856 323.728 348.352 323.976L348.976 324.288C350.863 325.231 351.434 327.654 350.169 329.341C349.796 329.838 349.295 330.222 348.719 330.452L346.684 331.266C345.358 331.796 344.603 332.768 345.354 333.982C345.756 334.633 346.321 335.488 347.1 336.6C350.105 339.939 343.33 342.349 337.713 343.539C335.822 343.94 333.916 343.074 332.844 341.466L330.843 338.465C330.12 337.381 329.043 337.156 329.965 336.235C331.468 334.732 331.957 330.626 330.717 328.9C330.666 328.829 330.617 328.757 330.569 328.686C329.818 327.564 330.459 326.17 331.667 325.566Z" fill="#017A8B" fill-opacity="0.18"/>
<path d="M67.0996 215.6C66.3956 215.6 65.5996 215.1 65.5996 215.1V190.6H68.5996V215.1C68.5996 215.1 67.8036 215.6 67.0996 215.6Z" fill="#346C5F" stroke="#346C5F"/>
<g filter="url(#filter12_i_102_1396)">
<path d="M57.3514 176.611L57.4475 177.187C57.5464 177.781 57.8284 178.329 58.2539 178.754C58.7954 179.296 59.5298 179.6 60.2956 179.6H60.5996L58.5996 180.6L57.0996 181.6C56.4329 182.1 54.9996 183.2 54.5996 183.6C54.3736 183.826 54.2434 184.275 54.1728 184.714C54.0807 185.287 54.2714 185.858 54.5932 186.34L54.9168 186.826C55.0359 187.004 55.2063 187.143 55.4056 187.222L55.6043 187.302C56.3774 187.611 56.4222 188.689 55.6774 189.061C55.6257 189.087 55.5763 189.117 55.53 189.152L54.0926 190.23C53.7716 190.471 53.5316 190.804 53.4047 191.185C53.2122 191.762 53.2971 192.396 53.6348 192.903L53.9152 193.323C54.0361 193.505 54.2021 193.651 54.3969 193.749L55.7597 194.43C56.2542 194.677 56.2029 195.399 55.6784 195.574C55.6261 195.591 55.5764 195.615 55.5305 195.646L54.421 196.386C54.2077 196.528 53.9764 196.641 53.7331 196.722L53.5607 196.78C52.9453 196.985 52.4366 197.426 52.1465 198.006C51.8022 198.695 51.8022 199.505 52.1465 200.194L52.2527 200.406C52.48 200.861 52.8221 201.248 53.245 201.53L54.0996 202.1L55.5996 203.1L56.5439 203.572C57.2382 203.919 58.0037 204.1 58.7799 204.1H61.2443C61.4809 204.1 61.7172 204.117 61.9514 204.15L64.7478 204.55C64.9821 204.583 65.2184 204.6 65.4549 204.6H67.7443C67.9809 204.6 68.2165 204.583 68.4507 204.55L71.5996 204.1C73.1009 203.886 74.0943 203.661 74.7185 203.474C75.3278 203.291 75.9 202.971 76.4847 202.721L78.2745 201.954C78.8196 201.72 79.315 201.385 79.7344 200.965L80.3925 200.307C80.8453 199.854 81.0996 199.24 81.0996 198.6C81.0996 197.96 80.8453 197.346 80.3925 196.893L80.0996 196.6L79.1174 195.618C78.7859 195.286 78.3362 195.1 77.8674 195.1H76.8067C76.4162 195.1 76.0996 194.783 76.0996 194.393C76.0996 194.205 76.1741 194.025 76.3067 193.893L77.1774 193.022C77.457 192.743 77.6898 192.42 77.8667 192.066L78.4407 190.918C78.5465 190.706 78.6371 190.488 78.7119 190.263L79.0996 189.1C79.4996 187.9 78.2663 187.267 77.5996 187.1L76.3099 186.67C75.6138 186.438 75.4891 185.507 76.0996 185.1C76.838 184.608 77.2356 184.09 77.4323 183.687C77.6116 183.32 77.5495 182.899 77.4503 182.503L77.3654 182.163C77.1915 181.467 76.8317 180.832 76.3246 180.325L75.8597 179.86C75.6891 179.69 75.4779 179.565 75.2459 179.499L74.6537 179.33C73.6842 179.053 73.5127 177.752 74.3774 177.233C74.5237 177.146 74.6487 177.026 74.7434 176.884L75.3108 176.033C75.5028 175.745 75.6644 175.438 75.793 175.117L75.8568 174.957C76.3337 173.765 76.3337 172.435 75.8568 171.243L75.7484 170.972C75.6494 170.724 75.5307 170.485 75.3935 170.256L74.8384 169.331C74.3559 168.527 73.6541 167.877 72.8153 167.458C72.3413 167.221 71.8321 167.062 71.3075 166.987L69.3655 166.709C68.8579 166.637 68.3422 166.643 67.8364 166.727L65.9866 167.035C65.729 167.078 65.4752 167.141 65.2274 167.224L63.1203 167.926C62.7742 168.042 62.4418 168.195 62.129 168.382L61.1715 168.957C60.4677 169.379 59.8787 169.968 59.4565 170.672L58.5996 172.1L57.7847 173.73C57.3394 174.62 57.1878 175.629 57.3514 176.611Z" fill="#67AD15"/>
</g>
<path d="M61.5996 179.6H60.5996M60.5996 179.6H60.2956C59.5298 179.6 58.7954 179.296 58.2539 178.754C57.8284 178.329 57.5464 177.781 57.4475 177.187L57.3514 176.611C57.1878 175.629 57.3394 174.62 57.7847 173.73L58.5996 172.1L59.4565 170.672C59.8787 169.968 60.4677 169.379 61.1715 168.957L62.129 168.382C62.4418 168.195 62.7742 168.042 63.1203 167.926L65.2274 167.224C65.4752 167.141 65.729 167.078 65.9866 167.035L67.8364 166.727C68.3422 166.643 68.8579 166.637 69.3655 166.709L71.3075 166.987C71.8321 167.062 72.3413 167.221 72.8153 167.458C73.6541 167.877 74.3559 168.527 74.8384 169.331L75.3935 170.256C75.5307 170.485 75.6494 170.724 75.7484 170.972L75.8568 171.243C76.3336 172.435 76.3336 173.765 75.8568 174.957L75.793 175.117C75.6644 175.438 75.5028 175.745 75.3108 176.033L74.7434 176.884C74.6487 177.026 74.5237 177.146 74.3774 177.233C73.5127 177.752 73.6842 179.053 74.6537 179.33L75.2459 179.499C75.4779 179.565 75.6891 179.69 75.8597 179.86L76.3246 180.325C76.8317 180.832 77.1915 181.467 77.3654 182.163L77.4503 182.503C77.5495 182.899 77.6116 183.32 77.4323 183.687C77.2356 184.09 76.838 184.608 76.0996 185.1C75.4891 185.507 75.6138 186.438 76.3099 186.67L77.5996 187.1C78.2663 187.267 79.4996 187.9 79.0996 189.1C78.9102 189.668 78.788 190.035 78.7119 190.263C78.6371 190.488 78.5465 190.706 78.4407 190.918L77.8667 192.066C77.6898 192.42 77.457 192.743 77.1774 193.022L76.3067 193.893C76.1741 194.025 76.0996 194.205 76.0996 194.393C76.0996 194.783 76.4162 195.1 76.8067 195.1H77.8674C78.3362 195.1 78.7859 195.286 79.1174 195.618L80.0996 196.6L80.3925 196.893C80.8453 197.346 81.0996 197.96 81.0996 198.6C81.0996 199.24 80.8453 199.854 80.3925 200.307L79.7344 200.965C79.315 201.385 78.8196 201.72 78.2745 201.954L76.4847 202.721C75.9 202.971 75.3278 203.291 74.7185 203.474C74.0943 203.661 73.1009 203.886 71.5996 204.1C69.8259 204.353 68.8949 204.486 68.4507 204.55C68.2165 204.583 67.9809 204.6 67.7443 204.6H65.4549C65.2184 204.6 64.9821 204.583 64.7478 204.55L61.9514 204.15C61.7172 204.117 61.4809 204.1 61.2443 204.1H58.7799C58.0037 204.1 57.2382 203.919 56.5439 203.572L55.5996 203.1L54.0996 202.1L53.245 201.53C52.8221 201.248 52.48 200.861 52.2527 200.406L52.1465 200.194C51.8022 199.505 51.8022 198.695 52.1465 198.006C52.4366 197.426 52.9453 196.985 53.5607 196.78L53.7331 196.722C53.9764 196.641 54.2077 196.528 54.421 196.386L55.5305 195.646C55.5764 195.615 55.6261 195.591 55.6784 195.574C56.2029 195.399 56.2542 194.677 55.7597 194.43L54.3969 193.749C54.2021 193.651 54.0361 193.505 53.9152 193.323L53.6348 192.903C53.2971 192.396 53.2122 191.762 53.4047 191.185C53.5316 190.804 53.7716 190.471 54.0926 190.23L55.53 189.152C55.5763 189.117 55.6257 189.087 55.6774 189.061C56.4222 188.689 56.3774 187.611 55.6043 187.302L55.4056 187.222C55.2063 187.143 55.0359 187.004 54.9168 186.826L54.5932 186.34C54.2714 185.858 54.0807 185.287 54.1728 184.714C54.2434 184.275 54.3736 183.826 54.5996 183.6C54.9996 183.2 56.4329 182.1 57.0996 181.6L58.5996 180.6L60.5996 179.6Z" stroke="#53A934"/>
<path d="M57.667 213.566L61.4334 211.683C62.1964 211.302 63.047 211.12 63.8992 211.159L72.7594 211.562C73.3134 211.587 73.8559 211.728 74.3519 211.976L74.9756 212.288C76.8626 213.231 77.4344 215.654 76.1685 217.341C75.7964 217.838 75.295 218.222 74.7192 218.452L72.6843 219.266C71.3583 219.796 70.6026 220.768 71.3538 221.982C71.7562 222.633 72.3209 223.488 73.0996 224.6C76.1049 227.939 69.3304 230.349 63.7134 231.539C61.8224 231.94 59.9159 231.074 58.8437 229.466L56.8431 226.465C56.12 225.381 55.0432 225.156 55.9648 224.235C57.4677 222.732 57.9569 218.626 56.7172 216.9C56.666 216.829 56.6167 216.757 56.569 216.686C55.818 215.564 56.459 214.17 57.667 213.566Z" fill="#017A8B" fill-opacity="0.18"/>
<g filter="url(#filter13_d_102_1396)">
<path d="M51.5996 143.6L57.5996 129.6H67.5996L62.0996 140.1H70.5996L56.5996 157.1L60.0996 143.6H51.5996Z" fill="url(#paint1_linear_102_1396)" shape-rendering="crispEdges"/>
<path d="M51.5996 143.6L57.5996 129.6H67.5996L62.0996 140.1H70.5996L56.5996 157.1L60.0996 143.6H51.5996Z" stroke="white" stroke-opacity="0.3" shape-rendering="crispEdges"/>
</g>
<g filter="url(#filter14_d_102_1396)">
<path d="M258.6 149.6L264.6 135.6H274.6L269.1 146.1H277.6L263.6 163.1L267.1 149.6H258.6Z" fill="url(#paint2_linear_102_1396)" shape-rendering="crispEdges"/>
<path d="M258.6 149.6L264.6 135.6H274.6L269.1 146.1H277.6L263.6 163.1L267.1 149.6H258.6Z" stroke="white" stroke-opacity="0.3" shape-rendering="crispEdges"/>
</g>
<g filter="url(#filter15_d_102_1396)">
<path d="M398.6 265.6L404.6 251.6H414.6L409.1 262.1H417.6L403.6 279.1L407.1 265.6H398.6Z" fill="url(#paint3_linear_102_1396)" shape-rendering="crispEdges"/>
<path d="M398.6 265.6L404.6 251.6H414.6L409.1 262.1H417.6L403.6 279.1L407.1 265.6H398.6Z" stroke="white" stroke-opacity="0.3" shape-rendering="crispEdges"/>
</g>
<g filter="url(#filter16_d_102_1396)">
<path d="M172.6 215.291L177.336 204.6H185.231L180.889 212.618H187.6L176.547 225.6L179.31 215.291H172.6Z" fill="url(#paint4_linear_102_1396)" shape-rendering="crispEdges"/>
<path d="M172.6 215.291L177.336 204.6H185.231L180.889 212.618H187.6L176.547 225.6L179.31 215.291H172.6Z" stroke="white" stroke-opacity="0.3" shape-rendering="crispEdges"/>
</g>
<path d="M86.3371 208.199L86.079 208.37C85.4613 208.782 85.4912 209.699 86.1344 210.069L95.2658 215.326C95.5683 215.5 95.7581 215.819 95.7666 216.168L95.9595 224.108C95.9782 224.881 96.8296 225.342 97.4865 224.934L97.8806 224.689C98.1819 224.502 98.3616 224.169 98.3529 223.815L98.132 214.888C98.1233 214.538 97.9332 214.219 97.6303 214.045L87.3895 208.164C87.0605 207.975 86.6529 207.988 86.3371 208.199Z" fill="#039CB0" stroke="#039CB0"/>
<path d="M102.581 220.306L102.45 213.534C102.423 212.17 101.811 210.883 100.77 210.001C100.501 209.774 100.209 209.577 99.8968 209.414L91.873 205.229C91.1437 204.849 90.2567 204.948 89.6293 205.48C88.5547 206.391 88.7171 208.094 89.9445 208.785L96.686 212.583C97.9393 213.289 98.7288 214.602 98.7645 216.04L98.8724 220.388C98.9099 221.899 100.641 222.733 101.846 221.821C102.319 221.462 102.593 220.899 102.581 220.306Z" fill="#039CB0" stroke="#039CB0"/>
<path d="M95.6672 214.922L85.1241 209.399C84.8836 209.273 84.8676 209.105 84.6428 209.257C84.1917 209.563 84.0096 210.433 84.4888 210.693L94.178 215.937C94.4972 216.11 94.6977 216.442 94.702 216.805L94.7967 224.819C94.8063 225.63 95.6917 226.039 96.3867 225.622C96.4195 225.602 96.4378 225.594 96.4378 225.6C96.4378 225.648 96.289 219.409 96.2028 215.783C96.1941 215.419 95.9891 215.091 95.6672 214.922Z" fill="#00515C" stroke="#00515C"/>
<path d="M87.7863 207.123L86.666 207.983L98.0561 214.302L98.3673 224.387C98.72 224.132 99.4254 223.57 99.4254 223.621C99.4254 223.672 99.3839 216.898 99.3009 213.408L87.7863 207.123Z" fill="#00515C" stroke="#00515C"/>
<path d="M78.135 216.468L82.1691 212.851C82.7432 212.336 82.9089 211.505 82.5758 210.809C82.1652 209.952 84.2546 210.211 85.1005 210.644C88.1185 212.19 95.1801 215.843 95.0032 216.089C94.9019 216.23 94.4905 216.524 94.1338 216.763C93.7735 217.006 93.3295 217.083 92.9045 216.994C92.7228 216.956 92.5361 216.949 92.352 216.972L92.0296 217.012C91.4001 217.091 90.8023 217.333 90.2957 217.715L87.1651 220.075C85.4387 221.377 83.1064 221.536 81.2194 220.481L78.4056 218.907C77.7798 218.557 77.4868 217.815 77.7049 217.132C77.7866 216.876 77.9351 216.647 78.135 216.468Z" fill="#039CB0" stroke="#017A8B"/>
<path d="M86.1057 228.791C86.22 228.284 86.1959 227.271 86.1504 226.518C86.1264 226.12 86.1472 225.721 86.2287 225.331C86.392 224.549 86.7846 223.834 87.3564 223.277L93.4872 217.302C93.4872 217.302 95.0432 215.541 95.0432 216.281C95.0432 219.855 95.4671 226.047 95.2551 226.366C95.1617 226.507 94.788 226.771 94.3991 227.023C93.7485 227.445 92.9775 227.631 92.2025 227.609C91.5099 227.589 90.8258 227.741 90.2054 228.049C88.3693 228.962 84.5134 230.856 84.7987 230.515C84.9129 230.378 85.0671 230.239 85.2245 230.111C85.6474 229.77 85.9864 229.322 86.1057 228.791Z" fill="#017A8B" stroke="#017A8B"/>
<path d="M89.2793 218.057L87.4764 219.51C86.3871 220.281 85.0811 220.698 83.7463 220.698C83.0977 220.698 84.0397 221.32 84.8932 221.815C85.5828 222.215 86.1187 222.843 86.3574 223.604L86.4419 223.963C86.459 224.035 86.5499 224.06 86.6009 224.005C86.6043 224.002 86.6076 223.999 86.6116 223.996L89.9632 221.425C93.3202 218.849 92.4499 219.114 93.0716 218.255C93.0819 218.241 93.0921 218.226 93.1022 218.212C93.7276 217.317 92.8108 216.553 91.7248 216.668C91.3039 216.713 90.9023 216.868 90.5609 217.118L89.2793 218.057Z" fill="#01A9BF" stroke="#01A9BF"/>
<path d="M76.5978 218.49L76.7338 218.221C77.4011 216.902 77.5751 217.49 78.6993 218.451C78.8703 218.597 79.0426 218.732 79.2096 218.855C79.9141 219.373 81.1996 219.882 81.9981 220.238L84.1142 220.877L84.3086 220.962C84.7544 221.158 85.151 221.45 85.4699 221.818C85.8063 222.206 86.047 222.668 86.1729 223.166L86.2095 223.31C86.3463 223.852 86.3658 224.416 86.2666 224.966L86.197 225.351C86.1364 225.686 86.1059 226.027 86.1059 226.368V228.217V228.765C86.1059 229.301 85.8416 229.802 85.3995 230.104C85.1299 230.289 84.8109 230.387 84.4842 230.387H83.7278C83.2425 230.387 82.7612 230.3 82.3064 230.131L81.6246 229.877C80.815 229.575 79.5022 228.859 78.5204 228.291C77.9377 227.954 77.4508 227.477 77.0839 226.913C76.7938 226.467 76.5851 225.973 76.4674 225.454L76.2628 224.551C76.1034 223.848 76.0229 223.13 76.0229 222.409V221.32C76.0229 220.603 76.1316 219.89 76.3453 219.205L76.4701 218.805C76.5039 218.697 76.5466 218.592 76.5978 218.49Z" fill="#088FA2" stroke="#03909F"/>
<g filter="url(#filter17_d_102_1396)">
<path d="M75.2482 225.979L75.9316 226.399C76.6153 226.82 77.458 226.891 78.2026 226.591L79.2121 226.184C80.9518 225.483 80.9132 223.004 79.1765 222.296C78.5717 222.049 77.8752 222.113 77.3299 222.472L74.778 224.323L72.9959 225.444C72.9013 225.503 72.8329 225.596 72.8048 225.704C72.7169 226.043 73.0404 226.343 73.3711 226.23L74.387 225.883C74.6741 225.784 74.9899 225.82 75.2482 225.979Z" fill="#038C9F"/>
<path d="M75.2482 225.979L75.9316 226.399C76.6153 226.82 77.458 226.891 78.2026 226.591L79.2121 226.184C80.9518 225.483 80.9132 223.004 79.1765 222.296C78.5717 222.049 77.8752 222.113 77.3299 222.472L74.778 224.323L72.9959 225.444C72.9013 225.503 72.8329 225.596 72.8048 225.704C72.7169 226.043 73.0404 226.343 73.3711 226.23L74.387 225.883C74.6741 225.784 74.9899 225.82 75.2482 225.979Z" stroke="#03909F"/>
</g>
<path d="M81.6136 223.756L78.0287 226.207C77.3234 226.689 76.7398 227.329 76.3239 228.075L76.1334 228.417C76.0186 228.623 75.9321 228.844 75.8762 229.073L75.7998 229.386C75.7419 229.624 75.7469 229.872 75.8143 230.108C75.9444 230.561 76.2933 230.919 76.7434 231.061L76.8743 231.103C77.3585 231.256 77.8861 231.179 78.3066 230.894L80.7529 229.238L82.1863 228.258C82.4656 228.067 82.6645 227.78 82.7446 227.451C82.8034 227.21 82.8073 226.793 82.792 226.409C82.7739 225.956 82.667 225.512 82.5135 225.084L82.3368 224.592C82.3183 224.541 82.2942 224.491 82.2651 224.445L81.8366 223.761C81.7919 223.69 81.6921 223.679 81.6333 223.74C81.6273 223.746 81.6207 223.751 81.6136 223.756Z" fill="#038699" stroke="#038699"/>
<path d="M73.0587 225.541L73.0521 225.546C72.9995 225.582 72.9507 225.623 72.9062 225.669C72.7484 225.83 72.6526 226.043 72.6357 226.268L72.5996 226.749V228.472V228.556C72.5996 228.957 72.7355 229.345 72.9851 229.658C73.1008 229.803 73.2387 229.929 73.3936 230.031L74.9025 231.026L75.586 231.376C75.8731 231.523 76.1911 231.6 76.5138 231.6H76.8205C77.0701 231.6 77.3127 231.518 77.5105 231.365C77.7891 231.151 77.9523 230.82 77.9523 230.468V230.082C77.9523 229.945 77.9377 229.809 77.9088 229.676L77.7033 228.728L77.646 228.453C77.5609 228.046 77.3815 227.665 77.1221 227.34C77.012 227.201 76.8883 227.075 76.753 226.961L76.6042 226.836C76.3831 226.651 76.145 226.487 75.8931 226.346L75.5872 226.174L74.7158 225.728L74.0609 225.445C73.7324 225.303 73.3541 225.339 73.0587 225.541Z" fill="#088FA2" stroke="#088FA2"/>
<path d="M82.069 211.621C82.069 211.621 82.5791 210.496 82.567 210.855C82.5453 211.499 82.7374 212.162 82.3349 212.664C82.2046 212.826 82.0534 212.994 81.8823 213.153C81.3346 213.664 81.6126 212.855 81.8201 212.387L82.069 211.621Z" fill="#017A8B" stroke="#017A8B"/>
<path d="M280.1 294.6C279.166 296.743 278.249 297.601 276.273 297.601C274.468 297.601 273.006 296.258 273.006 294.601C273.006 292.944 274.795 291.1 276.6 291.1C278.404 291.1 280.193 292.599 280.1 294.6Z" fill="black" fill-opacity="0.3"/>
<path d="M75.1638 232.045C73.0886 231.509 72.197 230.832 71.9783 229.154C71.7787 227.622 72.8529 226.218 74.3776 226.02C75.9023 225.821 77.7977 227.12 77.9973 228.652C78.197 230.185 77.0158 231.884 75.1638 232.045Z" fill="black" fill-opacity="0.3"/>
<path d="M74.5996 229.1L68.9044 234.226C66.2465 236.618 65.0906 240.261 65.8831 243.747C66.6395 247.076 69.0621 249.777 72.2888 250.889L90.8963 257.306C101.471 260.952 106.071 272.972 105.14 284.119C103.915 298.776 110.117 312.417 137.1 308.1C152.007 305.715 162.747 303.996 170.356 302.779C179.897 301.252 189.06 307.13 191.655 316.438L194.048 325.02C197.662 337.981 213.232 343.182 223.91 334.995L276.6 294.6" stroke="url(#paint5_linear_102_1396)" stroke-width="5" stroke-linecap="round"/>
<defs>
<filter id="filter0_d_102_1396" x="9.72748e-05" y="-2.47955e-05" width="463.2" height="439.2" filterUnits="userSpaceOnUse" color-interpolation-filters="sRGB">
<feFlood flood-opacity="0" result="BackgroundImageFix"/>
<feColorMatrix in="SourceAlpha" type="matrix" values="0 0 0 0 0 0 0 0 0 0 0 0 0 0 0 0 0 0 127 0" result="hardAlpha"/>
<feOffset dy="4"/>
<feGaussianBlur stdDeviation="8.8"/>
<feComposite in2="hardAlpha" operator="out"/>
<feColorMatrix type="matrix" values="0 0 0 0 0 0 0 0 0 0 0 0 0 0 0 0 0 0 0.15 0"/>
<feBlend mode="normal" in2="BackgroundImageFix" result="effect1_dropShadow_102_1396"/>
<feBlend mode="normal" in="SourceGraphic" in2="effect1_dropShadow_102_1396" result="shape"/>
</filter>
<filter id="filter1_i_102_1396" x="227.85" y="171.816" width="175.5" height="162.516" filterUnits="userSpaceOnUse" color-interpolation-filters="sRGB">
<feFlood flood-opacity="0" result="BackgroundImageFix"/>
<feBlend mode="normal" in="SourceGraphic" in2="BackgroundImageFix" result="shape"/>
<feColorMatrix in="SourceAlpha" type="matrix" values="0 0 0 0 0 0 0 0 0 0 0 0 0 0 0 0 0 0 127 0" result="hardAlpha"/>
<feOffset dy="4"/>
<feGaussianBlur stdDeviation="2"/>
<feComposite in2="hardAlpha" operator="arithmetic" k2="-1" k3="1"/>
<feColorMatrix type="matrix" values="0 0 0 0 0 0 0 0 0 0 0 0 0 0 0 0 0 0 0.25 0"/>
<feBlend mode="normal" in2="shape" result="effect1_innerShadow_102_1396"/>
</filter>
<filter id="filter2_d_102_1396" x="270.558" y="223.829" width="38.8037" height="41.4706" filterUnits="userSpaceOnUse" color-interpolation-filters="sRGB">
<feFlood flood-opacity="0" result="BackgroundImageFix"/>
<feColorMatrix in="SourceAlpha" type="matrix" values="0 0 0 0 0 0 0 0 0 0 0 0 0 0 0 0 0 0 127 0" result="hardAlpha"/>
<feOffset dy="4"/>
<feGaussianBlur stdDeviation="2"/>
<feComposite in2="hardAlpha" operator="out"/>
<feColorMatrix type="matrix" values="0 0 0 0 0 0 0 0 0 0 0 0 0 0 0 0 0 0 0.25 0"/>
<feBlend mode="normal" in2="BackgroundImageFix" result="effect1_dropShadow_102_1396"/>
<feBlend mode="normal" in="SourceGraphic" in2="effect1_dropShadow_102_1396" result="shape"/>
</filter>
<filter id="filter3_d_102_1396" x="248.644" y="237.395" width="38.8037" height="41.4706" filterUnits="userSpaceOnUse" color-interpolation-filters="sRGB">
<feFlood flood-opacity="0" result="BackgroundImageFix"/>
<feColorMatrix in="SourceAlpha" type="matrix" values="0 0 0 0 0 0 0 0 0 0 0 0 0 0 0 0 0 0 127 0" result="hardAlpha"/>
<feOffset dy="4"/>
<feGaussianBlur stdDeviation="2"/>
<feComposite in2="hardAlpha" operator="out"/>
<feColorMatrix type="matrix" values="0 0 0 0 0 0 0 0 0 0 0 0 0 0 0 0 0 0 0.25 0"/>
<feBlend mode="normal" in2="BackgroundImageFix" result="effect1_dropShadow_102_1396"/>
<feBlend mode="normal" in="SourceGraphic" in2="effect1_dropShadow_102_1396" result="shape"/>
</filter>
<filter id="filter4_d_102_1396" x="293.349" y="207.551" width="38.8037" height="41.4706" filterUnits="userSpaceOnUse" color-interpolation-filters="sRGB">
<feFlood flood-opacity="0" result="BackgroundImageFix"/>
<feColorMatrix in="SourceAlpha" type="matrix" values="0 0 0 0 0 0 0 0 0 0 0 0 0 0 0 0 0 0 127 0" result="hardAlpha"/>
<feOffset dy="4"/>
<feGaussianBlur stdDeviation="2"/>
<feComposite in2="hardAlpha" operator="out"/>
<feColorMatrix type="matrix" values="0 0 0 0 0 0 0 0 0 0 0 0 0 0 0 0 0 0 0.25 0"/>
<feBlend mode="normal" in2="BackgroundImageFix" result="effect1_dropShadow_102_1396"/>
<feBlend mode="normal" in="SourceGraphic" in2="effect1_dropShadow_102_1396" result="shape"/>
</filter>
<filter id="filter5_d_102_1396" x="336.301" y="234.682" width="38.8037" height="41.4706" filterUnits="userSpaceOnUse" color-interpolation-filters="sRGB">
<feFlood flood-opacity="0" result="BackgroundImageFix"/>
<feColorMatrix in="SourceAlpha" type="matrix" values="0 0 0 0 0 0 0 0 0 0 0 0 0 0 0 0 0 0 127 0" result="hardAlpha"/>
<feOffset dy="4"/>
<feGaussianBlur stdDeviation="2"/>
<feComposite in2="hardAlpha" operator="out"/>
<feColorMatrix type="matrix" values="0 0 0 0 0 0 0 0 0 0 0 0 0 0 0 0 0 0 0.25 0"/>
<feBlend mode="normal" in2="BackgroundImageFix" result="effect1_dropShadow_102_1396"/>
<feBlend mode="normal" in="SourceGraphic" in2="effect1_dropShadow_102_1396" result="shape"/>
</filter>
<filter id="filter6_d_102_1396" x="315.263" y="249.151" width="38.8037" height="41.4706" filterUnits="userSpaceOnUse" color-interpolation-filters="sRGB">
<feFlood flood-opacity="0" result="BackgroundImageFix"/>
<feColorMatrix in="SourceAlpha" type="matrix" values="0 0 0 0 0 0 0 0 0 0 0 0 0 0 0 0 0 0 127 0" result="hardAlpha"/>
<feOffset dy="4"/>
<feGaussianBlur stdDeviation="2"/>
<feComposite in2="hardAlpha" operator="out"/>
<feColorMatrix type="matrix" values="0 0 0 0 0 0 0 0 0 0 0 0 0 0 0 0 0 0 0.25 0"/>
<feBlend mode="normal" in2="BackgroundImageFix" result="effect1_dropShadow_102_1396"/>
<feBlend mode="normal" in="SourceGraphic" in2="effect1_dropShadow_102_1396" result="shape"/>
</filter>
<filter id="filter7_d_102_1396" x="294.226" y="264.525" width="38.8037" height="41.4706" filterUnits="userSpaceOnUse" color-interpolation-filters="sRGB">
<feFlood flood-opacity="0" result="BackgroundImageFix"/>
<feColorMatrix in="SourceAlpha" type="matrix" values="0 0 0 0 0 0 0 0 0 0 0 0 0 0 0 0 0 0 127 0" result="hardAlpha"/>
<feOffset dy="4"/>
<feGaussianBlur stdDeviation="2"/>
<feComposite in2="hardAlpha" operator="out"/>
<feColorMatrix type="matrix" values="0 0 0 0 0 0 0 0 0 0 0 0 0 0 0 0 0 0 0.25 0"/>
<feBlend mode="normal" in2="BackgroundImageFix" result="effect1_dropShadow_102_1396"/>
<feBlend mode="normal" in="SourceGraphic" in2="effect1_dropShadow_102_1396" result="shape"/>
</filter>
<filter id="filter8_i_102_1396" x="50.6455" y="93.9355" width="182" height="158.252" filterUnits="userSpaceOnUse" color-interpolation-filters="sRGB">
<feFlood flood-opacity="0" result="BackgroundImageFix"/>
<feBlend mode="normal" in="SourceGraphic" in2="BackgroundImageFix" result="shape"/>
<feColorMatrix in="SourceAlpha" type="matrix" values="0 0 0 0 0 0 0 0 0 0 0 0 0 0 0 0 0 0 127 0" result="hardAlpha"/>
<feOffset dy="4"/>
<feGaussianBlur stdDeviation="11.05"/>
<feComposite in2="hardAlpha" operator="arithmetic" k2="-1" k3="1"/>
<feColorMatrix type="matrix" values="0 0 0 0 0.0509804 0 0 0 0 0.392157 0 0 0 0 0.6 0 0 0 0.3 0"/>
<feBlend mode="normal" in2="shape" result="effect1_innerShadow_102_1396"/>
</filter>
<filter id="filter9_f_102_1396" x="74.6455" y="159.1" width="118.517" height="53" filterUnits="userSpaceOnUse" color-interpolation-filters="sRGB">
<feFlood flood-opacity="0" result="BackgroundImageFix"/>
<feBlend mode="normal" in="SourceGraphic" in2="BackgroundImageFix" result="shape"/>
<feGaussianBlur stdDeviation="2" result="effect1_foregroundBlur_102_1396"/>
</filter>
<filter id="filter10_i_102_1396" x="221.388" y="134.159" width="30.2114" height="42.9408" filterUnits="userSpaceOnUse" color-interpolation-filters="sRGB">
<feFlood flood-opacity="0" result="BackgroundImageFix"/>
<feBlend mode="normal" in="SourceGraphic" in2="BackgroundImageFix" result="shape"/>
<feColorMatrix in="SourceAlpha" type="matrix" values="0 0 0 0 0 0 0 0 0 0 0 0 0 0 0 0 0 0 127 0" result="hardAlpha"/>
<feOffset dy="4"/>
<feGaussianBlur stdDeviation="2"/>
<feComposite in2="hardAlpha" operator="arithmetic" k2="-1" k3="1"/>
<feColorMatrix type="matrix" values="0 0 0 0 0.32549 0 0 0 0 0.662745 0 0 0 0 0.203922 0 0 0 1 0"/>
<feBlend mode="normal" in2="shape" result="effect1_innerShadow_102_1396"/>
</filter>
<filter id="filter11_i_102_1396" x="325.388" y="278.159" width="30.2114" height="42.9408" filterUnits="userSpaceOnUse" color-interpolation-filters="sRGB">
<feFlood flood-opacity="0" result="BackgroundImageFix"/>
<feBlend mode="normal" in="SourceGraphic" in2="BackgroundImageFix" result="shape"/>
<feColorMatrix in="SourceAlpha" type="matrix" values="0 0 0 0 0 0 0 0 0 0 0 0 0 0 0 0 0 0 127 0" result="hardAlpha"/>
<feOffset dy="4"/>
<feGaussianBlur stdDeviation="2"/>
<feComposite in2="hardAlpha" operator="arithmetic" k2="-1" k3="1"/>
<feColorMatrix type="matrix" values="0 0 0 0 0.32549 0 0 0 0 0.662745 0 0 0 0 0.203922 0 0 0 1 0"/>
<feBlend mode="normal" in2="shape" result="effect1_innerShadow_102_1396"/>
</filter>
<filter id="filter12_i_102_1396" x="51.3882" y="166.159" width="30.2114" height="42.9408" filterUnits="userSpaceOnUse" color-interpolation-filters="sRGB">
<feFlood flood-opacity="0" result="BackgroundImageFix"/>
<feBlend mode="normal" in="SourceGraphic" in2="BackgroundImageFix" result="shape"/>
<feColorMatrix in="SourceAlpha" type="matrix" values="0 0 0 0 0 0 0 0 0 0 0 0 0 0 0 0 0 0 127 0" result="hardAlpha"/>
<feOffset dy="4"/>
<feGaussianBlur stdDeviation="2"/>
<feComposite in2="hardAlpha" operator="arithmetic" k2="-1" k3="1"/>
<feColorMatrix type="matrix" values="0 0 0 0 0.32549 0 0 0 0 0.662745 0 0 0 0 0.203922 0 0 0 1 0"/>
<feBlend mode="normal" in2="shape" result="effect1_innerShadow_102_1396"/>
</filter>
<filter id="filter13_d_102_1396" x="46.8413" y="129.1" width="28.8179" height="36.3179" filterUnits="userSpaceOnUse" color-interpolation-filters="sRGB">
<feFlood flood-opacity="0" result="BackgroundImageFix"/>
<feColorMatrix in="SourceAlpha" type="matrix" values="0 0 0 0 0 0 0 0 0 0 0 0 0 0 0 0 0 0 127 0" result="hardAlpha"/>
<feOffset dy="4"/>
<feGaussianBlur stdDeviation="2"/>
<feComposite in2="hardAlpha" operator="out"/>
<feColorMatrix type="matrix" values="0 0 0 0 1 0 0 0 0 0.906397 0 0 0 0 0.628934 0 0 0 1 0"/>
<feBlend mode="normal" in2="BackgroundImageFix" result="effect1_dropShadow_102_1396"/>
<feBlend mode="normal" in="SourceGraphic" in2="effect1_dropShadow_102_1396" result="shape"/>
</filter>
<filter id="filter14_d_102_1396" x="253.841" y="135.1" width="28.8179" height="36.3179" filterUnits="userSpaceOnUse" color-interpolation-filters="sRGB">
<feFlood flood-opacity="0" result="BackgroundImageFix"/>
<feColorMatrix in="SourceAlpha" type="matrix" values="0 0 0 0 0 0 0 0 0 0 0 0 0 0 0 0 0 0 127 0" result="hardAlpha"/>
<feOffset dy="4"/>
<feGaussianBlur stdDeviation="2"/>
<feComposite in2="hardAlpha" operator="out"/>
<feColorMatrix type="matrix" values="0 0 0 0 1 0 0 0 0 0.906397 0 0 0 0 0.628934 0 0 0 1 0"/>
<feBlend mode="normal" in2="BackgroundImageFix" result="effect1_dropShadow_102_1396"/>
<feBlend mode="normal" in="SourceGraphic" in2="effect1_dropShadow_102_1396" result="shape"/>
</filter>
<filter id="filter15_d_102_1396" x="393.841" y="251.1" width="28.8179" height="36.3179" filterUnits="userSpaceOnUse" color-interpolation-filters="sRGB">
<feFlood flood-opacity="0" result="BackgroundImageFix"/>
<feColorMatrix in="SourceAlpha" type="matrix" values="0 0 0 0 0 0 0 0 0 0 0 0 0 0 0 0 0 0 127 0" result="hardAlpha"/>
<feOffset dy="4"/>
<feGaussianBlur stdDeviation="2"/>
<feComposite in2="hardAlpha" operator="out"/>
<feColorMatrix type="matrix" values="0 0 0 0 1 0 0 0 0 0.906397 0 0 0 0 0.628934 0 0 0 1 0"/>
<feBlend mode="normal" in2="BackgroundImageFix" result="effect1_dropShadow_102_1396"/>
<feBlend mode="normal" in="SourceGraphic" in2="effect1_dropShadow_102_1396" result="shape"/>
</filter>
<filter id="filter16_d_102_1396" x="167.831" y="204.1" width="24.8511" height="29.8241" filterUnits="userSpaceOnUse" color-interpolation-filters="sRGB">
<feFlood flood-opacity="0" result="BackgroundImageFix"/>
<feColorMatrix in="SourceAlpha" type="matrix" values="0 0 0 0 0 0 0 0 0 0 0 0 0 0 0 0 0 0 127 0" result="hardAlpha"/>
<feOffset dy="4"/>
<feGaussianBlur stdDeviation="2"/>
<feComposite in2="hardAlpha" operator="out"/>
<feColorMatrix type="matrix" values="0 0 0 0 1 0 0 0 0 0.906397 0 0 0 0 0.628934 0 0 0 1 0"/>
<feBlend mode="normal" in2="BackgroundImageFix" result="effect1_dropShadow_102_1396"/>
<feBlend mode="normal" in="SourceGraphic" in2="effect1_dropShadow_102_1396" result="shape"/>
</filter>
<filter id="filter17_d_102_1396" x="68.2896" y="221.648" width="16.7085" height="13.6266" filterUnits="userSpaceOnUse" color-interpolation-filters="sRGB">
<feFlood flood-opacity="0" result="BackgroundImageFix"/>
<feColorMatrix in="SourceAlpha" type="matrix" values="0 0 0 0 0 0 0 0 0 0 0 0 0 0 0 0 0 0 127 0" result="hardAlpha"/>
<feOffset dy="4"/>
<feGaussianBlur stdDeviation="2"/>
<feComposite in2="hardAlpha" operator="out"/>
<feColorMatrix type="matrix" values="0 0 0 0 0 0 0 0 0 0 0 0 0 0 0 0 0 0 0.25 0"/>
<feBlend mode="normal" in2="BackgroundImageFix" result="effect1_dropShadow_102_1396"/>
<feBlend mode="normal" in="SourceGraphic" in2="effect1_dropShadow_102_1396" result="shape"/>
</filter>
<linearGradient id="paint0_linear_102_1396" x1="231.6" y1="13.6" x2="231.6" y2="417.6" gradientUnits="userSpaceOnUse">
<stop offset="0.528846" stop-color="white"/>
<stop offset="1" stop-color="#088FA2" stop-opacity="0.1"/>
</linearGradient>
<linearGradient id="paint1_linear_102_1396" x1="61.0996" y1="129.6" x2="61.0996" y2="157.1" gradientUnits="userSpaceOnUse">
<stop stop-color="#FFE7A0"/>
<stop offset="0.6875" stop-color="#F5B700"/>
</linearGradient>
<linearGradient id="paint2_linear_102_1396" x1="268.1" y1="135.6" x2="268.1" y2="163.1" gradientUnits="userSpaceOnUse">
<stop stop-color="#FFE7A0"/>
<stop offset="0.6875" stop-color="#F5B700"/>
</linearGradient>
<linearGradient id="paint3_linear_102_1396" x1="408.1" y1="251.6" x2="408.1" y2="279.1" gradientUnits="userSpaceOnUse">
<stop stop-color="#FFE7A0"/>
<stop offset="0.6875" stop-color="#F5B700"/>
</linearGradient>
<linearGradient id="paint4_linear_102_1396" x1="180.1" y1="204.6" x2="180.1" y2="225.6" gradientUnits="userSpaceOnUse">
<stop stop-color="#FFE7A0"/>
<stop offset="0.6875" stop-color="#F5B700"/>
</linearGradient>
<linearGradient id="paint5_linear_102_1396" x1="171.85" y1="214.1" x2="96.0996" y2="345.1" gradientUnits="userSpaceOnUse">
<stop offset="0.182692" stop-color="white"/>
<stop offset="0.850962" stop-color="#F1BA4D"/>
</linearGradient>
</defs>
</svg>
