<svg width="758" height="492" viewBox="0 0 758 492" fill="none" xmlns="http://www.w3.org/2000/svg">
<g filter="url(#filter0_d_172_2375)">
<path d="M17.6001 13.6001H739.6V397.6C739.6 408.646 730.646 417.6 719.6 417.6H37.6001C26.5544 417.6 17.6001 408.646 17.6001 397.6V13.6001Z" fill="url(#paint0_linear_172_2375)" shape-rendering="crispEdges"/>
</g>
<path fill-rule="evenodd" clip-rule="evenodd" d="M324.439 156.153C306.827 140.594 365.833 112.03 365.833 112.03C369.463 112.03 376.724 112.03 383.984 103.902C391.245 96.9353 397.9 81.8405 405.16 81.8405C412.421 81.8405 419.681 96.9353 426.941 96.9353C434.202 96.9353 441.462 81.8405 448.723 71.3902C455.983 62.1011 462.638 57.4565 469.899 64.4234C477.159 71.3902 484.419 92.2907 491.68 101.58C498.94 112.03 506.201 112.03 513.461 99.2576C520.721 86.485 527.377 62.1011 534.637 44.684C541.898 27.2669 549.158 17.9778 556.418 27.2669C563.679 37.7172 570.939 66.7457 578.199 74.8736C585.46 81.8405 611.34 71.9224 618.6 69.6001C641.665 62.2225 654.319 107.701 676.6 111.6C716.6 118.6 740.1 156.153 740.1 156.153H596.157C592.527 156.153 603.418 156.153 596.157 156.153C588.897 156.153 585.46 156.153 578.199 156.153C570.939 156.153 563.679 156.153 556.418 156.153C549.158 156.153 541.898 156.153 534.637 156.153C527.377 156.153 520.721 156.153 513.461 156.153C506.201 156.153 498.94 156.153 491.68 156.153C484.419 156.153 477.159 156.153 469.899 156.153C462.638 156.153 455.983 156.153 448.723 156.153C441.462 156.153 434.202 156.153 426.941 156.153C419.681 156.153 412.421 156.153 405.16 156.153C397.9 156.153 391.245 156.153 383.984 156.153C376.724 156.153 369.463 156.153 365.833 156.153H362.203C362.203 156.153 335.764 166.159 324.439 156.153Z" fill="#088FA2" fill-opacity="0.11"/>
<path fill-rule="evenodd" clip-rule="evenodd" d="M431.261 157.153C448.873 141.594 389.867 113.03 389.867 113.03C386.237 113.03 378.976 113.03 371.716 104.902C364.456 97.9353 357.8 82.8405 350.54 82.8405C343.28 82.8405 336.019 97.9353 328.759 97.9353C321.498 97.9353 314.238 82.8405 306.978 72.3902C299.717 63.1011 293.062 58.4565 285.801 65.4234C278.541 72.3902 271.281 93.2907 264.02 102.58C256.76 113.03 249.5 113.03 242.239 100.258C234.979 87.485 228.323 63.1011 221.063 45.684C213.803 28.2669 206.542 18.9778 199.282 28.2669C192.022 38.7172 184.761 67.7457 177.501 75.8736C170.24 82.8405 144.36 72.9224 137.1 70.6001C114.035 63.2225 101.381 108.701 79.1001 112.6C39.1001 119.6 15.6001 157.153 15.6001 157.153H159.543C163.173 157.153 152.283 157.153 159.543 157.153C166.803 157.153 170.24 157.153 177.501 157.153C184.761 157.153 192.022 157.153 199.282 157.153C206.542 157.153 213.803 157.153 221.063 157.153C228.323 157.153 234.979 157.153 242.239 157.153C249.5 157.153 256.76 157.153 264.02 157.153C271.281 157.153 278.541 157.153 285.801 157.153C293.062 157.153 299.717 157.153 306.978 157.153C314.238 157.153 321.498 157.153 328.759 157.153C336.019 157.153 343.28 157.153 350.54 157.153C357.8 157.153 364.456 157.153 371.716 157.153C378.976 157.153 386.237 157.153 389.867 157.153H393.497C393.497 157.153 419.937 167.159 431.261 157.153Z" fill="#088FA2" fill-opacity="0.11"/>
<path d="M130.074 305.456C111.572 291.159 102.415 279.197 98.0972 269.293C91.8585 254.982 115.468 222.586 130.074 217.074C130.074 217.074 320.153 165.162 421.381 217.074C483.355 248.855 588.979 296.51 638.071 318.418C652.856 325.016 659.814 342.115 653.77 357.135L617.943 446.16C571.277 562.117 528.147 414.342 436.936 446.16C301.604 493.369 242.496 464.543 237.547 434.14C215.723 300.084 192.295 353.536 130.074 305.456Z" fill="#088FA2" fill-opacity="0.2"/>
<path d="M368.013 333.918C378.102 324.009 384.275 324.019 384.275 324.019C384.275 324.019 705.279 270.99 622.553 338.867C539.828 406.745 519.323 468.966 497.404 453.41C475.486 437.855 328.418 372.806 368.013 333.918Z" fill="#039CB0" fill-opacity="0.3"/>
<g filter="url(#filter1_i_172_2375)">
<path d="M389.425 270.536L384.466 267.979L482.393 205.315L597.053 279.488L503.465 342.152L497.887 338.955L590.855 279.488L482.393 211.07L389.425 270.536Z" stroke="#038699" stroke-width="3"/>
<path d="M498.453 404.142L368.489 323.054C368.426 323.015 368.426 322.923 368.489 322.884L485.44 250.746C485.472 250.726 485.512 250.726 485.544 250.745L613.652 328.002C613.715 328.04 613.717 328.131 613.655 328.171L498.561 404.14C498.528 404.162 498.486 404.162 498.453 404.142Z" fill="#026B79"/>
<path d="M588.329 278.18L481.925 213.081C481.859 213.04 481.773 213.088 481.773 213.166V265.365C481.773 265.4 481.791 265.432 481.82 265.45L588.224 331.187C588.29 331.228 588.376 331.181 588.376 331.102V278.265C588.376 278.231 588.358 278.198 588.329 278.18Z" fill="#00A2B7" stroke="#039CB0" stroke-width="1.5"/>
<path d="M388.805 320.87V270.592C388.805 270.557 388.823 270.525 388.852 270.507L482.24 213.082C482.307 213.041 482.393 213.089 482.393 213.167V262.168C482.393 262.203 482.375 262.235 482.346 262.253L388.958 320.954C388.891 320.996 388.805 320.948 388.805 320.87Z" fill="#0D6499" stroke="#0D6499" stroke-width="1.5"/>
<g filter="url(#filter2_d_172_2375)">
<path d="M448.304 277.118V288.387C448.304 288.42 448.321 288.451 448.349 288.47L458.685 295.37C458.752 295.415 458.841 295.367 458.841 295.287V284.018C458.841 283.984 458.824 283.953 458.796 283.935L448.46 277.034C448.393 276.99 448.304 277.038 448.304 277.118Z" fill="#088FA2" stroke="#017A8B"/>
<path d="M466.278 289.245V299.344C466.278 299.378 466.296 299.41 466.325 299.428L476.041 305.607C476.108 305.649 476.195 305.602 476.195 305.523V294.3C476.195 294.263 476.174 294.229 476.141 294.211L466.424 289.156C466.358 289.121 466.278 289.17 466.278 289.245Z" fill="#088FA2" stroke="#017A8B"/>
<path d="M434.049 303.688V295.027C434.049 294.947 434.14 294.897 434.206 294.942L435.865 296.084C435.892 296.102 435.909 296.133 435.909 296.166V303.686C435.909 303.742 435.864 303.786 435.809 303.786H434.149C434.094 303.786 434.049 303.743 434.049 303.688Z" fill="#C89665" stroke="#C89665"/>
<path d="M476.049 305.78L475.02 306.311C474.982 306.331 474.96 306.373 474.967 306.416L475.996 312.787C476.016 312.909 476.195 312.894 476.195 312.771V305.869C476.195 305.794 476.116 305.746 476.049 305.78Z" stroke="#017A8B" stroke-width="0.5"/>
<path d="M466.278 320.248V314.08C466.278 314.042 466.299 314.007 466.332 313.989L467.372 313.453C467.439 313.419 467.518 313.467 467.518 313.542V319.711C467.518 319.749 467.497 319.783 467.464 319.8L466.424 320.336C466.358 320.371 466.278 320.323 466.278 320.248Z" fill="#017A8B" stroke="#017A8B" stroke-width="0.5"/>
<path d="M455.123 313.854V307.685C455.123 307.648 455.143 307.612 455.177 307.595L456.216 307.059C456.283 307.025 456.362 307.073 456.362 307.148V313.317C456.362 313.354 456.341 313.389 456.308 313.406L455.268 313.942C455.202 313.976 455.123 313.929 455.123 313.854Z" fill="#017A8B" stroke="#017A8B" stroke-width="0.5"/>
<path d="M445.206 307.46V301.291C445.206 301.254 445.226 301.218 445.26 301.201L446.299 300.665C446.366 300.63 446.445 300.679 446.445 300.753V306.923C446.445 306.96 446.424 306.994 446.391 307.012L445.351 307.548C445.285 307.582 445.206 307.535 445.206 307.46Z" fill="#017A8B" stroke="#017A8B" stroke-width="0.5"/>
<path d="M437.768 303.623V297.454C437.768 297.417 437.789 297.381 437.822 297.364L438.862 296.828C438.928 296.794 439.008 296.842 439.008 296.917V303.086C439.008 303.123 438.987 303.158 438.953 303.175L437.914 303.711C437.847 303.745 437.768 303.698 437.768 303.623Z" fill="#017A8B" stroke="#017A8B" stroke-width="0.5"/>
<path d="M473.716 313.919V305.848C473.716 305.779 473.783 305.728 473.848 305.75L475.508 306.321C475.548 306.335 475.575 306.373 475.575 306.416V313.917C475.575 313.973 475.53 314.017 475.475 314.017H473.816C473.761 314.017 473.716 313.974 473.716 313.919Z" fill="#C89665" stroke="#C89665"/>
<path d="M463.18 322.871V314.799C463.18 314.731 463.247 314.68 463.312 314.702L464.972 315.273C465.012 315.287 465.039 315.325 465.039 315.368V322.869C465.039 322.924 464.994 322.969 464.939 322.969H463.28C463.224 322.969 463.18 322.926 463.18 322.871Z" fill="#C89665" stroke="#C89665"/>
<path d="M434.17 294.751L445.149 287.2C445.183 287.177 445.226 287.175 445.26 287.198C454.952 293.725 473.804 305.728 475.459 306.335C475.535 306.306 475.575 306.307 475.575 306.344C475.575 306.367 475.535 306.363 475.459 306.335C474.479 306.713 467.572 312.26 464.476 315.241C464.442 315.274 464.391 315.277 464.352 315.251L434.171 294.917C434.113 294.877 434.112 294.791 434.17 294.751Z" fill="#F1BA4D"/>
<path d="M475.575 306.344C475.575 305.835 467.813 312.028 464.476 315.241C464.442 315.274 464.391 315.277 464.352 315.251L434.171 294.917C434.113 294.877 434.112 294.791 434.17 294.751L445.149 287.2C445.183 287.177 445.226 287.175 445.26 287.198C455.402 294.028 475.575 306.855 475.575 306.344Z" stroke="#F1BA4D"/>
</g>
<g filter="url(#filter3_d_172_2375)">
<path d="M417.315 296.3V307.569C417.315 307.603 417.332 307.634 417.359 307.653L427.696 314.553C427.762 314.597 427.851 314.549 427.851 314.47V303.2C427.851 303.167 427.835 303.136 427.807 303.117L417.47 296.217C417.404 296.173 417.315 296.22 417.315 296.3Z" fill="#088FA2" stroke="#017A8B"/>
<path d="M435.289 308.427V318.527C435.289 318.561 435.306 318.593 435.335 318.611L445.052 324.79C445.118 324.832 445.205 324.784 445.205 324.705V313.483C445.205 313.445 445.184 313.411 445.151 313.394L435.435 308.338C435.368 308.304 435.289 308.352 435.289 308.427Z" fill="#088FA2" stroke="#017A8B"/>
<path d="M403.06 322.87V314.21C403.06 314.129 403.15 314.079 403.217 314.125L404.876 315.266C404.903 315.285 404.919 315.316 404.919 315.349V322.869C404.919 322.924 404.875 322.969 404.819 322.969H403.16C403.105 322.969 403.06 322.926 403.06 322.87Z" fill="#C89665" stroke="#C89665"/>
<path d="M445.059 324.963L444.03 325.493C443.992 325.513 443.97 325.556 443.977 325.598L445.006 331.97C445.026 332.091 445.205 332.077 445.205 331.954V325.052C445.205 324.977 445.126 324.928 445.059 324.963Z" stroke="#017A8B" stroke-width="0.5"/>
<path d="M435.289 339.431V333.262C435.289 333.225 435.309 333.189 435.343 333.172L436.382 332.636C436.449 332.601 436.528 332.65 436.528 332.725V338.894C436.528 338.931 436.507 338.966 436.474 338.983L435.434 339.519C435.368 339.553 435.289 339.506 435.289 339.431Z" fill="#017A8B" stroke="#017A8B" stroke-width="0.5"/>
<path d="M424.133 333.037V326.868C424.133 326.83 424.154 326.795 424.187 326.778L425.227 326.241C425.293 326.207 425.372 326.255 425.372 326.33V332.5C425.372 332.537 425.351 332.571 425.318 332.588L424.279 333.125C424.212 333.159 424.133 333.112 424.133 333.037Z" fill="#017A8B" stroke="#017A8B" stroke-width="0.5"/>
<path d="M414.216 326.642V320.474C414.216 320.436 414.237 320.401 414.27 320.383L415.31 319.847C415.376 319.813 415.455 319.861 415.455 319.936V326.105C415.455 326.143 415.434 326.177 415.401 326.194L414.362 326.73C414.295 326.765 414.216 326.717 414.216 326.642Z" fill="#017A8B" stroke="#017A8B" stroke-width="0.5"/>
<path d="M406.778 322.806V316.637C406.778 316.6 406.799 316.564 406.832 316.547L407.872 316.011C407.939 315.976 408.018 316.025 408.018 316.099V322.269C408.018 322.306 407.997 322.34 407.964 322.357L406.924 322.894C406.858 322.928 406.778 322.881 406.778 322.806Z" fill="#017A8B" stroke="#017A8B" stroke-width="0.5"/>
<path d="M442.726 333.101V325.03C442.726 324.962 442.794 324.911 442.859 324.933L444.518 325.504C444.558 325.518 444.585 325.556 444.585 325.598V333.1C444.585 333.155 444.541 333.2 444.485 333.2H442.826C442.771 333.2 442.726 333.157 442.726 333.101Z" fill="#C89665" stroke="#C89665"/>
<path d="M432.19 342.053V333.982C432.19 333.913 432.258 333.863 432.322 333.885L433.982 334.456C434.022 334.469 434.049 334.507 434.049 334.55V342.052C434.049 342.107 434.005 342.152 433.949 342.152H432.29C432.235 342.152 432.19 342.108 432.19 342.053Z" fill="#C89665" stroke="#C89665"/>
<path d="M403.181 313.934L414.16 306.383C414.194 306.359 414.237 306.358 414.271 306.381C423.962 312.908 442.815 324.911 444.469 325.518C444.545 325.488 444.586 325.49 444.586 325.527C444.586 325.549 444.546 325.546 444.469 325.518C443.489 325.896 436.583 331.442 433.486 334.424C433.452 334.457 433.402 334.46 433.362 334.433L403.182 314.099C403.123 314.06 403.123 313.974 403.181 313.934Z" fill="#F1BA4D"/>
<path d="M444.586 325.527C444.586 325.018 436.824 331.211 433.486 334.424C433.452 334.457 433.402 334.46 433.362 334.433L403.182 314.099C403.123 314.06 403.123 313.974 403.181 313.934L414.16 306.383C414.194 306.359 414.237 306.358 414.271 306.381C424.412 313.211 444.586 326.037 444.586 325.527Z" stroke="#F1BA4D"/>
</g>
<path d="M382.955 268.211C383.645 268.625 385.404 269.482 388.622 269.875C388.724 269.888 388.803 269.976 388.801 270.079L387.574 322.573C387.571 322.737 387.382 322.827 387.252 322.727L382.685 319.193C382.636 319.155 382.607 319.096 382.607 319.034V268.398C382.607 268.23 382.811 268.124 382.955 268.211Z" fill="#038699" stroke="#038699"/>
<g filter="url(#filter4_d_172_2375)">
<path d="M480.534 254.098V265.367C480.534 265.401 480.55 265.432 480.578 265.45L490.915 272.351C490.981 272.395 491.07 272.347 491.07 272.267V260.998C491.07 260.965 491.053 260.934 491.026 260.915L480.689 254.015C480.623 253.971 480.534 254.018 480.534 254.098Z" fill="#088FA2" stroke="#017A8B"/>
<path d="M498.508 266.225V276.324C498.508 276.359 498.525 276.39 498.554 276.409L508.271 282.588C508.337 282.63 508.424 282.582 508.424 282.503V271.28C508.424 271.243 508.404 271.209 508.371 271.192L498.654 266.136C498.587 266.102 498.508 266.15 498.508 266.225Z" fill="#088FA2" stroke="#017A8B"/>
<path d="M466.278 280.668V272.008C466.278 271.928 466.369 271.877 466.435 271.923L468.094 273.064C468.121 273.083 468.138 273.114 468.138 273.147V280.667C468.138 280.722 468.093 280.767 468.038 280.767H466.378C466.323 280.767 466.278 280.724 466.278 280.668Z" fill="#C89665" stroke="#C89665"/>
<path d="M508.279 282.761L507.25 283.292C507.212 283.311 507.19 283.354 507.197 283.397L508.226 289.768C508.246 289.889 508.425 289.875 508.425 289.752V282.85C508.425 282.775 508.346 282.726 508.279 282.761Z" stroke="#017A8B" stroke-width="0.5"/>
<path d="M498.508 297.229V291.06C498.508 291.023 498.529 290.987 498.562 290.97L499.602 290.434C499.668 290.4 499.747 290.448 499.747 290.523V296.692C499.747 296.729 499.726 296.764 499.693 296.781L498.654 297.317C498.587 297.351 498.508 297.304 498.508 297.229Z" fill="#017A8B" stroke="#017A8B" stroke-width="0.5"/>
<path d="M487.351 290.835V284.666C487.351 284.629 487.372 284.593 487.405 284.576L488.445 284.04C488.511 284.005 488.591 284.054 488.591 284.128V290.298C488.591 290.335 488.57 290.369 488.536 290.387L487.497 290.923C487.43 290.957 487.351 290.91 487.351 290.835Z" fill="#017A8B" stroke="#017A8B" stroke-width="0.5"/>
<path d="M477.435 284.441V278.272C477.435 278.234 477.455 278.199 477.489 278.182L478.528 277.645C478.595 277.611 478.674 277.659 478.674 277.734V283.903C478.674 283.941 478.653 283.975 478.62 283.992L477.58 284.529C477.514 284.563 477.435 284.515 477.435 284.441Z" fill="#017A8B" stroke="#017A8B" stroke-width="0.5"/>
<path d="M469.998 280.604V274.435C469.998 274.397 470.018 274.362 470.052 274.345L471.091 273.808C471.158 273.774 471.237 273.822 471.237 273.897V280.066C471.237 280.104 471.216 280.138 471.183 280.155L470.143 280.692C470.077 280.726 469.998 280.678 469.998 280.604Z" fill="#017A8B" stroke="#017A8B" stroke-width="0.5"/>
<path d="M505.944 290.899V282.828C505.944 282.76 506.012 282.709 506.077 282.731L507.736 283.302C507.777 283.316 507.804 283.354 507.804 283.396V290.898C507.804 290.953 507.759 290.998 507.704 290.998H506.044C505.989 290.998 505.944 290.955 505.944 290.899Z" fill="#C89665" stroke="#C89665"/>
<path d="M495.409 299.851V291.78C495.409 291.711 495.476 291.66 495.541 291.683L497.201 292.253C497.241 292.267 497.268 292.305 497.268 292.348V299.85C497.268 299.905 497.223 299.95 497.168 299.95H495.509C495.453 299.95 495.409 299.906 495.409 299.851Z" fill="#C89665" stroke="#C89665"/>
<path d="M466.399 271.732L477.378 264.181C477.412 264.157 477.455 264.156 477.489 264.179C487.181 270.706 506.033 282.709 507.688 283.316C507.764 283.286 507.804 283.288 507.804 283.325C507.804 283.347 507.764 283.344 507.688 283.316C506.708 283.694 499.801 289.241 496.705 292.222C496.671 292.255 496.62 292.258 496.581 292.231L466.4 271.897C466.342 271.858 466.341 271.772 466.399 271.732Z" fill="#F1BA4D"/>
<path d="M507.804 283.325C507.804 282.816 500.042 289.009 496.705 292.222C496.671 292.255 496.62 292.258 496.581 292.231L466.4 271.897C466.342 271.858 466.341 271.772 466.399 271.732L477.378 264.181C477.412 264.157 477.455 264.156 477.489 264.179C487.631 271.009 507.804 283.835 507.804 283.325Z" stroke="#F1BA4D"/>
</g>
<g filter="url(#filter5_d_172_2375)">
<path d="M541.272 292.464V303.733C541.272 303.766 541.289 303.797 541.317 303.816L551.653 310.716C551.72 310.76 551.809 310.713 551.809 310.633V299.364C551.809 299.33 551.792 299.299 551.764 299.281L541.428 292.38C541.362 292.336 541.272 292.384 541.272 292.464Z" fill="#088FA2" stroke="#017A8B"/>
<path d="M559.247 304.59V314.69C559.247 314.724 559.264 314.756 559.293 314.774L569.01 320.953C569.076 320.995 569.163 320.947 569.163 320.868V309.646C569.163 309.608 569.142 309.574 569.109 309.557L559.393 304.502C559.326 304.467 559.247 304.515 559.247 304.59Z" fill="#088FA2" stroke="#017A8B"/>
<path d="M527.018 319.034V310.373C527.018 310.293 527.108 310.243 527.174 310.288L528.834 311.429C528.861 311.448 528.877 311.479 528.877 311.512V319.032C528.877 319.088 528.832 319.132 528.777 319.132H527.118C527.062 319.132 527.018 319.089 527.018 319.034Z" fill="#C89665" stroke="#C89665"/>
<path d="M569.018 321.126L567.989 321.657C567.95 321.677 567.928 321.719 567.935 321.762L568.965 328.133C568.984 328.255 569.163 328.24 569.163 328.117V321.215C569.163 321.14 569.084 321.092 569.018 321.126Z" stroke="#017A8B" stroke-width="0.5"/>
<path d="M559.247 335.594V329.425C559.247 329.388 559.267 329.353 559.301 329.335L560.34 328.799C560.407 328.765 560.486 328.813 560.486 328.888V335.057C560.486 335.095 560.465 335.129 560.432 335.146L559.392 335.682C559.326 335.717 559.247 335.669 559.247 335.594Z" fill="#017A8B" stroke="#017A8B" stroke-width="0.5"/>
<path d="M548.091 329.2V323.031C548.091 322.994 548.112 322.958 548.145 322.941L549.185 322.405C549.251 322.37 549.33 322.419 549.33 322.494V328.663C549.33 328.7 549.309 328.735 549.276 328.752L548.237 329.288C548.17 329.322 548.091 329.275 548.091 329.2Z" fill="#017A8B" stroke="#017A8B" stroke-width="0.5"/>
<path d="M538.174 322.806V316.637C538.174 316.6 538.195 316.564 538.228 316.547L539.268 316.011C539.334 315.976 539.413 316.025 539.413 316.099V322.269C539.413 322.306 539.393 322.34 539.359 322.357L538.32 322.894C538.253 322.928 538.174 322.881 538.174 322.806Z" fill="#017A8B" stroke="#017A8B" stroke-width="0.5"/>
<path d="M530.736 318.969V312.8C530.736 312.763 530.757 312.727 530.79 312.71L531.83 312.174C531.897 312.14 531.976 312.188 531.976 312.263V318.432C531.976 318.469 531.955 318.504 531.922 318.521L530.882 319.057C530.816 319.091 530.736 319.044 530.736 318.969Z" fill="#017A8B" stroke="#017A8B" stroke-width="0.5"/>
<path d="M566.684 329.265V321.193C566.684 321.125 566.752 321.074 566.817 321.096L568.476 321.667C568.516 321.681 568.543 321.719 568.543 321.762V329.263C568.543 329.319 568.499 329.363 568.443 329.363H566.784C566.729 329.363 566.684 329.32 566.684 329.265Z" fill="#C89665" stroke="#C89665"/>
<path d="M556.148 338.216V330.145C556.148 330.076 556.216 330.026 556.28 330.048L557.94 330.619C557.98 330.633 558.007 330.671 558.007 330.713V338.215C558.007 338.27 557.963 338.315 557.907 338.315H556.248C556.193 338.315 556.148 338.272 556.148 338.216Z" fill="#C89665" stroke="#C89665"/>
<path d="M527.139 310.097L538.118 302.546C538.152 302.523 538.195 302.522 538.229 302.545C547.92 309.071 566.773 321.074 568.427 321.681C568.503 321.652 568.543 321.654 568.543 321.69C568.543 321.713 568.504 321.709 568.427 321.681C567.447 322.059 560.541 327.606 557.444 330.588C557.41 330.62 557.359 330.623 557.32 330.597L527.139 310.263C527.081 310.223 527.081 310.137 527.139 310.097Z" fill="#F1BA4D"/>
<path d="M568.543 321.69C568.543 321.182 560.781 327.374 557.444 330.588C557.41 330.62 557.359 330.623 557.32 330.597L527.139 310.263C527.081 310.223 527.081 310.137 527.139 310.097L538.118 302.546C538.152 302.523 538.195 302.522 538.229 302.545C548.37 309.375 568.543 322.201 568.543 321.69Z" stroke="#C89665"/>
</g>
<g filter="url(#filter6_d_172_2375)">
<path d="M511.522 312.925V324.194C511.522 324.228 511.539 324.259 511.567 324.277L521.903 331.178C521.97 331.222 522.059 331.174 522.059 331.094V319.825C522.059 319.792 522.042 319.761 522.014 319.742L511.678 312.842C511.612 312.797 511.522 312.845 511.522 312.925Z" fill="#088FA2" stroke="#017A8B"/>
<path d="M529.497 325.052V335.151C529.497 335.185 529.514 335.217 529.543 335.236L539.26 341.415C539.326 341.457 539.413 341.409 539.413 341.33V330.107C539.413 330.07 539.392 330.036 539.359 330.019L529.643 324.963C529.576 324.929 529.497 324.977 529.497 325.052Z" fill="#088FA2" stroke="#017A8B"/>
<path d="M497.267 339.495V330.835C497.267 330.754 497.357 330.704 497.424 330.75L499.083 331.891C499.11 331.91 499.126 331.941 499.126 331.974V339.494C499.126 339.549 499.082 339.594 499.026 339.594H497.367C497.312 339.594 497.267 339.551 497.267 339.495Z" fill="#C89665" stroke="#C89665"/>
<path d="M539.267 341.587L538.238 342.118C538.199 342.138 538.178 342.181 538.184 342.223L539.214 348.595C539.233 348.716 539.412 348.702 539.412 348.579V341.676C539.412 341.601 539.333 341.553 539.267 341.587Z" stroke="#017A8B" stroke-width="0.5"/>
<path d="M529.497 356.056V349.887C529.497 349.85 529.517 349.814 529.551 349.797L530.59 349.261C530.657 349.226 530.736 349.275 530.736 349.349V355.519C530.736 355.556 530.715 355.59 530.682 355.607L529.642 356.144C529.576 356.178 529.497 356.131 529.497 356.056Z" fill="#017A8B" stroke="#017A8B" stroke-width="0.5"/>
<path d="M518.34 349.661V343.493C518.34 343.455 518.361 343.42 518.394 343.403L519.434 342.866C519.501 342.832 519.58 342.88 519.58 342.955V349.124C519.58 349.162 519.559 349.196 519.526 349.213L518.486 349.749C518.42 349.784 518.34 349.736 518.34 349.661Z" fill="#017A8B" stroke="#017A8B" stroke-width="0.5"/>
<path d="M508.424 343.267V337.098C508.424 337.061 508.445 337.025 508.478 337.008L509.518 336.472C509.584 336.438 509.663 336.486 509.663 336.561V342.73C509.663 342.767 509.643 342.802 509.609 342.819L508.57 343.355C508.503 343.389 508.424 343.342 508.424 343.267Z" fill="#017A8B" stroke="#017A8B" stroke-width="0.5"/>
<path d="M500.985 339.43V333.262C500.985 333.224 501.006 333.189 501.04 333.172L502.079 332.635C502.146 332.601 502.225 332.649 502.225 332.724V338.893C502.225 338.931 502.204 338.965 502.171 338.982L501.131 339.518C501.065 339.553 500.985 339.505 500.985 339.43Z" fill="#017A8B" stroke="#017A8B" stroke-width="0.5"/>
<path d="M536.934 349.726V341.655C536.934 341.586 537.001 341.535 537.066 341.558L538.725 342.128C538.766 342.142 538.793 342.18 538.793 342.223V349.725C538.793 349.78 538.748 349.825 538.693 349.825H537.034C536.978 349.825 536.934 349.781 536.934 349.726Z" fill="#C89665" stroke="#C89665"/>
<path d="M526.397 358.678V350.607C526.397 350.538 526.465 350.487 526.53 350.51L528.189 351.08C528.23 351.094 528.257 351.132 528.257 351.175V358.677C528.257 358.732 528.212 358.777 528.157 358.777H526.497C526.442 358.777 526.397 358.733 526.397 358.678Z" fill="#C89665" stroke="#C89665"/>
<path d="M497.388 330.559L508.367 323.008C508.401 322.984 508.444 322.983 508.478 323.006C518.17 329.533 537.022 341.536 538.676 342.143C538.752 342.113 538.793 342.115 538.793 342.152C538.793 342.174 538.753 342.171 538.676 342.143C537.696 342.521 530.79 348.067 527.693 351.049C527.659 351.082 527.609 351.085 527.569 351.058L497.389 330.724C497.33 330.685 497.33 330.599 497.388 330.559Z" fill="#F1BA4D"/>
<path d="M538.793 342.152C538.793 341.643 531.031 347.836 527.693 351.049C527.659 351.082 527.609 351.085 527.569 351.058L497.389 330.724C497.33 330.685 497.33 330.599 497.388 330.559L508.367 323.008C508.401 322.984 508.444 322.983 508.478 323.006C518.62 329.836 538.793 342.662 538.793 342.152Z" stroke="#F1BA4D"/>
</g>
<g filter="url(#filter7_d_172_2375)">
<path d="M481.773 334.666V345.935C481.773 345.969 481.79 346 481.817 346.018L492.154 352.918C492.22 352.963 492.309 352.915 492.309 352.835V341.566C492.309 341.533 492.293 341.502 492.265 341.483L481.928 334.583C481.862 334.538 481.773 334.586 481.773 334.666Z" fill="#088FA2" stroke="#017A8B"/>
<path d="M499.747 346.793V356.892C499.747 356.926 499.764 356.958 499.793 356.976L509.51 363.155C509.576 363.198 509.663 363.15 509.663 363.071V351.848C509.663 351.811 509.642 351.777 509.609 351.759L499.893 346.704C499.826 346.669 499.747 346.718 499.747 346.793Z" fill="#088FA2" stroke="#017A8B"/>
<path d="M467.518 361.236V352.576C467.518 352.495 467.608 352.445 467.675 352.491L469.334 353.632C469.361 353.651 469.377 353.681 469.377 353.714V361.235C469.377 361.29 469.333 361.335 469.277 361.335H467.618C467.563 361.335 467.518 361.291 467.518 361.236Z" fill="#C89665" stroke="#C89665"/>
<path d="M509.518 363.328L508.489 363.859C508.45 363.879 508.428 363.921 508.435 363.964L509.465 370.336C509.484 370.457 509.663 370.443 509.663 370.32V363.417C509.663 363.342 509.584 363.294 509.518 363.328Z" stroke="#017A8B" stroke-width="0.5"/>
<path d="M499.747 377.796V371.628C499.747 371.59 499.767 371.555 499.801 371.538L500.84 371.001C500.907 370.967 500.986 371.015 500.986 371.09V377.259C500.986 377.297 500.965 377.331 500.932 377.348L499.892 377.884C499.826 377.919 499.747 377.871 499.747 377.796Z" fill="#017A8B" stroke="#017A8B" stroke-width="0.5"/>
<path d="M488.591 371.402V365.234C488.591 365.196 488.612 365.161 488.645 365.143L489.685 364.607C489.751 364.573 489.83 364.621 489.83 364.696V370.865C489.83 370.903 489.809 370.937 489.776 370.954L488.737 371.49C488.67 371.525 488.591 371.477 488.591 371.402Z" fill="#017A8B" stroke="#017A8B" stroke-width="0.5"/>
<path d="M478.674 365.008V358.839C478.674 358.802 478.695 358.766 478.728 358.749L479.768 358.213C479.834 358.179 479.913 358.227 479.913 358.302V364.471C479.913 364.508 479.893 364.543 479.859 364.56L478.82 365.096C478.753 365.13 478.674 365.083 478.674 365.008Z" fill="#017A8B" stroke="#017A8B" stroke-width="0.5"/>
<path d="M471.237 361.171V355.002C471.237 354.965 471.258 354.929 471.291 354.912L472.331 354.376C472.397 354.342 472.476 354.39 472.476 354.465V360.634C472.476 360.672 472.455 360.706 472.422 360.723L471.383 361.259C471.316 361.294 471.237 361.246 471.237 361.171Z" fill="#017A8B" stroke="#017A8B" stroke-width="0.5"/>
<path d="M507.184 371.467V363.396C507.184 363.327 507.252 363.276 507.317 363.299L508.976 363.869C509.016 363.883 509.043 363.921 509.043 363.964V371.466C509.043 371.521 508.999 371.566 508.943 371.566H507.284C507.229 371.566 507.184 371.522 507.184 371.467Z" fill="#C89665" stroke="#C89665"/>
<path d="M496.648 380.419V372.348C496.648 372.279 496.716 372.228 496.78 372.25L498.44 372.821C498.48 372.835 498.507 372.873 498.507 372.916V380.417C498.507 380.473 498.463 380.517 498.407 380.517H496.748C496.693 380.517 496.648 380.474 496.648 380.419Z" fill="#C89665" stroke="#C89665"/>
<path d="M467.639 352.3L478.618 344.748C478.652 344.725 478.695 344.724 478.729 344.747C488.42 351.274 507.273 363.277 508.927 363.883C509.003 363.854 509.044 363.856 509.044 363.892C509.044 363.915 509.004 363.911 508.927 363.883C507.947 364.261 501.041 369.808 497.944 372.79C497.91 372.822 497.86 372.826 497.82 372.799L467.64 352.465C467.581 352.425 467.581 352.34 467.639 352.3Z" fill="#F1BA4D"/>
<path d="M509.044 363.892C509.044 363.384 501.282 369.576 497.944 372.79C497.91 372.822 497.86 372.826 497.82 372.799L467.64 352.465C467.581 352.425 467.581 352.34 467.639 352.3L478.618 344.748C478.652 344.725 478.695 344.724 478.729 344.747C488.87 351.577 509.044 364.403 509.044 363.892Z" stroke="#C89665"/>
</g>
<path d="M501.606 395.04V341.565C501.606 341.532 501.623 341.501 501.65 341.482L592.671 279.518C592.699 279.499 592.715 279.468 592.715 279.435V275.189C592.715 275.111 592.8 275.063 592.867 275.103L600.104 279.459C600.134 279.477 600.153 279.509 600.153 279.544V331.227C600.153 331.261 600.135 331.292 600.107 331.311L501.761 395.124C501.694 395.167 501.606 395.119 501.606 395.04Z" fill="#186EA2" stroke="#017A8B" stroke-width="0.5"/>
<path d="M404.3 278.848L403.68 333.199" stroke="white" stroke-width="1.5"/>
<path d="M388.803 322.284C388.778 321.537 388.472 311.211 389.42 270.071C389.422 269.995 389.505 269.945 389.571 269.983L424.081 290.328C424.113 290.347 424.132 290.381 424.13 290.418L422.279 344.53C422.277 344.608 422.189 344.653 422.124 344.609L388.847 322.358C388.82 322.34 388.804 322.316 388.803 322.284Z" fill="white" fill-opacity="0.3" stroke="white" stroke-width="1.5"/>
<path d="M478.417 327.396L477.178 378.549" stroke="white" stroke-width="1.5"/>
<path d="M461.686 369.546C461.713 368.796 462.043 359.516 462.988 318.619C462.989 318.542 463.073 318.492 463.138 318.531L497.65 338.876C497.681 338.894 497.699 338.928 497.699 338.964L497.014 391.162C497.013 391.24 496.928 391.287 496.862 391.246L461.733 369.629C461.703 369.61 461.684 369.582 461.686 369.546Z" fill="white" fill-opacity="0.3" stroke="white" stroke-width="1.5"/>
<path d="M614.408 351.689V342.334C614.408 342.255 614.321 342.207 614.254 342.249L497.321 416.291C497.289 416.312 497.247 416.312 497.214 416.291L368.505 335.215C368.439 335.173 368.352 335.221 368.352 335.299V345.293C368.352 345.328 368.37 345.36 368.399 345.378L498.454 425.883C498.487 425.904 498.528 425.903 498.56 425.883L614.361 351.773C614.39 351.754 614.408 351.723 614.408 351.689Z" fill="#A87E40" stroke="#A87E40" stroke-width="1.5"/>
<path d="M368.352 334.478V323.791C368.352 323.713 368.438 323.661 368.505 323.703L498.507 404.176L612.323 329.051C612.97 328.624 613.835 329.063 613.873 329.837L614.408 340.873L497.268 415.685L368.352 334.478Z" fill="#046270" stroke="#025D69"/>
<path d="M499.704 338.937C500.403 340.118 501.836 341.756 504.522 342.128C504.625 342.143 504.704 342.231 504.701 342.334L503.474 394.867C503.471 395.023 503.297 395.115 503.166 395.03L498.601 392.086C498.543 392.049 498.508 391.985 498.509 391.916L499.112 339.066C499.114 338.835 499.586 338.738 499.704 338.937Z" fill="#038699" stroke="#038699"/>
<path d="M388.719 269.806L382.288 268.977C381.356 268.856 381.09 267.633 381.888 267.136L480.1 205.971C480.745 205.569 481.562 205.568 482.208 205.967L597.513 277.218C598.75 277.982 598.784 279.768 597.578 280.579L505.188 342.689C504.52 343.138 503.647 343.143 502.974 342.701L499.825 340.634C498.619 339.842 498.622 338.073 499.832 337.286L586.95 280.584C588.185 279.78 588.156 277.963 586.897 277.198L482.202 213.625C481.558 213.234 480.75 213.238 480.11 213.635L390.029 269.522C389.638 269.764 389.175 269.865 388.719 269.806Z" fill="#038699"/>
</g>
<path d="M112.462 253.395C115.158 245.182 122.361 233.597 122.361 233.597L369.831 220.87C369.831 220.87 422.86 207.436 379.022 233.597C335.185 259.758 282.156 364.402 236.904 331.878C191.653 299.353 109.766 261.607 112.462 253.395Z" fill="#039CB0" fill-opacity="0.2"/>
<g filter="url(#filter8_i_172_2375)">
<path d="M237.612 283.798L118.119 210.971L253.167 126.832L372.659 200.366L237.612 283.798Z" fill="#00A2B7" stroke="#038699"/>
<path d="M267.308 225.112V225.996" stroke="#ABABB3" stroke-width="0.5"/>
<path d="M117.412 222.992V210.972L237.612 283.798L373.366 200.366V212.386L236.198 296.525L154.886 247.031L117.412 222.992Z" fill="#038699" stroke="#038699"/>
<path d="M117.836 236.425V224.405L238.318 296.525L373.366 213.093V224.405L237.278 309.959L155.517 260.465L117.836 236.425Z" fill="#B1823B" stroke="#906834" stroke-opacity="0.3"/>
<path d="M219.935 240.668L257.409 218.042L267.308 225.113V228.648L257.409 222.284L219.935 244.91L157.007 207.436V203.194L219.935 240.668Z" fill="#A7A7B1"/>
<path d="M257.409 218.042L219.935 240.668M257.409 218.042V222.284M257.409 218.042L267.308 225.113V228.648L257.409 222.284M219.935 240.668L157.007 203.194V207.436L219.935 244.91M219.935 240.668V244.91M219.935 244.91L257.409 222.284" stroke="#ABABB3" stroke-width="0.5"/>
<path d="M294.883 210.264V206.729L268.015 224.405V228.648L294.883 210.264Z" fill="#A7A7B1" stroke="#ABABB3" stroke-width="0.5"/>
<path d="M307.61 190.467V187.639L291.348 198.245V201.073L307.61 190.467Z" fill="#A7A7B1" stroke="#ABABB3" stroke-width="0.5"/>
<g filter="url(#filter9_f_172_2375)">
<path d="M156.3 214.507L160.543 210.264L307.61 190.467C308.914 191.77 311.539 194.156 312.385 194.077C312.557 193.969 312.623 193.939 312.56 194.002C312.515 194.046 312.457 194.071 312.385 194.077C311.009 194.939 302.816 200.76 298.419 203.901L302.661 212.386L270.136 235.011L259.53 232.183L222.764 254.102L156.3 214.507Z" fill="#218C9A"/>
</g>
<path d="M219.935 234.304V184.81L299.125 136.023V184.81L219.935 234.304Z" fill="white" stroke="#F7F7F7" stroke-width="0.5"/>
<path d="M265.187 193.295L253.167 212.385L280.742 195.416L297.712 173.497L265.187 193.295Z" fill="#D9D9D9" fill-opacity="0.5"/>
<path d="M179.633 208.85V174.911L197.309 185.928V219.456L179.633 208.85Z" fill="#6F631D" stroke="#878264"/>
<path d="M163.371 199.659V145.666L189.532 144.508L219.935 186.225L219.228 233.597L198.723 221.577V219.456V185.518L178.926 173.498V208.85L176.098 208.143L163.371 199.659Z" fill="white" stroke="#F7F7F7"/>
<path d="M272.257 93.6001L190.239 143.094L159.128 144.508L241.147 95.0142L272.257 93.6001Z" fill="#088FA2"/>
<path d="M190.946 143.094L159.128 144.508L241.147 95.0142L272.257 93.6001" stroke="#038699"/>
<path d="M272.257 93.6001L190.239 143.094L219.935 184.103L301.247 133.195L272.257 93.6001Z" fill="#00A2B7" stroke="#039CB0"/>
<path d="M232.662 196.83V185.517L240.44 180.568V191.881L232.662 196.83Z" fill="#088FA2" stroke="#038699"/>
<path d="M282.156 167.134V155.821L289.934 151.579V162.185L282.156 167.134Z" fill="#088FA2" stroke="#038699"/>
<path d="M282.156 181.275V169.962L289.934 165.72V176.326L282.156 181.275Z" fill="#088FA2" stroke="#038699"/>
<path d="M243.975 190.467V179.154L251.753 174.911V185.517L243.975 190.467Z" fill="#088FA2" stroke="#038699"/>
<path d="M241.147 194.709L232.662 200.366V210.972L241.147 206.022V194.709Z" fill="#039CB0" stroke="#038699"/>
<path d="M252.46 188.346L243.975 193.295V204.608L252.46 199.659V188.346Z" fill="#039CB0" stroke="#038699"/>
<path d="M253.167 213.093V184.103L280.742 174.205V196.123L253.167 213.093Z" fill="#D9D9D9" fill-opacity="0.59"/>
<path d="M291.348 198.951L287.105 201.78L291.348 204.608V198.951Z" fill="white" stroke="#D9D9D9" stroke-width="0.5"/>
<path d="M157.007 203.194L162.663 198.951L219.935 233.597L299.125 184.81V179.861L307.61 187.638L286.398 201.78L294.883 206.729L267.308 225.112L257.409 218.042L219.935 240.668L157.007 203.194Z" fill="#AAAAB3" stroke="#B1B1BB" stroke-width="0.5"/>
<path d="M258.116 218.042V189.76L263.773 194.709L266.601 193.295V221.577L264.48 222.284L258.116 218.042Z" fill="white"/>
<path d="M264.48 222.284L258.116 218.042V189.76L263.773 194.709M264.48 222.284L263.773 194.709M264.48 222.284L266.601 221.577V193.295L263.773 194.709" stroke="#F7F7F7" stroke-width="0.5"/>
<path d="M283.57 202.487V179.154L289.226 179.861L290.64 178.447V203.901L289.226 205.315L283.57 202.487Z" fill="white"/>
<path d="M289.226 205.315L283.57 202.487V179.154L289.226 179.861M289.226 205.315V179.861M289.226 205.315L290.64 203.901V178.447L289.226 179.861" stroke="#F7F7F7" stroke-width="0.5"/>
<path d="M265.187 192.588L246.803 178.206L277.207 158.649L296.297 173.498L265.187 192.588Z" fill="#039CB0" stroke="#038699"/>
</g>
<path d="M380.372 219.456C379.377 219.456 378.251 218.749 378.251 218.749V184.103H382.493V218.749C382.493 218.749 381.368 219.456 380.372 219.456Z" fill="#346C5F" stroke="#346C5F"/>
<g filter="url(#filter10_i_172_2375)">
<path d="M366.498 163.788L366.723 165.136C366.863 165.976 367.261 166.75 367.863 167.352C368.629 168.118 369.667 168.548 370.75 168.548H371.18L368.352 169.962L366.231 171.376C365.288 172.083 363.261 173.639 362.695 174.204C362.376 174.524 362.192 175.16 362.092 175.78C361.962 176.59 362.231 177.397 362.686 178.08L363.144 178.766C363.312 179.019 363.553 179.214 363.835 179.327L364.116 179.439C365.209 179.877 365.273 181.4 364.22 181.927C364.146 181.964 364.077 182.007 364.011 182.056L361.979 183.58C361.525 183.921 361.185 184.392 361.006 184.93C360.734 185.747 360.854 186.643 361.331 187.36L361.728 187.954C361.899 188.211 362.133 188.418 362.409 188.556L364.336 189.519C365.035 189.869 364.963 190.889 364.221 191.137C364.147 191.161 364.077 191.196 364.012 191.239L362.443 192.285C362.141 192.486 361.814 192.646 361.47 192.761L361.226 192.842C360.356 193.132 359.637 193.756 359.227 194.576C358.74 195.55 358.74 196.696 359.227 197.67L359.377 197.97C359.698 198.613 360.182 199.161 360.78 199.56L361.988 200.366L364.11 201.78L365.882 202.666C366.576 203.013 367.342 203.194 368.118 203.194H372.239C372.475 203.194 372.712 203.211 372.946 203.244L377.192 203.851C377.426 203.884 377.662 203.901 377.899 203.901H381.431C381.667 203.901 381.903 203.884 382.138 203.851L386.735 203.194C389.193 202.843 390.689 202.473 391.526 202.187C392.128 201.982 392.692 201.651 393.277 201.4L396.456 200.038C397.041 199.787 397.572 199.427 398.022 198.978L399.169 197.83C399.81 197.19 400.169 196.322 400.169 195.416C400.169 194.511 399.81 193.642 399.169 193.002L398.755 192.588L397.366 191.199C396.898 190.73 396.262 190.467 395.599 190.467H394.099C393.547 190.467 393.099 190.019 393.099 189.467C393.099 189.202 393.204 188.947 393.392 188.76L394.646 187.505C395.026 187.125 395.343 186.686 395.583 186.206L396.475 184.421C396.581 184.209 396.672 183.991 396.746 183.767L397.341 181.982C397.907 180.285 396.163 179.39 395.22 179.154L393.396 178.546C392.412 178.218 392.236 176.901 393.099 176.326C394.292 175.53 394.856 174.688 395.086 174.094C395.233 173.713 395.17 173.297 395.071 172.9L394.849 172.013C394.629 171.134 394.174 170.331 393.534 169.69L392.76 168.916C392.518 168.675 392.22 168.499 391.892 168.405L391.054 168.166C389.683 167.774 389.441 165.935 390.663 165.201C390.87 165.077 391.047 164.909 391.181 164.708L392.103 163.325C392.295 163.037 392.457 162.73 392.585 162.408L393.063 161.213C393.54 160.021 393.54 158.691 393.063 157.499L392.541 156.193C392.442 155.945 392.323 155.706 392.186 155.477L391.02 153.534C390.531 152.719 389.819 152.06 388.968 151.635L388.168 151.234C387.687 150.994 387.171 150.833 386.639 150.757L383.259 150.274C382.751 150.201 382.236 150.207 381.73 150.292L378.638 150.807C378.38 150.85 378.126 150.913 377.879 150.996L374.529 152.112C374.183 152.228 373.851 152.38 373.538 152.568L371.545 153.764C370.841 154.186 370.252 154.775 369.83 155.479L368.352 157.942L366.958 160.73C366.485 161.675 366.324 162.746 366.498 163.788Z" fill="#67AD15"/>
</g>
<path d="M372.594 168.548H371.18M371.18 168.548H370.75C369.667 168.548 368.629 168.118 367.863 167.352C367.261 166.75 366.863 165.976 366.723 165.136L366.498 163.788C366.324 162.746 366.485 161.675 366.958 160.73L368.352 157.942L369.83 155.479C370.252 154.775 370.841 154.186 371.545 153.764L373.538 152.568C373.851 152.38 374.183 152.228 374.529 152.112L377.879 150.996C378.126 150.913 378.38 150.85 378.638 150.807L381.73 150.292C382.236 150.207 382.751 150.201 383.259 150.274L386.639 150.757C387.171 150.833 387.687 150.994 388.168 151.234L388.968 151.635C389.819 152.06 390.531 152.719 391.02 153.534L392.186 155.477C392.323 155.706 392.442 155.945 392.541 156.193L393.063 157.499C393.54 158.691 393.54 160.021 393.063 161.213L392.585 162.408C392.457 162.73 392.295 163.037 392.103 163.325L391.181 164.708C391.047 164.909 390.87 165.077 390.663 165.201C389.441 165.935 389.683 167.774 391.054 168.166L391.892 168.405C392.22 168.499 392.518 168.675 392.76 168.916L393.534 169.69C394.174 170.331 394.629 171.134 394.849 172.013L395.071 172.9C395.17 173.297 395.233 173.713 395.086 174.094C394.856 174.688 394.292 175.53 393.099 176.326C392.236 176.901 392.412 178.218 393.396 178.546L395.22 179.154C396.163 179.39 397.907 180.285 397.341 181.982C397.031 182.914 396.848 183.462 396.746 183.767C396.672 183.991 396.581 184.209 396.475 184.421L395.583 186.206C395.343 186.686 395.026 187.125 394.646 187.505L393.392 188.76C393.204 188.947 393.099 189.202 393.099 189.467C393.099 190.019 393.547 190.467 394.099 190.467H395.599C396.262 190.467 396.898 190.73 397.366 191.199L398.755 192.588L399.169 193.002C399.81 193.642 400.169 194.511 400.169 195.416C400.169 196.322 399.81 197.19 399.169 197.83L398.022 198.978C397.572 199.427 397.041 199.787 396.456 200.038L393.277 201.4C392.692 201.651 392.128 201.982 391.526 202.187C390.689 202.473 389.193 202.843 386.735 203.194C384.015 203.582 382.697 203.771 382.138 203.851C381.903 203.884 381.667 203.901 381.431 203.901H377.899C377.662 203.901 377.426 203.884 377.192 203.851L372.946 203.244C372.712 203.211 372.475 203.194 372.239 203.194H368.118C367.342 203.194 366.576 203.013 365.882 202.666L364.11 201.78L361.988 200.366L360.78 199.56C360.182 199.161 359.698 198.613 359.377 197.97L359.227 197.67C358.74 196.696 358.74 195.55 359.227 194.576C359.637 193.756 360.356 193.132 361.226 192.842L361.47 192.761C361.814 192.646 362.141 192.486 362.443 192.285L364.012 191.239C364.077 191.196 364.147 191.161 364.221 191.137C364.963 190.889 365.035 189.869 364.336 189.519L362.409 188.556C362.133 188.418 361.899 188.211 361.728 187.954L361.331 187.36C360.854 186.643 360.734 185.747 361.006 184.93C361.185 184.392 361.525 183.921 361.979 183.58L364.011 182.056C364.077 182.007 364.146 181.964 364.22 181.927C365.273 181.4 365.209 179.877 364.116 179.439L363.835 179.327C363.553 179.214 363.312 179.019 363.144 178.766L362.686 178.08C362.231 177.397 361.962 176.59 362.092 175.78C362.192 175.16 362.376 174.524 362.695 174.204C363.261 173.639 365.288 172.083 366.231 171.376L368.352 169.962L371.18 168.548Z" stroke="#53A934"/>
<path d="M367.033 216.58L372.841 213.676C373.604 213.295 374.456 213.113 375.308 213.152L388.503 213.751C389.202 213.783 389.887 213.961 390.512 214.274L391.509 214.772C394.178 216.107 394.986 219.532 393.196 221.919C392.67 222.62 391.961 223.164 391.147 223.489L387.406 224.986C386.08 225.516 385.194 226.446 385.909 227.683C386.476 228.664 387.402 230.106 388.856 232.183C393.338 237.163 382.438 240.682 374.298 242.256C372.401 242.623 370.496 241.763 369.424 240.155L365.868 234.821C364.845 233.287 363.323 232.97 364.626 231.667C366.751 229.541 367.443 223.736 365.69 221.294C365.617 221.194 365.548 221.093 365.48 220.992C364.418 219.405 365.325 217.434 367.033 216.58Z" fill="#017A8B" fill-opacity="0.18"/>
<path d="M527.44 423.088C526.444 423.088 525.318 422.381 525.318 422.381V387.735H529.561V422.381C529.561 422.381 528.435 423.088 527.44 423.088Z" fill="#346C5F" stroke="#346C5F"/>
<g filter="url(#filter11_i_172_2375)">
<path d="M513.565 367.42L513.79 368.768C513.93 369.608 514.329 370.382 514.93 370.984C515.696 371.75 516.735 372.18 517.818 372.18H518.248L515.419 373.594L513.298 375.008C512.355 375.715 510.328 377.271 509.763 377.837C509.443 378.156 509.259 378.792 509.159 379.412C509.029 380.222 509.299 381.029 509.754 381.712L510.211 382.398C510.38 382.651 510.621 382.846 510.903 382.959L511.184 383.071C512.277 383.509 512.34 385.033 511.287 385.559C511.214 385.596 511.144 385.639 511.079 385.688L509.046 387.212C508.592 387.553 508.253 388.024 508.073 388.562C507.801 389.379 507.921 390.275 508.399 390.992L508.795 391.587C508.966 391.843 509.201 392.05 509.476 392.188L511.403 393.151C512.103 393.501 512.03 394.522 511.288 394.769C511.214 394.793 511.144 394.828 511.079 394.871L509.51 395.917C509.209 396.118 508.882 396.278 508.538 396.393L508.294 396.474C507.424 396.764 506.704 397.388 506.294 398.208C505.807 399.182 505.807 400.328 506.294 401.302L506.444 401.602C506.766 402.245 507.249 402.793 507.847 403.192L509.056 403.998L511.177 405.412L512.949 406.298C513.644 406.645 514.409 406.826 515.186 406.826H519.306C519.543 406.826 519.779 406.843 520.013 406.876L524.259 407.483C524.493 407.516 524.73 407.533 524.966 407.533H528.498C528.735 407.533 528.971 407.516 529.205 407.483L533.803 406.826C536.261 406.475 537.756 406.105 538.593 405.819C539.195 405.614 539.76 405.283 540.344 405.032L543.524 403.67C544.108 403.419 544.64 403.059 545.089 402.61L546.237 401.462C546.877 400.822 547.237 399.954 547.237 399.048C547.237 398.143 546.877 397.274 546.237 396.634L545.823 396.22L544.434 394.831C543.965 394.362 543.329 394.099 542.666 394.099H541.166C540.614 394.099 540.166 393.651 540.166 393.099C540.166 392.834 540.272 392.579 540.459 392.392L541.714 391.137C542.094 390.757 542.41 390.318 542.65 389.838L543.543 388.053C543.648 387.842 543.739 387.623 543.814 387.399L544.409 385.614C544.974 383.917 543.23 383.022 542.287 382.786L540.464 382.178C539.479 381.85 539.303 380.533 540.166 379.958C541.359 379.162 541.923 378.32 542.153 377.726C542.301 377.345 542.237 376.929 542.138 376.532L541.916 375.645C541.696 374.766 541.242 373.963 540.601 373.322L539.827 372.548C539.586 372.307 539.287 372.131 538.959 372.037L538.122 371.798C536.751 371.406 536.508 369.567 537.731 368.833C537.938 368.709 538.115 368.541 538.248 368.34L539.17 366.957C539.362 366.669 539.524 366.362 539.653 366.04L540.131 364.845C540.607 363.653 540.607 362.323 540.131 361.131L539.608 359.825C539.509 359.577 539.39 359.338 539.253 359.11L538.087 357.166C537.598 356.351 536.886 355.692 536.036 355.267L535.236 354.867C534.755 354.626 534.239 354.465 533.707 354.389L530.326 353.906C529.819 353.834 529.303 353.84 528.797 353.924L525.705 354.439C525.447 354.482 525.194 354.545 524.946 354.628L521.596 355.744C521.25 355.86 520.918 356.012 520.605 356.2L518.612 357.396C517.909 357.818 517.32 358.407 516.897 359.111L515.419 361.574L514.025 364.362C513.553 365.307 513.392 366.378 513.565 367.42Z" fill="#67AD15"/>
</g>
<path d="M519.662 372.18H518.248M518.248 372.18H517.818C516.735 372.18 515.696 371.75 514.93 370.984C514.329 370.382 513.93 369.608 513.79 368.768L513.565 367.42C513.392 366.378 513.553 365.307 514.025 364.362L515.419 361.574L516.897 359.111C517.32 358.407 517.909 357.818 518.612 357.396L520.605 356.2C520.918 356.012 521.25 355.86 521.596 355.744L524.946 354.628C525.194 354.545 525.447 354.482 525.705 354.439L528.797 353.924C529.303 353.84 529.819 353.834 530.326 353.906L533.707 354.389C534.239 354.465 534.755 354.626 535.236 354.867L536.036 355.267C536.886 355.692 537.598 356.351 538.087 357.166L539.253 359.11C539.39 359.338 539.509 359.577 539.608 359.825L540.131 361.131C540.607 362.323 540.607 363.653 540.131 364.845L539.653 366.04C539.524 366.362 539.362 366.669 539.17 366.957L538.248 368.34C538.115 368.541 537.938 368.709 537.731 368.833C536.508 369.567 536.751 371.406 538.122 371.798L538.959 372.037C539.287 372.131 539.586 372.307 539.827 372.548L540.601 373.322C541.242 373.963 541.696 374.766 541.916 375.645L542.138 376.532C542.237 376.929 542.301 377.345 542.153 377.726C541.923 378.32 541.359 379.162 540.166 379.958C539.303 380.533 539.479 381.85 540.464 382.178L542.287 382.786C543.23 383.022 544.974 383.917 544.409 385.614C544.098 386.546 543.915 387.094 543.814 387.399C543.739 387.623 543.648 387.842 543.543 388.053L542.65 389.838C542.41 390.318 542.094 390.757 541.714 391.137L540.459 392.392C540.272 392.579 540.166 392.834 540.166 393.099C540.166 393.651 540.614 394.099 541.166 394.099H542.666C543.329 394.099 543.965 394.362 544.434 394.831L545.823 396.22L546.237 396.634C546.877 397.274 547.237 398.143 547.237 399.048C547.237 399.954 546.877 400.822 546.237 401.462L545.089 402.61C544.64 403.059 544.108 403.419 543.524 403.67L540.344 405.032C539.76 405.283 539.195 405.614 538.593 405.819C537.756 406.105 536.261 406.475 533.803 406.826C531.083 407.214 529.764 407.403 529.205 407.483C528.971 407.516 528.735 407.533 528.498 407.533H524.966C524.73 407.533 524.493 407.516 524.259 407.483L520.013 406.876C519.779 406.843 519.543 406.826 519.306 406.826H515.186C514.409 406.826 513.644 406.645 512.949 406.298L511.177 405.412L509.056 403.998L507.847 403.192C507.249 402.793 506.766 402.245 506.444 401.602L506.294 401.302C505.807 400.328 505.807 399.182 506.294 398.208C506.704 397.388 507.424 396.764 508.294 396.474L508.538 396.393C508.882 396.278 509.209 396.118 509.51 395.917L511.079 394.871C511.144 394.828 511.214 394.793 511.288 394.769C512.03 394.522 512.103 393.501 511.403 393.151L509.476 392.188C509.201 392.05 508.966 391.843 508.795 391.587L508.399 390.992C507.921 390.275 507.801 389.379 508.073 388.562C508.253 388.024 508.592 387.553 509.046 387.212L511.079 385.688C511.144 385.639 511.214 385.596 511.287 385.559C512.34 385.033 512.277 383.509 511.184 383.071L510.903 382.959C510.621 382.846 510.38 382.651 510.211 382.398L509.754 381.712C509.299 381.029 509.029 380.222 509.159 379.412C509.259 378.792 509.443 378.156 509.763 377.837C510.328 377.271 512.355 375.715 513.298 375.008L515.419 373.594L518.248 372.18Z" stroke="#53A934"/>
<path d="M514.101 420.212L519.909 417.308C520.672 416.927 521.523 416.745 522.376 416.784L535.571 417.383C536.27 417.415 536.955 417.593 537.58 417.906L538.577 418.405C541.246 419.739 542.054 423.164 540.264 425.551C539.738 426.252 539.029 426.796 538.214 427.121L534.474 428.618C533.148 429.148 532.262 430.079 532.977 431.315C533.544 432.296 534.47 433.738 535.924 435.815C540.406 440.795 529.506 444.314 521.366 445.888C519.468 446.255 517.564 445.395 516.492 443.787L512.936 438.453C511.913 436.919 510.39 436.602 511.694 435.299C513.819 433.173 514.511 427.368 512.758 424.926C512.685 424.826 512.615 424.725 512.548 424.624C511.486 423.037 512.393 421.066 514.101 420.212Z" fill="#017A8B" fill-opacity="0.18"/>
<path d="M139.973 264.708C138.977 264.708 137.852 264.001 137.852 264.001V229.355H142.094V264.001C142.094 264.001 140.968 264.708 139.973 264.708Z" fill="#346C5F" stroke="#346C5F"/>
<g filter="url(#filter12_i_172_2375)">
<path d="M126.099 209.04L126.324 210.388C126.464 211.227 126.862 212.002 127.464 212.604C128.23 213.369 129.268 213.799 130.351 213.799H130.781L127.953 215.214L125.832 216.628C124.889 217.335 122.862 218.89 122.297 219.456C121.977 219.776 121.793 220.411 121.693 221.031C121.563 221.841 121.832 222.648 122.288 223.331L122.745 224.018C122.913 224.27 123.154 224.466 123.436 224.578L123.717 224.691C124.811 225.128 124.874 226.652 123.821 227.178C123.747 227.215 123.678 227.258 123.612 227.307L121.58 228.832C121.126 229.172 120.786 229.643 120.607 230.181C120.335 230.998 120.455 231.895 120.932 232.611L121.329 233.206C121.5 233.462 121.734 233.669 122.01 233.807L123.937 234.771C124.636 235.12 124.564 236.141 123.822 236.388C123.748 236.413 123.678 236.447 123.613 236.49L122.044 237.536C121.742 237.737 121.415 237.897 121.071 238.012L120.827 238.093C119.957 238.383 119.238 239.007 118.828 239.828C118.341 240.802 118.341 241.948 118.828 242.921L118.978 243.222C119.299 243.865 119.783 244.413 120.381 244.811L121.589 245.617L123.711 247.031L125.483 247.917C126.177 248.264 126.943 248.445 127.719 248.445H131.84C132.077 248.445 132.313 248.462 132.547 248.495L136.793 249.102C137.027 249.135 137.263 249.152 137.5 249.152H141.032C141.268 249.152 141.505 249.135 141.739 249.102L146.336 248.445C148.794 248.094 150.29 247.725 151.127 247.439C151.729 247.233 152.293 246.902 152.878 246.652L156.057 245.289C156.642 245.039 157.173 244.679 157.623 244.229L158.771 243.082C159.411 242.441 159.771 241.573 159.771 240.668C159.771 239.762 159.411 238.894 158.771 238.254L158.356 237.839L156.967 236.45C156.499 235.982 155.863 235.718 155.2 235.718H153.7C153.148 235.718 152.7 235.271 152.7 234.718C152.7 234.453 152.805 234.199 152.993 234.011L154.247 232.757C154.627 232.377 154.944 231.938 155.184 231.457L156.076 229.673C156.182 229.461 156.273 229.243 156.347 229.018L156.942 227.234C157.508 225.537 155.764 224.641 154.821 224.405L152.997 223.797C152.013 223.469 151.837 222.153 152.7 221.577C153.893 220.782 154.457 219.94 154.687 219.346C154.834 218.965 154.771 218.548 154.672 218.152L154.45 217.264C154.23 216.385 153.776 215.582 153.135 214.941L152.361 214.167C152.119 213.926 151.821 213.75 151.493 213.657L150.655 213.417C149.284 213.026 149.042 211.186 150.265 210.453C150.471 210.329 150.648 210.16 150.782 209.959L151.704 208.576C151.896 208.288 152.058 207.981 152.186 207.66L152.664 206.465C153.141 205.273 153.141 203.943 152.664 202.751L152.142 201.444C152.043 201.197 151.924 200.958 151.787 200.729L150.621 198.786C150.132 197.97 149.42 197.311 148.569 196.886L147.769 196.486C147.289 196.246 146.772 196.084 146.24 196.008L142.86 195.525C142.352 195.453 141.837 195.459 141.331 195.543L138.239 196.059C137.981 196.102 137.727 196.165 137.48 196.247L134.13 197.364C133.784 197.479 133.452 197.632 133.139 197.82L131.146 199.015C130.442 199.437 129.853 200.026 129.431 200.73L127.953 203.194L126.559 205.982C126.086 206.927 125.925 207.997 126.099 209.04Z" fill="#67AD15"/>
</g>
<path d="M132.195 213.799H130.781M130.781 213.799H130.351C129.268 213.799 128.23 213.369 127.464 212.604C126.862 212.002 126.464 211.227 126.324 210.388L126.099 209.04C125.925 207.997 126.086 206.927 126.559 205.982L127.953 203.194L129.431 200.73C129.853 200.026 130.442 199.437 131.146 199.015L133.139 197.82C133.452 197.632 133.784 197.479 134.13 197.364L137.48 196.247C137.727 196.165 137.981 196.102 138.239 196.059L141.331 195.543C141.837 195.459 142.352 195.453 142.86 195.525L146.24 196.008C146.772 196.084 147.289 196.246 147.769 196.486L148.569 196.886C149.42 197.311 150.132 197.97 150.621 198.786L151.787 200.729C151.924 200.958 152.043 201.197 152.142 201.444L152.664 202.751C153.141 203.943 153.141 205.273 152.664 206.465L152.186 207.66C152.058 207.981 151.896 208.288 151.704 208.576L150.782 209.959C150.648 210.16 150.471 210.329 150.265 210.453C149.042 211.186 149.284 213.026 150.655 213.417L151.493 213.657C151.821 213.75 152.119 213.926 152.361 214.167L153.135 214.941C153.776 215.582 154.23 216.385 154.45 217.264L154.672 218.152C154.771 218.548 154.834 218.965 154.687 219.346C154.457 219.94 153.893 220.782 152.7 221.577C151.837 222.153 152.013 223.469 152.997 223.797L154.821 224.405C155.764 224.641 157.508 225.537 156.942 227.234C156.632 228.165 156.449 228.713 156.347 229.018C156.273 229.243 156.182 229.461 156.076 229.673L155.184 231.457C154.944 231.938 154.627 232.377 154.247 232.757L152.993 234.011C152.805 234.199 152.7 234.453 152.7 234.718C152.7 235.271 153.148 235.718 153.7 235.718H155.2C155.863 235.718 156.499 235.982 156.967 236.45L158.356 237.839L158.771 238.254C159.411 238.894 159.77 239.762 159.77 240.668C159.77 241.573 159.411 242.441 158.771 243.082L157.623 244.229C157.173 244.679 156.642 245.039 156.057 245.289L152.878 246.652C152.293 246.902 151.729 247.233 151.127 247.439C150.29 247.725 148.794 248.094 146.336 248.445C143.616 248.834 142.298 249.022 141.739 249.102C141.505 249.135 141.268 249.152 141.032 249.152H137.5C137.263 249.152 137.027 249.135 136.793 249.102L132.547 248.495C132.313 248.462 132.077 248.445 131.84 248.445H127.719C126.943 248.445 126.177 248.264 125.483 247.917L123.711 247.031L121.589 245.617L120.381 244.811C119.783 244.413 119.299 243.865 118.978 243.222L118.828 242.921C118.341 241.948 118.341 240.802 118.828 239.828C119.238 239.007 119.957 238.383 120.827 238.093L121.071 238.012C121.415 237.897 121.742 237.737 122.044 237.536L123.613 236.49C123.678 236.447 123.748 236.413 123.822 236.388C124.564 236.141 124.636 235.12 123.937 234.771L122.01 233.807C121.734 233.669 121.5 233.462 121.329 233.206L120.932 232.611C120.455 231.895 120.335 230.998 120.607 230.181C120.786 229.643 121.126 229.172 121.58 228.832L123.612 227.307C123.678 227.258 123.747 227.215 123.821 227.179C124.874 226.652 124.811 225.128 123.717 224.691L123.436 224.578C123.154 224.466 122.913 224.27 122.745 224.018L122.288 223.331C121.832 222.648 121.563 221.841 121.693 221.031C121.793 220.411 121.977 219.776 122.297 219.456C122.862 218.89 124.889 217.335 125.832 216.628L127.953 215.214L130.781 213.799Z" stroke="#53A934"/>
<path d="M126.634 261.832L132.442 258.928C133.205 258.546 134.057 258.364 134.909 258.403L148.104 259.003C148.803 259.035 149.488 259.213 150.114 259.526L151.11 260.024C153.779 261.358 154.587 264.783 152.797 267.17C152.271 267.872 151.562 268.415 150.748 268.741L147.007 270.237C145.681 270.768 144.795 271.698 145.51 272.934C146.077 273.915 147.003 275.357 148.457 277.435C152.939 282.415 142.039 285.933 133.899 287.508C132.002 287.875 130.097 287.015 129.025 285.406L125.469 280.072C124.446 278.538 122.924 278.221 124.227 276.918C126.352 274.793 127.044 268.987 125.291 266.546C125.219 266.445 125.149 266.344 125.081 266.244C124.019 264.656 124.926 262.686 126.634 261.832Z" fill="#017A8B" fill-opacity="0.18"/>
<g filter="url(#filter13_d_172_2375)">
<path d="M118.054 162.892L126.539 143.094H140.68L132.902 157.942H144.922L125.125 181.982L130.074 162.892H118.054Z" fill="url(#paint1_linear_172_2375)" shape-rendering="crispEdges"/>
<path d="M118.054 162.892L126.539 143.094H140.68L132.902 157.942H144.922L125.125 181.982L130.074 162.892H118.054Z" stroke="white" stroke-opacity="0.3" shape-rendering="crispEdges"/>
</g>
<g filter="url(#filter14_d_172_2375)">
<path d="M410.775 171.376L419.26 151.579H433.401L425.624 166.427H437.644L417.846 190.467L422.795 171.376H410.775Z" fill="url(#paint2_linear_172_2375)" shape-rendering="crispEdges"/>
<path d="M410.775 171.376L419.26 151.579H433.401L425.624 166.427H437.644L417.846 190.467L422.795 171.376H410.775Z" stroke="white" stroke-opacity="0.3" shape-rendering="crispEdges"/>
</g>
<g filter="url(#filter15_d_172_2375)">
<path d="M608.751 335.413L617.236 315.616H631.377L623.599 330.464H635.619L615.822 354.504L620.771 335.413H608.751Z" fill="url(#paint3_linear_172_2375)" shape-rendering="crispEdges"/>
<path d="M608.751 335.413L617.236 315.616H631.377L623.599 330.464H635.619L615.822 354.504L620.771 335.413H608.751Z" stroke="white" stroke-opacity="0.3" shape-rendering="crispEdges"/>
</g>
<g filter="url(#filter16_d_172_2375)">
<path d="M289.162 264.27L295.86 249.152H307.024L300.884 260.491H310.373L294.744 278.849L298.651 264.27H289.162Z" fill="url(#paint4_linear_172_2375)" shape-rendering="crispEdges"/>
<path d="M289.162 264.27L295.86 249.152H307.024L300.884 260.491H310.373L294.744 278.849L298.651 264.27H289.162Z" stroke="white" stroke-opacity="0.3" shape-rendering="crispEdges"/>
</g>
<path d="M167.39 254.099L166.256 254.855C165.638 255.266 165.668 256.183 166.311 256.554L180.005 264.436C180.307 264.61 180.497 264.93 180.505 265.279L180.801 277.463C180.82 278.236 181.672 278.696 182.328 278.288L183.702 277.436C184.003 277.249 184.183 276.916 184.174 276.561L183.85 263.467C183.842 263.118 183.651 262.799 183.349 262.625L168.443 254.064C168.114 253.875 167.706 253.889 167.39 254.099Z" fill="#039CB0" stroke="#039CB0"/>
<path d="M188.179 257.292L187.441 256.666C187.158 256.427 186.85 256.22 186.522 256.049L175.006 250.042C173.974 249.504 172.72 249.644 171.833 250.396C170.313 251.684 170.543 254.093 172.279 255.071L182.196 260.658C183.73 261.522 184.696 263.129 184.74 264.89L184.904 271.478C184.957 273.615 187.405 274.794 189.109 273.504C189.778 272.998 190.164 272.202 190.148 271.362L189.947 261.01C189.919 259.575 189.275 258.22 188.179 257.292Z" fill="#039CB0" stroke="#039CB0"/>
<path d="M164.296 256.087C164.351 256.046 164.402 256.008 164.449 255.973C164.732 255.765 165.104 255.751 165.415 255.914L180.587 263.862C180.909 264.031 181.114 264.359 181.122 264.722C181.242 269.757 181.456 278.733 181.46 278.848C181.46 278.849 181.461 278.849 181.461 278.849C181.461 278.848 181.46 278.848 181.46 278.848C181.455 278.822 181.136 279.043 180.731 279.334C180.073 279.808 179.159 279.354 179.149 278.543L179.003 266.168C178.999 265.805 178.798 265.473 178.479 265.3L164.442 257.703C163.823 257.367 163.733 256.511 164.296 256.087Z" fill="#00515C"/>
<path d="M181.461 278.849C181.461 278.918 181.243 269.809 181.122 264.722C181.114 264.359 180.909 264.031 180.587 263.862L165.415 255.914C165.104 255.751 164.732 255.765 164.449 255.973C164.402 256.008 164.351 256.046 164.296 256.087C163.733 256.511 163.823 257.367 164.442 257.703L178.479 265.3C178.798 265.473 178.999 265.805 179.003 266.168L179.149 278.543C179.159 279.354 180.073 279.808 180.731 279.334C181.139 279.04 181.461 278.818 181.461 278.849Z" stroke="#00515C"/>
<path d="M169.226 252.721L167.642 253.936L183.749 262.872L184.189 277.134C184.688 276.773 185.685 275.978 185.685 276.051C185.685 276.123 185.627 266.543 185.509 261.609L169.226 252.721Z" fill="#00515C" stroke="#00515C"/>
<path d="M155.578 265.935L161.283 260.82C162.095 260.093 162.329 258.916 161.858 257.933C161.277 256.721 164.232 257.087 165.428 257.7C169.696 259.886 179.682 265.052 179.432 265.4C179.288 265.599 178.707 266.014 178.202 266.353C177.693 266.695 177.065 266.805 176.464 266.679C176.207 266.626 175.943 266.615 175.683 266.647L175.227 266.705C174.337 266.816 173.491 267.159 172.775 267.699L168.348 271.037C165.906 272.877 162.608 273.102 159.94 271.61L155.961 269.385C155.076 268.89 154.662 267.84 154.97 266.874C155.086 266.512 155.295 266.188 155.578 265.935Z" fill="#039CB0" stroke="#017A8B"/>
<path d="M166.85 283.362C167.011 282.644 166.977 281.212 166.913 280.147C166.879 279.584 166.908 279.02 167.023 278.468C167.254 277.363 167.81 276.352 168.618 275.564L177.288 267.114C177.288 267.114 179.488 264.624 179.488 265.67C179.488 270.725 180.087 279.48 179.788 279.932C179.656 280.131 179.127 280.505 178.577 280.861C177.657 281.457 176.567 281.72 175.471 281.689C174.492 281.661 173.524 281.876 172.647 282.312C170.05 283.603 164.598 286.281 165.001 285.799C165.163 285.605 165.381 285.408 165.603 285.228C166.201 284.745 166.681 284.112 166.85 283.362Z" fill="#017A8B" stroke="#017A8B"/>
<path d="M171.338 268.182L168.788 270.236C167.248 271.327 165.401 271.917 163.513 271.917C162.596 271.917 163.928 272.796 165.135 273.496C166.11 274.062 166.868 274.95 167.206 276.026L167.325 276.533C167.349 276.636 167.478 276.67 167.55 276.594C167.555 276.589 167.559 276.584 167.565 276.58L172.305 272.944C177.052 269.303 175.821 269.676 176.7 268.462C176.715 268.442 176.729 268.422 176.744 268.401C177.628 267.135 176.332 266.055 174.796 266.218C174.201 266.281 173.633 266.501 173.15 266.855L171.338 268.182Z" fill="#01A9BF" stroke="#01A9BF"/>
<path d="M153.404 268.795L153.597 268.414C154.54 266.548 154.786 267.381 156.376 268.739C156.618 268.946 156.861 269.137 157.098 269.311C158.094 270.042 159.912 270.763 161.041 271.266L164.033 272.169L164.308 272.29C164.939 272.567 165.499 272.981 165.95 273.501C166.426 274.05 166.766 274.702 166.944 275.406L166.996 275.611C167.19 276.376 167.217 277.175 167.077 277.952L166.979 278.496C166.893 278.971 166.85 279.452 166.85 279.934V282.549V283.325C166.85 284.082 166.476 284.791 165.851 285.218C165.47 285.479 165.018 285.618 164.556 285.618H163.487C162.8 285.618 162.12 285.495 161.477 285.256L160.513 284.896C159.368 284.469 157.511 283.457 156.123 282.654C155.299 282.178 154.61 281.503 154.092 280.705C153.681 280.074 153.386 279.375 153.22 278.642L152.839 276.962C152.674 276.236 152.591 275.494 152.591 274.75V272.79C152.591 271.78 152.744 270.776 153.045 269.812L153.224 269.24C153.271 269.087 153.332 268.938 153.404 268.795Z" fill="#088FA2" stroke="#03909F"/>
<g filter="url(#filter17_d_172_2375)">
<path d="M151.496 279.384L152.462 279.979C153.429 280.574 154.621 280.674 155.674 280.25L157.101 279.675C159.561 278.684 159.507 275.178 157.051 274.176C156.196 273.827 155.211 273.917 154.44 274.426L150.831 277.043L148.311 278.628C148.177 278.712 148.08 278.844 148.041 278.997C147.916 279.475 148.374 279.899 148.841 279.739L150.278 279.248C150.684 279.11 151.131 279.159 151.496 279.384Z" fill="#038C9F"/>
<path d="M151.496 279.384L152.462 279.979C153.429 280.574 154.621 280.674 155.674 280.25L157.101 279.675C159.561 278.684 159.507 275.178 157.051 274.176C156.196 273.827 155.211 273.917 154.44 274.426L150.831 277.043L148.311 278.628C148.177 278.712 148.08 278.844 148.041 278.997C147.916 279.475 148.374 279.899 148.841 279.739L150.278 279.248C150.684 279.11 151.131 279.159 151.496 279.384Z" stroke="#03909F"/>
</g>
<path d="M160.497 276.241L155.428 279.707C154.43 280.389 153.605 281.294 153.017 282.349L152.748 282.833C152.585 283.124 152.463 283.436 152.384 283.76L152.276 284.203C152.194 284.539 152.201 284.891 152.296 285.223C152.48 285.864 152.974 286.371 153.61 286.572L153.795 286.63C154.48 286.846 155.226 286.738 155.821 286.335L159.28 283.994L161.307 282.608C161.702 282.338 161.983 281.931 162.097 281.466C162.18 281.125 162.185 280.536 162.164 279.993C162.138 279.352 161.987 278.724 161.77 278.12L161.52 277.424C161.494 277.351 161.46 277.281 161.419 277.215L160.813 276.249C160.749 276.148 160.608 276.133 160.525 276.218C160.517 276.227 160.507 276.235 160.497 276.241Z" fill="#038699" stroke="#038699"/>
<path d="M148.4 278.766L148.39 278.772C148.316 278.823 148.247 278.881 148.184 278.945C147.961 279.174 147.825 279.475 147.801 279.793L147.75 280.473V282.91V283.029C147.75 283.595 147.943 284.144 148.296 284.586C148.459 284.792 148.654 284.97 148.873 285.114L151.007 286.521L151.974 287.016C152.38 287.225 152.829 287.333 153.286 287.333H153.719C154.072 287.333 154.415 287.216 154.695 287.001C155.089 286.698 155.32 286.23 155.32 285.733V285.186C155.32 284.993 155.299 284.801 155.258 284.612L154.968 283.271L154.887 282.883C154.766 282.308 154.513 281.768 154.146 281.308C153.99 281.113 153.815 280.934 153.624 280.773L153.413 280.597C153.101 280.334 152.764 280.102 152.408 279.903L151.975 279.661L150.743 279.029L149.817 278.629C149.352 278.429 148.817 278.48 148.4 278.766Z" fill="#088FA2" stroke="#088FA2"/>
<path d="M161.141 259.082C161.141 259.082 161.862 257.491 161.845 257.999C161.815 258.908 162.086 259.846 161.517 260.555C161.333 260.785 161.119 261.022 160.877 261.248C160.103 261.97 160.496 260.827 160.789 260.165L161.141 259.082Z" fill="#017A8B" stroke="#017A8B"/>
<path d="M441.179 376.423C439.859 379.453 438.561 380.667 435.767 380.667C433.216 380.667 431.147 378.767 431.147 376.424C431.147 374.081 433.678 371.473 436.229 371.473C438.781 371.473 441.311 373.593 441.179 376.423Z" fill="black" fill-opacity="0.3"/>
<path d="M151.376 287.962C148.442 287.204 147.181 286.248 146.872 283.874C146.589 281.708 148.108 279.723 150.264 279.442C152.421 279.161 155.101 280.998 155.383 283.165C155.666 285.332 153.995 287.735 151.376 287.962Z" fill="black" fill-opacity="0.3"/>
<path d="M150.579 283.798L142.525 291.047C138.766 294.429 137.132 299.581 138.253 304.511C139.322 309.218 142.748 313.038 147.311 314.611L181.783 326.498C192.358 330.144 197.276 342.107 195.021 353.063C190.181 376.565 195.576 402.455 238.961 395.513C265.054 391.338 282.12 388.608 292.934 386.877C302.475 385.351 311.627 391.231 314.222 400.538L322.62 430.654C326.234 443.615 341.804 448.816 352.482 440.629L436.229 376.423" stroke="url(#paint5_linear_172_2375)" stroke-width="5" stroke-linecap="round"/>
<defs>
<filter id="filter0_d_172_2375" x="9.72748e-05" y="9.72748e-05" width="757.2" height="439.2" filterUnits="userSpaceOnUse" color-interpolation-filters="sRGB">
<feFlood flood-opacity="0" result="BackgroundImageFix"/>
<feColorMatrix in="SourceAlpha" type="matrix" values="0 0 0 0 0 0 0 0 0 0 0 0 0 0 0 0 0 0 127 0" result="hardAlpha"/>
<feOffset dy="4"/>
<feGaussianBlur stdDeviation="8.8"/>
<feComposite in2="hardAlpha" operator="out"/>
<feColorMatrix type="matrix" values="0 0 0 0 0 0 0 0 0 0 0 0 0 0 0 0 0 0 0.15 0"/>
<feBlend mode="normal" in2="BackgroundImageFix" result="effect1_dropShadow_172_2375"/>
<feBlend mode="normal" in="SourceGraphic" in2="effect1_dropShadow_172_2375" result="shape"/>
</filter>
<filter id="filter1_i_172_2375" x="367.602" y="203.531" width="247.556" height="227.117" filterUnits="userSpaceOnUse" color-interpolation-filters="sRGB">
<feFlood flood-opacity="0" result="BackgroundImageFix"/>
<feBlend mode="normal" in="SourceGraphic" in2="BackgroundImageFix" result="shape"/>
<feColorMatrix in="SourceAlpha" type="matrix" values="0 0 0 0 0 0 0 0 0 0 0 0 0 0 0 0 0 0 127 0" result="hardAlpha"/>
<feOffset dy="4"/>
<feGaussianBlur stdDeviation="2"/>
<feComposite in2="hardAlpha" operator="arithmetic" k2="-1" k3="1"/>
<feColorMatrix type="matrix" values="0 0 0 0 0 0 0 0 0 0 0 0 0 0 0 0 0 0 0.25 0"/>
<feBlend mode="normal" in2="shape" result="effect1_innerShadow_172_2375"/>
</filter>
<filter id="filter2_d_172_2375" x="429.549" y="276.517" width="51.1455" height="54.9526" filterUnits="userSpaceOnUse" color-interpolation-filters="sRGB">
<feFlood flood-opacity="0" result="BackgroundImageFix"/>
<feColorMatrix in="SourceAlpha" type="matrix" values="0 0 0 0 0 0 0 0 0 0 0 0 0 0 0 0 0 0 127 0" result="hardAlpha"/>
<feOffset dy="4"/>
<feGaussianBlur stdDeviation="2"/>
<feComposite in2="hardAlpha" operator="out"/>
<feColorMatrix type="matrix" values="0 0 0 0 0 0 0 0 0 0 0 0 0 0 0 0 0 0 0.25 0"/>
<feBlend mode="normal" in2="BackgroundImageFix" result="effect1_dropShadow_172_2375"/>
<feBlend mode="normal" in="SourceGraphic" in2="effect1_dropShadow_172_2375" result="shape"/>
</filter>
<filter id="filter3_d_172_2375" x="398.56" y="295.699" width="51.145" height="54.9526" filterUnits="userSpaceOnUse" color-interpolation-filters="sRGB">
<feFlood flood-opacity="0" result="BackgroundImageFix"/>
<feColorMatrix in="SourceAlpha" type="matrix" values="0 0 0 0 0 0 0 0 0 0 0 0 0 0 0 0 0 0 127 0" result="hardAlpha"/>
<feOffset dy="4"/>
<feGaussianBlur stdDeviation="2"/>
<feComposite in2="hardAlpha" operator="out"/>
<feColorMatrix type="matrix" values="0 0 0 0 0 0 0 0 0 0 0 0 0 0 0 0 0 0 0.25 0"/>
<feBlend mode="normal" in2="BackgroundImageFix" result="effect1_dropShadow_172_2375"/>
<feBlend mode="normal" in="SourceGraphic" in2="effect1_dropShadow_172_2375" result="shape"/>
</filter>
<filter id="filter4_d_172_2375" x="461.778" y="253.497" width="51.146" height="54.9526" filterUnits="userSpaceOnUse" color-interpolation-filters="sRGB">
<feFlood flood-opacity="0" result="BackgroundImageFix"/>
<feColorMatrix in="SourceAlpha" type="matrix" values="0 0 0 0 0 0 0 0 0 0 0 0 0 0 0 0 0 0 127 0" result="hardAlpha"/>
<feOffset dy="4"/>
<feGaussianBlur stdDeviation="2"/>
<feComposite in2="hardAlpha" operator="out"/>
<feColorMatrix type="matrix" values="0 0 0 0 0 0 0 0 0 0 0 0 0 0 0 0 0 0 0.25 0"/>
<feBlend mode="normal" in2="BackgroundImageFix" result="effect1_dropShadow_172_2375"/>
<feBlend mode="normal" in="SourceGraphic" in2="effect1_dropShadow_172_2375" result="shape"/>
</filter>
<filter id="filter5_d_172_2375" x="522.518" y="291.863" width="51.1455" height="54.9524" filterUnits="userSpaceOnUse" color-interpolation-filters="sRGB">
<feFlood flood-opacity="0" result="BackgroundImageFix"/>
<feColorMatrix in="SourceAlpha" type="matrix" values="0 0 0 0 0 0 0 0 0 0 0 0 0 0 0 0 0 0 127 0" result="hardAlpha"/>
<feOffset dy="4"/>
<feGaussianBlur stdDeviation="2"/>
<feComposite in2="hardAlpha" operator="out"/>
<feColorMatrix type="matrix" values="0 0 0 0 0 0 0 0 0 0 0 0 0 0 0 0 0 0 0.25 0"/>
<feBlend mode="normal" in2="BackgroundImageFix" result="effect1_dropShadow_172_2375"/>
<feBlend mode="normal" in="SourceGraphic" in2="effect1_dropShadow_172_2375" result="shape"/>
</filter>
<filter id="filter6_d_172_2375" x="492.767" y="312.324" width="51.146" height="54.9526" filterUnits="userSpaceOnUse" color-interpolation-filters="sRGB">
<feFlood flood-opacity="0" result="BackgroundImageFix"/>
<feColorMatrix in="SourceAlpha" type="matrix" values="0 0 0 0 0 0 0 0 0 0 0 0 0 0 0 0 0 0 127 0" result="hardAlpha"/>
<feOffset dy="4"/>
<feGaussianBlur stdDeviation="2"/>
<feComposite in2="hardAlpha" operator="out"/>
<feColorMatrix type="matrix" values="0 0 0 0 0 0 0 0 0 0 0 0 0 0 0 0 0 0 0.25 0"/>
<feBlend mode="normal" in2="BackgroundImageFix" result="effect1_dropShadow_172_2375"/>
<feBlend mode="normal" in="SourceGraphic" in2="effect1_dropShadow_172_2375" result="shape"/>
</filter>
<filter id="filter7_d_172_2375" x="463.018" y="334.065" width="51.145" height="54.9524" filterUnits="userSpaceOnUse" color-interpolation-filters="sRGB">
<feFlood flood-opacity="0" result="BackgroundImageFix"/>
<feColorMatrix in="SourceAlpha" type="matrix" values="0 0 0 0 0 0 0 0 0 0 0 0 0 0 0 0 0 0 127 0" result="hardAlpha"/>
<feOffset dy="4"/>
<feGaussianBlur stdDeviation="2"/>
<feComposite in2="hardAlpha" operator="out"/>
<feColorMatrix type="matrix" values="0 0 0 0 0 0 0 0 0 0 0 0 0 0 0 0 0 0 0.25 0"/>
<feBlend mode="normal" in2="BackgroundImageFix" result="effect1_dropShadow_172_2375"/>
<feBlend mode="normal" in="SourceGraphic" in2="effect1_dropShadow_172_2375" result="shape"/>
</filter>
<filter id="filter8_i_172_2375" x="116.912" y="92.9358" width="256.954" height="221.611" filterUnits="userSpaceOnUse" color-interpolation-filters="sRGB">
<feFlood flood-opacity="0" result="BackgroundImageFix"/>
<feBlend mode="normal" in="SourceGraphic" in2="BackgroundImageFix" result="shape"/>
<feColorMatrix in="SourceAlpha" type="matrix" values="0 0 0 0 0 0 0 0 0 0 0 0 0 0 0 0 0 0 127 0" result="hardAlpha"/>
<feOffset dy="4"/>
<feGaussianBlur stdDeviation="11.05"/>
<feComposite in2="hardAlpha" operator="arithmetic" k2="-1" k3="1"/>
<feColorMatrix type="matrix" values="0 0 0 0 0.0509804 0 0 0 0 0.392157 0 0 0 0 0.6 0 0 0 0.3 0"/>
<feBlend mode="normal" in2="shape" result="effect1_innerShadow_172_2375"/>
</filter>
<filter id="filter9_f_172_2375" x="152.3" y="186.467" width="164.283" height="71.635" filterUnits="userSpaceOnUse" color-interpolation-filters="sRGB">
<feFlood flood-opacity="0" result="BackgroundImageFix"/>
<feBlend mode="normal" in="SourceGraphic" in2="BackgroundImageFix" result="shape"/>
<feGaussianBlur stdDeviation="2" result="effect1_foregroundBlur_172_2375"/>
</filter>
<filter id="filter10_i_172_2375" x="358.361" y="149.724" width="42.3081" height="58.6772" filterUnits="userSpaceOnUse" color-interpolation-filters="sRGB">
<feFlood flood-opacity="0" result="BackgroundImageFix"/>
<feBlend mode="normal" in="SourceGraphic" in2="BackgroundImageFix" result="shape"/>
<feColorMatrix in="SourceAlpha" type="matrix" values="0 0 0 0 0 0 0 0 0 0 0 0 0 0 0 0 0 0 127 0" result="hardAlpha"/>
<feOffset dy="4"/>
<feGaussianBlur stdDeviation="2"/>
<feComposite in2="hardAlpha" operator="arithmetic" k2="-1" k3="1"/>
<feColorMatrix type="matrix" values="0 0 0 0 0.32549 0 0 0 0 0.662745 0 0 0 0 0.203922 0 0 0 1 0"/>
<feBlend mode="normal" in2="shape" result="effect1_innerShadow_172_2375"/>
</filter>
<filter id="filter11_i_172_2375" x="505.429" y="353.356" width="42.3081" height="58.6772" filterUnits="userSpaceOnUse" color-interpolation-filters="sRGB">
<feFlood flood-opacity="0" result="BackgroundImageFix"/>
<feBlend mode="normal" in="SourceGraphic" in2="BackgroundImageFix" result="shape"/>
<feColorMatrix in="SourceAlpha" type="matrix" values="0 0 0 0 0 0 0 0 0 0 0 0 0 0 0 0 0 0 127 0" result="hardAlpha"/>
<feOffset dy="4"/>
<feGaussianBlur stdDeviation="2"/>
<feComposite in2="hardAlpha" operator="arithmetic" k2="-1" k3="1"/>
<feColorMatrix type="matrix" values="0 0 0 0 0.32549 0 0 0 0 0.662745 0 0 0 0 0.203922 0 0 0 1 0"/>
<feBlend mode="normal" in2="shape" result="effect1_innerShadow_172_2375"/>
</filter>
<filter id="filter12_i_172_2375" x="117.962" y="194.975" width="42.3081" height="58.6772" filterUnits="userSpaceOnUse" color-interpolation-filters="sRGB">
<feFlood flood-opacity="0" result="BackgroundImageFix"/>
<feBlend mode="normal" in="SourceGraphic" in2="BackgroundImageFix" result="shape"/>
<feColorMatrix in="SourceAlpha" type="matrix" values="0 0 0 0 0 0 0 0 0 0 0 0 0 0 0 0 0 0 127 0" result="hardAlpha"/>
<feOffset dy="4"/>
<feGaussianBlur stdDeviation="2"/>
<feComposite in2="hardAlpha" operator="arithmetic" k2="-1" k3="1"/>
<feColorMatrix type="matrix" values="0 0 0 0 0.32549 0 0 0 0 0.662745 0 0 0 0 0.203922 0 0 0 1 0"/>
<feBlend mode="normal" in2="shape" result="effect1_innerShadow_172_2375"/>
</filter>
<filter id="filter13_d_172_2375" x="113.296" y="142.594" width="36.686" height="47.7058" filterUnits="userSpaceOnUse" color-interpolation-filters="sRGB">
<feFlood flood-opacity="0" result="BackgroundImageFix"/>
<feColorMatrix in="SourceAlpha" type="matrix" values="0 0 0 0 0 0 0 0 0 0 0 0 0 0 0 0 0 0 127 0" result="hardAlpha"/>
<feOffset dy="4"/>
<feGaussianBlur stdDeviation="2"/>
<feComposite in2="hardAlpha" operator="out"/>
<feColorMatrix type="matrix" values="0 0 0 0 1 0 0 0 0 0.906397 0 0 0 0 0.628934 0 0 0 1 0"/>
<feBlend mode="normal" in2="BackgroundImageFix" result="effect1_dropShadow_172_2375"/>
<feBlend mode="normal" in="SourceGraphic" in2="effect1_dropShadow_172_2375" result="shape"/>
</filter>
<filter id="filter14_d_172_2375" x="406.017" y="151.079" width="36.686" height="47.7058" filterUnits="userSpaceOnUse" color-interpolation-filters="sRGB">
<feFlood flood-opacity="0" result="BackgroundImageFix"/>
<feColorMatrix in="SourceAlpha" type="matrix" values="0 0 0 0 0 0 0 0 0 0 0 0 0 0 0 0 0 0 127 0" result="hardAlpha"/>
<feOffset dy="4"/>
<feGaussianBlur stdDeviation="2"/>
<feComposite in2="hardAlpha" operator="out"/>
<feColorMatrix type="matrix" values="0 0 0 0 1 0 0 0 0 0.906397 0 0 0 0 0.628934 0 0 0 1 0"/>
<feBlend mode="normal" in2="BackgroundImageFix" result="effect1_dropShadow_172_2375"/>
<feBlend mode="normal" in="SourceGraphic" in2="effect1_dropShadow_172_2375" result="shape"/>
</filter>
<filter id="filter15_d_172_2375" x="603.993" y="315.116" width="36.686" height="47.7058" filterUnits="userSpaceOnUse" color-interpolation-filters="sRGB">
<feFlood flood-opacity="0" result="BackgroundImageFix"/>
<feColorMatrix in="SourceAlpha" type="matrix" values="0 0 0 0 0 0 0 0 0 0 0 0 0 0 0 0 0 0 127 0" result="hardAlpha"/>
<feOffset dy="4"/>
<feGaussianBlur stdDeviation="2"/>
<feComposite in2="hardAlpha" operator="out"/>
<feColorMatrix type="matrix" values="0 0 0 0 1 0 0 0 0 0.906397 0 0 0 0 0.628934 0 0 0 1 0"/>
<feBlend mode="normal" in2="BackgroundImageFix" result="effect1_dropShadow_172_2375"/>
<feBlend mode="normal" in="SourceGraphic" in2="effect1_dropShadow_172_2375" result="shape"/>
</filter>
<filter id="filter16_d_172_2375" x="284.393" y="248.652" width="31.0625" height="38.5205" filterUnits="userSpaceOnUse" color-interpolation-filters="sRGB">
<feFlood flood-opacity="0" result="BackgroundImageFix"/>
<feColorMatrix in="SourceAlpha" type="matrix" values="0 0 0 0 0 0 0 0 0 0 0 0 0 0 0 0 0 0 127 0" result="hardAlpha"/>
<feOffset dy="4"/>
<feGaussianBlur stdDeviation="2"/>
<feComposite in2="hardAlpha" operator="out"/>
<feColorMatrix type="matrix" values="0 0 0 0 1 0 0 0 0 0.906397 0 0 0 0 0.628934 0 0 0 1 0"/>
<feBlend mode="normal" in2="BackgroundImageFix" result="effect1_dropShadow_172_2375"/>
<feBlend mode="normal" in="SourceGraphic" in2="effect1_dropShadow_172_2375" result="shape"/>
</filter>
<filter id="filter17_d_172_2375" x="143.52" y="273.467" width="19.9004" height="15.5425" filterUnits="userSpaceOnUse" color-interpolation-filters="sRGB">
<feFlood flood-opacity="0" result="BackgroundImageFix"/>
<feColorMatrix in="SourceAlpha" type="matrix" values="0 0 0 0 0 0 0 0 0 0 0 0 0 0 0 0 0 0 127 0" result="hardAlpha"/>
<feOffset dy="4"/>
<feGaussianBlur stdDeviation="2"/>
<feComposite in2="hardAlpha" operator="out"/>
<feColorMatrix type="matrix" values="0 0 0 0 0 0 0 0 0 0 0 0 0 0 0 0 0 0 0.25 0"/>
<feBlend mode="normal" in2="BackgroundImageFix" result="effect1_dropShadow_172_2375"/>
<feBlend mode="normal" in="SourceGraphic" in2="effect1_dropShadow_172_2375" result="shape"/>
</filter>
<linearGradient id="paint0_linear_172_2375" x1="378.6" y1="13.6001" x2="378.1" y2="419.1" gradientUnits="userSpaceOnUse">
<stop offset="0.490385" stop-color="white" stop-opacity="0.5"/>
<stop offset="0.850962" stop-color="#088FA2" stop-opacity="0.06"/>
<stop offset="0.951923" stop-color="white" stop-opacity="0"/>
</linearGradient>
<linearGradient id="paint1_linear_172_2375" x1="131.488" y1="143.094" x2="131.488" y2="181.982" gradientUnits="userSpaceOnUse">
<stop stop-color="#FFE7A0"/>
<stop offset="0.6875" stop-color="#F5B700"/>
</linearGradient>
<linearGradient id="paint2_linear_172_2375" x1="424.209" y1="151.579" x2="424.209" y2="190.467" gradientUnits="userSpaceOnUse">
<stop stop-color="#FFE7A0"/>
<stop offset="0.6875" stop-color="#F5B700"/>
</linearGradient>
<linearGradient id="paint3_linear_172_2375" x1="622.185" y1="315.616" x2="622.185" y2="354.504" gradientUnits="userSpaceOnUse">
<stop stop-color="#FFE7A0"/>
<stop offset="0.6875" stop-color="#F5B700"/>
</linearGradient>
<linearGradient id="paint4_linear_172_2375" x1="299.767" y1="249.152" x2="299.767" y2="278.849" gradientUnits="userSpaceOnUse">
<stop stop-color="#FFE7A0"/>
<stop offset="0.6875" stop-color="#F5B700"/>
</linearGradient>
<linearGradient id="paint5_linear_172_2375" x1="288.101" y1="262.587" x2="180.982" y2="447.835" gradientUnits="userSpaceOnUse">
<stop offset="0.182692" stop-color="white"/>
<stop offset="0.850962" stop-color="#F1BA4D"/>
</linearGradient>
</defs>
</svg>
